G04 #@! TF.FileFunction,Legend,Bot*
%FSLAX46Y46*%
G04 Gerber Fmt 4.6, Leading zero omitted, Abs format (unit mm)*
G04 Created by KiCad (PCBNEW 4.0.1-stable) date 1/31/2017 10:13:49 PM*
%MOMM*%
G01*
G04 APERTURE LIST*
%ADD10C,0.100000*%
%ADD11C,0.150000*%
%ADD12C,0.120000*%
G04 APERTURE END LIST*
D10*
D11*
X135595239Y-112151762D02*
X135452382Y-112199381D01*
X135214286Y-112199381D01*
X135119048Y-112151762D01*
X135071429Y-112104143D01*
X135023810Y-112008905D01*
X135023810Y-111913667D01*
X135071429Y-111818429D01*
X135119048Y-111770810D01*
X135214286Y-111723190D01*
X135404763Y-111675571D01*
X135500001Y-111627952D01*
X135547620Y-111580333D01*
X135595239Y-111485095D01*
X135595239Y-111389857D01*
X135547620Y-111294619D01*
X135500001Y-111247000D01*
X135404763Y-111199381D01*
X135166667Y-111199381D01*
X135023810Y-111247000D01*
X134261905Y-111675571D02*
X134595239Y-111675571D01*
X134595239Y-112199381D02*
X134595239Y-111199381D01*
X134119048Y-111199381D01*
X133738096Y-111199381D02*
X133738096Y-112008905D01*
X133690477Y-112104143D01*
X133642858Y-112151762D01*
X133547620Y-112199381D01*
X133357143Y-112199381D01*
X133261905Y-112151762D01*
X133214286Y-112104143D01*
X133166667Y-112008905D01*
X133166667Y-111199381D01*
X132738096Y-112151762D02*
X132595239Y-112199381D01*
X132357143Y-112199381D01*
X132261905Y-112151762D01*
X132214286Y-112104143D01*
X132166667Y-112008905D01*
X132166667Y-111913667D01*
X132214286Y-111818429D01*
X132261905Y-111770810D01*
X132357143Y-111723190D01*
X132547620Y-111675571D01*
X132642858Y-111627952D01*
X132690477Y-111580333D01*
X132738096Y-111485095D01*
X132738096Y-111389857D01*
X132690477Y-111294619D01*
X132642858Y-111247000D01*
X132547620Y-111199381D01*
X132309524Y-111199381D01*
X132166667Y-111247000D01*
X131309524Y-112199381D02*
X131309524Y-111675571D01*
X131357143Y-111580333D01*
X131452381Y-111532714D01*
X131642858Y-111532714D01*
X131738096Y-111580333D01*
X131309524Y-112151762D02*
X131404762Y-112199381D01*
X131642858Y-112199381D01*
X131738096Y-112151762D01*
X131785715Y-112056524D01*
X131785715Y-111961286D01*
X131738096Y-111866048D01*
X131642858Y-111818429D01*
X131404762Y-111818429D01*
X131309524Y-111770810D01*
X130976191Y-111532714D02*
X130595239Y-111532714D01*
X130833334Y-111199381D02*
X130833334Y-112056524D01*
X130785715Y-112151762D01*
X130690477Y-112199381D01*
X130595239Y-112199381D01*
X129500000Y-112199381D02*
X129500000Y-111199381D01*
X129166667Y-111532714D02*
X128785715Y-111532714D01*
X129023810Y-111199381D02*
X129023810Y-112056524D01*
X128976191Y-112151762D01*
X128880953Y-112199381D01*
X128785715Y-112199381D01*
X128452381Y-112104143D02*
X128404762Y-112151762D01*
X128452381Y-112199381D01*
X128500000Y-112151762D01*
X128452381Y-112104143D01*
X128452381Y-112199381D01*
X127452381Y-112199381D02*
X128023810Y-112199381D01*
X127738096Y-112199381D02*
X127738096Y-111199381D01*
X127833334Y-111342238D01*
X127928572Y-111437476D01*
X128023810Y-111485095D01*
X126261905Y-111675571D02*
X125928571Y-111675571D01*
X125785714Y-112199381D02*
X126261905Y-112199381D01*
X126261905Y-111199381D01*
X125785714Y-111199381D01*
X125452381Y-111532714D02*
X125214286Y-112199381D01*
X124976190Y-111532714D01*
X124166666Y-112199381D02*
X124166666Y-111675571D01*
X124214285Y-111580333D01*
X124309523Y-111532714D01*
X124500000Y-111532714D01*
X124595238Y-111580333D01*
X124166666Y-112151762D02*
X124261904Y-112199381D01*
X124500000Y-112199381D01*
X124595238Y-112151762D01*
X124642857Y-112056524D01*
X124642857Y-111961286D01*
X124595238Y-111866048D01*
X124500000Y-111818429D01*
X124261904Y-111818429D01*
X124166666Y-111770810D01*
X123547619Y-112199381D02*
X123642857Y-112151762D01*
X123690476Y-112056524D01*
X123690476Y-111199381D01*
X122404761Y-112199381D02*
X122404761Y-111532714D01*
X122404761Y-111723190D02*
X122357142Y-111627952D01*
X122309523Y-111580333D01*
X122214285Y-111532714D01*
X122119046Y-111532714D01*
X121404760Y-112151762D02*
X121499998Y-112199381D01*
X121690475Y-112199381D01*
X121785713Y-112151762D01*
X121833332Y-112056524D01*
X121833332Y-111675571D01*
X121785713Y-111580333D01*
X121690475Y-111532714D01*
X121499998Y-111532714D01*
X121404760Y-111580333D01*
X121357141Y-111675571D01*
X121357141Y-111770810D01*
X121833332Y-111866048D01*
X121023808Y-111532714D02*
X120785713Y-112199381D01*
X120547617Y-111532714D01*
X120166665Y-112104143D02*
X120119046Y-112151762D01*
X120166665Y-112199381D01*
X120214284Y-112151762D01*
X120166665Y-112104143D01*
X120166665Y-112199381D01*
X118404760Y-112199381D02*
X118976189Y-112199381D01*
X118690475Y-112199381D02*
X118690475Y-111199381D01*
X118785713Y-111342238D01*
X118880951Y-111437476D01*
X118976189Y-111485095D01*
X130285714Y-112749381D02*
X130285714Y-113463667D01*
X130333334Y-113606524D01*
X130428572Y-113701762D01*
X130571429Y-113749381D01*
X130666667Y-113749381D01*
X129380952Y-113749381D02*
X129380952Y-113225571D01*
X129428571Y-113130333D01*
X129523809Y-113082714D01*
X129714286Y-113082714D01*
X129809524Y-113130333D01*
X129380952Y-113701762D02*
X129476190Y-113749381D01*
X129714286Y-113749381D01*
X129809524Y-113701762D01*
X129857143Y-113606524D01*
X129857143Y-113511286D01*
X129809524Y-113416048D01*
X129714286Y-113368429D01*
X129476190Y-113368429D01*
X129380952Y-113320810D01*
X128904762Y-113082714D02*
X128904762Y-113749381D01*
X128904762Y-113177952D02*
X128857143Y-113130333D01*
X128761905Y-113082714D01*
X128619047Y-113082714D01*
X128523809Y-113130333D01*
X128476190Y-113225571D01*
X128476190Y-113749381D01*
X127952381Y-113701762D02*
X127952381Y-113749381D01*
X128000000Y-113844619D01*
X128047619Y-113892238D01*
X126809524Y-112844619D02*
X126761905Y-112797000D01*
X126666667Y-112749381D01*
X126428571Y-112749381D01*
X126333333Y-112797000D01*
X126285714Y-112844619D01*
X126238095Y-112939857D01*
X126238095Y-113035095D01*
X126285714Y-113177952D01*
X126857143Y-113749381D01*
X126238095Y-113749381D01*
X125619048Y-112749381D02*
X125523809Y-112749381D01*
X125428571Y-112797000D01*
X125380952Y-112844619D01*
X125333333Y-112939857D01*
X125285714Y-113130333D01*
X125285714Y-113368429D01*
X125333333Y-113558905D01*
X125380952Y-113654143D01*
X125428571Y-113701762D01*
X125523809Y-113749381D01*
X125619048Y-113749381D01*
X125714286Y-113701762D01*
X125761905Y-113654143D01*
X125809524Y-113558905D01*
X125857143Y-113368429D01*
X125857143Y-113130333D01*
X125809524Y-112939857D01*
X125761905Y-112844619D01*
X125714286Y-112797000D01*
X125619048Y-112749381D01*
X124333333Y-113749381D02*
X124904762Y-113749381D01*
X124619048Y-113749381D02*
X124619048Y-112749381D01*
X124714286Y-112892238D01*
X124809524Y-112987476D01*
X124904762Y-113035095D01*
X124000000Y-112749381D02*
X123333333Y-112749381D01*
X123761905Y-113749381D01*
D12*
X139406100Y-94205300D02*
X139406100Y-92205300D01*
X142356100Y-92205300D02*
X142356100Y-94205300D01*
X146690600Y-93957700D02*
X147390600Y-93957700D01*
X147390600Y-92757700D02*
X146690600Y-92757700D01*
D11*
X117796500Y-99932000D02*
X118296500Y-99932000D01*
X118296500Y-100982000D02*
X117796500Y-100982000D01*
X120413000Y-109224000D02*
X120413000Y-109724000D01*
X119363000Y-109724000D02*
X119363000Y-109224000D01*
D12*
X120871000Y-104779000D02*
X120871000Y-105279000D01*
X119921000Y-105279000D02*
X119921000Y-104779000D01*
X119347000Y-104779000D02*
X119347000Y-105279000D01*
X118397000Y-105279000D02*
X118397000Y-104779000D01*
X117217000Y-108425000D02*
X116717000Y-108425000D01*
X116717000Y-107475000D02*
X117217000Y-107475000D01*
D11*
X147443000Y-95800400D02*
X146943000Y-95800400D01*
X146943000Y-94750400D02*
X147443000Y-94750400D01*
X145296400Y-95068200D02*
X145296400Y-94568200D01*
X146346400Y-94568200D02*
X146346400Y-95068200D01*
X111764000Y-96376000D02*
X112264000Y-96376000D01*
X112264000Y-97426000D02*
X111764000Y-97426000D01*
X122508200Y-86952600D02*
X123008200Y-86952600D01*
X123008200Y-88002600D02*
X122508200Y-88002600D01*
X122508200Y-88476600D02*
X123008200Y-88476600D01*
X123008200Y-89526600D02*
X122508200Y-89526600D01*
X122508200Y-90000600D02*
X123008200Y-90000600D01*
X123008200Y-91050600D02*
X122508200Y-91050600D01*
D12*
X130878600Y-98340100D02*
X130878600Y-98840100D01*
X129928600Y-98840100D02*
X129928600Y-98340100D01*
X147316000Y-89248000D02*
X146816000Y-89248000D01*
X146816000Y-88298000D02*
X147316000Y-88298000D01*
X142207000Y-109478000D02*
X142207000Y-109978000D01*
X141257000Y-109978000D02*
X141257000Y-109478000D01*
X139921000Y-109478000D02*
X139921000Y-109978000D01*
X138971000Y-109978000D02*
X138971000Y-109478000D01*
X139315000Y-105885000D02*
X138815000Y-105885000D01*
X138815000Y-104935000D02*
X139315000Y-104935000D01*
X139315000Y-107028000D02*
X138815000Y-107028000D01*
X138815000Y-106078000D02*
X139315000Y-106078000D01*
X143514000Y-106586000D02*
X144014000Y-106586000D01*
X144014000Y-107536000D02*
X143514000Y-107536000D01*
X121535000Y-107409000D02*
X121035000Y-107409000D01*
X121035000Y-106459000D02*
X121535000Y-106459000D01*
D11*
X138815000Y-103742000D02*
X139315000Y-103742000D01*
X139315000Y-104792000D02*
X138815000Y-104792000D01*
X138538243Y-92562443D02*
X138585862Y-92514824D01*
X138633481Y-92371967D01*
X138633481Y-92276729D01*
X138585862Y-92133871D01*
X138490624Y-92038633D01*
X138395386Y-91991014D01*
X138204910Y-91943395D01*
X138062052Y-91943395D01*
X137871576Y-91991014D01*
X137776338Y-92038633D01*
X137681100Y-92133871D01*
X137633481Y-92276729D01*
X137633481Y-92371967D01*
X137681100Y-92514824D01*
X137728719Y-92562443D01*
X137633481Y-92895776D02*
X137633481Y-93514824D01*
X138014433Y-93181490D01*
X138014433Y-93324348D01*
X138062052Y-93419586D01*
X138109671Y-93467205D01*
X138204910Y-93514824D01*
X138443005Y-93514824D01*
X138538243Y-93467205D01*
X138585862Y-93419586D01*
X138633481Y-93324348D01*
X138633481Y-93038633D01*
X138585862Y-92943395D01*
X138538243Y-92895776D01*
X137966814Y-94371967D02*
X138633481Y-94371967D01*
X137585862Y-94133871D02*
X138300148Y-93895776D01*
X138300148Y-94514824D01*
X147708857Y-92051143D02*
X147756476Y-92098762D01*
X147899333Y-92146381D01*
X147994571Y-92146381D01*
X148137429Y-92098762D01*
X148232667Y-92003524D01*
X148280286Y-91908286D01*
X148327905Y-91717810D01*
X148327905Y-91574952D01*
X148280286Y-91384476D01*
X148232667Y-91289238D01*
X148137429Y-91194000D01*
X147994571Y-91146381D01*
X147899333Y-91146381D01*
X147756476Y-91194000D01*
X147708857Y-91241619D01*
X147327905Y-91241619D02*
X147280286Y-91194000D01*
X147185048Y-91146381D01*
X146946952Y-91146381D01*
X146851714Y-91194000D01*
X146804095Y-91241619D01*
X146756476Y-91336857D01*
X146756476Y-91432095D01*
X146804095Y-91574952D01*
X147375524Y-92146381D01*
X146756476Y-92146381D01*
X146423143Y-91146381D02*
X145756476Y-91146381D01*
X146185048Y-92146381D01*
X120435666Y-100782381D02*
X120769000Y-100306190D01*
X121007095Y-100782381D02*
X121007095Y-99782381D01*
X120626142Y-99782381D01*
X120530904Y-99830000D01*
X120483285Y-99877619D01*
X120435666Y-99972857D01*
X120435666Y-100115714D01*
X120483285Y-100210952D01*
X120530904Y-100258571D01*
X120626142Y-100306190D01*
X121007095Y-100306190D01*
X119578523Y-100115714D02*
X119578523Y-100782381D01*
X119816619Y-99734762D02*
X120054714Y-100449048D01*
X119435666Y-100449048D01*
X121737381Y-109307334D02*
X121261190Y-108974000D01*
X121737381Y-108735905D02*
X120737381Y-108735905D01*
X120737381Y-109116858D01*
X120785000Y-109212096D01*
X120832619Y-109259715D01*
X120927857Y-109307334D01*
X121070714Y-109307334D01*
X121165952Y-109259715D01*
X121213571Y-109212096D01*
X121261190Y-109116858D01*
X121261190Y-108735905D01*
X120737381Y-109640667D02*
X120737381Y-110307334D01*
X121737381Y-109878762D01*
X120753143Y-101719143D02*
X120800762Y-101671524D01*
X120848381Y-101528667D01*
X120848381Y-101433429D01*
X120800762Y-101290571D01*
X120705524Y-101195333D01*
X120610286Y-101147714D01*
X120419810Y-101100095D01*
X120276952Y-101100095D01*
X120086476Y-101147714D01*
X119991238Y-101195333D01*
X119896000Y-101290571D01*
X119848381Y-101433429D01*
X119848381Y-101528667D01*
X119896000Y-101671524D01*
X119943619Y-101719143D01*
X120848381Y-102671524D02*
X120848381Y-102100095D01*
X120848381Y-102385809D02*
X119848381Y-102385809D01*
X119991238Y-102290571D01*
X120086476Y-102195333D01*
X120134095Y-102100095D01*
X119943619Y-103052476D02*
X119896000Y-103100095D01*
X119848381Y-103195333D01*
X119848381Y-103433429D01*
X119896000Y-103528667D01*
X119943619Y-103576286D01*
X120038857Y-103623905D01*
X120134095Y-103623905D01*
X120276952Y-103576286D01*
X120848381Y-103004857D01*
X120848381Y-103623905D01*
X119229143Y-102703334D02*
X119276762Y-102655715D01*
X119324381Y-102512858D01*
X119324381Y-102417620D01*
X119276762Y-102274762D01*
X119181524Y-102179524D01*
X119086286Y-102131905D01*
X118895810Y-102084286D01*
X118752952Y-102084286D01*
X118562476Y-102131905D01*
X118467238Y-102179524D01*
X118372000Y-102274762D01*
X118324381Y-102417620D01*
X118324381Y-102512858D01*
X118372000Y-102655715D01*
X118419619Y-102703334D01*
X118324381Y-103560477D02*
X118324381Y-103370000D01*
X118372000Y-103274762D01*
X118419619Y-103227143D01*
X118562476Y-103131905D01*
X118752952Y-103084286D01*
X119133905Y-103084286D01*
X119229143Y-103131905D01*
X119276762Y-103179524D01*
X119324381Y-103274762D01*
X119324381Y-103465239D01*
X119276762Y-103560477D01*
X119229143Y-103608096D01*
X119133905Y-103655715D01*
X118895810Y-103655715D01*
X118800571Y-103608096D01*
X118752952Y-103560477D01*
X118705333Y-103465239D01*
X118705333Y-103274762D01*
X118752952Y-103179524D01*
X118800571Y-103131905D01*
X118895810Y-103084286D01*
X117133666Y-110007143D02*
X117181285Y-110054762D01*
X117324142Y-110102381D01*
X117419380Y-110102381D01*
X117562238Y-110054762D01*
X117657476Y-109959524D01*
X117705095Y-109864286D01*
X117752714Y-109673810D01*
X117752714Y-109530952D01*
X117705095Y-109340476D01*
X117657476Y-109245238D01*
X117562238Y-109150000D01*
X117419380Y-109102381D01*
X117324142Y-109102381D01*
X117181285Y-109150000D01*
X117133666Y-109197619D01*
X116800333Y-109102381D02*
X116181285Y-109102381D01*
X116514619Y-109483333D01*
X116371761Y-109483333D01*
X116276523Y-109530952D01*
X116228904Y-109578571D01*
X116181285Y-109673810D01*
X116181285Y-109911905D01*
X116228904Y-110007143D01*
X116276523Y-110054762D01*
X116371761Y-110102381D01*
X116657476Y-110102381D01*
X116752714Y-110054762D01*
X116800333Y-110007143D01*
X147835857Y-97527781D02*
X148169191Y-97051590D01*
X148407286Y-97527781D02*
X148407286Y-96527781D01*
X148026333Y-96527781D01*
X147931095Y-96575400D01*
X147883476Y-96623019D01*
X147835857Y-96718257D01*
X147835857Y-96861114D01*
X147883476Y-96956352D01*
X147931095Y-97003971D01*
X148026333Y-97051590D01*
X148407286Y-97051590D01*
X146883476Y-97527781D02*
X147454905Y-97527781D01*
X147169191Y-97527781D02*
X147169191Y-96527781D01*
X147264429Y-96670638D01*
X147359667Y-96765876D01*
X147454905Y-96813495D01*
X146502524Y-96623019D02*
X146454905Y-96575400D01*
X146359667Y-96527781D01*
X146121571Y-96527781D01*
X146026333Y-96575400D01*
X145978714Y-96623019D01*
X145931095Y-96718257D01*
X145931095Y-96813495D01*
X145978714Y-96956352D01*
X146550143Y-97527781D01*
X145931095Y-97527781D01*
X144473781Y-94175343D02*
X143997590Y-93842009D01*
X144473781Y-93603914D02*
X143473781Y-93603914D01*
X143473781Y-93984867D01*
X143521400Y-94080105D01*
X143569019Y-94127724D01*
X143664257Y-94175343D01*
X143807114Y-94175343D01*
X143902352Y-94127724D01*
X143949971Y-94080105D01*
X143997590Y-93984867D01*
X143997590Y-93603914D01*
X144473781Y-95127724D02*
X144473781Y-94556295D01*
X144473781Y-94842009D02*
X143473781Y-94842009D01*
X143616638Y-94746771D01*
X143711876Y-94651533D01*
X143759495Y-94556295D01*
X144473781Y-96080105D02*
X144473781Y-95508676D01*
X144473781Y-95794390D02*
X143473781Y-95794390D01*
X143616638Y-95699152D01*
X143711876Y-95603914D01*
X143759495Y-95508676D01*
X112021857Y-95448381D02*
X112355191Y-94972190D01*
X112593286Y-95448381D02*
X112593286Y-94448381D01*
X112212333Y-94448381D01*
X112117095Y-94496000D01*
X112069476Y-94543619D01*
X112021857Y-94638857D01*
X112021857Y-94781714D01*
X112069476Y-94876952D01*
X112117095Y-94924571D01*
X112212333Y-94972190D01*
X112593286Y-94972190D01*
X111069476Y-95448381D02*
X111640905Y-95448381D01*
X111355191Y-95448381D02*
X111355191Y-94448381D01*
X111450429Y-94591238D01*
X111545667Y-94686476D01*
X111640905Y-94734095D01*
X110450429Y-94448381D02*
X110355190Y-94448381D01*
X110259952Y-94496000D01*
X110212333Y-94543619D01*
X110164714Y-94638857D01*
X110117095Y-94829333D01*
X110117095Y-95067429D01*
X110164714Y-95257905D01*
X110212333Y-95353143D01*
X110259952Y-95400762D01*
X110355190Y-95448381D01*
X110450429Y-95448381D01*
X110545667Y-95400762D01*
X110593286Y-95353143D01*
X110640905Y-95257905D01*
X110688524Y-95067429D01*
X110688524Y-94829333D01*
X110640905Y-94638857D01*
X110593286Y-94543619D01*
X110545667Y-94496000D01*
X110450429Y-94448381D01*
X120689666Y-87955381D02*
X121023000Y-87479190D01*
X121261095Y-87955381D02*
X121261095Y-86955381D01*
X120880142Y-86955381D01*
X120784904Y-87003000D01*
X120737285Y-87050619D01*
X120689666Y-87145857D01*
X120689666Y-87288714D01*
X120737285Y-87383952D01*
X120784904Y-87431571D01*
X120880142Y-87479190D01*
X121261095Y-87479190D01*
X120356333Y-86955381D02*
X119737285Y-86955381D01*
X120070619Y-87336333D01*
X119927761Y-87336333D01*
X119832523Y-87383952D01*
X119784904Y-87431571D01*
X119737285Y-87526810D01*
X119737285Y-87764905D01*
X119784904Y-87860143D01*
X119832523Y-87907762D01*
X119927761Y-87955381D01*
X120213476Y-87955381D01*
X120308714Y-87907762D01*
X120356333Y-87860143D01*
X120689666Y-89479381D02*
X121023000Y-89003190D01*
X121261095Y-89479381D02*
X121261095Y-88479381D01*
X120880142Y-88479381D01*
X120784904Y-88527000D01*
X120737285Y-88574619D01*
X120689666Y-88669857D01*
X120689666Y-88812714D01*
X120737285Y-88907952D01*
X120784904Y-88955571D01*
X120880142Y-89003190D01*
X121261095Y-89003190D01*
X120308714Y-88574619D02*
X120261095Y-88527000D01*
X120165857Y-88479381D01*
X119927761Y-88479381D01*
X119832523Y-88527000D01*
X119784904Y-88574619D01*
X119737285Y-88669857D01*
X119737285Y-88765095D01*
X119784904Y-88907952D01*
X120356333Y-89479381D01*
X119737285Y-89479381D01*
X120689666Y-91003381D02*
X121023000Y-90527190D01*
X121261095Y-91003381D02*
X121261095Y-90003381D01*
X120880142Y-90003381D01*
X120784904Y-90051000D01*
X120737285Y-90098619D01*
X120689666Y-90193857D01*
X120689666Y-90336714D01*
X120737285Y-90431952D01*
X120784904Y-90479571D01*
X120880142Y-90527190D01*
X121261095Y-90527190D01*
X119737285Y-91003381D02*
X120308714Y-91003381D01*
X120023000Y-91003381D02*
X120023000Y-90003381D01*
X120118238Y-90146238D01*
X120213476Y-90241476D01*
X120308714Y-90289095D01*
X132460743Y-97947243D02*
X132508362Y-97899624D01*
X132555981Y-97756767D01*
X132555981Y-97661529D01*
X132508362Y-97518671D01*
X132413124Y-97423433D01*
X132317886Y-97375814D01*
X132127410Y-97328195D01*
X131984552Y-97328195D01*
X131794076Y-97375814D01*
X131698838Y-97423433D01*
X131603600Y-97518671D01*
X131555981Y-97661529D01*
X131555981Y-97756767D01*
X131603600Y-97899624D01*
X131651219Y-97947243D01*
X131555981Y-98280576D02*
X131555981Y-98899624D01*
X131936933Y-98566290D01*
X131936933Y-98709148D01*
X131984552Y-98804386D01*
X132032171Y-98852005D01*
X132127410Y-98899624D01*
X132365505Y-98899624D01*
X132460743Y-98852005D01*
X132508362Y-98804386D01*
X132555981Y-98709148D01*
X132555981Y-98423433D01*
X132508362Y-98328195D01*
X132460743Y-98280576D01*
X131555981Y-99756767D02*
X131555981Y-99566290D01*
X131603600Y-99471052D01*
X131651219Y-99423433D01*
X131794076Y-99328195D01*
X131984552Y-99280576D01*
X132365505Y-99280576D01*
X132460743Y-99328195D01*
X132508362Y-99375814D01*
X132555981Y-99471052D01*
X132555981Y-99661529D01*
X132508362Y-99756767D01*
X132460743Y-99804386D01*
X132365505Y-99852005D01*
X132127410Y-99852005D01*
X132032171Y-99804386D01*
X131984552Y-99756767D01*
X131936933Y-99661529D01*
X131936933Y-99471052D01*
X131984552Y-99375814D01*
X132032171Y-99328195D01*
X132127410Y-99280576D01*
X147708857Y-87860143D02*
X147756476Y-87907762D01*
X147899333Y-87955381D01*
X147994571Y-87955381D01*
X148137429Y-87907762D01*
X148232667Y-87812524D01*
X148280286Y-87717286D01*
X148327905Y-87526810D01*
X148327905Y-87383952D01*
X148280286Y-87193476D01*
X148232667Y-87098238D01*
X148137429Y-87003000D01*
X147994571Y-86955381D01*
X147899333Y-86955381D01*
X147756476Y-87003000D01*
X147708857Y-87050619D01*
X147375524Y-86955381D02*
X146756476Y-86955381D01*
X147089810Y-87336333D01*
X146946952Y-87336333D01*
X146851714Y-87383952D01*
X146804095Y-87431571D01*
X146756476Y-87526810D01*
X146756476Y-87764905D01*
X146804095Y-87860143D01*
X146851714Y-87907762D01*
X146946952Y-87955381D01*
X147232667Y-87955381D01*
X147327905Y-87907762D01*
X147375524Y-87860143D01*
X145804095Y-87955381D02*
X146375524Y-87955381D01*
X146089810Y-87955381D02*
X146089810Y-86955381D01*
X146185048Y-87098238D01*
X146280286Y-87193476D01*
X146375524Y-87241095D01*
X142089143Y-111625143D02*
X142136762Y-111577524D01*
X142184381Y-111434667D01*
X142184381Y-111339429D01*
X142136762Y-111196571D01*
X142041524Y-111101333D01*
X141946286Y-111053714D01*
X141755810Y-111006095D01*
X141612952Y-111006095D01*
X141422476Y-111053714D01*
X141327238Y-111101333D01*
X141232000Y-111196571D01*
X141184381Y-111339429D01*
X141184381Y-111434667D01*
X141232000Y-111577524D01*
X141279619Y-111625143D01*
X141279619Y-112006095D02*
X141232000Y-112053714D01*
X141184381Y-112148952D01*
X141184381Y-112387048D01*
X141232000Y-112482286D01*
X141279619Y-112529905D01*
X141374857Y-112577524D01*
X141470095Y-112577524D01*
X141612952Y-112529905D01*
X142184381Y-111958476D01*
X142184381Y-112577524D01*
X141184381Y-113434667D02*
X141184381Y-113244190D01*
X141232000Y-113148952D01*
X141279619Y-113101333D01*
X141422476Y-113006095D01*
X141612952Y-112958476D01*
X141993905Y-112958476D01*
X142089143Y-113006095D01*
X142136762Y-113053714D01*
X142184381Y-113148952D01*
X142184381Y-113339429D01*
X142136762Y-113434667D01*
X142089143Y-113482286D01*
X141993905Y-113529905D01*
X141755810Y-113529905D01*
X141660571Y-113482286D01*
X141612952Y-113434667D01*
X141565333Y-113339429D01*
X141565333Y-113148952D01*
X141612952Y-113053714D01*
X141660571Y-113006095D01*
X141755810Y-112958476D01*
X139803143Y-111625143D02*
X139850762Y-111577524D01*
X139898381Y-111434667D01*
X139898381Y-111339429D01*
X139850762Y-111196571D01*
X139755524Y-111101333D01*
X139660286Y-111053714D01*
X139469810Y-111006095D01*
X139326952Y-111006095D01*
X139136476Y-111053714D01*
X139041238Y-111101333D01*
X138946000Y-111196571D01*
X138898381Y-111339429D01*
X138898381Y-111434667D01*
X138946000Y-111577524D01*
X138993619Y-111625143D01*
X138993619Y-112006095D02*
X138946000Y-112053714D01*
X138898381Y-112148952D01*
X138898381Y-112387048D01*
X138946000Y-112482286D01*
X138993619Y-112529905D01*
X139088857Y-112577524D01*
X139184095Y-112577524D01*
X139326952Y-112529905D01*
X139898381Y-111958476D01*
X139898381Y-112577524D01*
X138898381Y-113482286D02*
X138898381Y-113006095D01*
X139374571Y-112958476D01*
X139326952Y-113006095D01*
X139279333Y-113101333D01*
X139279333Y-113339429D01*
X139326952Y-113434667D01*
X139374571Y-113482286D01*
X139469810Y-113529905D01*
X139707905Y-113529905D01*
X139803143Y-113482286D01*
X139850762Y-113434667D01*
X139898381Y-113339429D01*
X139898381Y-113101333D01*
X139850762Y-113006095D01*
X139803143Y-112958476D01*
X136913857Y-105767143D02*
X136961476Y-105814762D01*
X137104333Y-105862381D01*
X137199571Y-105862381D01*
X137342429Y-105814762D01*
X137437667Y-105719524D01*
X137485286Y-105624286D01*
X137532905Y-105433810D01*
X137532905Y-105290952D01*
X137485286Y-105100476D01*
X137437667Y-105005238D01*
X137342429Y-104910000D01*
X137199571Y-104862381D01*
X137104333Y-104862381D01*
X136961476Y-104910000D01*
X136913857Y-104957619D01*
X136532905Y-104957619D02*
X136485286Y-104910000D01*
X136390048Y-104862381D01*
X136151952Y-104862381D01*
X136056714Y-104910000D01*
X136009095Y-104957619D01*
X135961476Y-105052857D01*
X135961476Y-105148095D01*
X136009095Y-105290952D01*
X136580524Y-105862381D01*
X135961476Y-105862381D01*
X135104333Y-105195714D02*
X135104333Y-105862381D01*
X135342429Y-104814762D02*
X135580524Y-105529048D01*
X134961476Y-105529048D01*
X136913857Y-107164143D02*
X136961476Y-107211762D01*
X137104333Y-107259381D01*
X137199571Y-107259381D01*
X137342429Y-107211762D01*
X137437667Y-107116524D01*
X137485286Y-107021286D01*
X137532905Y-106830810D01*
X137532905Y-106687952D01*
X137485286Y-106497476D01*
X137437667Y-106402238D01*
X137342429Y-106307000D01*
X137199571Y-106259381D01*
X137104333Y-106259381D01*
X136961476Y-106307000D01*
X136913857Y-106354619D01*
X136532905Y-106354619D02*
X136485286Y-106307000D01*
X136390048Y-106259381D01*
X136151952Y-106259381D01*
X136056714Y-106307000D01*
X136009095Y-106354619D01*
X135961476Y-106449857D01*
X135961476Y-106545095D01*
X136009095Y-106687952D01*
X136580524Y-107259381D01*
X135961476Y-107259381D01*
X135628143Y-106259381D02*
X135009095Y-106259381D01*
X135342429Y-106640333D01*
X135199571Y-106640333D01*
X135104333Y-106687952D01*
X135056714Y-106735571D01*
X135009095Y-106830810D01*
X135009095Y-107068905D01*
X135056714Y-107164143D01*
X135104333Y-107211762D01*
X135199571Y-107259381D01*
X135485286Y-107259381D01*
X135580524Y-107211762D01*
X135628143Y-107164143D01*
X144406857Y-105718143D02*
X144454476Y-105765762D01*
X144597333Y-105813381D01*
X144692571Y-105813381D01*
X144835429Y-105765762D01*
X144930667Y-105670524D01*
X144978286Y-105575286D01*
X145025905Y-105384810D01*
X145025905Y-105241952D01*
X144978286Y-105051476D01*
X144930667Y-104956238D01*
X144835429Y-104861000D01*
X144692571Y-104813381D01*
X144597333Y-104813381D01*
X144454476Y-104861000D01*
X144406857Y-104908619D01*
X144025905Y-104908619D02*
X143978286Y-104861000D01*
X143883048Y-104813381D01*
X143644952Y-104813381D01*
X143549714Y-104861000D01*
X143502095Y-104908619D01*
X143454476Y-105003857D01*
X143454476Y-105099095D01*
X143502095Y-105241952D01*
X144073524Y-105813381D01*
X143454476Y-105813381D01*
X143073524Y-104908619D02*
X143025905Y-104861000D01*
X142930667Y-104813381D01*
X142692571Y-104813381D01*
X142597333Y-104861000D01*
X142549714Y-104908619D01*
X142502095Y-105003857D01*
X142502095Y-105099095D01*
X142549714Y-105241952D01*
X143121143Y-105813381D01*
X142502095Y-105813381D01*
X124594857Y-107291143D02*
X124642476Y-107338762D01*
X124785333Y-107386381D01*
X124880571Y-107386381D01*
X125023429Y-107338762D01*
X125118667Y-107243524D01*
X125166286Y-107148286D01*
X125213905Y-106957810D01*
X125213905Y-106814952D01*
X125166286Y-106624476D01*
X125118667Y-106529238D01*
X125023429Y-106434000D01*
X124880571Y-106386381D01*
X124785333Y-106386381D01*
X124642476Y-106434000D01*
X124594857Y-106481619D01*
X123642476Y-107386381D02*
X124213905Y-107386381D01*
X123928191Y-107386381D02*
X123928191Y-106386381D01*
X124023429Y-106529238D01*
X124118667Y-106624476D01*
X124213905Y-106672095D01*
X122785333Y-106386381D02*
X122975810Y-106386381D01*
X123071048Y-106434000D01*
X123118667Y-106481619D01*
X123213905Y-106624476D01*
X123261524Y-106814952D01*
X123261524Y-107195905D01*
X123213905Y-107291143D01*
X123166286Y-107338762D01*
X123071048Y-107386381D01*
X122880571Y-107386381D01*
X122785333Y-107338762D01*
X122737714Y-107291143D01*
X122690095Y-107195905D01*
X122690095Y-106957810D01*
X122737714Y-106862571D01*
X122785333Y-106814952D01*
X122880571Y-106767333D01*
X123071048Y-106767333D01*
X123166286Y-106814952D01*
X123213905Y-106862571D01*
X123261524Y-106957810D01*
X139231666Y-102919381D02*
X139565000Y-102443190D01*
X139803095Y-102919381D02*
X139803095Y-101919381D01*
X139422142Y-101919381D01*
X139326904Y-101967000D01*
X139279285Y-102014619D01*
X139231666Y-102109857D01*
X139231666Y-102252714D01*
X139279285Y-102347952D01*
X139326904Y-102395571D01*
X139422142Y-102443190D01*
X139803095Y-102443190D01*
X138755476Y-102919381D02*
X138565000Y-102919381D01*
X138469761Y-102871762D01*
X138422142Y-102824143D01*
X138326904Y-102681286D01*
X138279285Y-102490810D01*
X138279285Y-102109857D01*
X138326904Y-102014619D01*
X138374523Y-101967000D01*
X138469761Y-101919381D01*
X138660238Y-101919381D01*
X138755476Y-101967000D01*
X138803095Y-102014619D01*
X138850714Y-102109857D01*
X138850714Y-102347952D01*
X138803095Y-102443190D01*
X138755476Y-102490810D01*
X138660238Y-102538429D01*
X138469761Y-102538429D01*
X138374523Y-102490810D01*
X138326904Y-102443190D01*
X138279285Y-102347952D01*
M02*
