G04 #@! TF.FileFunction,Soldermask,Bot*
%FSLAX46Y46*%
G04 Gerber Fmt 4.6, Leading zero omitted, Abs format (unit mm)*
G04 Created by KiCad (PCBNEW 4.0.1-stable) date 2/4/2017 12:52:28 PM*
%MOMM*%
G01*
G04 APERTURE LIST*
%ADD10C,0.100000*%
G04 APERTURE END LIST*
D10*
G36*
X108900926Y-110961842D02*
X108900931Y-110961844D01*
X108900973Y-110961848D01*
X109076187Y-111016086D01*
X109237529Y-111103323D01*
X109378855Y-111220238D01*
X109494779Y-111362376D01*
X109580888Y-111524323D01*
X109633902Y-111699912D01*
X109651800Y-111882453D01*
X109651800Y-111891580D01*
X109651723Y-111902612D01*
X109651722Y-111902617D01*
X109651708Y-111904669D01*
X109631263Y-112086942D01*
X109575803Y-112261774D01*
X109487442Y-112422503D01*
X109369544Y-112563008D01*
X109226600Y-112677938D01*
X109064055Y-112762914D01*
X108888101Y-112814701D01*
X108888065Y-112814704D01*
X108888056Y-112814707D01*
X108705442Y-112831326D01*
X108523074Y-112812158D01*
X108523069Y-112812156D01*
X108523027Y-112812152D01*
X108347813Y-112757914D01*
X108186471Y-112670677D01*
X108045145Y-112553762D01*
X107929221Y-112411624D01*
X107843112Y-112249677D01*
X107790098Y-112074088D01*
X107772200Y-111891547D01*
X107772200Y-111882420D01*
X107772277Y-111871388D01*
X107772278Y-111871383D01*
X107772292Y-111869331D01*
X107792737Y-111687058D01*
X107848197Y-111512226D01*
X107936558Y-111351497D01*
X108054456Y-111210992D01*
X108197400Y-111096062D01*
X108359945Y-111011086D01*
X108535899Y-110959299D01*
X108535935Y-110959296D01*
X108535944Y-110959293D01*
X108718558Y-110942674D01*
X108900926Y-110961842D01*
X108900926Y-110961842D01*
G37*
G36*
X111440926Y-110961842D02*
X111440931Y-110961844D01*
X111440973Y-110961848D01*
X111616187Y-111016086D01*
X111777529Y-111103323D01*
X111918855Y-111220238D01*
X112034779Y-111362376D01*
X112120888Y-111524323D01*
X112173902Y-111699912D01*
X112191800Y-111882453D01*
X112191800Y-111891580D01*
X112191723Y-111902612D01*
X112191722Y-111902617D01*
X112191708Y-111904669D01*
X112171263Y-112086942D01*
X112115803Y-112261774D01*
X112027442Y-112422503D01*
X111909544Y-112563008D01*
X111766600Y-112677938D01*
X111604055Y-112762914D01*
X111428101Y-112814701D01*
X111428065Y-112814704D01*
X111428056Y-112814707D01*
X111245442Y-112831326D01*
X111063074Y-112812158D01*
X111063069Y-112812156D01*
X111063027Y-112812152D01*
X110887813Y-112757914D01*
X110726471Y-112670677D01*
X110585145Y-112553762D01*
X110469221Y-112411624D01*
X110383112Y-112249677D01*
X110330098Y-112074088D01*
X110312200Y-111891547D01*
X110312200Y-111882420D01*
X110312277Y-111871388D01*
X110312278Y-111871383D01*
X110312292Y-111869331D01*
X110332737Y-111687058D01*
X110388197Y-111512226D01*
X110476558Y-111351497D01*
X110594456Y-111210992D01*
X110737400Y-111096062D01*
X110899945Y-111011086D01*
X111075899Y-110959299D01*
X111075935Y-110959296D01*
X111075944Y-110959293D01*
X111258558Y-110942674D01*
X111440926Y-110961842D01*
X111440926Y-110961842D01*
G37*
G36*
X142058200Y-110654200D02*
X141405800Y-110654200D01*
X141405800Y-109901800D01*
X142058200Y-109901800D01*
X142058200Y-110654200D01*
X142058200Y-110654200D01*
G37*
G36*
X139772200Y-110654200D02*
X139119800Y-110654200D01*
X139119800Y-109901800D01*
X139772200Y-109901800D01*
X139772200Y-110654200D01*
X139772200Y-110654200D01*
G37*
G36*
X108900926Y-108421842D02*
X108900931Y-108421844D01*
X108900973Y-108421848D01*
X109076187Y-108476086D01*
X109237529Y-108563323D01*
X109378855Y-108680238D01*
X109494779Y-108822376D01*
X109580888Y-108984323D01*
X109633902Y-109159912D01*
X109651800Y-109342453D01*
X109651800Y-109351580D01*
X109651723Y-109362612D01*
X109651722Y-109362617D01*
X109651708Y-109364669D01*
X109631263Y-109546942D01*
X109575803Y-109721774D01*
X109487442Y-109882503D01*
X109369544Y-110023008D01*
X109226600Y-110137938D01*
X109064055Y-110222914D01*
X108888101Y-110274701D01*
X108888065Y-110274704D01*
X108888056Y-110274707D01*
X108705442Y-110291326D01*
X108523074Y-110272158D01*
X108523069Y-110272156D01*
X108523027Y-110272152D01*
X108347813Y-110217914D01*
X108186471Y-110130677D01*
X108045145Y-110013762D01*
X107929221Y-109871624D01*
X107843112Y-109709677D01*
X107790098Y-109534088D01*
X107772200Y-109351547D01*
X107772200Y-109342420D01*
X107772277Y-109331388D01*
X107772278Y-109331383D01*
X107772292Y-109329331D01*
X107792737Y-109147058D01*
X107848197Y-108972226D01*
X107936558Y-108811497D01*
X108054456Y-108670992D01*
X108197400Y-108556062D01*
X108359945Y-108471086D01*
X108535899Y-108419299D01*
X108535935Y-108419296D01*
X108535944Y-108419293D01*
X108718558Y-108402674D01*
X108900926Y-108421842D01*
X108900926Y-108421842D01*
G37*
G36*
X111440926Y-108421842D02*
X111440931Y-108421844D01*
X111440973Y-108421848D01*
X111616187Y-108476086D01*
X111777529Y-108563323D01*
X111918855Y-108680238D01*
X112034779Y-108822376D01*
X112120888Y-108984323D01*
X112173902Y-109159912D01*
X112191800Y-109342453D01*
X112191800Y-109351580D01*
X112191723Y-109362612D01*
X112191722Y-109362617D01*
X112191708Y-109364669D01*
X112171263Y-109546942D01*
X112115803Y-109721774D01*
X112027442Y-109882503D01*
X111909544Y-110023008D01*
X111766600Y-110137938D01*
X111604055Y-110222914D01*
X111428101Y-110274701D01*
X111428065Y-110274704D01*
X111428056Y-110274707D01*
X111245442Y-110291326D01*
X111063074Y-110272158D01*
X111063069Y-110272156D01*
X111063027Y-110272152D01*
X110887813Y-110217914D01*
X110726471Y-110130677D01*
X110585145Y-110013762D01*
X110469221Y-109871624D01*
X110383112Y-109709677D01*
X110330098Y-109534088D01*
X110312200Y-109351547D01*
X110312200Y-109342420D01*
X110312277Y-109331388D01*
X110312278Y-109331383D01*
X110312292Y-109329331D01*
X110332737Y-109147058D01*
X110388197Y-108972226D01*
X110476558Y-108811497D01*
X110594456Y-108670992D01*
X110737400Y-108556062D01*
X110899945Y-108471086D01*
X111075899Y-108419299D01*
X111075935Y-108419296D01*
X111075944Y-108419293D01*
X111258558Y-108402674D01*
X111440926Y-108421842D01*
X111440926Y-108421842D01*
G37*
G36*
X120264200Y-110200200D02*
X119511800Y-110200200D01*
X119511800Y-109647800D01*
X120264200Y-109647800D01*
X120264200Y-110200200D01*
X120264200Y-110200200D01*
G37*
G36*
X155981400Y-110088300D02*
X150749000Y-110088300D01*
X150749000Y-107520900D01*
X155981400Y-107520900D01*
X155981400Y-110088300D01*
X155981400Y-110088300D01*
G37*
G36*
X142058200Y-109554200D02*
X141405800Y-109554200D01*
X141405800Y-108801800D01*
X142058200Y-108801800D01*
X142058200Y-109554200D01*
X142058200Y-109554200D01*
G37*
G36*
X139772200Y-109554200D02*
X139119800Y-109554200D01*
X139119800Y-108801800D01*
X139772200Y-108801800D01*
X139772200Y-109554200D01*
X139772200Y-109554200D01*
G37*
G36*
X120264200Y-109300200D02*
X119511800Y-109300200D01*
X119511800Y-108747800D01*
X120264200Y-108747800D01*
X120264200Y-109300200D01*
X120264200Y-109300200D01*
G37*
G36*
X117893200Y-108276200D02*
X117140800Y-108276200D01*
X117140800Y-107623800D01*
X117893200Y-107623800D01*
X117893200Y-108276200D01*
X117893200Y-108276200D01*
G37*
G36*
X116793200Y-108276200D02*
X116040800Y-108276200D01*
X116040800Y-107623800D01*
X116793200Y-107623800D01*
X116793200Y-108276200D01*
X116793200Y-108276200D01*
G37*
G36*
X111440926Y-105881842D02*
X111440931Y-105881844D01*
X111440973Y-105881848D01*
X111616187Y-105936086D01*
X111777529Y-106023323D01*
X111918855Y-106140238D01*
X112034779Y-106282376D01*
X112120888Y-106444323D01*
X112173902Y-106619912D01*
X112191800Y-106802453D01*
X112191800Y-106811580D01*
X112191723Y-106822612D01*
X112191722Y-106822617D01*
X112191708Y-106824669D01*
X112171263Y-107006942D01*
X112115803Y-107181774D01*
X112027442Y-107342503D01*
X111909544Y-107483008D01*
X111766600Y-107597938D01*
X111604055Y-107682914D01*
X111428101Y-107734701D01*
X111428065Y-107734704D01*
X111428056Y-107734707D01*
X111245442Y-107751326D01*
X111063074Y-107732158D01*
X111063069Y-107732156D01*
X111063027Y-107732152D01*
X110887813Y-107677914D01*
X110726471Y-107590677D01*
X110585145Y-107473762D01*
X110469221Y-107331624D01*
X110383112Y-107169677D01*
X110330098Y-106994088D01*
X110312200Y-106811547D01*
X110312200Y-106802420D01*
X110312277Y-106791388D01*
X110312278Y-106791383D01*
X110312292Y-106789331D01*
X110332737Y-106607058D01*
X110388197Y-106432226D01*
X110476558Y-106271497D01*
X110594456Y-106130992D01*
X110737400Y-106016062D01*
X110899945Y-105931086D01*
X111075899Y-105879299D01*
X111075935Y-105879296D01*
X111075944Y-105879293D01*
X111258558Y-105862674D01*
X111440926Y-105881842D01*
X111440926Y-105881842D01*
G37*
G36*
X108900926Y-105881842D02*
X108900931Y-105881844D01*
X108900973Y-105881848D01*
X109076187Y-105936086D01*
X109237529Y-106023323D01*
X109378855Y-106140238D01*
X109494779Y-106282376D01*
X109580888Y-106444323D01*
X109633902Y-106619912D01*
X109651800Y-106802453D01*
X109651800Y-106811580D01*
X109651723Y-106822612D01*
X109651722Y-106822617D01*
X109651708Y-106824669D01*
X109631263Y-107006942D01*
X109575803Y-107181774D01*
X109487442Y-107342503D01*
X109369544Y-107483008D01*
X109226600Y-107597938D01*
X109064055Y-107682914D01*
X108888101Y-107734701D01*
X108888065Y-107734704D01*
X108888056Y-107734707D01*
X108705442Y-107751326D01*
X108523074Y-107732158D01*
X108523069Y-107732156D01*
X108523027Y-107732152D01*
X108347813Y-107677914D01*
X108186471Y-107590677D01*
X108045145Y-107473762D01*
X107929221Y-107331624D01*
X107843112Y-107169677D01*
X107790098Y-106994088D01*
X107772200Y-106811547D01*
X107772200Y-106802420D01*
X107772277Y-106791388D01*
X107772278Y-106791383D01*
X107772292Y-106789331D01*
X107792737Y-106607058D01*
X107848197Y-106432226D01*
X107936558Y-106271497D01*
X108054456Y-106130992D01*
X108197400Y-106016062D01*
X108359945Y-105931086D01*
X108535899Y-105879299D01*
X108535935Y-105879296D01*
X108535944Y-105879293D01*
X108718558Y-105862674D01*
X108900926Y-105881842D01*
X108900926Y-105881842D01*
G37*
G36*
X144690200Y-107387200D02*
X143937800Y-107387200D01*
X143937800Y-106734800D01*
X144690200Y-106734800D01*
X144690200Y-107387200D01*
X144690200Y-107387200D01*
G37*
G36*
X143590200Y-107387200D02*
X142837800Y-107387200D01*
X142837800Y-106734800D01*
X143590200Y-106734800D01*
X143590200Y-107387200D01*
X143590200Y-107387200D01*
G37*
G36*
X121111200Y-107260200D02*
X120358800Y-107260200D01*
X120358800Y-106607800D01*
X121111200Y-106607800D01*
X121111200Y-107260200D01*
X121111200Y-107260200D01*
G37*
G36*
X122211200Y-107260200D02*
X121458800Y-107260200D01*
X121458800Y-106607800D01*
X122211200Y-106607800D01*
X122211200Y-107260200D01*
X122211200Y-107260200D01*
G37*
G36*
X139991200Y-106879200D02*
X139238800Y-106879200D01*
X139238800Y-106226800D01*
X139991200Y-106226800D01*
X139991200Y-106879200D01*
X139991200Y-106879200D01*
G37*
G36*
X138891200Y-106879200D02*
X138138800Y-106879200D01*
X138138800Y-106226800D01*
X138891200Y-106226800D01*
X138891200Y-106879200D01*
X138891200Y-106879200D01*
G37*
G36*
X119198200Y-105955200D02*
X118545800Y-105955200D01*
X118545800Y-105202800D01*
X119198200Y-105202800D01*
X119198200Y-105955200D01*
X119198200Y-105955200D01*
G37*
G36*
X120722200Y-105955200D02*
X120069800Y-105955200D01*
X120069800Y-105202800D01*
X120722200Y-105202800D01*
X120722200Y-105955200D01*
X120722200Y-105955200D01*
G37*
G36*
X139991200Y-105736200D02*
X139238800Y-105736200D01*
X139238800Y-105083800D01*
X139991200Y-105083800D01*
X139991200Y-105736200D01*
X139991200Y-105736200D01*
G37*
G36*
X138891200Y-105736200D02*
X138138800Y-105736200D01*
X138138800Y-105083800D01*
X138891200Y-105083800D01*
X138891200Y-105736200D01*
X138891200Y-105736200D01*
G37*
G36*
X111440926Y-103341842D02*
X111440931Y-103341844D01*
X111440973Y-103341848D01*
X111616187Y-103396086D01*
X111777529Y-103483323D01*
X111918855Y-103600238D01*
X112034779Y-103742376D01*
X112120888Y-103904323D01*
X112173902Y-104079912D01*
X112191800Y-104262453D01*
X112191800Y-104271580D01*
X112191723Y-104282612D01*
X112191722Y-104282617D01*
X112191708Y-104284669D01*
X112171263Y-104466942D01*
X112115803Y-104641774D01*
X112027442Y-104802503D01*
X111909544Y-104943008D01*
X111766600Y-105057938D01*
X111604055Y-105142914D01*
X111428101Y-105194701D01*
X111428065Y-105194704D01*
X111428056Y-105194707D01*
X111245442Y-105211326D01*
X111063074Y-105192158D01*
X111063069Y-105192156D01*
X111063027Y-105192152D01*
X110887813Y-105137914D01*
X110726471Y-105050677D01*
X110585145Y-104933762D01*
X110469221Y-104791624D01*
X110383112Y-104629677D01*
X110330098Y-104454088D01*
X110312200Y-104271547D01*
X110312200Y-104262420D01*
X110312277Y-104251388D01*
X110312278Y-104251383D01*
X110312292Y-104249331D01*
X110332737Y-104067058D01*
X110388197Y-103892226D01*
X110476558Y-103731497D01*
X110594456Y-103590992D01*
X110737400Y-103476062D01*
X110899945Y-103391086D01*
X111075899Y-103339299D01*
X111075935Y-103339296D01*
X111075944Y-103339293D01*
X111258558Y-103322674D01*
X111440926Y-103341842D01*
X111440926Y-103341842D01*
G37*
G36*
X108900926Y-103341842D02*
X108900931Y-103341844D01*
X108900973Y-103341848D01*
X109076187Y-103396086D01*
X109237529Y-103483323D01*
X109378855Y-103600238D01*
X109494779Y-103742376D01*
X109580888Y-103904323D01*
X109633902Y-104079912D01*
X109651800Y-104262453D01*
X109651800Y-104271580D01*
X109651723Y-104282612D01*
X109651722Y-104282617D01*
X109651708Y-104284669D01*
X109631263Y-104466942D01*
X109575803Y-104641774D01*
X109487442Y-104802503D01*
X109369544Y-104943008D01*
X109226600Y-105057938D01*
X109064055Y-105142914D01*
X108888101Y-105194701D01*
X108888065Y-105194704D01*
X108888056Y-105194707D01*
X108705442Y-105211326D01*
X108523074Y-105192158D01*
X108523069Y-105192156D01*
X108523027Y-105192152D01*
X108347813Y-105137914D01*
X108186471Y-105050677D01*
X108045145Y-104933762D01*
X107929221Y-104791624D01*
X107843112Y-104629677D01*
X107790098Y-104454088D01*
X107772200Y-104271547D01*
X107772200Y-104262420D01*
X107772277Y-104251388D01*
X107772278Y-104251383D01*
X107772292Y-104249331D01*
X107792737Y-104067058D01*
X107848197Y-103892226D01*
X107936558Y-103731497D01*
X108054456Y-103590992D01*
X108197400Y-103476062D01*
X108359945Y-103391086D01*
X108535899Y-103339299D01*
X108535935Y-103339296D01*
X108535944Y-103339293D01*
X108718558Y-103322674D01*
X108900926Y-103341842D01*
X108900926Y-103341842D01*
G37*
G36*
X120722200Y-104855200D02*
X120069800Y-104855200D01*
X120069800Y-104102800D01*
X120722200Y-104102800D01*
X120722200Y-104855200D01*
X120722200Y-104855200D01*
G37*
G36*
X119198200Y-104855200D02*
X118545800Y-104855200D01*
X118545800Y-104102800D01*
X119198200Y-104102800D01*
X119198200Y-104855200D01*
X119198200Y-104855200D01*
G37*
G36*
X139791200Y-104643200D02*
X139238800Y-104643200D01*
X139238800Y-103890800D01*
X139791200Y-103890800D01*
X139791200Y-104643200D01*
X139791200Y-104643200D01*
G37*
G36*
X138891200Y-104643200D02*
X138338800Y-104643200D01*
X138338800Y-103890800D01*
X138891200Y-103890800D01*
X138891200Y-104643200D01*
X138891200Y-104643200D01*
G37*
G36*
X132395926Y-101410705D02*
X132395973Y-101410710D01*
X132571187Y-101464948D01*
X132732529Y-101552185D01*
X132873855Y-101669100D01*
X132989779Y-101811238D01*
X133075888Y-101973185D01*
X133128902Y-102148774D01*
X133146800Y-102331315D01*
X133146800Y-102646717D01*
X133146723Y-102657749D01*
X133146722Y-102657754D01*
X133146708Y-102659807D01*
X133126263Y-102842080D01*
X133070803Y-103016912D01*
X132982442Y-103177641D01*
X132864544Y-103318146D01*
X132721600Y-103433076D01*
X132559055Y-103518052D01*
X132383101Y-103569839D01*
X132383060Y-103569843D01*
X132383056Y-103569844D01*
X132200442Y-103586463D01*
X132018074Y-103567295D01*
X132018027Y-103567290D01*
X131842813Y-103513052D01*
X131681471Y-103425815D01*
X131540145Y-103308900D01*
X131424221Y-103166762D01*
X131338112Y-103004815D01*
X131285098Y-102829226D01*
X131267200Y-102646685D01*
X131267200Y-102331283D01*
X131267277Y-102320251D01*
X131267278Y-102320246D01*
X131267292Y-102318193D01*
X131287737Y-102135920D01*
X131343197Y-101961088D01*
X131431558Y-101800359D01*
X131549456Y-101659854D01*
X131692400Y-101544924D01*
X131854945Y-101459948D01*
X132030899Y-101408161D01*
X132030940Y-101408157D01*
X132030944Y-101408156D01*
X132213558Y-101391537D01*
X132395926Y-101410705D01*
X132395926Y-101410705D01*
G37*
G36*
X129855926Y-101410705D02*
X129855973Y-101410710D01*
X130031187Y-101464948D01*
X130192529Y-101552185D01*
X130333855Y-101669100D01*
X130449779Y-101811238D01*
X130535888Y-101973185D01*
X130588902Y-102148774D01*
X130606800Y-102331315D01*
X130606800Y-102646717D01*
X130606723Y-102657749D01*
X130606722Y-102657754D01*
X130606708Y-102659807D01*
X130586263Y-102842080D01*
X130530803Y-103016912D01*
X130442442Y-103177641D01*
X130324544Y-103318146D01*
X130181600Y-103433076D01*
X130019055Y-103518052D01*
X129843101Y-103569839D01*
X129843060Y-103569843D01*
X129843056Y-103569844D01*
X129660442Y-103586463D01*
X129478074Y-103567295D01*
X129478027Y-103567290D01*
X129302813Y-103513052D01*
X129141471Y-103425815D01*
X129000145Y-103308900D01*
X128884221Y-103166762D01*
X128798112Y-103004815D01*
X128745098Y-102829226D01*
X128727200Y-102646685D01*
X128727200Y-102331283D01*
X128727277Y-102320251D01*
X128727278Y-102320246D01*
X128727292Y-102318193D01*
X128747737Y-102135920D01*
X128803197Y-101961088D01*
X128891558Y-101800359D01*
X129009456Y-101659854D01*
X129152400Y-101544924D01*
X129314945Y-101459948D01*
X129490899Y-101408161D01*
X129490940Y-101408157D01*
X129490944Y-101408156D01*
X129673558Y-101391537D01*
X129855926Y-101410705D01*
X129855926Y-101410705D01*
G37*
G36*
X128066800Y-103581200D02*
X126187200Y-103581200D01*
X126187200Y-101396800D01*
X128066800Y-101396800D01*
X128066800Y-103581200D01*
X128066800Y-103581200D01*
G37*
G36*
X108900926Y-100801842D02*
X108900931Y-100801844D01*
X108900973Y-100801848D01*
X109076187Y-100856086D01*
X109237529Y-100943323D01*
X109378855Y-101060238D01*
X109494779Y-101202376D01*
X109580888Y-101364323D01*
X109633902Y-101539912D01*
X109651800Y-101722453D01*
X109651800Y-101731580D01*
X109651723Y-101742612D01*
X109651722Y-101742617D01*
X109651708Y-101744669D01*
X109631263Y-101926942D01*
X109575803Y-102101774D01*
X109487442Y-102262503D01*
X109369544Y-102403008D01*
X109226600Y-102517938D01*
X109064055Y-102602914D01*
X108888101Y-102654701D01*
X108888065Y-102654704D01*
X108888056Y-102654707D01*
X108705442Y-102671326D01*
X108523074Y-102652158D01*
X108523069Y-102652156D01*
X108523027Y-102652152D01*
X108347813Y-102597914D01*
X108186471Y-102510677D01*
X108045145Y-102393762D01*
X107929221Y-102251624D01*
X107843112Y-102089677D01*
X107790098Y-101914088D01*
X107772200Y-101731547D01*
X107772200Y-101722420D01*
X107772277Y-101711388D01*
X107772278Y-101711383D01*
X107772292Y-101709331D01*
X107792737Y-101527058D01*
X107848197Y-101352226D01*
X107936558Y-101191497D01*
X108054456Y-101050992D01*
X108197400Y-100936062D01*
X108359945Y-100851086D01*
X108535899Y-100799299D01*
X108535935Y-100799296D01*
X108535944Y-100799293D01*
X108718558Y-100782674D01*
X108900926Y-100801842D01*
X108900926Y-100801842D01*
G37*
G36*
X112191800Y-102666800D02*
X110312200Y-102666800D01*
X110312200Y-100787200D01*
X112191800Y-100787200D01*
X112191800Y-102666800D01*
X112191800Y-102666800D01*
G37*
G36*
X155981400Y-101317900D02*
X150749000Y-101317900D01*
X150749000Y-98750500D01*
X155981400Y-98750500D01*
X155981400Y-101317900D01*
X155981400Y-101317900D01*
G37*
G36*
X117872700Y-100833200D02*
X117320300Y-100833200D01*
X117320300Y-100080800D01*
X117872700Y-100080800D01*
X117872700Y-100833200D01*
X117872700Y-100833200D01*
G37*
G36*
X118772700Y-100833200D02*
X118220300Y-100833200D01*
X118220300Y-100080800D01*
X118772700Y-100080800D01*
X118772700Y-100833200D01*
X118772700Y-100833200D01*
G37*
G36*
X130729800Y-99516300D02*
X130077400Y-99516300D01*
X130077400Y-98763900D01*
X130729800Y-98763900D01*
X130729800Y-99516300D01*
X130729800Y-99516300D01*
G37*
G36*
X122108926Y-97092705D02*
X122108973Y-97092710D01*
X122284187Y-97146948D01*
X122445529Y-97234185D01*
X122586855Y-97351100D01*
X122702779Y-97493238D01*
X122788888Y-97655185D01*
X122841902Y-97830774D01*
X122859800Y-98013315D01*
X122859800Y-98328717D01*
X122859723Y-98339749D01*
X122859722Y-98339754D01*
X122859708Y-98341807D01*
X122839263Y-98524080D01*
X122783803Y-98698912D01*
X122695442Y-98859641D01*
X122577544Y-99000146D01*
X122434600Y-99115076D01*
X122272055Y-99200052D01*
X122096101Y-99251839D01*
X122096060Y-99251843D01*
X122096056Y-99251844D01*
X121913442Y-99268463D01*
X121731074Y-99249295D01*
X121731027Y-99249290D01*
X121555813Y-99195052D01*
X121394471Y-99107815D01*
X121253145Y-98990900D01*
X121137221Y-98848762D01*
X121051112Y-98686815D01*
X120998098Y-98511226D01*
X120980200Y-98328685D01*
X120980200Y-98013283D01*
X120980277Y-98002251D01*
X120980278Y-98002246D01*
X120980292Y-98000193D01*
X121000737Y-97817920D01*
X121056197Y-97643088D01*
X121144558Y-97482359D01*
X121262456Y-97341854D01*
X121405400Y-97226924D01*
X121567945Y-97141948D01*
X121743899Y-97090161D01*
X121743940Y-97090157D01*
X121743944Y-97090156D01*
X121926558Y-97073537D01*
X122108926Y-97092705D01*
X122108926Y-97092705D01*
G37*
G36*
X119568926Y-97092705D02*
X119568973Y-97092710D01*
X119744187Y-97146948D01*
X119905529Y-97234185D01*
X120046855Y-97351100D01*
X120162779Y-97493238D01*
X120248888Y-97655185D01*
X120301902Y-97830774D01*
X120319800Y-98013315D01*
X120319800Y-98328717D01*
X120319723Y-98339749D01*
X120319722Y-98339754D01*
X120319708Y-98341807D01*
X120299263Y-98524080D01*
X120243803Y-98698912D01*
X120155442Y-98859641D01*
X120037544Y-99000146D01*
X119894600Y-99115076D01*
X119732055Y-99200052D01*
X119556101Y-99251839D01*
X119556060Y-99251843D01*
X119556056Y-99251844D01*
X119373442Y-99268463D01*
X119191074Y-99249295D01*
X119191027Y-99249290D01*
X119015813Y-99195052D01*
X118854471Y-99107815D01*
X118713145Y-98990900D01*
X118597221Y-98848762D01*
X118511112Y-98686815D01*
X118458098Y-98511226D01*
X118440200Y-98328685D01*
X118440200Y-98013283D01*
X118440277Y-98002251D01*
X118440278Y-98002246D01*
X118440292Y-98000193D01*
X118460737Y-97817920D01*
X118516197Y-97643088D01*
X118604558Y-97482359D01*
X118722456Y-97341854D01*
X118865400Y-97226924D01*
X119027945Y-97141948D01*
X119203899Y-97090161D01*
X119203940Y-97090157D01*
X119203944Y-97090156D01*
X119386558Y-97073537D01*
X119568926Y-97092705D01*
X119568926Y-97092705D01*
G37*
G36*
X117779800Y-99263200D02*
X115900200Y-99263200D01*
X115900200Y-97078800D01*
X117779800Y-97078800D01*
X117779800Y-99263200D01*
X117779800Y-99263200D01*
G37*
G36*
X130729800Y-98416300D02*
X130077400Y-98416300D01*
X130077400Y-97663900D01*
X130729800Y-97663900D01*
X130729800Y-98416300D01*
X130729800Y-98416300D01*
G37*
G36*
X112740200Y-97277200D02*
X112187800Y-97277200D01*
X112187800Y-96524800D01*
X112740200Y-96524800D01*
X112740200Y-97277200D01*
X112740200Y-97277200D01*
G37*
G36*
X111840200Y-97277200D02*
X111287800Y-97277200D01*
X111287800Y-96524800D01*
X111840200Y-96524800D01*
X111840200Y-97277200D01*
X111840200Y-97277200D01*
G37*
G36*
X142207300Y-96281500D02*
X139554900Y-96281500D01*
X139554900Y-94129100D01*
X142207300Y-94129100D01*
X142207300Y-96281500D01*
X142207300Y-96281500D01*
G37*
G36*
X114488926Y-93917705D02*
X114488973Y-93917710D01*
X114664187Y-93971948D01*
X114825529Y-94059185D01*
X114966855Y-94176100D01*
X115082779Y-94318238D01*
X115168888Y-94480185D01*
X115221902Y-94655774D01*
X115239800Y-94838315D01*
X115239800Y-95153717D01*
X115239723Y-95164749D01*
X115239722Y-95164754D01*
X115239708Y-95166807D01*
X115219263Y-95349080D01*
X115163803Y-95523912D01*
X115075442Y-95684641D01*
X114957544Y-95825146D01*
X114814600Y-95940076D01*
X114652055Y-96025052D01*
X114476101Y-96076839D01*
X114476060Y-96076843D01*
X114476056Y-96076844D01*
X114293442Y-96093463D01*
X114111074Y-96074295D01*
X114111027Y-96074290D01*
X113935813Y-96020052D01*
X113774471Y-95932815D01*
X113633145Y-95815900D01*
X113517221Y-95673762D01*
X113431112Y-95511815D01*
X113378098Y-95336226D01*
X113360200Y-95153685D01*
X113360200Y-94838283D01*
X113360277Y-94827251D01*
X113360278Y-94827246D01*
X113360292Y-94825193D01*
X113380737Y-94642920D01*
X113436197Y-94468088D01*
X113524558Y-94307359D01*
X113642456Y-94166854D01*
X113785400Y-94051924D01*
X113947945Y-93966948D01*
X114123899Y-93915161D01*
X114123940Y-93915157D01*
X114123944Y-93915156D01*
X114306558Y-93898537D01*
X114488926Y-93917705D01*
X114488926Y-93917705D01*
G37*
G36*
X117028926Y-93917705D02*
X117028973Y-93917710D01*
X117204187Y-93971948D01*
X117365529Y-94059185D01*
X117506855Y-94176100D01*
X117622779Y-94318238D01*
X117708888Y-94480185D01*
X117761902Y-94655774D01*
X117779800Y-94838315D01*
X117779800Y-95153717D01*
X117779723Y-95164749D01*
X117779722Y-95164754D01*
X117779708Y-95166807D01*
X117759263Y-95349080D01*
X117703803Y-95523912D01*
X117615442Y-95684641D01*
X117497544Y-95825146D01*
X117354600Y-95940076D01*
X117192055Y-96025052D01*
X117016101Y-96076839D01*
X117016060Y-96076843D01*
X117016056Y-96076844D01*
X116833442Y-96093463D01*
X116651074Y-96074295D01*
X116651027Y-96074290D01*
X116475813Y-96020052D01*
X116314471Y-95932815D01*
X116173145Y-95815900D01*
X116057221Y-95673762D01*
X115971112Y-95511815D01*
X115918098Y-95336226D01*
X115900200Y-95153685D01*
X115900200Y-94838283D01*
X115900277Y-94827251D01*
X115900278Y-94827246D01*
X115900292Y-94825193D01*
X115920737Y-94642920D01*
X115976197Y-94468088D01*
X116064558Y-94307359D01*
X116182456Y-94166854D01*
X116325400Y-94051924D01*
X116487945Y-93966948D01*
X116663899Y-93915161D01*
X116663940Y-93915157D01*
X116663944Y-93915156D01*
X116846558Y-93898537D01*
X117028926Y-93917705D01*
X117028926Y-93917705D01*
G37*
G36*
X120319800Y-96088200D02*
X118440200Y-96088200D01*
X118440200Y-93903800D01*
X120319800Y-93903800D01*
X120319800Y-96088200D01*
X120319800Y-96088200D01*
G37*
G36*
X147919200Y-95651600D02*
X147366800Y-95651600D01*
X147366800Y-94899200D01*
X147919200Y-94899200D01*
X147919200Y-95651600D01*
X147919200Y-95651600D01*
G37*
G36*
X147019200Y-95651600D02*
X146466800Y-95651600D01*
X146466800Y-94899200D01*
X147019200Y-94899200D01*
X147019200Y-95651600D01*
X147019200Y-95651600D01*
G37*
G36*
X155000200Y-95564200D02*
X149037800Y-95564200D01*
X149037800Y-87696800D01*
X155000200Y-87696800D01*
X155000200Y-95564200D01*
X155000200Y-95564200D01*
G37*
G36*
X146197600Y-95544400D02*
X145445200Y-95544400D01*
X145445200Y-94992000D01*
X146197600Y-94992000D01*
X146197600Y-95544400D01*
X146197600Y-95544400D01*
G37*
G36*
X146197600Y-94644400D02*
X145445200Y-94644400D01*
X145445200Y-94092000D01*
X146197600Y-94092000D01*
X146197600Y-94644400D01*
X146197600Y-94644400D01*
G37*
G36*
X148666800Y-93808900D02*
X147314400Y-93808900D01*
X147314400Y-92906500D01*
X148666800Y-92906500D01*
X148666800Y-93808900D01*
X148666800Y-93808900D01*
G37*
G36*
X146766800Y-93808900D02*
X145414400Y-93808900D01*
X145414400Y-92906500D01*
X146766800Y-92906500D01*
X146766800Y-93808900D01*
X146766800Y-93808900D01*
G37*
G36*
X136955988Y-90889941D02*
X137141592Y-90928041D01*
X137316275Y-91001471D01*
X137473362Y-91107427D01*
X137606877Y-91241877D01*
X137711733Y-91399699D01*
X137783939Y-91574883D01*
X137820674Y-91760410D01*
X137820674Y-91760420D01*
X137820741Y-91760759D01*
X137817719Y-91977183D01*
X137817643Y-91977517D01*
X137817643Y-91977530D01*
X137775741Y-92161959D01*
X137698674Y-92335056D01*
X137589449Y-92489890D01*
X137452231Y-92620562D01*
X137292247Y-92722091D01*
X137115586Y-92790613D01*
X136928987Y-92823516D01*
X136739543Y-92819547D01*
X136554482Y-92778860D01*
X136380846Y-92702999D01*
X136225257Y-92594862D01*
X136093631Y-92458560D01*
X135990987Y-92299286D01*
X135921231Y-92123106D01*
X135887028Y-91936743D01*
X135889673Y-91747279D01*
X135929069Y-91561935D01*
X136003713Y-91387777D01*
X136110765Y-91231432D01*
X136246143Y-91098859D01*
X136404697Y-90995105D01*
X136580382Y-90924123D01*
X136766505Y-90888619D01*
X136955988Y-90889941D01*
X136955988Y-90889941D01*
G37*
G36*
X142207300Y-92281500D02*
X139554900Y-92281500D01*
X139554900Y-90129100D01*
X142207300Y-90129100D01*
X142207300Y-92281500D01*
X142207300Y-92281500D01*
G37*
G36*
X112166183Y-90348441D02*
X112351595Y-90386501D01*
X112526097Y-90459855D01*
X112683021Y-90565702D01*
X112816398Y-90700012D01*
X112921145Y-90857671D01*
X112993277Y-91032674D01*
X113029974Y-91218008D01*
X113029974Y-91218018D01*
X113030041Y-91218357D01*
X113027022Y-91434557D01*
X113026946Y-91434891D01*
X113026946Y-91434904D01*
X112985088Y-91619142D01*
X112908100Y-91792059D01*
X112798988Y-91946735D01*
X112661913Y-92077270D01*
X112502094Y-92178694D01*
X112325616Y-92247145D01*
X112139210Y-92280014D01*
X111949962Y-92276049D01*
X111765093Y-92235404D01*
X111591636Y-92159622D01*
X111436208Y-92051597D01*
X111304719Y-91915436D01*
X111202181Y-91756328D01*
X111132498Y-91580330D01*
X111098329Y-91394158D01*
X111100971Y-91204891D01*
X111140327Y-91019739D01*
X111214893Y-90845761D01*
X111321835Y-90689578D01*
X111457073Y-90557142D01*
X111615463Y-90453496D01*
X111790966Y-90382587D01*
X111976896Y-90347120D01*
X112166183Y-90348441D01*
X112166183Y-90348441D01*
G37*
G36*
X114655383Y-90348441D02*
X114840795Y-90386501D01*
X115015297Y-90459855D01*
X115172221Y-90565702D01*
X115305598Y-90700012D01*
X115410345Y-90857671D01*
X115482477Y-91032674D01*
X115519174Y-91218008D01*
X115519174Y-91218018D01*
X115519241Y-91218357D01*
X115516222Y-91434557D01*
X115516146Y-91434891D01*
X115516146Y-91434904D01*
X115474288Y-91619142D01*
X115397300Y-91792059D01*
X115288188Y-91946735D01*
X115151113Y-92077270D01*
X114991294Y-92178694D01*
X114814816Y-92247145D01*
X114628410Y-92280014D01*
X114439162Y-92276049D01*
X114254293Y-92235404D01*
X114080836Y-92159622D01*
X113925408Y-92051597D01*
X113793919Y-91915436D01*
X113691381Y-91756328D01*
X113621698Y-91580330D01*
X113587529Y-91394158D01*
X113590171Y-91204891D01*
X113629527Y-91019739D01*
X113704093Y-90845761D01*
X113811035Y-90689578D01*
X113946273Y-90557142D01*
X114104663Y-90453496D01*
X114280166Y-90382587D01*
X114466096Y-90347120D01*
X114655383Y-90348441D01*
X114655383Y-90348441D01*
G37*
G36*
X117144583Y-90348441D02*
X117329995Y-90386501D01*
X117504497Y-90459855D01*
X117661421Y-90565702D01*
X117794798Y-90700012D01*
X117899545Y-90857671D01*
X117971677Y-91032674D01*
X118008374Y-91218008D01*
X118008374Y-91218018D01*
X118008441Y-91218357D01*
X118005422Y-91434557D01*
X118005346Y-91434891D01*
X118005346Y-91434904D01*
X117963488Y-91619142D01*
X117886500Y-91792059D01*
X117777388Y-91946735D01*
X117640313Y-92077270D01*
X117480494Y-92178694D01*
X117304016Y-92247145D01*
X117117610Y-92280014D01*
X116928362Y-92276049D01*
X116743493Y-92235404D01*
X116570036Y-92159622D01*
X116414608Y-92051597D01*
X116283119Y-91915436D01*
X116180581Y-91756328D01*
X116110898Y-91580330D01*
X116076729Y-91394158D01*
X116079371Y-91204891D01*
X116118727Y-91019739D01*
X116193293Y-90845761D01*
X116300235Y-90689578D01*
X116435473Y-90557142D01*
X116593863Y-90453496D01*
X116769366Y-90382587D01*
X116955296Y-90347120D01*
X117144583Y-90348441D01*
X117144583Y-90348441D01*
G37*
G36*
X123484400Y-90901800D02*
X122932000Y-90901800D01*
X122932000Y-90149400D01*
X123484400Y-90149400D01*
X123484400Y-90901800D01*
X123484400Y-90901800D01*
G37*
G36*
X122584400Y-90901800D02*
X122032000Y-90901800D01*
X122032000Y-90149400D01*
X122584400Y-90149400D01*
X122584400Y-90901800D01*
X122584400Y-90901800D01*
G37*
G36*
X135940059Y-86880348D02*
X136242847Y-86942502D01*
X136527810Y-87062289D01*
X136784072Y-87235140D01*
X137001880Y-87454474D01*
X137172936Y-87711936D01*
X137290729Y-87997721D01*
X137350699Y-88300596D01*
X137350768Y-88300946D01*
X137345838Y-88654006D01*
X137345761Y-88654344D01*
X137345761Y-88654353D01*
X137277356Y-88955437D01*
X137151632Y-89237818D01*
X136973450Y-89490406D01*
X136749602Y-89703574D01*
X136488613Y-89869203D01*
X136200420Y-89980985D01*
X135896012Y-90034661D01*
X135586969Y-90028187D01*
X135285069Y-89961810D01*
X135001812Y-89838058D01*
X134747994Y-89661650D01*
X134533264Y-89439290D01*
X134365818Y-89179465D01*
X134252025Y-88892058D01*
X134196227Y-88588034D01*
X134200542Y-88278954D01*
X134264810Y-87976597D01*
X134386580Y-87692485D01*
X134561217Y-87437435D01*
X134782066Y-87221163D01*
X135040719Y-87051906D01*
X135327321Y-86936110D01*
X135630951Y-86878190D01*
X135940059Y-86880348D01*
X135940059Y-86880348D01*
G37*
G36*
X131980059Y-86880348D02*
X132282847Y-86942502D01*
X132567810Y-87062289D01*
X132824072Y-87235140D01*
X133041880Y-87454474D01*
X133212936Y-87711936D01*
X133330729Y-87997721D01*
X133390699Y-88300596D01*
X133390768Y-88300946D01*
X133385838Y-88654006D01*
X133385761Y-88654344D01*
X133385761Y-88654353D01*
X133317356Y-88955437D01*
X133191632Y-89237818D01*
X133013450Y-89490406D01*
X132789602Y-89703574D01*
X132528613Y-89869203D01*
X132240420Y-89980985D01*
X131936012Y-90034661D01*
X131626969Y-90028187D01*
X131325069Y-89961810D01*
X131041812Y-89838058D01*
X130787994Y-89661650D01*
X130573264Y-89439290D01*
X130405818Y-89179465D01*
X130292025Y-88892058D01*
X130236227Y-88588034D01*
X130240542Y-88278954D01*
X130304810Y-87976597D01*
X130426580Y-87692485D01*
X130601217Y-87437435D01*
X130822066Y-87221163D01*
X131080719Y-87051906D01*
X131367321Y-86936110D01*
X131670951Y-86878190D01*
X131980059Y-86880348D01*
X131980059Y-86880348D01*
G37*
G36*
X122584400Y-89377800D02*
X122032000Y-89377800D01*
X122032000Y-88625400D01*
X122584400Y-88625400D01*
X122584400Y-89377800D01*
X122584400Y-89377800D01*
G37*
G36*
X123484400Y-89377800D02*
X122932000Y-89377800D01*
X122932000Y-88625400D01*
X123484400Y-88625400D01*
X123484400Y-89377800D01*
X123484400Y-89377800D01*
G37*
G36*
X147992200Y-89099200D02*
X147239800Y-89099200D01*
X147239800Y-88446800D01*
X147992200Y-88446800D01*
X147992200Y-89099200D01*
X147992200Y-89099200D01*
G37*
G36*
X146892200Y-89099200D02*
X146139800Y-89099200D01*
X146139800Y-88446800D01*
X146892200Y-88446800D01*
X146892200Y-89099200D01*
X146892200Y-89099200D01*
G37*
G36*
X112166183Y-87046441D02*
X112351595Y-87084501D01*
X112526097Y-87157855D01*
X112683021Y-87263702D01*
X112816398Y-87398012D01*
X112921145Y-87555671D01*
X112993277Y-87730674D01*
X113029974Y-87916008D01*
X113029974Y-87916018D01*
X113030041Y-87916357D01*
X113027022Y-88132557D01*
X113026946Y-88132891D01*
X113026946Y-88132904D01*
X112985088Y-88317142D01*
X112908100Y-88490059D01*
X112798988Y-88644735D01*
X112661913Y-88775270D01*
X112502094Y-88876694D01*
X112325616Y-88945145D01*
X112139210Y-88978014D01*
X111949962Y-88974049D01*
X111765093Y-88933404D01*
X111591636Y-88857622D01*
X111436208Y-88749597D01*
X111304719Y-88613436D01*
X111202181Y-88454328D01*
X111132498Y-88278330D01*
X111098329Y-88092158D01*
X111100971Y-87902891D01*
X111140327Y-87717739D01*
X111214893Y-87543761D01*
X111321835Y-87387578D01*
X111457073Y-87255142D01*
X111615463Y-87151496D01*
X111790966Y-87080587D01*
X111976896Y-87045120D01*
X112166183Y-87046441D01*
X112166183Y-87046441D01*
G37*
G36*
X114655383Y-87046441D02*
X114840795Y-87084501D01*
X115015297Y-87157855D01*
X115172221Y-87263702D01*
X115305598Y-87398012D01*
X115410345Y-87555671D01*
X115482477Y-87730674D01*
X115519174Y-87916008D01*
X115519174Y-87916018D01*
X115519241Y-87916357D01*
X115516222Y-88132557D01*
X115516146Y-88132891D01*
X115516146Y-88132904D01*
X115474288Y-88317142D01*
X115397300Y-88490059D01*
X115288188Y-88644735D01*
X115151113Y-88775270D01*
X114991294Y-88876694D01*
X114814816Y-88945145D01*
X114628410Y-88978014D01*
X114439162Y-88974049D01*
X114254293Y-88933404D01*
X114080836Y-88857622D01*
X113925408Y-88749597D01*
X113793919Y-88613436D01*
X113691381Y-88454328D01*
X113621698Y-88278330D01*
X113587529Y-88092158D01*
X113590171Y-87902891D01*
X113629527Y-87717739D01*
X113704093Y-87543761D01*
X113811035Y-87387578D01*
X113946273Y-87255142D01*
X114104663Y-87151496D01*
X114280166Y-87080587D01*
X114466096Y-87045120D01*
X114655383Y-87046441D01*
X114655383Y-87046441D01*
G37*
G36*
X117144583Y-87046441D02*
X117329995Y-87084501D01*
X117504497Y-87157855D01*
X117661421Y-87263702D01*
X117794798Y-87398012D01*
X117899545Y-87555671D01*
X117971677Y-87730674D01*
X118008374Y-87916008D01*
X118008374Y-87916018D01*
X118008441Y-87916357D01*
X118005422Y-88132557D01*
X118005346Y-88132891D01*
X118005346Y-88132904D01*
X117963488Y-88317142D01*
X117886500Y-88490059D01*
X117777388Y-88644735D01*
X117640313Y-88775270D01*
X117480494Y-88876694D01*
X117304016Y-88945145D01*
X117117610Y-88978014D01*
X116928362Y-88974049D01*
X116743493Y-88933404D01*
X116570036Y-88857622D01*
X116414608Y-88749597D01*
X116283119Y-88613436D01*
X116180581Y-88454328D01*
X116110898Y-88278330D01*
X116076729Y-88092158D01*
X116079371Y-87902891D01*
X116118727Y-87717739D01*
X116193293Y-87543761D01*
X116300235Y-87387578D01*
X116435473Y-87255142D01*
X116593863Y-87151496D01*
X116769366Y-87080587D01*
X116955296Y-87045120D01*
X117144583Y-87046441D01*
X117144583Y-87046441D01*
G37*
G36*
X122584400Y-87853800D02*
X122032000Y-87853800D01*
X122032000Y-87101400D01*
X122584400Y-87101400D01*
X122584400Y-87853800D01*
X122584400Y-87853800D01*
G37*
G36*
X123484400Y-87853800D02*
X122932000Y-87853800D01*
X122932000Y-87101400D01*
X123484400Y-87101400D01*
X123484400Y-87853800D01*
X123484400Y-87853800D01*
G37*
M02*
