G04 #@! TF.FileFunction,Copper,L1,Top,Signal*
%FSLAX46Y46*%
G04 Gerber Fmt 4.6, Leading zero omitted, Abs format (unit mm)*
G04 Created by KiCad (PCBNEW 4.0.1-stable) date 2/2/2017 10:24:45 PM*
%MOMM*%
G01*
G04 APERTURE LIST*
%ADD10C,0.100000*%
%ADD11R,1.524000X1.524000*%
%ADD12R,0.280000X0.990000*%
%ADD13R,0.990000X0.280000*%
%ADD14R,3.450000X3.450000*%
%ADD15C,0.508000*%
%ADD16R,2.500000X2.000000*%
%ADD17R,1.200000X0.750000*%
%ADD18R,0.500000X0.600000*%
%ADD19C,3.000000*%
%ADD20R,0.850000X0.630000*%
%ADD21R,0.600000X0.500000*%
%ADD22R,1.000000X3.130000*%
%ADD23R,2.660000X1.000000*%
%ADD24R,3.800000X1.000000*%
%ADD25C,0.970000*%
%ADD26C,1.500000*%
%ADD27C,1.778000*%
%ADD28C,0.220000*%
%ADD29R,0.400000X0.600000*%
%ADD30R,1.200000X1.200000*%
%ADD31R,1.500000X1.600000*%
%ADD32R,0.750000X1.240000*%
%ADD33R,0.800000X0.800000*%
%ADD34R,4.600000X1.100000*%
%ADD35R,9.400000X10.800000*%
%ADD36C,0.600000*%
%ADD37R,1.727200X1.727200*%
%ADD38O,1.727200X1.727200*%
%ADD39R,1.727200X2.032000*%
%ADD40O,1.727200X2.032000*%
%ADD41R,3.875000X3.875000*%
%ADD42R,0.800000X0.750000*%
%ADD43R,0.800000X0.400000*%
%ADD44R,0.400000X0.800000*%
%ADD45R,5.080000X2.415000*%
%ADD46R,5.080000X2.290000*%
%ADD47R,0.550000X0.300000*%
%ADD48R,0.300000X0.550000*%
%ADD49R,2.700000X2.700000*%
%ADD50R,0.600000X0.420000*%
%ADD51C,0.457200*%
%ADD52C,1.000000*%
%ADD53C,0.279908*%
%ADD54C,0.340757*%
%ADD55C,0.342138*%
%ADD56C,0.152400*%
%ADD57C,0.300000*%
%ADD58C,0.250000*%
%ADD59C,0.280000*%
%ADD60C,0.327996*%
%ADD61C,0.500000*%
%ADD62C,0.127000*%
%ADD63C,0.400000*%
%ADD64C,0.200000*%
G04 APERTURE END LIST*
D10*
D11*
X120001000Y-106313000D03*
X118251000Y-106313000D03*
X118251000Y-108063000D03*
D12*
X120876000Y-104643000D03*
D13*
X121671000Y-108938000D03*
X116581000Y-105438000D03*
D12*
X117376000Y-109733000D03*
D14*
X119126000Y-107188000D03*
D12*
X117876000Y-109733000D03*
X118376000Y-109733000D03*
X118876000Y-109733000D03*
X119376000Y-109733000D03*
X119876000Y-109733000D03*
X120376000Y-109733000D03*
X120876000Y-109733000D03*
D13*
X116581000Y-105938000D03*
X116581000Y-106438000D03*
X116581000Y-106938000D03*
X116581000Y-107438000D03*
X116581000Y-107938000D03*
X116581000Y-108438000D03*
X116581000Y-108938000D03*
X121671000Y-108438000D03*
X121671000Y-107938000D03*
X121671000Y-107438000D03*
X121671000Y-106938000D03*
X121671000Y-106438000D03*
X121671000Y-105938000D03*
X121671000Y-105438000D03*
D12*
X120376000Y-104643000D03*
X119876000Y-104643000D03*
X119376000Y-104643000D03*
X118876000Y-104643000D03*
X118376000Y-104643000D03*
X117876000Y-104643000D03*
X117376000Y-104643000D03*
D11*
X120001000Y-108063000D03*
D15*
X119126000Y-106426000D03*
D16*
X137033000Y-94062800D03*
X137033000Y-98062800D03*
D17*
X132488900Y-100558600D03*
X134388900Y-100558600D03*
D18*
X118516400Y-112411600D03*
X118516400Y-111311600D03*
X119443500Y-101685000D03*
X119443500Y-102785000D03*
D19*
X135774500Y-88455500D03*
X131814500Y-88455500D03*
D18*
X121539000Y-103082000D03*
X121539000Y-104182000D03*
D20*
X114679500Y-100496500D03*
X114679500Y-102576500D03*
X116079500Y-100496500D03*
X116079500Y-102576500D03*
D18*
X120954800Y-111929000D03*
X120954800Y-110829000D03*
X120523000Y-101685000D03*
X120523000Y-102785000D03*
X119545100Y-112398900D03*
X119545100Y-111298900D03*
D21*
X117199500Y-103568500D03*
X116099500Y-103568500D03*
X118787000Y-100457000D03*
X117687000Y-100457000D03*
X114596000Y-107442000D03*
X113496000Y-107442000D03*
X115739000Y-104775000D03*
X114639000Y-104775000D03*
D22*
X149516000Y-112345000D03*
D23*
X148686000Y-113410000D03*
D22*
X136996000Y-101015000D03*
D23*
X137826000Y-113410000D03*
X148686000Y-99950000D03*
D22*
X149516000Y-101015000D03*
D24*
X143256000Y-99950000D03*
D23*
X137826000Y-99950000D03*
D22*
X136996000Y-112345000D03*
D24*
X143256000Y-113410000D03*
D25*
X150114000Y-101092000D03*
D21*
X128863000Y-105029000D03*
X129963000Y-105029000D03*
D26*
X127508000Y-98044000D03*
X127508000Y-94932500D03*
X111887000Y-94869000D03*
X127000000Y-105410000D03*
X117563900Y-102285800D03*
D27*
X117043200Y-91313000D03*
X117043200Y-88011000D03*
X114554000Y-88011000D03*
X112064800Y-88011000D03*
X114554000Y-91313000D03*
X112064800Y-91313000D03*
D21*
X126450000Y-108204000D03*
X127550000Y-108204000D03*
D18*
X122936000Y-104606000D03*
X122936000Y-105706000D03*
D21*
X147362000Y-105029000D03*
X146262000Y-105029000D03*
D18*
X148209000Y-105622000D03*
X148209000Y-106722000D03*
D21*
X147362000Y-106172000D03*
X146262000Y-106172000D03*
D18*
X145364200Y-105583900D03*
X145364200Y-106683900D03*
D21*
X134789000Y-108843600D03*
X133689000Y-108843600D03*
X134789000Y-106892760D03*
X133689000Y-106892760D03*
D28*
X124090000Y-108938000D03*
X123486000Y-108938000D03*
X123486000Y-108438000D03*
X123486000Y-107938000D03*
X123486000Y-107438000D03*
X124910000Y-107438000D03*
X124910000Y-108938000D03*
X124910000Y-108188000D03*
D29*
X123692500Y-112458500D03*
X124592500Y-112458500D03*
D18*
X122555000Y-110194000D03*
X122555000Y-111294000D03*
D21*
X124900000Y-110181000D03*
X123800000Y-110181000D03*
X123783000Y-111315500D03*
X124883000Y-111315500D03*
D30*
X112036000Y-98917000D03*
X112036000Y-96917000D03*
D31*
X108786000Y-97917000D03*
D32*
X132242600Y-98797100D03*
X130342600Y-98797100D03*
X132242600Y-96097100D03*
X130342600Y-96097100D03*
X131292600Y-96097100D03*
D33*
X123762200Y-87477600D03*
X122262200Y-87477600D03*
X123762200Y-89001600D03*
X122262200Y-89001600D03*
X123762200Y-90525600D03*
X122262200Y-90525600D03*
D21*
X132147400Y-93446600D03*
X131047400Y-93446600D03*
D18*
X124066300Y-105126700D03*
X124066300Y-106226700D03*
D34*
X142113000Y-95221000D03*
X142113000Y-93521000D03*
X142113000Y-90121000D03*
D35*
X151263000Y-91821000D03*
D34*
X142113000Y-91821000D03*
X142113000Y-88421000D03*
D36*
X127031500Y-109473000D03*
X127000000Y-107188000D03*
X134270500Y-107885500D03*
X134270500Y-110044500D03*
X134207000Y-105663000D03*
X146643500Y-107696000D03*
X147786500Y-107696000D03*
X146580000Y-103632000D03*
X147723000Y-103632000D03*
D25*
X150114000Y-109982000D03*
D36*
X134366000Y-98971100D03*
X148583400Y-98525600D03*
X135324600Y-112394000D03*
X151212300Y-112673400D03*
X137877300Y-96023700D03*
X136880600Y-96050100D03*
X134429500Y-102323900D03*
X129933700Y-93662500D03*
D15*
X119888000Y-107188000D03*
X118364000Y-107188000D03*
X119126000Y-107950000D03*
X130683000Y-107823000D03*
X140462000Y-106553000D03*
X142367000Y-106553000D03*
X142367000Y-108331000D03*
X140462000Y-108331000D03*
X141351000Y-107442000D03*
X149098000Y-87884000D03*
X151638000Y-87884000D03*
X154178000Y-87884000D03*
X149098000Y-90424000D03*
X151638000Y-90424000D03*
X154178000Y-90424000D03*
X149098000Y-92964000D03*
X151638000Y-92964000D03*
X154178000Y-92964000D03*
X149098000Y-95504000D03*
X151638000Y-95504000D03*
X154178000Y-95504000D03*
D36*
X143122400Y-98398600D03*
D37*
X111252000Y-101727000D03*
D38*
X108712000Y-101727000D03*
X111252000Y-104267000D03*
X108712000Y-104267000D03*
X111252000Y-106807000D03*
X108712000Y-106807000D03*
X111252000Y-109347000D03*
X108712000Y-109347000D03*
X111252000Y-111887000D03*
X108712000Y-111887000D03*
D39*
X116840000Y-98171000D03*
D40*
X119380000Y-98171000D03*
X121920000Y-98171000D03*
D39*
X119380000Y-94996000D03*
D40*
X116840000Y-94996000D03*
X114300000Y-94996000D03*
D39*
X127127000Y-102489000D03*
D40*
X129667000Y-102489000D03*
X132207000Y-102489000D03*
D41*
X141351000Y-107442000D03*
D42*
X144130500Y-104711500D03*
X144130500Y-110211500D03*
X138630500Y-110211500D03*
X138630500Y-104711500D03*
D43*
X144130500Y-109336500D03*
X138630500Y-105586500D03*
D44*
X139567500Y-110211500D03*
X143192500Y-104711500D03*
X142467500Y-104711500D03*
X141742500Y-104711500D03*
X141017500Y-104711500D03*
X140292500Y-104711500D03*
X139567500Y-104711500D03*
X140292500Y-110211500D03*
X141017500Y-110211500D03*
X141742500Y-110211500D03*
X142467500Y-110211500D03*
X143192500Y-110211500D03*
D43*
X138630500Y-106336500D03*
X138630500Y-107086500D03*
X138630500Y-107836500D03*
X138630500Y-108586500D03*
X138630500Y-109336500D03*
X144130500Y-108586500D03*
X144130500Y-107836500D03*
X144130500Y-107086500D03*
X144130500Y-106336500D03*
X144130500Y-105586500D03*
D45*
X153377900Y-109932200D03*
D46*
X153377900Y-105549700D03*
D45*
X153377900Y-101167200D03*
D47*
X128833400Y-106893720D03*
X128833400Y-106893720D03*
X128833400Y-107543720D03*
X128833400Y-108193720D03*
X128833400Y-108843720D03*
D48*
X129733400Y-109743720D03*
X130383400Y-109743720D03*
X131033400Y-109743720D03*
X131683400Y-109743720D03*
D47*
X132583400Y-108843720D03*
X132583400Y-108193720D03*
X132583400Y-107543720D03*
X132583400Y-106893720D03*
D48*
X131683400Y-105993720D03*
X131033400Y-105993720D03*
X130383400Y-105993720D03*
X129733400Y-105993720D03*
D49*
X130708400Y-107868720D03*
D50*
X127264200Y-89905600D03*
X127264200Y-89255600D03*
X127264200Y-88605600D03*
X125364200Y-89905600D03*
X125364200Y-89255600D03*
X125364200Y-88605600D03*
D36*
X145554700Y-91795600D03*
X138798300Y-91948000D03*
X131279900Y-97370900D03*
X137502900Y-104432100D03*
X124066300Y-104292400D03*
X120942100Y-112801400D03*
X119532400Y-113093500D03*
X118503700Y-113106200D03*
X130810000Y-105029000D03*
X143256000Y-111125000D03*
X137414000Y-110236000D03*
X137414000Y-109347000D03*
X113792000Y-104775000D03*
X119634000Y-100457000D03*
X124714000Y-89865200D03*
X114681000Y-103505000D03*
X112712500Y-107442000D03*
D51*
X119888000Y-110617000D03*
X115443000Y-108204000D03*
X122707400Y-106807000D03*
X120777000Y-103632000D03*
X118872000Y-103759000D03*
D36*
X138976100Y-93167200D03*
X139014200Y-94018100D03*
X127939800Y-89230200D03*
X133858000Y-92329000D03*
X144907000Y-94107000D03*
X144907000Y-93218000D03*
X141859000Y-111125000D03*
X141097000Y-111125000D03*
X140335000Y-111125000D03*
X139573000Y-111125000D03*
D51*
X139547600Y-103492300D03*
X127254000Y-99822000D03*
X146050000Y-113030000D03*
X146558000Y-112522000D03*
X121031000Y-92329000D03*
X147066000Y-111887000D03*
X145351500Y-107632500D03*
D36*
X130352800Y-99809300D03*
D52*
X138442700Y-90055700D03*
X145288000Y-88519000D03*
D36*
X144957800Y-95224600D03*
D51*
X121894600Y-89865200D03*
X121843800Y-88417400D03*
X122631200Y-88214200D03*
X113284000Y-96901000D03*
D36*
X110236000Y-97917000D03*
X124904500Y-106222800D03*
X137515600Y-106210100D03*
X118491000Y-101282500D03*
X121754900Y-110820200D03*
X117690900Y-111277400D03*
X120230900Y-111302800D03*
X119951500Y-103124000D03*
X118745000Y-103060500D03*
X122809000Y-103441500D03*
X128905000Y-98044000D03*
X123190000Y-91567000D03*
X128778000Y-105918000D03*
X137541000Y-105410000D03*
X125349000Y-112395000D03*
X125603000Y-111252000D03*
X116586000Y-104775000D03*
X115443000Y-107442000D03*
X116967000Y-100520500D03*
D51*
X113665000Y-110744000D03*
X114300000Y-109220000D03*
X114300000Y-105537000D03*
X115951000Y-111252000D03*
X115951000Y-109728000D03*
X127419100Y-106603800D03*
X124968000Y-91313000D03*
X125831600Y-89255600D03*
X124968000Y-93472000D03*
X115189000Y-106045000D03*
X145161000Y-109347000D03*
X125476000Y-105410000D03*
D53*
X118376000Y-104643000D02*
X118376000Y-106438000D01*
X118376000Y-106438000D02*
X119126000Y-107188000D01*
D54*
X148209000Y-105622000D02*
X153380000Y-105622000D01*
D55*
X153380000Y-105622000D02*
X153416000Y-105586000D01*
D54*
X148209000Y-105622000D02*
X147362000Y-105622000D01*
D55*
X147383500Y-105600500D02*
X147362000Y-105600500D01*
X147362000Y-105622000D02*
X147383500Y-105600500D01*
D54*
X147362000Y-105029000D02*
X147362000Y-105600500D01*
X147362000Y-105600500D02*
X147362000Y-106172000D01*
D55*
X153413900Y-105583900D02*
X153416000Y-105586000D01*
D53*
X153416000Y-101204500D02*
X153273500Y-101204500D01*
X153273500Y-101204500D02*
X151129000Y-99060000D01*
X142113000Y-91821000D02*
X145529300Y-91821000D01*
X145529300Y-91821000D02*
X145554700Y-91795600D01*
X142113000Y-91821000D02*
X138925300Y-91821000D01*
X138925300Y-91821000D02*
X138798300Y-91948000D01*
X137826000Y-113410000D02*
X136340600Y-113410000D01*
X136340600Y-113410000D02*
X135324600Y-112394000D01*
X136996000Y-112345000D02*
X135373600Y-112345000D01*
X135373600Y-112345000D02*
X135324600Y-112394000D01*
X148686000Y-113410000D02*
X150475700Y-113410000D01*
X150475700Y-113410000D02*
X151212300Y-112673400D01*
X149516000Y-112345000D02*
X150883900Y-112345000D01*
X150883900Y-112345000D02*
X151212300Y-112673400D01*
X149516000Y-101015000D02*
X149516000Y-99458200D01*
X149516000Y-99458200D02*
X148583400Y-98525600D01*
X148686000Y-99950000D02*
X148686000Y-98628200D01*
X148686000Y-98628200D02*
X148583400Y-98525600D01*
X131292600Y-96097100D02*
X131292600Y-97358200D01*
X131292600Y-97358200D02*
X131279900Y-97370900D01*
X138630500Y-104711500D02*
X137782300Y-104711500D01*
X137782300Y-104711500D02*
X137502900Y-104432100D01*
X124066300Y-105126700D02*
X124066300Y-104292400D01*
X120954800Y-111929000D02*
X120954800Y-112788700D01*
X120954800Y-112788700D02*
X120942100Y-112801400D01*
X119545100Y-112398900D02*
X119545100Y-113080800D01*
X119545100Y-113080800D02*
X119532400Y-113093500D01*
X118516400Y-112411600D02*
X118516400Y-113093500D01*
X118516400Y-113093500D02*
X118503700Y-113106200D01*
X145364200Y-106683900D02*
X145631400Y-106683900D01*
X145631400Y-106683900D02*
X146643500Y-107696000D01*
X129963000Y-105029000D02*
X130810000Y-105029000D01*
X143192500Y-110211500D02*
X143192500Y-111061500D01*
X143192500Y-111061500D02*
X143256000Y-111125000D01*
X144130500Y-110211500D02*
X143192500Y-110211500D01*
X143192500Y-110211500D02*
X142467500Y-110211500D01*
X138630500Y-110211500D02*
X137438500Y-110211500D01*
X137438500Y-110211500D02*
X137414000Y-110236000D01*
X138630500Y-109336500D02*
X137424500Y-109336500D01*
X137424500Y-109336500D02*
X137414000Y-109347000D01*
X118999000Y-112437000D02*
X119719000Y-112437000D01*
X119719000Y-112437000D02*
X119761000Y-112395000D01*
X114639000Y-104775000D02*
X113792000Y-104775000D01*
X118787000Y-100457000D02*
X119634000Y-100457000D01*
X114679500Y-102576500D02*
X114679500Y-103503500D01*
X125364200Y-89905600D02*
X124754400Y-89905600D01*
X124754400Y-89905600D02*
X124714000Y-89865200D01*
D55*
X141017500Y-104711500D02*
X141017500Y-107098500D01*
X141017500Y-107098500D02*
X141380500Y-107461500D01*
X141742500Y-104711500D02*
X141742500Y-105918500D01*
X141742500Y-105918500D02*
X141425500Y-106235500D01*
X143192500Y-104711500D02*
X143192500Y-105368500D01*
X143192500Y-105368500D02*
X142325500Y-106235500D01*
X143192500Y-110211500D02*
X143192500Y-109273500D01*
X143192500Y-109273500D02*
X141380500Y-107461500D01*
X142467500Y-110211500D02*
X142467500Y-108548500D01*
X142467500Y-108548500D02*
X141380500Y-107461500D01*
X138630500Y-109336500D02*
X139224500Y-109336500D01*
X139224500Y-109336500D02*
X140525500Y-108035500D01*
X138630500Y-107836500D02*
X140326500Y-107836500D01*
X140326500Y-107836500D02*
X140525500Y-108035500D01*
X132583400Y-107543720D02*
X133928720Y-107543720D01*
X133928720Y-107543720D02*
X134270500Y-107885500D01*
X132583400Y-108193720D02*
X133962280Y-108193720D01*
X133962280Y-108193720D02*
X134270500Y-107885500D01*
X132583400Y-108193720D02*
X131033400Y-108193720D01*
X131033400Y-108193720D02*
X130708400Y-107868720D01*
X132583400Y-107543720D02*
X131691280Y-107543720D01*
X131691280Y-107543720D02*
X131413000Y-107822000D01*
X129733400Y-108843720D02*
X130708400Y-107868720D01*
X129733400Y-105993720D02*
X129733400Y-106893720D01*
X129733400Y-106893720D02*
X130708400Y-107868720D01*
X130383400Y-105993720D02*
X130383400Y-107454600D01*
X130383400Y-107454600D02*
X130016000Y-107822000D01*
X131033400Y-105993720D02*
X131033400Y-107442400D01*
X131033400Y-107442400D02*
X131413000Y-107822000D01*
X131683400Y-105993720D02*
X131683400Y-107551600D01*
X131683400Y-107551600D02*
X131413000Y-107822000D01*
X131683400Y-109743720D02*
X131683400Y-108092400D01*
X131683400Y-108092400D02*
X131413000Y-107822000D01*
X131033400Y-109743720D02*
X131033400Y-108201600D01*
X131033400Y-108201600D02*
X131413000Y-107822000D01*
X130383400Y-109743720D02*
X130383400Y-108189400D01*
X130383400Y-108189400D02*
X130016000Y-107822000D01*
X129733400Y-109743720D02*
X129733400Y-108104600D01*
X129733400Y-108104600D02*
X130016000Y-107822000D01*
X131683400Y-109743720D02*
X129733400Y-109743720D01*
X132588000Y-107885500D02*
X131476500Y-107885500D01*
X131476500Y-107885500D02*
X131413000Y-107822000D01*
X134270500Y-107885500D02*
X132588000Y-107885500D01*
X132588000Y-107885500D02*
X132583400Y-107885500D01*
X132588000Y-107950000D02*
X132583400Y-107950000D01*
X132588000Y-107890100D02*
X132588000Y-107950000D01*
X132583400Y-107885500D02*
X132588000Y-107890100D01*
X132583400Y-107543720D02*
X132583400Y-107950000D01*
X132583400Y-107950000D02*
X132583400Y-108193720D01*
X129733400Y-105993720D02*
X131683400Y-105993720D01*
X144130500Y-106336500D02*
X145016800Y-106336500D01*
X145016800Y-106336500D02*
X145364200Y-106683900D01*
X144130500Y-106336500D02*
X142505500Y-106336500D01*
X142505500Y-106336500D02*
X141380500Y-107461500D01*
X128833400Y-108843720D02*
X129733400Y-108843720D01*
D53*
X114679500Y-103503500D02*
X114681000Y-103505000D01*
X113496000Y-107442000D02*
X112712500Y-107442000D01*
D56*
X119876000Y-109733000D02*
X119876000Y-110605000D01*
X119876000Y-110605000D02*
X119888000Y-110617000D01*
X116581000Y-107938000D02*
X115709000Y-107938000D01*
X115709000Y-107938000D02*
X115443000Y-108204000D01*
X122576400Y-106938000D02*
X121671000Y-106938000D01*
X122707400Y-106807000D02*
X122576400Y-106938000D01*
X121671000Y-105938000D02*
X122704000Y-105938000D01*
X122704000Y-105938000D02*
X122936000Y-105706000D01*
X122936000Y-104606000D02*
X122503000Y-104606000D01*
X122503000Y-104606000D02*
X121671000Y-105438000D01*
X120376000Y-104643000D02*
X120376000Y-104033000D01*
X120376000Y-104033000D02*
X120777000Y-103632000D01*
X118876000Y-103763000D02*
X118876000Y-104643000D01*
X118872000Y-103759000D02*
X118876000Y-103763000D01*
D57*
X117199500Y-103568500D02*
X117199500Y-102650200D01*
X117199500Y-102650200D02*
X117563900Y-102285800D01*
X117376000Y-104643000D02*
X117376000Y-103745000D01*
X117376000Y-103745000D02*
X117199500Y-103568500D01*
D58*
X117348000Y-104615000D02*
X117376000Y-104643000D01*
D59*
X124090000Y-108938000D02*
X124090000Y-109371000D01*
X124090000Y-109371000D02*
X124900000Y-110181000D01*
D54*
X126450000Y-108204000D02*
X124926000Y-108204000D01*
D55*
X124926000Y-108204000D02*
X124910000Y-108188000D01*
D54*
X128833400Y-108193720D02*
X127560280Y-108193720D01*
D55*
X127560280Y-108193720D02*
X127550000Y-108204000D01*
X128827680Y-108188000D02*
X128833400Y-108193720D01*
D54*
X133689000Y-108843600D02*
X132583520Y-108843600D01*
D55*
X132583520Y-108843600D02*
X132583400Y-108843720D01*
D54*
X132583400Y-106893720D02*
X133688040Y-106893720D01*
D55*
X133688040Y-106893720D02*
X133689000Y-106892760D01*
D53*
X142113000Y-93521000D02*
X139329900Y-93521000D01*
X139329900Y-93521000D02*
X138976100Y-93167200D01*
X137033000Y-94062800D02*
X138969500Y-94062800D01*
X138969500Y-94062800D02*
X139014200Y-94018100D01*
X142113000Y-93521000D02*
X135050000Y-93521000D01*
X135050000Y-93521000D02*
X133858000Y-92329000D01*
X127508000Y-94932500D02*
X127508000Y-91440000D01*
X127939800Y-91008200D02*
X127939800Y-89230200D01*
X127508000Y-91440000D02*
X127939800Y-91008200D01*
X127914400Y-89255600D02*
X127939800Y-89230200D01*
X127914400Y-89255600D02*
X127264200Y-89255600D01*
X142113000Y-93521000D02*
X144321000Y-93521000D01*
X144321000Y-93521000D02*
X144907000Y-94107000D01*
X142113000Y-93521000D02*
X144604000Y-93521000D01*
X144604000Y-93521000D02*
X144907000Y-93218000D01*
X139567500Y-110211500D02*
X140292500Y-110211500D01*
X140292500Y-110211500D02*
X141017500Y-110211500D01*
X141017500Y-110211500D02*
X141742500Y-110211500D01*
X141742500Y-110211500D02*
X141742500Y-111008500D01*
X141742500Y-111008500D02*
X141859000Y-111125000D01*
X141017500Y-111045500D02*
X141017500Y-110211500D01*
X141097000Y-111125000D02*
X141017500Y-111045500D01*
X140292500Y-110211500D02*
X140292500Y-111082500D01*
X140292500Y-111082500D02*
X140335000Y-111125000D01*
X139567500Y-111119500D02*
X139567500Y-110211500D01*
X139573000Y-111125000D02*
X139567500Y-111119500D01*
D55*
X140292500Y-104711500D02*
X140292500Y-104157100D01*
X142467500Y-104113500D02*
X142467500Y-104711500D01*
X142138400Y-103784400D02*
X142467500Y-104113500D01*
X140665200Y-103784400D02*
X142138400Y-103784400D01*
X140292500Y-104157100D02*
X140665200Y-103784400D01*
D56*
X139567500Y-104711500D02*
X139567500Y-103512200D01*
X139567500Y-103512200D02*
X139547600Y-103492300D01*
D54*
X138630500Y-107086500D02*
X136471500Y-107086500D01*
X136471500Y-107086500D02*
X134982740Y-107086500D01*
D60*
X134982740Y-107086500D02*
X134789000Y-106892760D01*
D54*
X138630500Y-108586500D02*
X136471500Y-108586500D01*
X135046100Y-108586500D02*
X134789000Y-108843600D01*
X136471500Y-108586500D02*
X135046100Y-108586500D01*
D56*
X119380000Y-98171000D02*
X119380000Y-98425000D01*
X119380000Y-98425000D02*
X120777000Y-99822000D01*
X120777000Y-99822000D02*
X127254000Y-99822000D01*
X146050000Y-113030000D02*
X146050000Y-111887000D01*
X145289500Y-108586500D02*
X144130500Y-108586500D01*
X146050000Y-109347000D02*
X145289500Y-108586500D01*
X146050000Y-111887000D02*
X146050000Y-109347000D01*
X144130500Y-107836500D02*
X144793500Y-107836500D01*
X146558000Y-109220000D02*
X146558000Y-112522000D01*
X144793500Y-107836500D02*
X145161000Y-108204000D01*
X145161000Y-108204000D02*
X145542000Y-108204000D01*
X145542000Y-108204000D02*
X146558000Y-109220000D01*
X119761000Y-93599000D02*
X118237000Y-93599000D01*
X121031000Y-92329000D02*
X119761000Y-93599000D01*
X145605500Y-107632500D02*
X147066000Y-109093000D01*
X147066000Y-109093000D02*
X147066000Y-111887000D01*
X145351500Y-107632500D02*
X145605500Y-107632500D01*
X118237000Y-93599000D02*
X116840000Y-94996000D01*
X144130500Y-107086500D02*
X144805500Y-107086500D01*
X144805500Y-107086500D02*
X145351500Y-107632500D01*
D54*
X145364200Y-105583900D02*
X146262000Y-105583900D01*
D55*
X146240500Y-105600500D02*
X146262000Y-105600500D01*
X146245400Y-105600500D02*
X146240500Y-105600500D01*
X146262000Y-105583900D02*
X146245400Y-105600500D01*
D54*
X146262000Y-105029000D02*
X146262000Y-105600500D01*
X146262000Y-105600500D02*
X146262000Y-106172000D01*
X144130500Y-105586500D02*
X145361600Y-105586500D01*
D55*
X145361600Y-105586500D02*
X145364200Y-105583900D01*
X145380800Y-105600500D02*
X145364200Y-105583900D01*
D53*
X130342600Y-99799100D02*
X130342600Y-98797100D01*
X130342600Y-99799100D02*
X130352800Y-99809300D01*
D61*
X142113000Y-90121000D02*
X145210000Y-90121000D01*
X145210000Y-90121000D02*
X145288000Y-90043000D01*
X132147400Y-93446600D02*
X132147400Y-92082600D01*
X132270500Y-91959500D02*
X135774500Y-88455500D01*
X132147400Y-92082600D02*
X132270500Y-91959500D01*
X132147400Y-93446600D02*
X132147400Y-94390300D01*
X132147400Y-94390300D02*
X132232400Y-94475300D01*
X130342600Y-96097100D02*
X130342600Y-95018900D01*
X130886200Y-94475300D02*
X132232400Y-94475300D01*
X130342600Y-95018900D02*
X130886200Y-94475300D01*
X142113000Y-88421000D02*
X145190000Y-88421000D01*
X145190000Y-88421000D02*
X145288000Y-88519000D01*
X132242600Y-96097100D02*
X132242600Y-94485500D01*
X132242600Y-94485500D02*
X132232400Y-94475300D01*
D53*
X142113000Y-95221000D02*
X144954200Y-95221000D01*
X144954200Y-95221000D02*
X144957800Y-95224600D01*
D57*
X116079500Y-102576500D02*
X116079500Y-103548500D01*
X116079500Y-103548500D02*
X116099500Y-103568500D01*
D56*
X116079500Y-103548500D02*
X116099500Y-103568500D01*
D62*
X121894600Y-89865200D02*
X122262200Y-90232800D01*
X122262200Y-90232800D02*
X122262200Y-90525600D01*
X121843800Y-88417400D02*
X122262200Y-88835800D01*
X122262200Y-88835800D02*
X122262200Y-89001600D01*
X122631200Y-88214200D02*
X122262200Y-87845200D01*
X122262200Y-87477600D02*
X122262200Y-87845200D01*
X127264200Y-88605600D02*
X126684800Y-88605600D01*
X126009400Y-90525600D02*
X123762200Y-90525600D01*
X126288800Y-90246200D02*
X126009400Y-90525600D01*
X126288800Y-89001600D02*
X126288800Y-90246200D01*
X126684800Y-88605600D02*
X126288800Y-89001600D01*
X125364200Y-88605600D02*
X124158200Y-88605600D01*
X124158200Y-88605600D02*
X123762200Y-89001600D01*
D59*
X122555000Y-110194000D02*
X122555000Y-109065000D01*
D55*
X123800000Y-110181000D02*
X122568000Y-110181000D01*
D63*
X122568000Y-110181000D02*
X122555000Y-110194000D01*
D55*
X122568000Y-110181000D02*
X122555000Y-110194000D01*
D59*
X122555000Y-108938000D02*
X122555000Y-108966000D01*
X122555000Y-108966000D02*
X122555000Y-108938000D01*
X123486000Y-108938000D02*
X122555000Y-108938000D01*
X122555000Y-108938000D02*
X121671000Y-108938000D01*
X121671000Y-108438000D02*
X123486000Y-108438000D01*
X121671000Y-107938000D02*
X123486000Y-107938000D01*
X121671000Y-107438000D02*
X123486000Y-107438000D01*
D55*
X123692500Y-112458500D02*
X123692500Y-111406000D01*
X123692500Y-111406000D02*
X123783000Y-111315500D01*
X122555000Y-111294000D02*
X123761500Y-111294000D01*
X123761500Y-111294000D02*
X123783000Y-111315500D01*
D53*
X132168900Y-101523800D02*
X132168900Y-99974400D01*
X132207000Y-99936300D02*
X132242600Y-99900700D01*
X132242600Y-99900700D02*
X132242600Y-98797100D01*
X132168900Y-99974400D02*
X132207000Y-99936300D01*
D56*
X114300000Y-94996000D02*
X114300000Y-95885000D01*
X114300000Y-95885000D02*
X113284000Y-96901000D01*
X113284000Y-96901000D02*
X113268000Y-96917000D01*
X114173000Y-94132400D02*
X114147600Y-94107000D01*
D62*
X114173000Y-94132400D02*
X114147600Y-94107000D01*
D56*
X111887000Y-94869000D02*
X111887000Y-96768000D01*
X111887000Y-96768000D02*
X112036000Y-96917000D01*
X113268000Y-96917000D02*
X112036000Y-96917000D01*
D53*
X108786000Y-97917000D02*
X110236000Y-97917000D01*
X138630500Y-105586500D02*
X138630500Y-105590500D01*
X138630500Y-105590500D02*
X138176000Y-106045000D01*
X137515600Y-105791000D02*
X137541000Y-105791000D01*
X137541000Y-105791000D02*
X137795000Y-106045000D01*
X137795000Y-106045000D02*
X138176000Y-106045000D01*
X138176000Y-106045000D02*
X138630500Y-106045000D01*
X137515600Y-105816400D02*
X137515600Y-105791000D01*
X137515600Y-105791000D02*
X137515600Y-105435400D01*
X137515600Y-105435400D02*
X137541000Y-105410000D01*
X138630500Y-105586500D02*
X138380500Y-105586500D01*
X138380500Y-105586500D02*
X138176000Y-105791000D01*
X138176000Y-105791000D02*
X137541000Y-105791000D01*
X137515600Y-105816400D02*
X137515600Y-106210100D01*
X137541000Y-105791000D02*
X137515600Y-105816400D01*
X138630500Y-106336500D02*
X138594500Y-106336500D01*
X138594500Y-106336500D02*
X138468100Y-106210100D01*
X138468100Y-106210100D02*
X137515600Y-106210100D01*
X124066300Y-106226700D02*
X124900600Y-106226700D01*
X124900600Y-106226700D02*
X124904500Y-106222800D01*
X121671000Y-106438000D02*
X122283856Y-106438000D01*
X122422856Y-106299000D02*
X123994000Y-106299000D01*
X122283856Y-106438000D02*
X122422856Y-106299000D01*
X123994000Y-106299000D02*
X124066300Y-106226700D01*
X138630500Y-106336500D02*
X137642000Y-106336500D01*
X137642000Y-106336500D02*
X137515600Y-106210100D01*
X120376000Y-109733000D02*
X120376000Y-110355700D01*
X120376000Y-110355700D02*
X120849300Y-110829000D01*
X120849300Y-110829000D02*
X120954800Y-110829000D01*
X120954800Y-110829000D02*
X121746100Y-110829000D01*
X121746100Y-110829000D02*
X121754900Y-110820200D01*
X119376000Y-109733000D02*
X119376000Y-111129800D01*
X119376000Y-111129800D02*
X119545100Y-111298900D01*
X118516400Y-111311600D02*
X118516400Y-110896400D01*
X118876000Y-110536800D02*
X118876000Y-109733000D01*
X118516400Y-110896400D02*
X118876000Y-110536800D01*
X118516400Y-111311600D02*
X117725100Y-111311600D01*
X117725100Y-111311600D02*
X117690900Y-111277400D01*
X119545100Y-111298900D02*
X120227000Y-111298900D01*
X120227000Y-111298900D02*
X120230900Y-111302800D01*
X119876000Y-104643000D02*
X119876000Y-103771000D01*
X120523000Y-103124000D02*
X120523000Y-102785000D01*
X119876000Y-103771000D02*
X120523000Y-103124000D01*
X119376000Y-104643000D02*
X119376000Y-102852500D01*
X119376000Y-102852500D02*
X119443500Y-102785000D01*
X120523000Y-102785000D02*
X120290500Y-102785000D01*
X120290500Y-102785000D02*
X119951500Y-103124000D01*
X119443500Y-102785000D02*
X119020500Y-102785000D01*
X119020500Y-102785000D02*
X118745000Y-103060500D01*
X121539000Y-104182000D02*
X122068500Y-104182000D01*
X122068500Y-104182000D02*
X122809000Y-103441500D01*
X121539000Y-104182000D02*
X121337000Y-104182000D01*
X121337000Y-104182000D02*
X120876000Y-104643000D01*
X127508000Y-98044000D02*
X128905000Y-98044000D01*
X128833400Y-106893720D02*
X128833400Y-105973400D01*
X128863000Y-105833000D02*
X128778000Y-105918000D01*
X128863000Y-105833000D02*
X128863000Y-105029000D01*
X128833400Y-105973400D02*
X128778000Y-105918000D01*
X138630500Y-105586500D02*
X138630500Y-106045000D01*
X138630500Y-106045000D02*
X138630500Y-106336500D01*
X137717500Y-105586500D02*
X138630500Y-105586500D01*
X137541000Y-105410000D02*
X137717500Y-105586500D01*
X124592500Y-112458500D02*
X125285500Y-112458500D01*
X125285500Y-112458500D02*
X125349000Y-112395000D01*
X124883000Y-111315500D02*
X125539500Y-111315500D01*
X125539500Y-111315500D02*
X125603000Y-111252000D01*
X116581000Y-105438000D02*
X116581000Y-104780000D01*
X116586000Y-104775000D02*
X115739000Y-104775000D01*
X116581000Y-104780000D02*
X116586000Y-104775000D01*
X116581000Y-107438000D02*
X115447000Y-107438000D01*
X115443000Y-107442000D02*
X114596000Y-107442000D01*
X115447000Y-107438000D02*
X115443000Y-107442000D01*
D55*
X117687000Y-100457000D02*
X117030500Y-100457000D01*
X117030500Y-100457000D02*
X116967000Y-100520500D01*
X116079500Y-100496500D02*
X116943000Y-100496500D01*
X116943000Y-100496500D02*
X116967000Y-100520500D01*
D56*
X116581000Y-106938000D02*
X115193000Y-106938000D01*
X113538000Y-106553000D02*
X111252000Y-104267000D01*
X114808000Y-106553000D02*
X113538000Y-106553000D01*
X115193000Y-106938000D02*
X114808000Y-106553000D01*
X117876000Y-109733000D02*
X117876000Y-110190598D01*
X117876000Y-110190598D02*
X117614698Y-110451900D01*
X107442000Y-105537000D02*
X108712000Y-104267000D01*
X107442000Y-110020100D02*
X107442000Y-105537000D01*
X108038900Y-110617000D02*
X107442000Y-110020100D01*
X112052100Y-110617000D02*
X108038900Y-110617000D01*
X112433100Y-110236000D02*
X112052100Y-110617000D01*
X113817400Y-110236000D02*
X112433100Y-110236000D01*
X114033300Y-110451900D02*
X113817400Y-110236000D01*
X117614698Y-110451900D02*
X114033300Y-110451900D01*
D62*
X117876000Y-109733000D02*
X117876000Y-110152500D01*
D56*
X111252000Y-107188000D02*
X111252000Y-106807000D01*
D62*
X118376000Y-109733000D02*
X118376000Y-110160500D01*
D56*
X118376000Y-110160500D02*
X117792500Y-110744000D01*
X117792500Y-110744000D02*
X116586000Y-110744000D01*
X113665000Y-110744000D02*
X116586000Y-110744000D01*
X114935000Y-109220000D02*
X114300000Y-109220000D01*
X115979000Y-108938000D02*
X115697000Y-109220000D01*
X115697000Y-109220000D02*
X114935000Y-109220000D01*
X116581000Y-108938000D02*
X115979000Y-108938000D01*
X115844000Y-105938000D02*
X115443000Y-105537000D01*
X115443000Y-105537000D02*
X114300000Y-105537000D01*
X116581000Y-105938000D02*
X115844000Y-105938000D01*
X109982000Y-108077000D02*
X108712000Y-109347000D01*
X112141000Y-108077000D02*
X109982000Y-108077000D01*
X115844000Y-108438000D02*
X115570000Y-108712000D01*
X115570000Y-108712000D02*
X114935000Y-108712000D01*
X114935000Y-108712000D02*
X112776000Y-108712000D01*
X116581000Y-108438000D02*
X115844000Y-108438000D01*
X112776000Y-108712000D02*
X112141000Y-108077000D01*
X117376000Y-109733000D02*
X115956000Y-109733000D01*
X109982000Y-113157000D02*
X108712000Y-111887000D01*
X114427000Y-113157000D02*
X109982000Y-113157000D01*
X115951000Y-111252000D02*
X114427000Y-113157000D01*
X115956000Y-109733000D02*
X115951000Y-109728000D01*
X127000000Y-106184700D02*
X127000000Y-105410000D01*
X127419100Y-106603800D02*
X127000000Y-106184700D01*
X124968000Y-91821000D02*
X124968000Y-91313000D01*
D62*
X125831600Y-89255600D02*
X125364200Y-89255600D01*
D56*
X124968000Y-93472000D02*
X124968000Y-91821000D01*
X115582000Y-106438000D02*
X115189000Y-106045000D01*
X145161000Y-109347000D02*
X145150500Y-109336500D01*
X145150500Y-109336500D02*
X144130500Y-109336500D01*
X127000000Y-105410000D02*
X125476000Y-105410000D01*
X116581000Y-106438000D02*
X115582000Y-106438000D01*
X128833400Y-107543720D02*
X128371720Y-107543720D01*
X128016000Y-106426000D02*
X127000000Y-105410000D01*
X128016000Y-107188000D02*
X128016000Y-106426000D01*
X128371720Y-107543720D02*
X128016000Y-107188000D01*
D64*
G36*
X145696000Y-90832000D02*
X137492721Y-90832000D01*
X137092244Y-90665707D01*
X136618833Y-90665294D01*
X136215374Y-90832000D01*
X133831000Y-90832000D01*
X133831000Y-86481000D01*
X145696000Y-86481000D01*
X145696000Y-90832000D01*
X145696000Y-90832000D01*
G37*
X145696000Y-90832000D02*
X137492721Y-90832000D01*
X137092244Y-90665707D01*
X136618833Y-90665294D01*
X136215374Y-90832000D01*
X133831000Y-90832000D01*
X133831000Y-86481000D01*
X145696000Y-86481000D01*
X145696000Y-90832000D01*
G36*
X133250000Y-90202182D02*
X131758491Y-91693691D01*
X131639266Y-91872124D01*
X131597400Y-92082600D01*
X131597400Y-93031088D01*
X131565622Y-93077597D01*
X131541523Y-93196600D01*
X131541523Y-93696600D01*
X131562442Y-93807773D01*
X131597400Y-93862100D01*
X131597400Y-93925300D01*
X130886200Y-93925300D01*
X130675724Y-93967166D01*
X130497291Y-94086391D01*
X130497289Y-94086394D01*
X129953691Y-94629991D01*
X129834466Y-94808424D01*
X129792600Y-95018900D01*
X129792600Y-95233213D01*
X129754321Y-95257845D01*
X129685822Y-95358097D01*
X129661723Y-95477100D01*
X129661723Y-96717100D01*
X129682642Y-96828273D01*
X129748345Y-96930379D01*
X129848597Y-96998878D01*
X129967600Y-97022977D01*
X130717600Y-97022977D01*
X130828773Y-97002058D01*
X130930879Y-96936355D01*
X130999378Y-96836103D01*
X131023477Y-96717100D01*
X131023477Y-95477100D01*
X131002558Y-95365927D01*
X130936855Y-95263821D01*
X130900403Y-95238915D01*
X131114017Y-95025300D01*
X131692600Y-95025300D01*
X131692600Y-95233213D01*
X131654321Y-95257845D01*
X131585822Y-95358097D01*
X131561723Y-95477100D01*
X131561723Y-96717100D01*
X131582642Y-96828273D01*
X131648345Y-96930379D01*
X131748597Y-96998878D01*
X131867600Y-97022977D01*
X132617600Y-97022977D01*
X132728773Y-97002058D01*
X132830879Y-96936355D01*
X132899378Y-96836103D01*
X132923477Y-96717100D01*
X132923477Y-95477100D01*
X132902558Y-95365927D01*
X132836855Y-95263821D01*
X132792600Y-95233583D01*
X132792600Y-94485500D01*
X132750734Y-94275024D01*
X132697400Y-94195204D01*
X132697400Y-93862112D01*
X132729178Y-93815603D01*
X132753277Y-93696600D01*
X132753277Y-93196600D01*
X132732358Y-93085427D01*
X132697400Y-93031100D01*
X132697400Y-92310418D01*
X133594818Y-91413000D01*
X135749729Y-91413000D01*
X135664707Y-91617756D01*
X135664294Y-92091167D01*
X135845079Y-92528700D01*
X136072904Y-92756923D01*
X135783000Y-92756923D01*
X135671827Y-92777842D01*
X135569721Y-92843545D01*
X135501222Y-92943797D01*
X135477123Y-93062800D01*
X135477123Y-93081046D01*
X135232235Y-93081046D01*
X134458020Y-92306832D01*
X134458104Y-92210176D01*
X134366952Y-91989571D01*
X134198317Y-91820641D01*
X133977871Y-91729104D01*
X133739176Y-91728896D01*
X133518571Y-91820048D01*
X133349641Y-91988683D01*
X133258104Y-92209129D01*
X133257896Y-92447824D01*
X133349048Y-92668429D01*
X133517683Y-92837359D01*
X133738129Y-92928896D01*
X133835793Y-92928981D01*
X134738906Y-93832095D01*
X134881637Y-93927464D01*
X135050000Y-93960954D01*
X135477123Y-93960954D01*
X135477123Y-95062800D01*
X135498042Y-95173973D01*
X135563745Y-95276079D01*
X135663997Y-95344578D01*
X135783000Y-95368677D01*
X138283000Y-95368677D01*
X138394173Y-95347758D01*
X138496279Y-95282055D01*
X138564778Y-95181803D01*
X138588877Y-95062800D01*
X138588877Y-94584800D01*
X138814384Y-94584800D01*
X138894329Y-94617996D01*
X139133024Y-94618204D01*
X139213868Y-94584800D01*
X139524579Y-94584800D01*
X139507123Y-94671000D01*
X139507123Y-95771000D01*
X139528042Y-95882173D01*
X139593745Y-95984279D01*
X139693997Y-96052778D01*
X139813000Y-96076877D01*
X144413000Y-96076877D01*
X144524173Y-96055958D01*
X144626279Y-95990255D01*
X144694778Y-95890003D01*
X144718118Y-95774746D01*
X144837929Y-95824496D01*
X145076624Y-95824704D01*
X145297229Y-95733552D01*
X145466159Y-95564917D01*
X145557696Y-95344471D01*
X145557904Y-95105776D01*
X145466752Y-94885171D01*
X145298117Y-94716241D01*
X145151277Y-94655268D01*
X145246429Y-94615952D01*
X145415359Y-94447317D01*
X145506896Y-94226871D01*
X145507104Y-93988176D01*
X145415952Y-93767571D01*
X145311029Y-93662465D01*
X145415359Y-93558317D01*
X145506896Y-93337871D01*
X145507104Y-93099176D01*
X145415952Y-92878571D01*
X145247317Y-92709641D01*
X145026871Y-92618104D01*
X144788176Y-92617896D01*
X144567571Y-92709048D01*
X144564909Y-92711706D01*
X144532003Y-92689222D01*
X144413000Y-92665123D01*
X141757607Y-92665123D01*
X141757483Y-92664463D01*
X141693042Y-92564319D01*
X141594717Y-92497136D01*
X141478000Y-92473500D01*
X137886396Y-92473500D01*
X138044293Y-92093244D01*
X138044706Y-91619833D01*
X137959244Y-91413000D01*
X146431000Y-91413000D01*
X146469906Y-91405121D01*
X146502681Y-91382727D01*
X146524161Y-91349346D01*
X146531000Y-91313000D01*
X146531000Y-86481000D01*
X155835000Y-86481000D01*
X155835000Y-102262000D01*
X150622000Y-102262000D01*
X150585654Y-102268839D01*
X150552273Y-102290319D01*
X150529879Y-102323094D01*
X150522000Y-102362000D01*
X150522000Y-105151622D01*
X148705861Y-105151622D01*
X148678255Y-105108721D01*
X148578003Y-105040222D01*
X148459000Y-105016123D01*
X147967877Y-105016123D01*
X147967877Y-104779000D01*
X147946958Y-104667827D01*
X147881255Y-104565721D01*
X147781003Y-104497222D01*
X147662000Y-104473123D01*
X147062000Y-104473123D01*
X146950827Y-104494042D01*
X146848721Y-104559745D01*
X146811996Y-104613494D01*
X146781255Y-104565721D01*
X146681003Y-104497222D01*
X146562000Y-104473123D01*
X145962000Y-104473123D01*
X145850827Y-104494042D01*
X145748721Y-104559745D01*
X145680222Y-104659997D01*
X145656123Y-104779000D01*
X145656123Y-104986513D01*
X145614200Y-104978023D01*
X145114200Y-104978023D01*
X145003027Y-104998942D01*
X144900921Y-105064645D01*
X144865748Y-105116122D01*
X144666188Y-105116122D01*
X144649503Y-105104722D01*
X144530500Y-105080623D01*
X143730500Y-105080623D01*
X143619327Y-105101542D01*
X143517221Y-105167245D01*
X143448722Y-105267497D01*
X143424623Y-105386500D01*
X143424623Y-105786500D01*
X143445542Y-105897673D01*
X143511245Y-105999779D01*
X143611497Y-106068278D01*
X143730500Y-106092377D01*
X144530500Y-106092377D01*
X144641673Y-106071458D01*
X144664331Y-106056878D01*
X144869012Y-106056878D01*
X144894945Y-106097179D01*
X144995197Y-106165678D01*
X145114200Y-106189777D01*
X145614200Y-106189777D01*
X145656123Y-106181889D01*
X145656123Y-106422000D01*
X145677042Y-106533173D01*
X145742745Y-106635279D01*
X145842997Y-106703778D01*
X145962000Y-106727877D01*
X146562000Y-106727877D01*
X146673173Y-106706958D01*
X146775279Y-106641255D01*
X146812004Y-106587506D01*
X146842745Y-106635279D01*
X146942997Y-106703778D01*
X147062000Y-106727877D01*
X147662000Y-106727877D01*
X147773173Y-106706958D01*
X147875279Y-106641255D01*
X147943778Y-106541003D01*
X147967877Y-106422000D01*
X147967877Y-106227877D01*
X148459000Y-106227877D01*
X148570173Y-106206958D01*
X148672279Y-106141255D01*
X148705675Y-106092378D01*
X150522000Y-106092378D01*
X150522000Y-108712000D01*
X150528839Y-108748346D01*
X150550319Y-108781727D01*
X150583094Y-108804121D01*
X150622000Y-108812000D01*
X155835000Y-108812000D01*
X155835000Y-113925000D01*
X107182000Y-113925000D01*
X107182000Y-110292128D01*
X107772886Y-110883014D01*
X107894934Y-110964563D01*
X107903697Y-110966306D01*
X107979155Y-110981316D01*
X107889211Y-111041415D01*
X107636974Y-111418914D01*
X107548400Y-111864204D01*
X107548400Y-111909796D01*
X107636974Y-112355086D01*
X107889211Y-112732585D01*
X108266710Y-112984822D01*
X108712000Y-113073396D01*
X109157290Y-112984822D01*
X109229527Y-112936555D01*
X109715984Y-113423011D01*
X109715986Y-113423014D01*
X109838034Y-113504563D01*
X109982000Y-113533200D01*
X114427000Y-113533200D01*
X114447606Y-113529101D01*
X114468544Y-113530900D01*
X114519030Y-113514894D01*
X114570966Y-113504563D01*
X114588438Y-113492889D01*
X114608466Y-113486539D01*
X114648974Y-113452440D01*
X114693014Y-113423014D01*
X114704689Y-113405540D01*
X114720763Y-113392010D01*
X116009850Y-111780652D01*
X116055684Y-111780692D01*
X116250037Y-111700387D01*
X116398864Y-111551819D01*
X116479508Y-111357606D01*
X116479692Y-111147316D01*
X116468488Y-111120200D01*
X117106504Y-111120200D01*
X117091004Y-111157529D01*
X117090796Y-111396224D01*
X117181948Y-111616829D01*
X117350583Y-111785759D01*
X117571029Y-111877296D01*
X117809724Y-111877504D01*
X118024029Y-111788955D01*
X118047145Y-111824879D01*
X118147397Y-111893378D01*
X118266400Y-111917477D01*
X118766400Y-111917477D01*
X118877573Y-111896558D01*
X118979679Y-111830855D01*
X119035393Y-111749314D01*
X119075845Y-111812179D01*
X119176097Y-111880678D01*
X119295100Y-111904777D01*
X119795100Y-111904777D01*
X119906273Y-111883858D01*
X119968787Y-111843632D01*
X120111029Y-111902696D01*
X120349724Y-111902904D01*
X120570329Y-111811752D01*
X120739259Y-111643117D01*
X120825728Y-111434877D01*
X121204800Y-111434877D01*
X121315973Y-111413958D01*
X121418079Y-111348255D01*
X121427790Y-111334043D01*
X121635029Y-111420096D01*
X121873724Y-111420304D01*
X121999123Y-111368490D01*
X121999123Y-111594000D01*
X122020042Y-111705173D01*
X122085745Y-111807279D01*
X122185997Y-111875778D01*
X122305000Y-111899877D01*
X122805000Y-111899877D01*
X122916173Y-111878958D01*
X123018279Y-111813255D01*
X123051203Y-111765069D01*
X123221431Y-111765069D01*
X123221431Y-112023824D01*
X123210722Y-112039497D01*
X123186623Y-112158500D01*
X123186623Y-112758500D01*
X123207542Y-112869673D01*
X123273245Y-112971779D01*
X123373497Y-113040278D01*
X123492500Y-113064377D01*
X123892500Y-113064377D01*
X124003673Y-113043458D01*
X124105779Y-112977755D01*
X124142504Y-112924006D01*
X124173245Y-112971779D01*
X124273497Y-113040278D01*
X124392500Y-113064377D01*
X124792500Y-113064377D01*
X124903673Y-113043458D01*
X125005779Y-112977755D01*
X125046019Y-112918862D01*
X125229129Y-112994896D01*
X125467824Y-112995104D01*
X125688429Y-112903952D01*
X125857359Y-112735317D01*
X125948896Y-112514871D01*
X125949104Y-112276176D01*
X125857952Y-112055571D01*
X125689317Y-111886641D01*
X125605899Y-111852003D01*
X125721824Y-111852104D01*
X125942429Y-111760952D01*
X126111359Y-111592317D01*
X126202896Y-111371871D01*
X126203104Y-111133176D01*
X126111952Y-110912571D01*
X125943317Y-110743641D01*
X125722871Y-110652104D01*
X125484176Y-110651896D01*
X125263571Y-110743048D01*
X125236179Y-110770392D01*
X125183000Y-110759623D01*
X124583000Y-110759623D01*
X124471827Y-110780542D01*
X124369721Y-110846245D01*
X124332996Y-110899994D01*
X124302255Y-110852221D01*
X124202003Y-110783722D01*
X124083000Y-110759623D01*
X123483000Y-110759623D01*
X123371827Y-110780542D01*
X123305952Y-110822931D01*
X123051416Y-110822931D01*
X123024255Y-110780721D01*
X122970506Y-110743996D01*
X123018279Y-110713255D01*
X123060085Y-110652069D01*
X123292146Y-110652069D01*
X123380997Y-110712778D01*
X123500000Y-110736877D01*
X124100000Y-110736877D01*
X124211173Y-110715958D01*
X124313279Y-110650255D01*
X124350004Y-110596506D01*
X124380745Y-110644279D01*
X124480997Y-110712778D01*
X124600000Y-110736877D01*
X125200000Y-110736877D01*
X125311173Y-110715958D01*
X125413279Y-110650255D01*
X125481778Y-110550003D01*
X125505877Y-110431000D01*
X125505877Y-110236000D01*
X138384000Y-110236000D01*
X138384000Y-111887000D01*
X138404517Y-111996037D01*
X138468958Y-112096181D01*
X138567283Y-112163364D01*
X138684000Y-112187000D01*
X142621000Y-112187000D01*
X142730037Y-112166483D01*
X142830181Y-112102042D01*
X142897364Y-112003717D01*
X142921000Y-111887000D01*
X142921000Y-110236000D01*
X142900483Y-110126963D01*
X142836042Y-110026819D01*
X142737717Y-109959636D01*
X142621000Y-109936000D01*
X142248377Y-109936000D01*
X142248377Y-109811500D01*
X142227458Y-109700327D01*
X142161755Y-109598221D01*
X142061503Y-109529722D01*
X141942500Y-109505623D01*
X141542500Y-109505623D01*
X141431327Y-109526542D01*
X141380096Y-109559508D01*
X141336503Y-109529722D01*
X141217500Y-109505623D01*
X140817500Y-109505623D01*
X140706327Y-109526542D01*
X140655096Y-109559508D01*
X140611503Y-109529722D01*
X140492500Y-109505623D01*
X140092500Y-109505623D01*
X139981327Y-109526542D01*
X139930096Y-109559508D01*
X139886503Y-109529722D01*
X139767500Y-109505623D01*
X139367500Y-109505623D01*
X139256327Y-109526542D01*
X139154221Y-109592245D01*
X139085722Y-109692497D01*
X139061623Y-109811500D01*
X139061623Y-109936000D01*
X138684000Y-109936000D01*
X138574963Y-109956517D01*
X138474819Y-110020958D01*
X138407636Y-110119283D01*
X138384000Y-110236000D01*
X125505877Y-110236000D01*
X125505877Y-109931000D01*
X125484958Y-109819827D01*
X125419255Y-109717721D01*
X125319003Y-109649222D01*
X125200000Y-109625123D01*
X124966377Y-109625123D01*
X124530000Y-109188746D01*
X124530000Y-108938000D01*
X124496507Y-108769619D01*
X124401127Y-108626873D01*
X124258381Y-108531493D01*
X124090000Y-108498000D01*
X123921619Y-108531493D01*
X123905224Y-108542448D01*
X123926000Y-108438000D01*
X123892507Y-108269619D01*
X123837971Y-108188000D01*
X123892507Y-108106381D01*
X123926000Y-107938000D01*
X123892507Y-107769619D01*
X123837971Y-107688000D01*
X123892507Y-107606381D01*
X123926000Y-107438000D01*
X123892507Y-107269619D01*
X123797127Y-107126873D01*
X123654381Y-107031493D01*
X123486000Y-106998000D01*
X123200449Y-106998000D01*
X123235908Y-106912606D01*
X123236060Y-106738954D01*
X123596385Y-106738954D01*
X123597045Y-106739979D01*
X123697297Y-106808478D01*
X123816300Y-106832577D01*
X124316300Y-106832577D01*
X124427473Y-106811658D01*
X124529579Y-106745955D01*
X124549642Y-106716592D01*
X124564183Y-106731159D01*
X124784629Y-106822696D01*
X125023324Y-106822904D01*
X125243929Y-106731752D01*
X125412859Y-106563117D01*
X125504396Y-106342671D01*
X125504604Y-106103976D01*
X125436258Y-105938566D01*
X125580684Y-105938692D01*
X125775037Y-105858387D01*
X125847350Y-105786200D01*
X126019341Y-105786200D01*
X126109334Y-106004000D01*
X126404446Y-106299628D01*
X126720810Y-106430994D01*
X126733986Y-106450714D01*
X126890497Y-106607225D01*
X126890408Y-106708484D01*
X126970713Y-106902837D01*
X127119281Y-107051664D01*
X127313494Y-107132308D01*
X127523784Y-107132492D01*
X127639800Y-107084555D01*
X127639800Y-107187995D01*
X127639799Y-107188000D01*
X127657644Y-107277706D01*
X127668437Y-107331966D01*
X127723648Y-107414596D01*
X127749986Y-107454014D01*
X127967989Y-107672017D01*
X127850000Y-107648123D01*
X127250000Y-107648123D01*
X127138827Y-107669042D01*
X127036721Y-107734745D01*
X126999996Y-107788494D01*
X126969255Y-107740721D01*
X126869003Y-107672222D01*
X126750000Y-107648123D01*
X126150000Y-107648123D01*
X126038827Y-107669042D01*
X125938466Y-107733622D01*
X124993912Y-107733622D01*
X124910000Y-107716931D01*
X124729729Y-107752789D01*
X124576904Y-107854904D01*
X124474789Y-108007729D01*
X124438931Y-108188000D01*
X124474789Y-108368271D01*
X124576904Y-108521096D01*
X124592904Y-108537096D01*
X124745729Y-108639210D01*
X124926000Y-108675069D01*
X124929474Y-108674378D01*
X125941135Y-108674378D01*
X126030997Y-108735778D01*
X126150000Y-108759877D01*
X126750000Y-108759877D01*
X126861173Y-108738958D01*
X126963279Y-108673255D01*
X127000004Y-108619506D01*
X127030745Y-108667279D01*
X127130997Y-108735778D01*
X127250000Y-108759877D01*
X127850000Y-108759877D01*
X127961173Y-108738958D01*
X128031475Y-108693720D01*
X132002523Y-108693720D01*
X132002523Y-108993720D01*
X132023442Y-109104893D01*
X132089145Y-109206999D01*
X132189397Y-109275498D01*
X132308400Y-109299597D01*
X132507024Y-109299597D01*
X132583400Y-109314789D01*
X132587477Y-109313978D01*
X133180135Y-109313978D01*
X133269997Y-109375378D01*
X133389000Y-109399477D01*
X133989000Y-109399477D01*
X134100173Y-109378558D01*
X134202279Y-109312855D01*
X134239004Y-109259106D01*
X134269745Y-109306879D01*
X134369997Y-109375378D01*
X134489000Y-109399477D01*
X135089000Y-109399477D01*
X135200173Y-109378558D01*
X135302279Y-109312855D01*
X135370778Y-109212603D01*
X135394877Y-109093600D01*
X135394877Y-109056878D01*
X138094812Y-109056878D01*
X138111497Y-109068278D01*
X138230500Y-109092377D01*
X139030500Y-109092377D01*
X139141673Y-109071458D01*
X139243779Y-109005755D01*
X139312278Y-108905503D01*
X139336377Y-108786500D01*
X139336377Y-108386500D01*
X139315458Y-108275327D01*
X139249755Y-108173221D01*
X139149503Y-108104722D01*
X139030500Y-108080623D01*
X138230500Y-108080623D01*
X138119327Y-108101542D01*
X138096669Y-108116122D01*
X135046100Y-108116122D01*
X134887481Y-108147673D01*
X134866094Y-108151927D01*
X134713492Y-108253893D01*
X134679662Y-108287723D01*
X134489000Y-108287723D01*
X134377827Y-108308642D01*
X134275721Y-108374345D01*
X134238996Y-108428094D01*
X134208255Y-108380321D01*
X134108003Y-108311822D01*
X133989000Y-108287723D01*
X133389000Y-108287723D01*
X133277827Y-108308642D01*
X133177466Y-108373222D01*
X132586994Y-108373222D01*
X132583520Y-108372531D01*
X132506542Y-108387843D01*
X132308400Y-108387843D01*
X132197227Y-108408762D01*
X132095121Y-108474465D01*
X132026622Y-108574717D01*
X132002523Y-108693720D01*
X128031475Y-108693720D01*
X128063279Y-108673255D01*
X128069536Y-108664098D01*
X128829926Y-108664098D01*
X128833400Y-108664789D01*
X128909775Y-108649597D01*
X129108400Y-108649597D01*
X129219573Y-108628678D01*
X129321679Y-108562975D01*
X129390178Y-108462723D01*
X129414277Y-108343720D01*
X129414277Y-108043720D01*
X129393358Y-107932547D01*
X129352107Y-107868441D01*
X129390178Y-107812723D01*
X129414277Y-107693720D01*
X129414277Y-107393720D01*
X129393358Y-107282547D01*
X129352107Y-107218441D01*
X129390178Y-107162723D01*
X129414277Y-107043720D01*
X129414277Y-106743720D01*
X132002523Y-106743720D01*
X132002523Y-107043720D01*
X132023442Y-107154893D01*
X132089145Y-107256999D01*
X132189397Y-107325498D01*
X132308400Y-107349597D01*
X132510498Y-107349597D01*
X132583400Y-107364098D01*
X133181540Y-107364098D01*
X133269997Y-107424538D01*
X133389000Y-107448637D01*
X133989000Y-107448637D01*
X134100173Y-107427718D01*
X134202279Y-107362015D01*
X134239004Y-107308266D01*
X134269745Y-107356039D01*
X134369997Y-107424538D01*
X134489000Y-107448637D01*
X134694327Y-107448637D01*
X134802734Y-107521073D01*
X134982740Y-107556878D01*
X138094812Y-107556878D01*
X138111497Y-107568278D01*
X138230500Y-107592377D01*
X139030500Y-107592377D01*
X139141673Y-107571458D01*
X139243779Y-107505755D01*
X139312278Y-107405503D01*
X139336377Y-107286500D01*
X139336377Y-106886500D01*
X143424623Y-106886500D01*
X143424623Y-107286500D01*
X143445542Y-107397673D01*
X143486793Y-107461779D01*
X143448722Y-107517497D01*
X143424623Y-107636500D01*
X143424623Y-108036500D01*
X143445542Y-108147673D01*
X143486793Y-108211779D01*
X143448722Y-108267497D01*
X143424623Y-108386500D01*
X143424623Y-108786500D01*
X143445542Y-108897673D01*
X143486793Y-108961779D01*
X143448722Y-109017497D01*
X143424623Y-109136500D01*
X143424623Y-109536500D01*
X143445542Y-109647673D01*
X143511245Y-109749779D01*
X143611497Y-109818278D01*
X143730500Y-109842377D01*
X144530500Y-109842377D01*
X144641673Y-109821458D01*
X144743779Y-109755755D01*
X144773197Y-109712700D01*
X144779160Y-109712700D01*
X144861181Y-109794864D01*
X145055394Y-109875508D01*
X145265684Y-109875692D01*
X145460037Y-109795387D01*
X145608864Y-109646819D01*
X145670164Y-109499191D01*
X145673800Y-109502827D01*
X145673800Y-112658642D01*
X145602136Y-112730181D01*
X145521492Y-112924394D01*
X145521308Y-113134684D01*
X145601613Y-113329037D01*
X145750181Y-113477864D01*
X145944394Y-113558508D01*
X146154684Y-113558692D01*
X146349037Y-113478387D01*
X146497864Y-113329819D01*
X146578508Y-113135606D01*
X146578582Y-113050618D01*
X146662684Y-113050692D01*
X146857037Y-112970387D01*
X147005864Y-112821819D01*
X147086508Y-112627606D01*
X147086692Y-112417316D01*
X147085990Y-112415618D01*
X147170684Y-112415692D01*
X147365037Y-112335387D01*
X147513864Y-112186819D01*
X147594508Y-111992606D01*
X147594692Y-111782316D01*
X147514387Y-111587963D01*
X147442200Y-111515650D01*
X147442200Y-109093005D01*
X147442201Y-109093000D01*
X147413564Y-108949035D01*
X147332014Y-108826986D01*
X145871514Y-107366486D01*
X145849148Y-107351542D01*
X145755410Y-107288909D01*
X145651319Y-107184636D01*
X145457106Y-107103992D01*
X145354930Y-107103903D01*
X145071514Y-106820486D01*
X145055814Y-106809996D01*
X144949466Y-106738937D01*
X144925579Y-106734186D01*
X144805500Y-106710299D01*
X144805495Y-106710300D01*
X144773615Y-106710300D01*
X144749755Y-106673221D01*
X144649503Y-106604722D01*
X144530500Y-106580623D01*
X143730500Y-106580623D01*
X143619327Y-106601542D01*
X143517221Y-106667245D01*
X143448722Y-106767497D01*
X143424623Y-106886500D01*
X139336377Y-106886500D01*
X139315458Y-106775327D01*
X139274207Y-106711221D01*
X139312278Y-106655503D01*
X139336377Y-106536500D01*
X139336377Y-106136500D01*
X139315458Y-106025327D01*
X139274207Y-105961221D01*
X139312278Y-105905503D01*
X139336377Y-105786500D01*
X139336377Y-105411074D01*
X139367500Y-105417377D01*
X139767500Y-105417377D01*
X139878673Y-105396458D01*
X139929904Y-105363492D01*
X139973497Y-105393278D01*
X140092500Y-105417377D01*
X140492500Y-105417377D01*
X140603673Y-105396458D01*
X140705779Y-105330755D01*
X140774278Y-105230503D01*
X140798377Y-105111500D01*
X140798377Y-104317415D01*
X140860323Y-104255469D01*
X141943277Y-104255469D01*
X141967969Y-104280161D01*
X141961623Y-104311500D01*
X141961623Y-105111500D01*
X141982542Y-105222673D01*
X142048245Y-105324779D01*
X142148497Y-105393278D01*
X142267500Y-105417377D01*
X142667500Y-105417377D01*
X142778673Y-105396458D01*
X142880779Y-105330755D01*
X142949278Y-105230503D01*
X142973377Y-105111500D01*
X142973377Y-104311500D01*
X142952458Y-104200327D01*
X142938569Y-104178743D01*
X142938569Y-104113500D01*
X142902711Y-103933230D01*
X142800596Y-103780404D01*
X142471496Y-103451304D01*
X142318671Y-103349189D01*
X142138400Y-103313331D01*
X140665200Y-103313331D01*
X140484929Y-103349189D01*
X140332104Y-103451304D01*
X139998429Y-103784979D01*
X140076108Y-103597906D01*
X140076292Y-103387616D01*
X139995987Y-103193263D01*
X139847419Y-103044436D01*
X139653206Y-102963792D01*
X139442916Y-102963608D01*
X139248563Y-103043913D01*
X139099736Y-103192481D01*
X139019092Y-103386694D01*
X139018908Y-103596984D01*
X139099213Y-103791337D01*
X139191300Y-103883585D01*
X139191300Y-104068385D01*
X139154221Y-104092245D01*
X139085722Y-104192497D01*
X139061623Y-104311500D01*
X139061623Y-105086926D01*
X139030500Y-105080623D01*
X138230500Y-105080623D01*
X138119327Y-105101542D01*
X138074632Y-105130302D01*
X138049952Y-105070571D01*
X137881317Y-104901641D01*
X137660871Y-104810104D01*
X137422176Y-104809896D01*
X137201571Y-104901048D01*
X137032641Y-105069683D01*
X136941104Y-105290129D01*
X136940896Y-105528824D01*
X137032048Y-105749429D01*
X137075646Y-105793103D01*
X137075646Y-105801497D01*
X137007241Y-105869783D01*
X136915704Y-106090229D01*
X136915496Y-106328924D01*
X137006648Y-106549529D01*
X137073125Y-106616122D01*
X135389865Y-106616122D01*
X135373958Y-106531587D01*
X135308255Y-106429481D01*
X135208003Y-106360982D01*
X135089000Y-106336883D01*
X134489000Y-106336883D01*
X134377827Y-106357802D01*
X134275721Y-106423505D01*
X134238996Y-106477254D01*
X134208255Y-106429481D01*
X134108003Y-106360982D01*
X133989000Y-106336883D01*
X133389000Y-106336883D01*
X133277827Y-106357802D01*
X133175974Y-106423342D01*
X132583400Y-106423342D01*
X132510498Y-106437843D01*
X132308400Y-106437843D01*
X132197227Y-106458762D01*
X132095121Y-106524465D01*
X132026622Y-106624717D01*
X132002523Y-106743720D01*
X129414277Y-106743720D01*
X129393358Y-106632547D01*
X129327655Y-106530441D01*
X129273354Y-106493339D01*
X129273354Y-106271299D01*
X129286359Y-106258317D01*
X129377896Y-106037871D01*
X129378104Y-105799176D01*
X129302954Y-105617299D01*
X129302954Y-105545438D01*
X129376279Y-105498255D01*
X129444778Y-105398003D01*
X129468877Y-105279000D01*
X129468877Y-104779000D01*
X129447958Y-104667827D01*
X129382255Y-104565721D01*
X129282003Y-104497222D01*
X129163000Y-104473123D01*
X128563000Y-104473123D01*
X128451827Y-104494042D01*
X128349721Y-104559745D01*
X128281222Y-104659997D01*
X128257123Y-104779000D01*
X128257123Y-105279000D01*
X128278042Y-105390173D01*
X128343745Y-105492279D01*
X128350542Y-105496923D01*
X128269641Y-105577683D01*
X128178104Y-105798129D01*
X128177896Y-106036824D01*
X128191305Y-106069277D01*
X127959445Y-105837417D01*
X128049818Y-105619774D01*
X128050182Y-105202058D01*
X127890666Y-104816000D01*
X127595554Y-104520372D01*
X127209774Y-104360182D01*
X126792058Y-104359818D01*
X126406000Y-104519334D01*
X126110372Y-104814446D01*
X126019288Y-105033800D01*
X125847358Y-105033800D01*
X125775819Y-104962136D01*
X125581606Y-104881492D01*
X125371316Y-104881308D01*
X125176963Y-104961613D01*
X125028136Y-105110181D01*
X124947492Y-105304394D01*
X124947308Y-105514684D01*
X124992012Y-105622876D01*
X124785676Y-105622696D01*
X124565071Y-105713848D01*
X124547267Y-105731621D01*
X124535555Y-105713421D01*
X124435303Y-105644922D01*
X124316300Y-105620823D01*
X123816300Y-105620823D01*
X123705127Y-105641742D01*
X123603021Y-105707445D01*
X123534522Y-105807697D01*
X123524123Y-105859046D01*
X123491877Y-105859046D01*
X123491877Y-105406000D01*
X123470958Y-105294827D01*
X123405255Y-105192721D01*
X123351506Y-105155996D01*
X123399279Y-105125255D01*
X123467778Y-105025003D01*
X123491877Y-104906000D01*
X123491877Y-104306000D01*
X123470958Y-104194827D01*
X123405255Y-104092721D01*
X123305003Y-104024222D01*
X123186000Y-104000123D01*
X123028216Y-104000123D01*
X123148429Y-103950452D01*
X123317359Y-103781817D01*
X123408896Y-103561371D01*
X123409104Y-103322676D01*
X123317952Y-103102071D01*
X123149317Y-102933141D01*
X122928871Y-102841604D01*
X122690176Y-102841396D01*
X122469571Y-102932548D01*
X122300641Y-103101183D01*
X122209104Y-103321629D01*
X122209019Y-103419292D01*
X121979344Y-103648967D01*
X121908003Y-103600222D01*
X121789000Y-103576123D01*
X121305649Y-103576123D01*
X121305692Y-103527316D01*
X121225387Y-103332963D01*
X121076819Y-103184136D01*
X121060199Y-103177235D01*
X121078877Y-103085000D01*
X121078877Y-102485000D01*
X121057958Y-102373827D01*
X120992255Y-102271721D01*
X120892003Y-102203222D01*
X120773000Y-102179123D01*
X120273000Y-102179123D01*
X120161827Y-102200042D01*
X120059721Y-102265745D01*
X119991222Y-102365997D01*
X119983842Y-102402440D01*
X119978458Y-102373827D01*
X119912755Y-102271721D01*
X119812503Y-102203222D01*
X119693500Y-102179123D01*
X119193500Y-102179123D01*
X119082327Y-102200042D01*
X118980221Y-102265745D01*
X118911722Y-102365997D01*
X118911577Y-102366712D01*
X118852137Y-102378536D01*
X118729489Y-102460486D01*
X118626176Y-102460396D01*
X118613744Y-102465533D01*
X118614082Y-102077858D01*
X118533377Y-101882537D01*
X118609824Y-101882604D01*
X118830429Y-101791452D01*
X118999359Y-101622817D01*
X119061568Y-101473000D01*
X125957523Y-101473000D01*
X125957523Y-103505000D01*
X125978442Y-103616173D01*
X126044145Y-103718279D01*
X126144397Y-103786778D01*
X126263400Y-103810877D01*
X127990600Y-103810877D01*
X128101773Y-103789958D01*
X128203879Y-103724255D01*
X128272378Y-103624003D01*
X128296477Y-103505000D01*
X128296477Y-102310818D01*
X128503400Y-102310818D01*
X128503400Y-102667182D01*
X128591974Y-103112472D01*
X128844211Y-103489971D01*
X129221710Y-103742208D01*
X129667000Y-103830782D01*
X130112290Y-103742208D01*
X130489789Y-103489971D01*
X130742026Y-103112472D01*
X130830600Y-102667182D01*
X130830600Y-102310818D01*
X131043400Y-102310818D01*
X131043400Y-102667182D01*
X131131974Y-103112472D01*
X131384211Y-103489971D01*
X131761710Y-103742208D01*
X132207000Y-103830782D01*
X132652290Y-103742208D01*
X133029789Y-103489971D01*
X133282026Y-103112472D01*
X133370600Y-102667182D01*
X133370600Y-102310818D01*
X133282026Y-101865528D01*
X133029789Y-101488029D01*
X133027700Y-101486633D01*
X133027700Y-101239477D01*
X133088900Y-101239477D01*
X133200073Y-101218558D01*
X133302179Y-101152855D01*
X133370678Y-101052603D01*
X133394777Y-100933600D01*
X133394777Y-100183600D01*
X133373858Y-100072427D01*
X133308155Y-99970321D01*
X133207903Y-99901822D01*
X133088900Y-99877723D01*
X133027700Y-99877723D01*
X133027700Y-98577400D01*
X133007183Y-98468363D01*
X132942742Y-98368219D01*
X132923477Y-98355056D01*
X132923477Y-98177100D01*
X132902558Y-98065927D01*
X132836855Y-97963821D01*
X132736603Y-97895322D01*
X132617600Y-97871223D01*
X131867600Y-97871223D01*
X131756427Y-97892142D01*
X131654321Y-97957845D01*
X131585822Y-98058097D01*
X131561723Y-98177100D01*
X131561723Y-98348930D01*
X131539809Y-98363149D01*
X131472997Y-98461727D01*
X131449802Y-98578532D01*
X131460589Y-101436995D01*
X131384211Y-101488029D01*
X131131974Y-101865528D01*
X131043400Y-102310818D01*
X130830600Y-102310818D01*
X130742026Y-101865528D01*
X130489789Y-101488029D01*
X130112290Y-101235792D01*
X129667000Y-101147218D01*
X129221710Y-101235792D01*
X128844211Y-101488029D01*
X128591974Y-101865528D01*
X128503400Y-102310818D01*
X128296477Y-102310818D01*
X128296477Y-101473000D01*
X128275558Y-101361827D01*
X128209855Y-101259721D01*
X128109603Y-101191222D01*
X127990600Y-101167123D01*
X126263400Y-101167123D01*
X126152227Y-101188042D01*
X126050121Y-101253745D01*
X125981622Y-101353997D01*
X125957523Y-101473000D01*
X119061568Y-101473000D01*
X119090896Y-101402371D01*
X119091104Y-101163676D01*
X118999952Y-100943071D01*
X118831317Y-100774141D01*
X118610871Y-100682604D01*
X118372176Y-100682396D01*
X118291073Y-100715907D01*
X118292877Y-100707000D01*
X118292877Y-100207000D01*
X118271958Y-100095827D01*
X118206255Y-99993721D01*
X118106003Y-99925222D01*
X117987000Y-99901123D01*
X117387000Y-99901123D01*
X117275827Y-99922042D01*
X117203075Y-99968856D01*
X117086871Y-99920604D01*
X116848176Y-99920396D01*
X116725577Y-99971053D01*
X116723755Y-99968221D01*
X116623503Y-99899722D01*
X116504500Y-99875623D01*
X115654500Y-99875623D01*
X115543327Y-99896542D01*
X115441221Y-99962245D01*
X115378746Y-100053680D01*
X115323755Y-99968221D01*
X115223503Y-99899722D01*
X115104500Y-99875623D01*
X114254500Y-99875623D01*
X114143327Y-99896542D01*
X114041221Y-99962245D01*
X113972722Y-100062497D01*
X113948623Y-100181500D01*
X113948623Y-100811500D01*
X113969542Y-100922673D01*
X114035245Y-101024779D01*
X114135497Y-101093278D01*
X114254500Y-101117377D01*
X115104500Y-101117377D01*
X115215673Y-101096458D01*
X115317779Y-101030755D01*
X115380254Y-100939320D01*
X115435245Y-101024779D01*
X115535497Y-101093278D01*
X115654500Y-101117377D01*
X116504500Y-101117377D01*
X116615673Y-101096458D01*
X116683841Y-101052593D01*
X116847129Y-101120396D01*
X117085824Y-101120604D01*
X117306429Y-101029452D01*
X117333821Y-101002108D01*
X117387000Y-101012877D01*
X117953286Y-101012877D01*
X117891104Y-101162629D01*
X117890998Y-101284699D01*
X117773674Y-101235982D01*
X117355958Y-101235618D01*
X116969900Y-101395134D01*
X116674272Y-101690246D01*
X116559457Y-101966752D01*
X116504500Y-101955623D01*
X115654500Y-101955623D01*
X115543327Y-101976542D01*
X115441221Y-102042245D01*
X115372722Y-102142497D01*
X115348623Y-102261500D01*
X115348623Y-102891500D01*
X115369542Y-103002673D01*
X115435245Y-103104779D01*
X115535497Y-103173278D01*
X115535620Y-103173303D01*
X115517722Y-103199497D01*
X115493623Y-103318500D01*
X115493623Y-103818500D01*
X115514542Y-103929673D01*
X115580245Y-104031779D01*
X115680497Y-104100278D01*
X115799500Y-104124377D01*
X116399500Y-104124377D01*
X116510673Y-104103458D01*
X116612779Y-104037755D01*
X116649504Y-103984006D01*
X116680245Y-104031779D01*
X116780497Y-104100278D01*
X116899500Y-104124377D01*
X116926000Y-104124377D01*
X116926000Y-104266509D01*
X116705871Y-104175104D01*
X116467176Y-104174896D01*
X116246571Y-104266048D01*
X116224157Y-104288423D01*
X116158003Y-104243222D01*
X116039000Y-104219123D01*
X115439000Y-104219123D01*
X115327827Y-104240042D01*
X115225721Y-104305745D01*
X115157222Y-104405997D01*
X115133123Y-104525000D01*
X115133123Y-105025000D01*
X115154042Y-105136173D01*
X115169889Y-105160800D01*
X114671358Y-105160800D01*
X114599819Y-105089136D01*
X114405606Y-105008492D01*
X114195316Y-105008308D01*
X114000963Y-105088613D01*
X113852136Y-105237181D01*
X113771492Y-105431394D01*
X113771308Y-105641684D01*
X113851613Y-105836037D01*
X114000181Y-105984864D01*
X114194394Y-106065508D01*
X114404684Y-106065692D01*
X114599037Y-105985387D01*
X114671350Y-105913200D01*
X114671369Y-105913200D01*
X114660492Y-105939394D01*
X114660308Y-106149684D01*
X114671512Y-106176800D01*
X113693827Y-106176800D01*
X112297020Y-104779993D01*
X112327026Y-104735086D01*
X112415600Y-104289796D01*
X112415600Y-104244204D01*
X112327026Y-103798914D01*
X112074789Y-103421415D01*
X111697290Y-103169178D01*
X111252000Y-103080604D01*
X110806710Y-103169178D01*
X110429211Y-103421415D01*
X110176974Y-103798914D01*
X110088400Y-104244204D01*
X110088400Y-104289796D01*
X110176974Y-104735086D01*
X110429211Y-105112585D01*
X110806710Y-105364822D01*
X111252000Y-105453396D01*
X111697290Y-105364822D01*
X111769527Y-105316555D01*
X113271984Y-106819011D01*
X113271986Y-106819014D01*
X113394034Y-106900563D01*
X113538000Y-106929200D01*
X114150392Y-106929200D01*
X114082721Y-106972745D01*
X114014222Y-107072997D01*
X113990123Y-107192000D01*
X113990123Y-107692000D01*
X114011042Y-107803173D01*
X114076745Y-107905279D01*
X114176997Y-107973778D01*
X114296000Y-107997877D01*
X114896000Y-107997877D01*
X114961335Y-107985583D01*
X114914492Y-108098394D01*
X114914308Y-108308684D01*
X114925512Y-108335800D01*
X112931827Y-108335800D01*
X112407014Y-107810986D01*
X112377520Y-107791279D01*
X112284966Y-107729437D01*
X112250851Y-107722651D01*
X112141000Y-107700799D01*
X112140995Y-107700800D01*
X112002630Y-107700800D01*
X112074789Y-107652585D01*
X112327026Y-107275086D01*
X112415600Y-106829796D01*
X112415600Y-106784204D01*
X112327026Y-106338914D01*
X112074789Y-105961415D01*
X111697290Y-105709178D01*
X111252000Y-105620604D01*
X110806710Y-105709178D01*
X110429211Y-105961415D01*
X110176974Y-106338914D01*
X110088400Y-106784204D01*
X110088400Y-106829796D01*
X110176974Y-107275086D01*
X110429211Y-107652585D01*
X110501370Y-107700800D01*
X109982000Y-107700800D01*
X109838034Y-107729437D01*
X109715986Y-107810986D01*
X109715984Y-107810989D01*
X109229527Y-108297445D01*
X109157290Y-108249178D01*
X108712000Y-108160604D01*
X108266710Y-108249178D01*
X107889211Y-108501415D01*
X107818200Y-108607690D01*
X107818200Y-107546310D01*
X107889211Y-107652585D01*
X108266710Y-107904822D01*
X108712000Y-107993396D01*
X109157290Y-107904822D01*
X109534789Y-107652585D01*
X109787026Y-107275086D01*
X109875600Y-106829796D01*
X109875600Y-106784204D01*
X109787026Y-106338914D01*
X109534789Y-105961415D01*
X109157290Y-105709178D01*
X108712000Y-105620604D01*
X108266710Y-105709178D01*
X107889211Y-105961415D01*
X107818200Y-106067690D01*
X107818200Y-105692828D01*
X108194473Y-105316555D01*
X108266710Y-105364822D01*
X108712000Y-105453396D01*
X109157290Y-105364822D01*
X109534789Y-105112585D01*
X109787026Y-104735086D01*
X109875600Y-104289796D01*
X109875600Y-104244204D01*
X109787026Y-103798914D01*
X109534789Y-103421415D01*
X109157290Y-103169178D01*
X108712000Y-103080604D01*
X108266710Y-103169178D01*
X107889211Y-103421415D01*
X107636974Y-103798914D01*
X107548400Y-104244204D01*
X107548400Y-104289796D01*
X107636974Y-104735086D01*
X107666980Y-104779993D01*
X107182000Y-105264972D01*
X107182000Y-101704204D01*
X107548400Y-101704204D01*
X107548400Y-101749796D01*
X107636974Y-102195086D01*
X107889211Y-102572585D01*
X108266710Y-102824822D01*
X108712000Y-102913396D01*
X109157290Y-102824822D01*
X109534789Y-102572585D01*
X109787026Y-102195086D01*
X109875600Y-101749796D01*
X109875600Y-101704204D01*
X109787026Y-101258914D01*
X109534789Y-100881415D01*
X109157290Y-100629178D01*
X108712000Y-100540604D01*
X108266710Y-100629178D01*
X107889211Y-100881415D01*
X107636974Y-101258914D01*
X107548400Y-101704204D01*
X107182000Y-101704204D01*
X107182000Y-97117000D01*
X107730123Y-97117000D01*
X107730123Y-98717000D01*
X107751042Y-98828173D01*
X107816745Y-98930279D01*
X107916997Y-98998778D01*
X108036000Y-99022877D01*
X109536000Y-99022877D01*
X109647173Y-99001958D01*
X109749279Y-98936255D01*
X109817778Y-98836003D01*
X109841877Y-98717000D01*
X109841877Y-98371459D01*
X109895683Y-98425359D01*
X110116129Y-98516896D01*
X110354824Y-98517104D01*
X110575429Y-98425952D01*
X110684571Y-98317000D01*
X111130123Y-98317000D01*
X111130123Y-99517000D01*
X111151042Y-99628173D01*
X111216745Y-99730279D01*
X111316997Y-99798778D01*
X111436000Y-99822877D01*
X112636000Y-99822877D01*
X112747173Y-99801958D01*
X112849279Y-99736255D01*
X112917778Y-99636003D01*
X112941877Y-99517000D01*
X112941877Y-98317000D01*
X112920958Y-98205827D01*
X112855255Y-98103721D01*
X112755003Y-98035222D01*
X112636000Y-98011123D01*
X111436000Y-98011123D01*
X111324827Y-98032042D01*
X111222721Y-98097745D01*
X111154222Y-98197997D01*
X111130123Y-98317000D01*
X110684571Y-98317000D01*
X110744359Y-98257317D01*
X110835896Y-98036871D01*
X110836104Y-97798176D01*
X110744952Y-97577571D01*
X110576317Y-97408641D01*
X110355871Y-97317104D01*
X110117176Y-97316896D01*
X109896571Y-97408048D01*
X109841877Y-97462646D01*
X109841877Y-97117000D01*
X109820958Y-97005827D01*
X109755255Y-96903721D01*
X109655003Y-96835222D01*
X109536000Y-96811123D01*
X108036000Y-96811123D01*
X107924827Y-96832042D01*
X107822721Y-96897745D01*
X107754222Y-96997997D01*
X107730123Y-97117000D01*
X107182000Y-97117000D01*
X107182000Y-95076942D01*
X110836818Y-95076942D01*
X110996334Y-95463000D01*
X111291446Y-95758628D01*
X111510800Y-95849712D01*
X111510800Y-96011123D01*
X111436000Y-96011123D01*
X111324827Y-96032042D01*
X111222721Y-96097745D01*
X111154222Y-96197997D01*
X111130123Y-96317000D01*
X111130123Y-97517000D01*
X111151042Y-97628173D01*
X111216745Y-97730279D01*
X111316997Y-97798778D01*
X111436000Y-97822877D01*
X112636000Y-97822877D01*
X112747173Y-97801958D01*
X112849279Y-97736255D01*
X112917778Y-97636003D01*
X112941877Y-97517000D01*
X112941877Y-97306486D01*
X112984181Y-97348864D01*
X113178394Y-97429508D01*
X113388684Y-97429692D01*
X113583037Y-97349387D01*
X113731864Y-97200819D01*
X113750889Y-97155000D01*
X115670523Y-97155000D01*
X115670523Y-99187000D01*
X115691442Y-99298173D01*
X115757145Y-99400279D01*
X115857397Y-99468778D01*
X115976400Y-99492877D01*
X117703600Y-99492877D01*
X117814773Y-99471958D01*
X117916879Y-99406255D01*
X117985378Y-99306003D01*
X118009477Y-99187000D01*
X118009477Y-97992818D01*
X118216400Y-97992818D01*
X118216400Y-98349182D01*
X118304974Y-98794472D01*
X118557211Y-99171971D01*
X118934710Y-99424208D01*
X119380000Y-99512782D01*
X119825290Y-99424208D01*
X119838412Y-99415440D01*
X120510984Y-100088011D01*
X120510986Y-100088014D01*
X120633034Y-100169563D01*
X120777000Y-100198200D01*
X126882642Y-100198200D01*
X126954181Y-100269864D01*
X127148394Y-100350508D01*
X127358684Y-100350692D01*
X127553037Y-100270387D01*
X127701864Y-100121819D01*
X127782508Y-99927606D01*
X127782692Y-99717316D01*
X127702387Y-99522963D01*
X127553819Y-99374136D01*
X127359606Y-99293492D01*
X127149316Y-99293308D01*
X126954963Y-99373613D01*
X126882650Y-99445800D01*
X122256740Y-99445800D01*
X122365290Y-99424208D01*
X122742789Y-99171971D01*
X122995026Y-98794472D01*
X123083600Y-98349182D01*
X123083600Y-98251942D01*
X126457818Y-98251942D01*
X126617334Y-98638000D01*
X126912446Y-98933628D01*
X127298226Y-99093818D01*
X127715942Y-99094182D01*
X128102000Y-98934666D01*
X128397628Y-98639554D01*
X128462239Y-98483954D01*
X128496397Y-98483954D01*
X128564683Y-98552359D01*
X128785129Y-98643896D01*
X129023824Y-98644104D01*
X129244429Y-98552952D01*
X129413359Y-98384317D01*
X129499402Y-98177100D01*
X129661723Y-98177100D01*
X129661723Y-99417100D01*
X129682642Y-99528273D01*
X129748345Y-99630379D01*
X129770997Y-99645856D01*
X129752904Y-99689429D01*
X129752696Y-99928124D01*
X129843848Y-100148729D01*
X130012483Y-100317659D01*
X130232929Y-100409196D01*
X130471624Y-100409404D01*
X130692229Y-100318252D01*
X130861159Y-100149617D01*
X130952696Y-99929171D01*
X130952904Y-99690476D01*
X130930613Y-99636526D01*
X130930879Y-99636355D01*
X130999378Y-99536103D01*
X131023477Y-99417100D01*
X131023477Y-98177100D01*
X131002558Y-98065927D01*
X130936855Y-97963821D01*
X130836603Y-97895322D01*
X130717600Y-97871223D01*
X129967600Y-97871223D01*
X129856427Y-97892142D01*
X129754321Y-97957845D01*
X129685822Y-98058097D01*
X129661723Y-98177100D01*
X129499402Y-98177100D01*
X129504896Y-98163871D01*
X129505104Y-97925176D01*
X129413952Y-97704571D01*
X129245317Y-97535641D01*
X129024871Y-97444104D01*
X128786176Y-97443896D01*
X128565571Y-97535048D01*
X128496452Y-97604046D01*
X128462317Y-97604046D01*
X128398666Y-97450000D01*
X128103554Y-97154372D01*
X127717774Y-96994182D01*
X127300058Y-96993818D01*
X126914000Y-97153334D01*
X126618372Y-97448446D01*
X126458182Y-97834226D01*
X126457818Y-98251942D01*
X123083600Y-98251942D01*
X123083600Y-97992818D01*
X122995026Y-97547528D01*
X122742789Y-97170029D01*
X122365290Y-96917792D01*
X121920000Y-96829218D01*
X121474710Y-96917792D01*
X121097211Y-97170029D01*
X120844974Y-97547528D01*
X120756400Y-97992818D01*
X120756400Y-98349182D01*
X120844974Y-98794472D01*
X121097211Y-99171971D01*
X121474710Y-99424208D01*
X121583260Y-99445800D01*
X120932827Y-99445800D01*
X120385521Y-98898494D01*
X120455026Y-98794472D01*
X120543600Y-98349182D01*
X120543600Y-97992818D01*
X120455026Y-97547528D01*
X120202789Y-97170029D01*
X119825290Y-96917792D01*
X119380000Y-96829218D01*
X118934710Y-96917792D01*
X118557211Y-97170029D01*
X118304974Y-97547528D01*
X118216400Y-97992818D01*
X118009477Y-97992818D01*
X118009477Y-97155000D01*
X117988558Y-97043827D01*
X117922855Y-96941721D01*
X117822603Y-96873222D01*
X117703600Y-96849123D01*
X115976400Y-96849123D01*
X115865227Y-96870042D01*
X115763121Y-96935745D01*
X115694622Y-97035997D01*
X115670523Y-97155000D01*
X113750889Y-97155000D01*
X113812508Y-97006606D01*
X113812597Y-96904431D01*
X114398923Y-96318105D01*
X114745290Y-96249208D01*
X115122789Y-95996971D01*
X115375026Y-95619472D01*
X115463600Y-95174182D01*
X115463600Y-94817818D01*
X115676400Y-94817818D01*
X115676400Y-95174182D01*
X115764974Y-95619472D01*
X116017211Y-95996971D01*
X116394710Y-96249208D01*
X116840000Y-96337782D01*
X117285290Y-96249208D01*
X117662789Y-95996971D01*
X117915026Y-95619472D01*
X118003600Y-95174182D01*
X118003600Y-94817818D01*
X117928377Y-94439650D01*
X118210523Y-94157504D01*
X118210523Y-96012000D01*
X118231442Y-96123173D01*
X118297145Y-96225279D01*
X118397397Y-96293778D01*
X118516400Y-96317877D01*
X120243600Y-96317877D01*
X120354773Y-96296958D01*
X120456879Y-96231255D01*
X120525378Y-96131003D01*
X120549477Y-96012000D01*
X120549477Y-93980000D01*
X120528558Y-93868827D01*
X120462855Y-93766721D01*
X120362603Y-93698222D01*
X120243600Y-93674123D01*
X120217905Y-93674123D01*
X121034424Y-92857603D01*
X121135684Y-92857692D01*
X121330037Y-92777387D01*
X121478864Y-92628819D01*
X121559508Y-92434606D01*
X121559692Y-92224316D01*
X121479387Y-92029963D01*
X121330819Y-91881136D01*
X121136606Y-91800492D01*
X120926316Y-91800308D01*
X120731963Y-91880613D01*
X120583136Y-92029181D01*
X120502492Y-92223394D01*
X120502403Y-92325570D01*
X119605172Y-93222800D01*
X118237000Y-93222800D01*
X118093034Y-93251437D01*
X117970986Y-93332986D01*
X117970984Y-93332989D01*
X117450674Y-93853298D01*
X117285290Y-93742792D01*
X116840000Y-93654218D01*
X116394710Y-93742792D01*
X116017211Y-93995029D01*
X115764974Y-94372528D01*
X115676400Y-94817818D01*
X115463600Y-94817818D01*
X115375026Y-94372528D01*
X115122789Y-93995029D01*
X114745290Y-93742792D01*
X114300000Y-93654218D01*
X113854710Y-93742792D01*
X113477211Y-93995029D01*
X113224974Y-94372528D01*
X113136400Y-94817818D01*
X113136400Y-95174182D01*
X113224974Y-95619472D01*
X113477211Y-95996971D01*
X113584388Y-96068584D01*
X113280575Y-96372397D01*
X113179316Y-96372308D01*
X112984963Y-96452613D01*
X112941877Y-96495624D01*
X112941877Y-96317000D01*
X112920958Y-96205827D01*
X112855255Y-96103721D01*
X112755003Y-96035222D01*
X112636000Y-96011123D01*
X112263200Y-96011123D01*
X112263200Y-95849659D01*
X112481000Y-95759666D01*
X112776628Y-95464554D01*
X112936818Y-95078774D01*
X112937182Y-94661058D01*
X112777666Y-94275000D01*
X112482554Y-93979372D01*
X112096774Y-93819182D01*
X111679058Y-93818818D01*
X111293000Y-93978334D01*
X110997372Y-94273446D01*
X110837182Y-94659226D01*
X110836818Y-95076942D01*
X107182000Y-95076942D01*
X107182000Y-91548469D01*
X110875594Y-91548469D01*
X111056227Y-91985635D01*
X111390406Y-92320397D01*
X111827256Y-92501793D01*
X112300269Y-92502206D01*
X112737435Y-92321573D01*
X113072197Y-91987394D01*
X113253593Y-91550544D01*
X113253594Y-91548469D01*
X113364794Y-91548469D01*
X113545427Y-91985635D01*
X113879606Y-92320397D01*
X114316456Y-92501793D01*
X114789469Y-92502206D01*
X115226635Y-92321573D01*
X115561397Y-91987394D01*
X115742793Y-91550544D01*
X115743206Y-91077531D01*
X115562573Y-90640365D01*
X115228394Y-90305603D01*
X114791544Y-90124207D01*
X114318531Y-90123794D01*
X113881365Y-90304427D01*
X113546603Y-90638606D01*
X113365207Y-91075456D01*
X113364794Y-91548469D01*
X113253594Y-91548469D01*
X113254006Y-91077531D01*
X113073373Y-90640365D01*
X112739194Y-90305603D01*
X112302344Y-90124207D01*
X111829331Y-90123794D01*
X111392165Y-90304427D01*
X111057403Y-90638606D01*
X110876007Y-91075456D01*
X110875594Y-91548469D01*
X107182000Y-91548469D01*
X107182000Y-88246469D01*
X110875594Y-88246469D01*
X111056227Y-88683635D01*
X111390406Y-89018397D01*
X111827256Y-89199793D01*
X112300269Y-89200206D01*
X112737435Y-89019573D01*
X113072197Y-88685394D01*
X113253593Y-88248544D01*
X113253594Y-88246469D01*
X113364794Y-88246469D01*
X113545427Y-88683635D01*
X113879606Y-89018397D01*
X114316456Y-89199793D01*
X114789469Y-89200206D01*
X115226635Y-89019573D01*
X115561397Y-88685394D01*
X115742793Y-88248544D01*
X115742794Y-88246469D01*
X115853994Y-88246469D01*
X116034627Y-88683635D01*
X116368806Y-89018397D01*
X116805656Y-89199793D01*
X117278669Y-89200206D01*
X117715835Y-89019573D01*
X118050597Y-88685394D01*
X118118409Y-88522084D01*
X121315108Y-88522084D01*
X121395413Y-88716437D01*
X121543981Y-88865264D01*
X121556323Y-88870389D01*
X121556323Y-89401600D01*
X121564938Y-89447385D01*
X121446736Y-89565381D01*
X121366092Y-89759594D01*
X121365908Y-89969884D01*
X121446213Y-90164237D01*
X121556323Y-90274539D01*
X121556323Y-90925600D01*
X121577242Y-91036773D01*
X121642945Y-91138879D01*
X121743197Y-91207378D01*
X121862200Y-91231477D01*
X122662200Y-91231477D01*
X122681129Y-91227915D01*
X122590104Y-91447129D01*
X122589896Y-91685824D01*
X122681048Y-91906429D01*
X122849683Y-92075359D01*
X123070129Y-92166896D01*
X123308824Y-92167104D01*
X123529429Y-92075952D01*
X123698359Y-91907317D01*
X123789896Y-91686871D01*
X123790104Y-91448176D01*
X123700566Y-91231477D01*
X124162200Y-91231477D01*
X124273373Y-91210558D01*
X124375479Y-91144855D01*
X124443978Y-91044603D01*
X124468077Y-90925600D01*
X124468077Y-90889100D01*
X124644433Y-90889100D01*
X124520136Y-91013181D01*
X124439492Y-91207394D01*
X124439308Y-91417684D01*
X124519613Y-91612037D01*
X124591800Y-91684350D01*
X124591800Y-93100642D01*
X124520136Y-93172181D01*
X124439492Y-93366394D01*
X124439308Y-93576684D01*
X124519613Y-93771037D01*
X124668181Y-93919864D01*
X124862394Y-94000508D01*
X125072684Y-94000692D01*
X125267037Y-93920387D01*
X125415864Y-93771819D01*
X125496508Y-93577606D01*
X125496692Y-93367316D01*
X125416387Y-93172963D01*
X125344200Y-93100650D01*
X125344200Y-91684358D01*
X125415864Y-91612819D01*
X125496508Y-91418606D01*
X125496692Y-91208316D01*
X125416387Y-91013963D01*
X125291741Y-90889100D01*
X126009400Y-90889100D01*
X126148506Y-90861430D01*
X126266433Y-90782633D01*
X126545833Y-90503234D01*
X126624630Y-90385306D01*
X126635337Y-90331476D01*
X126652300Y-90246200D01*
X126652300Y-89152166D01*
X126658323Y-89146143D01*
X126658323Y-89465600D01*
X126679242Y-89576773D01*
X126744945Y-89678879D01*
X126845197Y-89747378D01*
X126964200Y-89771477D01*
X127499846Y-89771477D01*
X127499846Y-90825965D01*
X127196906Y-91128906D01*
X127101536Y-91271637D01*
X127068046Y-91440000D01*
X127068046Y-93978183D01*
X126914000Y-94041834D01*
X126618372Y-94336946D01*
X126458182Y-94722726D01*
X126457818Y-95140442D01*
X126617334Y-95526500D01*
X126912446Y-95822128D01*
X127298226Y-95982318D01*
X127715942Y-95982682D01*
X128102000Y-95823166D01*
X128397628Y-95528054D01*
X128557818Y-95142274D01*
X128558182Y-94724558D01*
X128398666Y-94338500D01*
X128103554Y-94042872D01*
X127947954Y-93978261D01*
X127947954Y-91622234D01*
X128250894Y-91319295D01*
X128346264Y-91176563D01*
X128353760Y-91138879D01*
X128379754Y-91008200D01*
X128379754Y-89638803D01*
X128448159Y-89570517D01*
X128539696Y-89350071D01*
X128539904Y-89111376D01*
X128448752Y-88890771D01*
X128280117Y-88721841D01*
X128059671Y-88630304D01*
X127870077Y-88630139D01*
X127870077Y-88395600D01*
X127849158Y-88284427D01*
X127783455Y-88182321D01*
X127683203Y-88113822D01*
X127564200Y-88089723D01*
X126964200Y-88089723D01*
X126853027Y-88110642D01*
X126750921Y-88176345D01*
X126705993Y-88242100D01*
X126684800Y-88242100D01*
X126545695Y-88269770D01*
X126427767Y-88348566D01*
X126031767Y-88744567D01*
X126020370Y-88761624D01*
X125970077Y-88740741D01*
X125970077Y-88395600D01*
X125949158Y-88284427D01*
X125883455Y-88182321D01*
X125783203Y-88113822D01*
X125664200Y-88089723D01*
X125064200Y-88089723D01*
X124953027Y-88110642D01*
X124850921Y-88176345D01*
X124805993Y-88242100D01*
X124158200Y-88242100D01*
X124019095Y-88269770D01*
X123980253Y-88295723D01*
X123362200Y-88295723D01*
X123251027Y-88316642D01*
X123148921Y-88382345D01*
X123110221Y-88438985D01*
X123159708Y-88319806D01*
X123159892Y-88109516D01*
X123079587Y-87915163D01*
X122968077Y-87803459D01*
X122968077Y-87077600D01*
X122947158Y-86966427D01*
X122881455Y-86864321D01*
X122781203Y-86795822D01*
X122662200Y-86771723D01*
X121862200Y-86771723D01*
X121751027Y-86792642D01*
X121648921Y-86858345D01*
X121580422Y-86958597D01*
X121556323Y-87077600D01*
X121556323Y-87877600D01*
X121571449Y-87957987D01*
X121544763Y-87969013D01*
X121395936Y-88117581D01*
X121315292Y-88311794D01*
X121315108Y-88522084D01*
X118118409Y-88522084D01*
X118231993Y-88248544D01*
X118232406Y-87775531D01*
X118051773Y-87338365D01*
X117717594Y-87003603D01*
X117280744Y-86822207D01*
X116807731Y-86821794D01*
X116370565Y-87002427D01*
X116035803Y-87336606D01*
X115854407Y-87773456D01*
X115853994Y-88246469D01*
X115742794Y-88246469D01*
X115743206Y-87775531D01*
X115562573Y-87338365D01*
X115228394Y-87003603D01*
X114791544Y-86822207D01*
X114318531Y-86821794D01*
X113881365Y-87002427D01*
X113546603Y-87336606D01*
X113365207Y-87773456D01*
X113364794Y-88246469D01*
X113253594Y-88246469D01*
X113254006Y-87775531D01*
X113073373Y-87338365D01*
X112739194Y-87003603D01*
X112302344Y-86822207D01*
X111829331Y-86821794D01*
X111392165Y-87002427D01*
X111057403Y-87336606D01*
X110876007Y-87773456D01*
X110875594Y-88246469D01*
X107182000Y-88246469D01*
X107182000Y-86481000D01*
X133250000Y-86481000D01*
X133250000Y-90202182D01*
X133250000Y-90202182D01*
G37*
X133250000Y-90202182D02*
X131758491Y-91693691D01*
X131639266Y-91872124D01*
X131597400Y-92082600D01*
X131597400Y-93031088D01*
X131565622Y-93077597D01*
X131541523Y-93196600D01*
X131541523Y-93696600D01*
X131562442Y-93807773D01*
X131597400Y-93862100D01*
X131597400Y-93925300D01*
X130886200Y-93925300D01*
X130675724Y-93967166D01*
X130497291Y-94086391D01*
X130497289Y-94086394D01*
X129953691Y-94629991D01*
X129834466Y-94808424D01*
X129792600Y-95018900D01*
X129792600Y-95233213D01*
X129754321Y-95257845D01*
X129685822Y-95358097D01*
X129661723Y-95477100D01*
X129661723Y-96717100D01*
X129682642Y-96828273D01*
X129748345Y-96930379D01*
X129848597Y-96998878D01*
X129967600Y-97022977D01*
X130717600Y-97022977D01*
X130828773Y-97002058D01*
X130930879Y-96936355D01*
X130999378Y-96836103D01*
X131023477Y-96717100D01*
X131023477Y-95477100D01*
X131002558Y-95365927D01*
X130936855Y-95263821D01*
X130900403Y-95238915D01*
X131114017Y-95025300D01*
X131692600Y-95025300D01*
X131692600Y-95233213D01*
X131654321Y-95257845D01*
X131585822Y-95358097D01*
X131561723Y-95477100D01*
X131561723Y-96717100D01*
X131582642Y-96828273D01*
X131648345Y-96930379D01*
X131748597Y-96998878D01*
X131867600Y-97022977D01*
X132617600Y-97022977D01*
X132728773Y-97002058D01*
X132830879Y-96936355D01*
X132899378Y-96836103D01*
X132923477Y-96717100D01*
X132923477Y-95477100D01*
X132902558Y-95365927D01*
X132836855Y-95263821D01*
X132792600Y-95233583D01*
X132792600Y-94485500D01*
X132750734Y-94275024D01*
X132697400Y-94195204D01*
X132697400Y-93862112D01*
X132729178Y-93815603D01*
X132753277Y-93696600D01*
X132753277Y-93196600D01*
X132732358Y-93085427D01*
X132697400Y-93031100D01*
X132697400Y-92310418D01*
X133594818Y-91413000D01*
X135749729Y-91413000D01*
X135664707Y-91617756D01*
X135664294Y-92091167D01*
X135845079Y-92528700D01*
X136072904Y-92756923D01*
X135783000Y-92756923D01*
X135671827Y-92777842D01*
X135569721Y-92843545D01*
X135501222Y-92943797D01*
X135477123Y-93062800D01*
X135477123Y-93081046D01*
X135232235Y-93081046D01*
X134458020Y-92306832D01*
X134458104Y-92210176D01*
X134366952Y-91989571D01*
X134198317Y-91820641D01*
X133977871Y-91729104D01*
X133739176Y-91728896D01*
X133518571Y-91820048D01*
X133349641Y-91988683D01*
X133258104Y-92209129D01*
X133257896Y-92447824D01*
X133349048Y-92668429D01*
X133517683Y-92837359D01*
X133738129Y-92928896D01*
X133835793Y-92928981D01*
X134738906Y-93832095D01*
X134881637Y-93927464D01*
X135050000Y-93960954D01*
X135477123Y-93960954D01*
X135477123Y-95062800D01*
X135498042Y-95173973D01*
X135563745Y-95276079D01*
X135663997Y-95344578D01*
X135783000Y-95368677D01*
X138283000Y-95368677D01*
X138394173Y-95347758D01*
X138496279Y-95282055D01*
X138564778Y-95181803D01*
X138588877Y-95062800D01*
X138588877Y-94584800D01*
X138814384Y-94584800D01*
X138894329Y-94617996D01*
X139133024Y-94618204D01*
X139213868Y-94584800D01*
X139524579Y-94584800D01*
X139507123Y-94671000D01*
X139507123Y-95771000D01*
X139528042Y-95882173D01*
X139593745Y-95984279D01*
X139693997Y-96052778D01*
X139813000Y-96076877D01*
X144413000Y-96076877D01*
X144524173Y-96055958D01*
X144626279Y-95990255D01*
X144694778Y-95890003D01*
X144718118Y-95774746D01*
X144837929Y-95824496D01*
X145076624Y-95824704D01*
X145297229Y-95733552D01*
X145466159Y-95564917D01*
X145557696Y-95344471D01*
X145557904Y-95105776D01*
X145466752Y-94885171D01*
X145298117Y-94716241D01*
X145151277Y-94655268D01*
X145246429Y-94615952D01*
X145415359Y-94447317D01*
X145506896Y-94226871D01*
X145507104Y-93988176D01*
X145415952Y-93767571D01*
X145311029Y-93662465D01*
X145415359Y-93558317D01*
X145506896Y-93337871D01*
X145507104Y-93099176D01*
X145415952Y-92878571D01*
X145247317Y-92709641D01*
X145026871Y-92618104D01*
X144788176Y-92617896D01*
X144567571Y-92709048D01*
X144564909Y-92711706D01*
X144532003Y-92689222D01*
X144413000Y-92665123D01*
X141757607Y-92665123D01*
X141757483Y-92664463D01*
X141693042Y-92564319D01*
X141594717Y-92497136D01*
X141478000Y-92473500D01*
X137886396Y-92473500D01*
X138044293Y-92093244D01*
X138044706Y-91619833D01*
X137959244Y-91413000D01*
X146431000Y-91413000D01*
X146469906Y-91405121D01*
X146502681Y-91382727D01*
X146524161Y-91349346D01*
X146531000Y-91313000D01*
X146531000Y-86481000D01*
X155835000Y-86481000D01*
X155835000Y-102262000D01*
X150622000Y-102262000D01*
X150585654Y-102268839D01*
X150552273Y-102290319D01*
X150529879Y-102323094D01*
X150522000Y-102362000D01*
X150522000Y-105151622D01*
X148705861Y-105151622D01*
X148678255Y-105108721D01*
X148578003Y-105040222D01*
X148459000Y-105016123D01*
X147967877Y-105016123D01*
X147967877Y-104779000D01*
X147946958Y-104667827D01*
X147881255Y-104565721D01*
X147781003Y-104497222D01*
X147662000Y-104473123D01*
X147062000Y-104473123D01*
X146950827Y-104494042D01*
X146848721Y-104559745D01*
X146811996Y-104613494D01*
X146781255Y-104565721D01*
X146681003Y-104497222D01*
X146562000Y-104473123D01*
X145962000Y-104473123D01*
X145850827Y-104494042D01*
X145748721Y-104559745D01*
X145680222Y-104659997D01*
X145656123Y-104779000D01*
X145656123Y-104986513D01*
X145614200Y-104978023D01*
X145114200Y-104978023D01*
X145003027Y-104998942D01*
X144900921Y-105064645D01*
X144865748Y-105116122D01*
X144666188Y-105116122D01*
X144649503Y-105104722D01*
X144530500Y-105080623D01*
X143730500Y-105080623D01*
X143619327Y-105101542D01*
X143517221Y-105167245D01*
X143448722Y-105267497D01*
X143424623Y-105386500D01*
X143424623Y-105786500D01*
X143445542Y-105897673D01*
X143511245Y-105999779D01*
X143611497Y-106068278D01*
X143730500Y-106092377D01*
X144530500Y-106092377D01*
X144641673Y-106071458D01*
X144664331Y-106056878D01*
X144869012Y-106056878D01*
X144894945Y-106097179D01*
X144995197Y-106165678D01*
X145114200Y-106189777D01*
X145614200Y-106189777D01*
X145656123Y-106181889D01*
X145656123Y-106422000D01*
X145677042Y-106533173D01*
X145742745Y-106635279D01*
X145842997Y-106703778D01*
X145962000Y-106727877D01*
X146562000Y-106727877D01*
X146673173Y-106706958D01*
X146775279Y-106641255D01*
X146812004Y-106587506D01*
X146842745Y-106635279D01*
X146942997Y-106703778D01*
X147062000Y-106727877D01*
X147662000Y-106727877D01*
X147773173Y-106706958D01*
X147875279Y-106641255D01*
X147943778Y-106541003D01*
X147967877Y-106422000D01*
X147967877Y-106227877D01*
X148459000Y-106227877D01*
X148570173Y-106206958D01*
X148672279Y-106141255D01*
X148705675Y-106092378D01*
X150522000Y-106092378D01*
X150522000Y-108712000D01*
X150528839Y-108748346D01*
X150550319Y-108781727D01*
X150583094Y-108804121D01*
X150622000Y-108812000D01*
X155835000Y-108812000D01*
X155835000Y-113925000D01*
X107182000Y-113925000D01*
X107182000Y-110292128D01*
X107772886Y-110883014D01*
X107894934Y-110964563D01*
X107903697Y-110966306D01*
X107979155Y-110981316D01*
X107889211Y-111041415D01*
X107636974Y-111418914D01*
X107548400Y-111864204D01*
X107548400Y-111909796D01*
X107636974Y-112355086D01*
X107889211Y-112732585D01*
X108266710Y-112984822D01*
X108712000Y-113073396D01*
X109157290Y-112984822D01*
X109229527Y-112936555D01*
X109715984Y-113423011D01*
X109715986Y-113423014D01*
X109838034Y-113504563D01*
X109982000Y-113533200D01*
X114427000Y-113533200D01*
X114447606Y-113529101D01*
X114468544Y-113530900D01*
X114519030Y-113514894D01*
X114570966Y-113504563D01*
X114588438Y-113492889D01*
X114608466Y-113486539D01*
X114648974Y-113452440D01*
X114693014Y-113423014D01*
X114704689Y-113405540D01*
X114720763Y-113392010D01*
X116009850Y-111780652D01*
X116055684Y-111780692D01*
X116250037Y-111700387D01*
X116398864Y-111551819D01*
X116479508Y-111357606D01*
X116479692Y-111147316D01*
X116468488Y-111120200D01*
X117106504Y-111120200D01*
X117091004Y-111157529D01*
X117090796Y-111396224D01*
X117181948Y-111616829D01*
X117350583Y-111785759D01*
X117571029Y-111877296D01*
X117809724Y-111877504D01*
X118024029Y-111788955D01*
X118047145Y-111824879D01*
X118147397Y-111893378D01*
X118266400Y-111917477D01*
X118766400Y-111917477D01*
X118877573Y-111896558D01*
X118979679Y-111830855D01*
X119035393Y-111749314D01*
X119075845Y-111812179D01*
X119176097Y-111880678D01*
X119295100Y-111904777D01*
X119795100Y-111904777D01*
X119906273Y-111883858D01*
X119968787Y-111843632D01*
X120111029Y-111902696D01*
X120349724Y-111902904D01*
X120570329Y-111811752D01*
X120739259Y-111643117D01*
X120825728Y-111434877D01*
X121204800Y-111434877D01*
X121315973Y-111413958D01*
X121418079Y-111348255D01*
X121427790Y-111334043D01*
X121635029Y-111420096D01*
X121873724Y-111420304D01*
X121999123Y-111368490D01*
X121999123Y-111594000D01*
X122020042Y-111705173D01*
X122085745Y-111807279D01*
X122185997Y-111875778D01*
X122305000Y-111899877D01*
X122805000Y-111899877D01*
X122916173Y-111878958D01*
X123018279Y-111813255D01*
X123051203Y-111765069D01*
X123221431Y-111765069D01*
X123221431Y-112023824D01*
X123210722Y-112039497D01*
X123186623Y-112158500D01*
X123186623Y-112758500D01*
X123207542Y-112869673D01*
X123273245Y-112971779D01*
X123373497Y-113040278D01*
X123492500Y-113064377D01*
X123892500Y-113064377D01*
X124003673Y-113043458D01*
X124105779Y-112977755D01*
X124142504Y-112924006D01*
X124173245Y-112971779D01*
X124273497Y-113040278D01*
X124392500Y-113064377D01*
X124792500Y-113064377D01*
X124903673Y-113043458D01*
X125005779Y-112977755D01*
X125046019Y-112918862D01*
X125229129Y-112994896D01*
X125467824Y-112995104D01*
X125688429Y-112903952D01*
X125857359Y-112735317D01*
X125948896Y-112514871D01*
X125949104Y-112276176D01*
X125857952Y-112055571D01*
X125689317Y-111886641D01*
X125605899Y-111852003D01*
X125721824Y-111852104D01*
X125942429Y-111760952D01*
X126111359Y-111592317D01*
X126202896Y-111371871D01*
X126203104Y-111133176D01*
X126111952Y-110912571D01*
X125943317Y-110743641D01*
X125722871Y-110652104D01*
X125484176Y-110651896D01*
X125263571Y-110743048D01*
X125236179Y-110770392D01*
X125183000Y-110759623D01*
X124583000Y-110759623D01*
X124471827Y-110780542D01*
X124369721Y-110846245D01*
X124332996Y-110899994D01*
X124302255Y-110852221D01*
X124202003Y-110783722D01*
X124083000Y-110759623D01*
X123483000Y-110759623D01*
X123371827Y-110780542D01*
X123305952Y-110822931D01*
X123051416Y-110822931D01*
X123024255Y-110780721D01*
X122970506Y-110743996D01*
X123018279Y-110713255D01*
X123060085Y-110652069D01*
X123292146Y-110652069D01*
X123380997Y-110712778D01*
X123500000Y-110736877D01*
X124100000Y-110736877D01*
X124211173Y-110715958D01*
X124313279Y-110650255D01*
X124350004Y-110596506D01*
X124380745Y-110644279D01*
X124480997Y-110712778D01*
X124600000Y-110736877D01*
X125200000Y-110736877D01*
X125311173Y-110715958D01*
X125413279Y-110650255D01*
X125481778Y-110550003D01*
X125505877Y-110431000D01*
X125505877Y-110236000D01*
X138384000Y-110236000D01*
X138384000Y-111887000D01*
X138404517Y-111996037D01*
X138468958Y-112096181D01*
X138567283Y-112163364D01*
X138684000Y-112187000D01*
X142621000Y-112187000D01*
X142730037Y-112166483D01*
X142830181Y-112102042D01*
X142897364Y-112003717D01*
X142921000Y-111887000D01*
X142921000Y-110236000D01*
X142900483Y-110126963D01*
X142836042Y-110026819D01*
X142737717Y-109959636D01*
X142621000Y-109936000D01*
X142248377Y-109936000D01*
X142248377Y-109811500D01*
X142227458Y-109700327D01*
X142161755Y-109598221D01*
X142061503Y-109529722D01*
X141942500Y-109505623D01*
X141542500Y-109505623D01*
X141431327Y-109526542D01*
X141380096Y-109559508D01*
X141336503Y-109529722D01*
X141217500Y-109505623D01*
X140817500Y-109505623D01*
X140706327Y-109526542D01*
X140655096Y-109559508D01*
X140611503Y-109529722D01*
X140492500Y-109505623D01*
X140092500Y-109505623D01*
X139981327Y-109526542D01*
X139930096Y-109559508D01*
X139886503Y-109529722D01*
X139767500Y-109505623D01*
X139367500Y-109505623D01*
X139256327Y-109526542D01*
X139154221Y-109592245D01*
X139085722Y-109692497D01*
X139061623Y-109811500D01*
X139061623Y-109936000D01*
X138684000Y-109936000D01*
X138574963Y-109956517D01*
X138474819Y-110020958D01*
X138407636Y-110119283D01*
X138384000Y-110236000D01*
X125505877Y-110236000D01*
X125505877Y-109931000D01*
X125484958Y-109819827D01*
X125419255Y-109717721D01*
X125319003Y-109649222D01*
X125200000Y-109625123D01*
X124966377Y-109625123D01*
X124530000Y-109188746D01*
X124530000Y-108938000D01*
X124496507Y-108769619D01*
X124401127Y-108626873D01*
X124258381Y-108531493D01*
X124090000Y-108498000D01*
X123921619Y-108531493D01*
X123905224Y-108542448D01*
X123926000Y-108438000D01*
X123892507Y-108269619D01*
X123837971Y-108188000D01*
X123892507Y-108106381D01*
X123926000Y-107938000D01*
X123892507Y-107769619D01*
X123837971Y-107688000D01*
X123892507Y-107606381D01*
X123926000Y-107438000D01*
X123892507Y-107269619D01*
X123797127Y-107126873D01*
X123654381Y-107031493D01*
X123486000Y-106998000D01*
X123200449Y-106998000D01*
X123235908Y-106912606D01*
X123236060Y-106738954D01*
X123596385Y-106738954D01*
X123597045Y-106739979D01*
X123697297Y-106808478D01*
X123816300Y-106832577D01*
X124316300Y-106832577D01*
X124427473Y-106811658D01*
X124529579Y-106745955D01*
X124549642Y-106716592D01*
X124564183Y-106731159D01*
X124784629Y-106822696D01*
X125023324Y-106822904D01*
X125243929Y-106731752D01*
X125412859Y-106563117D01*
X125504396Y-106342671D01*
X125504604Y-106103976D01*
X125436258Y-105938566D01*
X125580684Y-105938692D01*
X125775037Y-105858387D01*
X125847350Y-105786200D01*
X126019341Y-105786200D01*
X126109334Y-106004000D01*
X126404446Y-106299628D01*
X126720810Y-106430994D01*
X126733986Y-106450714D01*
X126890497Y-106607225D01*
X126890408Y-106708484D01*
X126970713Y-106902837D01*
X127119281Y-107051664D01*
X127313494Y-107132308D01*
X127523784Y-107132492D01*
X127639800Y-107084555D01*
X127639800Y-107187995D01*
X127639799Y-107188000D01*
X127657644Y-107277706D01*
X127668437Y-107331966D01*
X127723648Y-107414596D01*
X127749986Y-107454014D01*
X127967989Y-107672017D01*
X127850000Y-107648123D01*
X127250000Y-107648123D01*
X127138827Y-107669042D01*
X127036721Y-107734745D01*
X126999996Y-107788494D01*
X126969255Y-107740721D01*
X126869003Y-107672222D01*
X126750000Y-107648123D01*
X126150000Y-107648123D01*
X126038827Y-107669042D01*
X125938466Y-107733622D01*
X124993912Y-107733622D01*
X124910000Y-107716931D01*
X124729729Y-107752789D01*
X124576904Y-107854904D01*
X124474789Y-108007729D01*
X124438931Y-108188000D01*
X124474789Y-108368271D01*
X124576904Y-108521096D01*
X124592904Y-108537096D01*
X124745729Y-108639210D01*
X124926000Y-108675069D01*
X124929474Y-108674378D01*
X125941135Y-108674378D01*
X126030997Y-108735778D01*
X126150000Y-108759877D01*
X126750000Y-108759877D01*
X126861173Y-108738958D01*
X126963279Y-108673255D01*
X127000004Y-108619506D01*
X127030745Y-108667279D01*
X127130997Y-108735778D01*
X127250000Y-108759877D01*
X127850000Y-108759877D01*
X127961173Y-108738958D01*
X128031475Y-108693720D01*
X132002523Y-108693720D01*
X132002523Y-108993720D01*
X132023442Y-109104893D01*
X132089145Y-109206999D01*
X132189397Y-109275498D01*
X132308400Y-109299597D01*
X132507024Y-109299597D01*
X132583400Y-109314789D01*
X132587477Y-109313978D01*
X133180135Y-109313978D01*
X133269997Y-109375378D01*
X133389000Y-109399477D01*
X133989000Y-109399477D01*
X134100173Y-109378558D01*
X134202279Y-109312855D01*
X134239004Y-109259106D01*
X134269745Y-109306879D01*
X134369997Y-109375378D01*
X134489000Y-109399477D01*
X135089000Y-109399477D01*
X135200173Y-109378558D01*
X135302279Y-109312855D01*
X135370778Y-109212603D01*
X135394877Y-109093600D01*
X135394877Y-109056878D01*
X138094812Y-109056878D01*
X138111497Y-109068278D01*
X138230500Y-109092377D01*
X139030500Y-109092377D01*
X139141673Y-109071458D01*
X139243779Y-109005755D01*
X139312278Y-108905503D01*
X139336377Y-108786500D01*
X139336377Y-108386500D01*
X139315458Y-108275327D01*
X139249755Y-108173221D01*
X139149503Y-108104722D01*
X139030500Y-108080623D01*
X138230500Y-108080623D01*
X138119327Y-108101542D01*
X138096669Y-108116122D01*
X135046100Y-108116122D01*
X134887481Y-108147673D01*
X134866094Y-108151927D01*
X134713492Y-108253893D01*
X134679662Y-108287723D01*
X134489000Y-108287723D01*
X134377827Y-108308642D01*
X134275721Y-108374345D01*
X134238996Y-108428094D01*
X134208255Y-108380321D01*
X134108003Y-108311822D01*
X133989000Y-108287723D01*
X133389000Y-108287723D01*
X133277827Y-108308642D01*
X133177466Y-108373222D01*
X132586994Y-108373222D01*
X132583520Y-108372531D01*
X132506542Y-108387843D01*
X132308400Y-108387843D01*
X132197227Y-108408762D01*
X132095121Y-108474465D01*
X132026622Y-108574717D01*
X132002523Y-108693720D01*
X128031475Y-108693720D01*
X128063279Y-108673255D01*
X128069536Y-108664098D01*
X128829926Y-108664098D01*
X128833400Y-108664789D01*
X128909775Y-108649597D01*
X129108400Y-108649597D01*
X129219573Y-108628678D01*
X129321679Y-108562975D01*
X129390178Y-108462723D01*
X129414277Y-108343720D01*
X129414277Y-108043720D01*
X129393358Y-107932547D01*
X129352107Y-107868441D01*
X129390178Y-107812723D01*
X129414277Y-107693720D01*
X129414277Y-107393720D01*
X129393358Y-107282547D01*
X129352107Y-107218441D01*
X129390178Y-107162723D01*
X129414277Y-107043720D01*
X129414277Y-106743720D01*
X132002523Y-106743720D01*
X132002523Y-107043720D01*
X132023442Y-107154893D01*
X132089145Y-107256999D01*
X132189397Y-107325498D01*
X132308400Y-107349597D01*
X132510498Y-107349597D01*
X132583400Y-107364098D01*
X133181540Y-107364098D01*
X133269997Y-107424538D01*
X133389000Y-107448637D01*
X133989000Y-107448637D01*
X134100173Y-107427718D01*
X134202279Y-107362015D01*
X134239004Y-107308266D01*
X134269745Y-107356039D01*
X134369997Y-107424538D01*
X134489000Y-107448637D01*
X134694327Y-107448637D01*
X134802734Y-107521073D01*
X134982740Y-107556878D01*
X138094812Y-107556878D01*
X138111497Y-107568278D01*
X138230500Y-107592377D01*
X139030500Y-107592377D01*
X139141673Y-107571458D01*
X139243779Y-107505755D01*
X139312278Y-107405503D01*
X139336377Y-107286500D01*
X139336377Y-106886500D01*
X143424623Y-106886500D01*
X143424623Y-107286500D01*
X143445542Y-107397673D01*
X143486793Y-107461779D01*
X143448722Y-107517497D01*
X143424623Y-107636500D01*
X143424623Y-108036500D01*
X143445542Y-108147673D01*
X143486793Y-108211779D01*
X143448722Y-108267497D01*
X143424623Y-108386500D01*
X143424623Y-108786500D01*
X143445542Y-108897673D01*
X143486793Y-108961779D01*
X143448722Y-109017497D01*
X143424623Y-109136500D01*
X143424623Y-109536500D01*
X143445542Y-109647673D01*
X143511245Y-109749779D01*
X143611497Y-109818278D01*
X143730500Y-109842377D01*
X144530500Y-109842377D01*
X144641673Y-109821458D01*
X144743779Y-109755755D01*
X144773197Y-109712700D01*
X144779160Y-109712700D01*
X144861181Y-109794864D01*
X145055394Y-109875508D01*
X145265684Y-109875692D01*
X145460037Y-109795387D01*
X145608864Y-109646819D01*
X145670164Y-109499191D01*
X145673800Y-109502827D01*
X145673800Y-112658642D01*
X145602136Y-112730181D01*
X145521492Y-112924394D01*
X145521308Y-113134684D01*
X145601613Y-113329037D01*
X145750181Y-113477864D01*
X145944394Y-113558508D01*
X146154684Y-113558692D01*
X146349037Y-113478387D01*
X146497864Y-113329819D01*
X146578508Y-113135606D01*
X146578582Y-113050618D01*
X146662684Y-113050692D01*
X146857037Y-112970387D01*
X147005864Y-112821819D01*
X147086508Y-112627606D01*
X147086692Y-112417316D01*
X147085990Y-112415618D01*
X147170684Y-112415692D01*
X147365037Y-112335387D01*
X147513864Y-112186819D01*
X147594508Y-111992606D01*
X147594692Y-111782316D01*
X147514387Y-111587963D01*
X147442200Y-111515650D01*
X147442200Y-109093005D01*
X147442201Y-109093000D01*
X147413564Y-108949035D01*
X147332014Y-108826986D01*
X145871514Y-107366486D01*
X145849148Y-107351542D01*
X145755410Y-107288909D01*
X145651319Y-107184636D01*
X145457106Y-107103992D01*
X145354930Y-107103903D01*
X145071514Y-106820486D01*
X145055814Y-106809996D01*
X144949466Y-106738937D01*
X144925579Y-106734186D01*
X144805500Y-106710299D01*
X144805495Y-106710300D01*
X144773615Y-106710300D01*
X144749755Y-106673221D01*
X144649503Y-106604722D01*
X144530500Y-106580623D01*
X143730500Y-106580623D01*
X143619327Y-106601542D01*
X143517221Y-106667245D01*
X143448722Y-106767497D01*
X143424623Y-106886500D01*
X139336377Y-106886500D01*
X139315458Y-106775327D01*
X139274207Y-106711221D01*
X139312278Y-106655503D01*
X139336377Y-106536500D01*
X139336377Y-106136500D01*
X139315458Y-106025327D01*
X139274207Y-105961221D01*
X139312278Y-105905503D01*
X139336377Y-105786500D01*
X139336377Y-105411074D01*
X139367500Y-105417377D01*
X139767500Y-105417377D01*
X139878673Y-105396458D01*
X139929904Y-105363492D01*
X139973497Y-105393278D01*
X140092500Y-105417377D01*
X140492500Y-105417377D01*
X140603673Y-105396458D01*
X140705779Y-105330755D01*
X140774278Y-105230503D01*
X140798377Y-105111500D01*
X140798377Y-104317415D01*
X140860323Y-104255469D01*
X141943277Y-104255469D01*
X141967969Y-104280161D01*
X141961623Y-104311500D01*
X141961623Y-105111500D01*
X141982542Y-105222673D01*
X142048245Y-105324779D01*
X142148497Y-105393278D01*
X142267500Y-105417377D01*
X142667500Y-105417377D01*
X142778673Y-105396458D01*
X142880779Y-105330755D01*
X142949278Y-105230503D01*
X142973377Y-105111500D01*
X142973377Y-104311500D01*
X142952458Y-104200327D01*
X142938569Y-104178743D01*
X142938569Y-104113500D01*
X142902711Y-103933230D01*
X142800596Y-103780404D01*
X142471496Y-103451304D01*
X142318671Y-103349189D01*
X142138400Y-103313331D01*
X140665200Y-103313331D01*
X140484929Y-103349189D01*
X140332104Y-103451304D01*
X139998429Y-103784979D01*
X140076108Y-103597906D01*
X140076292Y-103387616D01*
X139995987Y-103193263D01*
X139847419Y-103044436D01*
X139653206Y-102963792D01*
X139442916Y-102963608D01*
X139248563Y-103043913D01*
X139099736Y-103192481D01*
X139019092Y-103386694D01*
X139018908Y-103596984D01*
X139099213Y-103791337D01*
X139191300Y-103883585D01*
X139191300Y-104068385D01*
X139154221Y-104092245D01*
X139085722Y-104192497D01*
X139061623Y-104311500D01*
X139061623Y-105086926D01*
X139030500Y-105080623D01*
X138230500Y-105080623D01*
X138119327Y-105101542D01*
X138074632Y-105130302D01*
X138049952Y-105070571D01*
X137881317Y-104901641D01*
X137660871Y-104810104D01*
X137422176Y-104809896D01*
X137201571Y-104901048D01*
X137032641Y-105069683D01*
X136941104Y-105290129D01*
X136940896Y-105528824D01*
X137032048Y-105749429D01*
X137075646Y-105793103D01*
X137075646Y-105801497D01*
X137007241Y-105869783D01*
X136915704Y-106090229D01*
X136915496Y-106328924D01*
X137006648Y-106549529D01*
X137073125Y-106616122D01*
X135389865Y-106616122D01*
X135373958Y-106531587D01*
X135308255Y-106429481D01*
X135208003Y-106360982D01*
X135089000Y-106336883D01*
X134489000Y-106336883D01*
X134377827Y-106357802D01*
X134275721Y-106423505D01*
X134238996Y-106477254D01*
X134208255Y-106429481D01*
X134108003Y-106360982D01*
X133989000Y-106336883D01*
X133389000Y-106336883D01*
X133277827Y-106357802D01*
X133175974Y-106423342D01*
X132583400Y-106423342D01*
X132510498Y-106437843D01*
X132308400Y-106437843D01*
X132197227Y-106458762D01*
X132095121Y-106524465D01*
X132026622Y-106624717D01*
X132002523Y-106743720D01*
X129414277Y-106743720D01*
X129393358Y-106632547D01*
X129327655Y-106530441D01*
X129273354Y-106493339D01*
X129273354Y-106271299D01*
X129286359Y-106258317D01*
X129377896Y-106037871D01*
X129378104Y-105799176D01*
X129302954Y-105617299D01*
X129302954Y-105545438D01*
X129376279Y-105498255D01*
X129444778Y-105398003D01*
X129468877Y-105279000D01*
X129468877Y-104779000D01*
X129447958Y-104667827D01*
X129382255Y-104565721D01*
X129282003Y-104497222D01*
X129163000Y-104473123D01*
X128563000Y-104473123D01*
X128451827Y-104494042D01*
X128349721Y-104559745D01*
X128281222Y-104659997D01*
X128257123Y-104779000D01*
X128257123Y-105279000D01*
X128278042Y-105390173D01*
X128343745Y-105492279D01*
X128350542Y-105496923D01*
X128269641Y-105577683D01*
X128178104Y-105798129D01*
X128177896Y-106036824D01*
X128191305Y-106069277D01*
X127959445Y-105837417D01*
X128049818Y-105619774D01*
X128050182Y-105202058D01*
X127890666Y-104816000D01*
X127595554Y-104520372D01*
X127209774Y-104360182D01*
X126792058Y-104359818D01*
X126406000Y-104519334D01*
X126110372Y-104814446D01*
X126019288Y-105033800D01*
X125847358Y-105033800D01*
X125775819Y-104962136D01*
X125581606Y-104881492D01*
X125371316Y-104881308D01*
X125176963Y-104961613D01*
X125028136Y-105110181D01*
X124947492Y-105304394D01*
X124947308Y-105514684D01*
X124992012Y-105622876D01*
X124785676Y-105622696D01*
X124565071Y-105713848D01*
X124547267Y-105731621D01*
X124535555Y-105713421D01*
X124435303Y-105644922D01*
X124316300Y-105620823D01*
X123816300Y-105620823D01*
X123705127Y-105641742D01*
X123603021Y-105707445D01*
X123534522Y-105807697D01*
X123524123Y-105859046D01*
X123491877Y-105859046D01*
X123491877Y-105406000D01*
X123470958Y-105294827D01*
X123405255Y-105192721D01*
X123351506Y-105155996D01*
X123399279Y-105125255D01*
X123467778Y-105025003D01*
X123491877Y-104906000D01*
X123491877Y-104306000D01*
X123470958Y-104194827D01*
X123405255Y-104092721D01*
X123305003Y-104024222D01*
X123186000Y-104000123D01*
X123028216Y-104000123D01*
X123148429Y-103950452D01*
X123317359Y-103781817D01*
X123408896Y-103561371D01*
X123409104Y-103322676D01*
X123317952Y-103102071D01*
X123149317Y-102933141D01*
X122928871Y-102841604D01*
X122690176Y-102841396D01*
X122469571Y-102932548D01*
X122300641Y-103101183D01*
X122209104Y-103321629D01*
X122209019Y-103419292D01*
X121979344Y-103648967D01*
X121908003Y-103600222D01*
X121789000Y-103576123D01*
X121305649Y-103576123D01*
X121305692Y-103527316D01*
X121225387Y-103332963D01*
X121076819Y-103184136D01*
X121060199Y-103177235D01*
X121078877Y-103085000D01*
X121078877Y-102485000D01*
X121057958Y-102373827D01*
X120992255Y-102271721D01*
X120892003Y-102203222D01*
X120773000Y-102179123D01*
X120273000Y-102179123D01*
X120161827Y-102200042D01*
X120059721Y-102265745D01*
X119991222Y-102365997D01*
X119983842Y-102402440D01*
X119978458Y-102373827D01*
X119912755Y-102271721D01*
X119812503Y-102203222D01*
X119693500Y-102179123D01*
X119193500Y-102179123D01*
X119082327Y-102200042D01*
X118980221Y-102265745D01*
X118911722Y-102365997D01*
X118911577Y-102366712D01*
X118852137Y-102378536D01*
X118729489Y-102460486D01*
X118626176Y-102460396D01*
X118613744Y-102465533D01*
X118614082Y-102077858D01*
X118533377Y-101882537D01*
X118609824Y-101882604D01*
X118830429Y-101791452D01*
X118999359Y-101622817D01*
X119061568Y-101473000D01*
X125957523Y-101473000D01*
X125957523Y-103505000D01*
X125978442Y-103616173D01*
X126044145Y-103718279D01*
X126144397Y-103786778D01*
X126263400Y-103810877D01*
X127990600Y-103810877D01*
X128101773Y-103789958D01*
X128203879Y-103724255D01*
X128272378Y-103624003D01*
X128296477Y-103505000D01*
X128296477Y-102310818D01*
X128503400Y-102310818D01*
X128503400Y-102667182D01*
X128591974Y-103112472D01*
X128844211Y-103489971D01*
X129221710Y-103742208D01*
X129667000Y-103830782D01*
X130112290Y-103742208D01*
X130489789Y-103489971D01*
X130742026Y-103112472D01*
X130830600Y-102667182D01*
X130830600Y-102310818D01*
X131043400Y-102310818D01*
X131043400Y-102667182D01*
X131131974Y-103112472D01*
X131384211Y-103489971D01*
X131761710Y-103742208D01*
X132207000Y-103830782D01*
X132652290Y-103742208D01*
X133029789Y-103489971D01*
X133282026Y-103112472D01*
X133370600Y-102667182D01*
X133370600Y-102310818D01*
X133282026Y-101865528D01*
X133029789Y-101488029D01*
X133027700Y-101486633D01*
X133027700Y-101239477D01*
X133088900Y-101239477D01*
X133200073Y-101218558D01*
X133302179Y-101152855D01*
X133370678Y-101052603D01*
X133394777Y-100933600D01*
X133394777Y-100183600D01*
X133373858Y-100072427D01*
X133308155Y-99970321D01*
X133207903Y-99901822D01*
X133088900Y-99877723D01*
X133027700Y-99877723D01*
X133027700Y-98577400D01*
X133007183Y-98468363D01*
X132942742Y-98368219D01*
X132923477Y-98355056D01*
X132923477Y-98177100D01*
X132902558Y-98065927D01*
X132836855Y-97963821D01*
X132736603Y-97895322D01*
X132617600Y-97871223D01*
X131867600Y-97871223D01*
X131756427Y-97892142D01*
X131654321Y-97957845D01*
X131585822Y-98058097D01*
X131561723Y-98177100D01*
X131561723Y-98348930D01*
X131539809Y-98363149D01*
X131472997Y-98461727D01*
X131449802Y-98578532D01*
X131460589Y-101436995D01*
X131384211Y-101488029D01*
X131131974Y-101865528D01*
X131043400Y-102310818D01*
X130830600Y-102310818D01*
X130742026Y-101865528D01*
X130489789Y-101488029D01*
X130112290Y-101235792D01*
X129667000Y-101147218D01*
X129221710Y-101235792D01*
X128844211Y-101488029D01*
X128591974Y-101865528D01*
X128503400Y-102310818D01*
X128296477Y-102310818D01*
X128296477Y-101473000D01*
X128275558Y-101361827D01*
X128209855Y-101259721D01*
X128109603Y-101191222D01*
X127990600Y-101167123D01*
X126263400Y-101167123D01*
X126152227Y-101188042D01*
X126050121Y-101253745D01*
X125981622Y-101353997D01*
X125957523Y-101473000D01*
X119061568Y-101473000D01*
X119090896Y-101402371D01*
X119091104Y-101163676D01*
X118999952Y-100943071D01*
X118831317Y-100774141D01*
X118610871Y-100682604D01*
X118372176Y-100682396D01*
X118291073Y-100715907D01*
X118292877Y-100707000D01*
X118292877Y-100207000D01*
X118271958Y-100095827D01*
X118206255Y-99993721D01*
X118106003Y-99925222D01*
X117987000Y-99901123D01*
X117387000Y-99901123D01*
X117275827Y-99922042D01*
X117203075Y-99968856D01*
X117086871Y-99920604D01*
X116848176Y-99920396D01*
X116725577Y-99971053D01*
X116723755Y-99968221D01*
X116623503Y-99899722D01*
X116504500Y-99875623D01*
X115654500Y-99875623D01*
X115543327Y-99896542D01*
X115441221Y-99962245D01*
X115378746Y-100053680D01*
X115323755Y-99968221D01*
X115223503Y-99899722D01*
X115104500Y-99875623D01*
X114254500Y-99875623D01*
X114143327Y-99896542D01*
X114041221Y-99962245D01*
X113972722Y-100062497D01*
X113948623Y-100181500D01*
X113948623Y-100811500D01*
X113969542Y-100922673D01*
X114035245Y-101024779D01*
X114135497Y-101093278D01*
X114254500Y-101117377D01*
X115104500Y-101117377D01*
X115215673Y-101096458D01*
X115317779Y-101030755D01*
X115380254Y-100939320D01*
X115435245Y-101024779D01*
X115535497Y-101093278D01*
X115654500Y-101117377D01*
X116504500Y-101117377D01*
X116615673Y-101096458D01*
X116683841Y-101052593D01*
X116847129Y-101120396D01*
X117085824Y-101120604D01*
X117306429Y-101029452D01*
X117333821Y-101002108D01*
X117387000Y-101012877D01*
X117953286Y-101012877D01*
X117891104Y-101162629D01*
X117890998Y-101284699D01*
X117773674Y-101235982D01*
X117355958Y-101235618D01*
X116969900Y-101395134D01*
X116674272Y-101690246D01*
X116559457Y-101966752D01*
X116504500Y-101955623D01*
X115654500Y-101955623D01*
X115543327Y-101976542D01*
X115441221Y-102042245D01*
X115372722Y-102142497D01*
X115348623Y-102261500D01*
X115348623Y-102891500D01*
X115369542Y-103002673D01*
X115435245Y-103104779D01*
X115535497Y-103173278D01*
X115535620Y-103173303D01*
X115517722Y-103199497D01*
X115493623Y-103318500D01*
X115493623Y-103818500D01*
X115514542Y-103929673D01*
X115580245Y-104031779D01*
X115680497Y-104100278D01*
X115799500Y-104124377D01*
X116399500Y-104124377D01*
X116510673Y-104103458D01*
X116612779Y-104037755D01*
X116649504Y-103984006D01*
X116680245Y-104031779D01*
X116780497Y-104100278D01*
X116899500Y-104124377D01*
X116926000Y-104124377D01*
X116926000Y-104266509D01*
X116705871Y-104175104D01*
X116467176Y-104174896D01*
X116246571Y-104266048D01*
X116224157Y-104288423D01*
X116158003Y-104243222D01*
X116039000Y-104219123D01*
X115439000Y-104219123D01*
X115327827Y-104240042D01*
X115225721Y-104305745D01*
X115157222Y-104405997D01*
X115133123Y-104525000D01*
X115133123Y-105025000D01*
X115154042Y-105136173D01*
X115169889Y-105160800D01*
X114671358Y-105160800D01*
X114599819Y-105089136D01*
X114405606Y-105008492D01*
X114195316Y-105008308D01*
X114000963Y-105088613D01*
X113852136Y-105237181D01*
X113771492Y-105431394D01*
X113771308Y-105641684D01*
X113851613Y-105836037D01*
X114000181Y-105984864D01*
X114194394Y-106065508D01*
X114404684Y-106065692D01*
X114599037Y-105985387D01*
X114671350Y-105913200D01*
X114671369Y-105913200D01*
X114660492Y-105939394D01*
X114660308Y-106149684D01*
X114671512Y-106176800D01*
X113693827Y-106176800D01*
X112297020Y-104779993D01*
X112327026Y-104735086D01*
X112415600Y-104289796D01*
X112415600Y-104244204D01*
X112327026Y-103798914D01*
X112074789Y-103421415D01*
X111697290Y-103169178D01*
X111252000Y-103080604D01*
X110806710Y-103169178D01*
X110429211Y-103421415D01*
X110176974Y-103798914D01*
X110088400Y-104244204D01*
X110088400Y-104289796D01*
X110176974Y-104735086D01*
X110429211Y-105112585D01*
X110806710Y-105364822D01*
X111252000Y-105453396D01*
X111697290Y-105364822D01*
X111769527Y-105316555D01*
X113271984Y-106819011D01*
X113271986Y-106819014D01*
X113394034Y-106900563D01*
X113538000Y-106929200D01*
X114150392Y-106929200D01*
X114082721Y-106972745D01*
X114014222Y-107072997D01*
X113990123Y-107192000D01*
X113990123Y-107692000D01*
X114011042Y-107803173D01*
X114076745Y-107905279D01*
X114176997Y-107973778D01*
X114296000Y-107997877D01*
X114896000Y-107997877D01*
X114961335Y-107985583D01*
X114914492Y-108098394D01*
X114914308Y-108308684D01*
X114925512Y-108335800D01*
X112931827Y-108335800D01*
X112407014Y-107810986D01*
X112377520Y-107791279D01*
X112284966Y-107729437D01*
X112250851Y-107722651D01*
X112141000Y-107700799D01*
X112140995Y-107700800D01*
X112002630Y-107700800D01*
X112074789Y-107652585D01*
X112327026Y-107275086D01*
X112415600Y-106829796D01*
X112415600Y-106784204D01*
X112327026Y-106338914D01*
X112074789Y-105961415D01*
X111697290Y-105709178D01*
X111252000Y-105620604D01*
X110806710Y-105709178D01*
X110429211Y-105961415D01*
X110176974Y-106338914D01*
X110088400Y-106784204D01*
X110088400Y-106829796D01*
X110176974Y-107275086D01*
X110429211Y-107652585D01*
X110501370Y-107700800D01*
X109982000Y-107700800D01*
X109838034Y-107729437D01*
X109715986Y-107810986D01*
X109715984Y-107810989D01*
X109229527Y-108297445D01*
X109157290Y-108249178D01*
X108712000Y-108160604D01*
X108266710Y-108249178D01*
X107889211Y-108501415D01*
X107818200Y-108607690D01*
X107818200Y-107546310D01*
X107889211Y-107652585D01*
X108266710Y-107904822D01*
X108712000Y-107993396D01*
X109157290Y-107904822D01*
X109534789Y-107652585D01*
X109787026Y-107275086D01*
X109875600Y-106829796D01*
X109875600Y-106784204D01*
X109787026Y-106338914D01*
X109534789Y-105961415D01*
X109157290Y-105709178D01*
X108712000Y-105620604D01*
X108266710Y-105709178D01*
X107889211Y-105961415D01*
X107818200Y-106067690D01*
X107818200Y-105692828D01*
X108194473Y-105316555D01*
X108266710Y-105364822D01*
X108712000Y-105453396D01*
X109157290Y-105364822D01*
X109534789Y-105112585D01*
X109787026Y-104735086D01*
X109875600Y-104289796D01*
X109875600Y-104244204D01*
X109787026Y-103798914D01*
X109534789Y-103421415D01*
X109157290Y-103169178D01*
X108712000Y-103080604D01*
X108266710Y-103169178D01*
X107889211Y-103421415D01*
X107636974Y-103798914D01*
X107548400Y-104244204D01*
X107548400Y-104289796D01*
X107636974Y-104735086D01*
X107666980Y-104779993D01*
X107182000Y-105264972D01*
X107182000Y-101704204D01*
X107548400Y-101704204D01*
X107548400Y-101749796D01*
X107636974Y-102195086D01*
X107889211Y-102572585D01*
X108266710Y-102824822D01*
X108712000Y-102913396D01*
X109157290Y-102824822D01*
X109534789Y-102572585D01*
X109787026Y-102195086D01*
X109875600Y-101749796D01*
X109875600Y-101704204D01*
X109787026Y-101258914D01*
X109534789Y-100881415D01*
X109157290Y-100629178D01*
X108712000Y-100540604D01*
X108266710Y-100629178D01*
X107889211Y-100881415D01*
X107636974Y-101258914D01*
X107548400Y-101704204D01*
X107182000Y-101704204D01*
X107182000Y-97117000D01*
X107730123Y-97117000D01*
X107730123Y-98717000D01*
X107751042Y-98828173D01*
X107816745Y-98930279D01*
X107916997Y-98998778D01*
X108036000Y-99022877D01*
X109536000Y-99022877D01*
X109647173Y-99001958D01*
X109749279Y-98936255D01*
X109817778Y-98836003D01*
X109841877Y-98717000D01*
X109841877Y-98371459D01*
X109895683Y-98425359D01*
X110116129Y-98516896D01*
X110354824Y-98517104D01*
X110575429Y-98425952D01*
X110684571Y-98317000D01*
X111130123Y-98317000D01*
X111130123Y-99517000D01*
X111151042Y-99628173D01*
X111216745Y-99730279D01*
X111316997Y-99798778D01*
X111436000Y-99822877D01*
X112636000Y-99822877D01*
X112747173Y-99801958D01*
X112849279Y-99736255D01*
X112917778Y-99636003D01*
X112941877Y-99517000D01*
X112941877Y-98317000D01*
X112920958Y-98205827D01*
X112855255Y-98103721D01*
X112755003Y-98035222D01*
X112636000Y-98011123D01*
X111436000Y-98011123D01*
X111324827Y-98032042D01*
X111222721Y-98097745D01*
X111154222Y-98197997D01*
X111130123Y-98317000D01*
X110684571Y-98317000D01*
X110744359Y-98257317D01*
X110835896Y-98036871D01*
X110836104Y-97798176D01*
X110744952Y-97577571D01*
X110576317Y-97408641D01*
X110355871Y-97317104D01*
X110117176Y-97316896D01*
X109896571Y-97408048D01*
X109841877Y-97462646D01*
X109841877Y-97117000D01*
X109820958Y-97005827D01*
X109755255Y-96903721D01*
X109655003Y-96835222D01*
X109536000Y-96811123D01*
X108036000Y-96811123D01*
X107924827Y-96832042D01*
X107822721Y-96897745D01*
X107754222Y-96997997D01*
X107730123Y-97117000D01*
X107182000Y-97117000D01*
X107182000Y-95076942D01*
X110836818Y-95076942D01*
X110996334Y-95463000D01*
X111291446Y-95758628D01*
X111510800Y-95849712D01*
X111510800Y-96011123D01*
X111436000Y-96011123D01*
X111324827Y-96032042D01*
X111222721Y-96097745D01*
X111154222Y-96197997D01*
X111130123Y-96317000D01*
X111130123Y-97517000D01*
X111151042Y-97628173D01*
X111216745Y-97730279D01*
X111316997Y-97798778D01*
X111436000Y-97822877D01*
X112636000Y-97822877D01*
X112747173Y-97801958D01*
X112849279Y-97736255D01*
X112917778Y-97636003D01*
X112941877Y-97517000D01*
X112941877Y-97306486D01*
X112984181Y-97348864D01*
X113178394Y-97429508D01*
X113388684Y-97429692D01*
X113583037Y-97349387D01*
X113731864Y-97200819D01*
X113750889Y-97155000D01*
X115670523Y-97155000D01*
X115670523Y-99187000D01*
X115691442Y-99298173D01*
X115757145Y-99400279D01*
X115857397Y-99468778D01*
X115976400Y-99492877D01*
X117703600Y-99492877D01*
X117814773Y-99471958D01*
X117916879Y-99406255D01*
X117985378Y-99306003D01*
X118009477Y-99187000D01*
X118009477Y-97992818D01*
X118216400Y-97992818D01*
X118216400Y-98349182D01*
X118304974Y-98794472D01*
X118557211Y-99171971D01*
X118934710Y-99424208D01*
X119380000Y-99512782D01*
X119825290Y-99424208D01*
X119838412Y-99415440D01*
X120510984Y-100088011D01*
X120510986Y-100088014D01*
X120633034Y-100169563D01*
X120777000Y-100198200D01*
X126882642Y-100198200D01*
X126954181Y-100269864D01*
X127148394Y-100350508D01*
X127358684Y-100350692D01*
X127553037Y-100270387D01*
X127701864Y-100121819D01*
X127782508Y-99927606D01*
X127782692Y-99717316D01*
X127702387Y-99522963D01*
X127553819Y-99374136D01*
X127359606Y-99293492D01*
X127149316Y-99293308D01*
X126954963Y-99373613D01*
X126882650Y-99445800D01*
X122256740Y-99445800D01*
X122365290Y-99424208D01*
X122742789Y-99171971D01*
X122995026Y-98794472D01*
X123083600Y-98349182D01*
X123083600Y-98251942D01*
X126457818Y-98251942D01*
X126617334Y-98638000D01*
X126912446Y-98933628D01*
X127298226Y-99093818D01*
X127715942Y-99094182D01*
X128102000Y-98934666D01*
X128397628Y-98639554D01*
X128462239Y-98483954D01*
X128496397Y-98483954D01*
X128564683Y-98552359D01*
X128785129Y-98643896D01*
X129023824Y-98644104D01*
X129244429Y-98552952D01*
X129413359Y-98384317D01*
X129499402Y-98177100D01*
X129661723Y-98177100D01*
X129661723Y-99417100D01*
X129682642Y-99528273D01*
X129748345Y-99630379D01*
X129770997Y-99645856D01*
X129752904Y-99689429D01*
X129752696Y-99928124D01*
X129843848Y-100148729D01*
X130012483Y-100317659D01*
X130232929Y-100409196D01*
X130471624Y-100409404D01*
X130692229Y-100318252D01*
X130861159Y-100149617D01*
X130952696Y-99929171D01*
X130952904Y-99690476D01*
X130930613Y-99636526D01*
X130930879Y-99636355D01*
X130999378Y-99536103D01*
X131023477Y-99417100D01*
X131023477Y-98177100D01*
X131002558Y-98065927D01*
X130936855Y-97963821D01*
X130836603Y-97895322D01*
X130717600Y-97871223D01*
X129967600Y-97871223D01*
X129856427Y-97892142D01*
X129754321Y-97957845D01*
X129685822Y-98058097D01*
X129661723Y-98177100D01*
X129499402Y-98177100D01*
X129504896Y-98163871D01*
X129505104Y-97925176D01*
X129413952Y-97704571D01*
X129245317Y-97535641D01*
X129024871Y-97444104D01*
X128786176Y-97443896D01*
X128565571Y-97535048D01*
X128496452Y-97604046D01*
X128462317Y-97604046D01*
X128398666Y-97450000D01*
X128103554Y-97154372D01*
X127717774Y-96994182D01*
X127300058Y-96993818D01*
X126914000Y-97153334D01*
X126618372Y-97448446D01*
X126458182Y-97834226D01*
X126457818Y-98251942D01*
X123083600Y-98251942D01*
X123083600Y-97992818D01*
X122995026Y-97547528D01*
X122742789Y-97170029D01*
X122365290Y-96917792D01*
X121920000Y-96829218D01*
X121474710Y-96917792D01*
X121097211Y-97170029D01*
X120844974Y-97547528D01*
X120756400Y-97992818D01*
X120756400Y-98349182D01*
X120844974Y-98794472D01*
X121097211Y-99171971D01*
X121474710Y-99424208D01*
X121583260Y-99445800D01*
X120932827Y-99445800D01*
X120385521Y-98898494D01*
X120455026Y-98794472D01*
X120543600Y-98349182D01*
X120543600Y-97992818D01*
X120455026Y-97547528D01*
X120202789Y-97170029D01*
X119825290Y-96917792D01*
X119380000Y-96829218D01*
X118934710Y-96917792D01*
X118557211Y-97170029D01*
X118304974Y-97547528D01*
X118216400Y-97992818D01*
X118009477Y-97992818D01*
X118009477Y-97155000D01*
X117988558Y-97043827D01*
X117922855Y-96941721D01*
X117822603Y-96873222D01*
X117703600Y-96849123D01*
X115976400Y-96849123D01*
X115865227Y-96870042D01*
X115763121Y-96935745D01*
X115694622Y-97035997D01*
X115670523Y-97155000D01*
X113750889Y-97155000D01*
X113812508Y-97006606D01*
X113812597Y-96904431D01*
X114398923Y-96318105D01*
X114745290Y-96249208D01*
X115122789Y-95996971D01*
X115375026Y-95619472D01*
X115463600Y-95174182D01*
X115463600Y-94817818D01*
X115676400Y-94817818D01*
X115676400Y-95174182D01*
X115764974Y-95619472D01*
X116017211Y-95996971D01*
X116394710Y-96249208D01*
X116840000Y-96337782D01*
X117285290Y-96249208D01*
X117662789Y-95996971D01*
X117915026Y-95619472D01*
X118003600Y-95174182D01*
X118003600Y-94817818D01*
X117928377Y-94439650D01*
X118210523Y-94157504D01*
X118210523Y-96012000D01*
X118231442Y-96123173D01*
X118297145Y-96225279D01*
X118397397Y-96293778D01*
X118516400Y-96317877D01*
X120243600Y-96317877D01*
X120354773Y-96296958D01*
X120456879Y-96231255D01*
X120525378Y-96131003D01*
X120549477Y-96012000D01*
X120549477Y-93980000D01*
X120528558Y-93868827D01*
X120462855Y-93766721D01*
X120362603Y-93698222D01*
X120243600Y-93674123D01*
X120217905Y-93674123D01*
X121034424Y-92857603D01*
X121135684Y-92857692D01*
X121330037Y-92777387D01*
X121478864Y-92628819D01*
X121559508Y-92434606D01*
X121559692Y-92224316D01*
X121479387Y-92029963D01*
X121330819Y-91881136D01*
X121136606Y-91800492D01*
X120926316Y-91800308D01*
X120731963Y-91880613D01*
X120583136Y-92029181D01*
X120502492Y-92223394D01*
X120502403Y-92325570D01*
X119605172Y-93222800D01*
X118237000Y-93222800D01*
X118093034Y-93251437D01*
X117970986Y-93332986D01*
X117970984Y-93332989D01*
X117450674Y-93853298D01*
X117285290Y-93742792D01*
X116840000Y-93654218D01*
X116394710Y-93742792D01*
X116017211Y-93995029D01*
X115764974Y-94372528D01*
X115676400Y-94817818D01*
X115463600Y-94817818D01*
X115375026Y-94372528D01*
X115122789Y-93995029D01*
X114745290Y-93742792D01*
X114300000Y-93654218D01*
X113854710Y-93742792D01*
X113477211Y-93995029D01*
X113224974Y-94372528D01*
X113136400Y-94817818D01*
X113136400Y-95174182D01*
X113224974Y-95619472D01*
X113477211Y-95996971D01*
X113584388Y-96068584D01*
X113280575Y-96372397D01*
X113179316Y-96372308D01*
X112984963Y-96452613D01*
X112941877Y-96495624D01*
X112941877Y-96317000D01*
X112920958Y-96205827D01*
X112855255Y-96103721D01*
X112755003Y-96035222D01*
X112636000Y-96011123D01*
X112263200Y-96011123D01*
X112263200Y-95849659D01*
X112481000Y-95759666D01*
X112776628Y-95464554D01*
X112936818Y-95078774D01*
X112937182Y-94661058D01*
X112777666Y-94275000D01*
X112482554Y-93979372D01*
X112096774Y-93819182D01*
X111679058Y-93818818D01*
X111293000Y-93978334D01*
X110997372Y-94273446D01*
X110837182Y-94659226D01*
X110836818Y-95076942D01*
X107182000Y-95076942D01*
X107182000Y-91548469D01*
X110875594Y-91548469D01*
X111056227Y-91985635D01*
X111390406Y-92320397D01*
X111827256Y-92501793D01*
X112300269Y-92502206D01*
X112737435Y-92321573D01*
X113072197Y-91987394D01*
X113253593Y-91550544D01*
X113253594Y-91548469D01*
X113364794Y-91548469D01*
X113545427Y-91985635D01*
X113879606Y-92320397D01*
X114316456Y-92501793D01*
X114789469Y-92502206D01*
X115226635Y-92321573D01*
X115561397Y-91987394D01*
X115742793Y-91550544D01*
X115743206Y-91077531D01*
X115562573Y-90640365D01*
X115228394Y-90305603D01*
X114791544Y-90124207D01*
X114318531Y-90123794D01*
X113881365Y-90304427D01*
X113546603Y-90638606D01*
X113365207Y-91075456D01*
X113364794Y-91548469D01*
X113253594Y-91548469D01*
X113254006Y-91077531D01*
X113073373Y-90640365D01*
X112739194Y-90305603D01*
X112302344Y-90124207D01*
X111829331Y-90123794D01*
X111392165Y-90304427D01*
X111057403Y-90638606D01*
X110876007Y-91075456D01*
X110875594Y-91548469D01*
X107182000Y-91548469D01*
X107182000Y-88246469D01*
X110875594Y-88246469D01*
X111056227Y-88683635D01*
X111390406Y-89018397D01*
X111827256Y-89199793D01*
X112300269Y-89200206D01*
X112737435Y-89019573D01*
X113072197Y-88685394D01*
X113253593Y-88248544D01*
X113253594Y-88246469D01*
X113364794Y-88246469D01*
X113545427Y-88683635D01*
X113879606Y-89018397D01*
X114316456Y-89199793D01*
X114789469Y-89200206D01*
X115226635Y-89019573D01*
X115561397Y-88685394D01*
X115742793Y-88248544D01*
X115742794Y-88246469D01*
X115853994Y-88246469D01*
X116034627Y-88683635D01*
X116368806Y-89018397D01*
X116805656Y-89199793D01*
X117278669Y-89200206D01*
X117715835Y-89019573D01*
X118050597Y-88685394D01*
X118118409Y-88522084D01*
X121315108Y-88522084D01*
X121395413Y-88716437D01*
X121543981Y-88865264D01*
X121556323Y-88870389D01*
X121556323Y-89401600D01*
X121564938Y-89447385D01*
X121446736Y-89565381D01*
X121366092Y-89759594D01*
X121365908Y-89969884D01*
X121446213Y-90164237D01*
X121556323Y-90274539D01*
X121556323Y-90925600D01*
X121577242Y-91036773D01*
X121642945Y-91138879D01*
X121743197Y-91207378D01*
X121862200Y-91231477D01*
X122662200Y-91231477D01*
X122681129Y-91227915D01*
X122590104Y-91447129D01*
X122589896Y-91685824D01*
X122681048Y-91906429D01*
X122849683Y-92075359D01*
X123070129Y-92166896D01*
X123308824Y-92167104D01*
X123529429Y-92075952D01*
X123698359Y-91907317D01*
X123789896Y-91686871D01*
X123790104Y-91448176D01*
X123700566Y-91231477D01*
X124162200Y-91231477D01*
X124273373Y-91210558D01*
X124375479Y-91144855D01*
X124443978Y-91044603D01*
X124468077Y-90925600D01*
X124468077Y-90889100D01*
X124644433Y-90889100D01*
X124520136Y-91013181D01*
X124439492Y-91207394D01*
X124439308Y-91417684D01*
X124519613Y-91612037D01*
X124591800Y-91684350D01*
X124591800Y-93100642D01*
X124520136Y-93172181D01*
X124439492Y-93366394D01*
X124439308Y-93576684D01*
X124519613Y-93771037D01*
X124668181Y-93919864D01*
X124862394Y-94000508D01*
X125072684Y-94000692D01*
X125267037Y-93920387D01*
X125415864Y-93771819D01*
X125496508Y-93577606D01*
X125496692Y-93367316D01*
X125416387Y-93172963D01*
X125344200Y-93100650D01*
X125344200Y-91684358D01*
X125415864Y-91612819D01*
X125496508Y-91418606D01*
X125496692Y-91208316D01*
X125416387Y-91013963D01*
X125291741Y-90889100D01*
X126009400Y-90889100D01*
X126148506Y-90861430D01*
X126266433Y-90782633D01*
X126545833Y-90503234D01*
X126624630Y-90385306D01*
X126635337Y-90331476D01*
X126652300Y-90246200D01*
X126652300Y-89152166D01*
X126658323Y-89146143D01*
X126658323Y-89465600D01*
X126679242Y-89576773D01*
X126744945Y-89678879D01*
X126845197Y-89747378D01*
X126964200Y-89771477D01*
X127499846Y-89771477D01*
X127499846Y-90825965D01*
X127196906Y-91128906D01*
X127101536Y-91271637D01*
X127068046Y-91440000D01*
X127068046Y-93978183D01*
X126914000Y-94041834D01*
X126618372Y-94336946D01*
X126458182Y-94722726D01*
X126457818Y-95140442D01*
X126617334Y-95526500D01*
X126912446Y-95822128D01*
X127298226Y-95982318D01*
X127715942Y-95982682D01*
X128102000Y-95823166D01*
X128397628Y-95528054D01*
X128557818Y-95142274D01*
X128558182Y-94724558D01*
X128398666Y-94338500D01*
X128103554Y-94042872D01*
X127947954Y-93978261D01*
X127947954Y-91622234D01*
X128250894Y-91319295D01*
X128346264Y-91176563D01*
X128353760Y-91138879D01*
X128379754Y-91008200D01*
X128379754Y-89638803D01*
X128448159Y-89570517D01*
X128539696Y-89350071D01*
X128539904Y-89111376D01*
X128448752Y-88890771D01*
X128280117Y-88721841D01*
X128059671Y-88630304D01*
X127870077Y-88630139D01*
X127870077Y-88395600D01*
X127849158Y-88284427D01*
X127783455Y-88182321D01*
X127683203Y-88113822D01*
X127564200Y-88089723D01*
X126964200Y-88089723D01*
X126853027Y-88110642D01*
X126750921Y-88176345D01*
X126705993Y-88242100D01*
X126684800Y-88242100D01*
X126545695Y-88269770D01*
X126427767Y-88348566D01*
X126031767Y-88744567D01*
X126020370Y-88761624D01*
X125970077Y-88740741D01*
X125970077Y-88395600D01*
X125949158Y-88284427D01*
X125883455Y-88182321D01*
X125783203Y-88113822D01*
X125664200Y-88089723D01*
X125064200Y-88089723D01*
X124953027Y-88110642D01*
X124850921Y-88176345D01*
X124805993Y-88242100D01*
X124158200Y-88242100D01*
X124019095Y-88269770D01*
X123980253Y-88295723D01*
X123362200Y-88295723D01*
X123251027Y-88316642D01*
X123148921Y-88382345D01*
X123110221Y-88438985D01*
X123159708Y-88319806D01*
X123159892Y-88109516D01*
X123079587Y-87915163D01*
X122968077Y-87803459D01*
X122968077Y-87077600D01*
X122947158Y-86966427D01*
X122881455Y-86864321D01*
X122781203Y-86795822D01*
X122662200Y-86771723D01*
X121862200Y-86771723D01*
X121751027Y-86792642D01*
X121648921Y-86858345D01*
X121580422Y-86958597D01*
X121556323Y-87077600D01*
X121556323Y-87877600D01*
X121571449Y-87957987D01*
X121544763Y-87969013D01*
X121395936Y-88117581D01*
X121315292Y-88311794D01*
X121315108Y-88522084D01*
X118118409Y-88522084D01*
X118231993Y-88248544D01*
X118232406Y-87775531D01*
X118051773Y-87338365D01*
X117717594Y-87003603D01*
X117280744Y-86822207D01*
X116807731Y-86821794D01*
X116370565Y-87002427D01*
X116035803Y-87336606D01*
X115854407Y-87773456D01*
X115853994Y-88246469D01*
X115742794Y-88246469D01*
X115743206Y-87775531D01*
X115562573Y-87338365D01*
X115228394Y-87003603D01*
X114791544Y-86822207D01*
X114318531Y-86821794D01*
X113881365Y-87002427D01*
X113546603Y-87336606D01*
X113365207Y-87773456D01*
X113364794Y-88246469D01*
X113253594Y-88246469D01*
X113254006Y-87775531D01*
X113073373Y-87338365D01*
X112739194Y-87003603D01*
X112302344Y-86822207D01*
X111829331Y-86821794D01*
X111392165Y-87002427D01*
X111057403Y-87336606D01*
X110876007Y-87773456D01*
X110875594Y-88246469D01*
X107182000Y-88246469D01*
X107182000Y-86481000D01*
X133250000Y-86481000D01*
X133250000Y-90202182D01*
G36*
X123056323Y-88601600D02*
X123056323Y-89401600D01*
X123077242Y-89512773D01*
X123142945Y-89614879D01*
X123243197Y-89683378D01*
X123362200Y-89707477D01*
X124162200Y-89707477D01*
X124273373Y-89686558D01*
X124375479Y-89620855D01*
X124443978Y-89520603D01*
X124468077Y-89401600D01*
X124468077Y-88969100D01*
X124773815Y-88969100D01*
X124758323Y-89045600D01*
X124758323Y-89465600D01*
X124779242Y-89576773D01*
X124844945Y-89678879D01*
X124945197Y-89747378D01*
X125064200Y-89771477D01*
X125664200Y-89771477D01*
X125685791Y-89767414D01*
X125725994Y-89784108D01*
X125925300Y-89784282D01*
X125925300Y-90095633D01*
X125858834Y-90162100D01*
X124468077Y-90162100D01*
X124468077Y-90125600D01*
X124447158Y-90014427D01*
X124381455Y-89912321D01*
X124281203Y-89843822D01*
X124162200Y-89819723D01*
X123362200Y-89819723D01*
X123251027Y-89840642D01*
X123148921Y-89906345D01*
X123080422Y-90006597D01*
X123056323Y-90125600D01*
X123056323Y-90925600D01*
X123064604Y-90969611D01*
X122949536Y-91017157D01*
X122968077Y-90925600D01*
X122968077Y-90125600D01*
X122947158Y-90014427D01*
X122881455Y-89912321D01*
X122781203Y-89843822D01*
X122662200Y-89819723D01*
X122423240Y-89819723D01*
X122423292Y-89760516D01*
X122401377Y-89707477D01*
X122662200Y-89707477D01*
X122773373Y-89686558D01*
X122875479Y-89620855D01*
X122943978Y-89520603D01*
X122968077Y-89401600D01*
X122968077Y-88624813D01*
X123072791Y-88520281D01*
X123056323Y-88601600D01*
X123056323Y-88601600D01*
G37*
X123056323Y-88601600D02*
X123056323Y-89401600D01*
X123077242Y-89512773D01*
X123142945Y-89614879D01*
X123243197Y-89683378D01*
X123362200Y-89707477D01*
X124162200Y-89707477D01*
X124273373Y-89686558D01*
X124375479Y-89620855D01*
X124443978Y-89520603D01*
X124468077Y-89401600D01*
X124468077Y-88969100D01*
X124773815Y-88969100D01*
X124758323Y-89045600D01*
X124758323Y-89465600D01*
X124779242Y-89576773D01*
X124844945Y-89678879D01*
X124945197Y-89747378D01*
X125064200Y-89771477D01*
X125664200Y-89771477D01*
X125685791Y-89767414D01*
X125725994Y-89784108D01*
X125925300Y-89784282D01*
X125925300Y-90095633D01*
X125858834Y-90162100D01*
X124468077Y-90162100D01*
X124468077Y-90125600D01*
X124447158Y-90014427D01*
X124381455Y-89912321D01*
X124281203Y-89843822D01*
X124162200Y-89819723D01*
X123362200Y-89819723D01*
X123251027Y-89840642D01*
X123148921Y-89906345D01*
X123080422Y-90006597D01*
X123056323Y-90125600D01*
X123056323Y-90925600D01*
X123064604Y-90969611D01*
X122949536Y-91017157D01*
X122968077Y-90925600D01*
X122968077Y-90125600D01*
X122947158Y-90014427D01*
X122881455Y-89912321D01*
X122781203Y-89843822D01*
X122662200Y-89819723D01*
X122423240Y-89819723D01*
X122423292Y-89760516D01*
X122401377Y-89707477D01*
X122662200Y-89707477D01*
X122773373Y-89686558D01*
X122875479Y-89620855D01*
X122943978Y-89520603D01*
X122968077Y-89401600D01*
X122968077Y-88624813D01*
X123072791Y-88520281D01*
X123056323Y-88601600D01*
G36*
X141378000Y-94184800D02*
X137933100Y-94184800D01*
X137933100Y-92873500D01*
X141378000Y-92873500D01*
X141378000Y-94184800D01*
X141378000Y-94184800D01*
G37*
X141378000Y-94184800D02*
X137933100Y-94184800D01*
X137933100Y-92873500D01*
X141378000Y-92873500D01*
X141378000Y-94184800D01*
G36*
X132627700Y-101830200D02*
X131862075Y-101830200D01*
X131850178Y-98677400D01*
X132627700Y-98677400D01*
X132627700Y-101830200D01*
X132627700Y-101830200D01*
G37*
X132627700Y-101830200D02*
X131862075Y-101830200D01*
X131850178Y-98677400D01*
X132627700Y-98677400D01*
X132627700Y-101830200D01*
G36*
X141961623Y-110611500D02*
X141982542Y-110722673D01*
X142048245Y-110824779D01*
X142148497Y-110893278D01*
X142267500Y-110917377D01*
X142521000Y-110917377D01*
X142521000Y-111787000D01*
X138784000Y-111787000D01*
X138784000Y-110892377D01*
X139030500Y-110892377D01*
X139141673Y-110871458D01*
X139243779Y-110805755D01*
X139312278Y-110705503D01*
X139336377Y-110586500D01*
X139336377Y-110336000D01*
X141961623Y-110336000D01*
X141961623Y-110611500D01*
X141961623Y-110611500D01*
G37*
X141961623Y-110611500D02*
X141982542Y-110722673D01*
X142048245Y-110824779D01*
X142148497Y-110893278D01*
X142267500Y-110917377D01*
X142521000Y-110917377D01*
X142521000Y-111787000D01*
X138784000Y-111787000D01*
X138784000Y-110892377D01*
X139030500Y-110892377D01*
X139141673Y-110871458D01*
X139243779Y-110805755D01*
X139312278Y-110705503D01*
X139336377Y-110586500D01*
X139336377Y-110336000D01*
X141961623Y-110336000D01*
X141961623Y-110611500D01*
M02*
