G04 #@! TF.FileFunction,Copper,L2,Inr,Plane*
%FSLAX46Y46*%
G04 Gerber Fmt 4.6, Leading zero omitted, Abs format (unit mm)*
G04 Created by KiCad (PCBNEW 4.0.1-stable) date 1/31/2017 10:13:49 PM*
%MOMM*%
G01*
G04 APERTURE LIST*
%ADD10C,0.100000*%
%ADD11C,0.508000*%
%ADD12C,3.000000*%
%ADD13C,0.970000*%
%ADD14C,1.778000*%
%ADD15C,0.600000*%
%ADD16R,1.727200X1.727200*%
%ADD17O,1.727200X1.727200*%
%ADD18R,1.727200X2.032000*%
%ADD19O,1.727200X2.032000*%
%ADD20C,0.457200*%
%ADD21C,1.000000*%
%ADD22C,0.200000*%
G04 APERTURE END LIST*
D10*
D11*
X118364000Y-106426000D03*
D12*
X135774500Y-88455500D03*
X131814500Y-88455500D03*
D13*
X152019000Y-99060000D03*
D14*
X117043200Y-91313000D03*
X117043200Y-88011000D03*
X114554000Y-88011000D03*
X112064800Y-88011000D03*
X114554000Y-91313000D03*
X112064800Y-91313000D03*
D15*
X127031500Y-109473000D03*
X127000000Y-107188000D03*
X134270500Y-107885500D03*
X134270500Y-110044500D03*
X134207000Y-105663000D03*
X146643500Y-107696000D03*
X147786500Y-107696000D03*
X146580000Y-103632000D03*
X147723000Y-103632000D03*
D13*
X150114000Y-109982000D03*
D15*
X134366000Y-98971100D03*
X148583400Y-98525600D03*
X135324600Y-112394000D03*
X151212300Y-112673400D03*
X137877300Y-96023700D03*
X136880600Y-96050100D03*
X134429500Y-102323900D03*
X129933700Y-93662500D03*
D11*
X119888000Y-106426000D03*
X119888000Y-107950000D03*
X118364000Y-107950000D03*
X130683000Y-107823000D03*
X140462000Y-106553000D03*
X142367000Y-106553000D03*
X142367000Y-108331000D03*
X140462000Y-108331000D03*
X141351000Y-107442000D03*
X149098000Y-87884000D03*
X151638000Y-87884000D03*
X154178000Y-87884000D03*
X149098000Y-90424000D03*
X151638000Y-90424000D03*
X154178000Y-90424000D03*
X149098000Y-92964000D03*
X151638000Y-92964000D03*
X154178000Y-92964000D03*
X149098000Y-95504000D03*
X151638000Y-95504000D03*
X154178000Y-95504000D03*
D15*
X143122400Y-98398600D03*
D16*
X111252000Y-101727000D03*
D17*
X108712000Y-101727000D03*
X111252000Y-104267000D03*
X108712000Y-104267000D03*
X111252000Y-106807000D03*
X108712000Y-106807000D03*
X111252000Y-109347000D03*
X108712000Y-109347000D03*
X111252000Y-111887000D03*
X108712000Y-111887000D03*
D18*
X116840000Y-98171000D03*
D19*
X119380000Y-98171000D03*
X121920000Y-98171000D03*
D18*
X119380000Y-94996000D03*
D19*
X116840000Y-94996000D03*
X114300000Y-94996000D03*
D18*
X127127000Y-102489000D03*
D19*
X129667000Y-102489000D03*
X132207000Y-102489000D03*
D15*
X145554700Y-91795600D03*
X138798300Y-91948000D03*
X131279900Y-97370900D03*
X137502900Y-104432100D03*
X124066300Y-104292400D03*
X120942100Y-112801400D03*
X119532400Y-113093500D03*
X118503700Y-113106200D03*
X130810000Y-105029000D03*
X143256000Y-111125000D03*
X137414000Y-110236000D03*
X137414000Y-109347000D03*
X113792000Y-104775000D03*
X119634000Y-100457000D03*
X124714000Y-89865200D03*
X114681000Y-103505000D03*
X112712500Y-107442000D03*
D20*
X119888000Y-110617000D03*
X115443000Y-108204000D03*
X122707400Y-106807000D03*
X120777000Y-103632000D03*
X118872000Y-103759000D03*
D15*
X138976100Y-93167200D03*
X139014200Y-94018100D03*
X127939800Y-89230200D03*
X133858000Y-92329000D03*
X144907000Y-94107000D03*
X144907000Y-93218000D03*
X141859000Y-111125000D03*
X141097000Y-111125000D03*
X140335000Y-111125000D03*
X139573000Y-111125000D03*
D20*
X139547600Y-103492300D03*
X127254000Y-99822000D03*
X146050000Y-113030000D03*
X146558000Y-112522000D03*
X121031000Y-92329000D03*
X147066000Y-111887000D03*
X145351500Y-107632500D03*
D15*
X130352800Y-99809300D03*
D21*
X138442700Y-90055700D03*
X145288000Y-88519000D03*
D15*
X144957800Y-95224600D03*
D20*
X121894600Y-89865200D03*
X121843800Y-88417400D03*
X122631200Y-88214200D03*
X113284000Y-96901000D03*
D15*
X124904500Y-106222800D03*
X137515600Y-106210100D03*
X118491000Y-101282500D03*
X121754900Y-110820200D03*
X117690900Y-111277400D03*
X120230900Y-111302800D03*
X119951500Y-103124000D03*
X118745000Y-103060500D03*
X122809000Y-103441500D03*
X128905000Y-98044000D03*
X110236000Y-97917000D03*
X123190000Y-91567000D03*
X128778000Y-105918000D03*
X137541000Y-105410000D03*
X125349000Y-112395000D03*
X125603000Y-111252000D03*
X116586000Y-104775000D03*
X115443000Y-107442000D03*
X116967000Y-100520500D03*
D20*
X113665000Y-110744000D03*
X114300000Y-109220000D03*
X114300000Y-105537000D03*
X115951000Y-111252000D03*
X115951000Y-109728000D03*
X127419100Y-106603800D03*
X124968000Y-91313000D03*
X125831600Y-89255600D03*
X124968000Y-93472000D03*
X115189000Y-106045000D03*
X145161000Y-109347000D03*
X125476000Y-105410000D03*
D22*
G36*
X155835000Y-113925000D02*
X107182000Y-113925000D01*
X107182000Y-113134684D01*
X145521308Y-113134684D01*
X145601613Y-113329037D01*
X145750181Y-113477864D01*
X145944394Y-113558508D01*
X146154684Y-113558692D01*
X146349037Y-113478387D01*
X146497864Y-113329819D01*
X146578508Y-113135606D01*
X146578582Y-113050618D01*
X146662684Y-113050692D01*
X146857037Y-112970387D01*
X147005864Y-112821819D01*
X147086508Y-112627606D01*
X147086692Y-112417316D01*
X147085990Y-112415618D01*
X147170684Y-112415692D01*
X147365037Y-112335387D01*
X147513864Y-112186819D01*
X147594508Y-111992606D01*
X147594692Y-111782316D01*
X147514387Y-111587963D01*
X147365819Y-111439136D01*
X147171606Y-111358492D01*
X146961316Y-111358308D01*
X146766963Y-111438613D01*
X146618136Y-111587181D01*
X146537492Y-111781394D01*
X146537308Y-111991684D01*
X146538010Y-111993382D01*
X146453316Y-111993308D01*
X146258963Y-112073613D01*
X146110136Y-112222181D01*
X146029492Y-112416394D01*
X146029418Y-112501382D01*
X145945316Y-112501308D01*
X145750963Y-112581613D01*
X145602136Y-112730181D01*
X145521492Y-112924394D01*
X145521308Y-113134684D01*
X107182000Y-113134684D01*
X107182000Y-111864204D01*
X107548400Y-111864204D01*
X107548400Y-111909796D01*
X107636974Y-112355086D01*
X107889211Y-112732585D01*
X108266710Y-112984822D01*
X108712000Y-113073396D01*
X109157290Y-112984822D01*
X109534789Y-112732585D01*
X109787026Y-112355086D01*
X109875600Y-111909796D01*
X109875600Y-111864204D01*
X110088400Y-111864204D01*
X110088400Y-111909796D01*
X110176974Y-112355086D01*
X110429211Y-112732585D01*
X110806710Y-112984822D01*
X111252000Y-113073396D01*
X111697290Y-112984822D01*
X112074789Y-112732585D01*
X112220960Y-112513824D01*
X124748896Y-112513824D01*
X124840048Y-112734429D01*
X125008683Y-112903359D01*
X125229129Y-112994896D01*
X125467824Y-112995104D01*
X125688429Y-112903952D01*
X125857359Y-112735317D01*
X125948896Y-112514871D01*
X125949104Y-112276176D01*
X125857952Y-112055571D01*
X125689317Y-111886641D01*
X125605899Y-111852003D01*
X125721824Y-111852104D01*
X125942429Y-111760952D01*
X126111359Y-111592317D01*
X126202896Y-111371871D01*
X126203007Y-111243824D01*
X138972896Y-111243824D01*
X139064048Y-111464429D01*
X139232683Y-111633359D01*
X139453129Y-111724896D01*
X139691824Y-111725104D01*
X139912429Y-111633952D01*
X139953924Y-111592529D01*
X139994683Y-111633359D01*
X140215129Y-111724896D01*
X140453824Y-111725104D01*
X140674429Y-111633952D01*
X140715924Y-111592529D01*
X140756683Y-111633359D01*
X140977129Y-111724896D01*
X141215824Y-111725104D01*
X141436429Y-111633952D01*
X141477924Y-111592529D01*
X141518683Y-111633359D01*
X141739129Y-111724896D01*
X141977824Y-111725104D01*
X142198429Y-111633952D01*
X142367359Y-111465317D01*
X142458896Y-111244871D01*
X142459104Y-111006176D01*
X142367952Y-110785571D01*
X142199317Y-110616641D01*
X141978871Y-110525104D01*
X141740176Y-110524896D01*
X141519571Y-110616048D01*
X141478076Y-110657471D01*
X141437317Y-110616641D01*
X141216871Y-110525104D01*
X140978176Y-110524896D01*
X140757571Y-110616048D01*
X140716076Y-110657471D01*
X140675317Y-110616641D01*
X140454871Y-110525104D01*
X140216176Y-110524896D01*
X139995571Y-110616048D01*
X139954076Y-110657471D01*
X139913317Y-110616641D01*
X139692871Y-110525104D01*
X139454176Y-110524896D01*
X139233571Y-110616048D01*
X139064641Y-110784683D01*
X138973104Y-111005129D01*
X138972896Y-111243824D01*
X126203007Y-111243824D01*
X126203104Y-111133176D01*
X126111952Y-110912571D01*
X125943317Y-110743641D01*
X125722871Y-110652104D01*
X125484176Y-110651896D01*
X125263571Y-110743048D01*
X125094641Y-110911683D01*
X125003104Y-111132129D01*
X125002896Y-111370824D01*
X125094048Y-111591429D01*
X125262683Y-111760359D01*
X125346101Y-111794997D01*
X125230176Y-111794896D01*
X125009571Y-111886048D01*
X124840641Y-112054683D01*
X124749104Y-112275129D01*
X124748896Y-112513824D01*
X112220960Y-112513824D01*
X112327026Y-112355086D01*
X112415600Y-111909796D01*
X112415600Y-111864204D01*
X112327026Y-111418914D01*
X112285446Y-111356684D01*
X115422308Y-111356684D01*
X115502613Y-111551037D01*
X115651181Y-111699864D01*
X115845394Y-111780508D01*
X116055684Y-111780692D01*
X116250037Y-111700387D01*
X116398864Y-111551819D01*
X116463472Y-111396224D01*
X117090796Y-111396224D01*
X117181948Y-111616829D01*
X117350583Y-111785759D01*
X117571029Y-111877296D01*
X117809724Y-111877504D01*
X118030329Y-111786352D01*
X118199259Y-111617717D01*
X118290796Y-111397271D01*
X118291004Y-111158576D01*
X118199852Y-110937971D01*
X118031217Y-110769041D01*
X117917169Y-110721684D01*
X119359308Y-110721684D01*
X119439613Y-110916037D01*
X119588181Y-111064864D01*
X119666521Y-111097394D01*
X119631004Y-111182929D01*
X119630796Y-111421624D01*
X119721948Y-111642229D01*
X119890583Y-111811159D01*
X120111029Y-111902696D01*
X120349724Y-111902904D01*
X120570329Y-111811752D01*
X120739259Y-111643117D01*
X120830796Y-111422671D01*
X120831004Y-111183976D01*
X120739852Y-110963371D01*
X120715548Y-110939024D01*
X121154796Y-110939024D01*
X121245948Y-111159629D01*
X121414583Y-111328559D01*
X121635029Y-111420096D01*
X121873724Y-111420304D01*
X122094329Y-111329152D01*
X122263259Y-111160517D01*
X122354796Y-110940071D01*
X122355004Y-110701376D01*
X122263852Y-110480771D01*
X122095217Y-110311841D01*
X121874771Y-110220304D01*
X121636076Y-110220096D01*
X121415471Y-110311248D01*
X121246541Y-110479883D01*
X121155004Y-110700329D01*
X121154796Y-110939024D01*
X120715548Y-110939024D01*
X120571217Y-110794441D01*
X120413818Y-110729083D01*
X120416508Y-110722606D01*
X120416692Y-110512316D01*
X120336387Y-110317963D01*
X120187819Y-110169136D01*
X119993606Y-110088492D01*
X119783316Y-110088308D01*
X119588963Y-110168613D01*
X119440136Y-110317181D01*
X119359492Y-110511394D01*
X119359308Y-110721684D01*
X117917169Y-110721684D01*
X117810771Y-110677504D01*
X117572076Y-110677296D01*
X117351471Y-110768448D01*
X117182541Y-110937083D01*
X117091004Y-111157529D01*
X117090796Y-111396224D01*
X116463472Y-111396224D01*
X116479508Y-111357606D01*
X116479692Y-111147316D01*
X116399387Y-110952963D01*
X116250819Y-110804136D01*
X116056606Y-110723492D01*
X115846316Y-110723308D01*
X115651963Y-110803613D01*
X115503136Y-110952181D01*
X115422492Y-111146394D01*
X115422308Y-111356684D01*
X112285446Y-111356684D01*
X112074789Y-111041415D01*
X111786347Y-110848684D01*
X113136308Y-110848684D01*
X113216613Y-111043037D01*
X113365181Y-111191864D01*
X113559394Y-111272508D01*
X113769684Y-111272692D01*
X113964037Y-111192387D01*
X114112864Y-111043819D01*
X114193508Y-110849606D01*
X114193692Y-110639316D01*
X114113387Y-110444963D01*
X113964819Y-110296136D01*
X113770606Y-110215492D01*
X113560316Y-110215308D01*
X113365963Y-110295613D01*
X113217136Y-110444181D01*
X113136492Y-110638394D01*
X113136308Y-110848684D01*
X111786347Y-110848684D01*
X111697290Y-110789178D01*
X111252000Y-110700604D01*
X110806710Y-110789178D01*
X110429211Y-111041415D01*
X110176974Y-111418914D01*
X110088400Y-111864204D01*
X109875600Y-111864204D01*
X109787026Y-111418914D01*
X109534789Y-111041415D01*
X109157290Y-110789178D01*
X108712000Y-110700604D01*
X108266710Y-110789178D01*
X107889211Y-111041415D01*
X107636974Y-111418914D01*
X107548400Y-111864204D01*
X107182000Y-111864204D01*
X107182000Y-109324204D01*
X107548400Y-109324204D01*
X107548400Y-109369796D01*
X107636974Y-109815086D01*
X107889211Y-110192585D01*
X108266710Y-110444822D01*
X108712000Y-110533396D01*
X109157290Y-110444822D01*
X109534789Y-110192585D01*
X109787026Y-109815086D01*
X109875600Y-109369796D01*
X109875600Y-109324204D01*
X110088400Y-109324204D01*
X110088400Y-109369796D01*
X110176974Y-109815086D01*
X110429211Y-110192585D01*
X110806710Y-110444822D01*
X111252000Y-110533396D01*
X111697290Y-110444822D01*
X112074789Y-110192585D01*
X112315267Y-109832684D01*
X115422308Y-109832684D01*
X115502613Y-110027037D01*
X115651181Y-110175864D01*
X115845394Y-110256508D01*
X116055684Y-110256692D01*
X116250037Y-110176387D01*
X116398864Y-110027819D01*
X116479508Y-109833606D01*
X116479692Y-109623316D01*
X116408776Y-109451684D01*
X144632308Y-109451684D01*
X144712613Y-109646037D01*
X144861181Y-109794864D01*
X145055394Y-109875508D01*
X145265684Y-109875692D01*
X145460037Y-109795387D01*
X145608864Y-109646819D01*
X145689508Y-109452606D01*
X145689692Y-109242316D01*
X145609387Y-109047963D01*
X145460819Y-108899136D01*
X145266606Y-108818492D01*
X145056316Y-108818308D01*
X144861963Y-108898613D01*
X144713136Y-109047181D01*
X144632492Y-109241394D01*
X144632308Y-109451684D01*
X116408776Y-109451684D01*
X116399387Y-109428963D01*
X116250819Y-109280136D01*
X116056606Y-109199492D01*
X115846316Y-109199308D01*
X115651963Y-109279613D01*
X115503136Y-109428181D01*
X115422492Y-109622394D01*
X115422308Y-109832684D01*
X112315267Y-109832684D01*
X112327026Y-109815086D01*
X112415600Y-109369796D01*
X112415600Y-109324684D01*
X113771308Y-109324684D01*
X113851613Y-109519037D01*
X114000181Y-109667864D01*
X114194394Y-109748508D01*
X114404684Y-109748692D01*
X114599037Y-109668387D01*
X114747864Y-109519819D01*
X114828508Y-109325606D01*
X114828692Y-109115316D01*
X114748387Y-108920963D01*
X114599819Y-108772136D01*
X114405606Y-108691492D01*
X114195316Y-108691308D01*
X114000963Y-108771613D01*
X113852136Y-108920181D01*
X113771492Y-109114394D01*
X113771308Y-109324684D01*
X112415600Y-109324684D01*
X112415600Y-109324204D01*
X112327026Y-108878914D01*
X112074789Y-108501415D01*
X111697290Y-108249178D01*
X111252000Y-108160604D01*
X110806710Y-108249178D01*
X110429211Y-108501415D01*
X110176974Y-108878914D01*
X110088400Y-109324204D01*
X109875600Y-109324204D01*
X109787026Y-108878914D01*
X109534789Y-108501415D01*
X109157290Y-108249178D01*
X108712000Y-108160604D01*
X108266710Y-108249178D01*
X107889211Y-108501415D01*
X107636974Y-108878914D01*
X107548400Y-109324204D01*
X107182000Y-109324204D01*
X107182000Y-106784204D01*
X107548400Y-106784204D01*
X107548400Y-106829796D01*
X107636974Y-107275086D01*
X107889211Y-107652585D01*
X108266710Y-107904822D01*
X108712000Y-107993396D01*
X109157290Y-107904822D01*
X109534789Y-107652585D01*
X109787026Y-107275086D01*
X109875600Y-106829796D01*
X109875600Y-106784204D01*
X110088400Y-106784204D01*
X110088400Y-106829796D01*
X110176974Y-107275086D01*
X110429211Y-107652585D01*
X110806710Y-107904822D01*
X111252000Y-107993396D01*
X111697290Y-107904822D01*
X112074789Y-107652585D01*
X112136101Y-107560824D01*
X114842896Y-107560824D01*
X114934048Y-107781429D01*
X115025914Y-107873456D01*
X114995136Y-107904181D01*
X114914492Y-108098394D01*
X114914308Y-108308684D01*
X114994613Y-108503037D01*
X115143181Y-108651864D01*
X115337394Y-108732508D01*
X115547684Y-108732692D01*
X115742037Y-108652387D01*
X115890864Y-108503819D01*
X115971508Y-108309606D01*
X115971692Y-108099316D01*
X115891387Y-107904963D01*
X115859998Y-107873519D01*
X115951359Y-107782317D01*
X115970099Y-107737184D01*
X144822808Y-107737184D01*
X144903113Y-107931537D01*
X145051681Y-108080364D01*
X145245894Y-108161008D01*
X145456184Y-108161192D01*
X145650537Y-108080887D01*
X145799364Y-107932319D01*
X145880008Y-107738106D01*
X145880192Y-107527816D01*
X145799887Y-107333463D01*
X145651319Y-107184636D01*
X145457106Y-107103992D01*
X145246816Y-107103808D01*
X145052463Y-107184113D01*
X144903636Y-107332681D01*
X144822992Y-107526894D01*
X144822808Y-107737184D01*
X115970099Y-107737184D01*
X116042896Y-107561871D01*
X116043104Y-107323176D01*
X115951952Y-107102571D01*
X115783317Y-106933641D01*
X115730439Y-106911684D01*
X122178708Y-106911684D01*
X122259013Y-107106037D01*
X122407581Y-107254864D01*
X122601794Y-107335508D01*
X122812084Y-107335692D01*
X123006437Y-107255387D01*
X123155264Y-107106819D01*
X123235908Y-106912606D01*
X123236092Y-106702316D01*
X123155787Y-106507963D01*
X123007219Y-106359136D01*
X122965046Y-106341624D01*
X124304396Y-106341624D01*
X124395548Y-106562229D01*
X124564183Y-106731159D01*
X124784629Y-106822696D01*
X125023324Y-106822904D01*
X125243929Y-106731752D01*
X125267237Y-106708484D01*
X126890408Y-106708484D01*
X126970713Y-106902837D01*
X127119281Y-107051664D01*
X127313494Y-107132308D01*
X127523784Y-107132492D01*
X127718137Y-107052187D01*
X127866964Y-106903619D01*
X127947608Y-106709406D01*
X127947792Y-106499116D01*
X127867487Y-106304763D01*
X127718919Y-106155936D01*
X127524706Y-106075292D01*
X127314416Y-106075108D01*
X127120063Y-106155413D01*
X126971236Y-106303981D01*
X126890592Y-106498194D01*
X126890408Y-106708484D01*
X125267237Y-106708484D01*
X125412859Y-106563117D01*
X125504396Y-106342671D01*
X125504604Y-106103976D01*
X125476858Y-106036824D01*
X128177896Y-106036824D01*
X128269048Y-106257429D01*
X128437683Y-106426359D01*
X128658129Y-106517896D01*
X128896824Y-106518104D01*
X129117429Y-106426952D01*
X129215628Y-106328924D01*
X136915496Y-106328924D01*
X137006648Y-106549529D01*
X137175283Y-106718459D01*
X137395729Y-106809996D01*
X137634424Y-106810204D01*
X137855029Y-106719052D01*
X138023959Y-106550417D01*
X138115496Y-106329971D01*
X138115704Y-106091276D01*
X138024552Y-105870671D01*
X137976757Y-105822792D01*
X138049359Y-105750317D01*
X138140896Y-105529871D01*
X138141104Y-105291176D01*
X138049952Y-105070571D01*
X137881317Y-104901641D01*
X137660871Y-104810104D01*
X137422176Y-104809896D01*
X137201571Y-104901048D01*
X137032641Y-105069683D01*
X136941104Y-105290129D01*
X136940896Y-105528824D01*
X137032048Y-105749429D01*
X137079843Y-105797308D01*
X137007241Y-105869783D01*
X136915704Y-106090229D01*
X136915496Y-106328924D01*
X129215628Y-106328924D01*
X129286359Y-106258317D01*
X129377896Y-106037871D01*
X129378104Y-105799176D01*
X129286952Y-105578571D01*
X129118317Y-105409641D01*
X128897871Y-105318104D01*
X128659176Y-105317896D01*
X128438571Y-105409048D01*
X128269641Y-105577683D01*
X128178104Y-105798129D01*
X128177896Y-106036824D01*
X125476858Y-106036824D01*
X125436258Y-105938566D01*
X125580684Y-105938692D01*
X125775037Y-105858387D01*
X125923864Y-105709819D01*
X126004508Y-105515606D01*
X126004692Y-105305316D01*
X125924387Y-105110963D01*
X125775819Y-104962136D01*
X125581606Y-104881492D01*
X125371316Y-104881308D01*
X125176963Y-104961613D01*
X125028136Y-105110181D01*
X124947492Y-105304394D01*
X124947308Y-105514684D01*
X124992012Y-105622876D01*
X124785676Y-105622696D01*
X124565071Y-105713848D01*
X124396141Y-105882483D01*
X124304604Y-106102929D01*
X124304396Y-106341624D01*
X122965046Y-106341624D01*
X122813006Y-106278492D01*
X122602716Y-106278308D01*
X122408363Y-106358613D01*
X122259536Y-106507181D01*
X122178892Y-106701394D01*
X122178708Y-106911684D01*
X115730439Y-106911684D01*
X115562871Y-106842104D01*
X115324176Y-106841896D01*
X115103571Y-106933048D01*
X114934641Y-107101683D01*
X114843104Y-107322129D01*
X114842896Y-107560824D01*
X112136101Y-107560824D01*
X112327026Y-107275086D01*
X112415600Y-106829796D01*
X112415600Y-106784204D01*
X112327026Y-106338914D01*
X112074789Y-105961415D01*
X111697290Y-105709178D01*
X111357976Y-105641684D01*
X113771308Y-105641684D01*
X113851613Y-105836037D01*
X114000181Y-105984864D01*
X114194394Y-106065508D01*
X114404684Y-106065692D01*
X114599037Y-105985387D01*
X114671382Y-105913168D01*
X114660492Y-105939394D01*
X114660308Y-106149684D01*
X114740613Y-106344037D01*
X114889181Y-106492864D01*
X115083394Y-106573508D01*
X115293684Y-106573692D01*
X115488037Y-106493387D01*
X115636864Y-106344819D01*
X115717508Y-106150606D01*
X115717692Y-105940316D01*
X115637387Y-105745963D01*
X115488819Y-105597136D01*
X115294606Y-105516492D01*
X115084316Y-105516308D01*
X114889963Y-105596613D01*
X114817618Y-105668832D01*
X114828508Y-105642606D01*
X114828692Y-105432316D01*
X114748387Y-105237963D01*
X114599819Y-105089136D01*
X114405606Y-105008492D01*
X114195316Y-105008308D01*
X114000963Y-105088613D01*
X113852136Y-105237181D01*
X113771492Y-105431394D01*
X113771308Y-105641684D01*
X111357976Y-105641684D01*
X111252000Y-105620604D01*
X110806710Y-105709178D01*
X110429211Y-105961415D01*
X110176974Y-106338914D01*
X110088400Y-106784204D01*
X109875600Y-106784204D01*
X109787026Y-106338914D01*
X109534789Y-105961415D01*
X109157290Y-105709178D01*
X108712000Y-105620604D01*
X108266710Y-105709178D01*
X107889211Y-105961415D01*
X107636974Y-106338914D01*
X107548400Y-106784204D01*
X107182000Y-106784204D01*
X107182000Y-104244204D01*
X107548400Y-104244204D01*
X107548400Y-104289796D01*
X107636974Y-104735086D01*
X107889211Y-105112585D01*
X108266710Y-105364822D01*
X108712000Y-105453396D01*
X109157290Y-105364822D01*
X109534789Y-105112585D01*
X109787026Y-104735086D01*
X109875600Y-104289796D01*
X109875600Y-104244204D01*
X110088400Y-104244204D01*
X110088400Y-104289796D01*
X110176974Y-104735086D01*
X110429211Y-105112585D01*
X110806710Y-105364822D01*
X111252000Y-105453396D01*
X111697290Y-105364822D01*
X112074789Y-105112585D01*
X112220960Y-104893824D01*
X115985896Y-104893824D01*
X116077048Y-105114429D01*
X116245683Y-105283359D01*
X116466129Y-105374896D01*
X116704824Y-105375104D01*
X116925429Y-105283952D01*
X117094359Y-105115317D01*
X117185896Y-104894871D01*
X117186104Y-104656176D01*
X117094952Y-104435571D01*
X116926317Y-104266641D01*
X116705871Y-104175104D01*
X116467176Y-104174896D01*
X116246571Y-104266048D01*
X116077641Y-104434683D01*
X115986104Y-104655129D01*
X115985896Y-104893824D01*
X112220960Y-104893824D01*
X112327026Y-104735086D01*
X112415600Y-104289796D01*
X112415600Y-104244204D01*
X112327026Y-103798914D01*
X112074789Y-103421415D01*
X111712475Y-103179324D01*
X118144896Y-103179324D01*
X118236048Y-103399929D01*
X118386258Y-103550402D01*
X118343492Y-103653394D01*
X118343308Y-103863684D01*
X118423613Y-104058037D01*
X118572181Y-104206864D01*
X118766394Y-104287508D01*
X118976684Y-104287692D01*
X119171037Y-104207387D01*
X119319864Y-104058819D01*
X119400508Y-103864606D01*
X119400692Y-103654316D01*
X119320387Y-103459963D01*
X119255705Y-103395168D01*
X119318963Y-103242824D01*
X119351396Y-103242824D01*
X119442548Y-103463429D01*
X119611183Y-103632359D01*
X119831629Y-103723896D01*
X120070324Y-103724104D01*
X120248383Y-103650531D01*
X120248308Y-103736684D01*
X120328613Y-103931037D01*
X120477181Y-104079864D01*
X120671394Y-104160508D01*
X120881684Y-104160692D01*
X121076037Y-104080387D01*
X121224864Y-103931819D01*
X121305508Y-103737606D01*
X121305663Y-103560324D01*
X122208896Y-103560324D01*
X122300048Y-103780929D01*
X122468683Y-103949859D01*
X122689129Y-104041396D01*
X122927824Y-104041604D01*
X123148429Y-103950452D01*
X123317359Y-103781817D01*
X123408896Y-103561371D01*
X123409104Y-103322676D01*
X123317952Y-103102071D01*
X123149317Y-102933141D01*
X122928871Y-102841604D01*
X122690176Y-102841396D01*
X122469571Y-102932548D01*
X122300641Y-103101183D01*
X122209104Y-103321629D01*
X122208896Y-103560324D01*
X121305663Y-103560324D01*
X121305692Y-103527316D01*
X121225387Y-103332963D01*
X121076819Y-103184136D01*
X120882606Y-103103492D01*
X120672316Y-103103308D01*
X120551475Y-103153238D01*
X120551604Y-103005176D01*
X120460452Y-102784571D01*
X120291817Y-102615641D01*
X120071371Y-102524104D01*
X119832676Y-102523896D01*
X119612071Y-102615048D01*
X119443141Y-102783683D01*
X119351604Y-103004129D01*
X119351396Y-103242824D01*
X119318963Y-103242824D01*
X119344896Y-103180371D01*
X119345104Y-102941676D01*
X119253952Y-102721071D01*
X119085317Y-102552141D01*
X118864871Y-102460604D01*
X118626176Y-102460396D01*
X118405571Y-102551548D01*
X118236641Y-102720183D01*
X118145104Y-102940629D01*
X118144896Y-103179324D01*
X111712475Y-103179324D01*
X111697290Y-103169178D01*
X111252000Y-103080604D01*
X110806710Y-103169178D01*
X110429211Y-103421415D01*
X110176974Y-103798914D01*
X110088400Y-104244204D01*
X109875600Y-104244204D01*
X109787026Y-103798914D01*
X109534789Y-103421415D01*
X109157290Y-103169178D01*
X108712000Y-103080604D01*
X108266710Y-103169178D01*
X107889211Y-103421415D01*
X107636974Y-103798914D01*
X107548400Y-104244204D01*
X107182000Y-104244204D01*
X107182000Y-101704204D01*
X107548400Y-101704204D01*
X107548400Y-101749796D01*
X107636974Y-102195086D01*
X107889211Y-102572585D01*
X108266710Y-102824822D01*
X108712000Y-102913396D01*
X109157290Y-102824822D01*
X109534789Y-102572585D01*
X109787026Y-102195086D01*
X109875600Y-101749796D01*
X109875600Y-101704204D01*
X109815354Y-101401324D01*
X117890896Y-101401324D01*
X117982048Y-101621929D01*
X118150683Y-101790859D01*
X118371129Y-101882396D01*
X118609824Y-101882604D01*
X118830429Y-101791452D01*
X118999359Y-101622817D01*
X119061568Y-101473000D01*
X125957523Y-101473000D01*
X125957523Y-103505000D01*
X125978442Y-103616173D01*
X126044145Y-103718279D01*
X126144397Y-103786778D01*
X126263400Y-103810877D01*
X127990600Y-103810877D01*
X128101773Y-103789958D01*
X128203879Y-103724255D01*
X128272378Y-103624003D01*
X128296477Y-103505000D01*
X128296477Y-102310818D01*
X128503400Y-102310818D01*
X128503400Y-102667182D01*
X128591974Y-103112472D01*
X128844211Y-103489971D01*
X129221710Y-103742208D01*
X129667000Y-103830782D01*
X130112290Y-103742208D01*
X130489789Y-103489971D01*
X130742026Y-103112472D01*
X130830600Y-102667182D01*
X130830600Y-102310818D01*
X131043400Y-102310818D01*
X131043400Y-102667182D01*
X131131974Y-103112472D01*
X131384211Y-103489971D01*
X131761710Y-103742208D01*
X132207000Y-103830782D01*
X132652290Y-103742208D01*
X132869632Y-103596984D01*
X139018908Y-103596984D01*
X139099213Y-103791337D01*
X139247781Y-103940164D01*
X139441994Y-104020808D01*
X139652284Y-104020992D01*
X139846637Y-103940687D01*
X139995464Y-103792119D01*
X140076108Y-103597906D01*
X140076292Y-103387616D01*
X139995987Y-103193263D01*
X139847419Y-103044436D01*
X139653206Y-102963792D01*
X139442916Y-102963608D01*
X139248563Y-103043913D01*
X139099736Y-103192481D01*
X139019092Y-103386694D01*
X139018908Y-103596984D01*
X132869632Y-103596984D01*
X133029789Y-103489971D01*
X133282026Y-103112472D01*
X133370600Y-102667182D01*
X133370600Y-102310818D01*
X133282026Y-101865528D01*
X133029789Y-101488029D01*
X132652290Y-101235792D01*
X132207000Y-101147218D01*
X131761710Y-101235792D01*
X131384211Y-101488029D01*
X131131974Y-101865528D01*
X131043400Y-102310818D01*
X130830600Y-102310818D01*
X130742026Y-101865528D01*
X130489789Y-101488029D01*
X130112290Y-101235792D01*
X129667000Y-101147218D01*
X129221710Y-101235792D01*
X128844211Y-101488029D01*
X128591974Y-101865528D01*
X128503400Y-102310818D01*
X128296477Y-102310818D01*
X128296477Y-101473000D01*
X128275558Y-101361827D01*
X128209855Y-101259721D01*
X128109603Y-101191222D01*
X127990600Y-101167123D01*
X126263400Y-101167123D01*
X126152227Y-101188042D01*
X126050121Y-101253745D01*
X125981622Y-101353997D01*
X125957523Y-101473000D01*
X119061568Y-101473000D01*
X119090896Y-101402371D01*
X119091104Y-101163676D01*
X118999952Y-100943071D01*
X118831317Y-100774141D01*
X118610871Y-100682604D01*
X118372176Y-100682396D01*
X118151571Y-100773548D01*
X117982641Y-100942183D01*
X117891104Y-101162629D01*
X117890896Y-101401324D01*
X109815354Y-101401324D01*
X109787026Y-101258914D01*
X109534789Y-100881415D01*
X109172475Y-100639324D01*
X116366896Y-100639324D01*
X116458048Y-100859929D01*
X116626683Y-101028859D01*
X116847129Y-101120396D01*
X117085824Y-101120604D01*
X117306429Y-101029452D01*
X117475359Y-100860817D01*
X117566896Y-100640371D01*
X117567104Y-100401676D01*
X117475952Y-100181071D01*
X117307317Y-100012141D01*
X117101514Y-99926684D01*
X126725308Y-99926684D01*
X126805613Y-100121037D01*
X126954181Y-100269864D01*
X127148394Y-100350508D01*
X127358684Y-100350692D01*
X127553037Y-100270387D01*
X127701864Y-100121819D01*
X127782292Y-99928124D01*
X129752696Y-99928124D01*
X129843848Y-100148729D01*
X130012483Y-100317659D01*
X130232929Y-100409196D01*
X130471624Y-100409404D01*
X130692229Y-100318252D01*
X130861159Y-100149617D01*
X130952696Y-99929171D01*
X130952904Y-99690476D01*
X130861752Y-99469871D01*
X130693117Y-99300941D01*
X130472671Y-99209404D01*
X130233976Y-99209196D01*
X130013371Y-99300348D01*
X129844441Y-99468983D01*
X129752904Y-99689429D01*
X129752696Y-99928124D01*
X127782292Y-99928124D01*
X127782508Y-99927606D01*
X127782692Y-99717316D01*
X127702387Y-99522963D01*
X127553819Y-99374136D01*
X127359606Y-99293492D01*
X127149316Y-99293308D01*
X126954963Y-99373613D01*
X126806136Y-99522181D01*
X126725492Y-99716394D01*
X126725308Y-99926684D01*
X117101514Y-99926684D01*
X117086871Y-99920604D01*
X116848176Y-99920396D01*
X116627571Y-100011548D01*
X116458641Y-100180183D01*
X116367104Y-100400629D01*
X116366896Y-100639324D01*
X109172475Y-100639324D01*
X109157290Y-100629178D01*
X108712000Y-100540604D01*
X108266710Y-100629178D01*
X107889211Y-100881415D01*
X107636974Y-101258914D01*
X107548400Y-101704204D01*
X107182000Y-101704204D01*
X107182000Y-98035824D01*
X109635896Y-98035824D01*
X109727048Y-98256429D01*
X109895683Y-98425359D01*
X110116129Y-98516896D01*
X110354824Y-98517104D01*
X110575429Y-98425952D01*
X110744359Y-98257317D01*
X110835896Y-98036871D01*
X110836104Y-97798176D01*
X110744952Y-97577571D01*
X110576317Y-97408641D01*
X110355871Y-97317104D01*
X110117176Y-97316896D01*
X109896571Y-97408048D01*
X109727641Y-97576683D01*
X109636104Y-97797129D01*
X109635896Y-98035824D01*
X107182000Y-98035824D01*
X107182000Y-97005684D01*
X112755308Y-97005684D01*
X112835613Y-97200037D01*
X112984181Y-97348864D01*
X113178394Y-97429508D01*
X113388684Y-97429692D01*
X113583037Y-97349387D01*
X113731864Y-97200819D01*
X113750889Y-97155000D01*
X115670523Y-97155000D01*
X115670523Y-99187000D01*
X115691442Y-99298173D01*
X115757145Y-99400279D01*
X115857397Y-99468778D01*
X115976400Y-99492877D01*
X117703600Y-99492877D01*
X117814773Y-99471958D01*
X117916879Y-99406255D01*
X117985378Y-99306003D01*
X118009477Y-99187000D01*
X118009477Y-97992818D01*
X118216400Y-97992818D01*
X118216400Y-98349182D01*
X118304974Y-98794472D01*
X118557211Y-99171971D01*
X118934710Y-99424208D01*
X119380000Y-99512782D01*
X119825290Y-99424208D01*
X120202789Y-99171971D01*
X120455026Y-98794472D01*
X120543600Y-98349182D01*
X120543600Y-97992818D01*
X120756400Y-97992818D01*
X120756400Y-98349182D01*
X120844974Y-98794472D01*
X121097211Y-99171971D01*
X121474710Y-99424208D01*
X121920000Y-99512782D01*
X122365290Y-99424208D01*
X122742789Y-99171971D01*
X122995026Y-98794472D01*
X123083600Y-98349182D01*
X123083600Y-98162824D01*
X128304896Y-98162824D01*
X128396048Y-98383429D01*
X128564683Y-98552359D01*
X128785129Y-98643896D01*
X129023824Y-98644104D01*
X129244429Y-98552952D01*
X129413359Y-98384317D01*
X129504896Y-98163871D01*
X129505104Y-97925176D01*
X129413952Y-97704571D01*
X129245317Y-97535641D01*
X129024871Y-97444104D01*
X128786176Y-97443896D01*
X128565571Y-97535048D01*
X128396641Y-97703683D01*
X128305104Y-97924129D01*
X128304896Y-98162824D01*
X123083600Y-98162824D01*
X123083600Y-97992818D01*
X122995026Y-97547528D01*
X122742789Y-97170029D01*
X122365290Y-96917792D01*
X121920000Y-96829218D01*
X121474710Y-96917792D01*
X121097211Y-97170029D01*
X120844974Y-97547528D01*
X120756400Y-97992818D01*
X120543600Y-97992818D01*
X120455026Y-97547528D01*
X120202789Y-97170029D01*
X119825290Y-96917792D01*
X119380000Y-96829218D01*
X118934710Y-96917792D01*
X118557211Y-97170029D01*
X118304974Y-97547528D01*
X118216400Y-97992818D01*
X118009477Y-97992818D01*
X118009477Y-97155000D01*
X117988558Y-97043827D01*
X117922855Y-96941721D01*
X117822603Y-96873222D01*
X117703600Y-96849123D01*
X115976400Y-96849123D01*
X115865227Y-96870042D01*
X115763121Y-96935745D01*
X115694622Y-97035997D01*
X115670523Y-97155000D01*
X113750889Y-97155000D01*
X113812508Y-97006606D01*
X113812692Y-96796316D01*
X113732387Y-96601963D01*
X113583819Y-96453136D01*
X113389606Y-96372492D01*
X113179316Y-96372308D01*
X112984963Y-96452613D01*
X112836136Y-96601181D01*
X112755492Y-96795394D01*
X112755308Y-97005684D01*
X107182000Y-97005684D01*
X107182000Y-94817818D01*
X113136400Y-94817818D01*
X113136400Y-95174182D01*
X113224974Y-95619472D01*
X113477211Y-95996971D01*
X113854710Y-96249208D01*
X114300000Y-96337782D01*
X114745290Y-96249208D01*
X115122789Y-95996971D01*
X115375026Y-95619472D01*
X115463600Y-95174182D01*
X115463600Y-94817818D01*
X115676400Y-94817818D01*
X115676400Y-95174182D01*
X115764974Y-95619472D01*
X116017211Y-95996971D01*
X116394710Y-96249208D01*
X116840000Y-96337782D01*
X117285290Y-96249208D01*
X117662789Y-95996971D01*
X117915026Y-95619472D01*
X118003600Y-95174182D01*
X118003600Y-94817818D01*
X117915026Y-94372528D01*
X117662789Y-93995029D01*
X117640297Y-93980000D01*
X118210523Y-93980000D01*
X118210523Y-96012000D01*
X118231442Y-96123173D01*
X118297145Y-96225279D01*
X118397397Y-96293778D01*
X118516400Y-96317877D01*
X120243600Y-96317877D01*
X120354773Y-96296958D01*
X120456879Y-96231255D01*
X120525378Y-96131003D01*
X120549477Y-96012000D01*
X120549477Y-93980000D01*
X120528558Y-93868827D01*
X120462855Y-93766721D01*
X120362603Y-93698222D01*
X120243600Y-93674123D01*
X118516400Y-93674123D01*
X118405227Y-93695042D01*
X118303121Y-93760745D01*
X118234622Y-93860997D01*
X118210523Y-93980000D01*
X117640297Y-93980000D01*
X117285290Y-93742792D01*
X116840000Y-93654218D01*
X116394710Y-93742792D01*
X116017211Y-93995029D01*
X115764974Y-94372528D01*
X115676400Y-94817818D01*
X115463600Y-94817818D01*
X115375026Y-94372528D01*
X115122789Y-93995029D01*
X114745290Y-93742792D01*
X114300000Y-93654218D01*
X113854710Y-93742792D01*
X113477211Y-93995029D01*
X113224974Y-94372528D01*
X113136400Y-94817818D01*
X107182000Y-94817818D01*
X107182000Y-93576684D01*
X124439308Y-93576684D01*
X124519613Y-93771037D01*
X124668181Y-93919864D01*
X124862394Y-94000508D01*
X125072684Y-94000692D01*
X125267037Y-93920387D01*
X125415864Y-93771819D01*
X125496508Y-93577606D01*
X125496692Y-93367316D01*
X125463103Y-93286024D01*
X138375996Y-93286024D01*
X138467148Y-93506629D01*
X138572038Y-93611702D01*
X138505841Y-93677783D01*
X138414304Y-93898229D01*
X138414096Y-94136924D01*
X138505248Y-94357529D01*
X138673883Y-94526459D01*
X138894329Y-94617996D01*
X139133024Y-94618204D01*
X139353629Y-94527052D01*
X139522559Y-94358417D01*
X139614096Y-94137971D01*
X139614304Y-93899276D01*
X139523152Y-93678671D01*
X139418262Y-93573598D01*
X139484459Y-93507517D01*
X139555336Y-93336824D01*
X144306896Y-93336824D01*
X144398048Y-93557429D01*
X144502971Y-93662535D01*
X144398641Y-93766683D01*
X144307104Y-93987129D01*
X144306896Y-94225824D01*
X144398048Y-94446429D01*
X144566683Y-94615359D01*
X144713523Y-94676332D01*
X144618371Y-94715648D01*
X144449441Y-94884283D01*
X144357904Y-95104729D01*
X144357696Y-95343424D01*
X144448848Y-95564029D01*
X144617483Y-95732959D01*
X144837929Y-95824496D01*
X145076624Y-95824704D01*
X145297229Y-95733552D01*
X145466159Y-95564917D01*
X145557696Y-95344471D01*
X145557904Y-95105776D01*
X145466752Y-94885171D01*
X145298117Y-94716241D01*
X145151277Y-94655268D01*
X145246429Y-94615952D01*
X145415359Y-94447317D01*
X145506896Y-94226871D01*
X145507104Y-93988176D01*
X145415952Y-93767571D01*
X145311029Y-93662465D01*
X145415359Y-93558317D01*
X145506896Y-93337871D01*
X145507104Y-93099176D01*
X145415952Y-92878571D01*
X145247317Y-92709641D01*
X145026871Y-92618104D01*
X144788176Y-92617896D01*
X144567571Y-92709048D01*
X144398641Y-92877683D01*
X144307104Y-93098129D01*
X144306896Y-93336824D01*
X139555336Y-93336824D01*
X139575996Y-93287071D01*
X139576204Y-93048376D01*
X139485052Y-92827771D01*
X139316417Y-92658841D01*
X139095971Y-92567304D01*
X138857276Y-92567096D01*
X138636671Y-92658248D01*
X138467741Y-92826883D01*
X138376204Y-93047329D01*
X138375996Y-93286024D01*
X125463103Y-93286024D01*
X125416387Y-93172963D01*
X125267819Y-93024136D01*
X125073606Y-92943492D01*
X124863316Y-92943308D01*
X124668963Y-93023613D01*
X124520136Y-93172181D01*
X124439492Y-93366394D01*
X124439308Y-93576684D01*
X107182000Y-93576684D01*
X107182000Y-91548469D01*
X110875594Y-91548469D01*
X111056227Y-91985635D01*
X111390406Y-92320397D01*
X111827256Y-92501793D01*
X112300269Y-92502206D01*
X112737435Y-92321573D01*
X113072197Y-91987394D01*
X113253593Y-91550544D01*
X113253594Y-91548469D01*
X113364794Y-91548469D01*
X113545427Y-91985635D01*
X113879606Y-92320397D01*
X114316456Y-92501793D01*
X114789469Y-92502206D01*
X114955305Y-92433684D01*
X120502308Y-92433684D01*
X120582613Y-92628037D01*
X120731181Y-92776864D01*
X120925394Y-92857508D01*
X121135684Y-92857692D01*
X121330037Y-92777387D01*
X121478864Y-92628819D01*
X121554019Y-92447824D01*
X133257896Y-92447824D01*
X133349048Y-92668429D01*
X133517683Y-92837359D01*
X133738129Y-92928896D01*
X133976824Y-92929104D01*
X134197429Y-92837952D01*
X134366359Y-92669317D01*
X134457896Y-92448871D01*
X134458104Y-92210176D01*
X134408931Y-92091167D01*
X135664294Y-92091167D01*
X135845079Y-92528700D01*
X136179539Y-92863744D01*
X136616756Y-93045293D01*
X137090167Y-93045706D01*
X137527700Y-92864921D01*
X137862744Y-92530461D01*
X138044293Y-92093244D01*
X138044706Y-91619833D01*
X137863921Y-91182300D01*
X137529461Y-90847256D01*
X137092244Y-90665707D01*
X136618833Y-90665294D01*
X136181300Y-90846079D01*
X135846256Y-91180539D01*
X135664707Y-91617756D01*
X135664294Y-92091167D01*
X134408931Y-92091167D01*
X134366952Y-91989571D01*
X134198317Y-91820641D01*
X133977871Y-91729104D01*
X133739176Y-91728896D01*
X133518571Y-91820048D01*
X133349641Y-91988683D01*
X133258104Y-92209129D01*
X133257896Y-92447824D01*
X121554019Y-92447824D01*
X121559508Y-92434606D01*
X121559692Y-92224316D01*
X121479387Y-92029963D01*
X121330819Y-91881136D01*
X121136606Y-91800492D01*
X120926316Y-91800308D01*
X120731963Y-91880613D01*
X120583136Y-92029181D01*
X120502492Y-92223394D01*
X120502308Y-92433684D01*
X114955305Y-92433684D01*
X115226635Y-92321573D01*
X115561397Y-91987394D01*
X115686619Y-91685824D01*
X122589896Y-91685824D01*
X122681048Y-91906429D01*
X122849683Y-92075359D01*
X123070129Y-92166896D01*
X123308824Y-92167104D01*
X123529429Y-92075952D01*
X123698359Y-91907317D01*
X123789896Y-91686871D01*
X123790104Y-91448176D01*
X123777505Y-91417684D01*
X124439308Y-91417684D01*
X124519613Y-91612037D01*
X124668181Y-91760864D01*
X124862394Y-91841508D01*
X125072684Y-91841692D01*
X125267037Y-91761387D01*
X125415864Y-91612819D01*
X125496508Y-91418606D01*
X125496692Y-91208316D01*
X125416387Y-91013963D01*
X125267819Y-90865136D01*
X125073606Y-90784492D01*
X124863316Y-90784308D01*
X124668963Y-90864613D01*
X124520136Y-91013181D01*
X124439492Y-91207394D01*
X124439308Y-91417684D01*
X123777505Y-91417684D01*
X123698952Y-91227571D01*
X123530317Y-91058641D01*
X123309871Y-90967104D01*
X123071176Y-90966896D01*
X122850571Y-91058048D01*
X122681641Y-91226683D01*
X122590104Y-91447129D01*
X122589896Y-91685824D01*
X115686619Y-91685824D01*
X115742793Y-91550544D01*
X115743206Y-91077531D01*
X115562573Y-90640365D01*
X115228394Y-90305603D01*
X114791544Y-90124207D01*
X114318531Y-90123794D01*
X113881365Y-90304427D01*
X113546603Y-90638606D01*
X113365207Y-91075456D01*
X113364794Y-91548469D01*
X113253594Y-91548469D01*
X113254006Y-91077531D01*
X113073373Y-90640365D01*
X112739194Y-90305603D01*
X112302344Y-90124207D01*
X111829331Y-90123794D01*
X111392165Y-90304427D01*
X111057403Y-90638606D01*
X110876007Y-91075456D01*
X110875594Y-91548469D01*
X107182000Y-91548469D01*
X107182000Y-89969884D01*
X121365908Y-89969884D01*
X121446213Y-90164237D01*
X121594781Y-90313064D01*
X121788994Y-90393708D01*
X121999284Y-90393892D01*
X122193637Y-90313587D01*
X122342464Y-90165019D01*
X122423108Y-89970806D01*
X122423292Y-89760516D01*
X122342987Y-89566163D01*
X122194419Y-89417336D01*
X122057023Y-89360284D01*
X125302908Y-89360284D01*
X125383213Y-89554637D01*
X125531781Y-89703464D01*
X125725994Y-89784108D01*
X125936284Y-89784292D01*
X126130637Y-89703987D01*
X126279464Y-89555419D01*
X126360108Y-89361206D01*
X126360118Y-89349024D01*
X127339696Y-89349024D01*
X127430848Y-89569629D01*
X127599483Y-89738559D01*
X127819929Y-89830096D01*
X128058624Y-89830304D01*
X128279229Y-89739152D01*
X128448159Y-89570517D01*
X128539696Y-89350071D01*
X128539904Y-89111376D01*
X128448752Y-88890771D01*
X128370090Y-88811971D01*
X133974188Y-88811971D01*
X134247645Y-89473786D01*
X134753551Y-89980576D01*
X135414887Y-90255187D01*
X136130971Y-90255812D01*
X136231844Y-90214132D01*
X137642561Y-90214132D01*
X137764097Y-90508272D01*
X137988945Y-90733512D01*
X138282872Y-90855561D01*
X138601132Y-90855839D01*
X138895272Y-90734303D01*
X139120512Y-90509455D01*
X139242561Y-90215528D01*
X139242839Y-89897268D01*
X139121303Y-89603128D01*
X138896455Y-89377888D01*
X138602528Y-89255839D01*
X138284268Y-89255561D01*
X137990128Y-89377097D01*
X137764888Y-89601945D01*
X137642839Y-89895872D01*
X137642561Y-90214132D01*
X136231844Y-90214132D01*
X136792786Y-89982355D01*
X137299576Y-89476449D01*
X137574187Y-88815113D01*
X137574307Y-88677432D01*
X144487861Y-88677432D01*
X144609397Y-88971572D01*
X144834245Y-89196812D01*
X145128172Y-89318861D01*
X145446432Y-89319139D01*
X145740572Y-89197603D01*
X145965812Y-88972755D01*
X146087861Y-88678828D01*
X146088139Y-88360568D01*
X145966603Y-88066428D01*
X145741755Y-87841188D01*
X145447828Y-87719139D01*
X145129568Y-87718861D01*
X144835428Y-87840397D01*
X144610188Y-88065245D01*
X144488139Y-88359172D01*
X144487861Y-88677432D01*
X137574307Y-88677432D01*
X137574812Y-88099029D01*
X137301355Y-87437214D01*
X136795449Y-86930424D01*
X136134113Y-86655813D01*
X135418029Y-86655188D01*
X134756214Y-86928645D01*
X134249424Y-87434551D01*
X133974813Y-88095887D01*
X133974188Y-88811971D01*
X128370090Y-88811971D01*
X128280117Y-88721841D01*
X128059671Y-88630304D01*
X127820976Y-88630096D01*
X127600371Y-88721248D01*
X127431441Y-88889883D01*
X127339904Y-89110329D01*
X127339696Y-89349024D01*
X126360118Y-89349024D01*
X126360292Y-89150916D01*
X126279987Y-88956563D01*
X126131419Y-88807736D01*
X125937206Y-88727092D01*
X125726916Y-88726908D01*
X125532563Y-88807213D01*
X125383736Y-88955781D01*
X125303092Y-89149994D01*
X125302908Y-89360284D01*
X122057023Y-89360284D01*
X122000206Y-89336692D01*
X121789916Y-89336508D01*
X121595563Y-89416813D01*
X121446736Y-89565381D01*
X121366092Y-89759594D01*
X121365908Y-89969884D01*
X107182000Y-89969884D01*
X107182000Y-88246469D01*
X110875594Y-88246469D01*
X111056227Y-88683635D01*
X111390406Y-89018397D01*
X111827256Y-89199793D01*
X112300269Y-89200206D01*
X112737435Y-89019573D01*
X113072197Y-88685394D01*
X113253593Y-88248544D01*
X113253594Y-88246469D01*
X113364794Y-88246469D01*
X113545427Y-88683635D01*
X113879606Y-89018397D01*
X114316456Y-89199793D01*
X114789469Y-89200206D01*
X115226635Y-89019573D01*
X115561397Y-88685394D01*
X115742793Y-88248544D01*
X115742794Y-88246469D01*
X115853994Y-88246469D01*
X116034627Y-88683635D01*
X116368806Y-89018397D01*
X116805656Y-89199793D01*
X117278669Y-89200206D01*
X117715835Y-89019573D01*
X118050597Y-88685394D01*
X118118409Y-88522084D01*
X121315108Y-88522084D01*
X121395413Y-88716437D01*
X121543981Y-88865264D01*
X121738194Y-88945908D01*
X121948484Y-88946092D01*
X122142837Y-88865787D01*
X122291664Y-88717219D01*
X122319506Y-88650168D01*
X122331381Y-88662064D01*
X122525594Y-88742708D01*
X122735884Y-88742892D01*
X122930237Y-88662587D01*
X123079064Y-88514019D01*
X123159708Y-88319806D01*
X123159892Y-88109516D01*
X123079587Y-87915163D01*
X122931019Y-87766336D01*
X122736806Y-87685692D01*
X122526516Y-87685508D01*
X122332163Y-87765813D01*
X122183336Y-87914381D01*
X122155494Y-87981432D01*
X122143619Y-87969536D01*
X121949406Y-87888892D01*
X121739116Y-87888708D01*
X121544763Y-87969013D01*
X121395936Y-88117581D01*
X121315292Y-88311794D01*
X121315108Y-88522084D01*
X118118409Y-88522084D01*
X118231993Y-88248544D01*
X118232406Y-87775531D01*
X118051773Y-87338365D01*
X117717594Y-87003603D01*
X117280744Y-86822207D01*
X116807731Y-86821794D01*
X116370565Y-87002427D01*
X116035803Y-87336606D01*
X115854407Y-87773456D01*
X115853994Y-88246469D01*
X115742794Y-88246469D01*
X115743206Y-87775531D01*
X115562573Y-87338365D01*
X115228394Y-87003603D01*
X114791544Y-86822207D01*
X114318531Y-86821794D01*
X113881365Y-87002427D01*
X113546603Y-87336606D01*
X113365207Y-87773456D01*
X113364794Y-88246469D01*
X113253594Y-88246469D01*
X113254006Y-87775531D01*
X113073373Y-87338365D01*
X112739194Y-87003603D01*
X112302344Y-86822207D01*
X111829331Y-86821794D01*
X111392165Y-87002427D01*
X111057403Y-87336606D01*
X110876007Y-87773456D01*
X110875594Y-88246469D01*
X107182000Y-88246469D01*
X107182000Y-86481000D01*
X155835000Y-86481000D01*
X155835000Y-113925000D01*
X155835000Y-113925000D01*
G37*
X155835000Y-113925000D02*
X107182000Y-113925000D01*
X107182000Y-113134684D01*
X145521308Y-113134684D01*
X145601613Y-113329037D01*
X145750181Y-113477864D01*
X145944394Y-113558508D01*
X146154684Y-113558692D01*
X146349037Y-113478387D01*
X146497864Y-113329819D01*
X146578508Y-113135606D01*
X146578582Y-113050618D01*
X146662684Y-113050692D01*
X146857037Y-112970387D01*
X147005864Y-112821819D01*
X147086508Y-112627606D01*
X147086692Y-112417316D01*
X147085990Y-112415618D01*
X147170684Y-112415692D01*
X147365037Y-112335387D01*
X147513864Y-112186819D01*
X147594508Y-111992606D01*
X147594692Y-111782316D01*
X147514387Y-111587963D01*
X147365819Y-111439136D01*
X147171606Y-111358492D01*
X146961316Y-111358308D01*
X146766963Y-111438613D01*
X146618136Y-111587181D01*
X146537492Y-111781394D01*
X146537308Y-111991684D01*
X146538010Y-111993382D01*
X146453316Y-111993308D01*
X146258963Y-112073613D01*
X146110136Y-112222181D01*
X146029492Y-112416394D01*
X146029418Y-112501382D01*
X145945316Y-112501308D01*
X145750963Y-112581613D01*
X145602136Y-112730181D01*
X145521492Y-112924394D01*
X145521308Y-113134684D01*
X107182000Y-113134684D01*
X107182000Y-111864204D01*
X107548400Y-111864204D01*
X107548400Y-111909796D01*
X107636974Y-112355086D01*
X107889211Y-112732585D01*
X108266710Y-112984822D01*
X108712000Y-113073396D01*
X109157290Y-112984822D01*
X109534789Y-112732585D01*
X109787026Y-112355086D01*
X109875600Y-111909796D01*
X109875600Y-111864204D01*
X110088400Y-111864204D01*
X110088400Y-111909796D01*
X110176974Y-112355086D01*
X110429211Y-112732585D01*
X110806710Y-112984822D01*
X111252000Y-113073396D01*
X111697290Y-112984822D01*
X112074789Y-112732585D01*
X112220960Y-112513824D01*
X124748896Y-112513824D01*
X124840048Y-112734429D01*
X125008683Y-112903359D01*
X125229129Y-112994896D01*
X125467824Y-112995104D01*
X125688429Y-112903952D01*
X125857359Y-112735317D01*
X125948896Y-112514871D01*
X125949104Y-112276176D01*
X125857952Y-112055571D01*
X125689317Y-111886641D01*
X125605899Y-111852003D01*
X125721824Y-111852104D01*
X125942429Y-111760952D01*
X126111359Y-111592317D01*
X126202896Y-111371871D01*
X126203007Y-111243824D01*
X138972896Y-111243824D01*
X139064048Y-111464429D01*
X139232683Y-111633359D01*
X139453129Y-111724896D01*
X139691824Y-111725104D01*
X139912429Y-111633952D01*
X139953924Y-111592529D01*
X139994683Y-111633359D01*
X140215129Y-111724896D01*
X140453824Y-111725104D01*
X140674429Y-111633952D01*
X140715924Y-111592529D01*
X140756683Y-111633359D01*
X140977129Y-111724896D01*
X141215824Y-111725104D01*
X141436429Y-111633952D01*
X141477924Y-111592529D01*
X141518683Y-111633359D01*
X141739129Y-111724896D01*
X141977824Y-111725104D01*
X142198429Y-111633952D01*
X142367359Y-111465317D01*
X142458896Y-111244871D01*
X142459104Y-111006176D01*
X142367952Y-110785571D01*
X142199317Y-110616641D01*
X141978871Y-110525104D01*
X141740176Y-110524896D01*
X141519571Y-110616048D01*
X141478076Y-110657471D01*
X141437317Y-110616641D01*
X141216871Y-110525104D01*
X140978176Y-110524896D01*
X140757571Y-110616048D01*
X140716076Y-110657471D01*
X140675317Y-110616641D01*
X140454871Y-110525104D01*
X140216176Y-110524896D01*
X139995571Y-110616048D01*
X139954076Y-110657471D01*
X139913317Y-110616641D01*
X139692871Y-110525104D01*
X139454176Y-110524896D01*
X139233571Y-110616048D01*
X139064641Y-110784683D01*
X138973104Y-111005129D01*
X138972896Y-111243824D01*
X126203007Y-111243824D01*
X126203104Y-111133176D01*
X126111952Y-110912571D01*
X125943317Y-110743641D01*
X125722871Y-110652104D01*
X125484176Y-110651896D01*
X125263571Y-110743048D01*
X125094641Y-110911683D01*
X125003104Y-111132129D01*
X125002896Y-111370824D01*
X125094048Y-111591429D01*
X125262683Y-111760359D01*
X125346101Y-111794997D01*
X125230176Y-111794896D01*
X125009571Y-111886048D01*
X124840641Y-112054683D01*
X124749104Y-112275129D01*
X124748896Y-112513824D01*
X112220960Y-112513824D01*
X112327026Y-112355086D01*
X112415600Y-111909796D01*
X112415600Y-111864204D01*
X112327026Y-111418914D01*
X112285446Y-111356684D01*
X115422308Y-111356684D01*
X115502613Y-111551037D01*
X115651181Y-111699864D01*
X115845394Y-111780508D01*
X116055684Y-111780692D01*
X116250037Y-111700387D01*
X116398864Y-111551819D01*
X116463472Y-111396224D01*
X117090796Y-111396224D01*
X117181948Y-111616829D01*
X117350583Y-111785759D01*
X117571029Y-111877296D01*
X117809724Y-111877504D01*
X118030329Y-111786352D01*
X118199259Y-111617717D01*
X118290796Y-111397271D01*
X118291004Y-111158576D01*
X118199852Y-110937971D01*
X118031217Y-110769041D01*
X117917169Y-110721684D01*
X119359308Y-110721684D01*
X119439613Y-110916037D01*
X119588181Y-111064864D01*
X119666521Y-111097394D01*
X119631004Y-111182929D01*
X119630796Y-111421624D01*
X119721948Y-111642229D01*
X119890583Y-111811159D01*
X120111029Y-111902696D01*
X120349724Y-111902904D01*
X120570329Y-111811752D01*
X120739259Y-111643117D01*
X120830796Y-111422671D01*
X120831004Y-111183976D01*
X120739852Y-110963371D01*
X120715548Y-110939024D01*
X121154796Y-110939024D01*
X121245948Y-111159629D01*
X121414583Y-111328559D01*
X121635029Y-111420096D01*
X121873724Y-111420304D01*
X122094329Y-111329152D01*
X122263259Y-111160517D01*
X122354796Y-110940071D01*
X122355004Y-110701376D01*
X122263852Y-110480771D01*
X122095217Y-110311841D01*
X121874771Y-110220304D01*
X121636076Y-110220096D01*
X121415471Y-110311248D01*
X121246541Y-110479883D01*
X121155004Y-110700329D01*
X121154796Y-110939024D01*
X120715548Y-110939024D01*
X120571217Y-110794441D01*
X120413818Y-110729083D01*
X120416508Y-110722606D01*
X120416692Y-110512316D01*
X120336387Y-110317963D01*
X120187819Y-110169136D01*
X119993606Y-110088492D01*
X119783316Y-110088308D01*
X119588963Y-110168613D01*
X119440136Y-110317181D01*
X119359492Y-110511394D01*
X119359308Y-110721684D01*
X117917169Y-110721684D01*
X117810771Y-110677504D01*
X117572076Y-110677296D01*
X117351471Y-110768448D01*
X117182541Y-110937083D01*
X117091004Y-111157529D01*
X117090796Y-111396224D01*
X116463472Y-111396224D01*
X116479508Y-111357606D01*
X116479692Y-111147316D01*
X116399387Y-110952963D01*
X116250819Y-110804136D01*
X116056606Y-110723492D01*
X115846316Y-110723308D01*
X115651963Y-110803613D01*
X115503136Y-110952181D01*
X115422492Y-111146394D01*
X115422308Y-111356684D01*
X112285446Y-111356684D01*
X112074789Y-111041415D01*
X111786347Y-110848684D01*
X113136308Y-110848684D01*
X113216613Y-111043037D01*
X113365181Y-111191864D01*
X113559394Y-111272508D01*
X113769684Y-111272692D01*
X113964037Y-111192387D01*
X114112864Y-111043819D01*
X114193508Y-110849606D01*
X114193692Y-110639316D01*
X114113387Y-110444963D01*
X113964819Y-110296136D01*
X113770606Y-110215492D01*
X113560316Y-110215308D01*
X113365963Y-110295613D01*
X113217136Y-110444181D01*
X113136492Y-110638394D01*
X113136308Y-110848684D01*
X111786347Y-110848684D01*
X111697290Y-110789178D01*
X111252000Y-110700604D01*
X110806710Y-110789178D01*
X110429211Y-111041415D01*
X110176974Y-111418914D01*
X110088400Y-111864204D01*
X109875600Y-111864204D01*
X109787026Y-111418914D01*
X109534789Y-111041415D01*
X109157290Y-110789178D01*
X108712000Y-110700604D01*
X108266710Y-110789178D01*
X107889211Y-111041415D01*
X107636974Y-111418914D01*
X107548400Y-111864204D01*
X107182000Y-111864204D01*
X107182000Y-109324204D01*
X107548400Y-109324204D01*
X107548400Y-109369796D01*
X107636974Y-109815086D01*
X107889211Y-110192585D01*
X108266710Y-110444822D01*
X108712000Y-110533396D01*
X109157290Y-110444822D01*
X109534789Y-110192585D01*
X109787026Y-109815086D01*
X109875600Y-109369796D01*
X109875600Y-109324204D01*
X110088400Y-109324204D01*
X110088400Y-109369796D01*
X110176974Y-109815086D01*
X110429211Y-110192585D01*
X110806710Y-110444822D01*
X111252000Y-110533396D01*
X111697290Y-110444822D01*
X112074789Y-110192585D01*
X112315267Y-109832684D01*
X115422308Y-109832684D01*
X115502613Y-110027037D01*
X115651181Y-110175864D01*
X115845394Y-110256508D01*
X116055684Y-110256692D01*
X116250037Y-110176387D01*
X116398864Y-110027819D01*
X116479508Y-109833606D01*
X116479692Y-109623316D01*
X116408776Y-109451684D01*
X144632308Y-109451684D01*
X144712613Y-109646037D01*
X144861181Y-109794864D01*
X145055394Y-109875508D01*
X145265684Y-109875692D01*
X145460037Y-109795387D01*
X145608864Y-109646819D01*
X145689508Y-109452606D01*
X145689692Y-109242316D01*
X145609387Y-109047963D01*
X145460819Y-108899136D01*
X145266606Y-108818492D01*
X145056316Y-108818308D01*
X144861963Y-108898613D01*
X144713136Y-109047181D01*
X144632492Y-109241394D01*
X144632308Y-109451684D01*
X116408776Y-109451684D01*
X116399387Y-109428963D01*
X116250819Y-109280136D01*
X116056606Y-109199492D01*
X115846316Y-109199308D01*
X115651963Y-109279613D01*
X115503136Y-109428181D01*
X115422492Y-109622394D01*
X115422308Y-109832684D01*
X112315267Y-109832684D01*
X112327026Y-109815086D01*
X112415600Y-109369796D01*
X112415600Y-109324684D01*
X113771308Y-109324684D01*
X113851613Y-109519037D01*
X114000181Y-109667864D01*
X114194394Y-109748508D01*
X114404684Y-109748692D01*
X114599037Y-109668387D01*
X114747864Y-109519819D01*
X114828508Y-109325606D01*
X114828692Y-109115316D01*
X114748387Y-108920963D01*
X114599819Y-108772136D01*
X114405606Y-108691492D01*
X114195316Y-108691308D01*
X114000963Y-108771613D01*
X113852136Y-108920181D01*
X113771492Y-109114394D01*
X113771308Y-109324684D01*
X112415600Y-109324684D01*
X112415600Y-109324204D01*
X112327026Y-108878914D01*
X112074789Y-108501415D01*
X111697290Y-108249178D01*
X111252000Y-108160604D01*
X110806710Y-108249178D01*
X110429211Y-108501415D01*
X110176974Y-108878914D01*
X110088400Y-109324204D01*
X109875600Y-109324204D01*
X109787026Y-108878914D01*
X109534789Y-108501415D01*
X109157290Y-108249178D01*
X108712000Y-108160604D01*
X108266710Y-108249178D01*
X107889211Y-108501415D01*
X107636974Y-108878914D01*
X107548400Y-109324204D01*
X107182000Y-109324204D01*
X107182000Y-106784204D01*
X107548400Y-106784204D01*
X107548400Y-106829796D01*
X107636974Y-107275086D01*
X107889211Y-107652585D01*
X108266710Y-107904822D01*
X108712000Y-107993396D01*
X109157290Y-107904822D01*
X109534789Y-107652585D01*
X109787026Y-107275086D01*
X109875600Y-106829796D01*
X109875600Y-106784204D01*
X110088400Y-106784204D01*
X110088400Y-106829796D01*
X110176974Y-107275086D01*
X110429211Y-107652585D01*
X110806710Y-107904822D01*
X111252000Y-107993396D01*
X111697290Y-107904822D01*
X112074789Y-107652585D01*
X112136101Y-107560824D01*
X114842896Y-107560824D01*
X114934048Y-107781429D01*
X115025914Y-107873456D01*
X114995136Y-107904181D01*
X114914492Y-108098394D01*
X114914308Y-108308684D01*
X114994613Y-108503037D01*
X115143181Y-108651864D01*
X115337394Y-108732508D01*
X115547684Y-108732692D01*
X115742037Y-108652387D01*
X115890864Y-108503819D01*
X115971508Y-108309606D01*
X115971692Y-108099316D01*
X115891387Y-107904963D01*
X115859998Y-107873519D01*
X115951359Y-107782317D01*
X115970099Y-107737184D01*
X144822808Y-107737184D01*
X144903113Y-107931537D01*
X145051681Y-108080364D01*
X145245894Y-108161008D01*
X145456184Y-108161192D01*
X145650537Y-108080887D01*
X145799364Y-107932319D01*
X145880008Y-107738106D01*
X145880192Y-107527816D01*
X145799887Y-107333463D01*
X145651319Y-107184636D01*
X145457106Y-107103992D01*
X145246816Y-107103808D01*
X145052463Y-107184113D01*
X144903636Y-107332681D01*
X144822992Y-107526894D01*
X144822808Y-107737184D01*
X115970099Y-107737184D01*
X116042896Y-107561871D01*
X116043104Y-107323176D01*
X115951952Y-107102571D01*
X115783317Y-106933641D01*
X115730439Y-106911684D01*
X122178708Y-106911684D01*
X122259013Y-107106037D01*
X122407581Y-107254864D01*
X122601794Y-107335508D01*
X122812084Y-107335692D01*
X123006437Y-107255387D01*
X123155264Y-107106819D01*
X123235908Y-106912606D01*
X123236092Y-106702316D01*
X123155787Y-106507963D01*
X123007219Y-106359136D01*
X122965046Y-106341624D01*
X124304396Y-106341624D01*
X124395548Y-106562229D01*
X124564183Y-106731159D01*
X124784629Y-106822696D01*
X125023324Y-106822904D01*
X125243929Y-106731752D01*
X125267237Y-106708484D01*
X126890408Y-106708484D01*
X126970713Y-106902837D01*
X127119281Y-107051664D01*
X127313494Y-107132308D01*
X127523784Y-107132492D01*
X127718137Y-107052187D01*
X127866964Y-106903619D01*
X127947608Y-106709406D01*
X127947792Y-106499116D01*
X127867487Y-106304763D01*
X127718919Y-106155936D01*
X127524706Y-106075292D01*
X127314416Y-106075108D01*
X127120063Y-106155413D01*
X126971236Y-106303981D01*
X126890592Y-106498194D01*
X126890408Y-106708484D01*
X125267237Y-106708484D01*
X125412859Y-106563117D01*
X125504396Y-106342671D01*
X125504604Y-106103976D01*
X125476858Y-106036824D01*
X128177896Y-106036824D01*
X128269048Y-106257429D01*
X128437683Y-106426359D01*
X128658129Y-106517896D01*
X128896824Y-106518104D01*
X129117429Y-106426952D01*
X129215628Y-106328924D01*
X136915496Y-106328924D01*
X137006648Y-106549529D01*
X137175283Y-106718459D01*
X137395729Y-106809996D01*
X137634424Y-106810204D01*
X137855029Y-106719052D01*
X138023959Y-106550417D01*
X138115496Y-106329971D01*
X138115704Y-106091276D01*
X138024552Y-105870671D01*
X137976757Y-105822792D01*
X138049359Y-105750317D01*
X138140896Y-105529871D01*
X138141104Y-105291176D01*
X138049952Y-105070571D01*
X137881317Y-104901641D01*
X137660871Y-104810104D01*
X137422176Y-104809896D01*
X137201571Y-104901048D01*
X137032641Y-105069683D01*
X136941104Y-105290129D01*
X136940896Y-105528824D01*
X137032048Y-105749429D01*
X137079843Y-105797308D01*
X137007241Y-105869783D01*
X136915704Y-106090229D01*
X136915496Y-106328924D01*
X129215628Y-106328924D01*
X129286359Y-106258317D01*
X129377896Y-106037871D01*
X129378104Y-105799176D01*
X129286952Y-105578571D01*
X129118317Y-105409641D01*
X128897871Y-105318104D01*
X128659176Y-105317896D01*
X128438571Y-105409048D01*
X128269641Y-105577683D01*
X128178104Y-105798129D01*
X128177896Y-106036824D01*
X125476858Y-106036824D01*
X125436258Y-105938566D01*
X125580684Y-105938692D01*
X125775037Y-105858387D01*
X125923864Y-105709819D01*
X126004508Y-105515606D01*
X126004692Y-105305316D01*
X125924387Y-105110963D01*
X125775819Y-104962136D01*
X125581606Y-104881492D01*
X125371316Y-104881308D01*
X125176963Y-104961613D01*
X125028136Y-105110181D01*
X124947492Y-105304394D01*
X124947308Y-105514684D01*
X124992012Y-105622876D01*
X124785676Y-105622696D01*
X124565071Y-105713848D01*
X124396141Y-105882483D01*
X124304604Y-106102929D01*
X124304396Y-106341624D01*
X122965046Y-106341624D01*
X122813006Y-106278492D01*
X122602716Y-106278308D01*
X122408363Y-106358613D01*
X122259536Y-106507181D01*
X122178892Y-106701394D01*
X122178708Y-106911684D01*
X115730439Y-106911684D01*
X115562871Y-106842104D01*
X115324176Y-106841896D01*
X115103571Y-106933048D01*
X114934641Y-107101683D01*
X114843104Y-107322129D01*
X114842896Y-107560824D01*
X112136101Y-107560824D01*
X112327026Y-107275086D01*
X112415600Y-106829796D01*
X112415600Y-106784204D01*
X112327026Y-106338914D01*
X112074789Y-105961415D01*
X111697290Y-105709178D01*
X111357976Y-105641684D01*
X113771308Y-105641684D01*
X113851613Y-105836037D01*
X114000181Y-105984864D01*
X114194394Y-106065508D01*
X114404684Y-106065692D01*
X114599037Y-105985387D01*
X114671382Y-105913168D01*
X114660492Y-105939394D01*
X114660308Y-106149684D01*
X114740613Y-106344037D01*
X114889181Y-106492864D01*
X115083394Y-106573508D01*
X115293684Y-106573692D01*
X115488037Y-106493387D01*
X115636864Y-106344819D01*
X115717508Y-106150606D01*
X115717692Y-105940316D01*
X115637387Y-105745963D01*
X115488819Y-105597136D01*
X115294606Y-105516492D01*
X115084316Y-105516308D01*
X114889963Y-105596613D01*
X114817618Y-105668832D01*
X114828508Y-105642606D01*
X114828692Y-105432316D01*
X114748387Y-105237963D01*
X114599819Y-105089136D01*
X114405606Y-105008492D01*
X114195316Y-105008308D01*
X114000963Y-105088613D01*
X113852136Y-105237181D01*
X113771492Y-105431394D01*
X113771308Y-105641684D01*
X111357976Y-105641684D01*
X111252000Y-105620604D01*
X110806710Y-105709178D01*
X110429211Y-105961415D01*
X110176974Y-106338914D01*
X110088400Y-106784204D01*
X109875600Y-106784204D01*
X109787026Y-106338914D01*
X109534789Y-105961415D01*
X109157290Y-105709178D01*
X108712000Y-105620604D01*
X108266710Y-105709178D01*
X107889211Y-105961415D01*
X107636974Y-106338914D01*
X107548400Y-106784204D01*
X107182000Y-106784204D01*
X107182000Y-104244204D01*
X107548400Y-104244204D01*
X107548400Y-104289796D01*
X107636974Y-104735086D01*
X107889211Y-105112585D01*
X108266710Y-105364822D01*
X108712000Y-105453396D01*
X109157290Y-105364822D01*
X109534789Y-105112585D01*
X109787026Y-104735086D01*
X109875600Y-104289796D01*
X109875600Y-104244204D01*
X110088400Y-104244204D01*
X110088400Y-104289796D01*
X110176974Y-104735086D01*
X110429211Y-105112585D01*
X110806710Y-105364822D01*
X111252000Y-105453396D01*
X111697290Y-105364822D01*
X112074789Y-105112585D01*
X112220960Y-104893824D01*
X115985896Y-104893824D01*
X116077048Y-105114429D01*
X116245683Y-105283359D01*
X116466129Y-105374896D01*
X116704824Y-105375104D01*
X116925429Y-105283952D01*
X117094359Y-105115317D01*
X117185896Y-104894871D01*
X117186104Y-104656176D01*
X117094952Y-104435571D01*
X116926317Y-104266641D01*
X116705871Y-104175104D01*
X116467176Y-104174896D01*
X116246571Y-104266048D01*
X116077641Y-104434683D01*
X115986104Y-104655129D01*
X115985896Y-104893824D01*
X112220960Y-104893824D01*
X112327026Y-104735086D01*
X112415600Y-104289796D01*
X112415600Y-104244204D01*
X112327026Y-103798914D01*
X112074789Y-103421415D01*
X111712475Y-103179324D01*
X118144896Y-103179324D01*
X118236048Y-103399929D01*
X118386258Y-103550402D01*
X118343492Y-103653394D01*
X118343308Y-103863684D01*
X118423613Y-104058037D01*
X118572181Y-104206864D01*
X118766394Y-104287508D01*
X118976684Y-104287692D01*
X119171037Y-104207387D01*
X119319864Y-104058819D01*
X119400508Y-103864606D01*
X119400692Y-103654316D01*
X119320387Y-103459963D01*
X119255705Y-103395168D01*
X119318963Y-103242824D01*
X119351396Y-103242824D01*
X119442548Y-103463429D01*
X119611183Y-103632359D01*
X119831629Y-103723896D01*
X120070324Y-103724104D01*
X120248383Y-103650531D01*
X120248308Y-103736684D01*
X120328613Y-103931037D01*
X120477181Y-104079864D01*
X120671394Y-104160508D01*
X120881684Y-104160692D01*
X121076037Y-104080387D01*
X121224864Y-103931819D01*
X121305508Y-103737606D01*
X121305663Y-103560324D01*
X122208896Y-103560324D01*
X122300048Y-103780929D01*
X122468683Y-103949859D01*
X122689129Y-104041396D01*
X122927824Y-104041604D01*
X123148429Y-103950452D01*
X123317359Y-103781817D01*
X123408896Y-103561371D01*
X123409104Y-103322676D01*
X123317952Y-103102071D01*
X123149317Y-102933141D01*
X122928871Y-102841604D01*
X122690176Y-102841396D01*
X122469571Y-102932548D01*
X122300641Y-103101183D01*
X122209104Y-103321629D01*
X122208896Y-103560324D01*
X121305663Y-103560324D01*
X121305692Y-103527316D01*
X121225387Y-103332963D01*
X121076819Y-103184136D01*
X120882606Y-103103492D01*
X120672316Y-103103308D01*
X120551475Y-103153238D01*
X120551604Y-103005176D01*
X120460452Y-102784571D01*
X120291817Y-102615641D01*
X120071371Y-102524104D01*
X119832676Y-102523896D01*
X119612071Y-102615048D01*
X119443141Y-102783683D01*
X119351604Y-103004129D01*
X119351396Y-103242824D01*
X119318963Y-103242824D01*
X119344896Y-103180371D01*
X119345104Y-102941676D01*
X119253952Y-102721071D01*
X119085317Y-102552141D01*
X118864871Y-102460604D01*
X118626176Y-102460396D01*
X118405571Y-102551548D01*
X118236641Y-102720183D01*
X118145104Y-102940629D01*
X118144896Y-103179324D01*
X111712475Y-103179324D01*
X111697290Y-103169178D01*
X111252000Y-103080604D01*
X110806710Y-103169178D01*
X110429211Y-103421415D01*
X110176974Y-103798914D01*
X110088400Y-104244204D01*
X109875600Y-104244204D01*
X109787026Y-103798914D01*
X109534789Y-103421415D01*
X109157290Y-103169178D01*
X108712000Y-103080604D01*
X108266710Y-103169178D01*
X107889211Y-103421415D01*
X107636974Y-103798914D01*
X107548400Y-104244204D01*
X107182000Y-104244204D01*
X107182000Y-101704204D01*
X107548400Y-101704204D01*
X107548400Y-101749796D01*
X107636974Y-102195086D01*
X107889211Y-102572585D01*
X108266710Y-102824822D01*
X108712000Y-102913396D01*
X109157290Y-102824822D01*
X109534789Y-102572585D01*
X109787026Y-102195086D01*
X109875600Y-101749796D01*
X109875600Y-101704204D01*
X109815354Y-101401324D01*
X117890896Y-101401324D01*
X117982048Y-101621929D01*
X118150683Y-101790859D01*
X118371129Y-101882396D01*
X118609824Y-101882604D01*
X118830429Y-101791452D01*
X118999359Y-101622817D01*
X119061568Y-101473000D01*
X125957523Y-101473000D01*
X125957523Y-103505000D01*
X125978442Y-103616173D01*
X126044145Y-103718279D01*
X126144397Y-103786778D01*
X126263400Y-103810877D01*
X127990600Y-103810877D01*
X128101773Y-103789958D01*
X128203879Y-103724255D01*
X128272378Y-103624003D01*
X128296477Y-103505000D01*
X128296477Y-102310818D01*
X128503400Y-102310818D01*
X128503400Y-102667182D01*
X128591974Y-103112472D01*
X128844211Y-103489971D01*
X129221710Y-103742208D01*
X129667000Y-103830782D01*
X130112290Y-103742208D01*
X130489789Y-103489971D01*
X130742026Y-103112472D01*
X130830600Y-102667182D01*
X130830600Y-102310818D01*
X131043400Y-102310818D01*
X131043400Y-102667182D01*
X131131974Y-103112472D01*
X131384211Y-103489971D01*
X131761710Y-103742208D01*
X132207000Y-103830782D01*
X132652290Y-103742208D01*
X132869632Y-103596984D01*
X139018908Y-103596984D01*
X139099213Y-103791337D01*
X139247781Y-103940164D01*
X139441994Y-104020808D01*
X139652284Y-104020992D01*
X139846637Y-103940687D01*
X139995464Y-103792119D01*
X140076108Y-103597906D01*
X140076292Y-103387616D01*
X139995987Y-103193263D01*
X139847419Y-103044436D01*
X139653206Y-102963792D01*
X139442916Y-102963608D01*
X139248563Y-103043913D01*
X139099736Y-103192481D01*
X139019092Y-103386694D01*
X139018908Y-103596984D01*
X132869632Y-103596984D01*
X133029789Y-103489971D01*
X133282026Y-103112472D01*
X133370600Y-102667182D01*
X133370600Y-102310818D01*
X133282026Y-101865528D01*
X133029789Y-101488029D01*
X132652290Y-101235792D01*
X132207000Y-101147218D01*
X131761710Y-101235792D01*
X131384211Y-101488029D01*
X131131974Y-101865528D01*
X131043400Y-102310818D01*
X130830600Y-102310818D01*
X130742026Y-101865528D01*
X130489789Y-101488029D01*
X130112290Y-101235792D01*
X129667000Y-101147218D01*
X129221710Y-101235792D01*
X128844211Y-101488029D01*
X128591974Y-101865528D01*
X128503400Y-102310818D01*
X128296477Y-102310818D01*
X128296477Y-101473000D01*
X128275558Y-101361827D01*
X128209855Y-101259721D01*
X128109603Y-101191222D01*
X127990600Y-101167123D01*
X126263400Y-101167123D01*
X126152227Y-101188042D01*
X126050121Y-101253745D01*
X125981622Y-101353997D01*
X125957523Y-101473000D01*
X119061568Y-101473000D01*
X119090896Y-101402371D01*
X119091104Y-101163676D01*
X118999952Y-100943071D01*
X118831317Y-100774141D01*
X118610871Y-100682604D01*
X118372176Y-100682396D01*
X118151571Y-100773548D01*
X117982641Y-100942183D01*
X117891104Y-101162629D01*
X117890896Y-101401324D01*
X109815354Y-101401324D01*
X109787026Y-101258914D01*
X109534789Y-100881415D01*
X109172475Y-100639324D01*
X116366896Y-100639324D01*
X116458048Y-100859929D01*
X116626683Y-101028859D01*
X116847129Y-101120396D01*
X117085824Y-101120604D01*
X117306429Y-101029452D01*
X117475359Y-100860817D01*
X117566896Y-100640371D01*
X117567104Y-100401676D01*
X117475952Y-100181071D01*
X117307317Y-100012141D01*
X117101514Y-99926684D01*
X126725308Y-99926684D01*
X126805613Y-100121037D01*
X126954181Y-100269864D01*
X127148394Y-100350508D01*
X127358684Y-100350692D01*
X127553037Y-100270387D01*
X127701864Y-100121819D01*
X127782292Y-99928124D01*
X129752696Y-99928124D01*
X129843848Y-100148729D01*
X130012483Y-100317659D01*
X130232929Y-100409196D01*
X130471624Y-100409404D01*
X130692229Y-100318252D01*
X130861159Y-100149617D01*
X130952696Y-99929171D01*
X130952904Y-99690476D01*
X130861752Y-99469871D01*
X130693117Y-99300941D01*
X130472671Y-99209404D01*
X130233976Y-99209196D01*
X130013371Y-99300348D01*
X129844441Y-99468983D01*
X129752904Y-99689429D01*
X129752696Y-99928124D01*
X127782292Y-99928124D01*
X127782508Y-99927606D01*
X127782692Y-99717316D01*
X127702387Y-99522963D01*
X127553819Y-99374136D01*
X127359606Y-99293492D01*
X127149316Y-99293308D01*
X126954963Y-99373613D01*
X126806136Y-99522181D01*
X126725492Y-99716394D01*
X126725308Y-99926684D01*
X117101514Y-99926684D01*
X117086871Y-99920604D01*
X116848176Y-99920396D01*
X116627571Y-100011548D01*
X116458641Y-100180183D01*
X116367104Y-100400629D01*
X116366896Y-100639324D01*
X109172475Y-100639324D01*
X109157290Y-100629178D01*
X108712000Y-100540604D01*
X108266710Y-100629178D01*
X107889211Y-100881415D01*
X107636974Y-101258914D01*
X107548400Y-101704204D01*
X107182000Y-101704204D01*
X107182000Y-98035824D01*
X109635896Y-98035824D01*
X109727048Y-98256429D01*
X109895683Y-98425359D01*
X110116129Y-98516896D01*
X110354824Y-98517104D01*
X110575429Y-98425952D01*
X110744359Y-98257317D01*
X110835896Y-98036871D01*
X110836104Y-97798176D01*
X110744952Y-97577571D01*
X110576317Y-97408641D01*
X110355871Y-97317104D01*
X110117176Y-97316896D01*
X109896571Y-97408048D01*
X109727641Y-97576683D01*
X109636104Y-97797129D01*
X109635896Y-98035824D01*
X107182000Y-98035824D01*
X107182000Y-97005684D01*
X112755308Y-97005684D01*
X112835613Y-97200037D01*
X112984181Y-97348864D01*
X113178394Y-97429508D01*
X113388684Y-97429692D01*
X113583037Y-97349387D01*
X113731864Y-97200819D01*
X113750889Y-97155000D01*
X115670523Y-97155000D01*
X115670523Y-99187000D01*
X115691442Y-99298173D01*
X115757145Y-99400279D01*
X115857397Y-99468778D01*
X115976400Y-99492877D01*
X117703600Y-99492877D01*
X117814773Y-99471958D01*
X117916879Y-99406255D01*
X117985378Y-99306003D01*
X118009477Y-99187000D01*
X118009477Y-97992818D01*
X118216400Y-97992818D01*
X118216400Y-98349182D01*
X118304974Y-98794472D01*
X118557211Y-99171971D01*
X118934710Y-99424208D01*
X119380000Y-99512782D01*
X119825290Y-99424208D01*
X120202789Y-99171971D01*
X120455026Y-98794472D01*
X120543600Y-98349182D01*
X120543600Y-97992818D01*
X120756400Y-97992818D01*
X120756400Y-98349182D01*
X120844974Y-98794472D01*
X121097211Y-99171971D01*
X121474710Y-99424208D01*
X121920000Y-99512782D01*
X122365290Y-99424208D01*
X122742789Y-99171971D01*
X122995026Y-98794472D01*
X123083600Y-98349182D01*
X123083600Y-98162824D01*
X128304896Y-98162824D01*
X128396048Y-98383429D01*
X128564683Y-98552359D01*
X128785129Y-98643896D01*
X129023824Y-98644104D01*
X129244429Y-98552952D01*
X129413359Y-98384317D01*
X129504896Y-98163871D01*
X129505104Y-97925176D01*
X129413952Y-97704571D01*
X129245317Y-97535641D01*
X129024871Y-97444104D01*
X128786176Y-97443896D01*
X128565571Y-97535048D01*
X128396641Y-97703683D01*
X128305104Y-97924129D01*
X128304896Y-98162824D01*
X123083600Y-98162824D01*
X123083600Y-97992818D01*
X122995026Y-97547528D01*
X122742789Y-97170029D01*
X122365290Y-96917792D01*
X121920000Y-96829218D01*
X121474710Y-96917792D01*
X121097211Y-97170029D01*
X120844974Y-97547528D01*
X120756400Y-97992818D01*
X120543600Y-97992818D01*
X120455026Y-97547528D01*
X120202789Y-97170029D01*
X119825290Y-96917792D01*
X119380000Y-96829218D01*
X118934710Y-96917792D01*
X118557211Y-97170029D01*
X118304974Y-97547528D01*
X118216400Y-97992818D01*
X118009477Y-97992818D01*
X118009477Y-97155000D01*
X117988558Y-97043827D01*
X117922855Y-96941721D01*
X117822603Y-96873222D01*
X117703600Y-96849123D01*
X115976400Y-96849123D01*
X115865227Y-96870042D01*
X115763121Y-96935745D01*
X115694622Y-97035997D01*
X115670523Y-97155000D01*
X113750889Y-97155000D01*
X113812508Y-97006606D01*
X113812692Y-96796316D01*
X113732387Y-96601963D01*
X113583819Y-96453136D01*
X113389606Y-96372492D01*
X113179316Y-96372308D01*
X112984963Y-96452613D01*
X112836136Y-96601181D01*
X112755492Y-96795394D01*
X112755308Y-97005684D01*
X107182000Y-97005684D01*
X107182000Y-94817818D01*
X113136400Y-94817818D01*
X113136400Y-95174182D01*
X113224974Y-95619472D01*
X113477211Y-95996971D01*
X113854710Y-96249208D01*
X114300000Y-96337782D01*
X114745290Y-96249208D01*
X115122789Y-95996971D01*
X115375026Y-95619472D01*
X115463600Y-95174182D01*
X115463600Y-94817818D01*
X115676400Y-94817818D01*
X115676400Y-95174182D01*
X115764974Y-95619472D01*
X116017211Y-95996971D01*
X116394710Y-96249208D01*
X116840000Y-96337782D01*
X117285290Y-96249208D01*
X117662789Y-95996971D01*
X117915026Y-95619472D01*
X118003600Y-95174182D01*
X118003600Y-94817818D01*
X117915026Y-94372528D01*
X117662789Y-93995029D01*
X117640297Y-93980000D01*
X118210523Y-93980000D01*
X118210523Y-96012000D01*
X118231442Y-96123173D01*
X118297145Y-96225279D01*
X118397397Y-96293778D01*
X118516400Y-96317877D01*
X120243600Y-96317877D01*
X120354773Y-96296958D01*
X120456879Y-96231255D01*
X120525378Y-96131003D01*
X120549477Y-96012000D01*
X120549477Y-93980000D01*
X120528558Y-93868827D01*
X120462855Y-93766721D01*
X120362603Y-93698222D01*
X120243600Y-93674123D01*
X118516400Y-93674123D01*
X118405227Y-93695042D01*
X118303121Y-93760745D01*
X118234622Y-93860997D01*
X118210523Y-93980000D01*
X117640297Y-93980000D01*
X117285290Y-93742792D01*
X116840000Y-93654218D01*
X116394710Y-93742792D01*
X116017211Y-93995029D01*
X115764974Y-94372528D01*
X115676400Y-94817818D01*
X115463600Y-94817818D01*
X115375026Y-94372528D01*
X115122789Y-93995029D01*
X114745290Y-93742792D01*
X114300000Y-93654218D01*
X113854710Y-93742792D01*
X113477211Y-93995029D01*
X113224974Y-94372528D01*
X113136400Y-94817818D01*
X107182000Y-94817818D01*
X107182000Y-93576684D01*
X124439308Y-93576684D01*
X124519613Y-93771037D01*
X124668181Y-93919864D01*
X124862394Y-94000508D01*
X125072684Y-94000692D01*
X125267037Y-93920387D01*
X125415864Y-93771819D01*
X125496508Y-93577606D01*
X125496692Y-93367316D01*
X125463103Y-93286024D01*
X138375996Y-93286024D01*
X138467148Y-93506629D01*
X138572038Y-93611702D01*
X138505841Y-93677783D01*
X138414304Y-93898229D01*
X138414096Y-94136924D01*
X138505248Y-94357529D01*
X138673883Y-94526459D01*
X138894329Y-94617996D01*
X139133024Y-94618204D01*
X139353629Y-94527052D01*
X139522559Y-94358417D01*
X139614096Y-94137971D01*
X139614304Y-93899276D01*
X139523152Y-93678671D01*
X139418262Y-93573598D01*
X139484459Y-93507517D01*
X139555336Y-93336824D01*
X144306896Y-93336824D01*
X144398048Y-93557429D01*
X144502971Y-93662535D01*
X144398641Y-93766683D01*
X144307104Y-93987129D01*
X144306896Y-94225824D01*
X144398048Y-94446429D01*
X144566683Y-94615359D01*
X144713523Y-94676332D01*
X144618371Y-94715648D01*
X144449441Y-94884283D01*
X144357904Y-95104729D01*
X144357696Y-95343424D01*
X144448848Y-95564029D01*
X144617483Y-95732959D01*
X144837929Y-95824496D01*
X145076624Y-95824704D01*
X145297229Y-95733552D01*
X145466159Y-95564917D01*
X145557696Y-95344471D01*
X145557904Y-95105776D01*
X145466752Y-94885171D01*
X145298117Y-94716241D01*
X145151277Y-94655268D01*
X145246429Y-94615952D01*
X145415359Y-94447317D01*
X145506896Y-94226871D01*
X145507104Y-93988176D01*
X145415952Y-93767571D01*
X145311029Y-93662465D01*
X145415359Y-93558317D01*
X145506896Y-93337871D01*
X145507104Y-93099176D01*
X145415952Y-92878571D01*
X145247317Y-92709641D01*
X145026871Y-92618104D01*
X144788176Y-92617896D01*
X144567571Y-92709048D01*
X144398641Y-92877683D01*
X144307104Y-93098129D01*
X144306896Y-93336824D01*
X139555336Y-93336824D01*
X139575996Y-93287071D01*
X139576204Y-93048376D01*
X139485052Y-92827771D01*
X139316417Y-92658841D01*
X139095971Y-92567304D01*
X138857276Y-92567096D01*
X138636671Y-92658248D01*
X138467741Y-92826883D01*
X138376204Y-93047329D01*
X138375996Y-93286024D01*
X125463103Y-93286024D01*
X125416387Y-93172963D01*
X125267819Y-93024136D01*
X125073606Y-92943492D01*
X124863316Y-92943308D01*
X124668963Y-93023613D01*
X124520136Y-93172181D01*
X124439492Y-93366394D01*
X124439308Y-93576684D01*
X107182000Y-93576684D01*
X107182000Y-91548469D01*
X110875594Y-91548469D01*
X111056227Y-91985635D01*
X111390406Y-92320397D01*
X111827256Y-92501793D01*
X112300269Y-92502206D01*
X112737435Y-92321573D01*
X113072197Y-91987394D01*
X113253593Y-91550544D01*
X113253594Y-91548469D01*
X113364794Y-91548469D01*
X113545427Y-91985635D01*
X113879606Y-92320397D01*
X114316456Y-92501793D01*
X114789469Y-92502206D01*
X114955305Y-92433684D01*
X120502308Y-92433684D01*
X120582613Y-92628037D01*
X120731181Y-92776864D01*
X120925394Y-92857508D01*
X121135684Y-92857692D01*
X121330037Y-92777387D01*
X121478864Y-92628819D01*
X121554019Y-92447824D01*
X133257896Y-92447824D01*
X133349048Y-92668429D01*
X133517683Y-92837359D01*
X133738129Y-92928896D01*
X133976824Y-92929104D01*
X134197429Y-92837952D01*
X134366359Y-92669317D01*
X134457896Y-92448871D01*
X134458104Y-92210176D01*
X134408931Y-92091167D01*
X135664294Y-92091167D01*
X135845079Y-92528700D01*
X136179539Y-92863744D01*
X136616756Y-93045293D01*
X137090167Y-93045706D01*
X137527700Y-92864921D01*
X137862744Y-92530461D01*
X138044293Y-92093244D01*
X138044706Y-91619833D01*
X137863921Y-91182300D01*
X137529461Y-90847256D01*
X137092244Y-90665707D01*
X136618833Y-90665294D01*
X136181300Y-90846079D01*
X135846256Y-91180539D01*
X135664707Y-91617756D01*
X135664294Y-92091167D01*
X134408931Y-92091167D01*
X134366952Y-91989571D01*
X134198317Y-91820641D01*
X133977871Y-91729104D01*
X133739176Y-91728896D01*
X133518571Y-91820048D01*
X133349641Y-91988683D01*
X133258104Y-92209129D01*
X133257896Y-92447824D01*
X121554019Y-92447824D01*
X121559508Y-92434606D01*
X121559692Y-92224316D01*
X121479387Y-92029963D01*
X121330819Y-91881136D01*
X121136606Y-91800492D01*
X120926316Y-91800308D01*
X120731963Y-91880613D01*
X120583136Y-92029181D01*
X120502492Y-92223394D01*
X120502308Y-92433684D01*
X114955305Y-92433684D01*
X115226635Y-92321573D01*
X115561397Y-91987394D01*
X115686619Y-91685824D01*
X122589896Y-91685824D01*
X122681048Y-91906429D01*
X122849683Y-92075359D01*
X123070129Y-92166896D01*
X123308824Y-92167104D01*
X123529429Y-92075952D01*
X123698359Y-91907317D01*
X123789896Y-91686871D01*
X123790104Y-91448176D01*
X123777505Y-91417684D01*
X124439308Y-91417684D01*
X124519613Y-91612037D01*
X124668181Y-91760864D01*
X124862394Y-91841508D01*
X125072684Y-91841692D01*
X125267037Y-91761387D01*
X125415864Y-91612819D01*
X125496508Y-91418606D01*
X125496692Y-91208316D01*
X125416387Y-91013963D01*
X125267819Y-90865136D01*
X125073606Y-90784492D01*
X124863316Y-90784308D01*
X124668963Y-90864613D01*
X124520136Y-91013181D01*
X124439492Y-91207394D01*
X124439308Y-91417684D01*
X123777505Y-91417684D01*
X123698952Y-91227571D01*
X123530317Y-91058641D01*
X123309871Y-90967104D01*
X123071176Y-90966896D01*
X122850571Y-91058048D01*
X122681641Y-91226683D01*
X122590104Y-91447129D01*
X122589896Y-91685824D01*
X115686619Y-91685824D01*
X115742793Y-91550544D01*
X115743206Y-91077531D01*
X115562573Y-90640365D01*
X115228394Y-90305603D01*
X114791544Y-90124207D01*
X114318531Y-90123794D01*
X113881365Y-90304427D01*
X113546603Y-90638606D01*
X113365207Y-91075456D01*
X113364794Y-91548469D01*
X113253594Y-91548469D01*
X113254006Y-91077531D01*
X113073373Y-90640365D01*
X112739194Y-90305603D01*
X112302344Y-90124207D01*
X111829331Y-90123794D01*
X111392165Y-90304427D01*
X111057403Y-90638606D01*
X110876007Y-91075456D01*
X110875594Y-91548469D01*
X107182000Y-91548469D01*
X107182000Y-89969884D01*
X121365908Y-89969884D01*
X121446213Y-90164237D01*
X121594781Y-90313064D01*
X121788994Y-90393708D01*
X121999284Y-90393892D01*
X122193637Y-90313587D01*
X122342464Y-90165019D01*
X122423108Y-89970806D01*
X122423292Y-89760516D01*
X122342987Y-89566163D01*
X122194419Y-89417336D01*
X122057023Y-89360284D01*
X125302908Y-89360284D01*
X125383213Y-89554637D01*
X125531781Y-89703464D01*
X125725994Y-89784108D01*
X125936284Y-89784292D01*
X126130637Y-89703987D01*
X126279464Y-89555419D01*
X126360108Y-89361206D01*
X126360118Y-89349024D01*
X127339696Y-89349024D01*
X127430848Y-89569629D01*
X127599483Y-89738559D01*
X127819929Y-89830096D01*
X128058624Y-89830304D01*
X128279229Y-89739152D01*
X128448159Y-89570517D01*
X128539696Y-89350071D01*
X128539904Y-89111376D01*
X128448752Y-88890771D01*
X128370090Y-88811971D01*
X133974188Y-88811971D01*
X134247645Y-89473786D01*
X134753551Y-89980576D01*
X135414887Y-90255187D01*
X136130971Y-90255812D01*
X136231844Y-90214132D01*
X137642561Y-90214132D01*
X137764097Y-90508272D01*
X137988945Y-90733512D01*
X138282872Y-90855561D01*
X138601132Y-90855839D01*
X138895272Y-90734303D01*
X139120512Y-90509455D01*
X139242561Y-90215528D01*
X139242839Y-89897268D01*
X139121303Y-89603128D01*
X138896455Y-89377888D01*
X138602528Y-89255839D01*
X138284268Y-89255561D01*
X137990128Y-89377097D01*
X137764888Y-89601945D01*
X137642839Y-89895872D01*
X137642561Y-90214132D01*
X136231844Y-90214132D01*
X136792786Y-89982355D01*
X137299576Y-89476449D01*
X137574187Y-88815113D01*
X137574307Y-88677432D01*
X144487861Y-88677432D01*
X144609397Y-88971572D01*
X144834245Y-89196812D01*
X145128172Y-89318861D01*
X145446432Y-89319139D01*
X145740572Y-89197603D01*
X145965812Y-88972755D01*
X146087861Y-88678828D01*
X146088139Y-88360568D01*
X145966603Y-88066428D01*
X145741755Y-87841188D01*
X145447828Y-87719139D01*
X145129568Y-87718861D01*
X144835428Y-87840397D01*
X144610188Y-88065245D01*
X144488139Y-88359172D01*
X144487861Y-88677432D01*
X137574307Y-88677432D01*
X137574812Y-88099029D01*
X137301355Y-87437214D01*
X136795449Y-86930424D01*
X136134113Y-86655813D01*
X135418029Y-86655188D01*
X134756214Y-86928645D01*
X134249424Y-87434551D01*
X133974813Y-88095887D01*
X133974188Y-88811971D01*
X128370090Y-88811971D01*
X128280117Y-88721841D01*
X128059671Y-88630304D01*
X127820976Y-88630096D01*
X127600371Y-88721248D01*
X127431441Y-88889883D01*
X127339904Y-89110329D01*
X127339696Y-89349024D01*
X126360118Y-89349024D01*
X126360292Y-89150916D01*
X126279987Y-88956563D01*
X126131419Y-88807736D01*
X125937206Y-88727092D01*
X125726916Y-88726908D01*
X125532563Y-88807213D01*
X125383736Y-88955781D01*
X125303092Y-89149994D01*
X125302908Y-89360284D01*
X122057023Y-89360284D01*
X122000206Y-89336692D01*
X121789916Y-89336508D01*
X121595563Y-89416813D01*
X121446736Y-89565381D01*
X121366092Y-89759594D01*
X121365908Y-89969884D01*
X107182000Y-89969884D01*
X107182000Y-88246469D01*
X110875594Y-88246469D01*
X111056227Y-88683635D01*
X111390406Y-89018397D01*
X111827256Y-89199793D01*
X112300269Y-89200206D01*
X112737435Y-89019573D01*
X113072197Y-88685394D01*
X113253593Y-88248544D01*
X113253594Y-88246469D01*
X113364794Y-88246469D01*
X113545427Y-88683635D01*
X113879606Y-89018397D01*
X114316456Y-89199793D01*
X114789469Y-89200206D01*
X115226635Y-89019573D01*
X115561397Y-88685394D01*
X115742793Y-88248544D01*
X115742794Y-88246469D01*
X115853994Y-88246469D01*
X116034627Y-88683635D01*
X116368806Y-89018397D01*
X116805656Y-89199793D01*
X117278669Y-89200206D01*
X117715835Y-89019573D01*
X118050597Y-88685394D01*
X118118409Y-88522084D01*
X121315108Y-88522084D01*
X121395413Y-88716437D01*
X121543981Y-88865264D01*
X121738194Y-88945908D01*
X121948484Y-88946092D01*
X122142837Y-88865787D01*
X122291664Y-88717219D01*
X122319506Y-88650168D01*
X122331381Y-88662064D01*
X122525594Y-88742708D01*
X122735884Y-88742892D01*
X122930237Y-88662587D01*
X123079064Y-88514019D01*
X123159708Y-88319806D01*
X123159892Y-88109516D01*
X123079587Y-87915163D01*
X122931019Y-87766336D01*
X122736806Y-87685692D01*
X122526516Y-87685508D01*
X122332163Y-87765813D01*
X122183336Y-87914381D01*
X122155494Y-87981432D01*
X122143619Y-87969536D01*
X121949406Y-87888892D01*
X121739116Y-87888708D01*
X121544763Y-87969013D01*
X121395936Y-88117581D01*
X121315292Y-88311794D01*
X121315108Y-88522084D01*
X118118409Y-88522084D01*
X118231993Y-88248544D01*
X118232406Y-87775531D01*
X118051773Y-87338365D01*
X117717594Y-87003603D01*
X117280744Y-86822207D01*
X116807731Y-86821794D01*
X116370565Y-87002427D01*
X116035803Y-87336606D01*
X115854407Y-87773456D01*
X115853994Y-88246469D01*
X115742794Y-88246469D01*
X115743206Y-87775531D01*
X115562573Y-87338365D01*
X115228394Y-87003603D01*
X114791544Y-86822207D01*
X114318531Y-86821794D01*
X113881365Y-87002427D01*
X113546603Y-87336606D01*
X113365207Y-87773456D01*
X113364794Y-88246469D01*
X113253594Y-88246469D01*
X113254006Y-87775531D01*
X113073373Y-87338365D01*
X112739194Y-87003603D01*
X112302344Y-86822207D01*
X111829331Y-86821794D01*
X111392165Y-87002427D01*
X111057403Y-87336606D01*
X110876007Y-87773456D01*
X110875594Y-88246469D01*
X107182000Y-88246469D01*
X107182000Y-86481000D01*
X155835000Y-86481000D01*
X155835000Y-113925000D01*
M02*
