G04 #@! TF.FileFunction,Paste,Bot*
%FSLAX46Y46*%
G04 Gerber Fmt 4.6, Leading zero omitted, Abs format (unit mm)*
G04 Created by KiCad (PCBNEW 4.0.1-stable) date 1/25/2017 8:29:53 PM*
%MOMM*%
G01*
G04 APERTURE LIST*
%ADD10C,0.100000*%
%ADD11R,0.247600X0.447600*%
%ADD12R,0.447600X0.347600*%
%ADD13R,0.347600X0.447600*%
%ADD14R,0.447600X0.247600*%
G04 APERTURE END LIST*
D10*
D11*
X139515000Y-104267000D03*
X138615000Y-104267000D03*
D12*
X120735000Y-106934000D03*
X121835000Y-106934000D03*
X144314000Y-107061000D03*
X143214000Y-107061000D03*
X138515000Y-106553000D03*
X139615000Y-106553000D03*
X138515000Y-105410000D03*
X139615000Y-105410000D03*
D13*
X139446000Y-110278000D03*
X139446000Y-109178000D03*
X141732000Y-110278000D03*
X141732000Y-109178000D03*
X140589000Y-110278000D03*
X140589000Y-109178000D03*
D12*
X146516000Y-88773000D03*
X147616000Y-88773000D03*
D13*
X132219700Y-96719300D03*
X132219700Y-97819300D03*
D12*
X146516000Y-89916000D03*
X147616000Y-89916000D03*
D13*
X130441700Y-100105300D03*
X130441700Y-99005300D03*
X132219700Y-100232300D03*
X132219700Y-99132300D03*
D12*
X145817500Y-93535500D03*
X146917500Y-93535500D03*
D11*
X123208200Y-90525600D03*
X122308200Y-90525600D03*
X123208200Y-89001600D03*
X122308200Y-89001600D03*
X123208200Y-87477600D03*
X122308200Y-87477600D03*
X112464000Y-96901000D03*
X111564000Y-96901000D03*
D14*
X145821400Y-94368200D03*
X145821400Y-95268200D03*
D11*
X146743000Y-95275400D03*
X147643000Y-95275400D03*
D12*
X116417000Y-107950000D03*
X117517000Y-107950000D03*
D13*
X118872000Y-105579000D03*
X118872000Y-104479000D03*
X120396000Y-105579000D03*
X120396000Y-104479000D03*
D14*
X119888000Y-109924000D03*
X119888000Y-109024000D03*
D11*
X118496500Y-100457000D03*
X117596500Y-100457000D03*
M02*
