G04 #@! TF.FileFunction,Paste,Top*
%FSLAX46Y46*%
G04 Gerber Fmt 4.6, Leading zero omitted, Abs format (unit mm)*
G04 Created by KiCad (PCBNEW 4.0.1-stable) date 1/25/2017 8:42:20 PM*
%MOMM*%
G01*
G04 APERTURE LIST*
%ADD10C,0.100000*%
%ADD11R,0.127600X0.837600*%
%ADD12R,0.837600X0.127600*%
%ADD13R,3.297600X3.297600*%
%ADD14R,0.397600X0.147600*%
%ADD15R,0.147600X0.397600*%
%ADD16R,2.547600X2.547600*%
%ADD17R,4.447600X0.947600*%
%ADD18R,9.247600X10.647600*%
%ADD19R,0.347600X0.447600*%
%ADD20R,0.447600X0.267600*%
%ADD21R,0.647600X0.647600*%
%ADD22R,0.597600X1.087600*%
%ADD23R,1.047600X1.047600*%
%ADD24R,1.347600X1.447600*%
%ADD25R,0.447600X0.347600*%
%ADD26R,0.247600X0.447600*%
%ADD27C,0.067600*%
%ADD28R,3.722600X3.722600*%
%ADD29R,0.747600X0.697600*%
%ADD30R,0.747600X0.347600*%
%ADD31R,0.347600X0.747600*%
%ADD32R,0.697600X0.477600*%
G04 APERTURE END LIST*
D10*
D11*
X120876000Y-104643000D03*
D12*
X121671000Y-108938000D03*
X116581000Y-105438000D03*
D11*
X117376000Y-109733000D03*
D13*
X119126000Y-107188000D03*
D11*
X117876000Y-109733000D03*
X118376000Y-109733000D03*
X118876000Y-109733000D03*
X119376000Y-109733000D03*
X119876000Y-109733000D03*
X120376000Y-109733000D03*
X120876000Y-109733000D03*
D12*
X116581000Y-105938000D03*
X116581000Y-106438000D03*
X116581000Y-106938000D03*
X116581000Y-107438000D03*
X116581000Y-107938000D03*
X116581000Y-108438000D03*
X116581000Y-108938000D03*
X121671000Y-108438000D03*
X121671000Y-107938000D03*
X121671000Y-107438000D03*
X121671000Y-106938000D03*
X121671000Y-106438000D03*
X121671000Y-105938000D03*
X121671000Y-105438000D03*
D11*
X120376000Y-104643000D03*
X119876000Y-104643000D03*
X119376000Y-104643000D03*
X118876000Y-104643000D03*
X118376000Y-104643000D03*
X117876000Y-104643000D03*
X117376000Y-104643000D03*
D14*
X128833400Y-106893720D03*
X128833400Y-106893720D03*
X128833400Y-107543720D03*
X128833400Y-108193720D03*
X128833400Y-108843720D03*
D15*
X129733400Y-109743720D03*
X130383400Y-109743720D03*
X131033400Y-109743720D03*
X131683400Y-109743720D03*
D14*
X132583400Y-108843720D03*
X132583400Y-108193720D03*
X132583400Y-107543720D03*
X132583400Y-106893720D03*
D15*
X131683400Y-105993720D03*
X131033400Y-105993720D03*
X130383400Y-105993720D03*
X129733400Y-105993720D03*
D16*
X130708400Y-107868720D03*
D17*
X142113000Y-95221000D03*
X142113000Y-93521000D03*
X142113000Y-90121000D03*
D18*
X151263000Y-91821000D03*
D17*
X142113000Y-91821000D03*
X142113000Y-88421000D03*
D19*
X124066300Y-105126700D03*
X124066300Y-106226700D03*
D20*
X127264200Y-89905600D03*
X127264200Y-89255600D03*
X127264200Y-88605600D03*
X125364200Y-89905600D03*
X125364200Y-89255600D03*
X125364200Y-88605600D03*
D21*
X123762200Y-90525600D03*
X122262200Y-90525600D03*
X123762200Y-89001600D03*
X122262200Y-89001600D03*
X123762200Y-87477600D03*
X122262200Y-87477600D03*
D22*
X132280700Y-99762300D03*
X130380700Y-99762300D03*
X132280700Y-97062300D03*
X130380700Y-97062300D03*
X131330700Y-97062300D03*
D23*
X112036000Y-98917000D03*
X112036000Y-96917000D03*
D24*
X108786000Y-97917000D03*
D25*
X123783000Y-111315500D03*
X124883000Y-111315500D03*
X124900000Y-110181000D03*
X123800000Y-110181000D03*
D19*
X122555000Y-110194000D03*
X122555000Y-111294000D03*
D26*
X123692500Y-112458500D03*
X124592500Y-112458500D03*
D27*
X124090000Y-108938000D03*
X123486000Y-108938000D03*
X123486000Y-108438000D03*
X123486000Y-107938000D03*
X123486000Y-107438000D03*
X124910000Y-107438000D03*
X124910000Y-108938000D03*
X124910000Y-108188000D03*
D25*
X134789000Y-106892760D03*
X133689000Y-106892760D03*
X134789000Y-108843600D03*
X133689000Y-108843600D03*
D28*
X141380500Y-107461500D03*
D29*
X144130500Y-104711500D03*
X144130500Y-110211500D03*
X138630500Y-110211500D03*
X138630500Y-104711500D03*
D30*
X144130500Y-109336500D03*
X138630500Y-105586500D03*
D31*
X139567500Y-110211500D03*
X143192500Y-104711500D03*
X142467500Y-104711500D03*
X141742500Y-104711500D03*
X141017500Y-104711500D03*
X140292500Y-104711500D03*
X139567500Y-104711500D03*
X140292500Y-110211500D03*
X141017500Y-110211500D03*
X141742500Y-110211500D03*
X142467500Y-110211500D03*
X143192500Y-110211500D03*
D30*
X138630500Y-106336500D03*
X138630500Y-107086500D03*
X138630500Y-107836500D03*
X138630500Y-108586500D03*
X138630500Y-109336500D03*
X144130500Y-108586500D03*
X144130500Y-107836500D03*
X144130500Y-107086500D03*
X144130500Y-106336500D03*
X144130500Y-105586500D03*
D19*
X145364200Y-105583900D03*
X145364200Y-106683900D03*
D25*
X147362000Y-106172000D03*
X146262000Y-106172000D03*
D19*
X148209000Y-105622000D03*
X148209000Y-106722000D03*
D25*
X147362000Y-105029000D03*
X146262000Y-105029000D03*
D19*
X122936000Y-104606000D03*
X122936000Y-105706000D03*
D25*
X126450000Y-108204000D03*
X127550000Y-108204000D03*
X128863000Y-105029000D03*
X129963000Y-105029000D03*
X115739000Y-104775000D03*
X114639000Y-104775000D03*
X114596000Y-107442000D03*
X113496000Y-107442000D03*
X118787000Y-100457000D03*
X117687000Y-100457000D03*
X117199500Y-103568500D03*
X116099500Y-103568500D03*
D19*
X119545100Y-112398900D03*
X119545100Y-111298900D03*
X120523000Y-101685000D03*
X120523000Y-102785000D03*
X120954800Y-111929000D03*
X120954800Y-110829000D03*
D32*
X114679500Y-100496500D03*
X114679500Y-102576500D03*
X116079500Y-100496500D03*
X116079500Y-102576500D03*
D19*
X121539000Y-103082000D03*
X121539000Y-104182000D03*
X119443500Y-101685000D03*
X119443500Y-102785000D03*
X118516400Y-112411600D03*
X118516400Y-111311600D03*
M02*
