G04 #@! TF.FileFunction,Copper,L4,Bot,Signal*
%FSLAX46Y46*%
G04 Gerber Fmt 4.6, Leading zero omitted, Abs format (unit mm)*
G04 Created by KiCad (PCBNEW 4.0.1-stable) date 1/31/2017 10:02:11 PM*
%MOMM*%
G01*
G04 APERTURE LIST*
%ADD10C,0.100000*%
%ADD11C,0.508000*%
%ADD12R,2.500000X2.000000*%
%ADD13R,1.200000X0.750000*%
%ADD14R,5.080000X2.415000*%
%ADD15R,0.400000X0.600000*%
%ADD16C,3.000000*%
%ADD17R,0.600000X0.400000*%
%ADD18R,0.500000X0.600000*%
%ADD19R,0.600000X0.500000*%
%ADD20C,0.970000*%
%ADD21C,1.778000*%
%ADD22C,0.600000*%
%ADD23R,1.727200X1.727200*%
%ADD24O,1.727200X1.727200*%
%ADD25R,1.727200X2.032000*%
%ADD26O,1.727200X2.032000*%
%ADD27C,0.457200*%
%ADD28C,1.000000*%
%ADD29C,0.279908*%
%ADD30C,0.152400*%
%ADD31C,0.500000*%
%ADD32C,0.342138*%
%ADD33C,0.200000*%
G04 APERTURE END LIST*
D10*
D11*
X118364000Y-106426000D03*
D12*
X140881100Y-91205300D03*
X140881100Y-95205300D03*
D13*
X146090600Y-93357700D03*
X147990600Y-93357700D03*
D14*
X153377900Y-101167200D03*
X153377900Y-109932200D03*
D15*
X118496500Y-100457000D03*
X117596500Y-100457000D03*
D16*
X135774500Y-88455500D03*
X131814500Y-88455500D03*
D17*
X119888000Y-109924000D03*
X119888000Y-109024000D03*
D18*
X120396000Y-105579000D03*
X120396000Y-104479000D03*
X118872000Y-105579000D03*
X118872000Y-104479000D03*
D19*
X116417000Y-107950000D03*
X117517000Y-107950000D03*
D20*
X152019000Y-99060000D03*
D21*
X117043200Y-91313000D03*
X117043200Y-88011000D03*
X114554000Y-88011000D03*
X112064800Y-88011000D03*
X114554000Y-91313000D03*
X112064800Y-91313000D03*
D15*
X146743000Y-95275400D03*
X147643000Y-95275400D03*
D17*
X145821400Y-94368200D03*
X145821400Y-95268200D03*
D15*
X112464000Y-96901000D03*
X111564000Y-96901000D03*
X123208200Y-87477600D03*
X122308200Y-87477600D03*
X123208200Y-89001600D03*
X122308200Y-89001600D03*
X123208200Y-90525600D03*
X122308200Y-90525600D03*
D18*
X130403600Y-99140100D03*
X130403600Y-98040100D03*
D19*
X146516000Y-88773000D03*
X147616000Y-88773000D03*
D18*
X141732000Y-110278000D03*
X141732000Y-109178000D03*
X139446000Y-110278000D03*
X139446000Y-109178000D03*
D19*
X138515000Y-105410000D03*
X139615000Y-105410000D03*
X138515000Y-106553000D03*
X139615000Y-106553000D03*
X144314000Y-107061000D03*
X143214000Y-107061000D03*
X120735000Y-106934000D03*
X121835000Y-106934000D03*
D22*
X127031500Y-109473000D03*
X127000000Y-107188000D03*
X134270500Y-107885500D03*
X134270500Y-110044500D03*
X134207000Y-105663000D03*
X146643500Y-107696000D03*
X147786500Y-107696000D03*
X146580000Y-103632000D03*
X147723000Y-103632000D03*
D20*
X150114000Y-109982000D03*
D15*
X139515000Y-104267000D03*
X138615000Y-104267000D03*
D22*
X134366000Y-98971100D03*
X148583400Y-98525600D03*
X135324600Y-112394000D03*
X151212300Y-112673400D03*
X137877300Y-96023700D03*
X136880600Y-96050100D03*
X134429500Y-102323900D03*
X129933700Y-93662500D03*
D11*
X119888000Y-106426000D03*
X119888000Y-107950000D03*
X118364000Y-107950000D03*
X130683000Y-107823000D03*
X140462000Y-106553000D03*
X142367000Y-106553000D03*
X142367000Y-108331000D03*
X140462000Y-108331000D03*
X141351000Y-107442000D03*
X149098000Y-87884000D03*
X151638000Y-87884000D03*
X154178000Y-87884000D03*
X149098000Y-90424000D03*
X151638000Y-90424000D03*
X154178000Y-90424000D03*
X149098000Y-92964000D03*
X151638000Y-92964000D03*
X154178000Y-92964000D03*
X149098000Y-95504000D03*
X151638000Y-95504000D03*
X154178000Y-95504000D03*
D22*
X143122400Y-98398600D03*
D23*
X111252000Y-101727000D03*
D24*
X108712000Y-101727000D03*
X111252000Y-104267000D03*
X108712000Y-104267000D03*
X111252000Y-106807000D03*
X108712000Y-106807000D03*
X111252000Y-109347000D03*
X108712000Y-109347000D03*
X111252000Y-111887000D03*
X108712000Y-111887000D03*
D25*
X116840000Y-98171000D03*
D26*
X119380000Y-98171000D03*
X121920000Y-98171000D03*
D25*
X119380000Y-94996000D03*
D26*
X116840000Y-94996000D03*
X114300000Y-94996000D03*
D25*
X127127000Y-102489000D03*
D26*
X129667000Y-102489000D03*
X132207000Y-102489000D03*
D22*
X145554700Y-91795600D03*
X138798300Y-91948000D03*
X131279900Y-97370900D03*
X137502900Y-104432100D03*
X124066300Y-104292400D03*
X120942100Y-112801400D03*
X119532400Y-113093500D03*
X118503700Y-113106200D03*
X130810000Y-105029000D03*
X143256000Y-111125000D03*
X137414000Y-110236000D03*
X137414000Y-109347000D03*
X113792000Y-104775000D03*
X119634000Y-100457000D03*
X124714000Y-89865200D03*
X114681000Y-103505000D03*
X112712500Y-107442000D03*
D27*
X119888000Y-110617000D03*
X115443000Y-108204000D03*
X122707400Y-106807000D03*
X120777000Y-103632000D03*
X118872000Y-103759000D03*
D22*
X138976100Y-93167200D03*
X139014200Y-94018100D03*
X127939800Y-89230200D03*
X133858000Y-92329000D03*
X144907000Y-94107000D03*
X144907000Y-93218000D03*
X141859000Y-111125000D03*
X141097000Y-111125000D03*
X140335000Y-111125000D03*
X139573000Y-111125000D03*
D27*
X139547600Y-103492300D03*
X127254000Y-99822000D03*
X146050000Y-113030000D03*
X146558000Y-112522000D03*
X121031000Y-92329000D03*
X147066000Y-111887000D03*
X145351500Y-107632500D03*
D22*
X130352800Y-99809300D03*
D28*
X138442700Y-90055700D03*
X145288000Y-88519000D03*
D22*
X144957800Y-95224600D03*
D27*
X121894600Y-89865200D03*
X121843800Y-88417400D03*
X122631200Y-88214200D03*
X113284000Y-96901000D03*
D22*
X124904500Y-106222800D03*
X137515600Y-106210100D03*
X118491000Y-101282500D03*
X121754900Y-110820200D03*
X117690900Y-111277400D03*
X120230900Y-111302800D03*
X119951500Y-103124000D03*
X118745000Y-103060500D03*
X122809000Y-103441500D03*
X128905000Y-98044000D03*
X110236000Y-97917000D03*
X123190000Y-91567000D03*
X128778000Y-105918000D03*
X137541000Y-105410000D03*
X125349000Y-112395000D03*
X125603000Y-111252000D03*
X116586000Y-104775000D03*
X115443000Y-107442000D03*
X116967000Y-100520500D03*
D27*
X113665000Y-110744000D03*
X114300000Y-109220000D03*
X114300000Y-105537000D03*
X115951000Y-111252000D03*
X115951000Y-109728000D03*
X127419100Y-106603800D03*
X124968000Y-91313000D03*
X125831600Y-89255600D03*
X124968000Y-93472000D03*
X115189000Y-106045000D03*
X145161000Y-109347000D03*
X125476000Y-105410000D03*
D29*
X137668000Y-104267000D02*
X137502900Y-104432100D01*
X137668000Y-104267000D02*
X138615000Y-104267000D01*
D30*
X119888000Y-110617000D02*
X119888000Y-109924000D01*
X115697000Y-107950000D02*
X116417000Y-107950000D01*
X115443000Y-108204000D02*
X115697000Y-107950000D01*
X121835000Y-106934000D02*
X122580400Y-106934000D01*
X122580400Y-106934000D02*
X122707400Y-106807000D01*
X120396000Y-104013000D02*
X120396000Y-104479000D01*
X120777000Y-103632000D02*
X120396000Y-104013000D01*
X118872000Y-104479000D02*
X118872000Y-103759000D01*
D29*
X129895600Y-91186000D02*
X127939800Y-89230200D01*
X132715000Y-91186000D02*
X129895600Y-91186000D01*
X133858000Y-92329000D02*
X132715000Y-91186000D01*
X145168200Y-94368200D02*
X145821400Y-94368200D01*
X144907000Y-94107000D02*
X145168200Y-94368200D01*
X145224500Y-93535500D02*
X145817500Y-93535500D01*
X144907000Y-93218000D02*
X145224500Y-93535500D01*
X141732000Y-110998000D02*
X141732000Y-110278000D01*
X141859000Y-111125000D02*
X141732000Y-110998000D01*
X140589000Y-110278000D02*
X140589000Y-110617000D01*
X140589000Y-110617000D02*
X141097000Y-111125000D01*
X140335000Y-111125000D02*
X140589000Y-110871000D01*
X140589000Y-110871000D02*
X140589000Y-110278000D01*
X139446000Y-110278000D02*
X139446000Y-110998000D01*
X139446000Y-110998000D02*
X139573000Y-111125000D01*
X139446000Y-110278000D02*
X140589000Y-110278000D01*
X140589000Y-110278000D02*
X141732000Y-110278000D01*
X145817500Y-93535500D02*
X145817500Y-94364300D01*
X145817500Y-94364300D02*
X145821400Y-94368200D01*
D30*
X139515000Y-103524900D02*
X139515000Y-104267000D01*
X139547600Y-103492300D02*
X139515000Y-103524900D01*
X127254000Y-99822000D02*
X128460500Y-101028500D01*
X128460500Y-101028500D02*
X128460500Y-101600000D01*
X146050000Y-113030000D02*
X133604000Y-113030000D01*
X132842000Y-110744000D02*
X132842000Y-112268000D01*
X132842000Y-112268000D02*
X133604000Y-113030000D01*
X131889500Y-104203500D02*
X132842000Y-105156000D01*
X129349500Y-104203500D02*
X131889500Y-104203500D01*
X128460500Y-103314500D02*
X129349500Y-104203500D01*
X128460500Y-101600000D02*
X128460500Y-103314500D01*
X132842000Y-105156000D02*
X132842000Y-110744000D01*
X115824000Y-92710000D02*
X116078000Y-92964000D01*
X116078000Y-92964000D02*
X132588000Y-92964000D01*
X114554000Y-91313000D02*
X114554000Y-91440000D01*
X114554000Y-91440000D02*
X115824000Y-92710000D01*
X135382000Y-95758000D02*
X132588000Y-92964000D01*
X139573000Y-112522000D02*
X136398000Y-112522000D01*
X146558000Y-112522000D02*
X145415000Y-112522000D01*
X145415000Y-112522000D02*
X139573000Y-112522000D01*
X135382000Y-111506000D02*
X135382000Y-104648000D01*
X136398000Y-112522000D02*
X135382000Y-111506000D01*
X135382000Y-104648000D02*
X135382000Y-95758000D01*
X136144000Y-95631000D02*
X132842000Y-92329000D01*
X132842000Y-92329000D02*
X121031000Y-92329000D01*
X138811000Y-111887000D02*
X136906000Y-111887000D01*
X147066000Y-111887000D02*
X145034000Y-111887000D01*
X145034000Y-111887000D02*
X138811000Y-111887000D01*
X136144000Y-111125000D02*
X136144000Y-104648000D01*
X136906000Y-111887000D02*
X136144000Y-111125000D01*
X136144000Y-104648000D02*
X136144000Y-95631000D01*
X144780000Y-107061000D02*
X144314000Y-107061000D01*
X145351500Y-107632500D02*
X144780000Y-107061000D01*
D29*
X130403600Y-99140100D02*
X130403600Y-99758500D01*
X130403600Y-99758500D02*
X130352800Y-99809300D01*
D31*
X139598400Y-90043000D02*
X138455400Y-90043000D01*
X138455400Y-90043000D02*
X138442700Y-90055700D01*
X139865100Y-91510100D02*
X139865100Y-90309700D01*
X138010900Y-88455500D02*
X135774500Y-88455500D01*
X139865100Y-90309700D02*
X139598400Y-90043000D01*
X139598400Y-90043000D02*
X138010900Y-88455500D01*
X145542000Y-88773000D02*
X146516000Y-88773000D01*
X145288000Y-88519000D02*
X145542000Y-88773000D01*
D29*
X145821400Y-95268200D02*
X146735800Y-95268200D01*
X146735800Y-95268200D02*
X146743000Y-95275400D01*
X145001400Y-95268200D02*
X145821400Y-95268200D01*
X144957800Y-95224600D02*
X145001400Y-95268200D01*
D30*
X122308200Y-90525600D02*
X122308200Y-90278800D01*
X122308200Y-90278800D02*
X121894600Y-89865200D01*
X122308200Y-89001600D02*
X122308200Y-88881800D01*
X122308200Y-88881800D02*
X121843800Y-88417400D01*
X122308200Y-87477600D02*
X122308200Y-87891200D01*
X122308200Y-87891200D02*
X122631200Y-88214200D01*
X112464000Y-96901000D02*
X113284000Y-96901000D01*
D29*
X124904500Y-106222800D02*
X124917200Y-106222800D01*
X137858500Y-106553000D02*
X138515000Y-106553000D01*
X137515600Y-106210100D02*
X137858500Y-106553000D01*
X118496500Y-100457000D02*
X118496500Y-101277000D01*
X118496500Y-101277000D02*
X118491000Y-101282500D01*
X123208200Y-87477600D02*
X123208200Y-89001600D01*
X123208200Y-89001600D02*
X123208200Y-90525600D01*
X123208200Y-90525600D02*
X123190000Y-90543800D01*
X123190000Y-90543800D02*
X123190000Y-91567000D01*
X138515000Y-105410000D02*
X138515000Y-106553000D01*
X138515000Y-105410000D02*
X137541000Y-105410000D01*
D32*
X117030500Y-100457000D02*
X117596500Y-100457000D01*
X116967000Y-100520500D02*
X117030500Y-100457000D01*
D30*
X112776000Y-110617000D02*
X113538000Y-110617000D01*
X113538000Y-110617000D02*
X113665000Y-110744000D01*
X109982000Y-105537000D02*
X111252000Y-106807000D01*
X108204000Y-105537000D02*
X109982000Y-105537000D01*
X107442000Y-106299000D02*
X108204000Y-105537000D01*
X107442000Y-110236000D02*
X107442000Y-106299000D01*
X107823000Y-110617000D02*
X107442000Y-110236000D01*
X112776000Y-110617000D02*
X107823000Y-110617000D01*
X109982000Y-108077000D02*
X108712000Y-106807000D01*
X111887000Y-108077000D02*
X109982000Y-108077000D01*
X112649000Y-108839000D02*
X111887000Y-108077000D01*
X113919000Y-108839000D02*
X112649000Y-108839000D01*
X114300000Y-109220000D02*
X113919000Y-108839000D01*
X114300000Y-105537000D02*
X114046000Y-105791000D01*
X114046000Y-106299000D02*
X114046000Y-108077000D01*
X114046000Y-105791000D02*
X114046000Y-106299000D01*
X114935000Y-108966000D02*
X114935000Y-109220000D01*
X114046000Y-108077000D02*
X114935000Y-108966000D01*
X112014000Y-110109000D02*
X111252000Y-109347000D01*
X114046000Y-110109000D02*
X112014000Y-110109000D01*
X114935000Y-109220000D02*
X114046000Y-110109000D01*
D29*
X120732550Y-111887000D02*
X122440700Y-111887000D01*
X125717300Y-108610400D02*
X125717300Y-106819700D01*
X122440700Y-111887000D02*
X125717300Y-108610400D01*
X116801900Y-111887000D02*
X120732550Y-111887000D01*
X114935000Y-111887000D02*
X116801900Y-111887000D01*
X111252000Y-111887000D02*
X114935000Y-111887000D01*
X127127000Y-105410000D02*
X127127000Y-102489000D01*
X125717300Y-106819700D02*
X127127000Y-105410000D01*
D30*
X115951000Y-109728000D02*
X115951000Y-111252000D01*
X127762000Y-107315000D02*
X127762000Y-106946700D01*
X127762000Y-106946700D02*
X127419100Y-106603800D01*
X124968000Y-93472000D02*
X124968000Y-100711000D01*
X123190000Y-102489000D02*
X121031000Y-102489000D01*
X124968000Y-100711000D02*
X123190000Y-102489000D01*
X125222000Y-91059000D02*
X125730000Y-91059000D01*
X124968000Y-91313000D02*
X125222000Y-91059000D01*
X125831600Y-90957400D02*
X125831600Y-89255600D01*
X125730000Y-91059000D02*
X125831600Y-90957400D01*
X147066000Y-113538000D02*
X128905000Y-113538000D01*
X147320000Y-109347000D02*
X145161000Y-109347000D01*
X147955000Y-109982000D02*
X147320000Y-109347000D01*
X147955000Y-112649000D02*
X147955000Y-109982000D01*
X147066000Y-113538000D02*
X147955000Y-112649000D01*
X127762000Y-109093000D02*
X127762000Y-112395000D01*
X127762000Y-107315000D02*
X127762000Y-109093000D01*
X127762000Y-112395000D02*
X128905000Y-113538000D01*
X115189000Y-106045000D02*
X115189000Y-104648000D01*
X115189000Y-104648000D02*
X117348000Y-102489000D01*
X117348000Y-102489000D02*
X120396000Y-102489000D01*
X120396000Y-102489000D02*
X121031000Y-102489000D01*
X123952000Y-105410000D02*
X121031000Y-102489000D01*
X125476000Y-105410000D02*
X123952000Y-105410000D01*
D33*
G36*
X155835000Y-113925000D02*
X107182000Y-113925000D01*
X107182000Y-110508028D01*
X107556984Y-110883011D01*
X107556986Y-110883014D01*
X107679034Y-110964563D01*
X107823000Y-110993200D01*
X107961370Y-110993200D01*
X107889211Y-111041415D01*
X107636974Y-111418914D01*
X107548400Y-111864204D01*
X107548400Y-111909796D01*
X107636974Y-112355086D01*
X107889211Y-112732585D01*
X108266710Y-112984822D01*
X108712000Y-113073396D01*
X109157290Y-112984822D01*
X109534789Y-112732585D01*
X109787026Y-112355086D01*
X109875600Y-111909796D01*
X109875600Y-111864204D01*
X109787026Y-111418914D01*
X109534789Y-111041415D01*
X109462630Y-110993200D01*
X110501370Y-110993200D01*
X110429211Y-111041415D01*
X110176974Y-111418914D01*
X110088400Y-111864204D01*
X110088400Y-111909796D01*
X110176974Y-112355086D01*
X110429211Y-112732585D01*
X110806710Y-112984822D01*
X111252000Y-113073396D01*
X111697290Y-112984822D01*
X112074789Y-112732585D01*
X112220960Y-112513824D01*
X124748896Y-112513824D01*
X124840048Y-112734429D01*
X125008683Y-112903359D01*
X125229129Y-112994896D01*
X125467824Y-112995104D01*
X125688429Y-112903952D01*
X125857359Y-112735317D01*
X125948896Y-112514871D01*
X125949104Y-112276176D01*
X125857952Y-112055571D01*
X125689317Y-111886641D01*
X125605899Y-111852003D01*
X125721824Y-111852104D01*
X125942429Y-111760952D01*
X126111359Y-111592317D01*
X126202896Y-111371871D01*
X126203104Y-111133176D01*
X126111952Y-110912571D01*
X125943317Y-110743641D01*
X125722871Y-110652104D01*
X125484176Y-110651896D01*
X125263571Y-110743048D01*
X125094641Y-110911683D01*
X125003104Y-111132129D01*
X125002896Y-111370824D01*
X125094048Y-111591429D01*
X125262683Y-111760359D01*
X125346101Y-111794997D01*
X125230176Y-111794896D01*
X125009571Y-111886048D01*
X124840641Y-112054683D01*
X124749104Y-112275129D01*
X124748896Y-112513824D01*
X112220960Y-112513824D01*
X112327026Y-112355086D01*
X112332622Y-112326954D01*
X122440700Y-112326954D01*
X122609063Y-112293464D01*
X122751794Y-112198094D01*
X126028394Y-108921495D01*
X126123764Y-108778763D01*
X126136089Y-108716800D01*
X126157254Y-108610400D01*
X126157254Y-107001934D01*
X127122364Y-106036824D01*
X128177896Y-106036824D01*
X128269048Y-106257429D01*
X128437683Y-106426359D01*
X128658129Y-106517896D01*
X128896824Y-106518104D01*
X129117429Y-106426952D01*
X129286359Y-106258317D01*
X129377896Y-106037871D01*
X129378104Y-105799176D01*
X129286952Y-105578571D01*
X129118317Y-105409641D01*
X128897871Y-105318104D01*
X128659176Y-105317896D01*
X128438571Y-105409048D01*
X128269641Y-105577683D01*
X128178104Y-105798129D01*
X128177896Y-106036824D01*
X127122364Y-106036824D01*
X127438095Y-105721094D01*
X127533464Y-105578363D01*
X127538317Y-105553965D01*
X127566954Y-105410000D01*
X127566954Y-103810877D01*
X127990600Y-103810877D01*
X128101773Y-103789958D01*
X128203879Y-103724255D01*
X128258413Y-103644441D01*
X129083484Y-104469511D01*
X129083486Y-104469514D01*
X129135151Y-104504035D01*
X129205535Y-104551064D01*
X129349500Y-104579701D01*
X129349505Y-104579700D01*
X131733672Y-104579700D01*
X132465800Y-105311827D01*
X132465800Y-112267995D01*
X132465799Y-112268000D01*
X132487687Y-112378034D01*
X132494437Y-112411966D01*
X132496804Y-112415508D01*
X132575986Y-112534014D01*
X133203773Y-113161800D01*
X129060827Y-113161800D01*
X128138200Y-112239172D01*
X128138200Y-106946705D01*
X128138201Y-106946700D01*
X128109564Y-106802735D01*
X128062135Y-106731752D01*
X128028014Y-106680686D01*
X128028011Y-106680684D01*
X127947703Y-106600376D01*
X127947792Y-106499116D01*
X127867487Y-106304763D01*
X127718919Y-106155936D01*
X127524706Y-106075292D01*
X127314416Y-106075108D01*
X127120063Y-106155413D01*
X126971236Y-106303981D01*
X126890592Y-106498194D01*
X126890408Y-106708484D01*
X126970713Y-106902837D01*
X127119281Y-107051664D01*
X127313494Y-107132308D01*
X127385800Y-107132371D01*
X127385800Y-112394995D01*
X127385799Y-112395000D01*
X127406946Y-112501308D01*
X127414437Y-112538966D01*
X127442933Y-112581613D01*
X127495986Y-112661014D01*
X128638984Y-113804011D01*
X128638986Y-113804014D01*
X128761034Y-113885563D01*
X128784921Y-113890314D01*
X128905000Y-113914201D01*
X128905005Y-113914200D01*
X147065995Y-113914200D01*
X147066000Y-113914201D01*
X147186079Y-113890314D01*
X147209966Y-113885563D01*
X147332014Y-113804014D01*
X147332015Y-113804013D01*
X148221011Y-112915016D01*
X148221014Y-112915014D01*
X148302563Y-112792966D01*
X148302564Y-112792965D01*
X148331201Y-112649000D01*
X148331200Y-112648995D01*
X148331200Y-109982005D01*
X148331201Y-109982000D01*
X148302564Y-109838035D01*
X148242744Y-109748508D01*
X148221014Y-109715986D01*
X148221011Y-109715984D01*
X147586014Y-109080986D01*
X147536591Y-109047963D01*
X147463966Y-108999437D01*
X147440079Y-108994686D01*
X147320000Y-108970799D01*
X147319995Y-108970800D01*
X145532358Y-108970800D01*
X145460819Y-108899136D01*
X145266606Y-108818492D01*
X145056316Y-108818308D01*
X144861963Y-108898613D01*
X144713136Y-109047181D01*
X144632492Y-109241394D01*
X144632308Y-109451684D01*
X144712613Y-109646037D01*
X144861181Y-109794864D01*
X145055394Y-109875508D01*
X145265684Y-109875692D01*
X145460037Y-109795387D01*
X145532350Y-109723200D01*
X147164172Y-109723200D01*
X147578800Y-110137827D01*
X147578800Y-111743854D01*
X147514387Y-111587963D01*
X147365819Y-111439136D01*
X147171606Y-111358492D01*
X146961316Y-111358308D01*
X146766963Y-111438613D01*
X146694650Y-111510800D01*
X142321796Y-111510800D01*
X142367359Y-111465317D01*
X142458896Y-111244871D01*
X142459104Y-111006176D01*
X142367952Y-110785571D01*
X142266436Y-110683877D01*
X142287877Y-110578000D01*
X142287877Y-109978000D01*
X142266958Y-109866827D01*
X142201255Y-109764721D01*
X142101003Y-109696222D01*
X141982000Y-109672123D01*
X141482000Y-109672123D01*
X141370827Y-109693042D01*
X141268721Y-109758745D01*
X141214537Y-109838046D01*
X139962438Y-109838046D01*
X139915255Y-109764721D01*
X139815003Y-109696222D01*
X139696000Y-109672123D01*
X139196000Y-109672123D01*
X139084827Y-109693042D01*
X138982721Y-109758745D01*
X138914222Y-109858997D01*
X138890123Y-109978000D01*
X138890123Y-110578000D01*
X138911042Y-110689173D01*
X138976745Y-110791279D01*
X139006046Y-110811299D01*
X139006046Y-110925796D01*
X138973104Y-111005129D01*
X138972896Y-111243824D01*
X139064048Y-111464429D01*
X139110338Y-111510800D01*
X137061827Y-111510800D01*
X136520200Y-110969172D01*
X136520200Y-106328924D01*
X136915496Y-106328924D01*
X137006648Y-106549529D01*
X137175283Y-106718459D01*
X137395729Y-106809996D01*
X137493392Y-106810081D01*
X137547406Y-106864095D01*
X137659211Y-106938800D01*
X137690137Y-106959464D01*
X137858500Y-106992954D01*
X137980736Y-106992954D01*
X137995745Y-107016279D01*
X138095997Y-107084778D01*
X138215000Y-107108877D01*
X138815000Y-107108877D01*
X138926173Y-107087958D01*
X139028279Y-107022255D01*
X139096778Y-106922003D01*
X139119256Y-106811000D01*
X143708123Y-106811000D01*
X143708123Y-107311000D01*
X143729042Y-107422173D01*
X143794745Y-107524279D01*
X143894997Y-107592778D01*
X144014000Y-107616877D01*
X144614000Y-107616877D01*
X144725173Y-107595958D01*
X144760316Y-107573344D01*
X144822897Y-107635925D01*
X144822808Y-107737184D01*
X144903113Y-107931537D01*
X145051681Y-108080364D01*
X145245894Y-108161008D01*
X145456184Y-108161192D01*
X145650537Y-108080887D01*
X145799364Y-107932319D01*
X145880008Y-107738106D01*
X145880192Y-107527816D01*
X145799887Y-107333463D01*
X145651319Y-107184636D01*
X145457106Y-107103992D01*
X145354931Y-107103903D01*
X145046014Y-106794986D01*
X145029877Y-106784204D01*
X144923966Y-106713437D01*
X144900646Y-106708798D01*
X144898958Y-106699827D01*
X144833255Y-106597721D01*
X144733003Y-106529222D01*
X144614000Y-106505123D01*
X144014000Y-106505123D01*
X143902827Y-106526042D01*
X143800721Y-106591745D01*
X143732222Y-106691997D01*
X143708123Y-106811000D01*
X139119256Y-106811000D01*
X139120877Y-106803000D01*
X139120877Y-106303000D01*
X139099958Y-106191827D01*
X139034255Y-106089721D01*
X138954954Y-106035537D01*
X138954954Y-105926438D01*
X139028279Y-105879255D01*
X139096778Y-105779003D01*
X139120877Y-105660000D01*
X139120877Y-105160000D01*
X139099958Y-105048827D01*
X139034255Y-104946721D01*
X138934003Y-104878222D01*
X138815000Y-104854123D01*
X138215000Y-104854123D01*
X138103827Y-104875042D01*
X138001721Y-104940745D01*
X137981701Y-104970046D01*
X137949603Y-104970046D01*
X137881317Y-104901641D01*
X137660871Y-104810104D01*
X137422176Y-104809896D01*
X137201571Y-104901048D01*
X137032641Y-105069683D01*
X136941104Y-105290129D01*
X136940896Y-105528824D01*
X137032048Y-105749429D01*
X137079843Y-105797308D01*
X137007241Y-105869783D01*
X136915704Y-106090229D01*
X136915496Y-106328924D01*
X136520200Y-106328924D01*
X136520200Y-103967000D01*
X139009123Y-103967000D01*
X139009123Y-104567000D01*
X139030042Y-104678173D01*
X139095745Y-104780279D01*
X139195997Y-104848778D01*
X139315000Y-104872877D01*
X139715000Y-104872877D01*
X139826173Y-104851958D01*
X139928279Y-104786255D01*
X139996778Y-104686003D01*
X140020877Y-104567000D01*
X140020877Y-103967000D01*
X139999958Y-103855827D01*
X139973239Y-103814305D01*
X139995464Y-103792119D01*
X140076108Y-103597906D01*
X140076292Y-103387616D01*
X139995987Y-103193263D01*
X139847419Y-103044436D01*
X139653206Y-102963792D01*
X139442916Y-102963608D01*
X139248563Y-103043913D01*
X139099736Y-103192481D01*
X139019092Y-103386694D01*
X139018908Y-103596984D01*
X139088934Y-103766460D01*
X139033222Y-103847997D01*
X139009123Y-103967000D01*
X136520200Y-103967000D01*
X136520200Y-95631000D01*
X136491563Y-95487034D01*
X136410014Y-95364986D01*
X136410011Y-95364984D01*
X134331051Y-93286024D01*
X138375996Y-93286024D01*
X138467148Y-93506629D01*
X138572038Y-93611702D01*
X138505841Y-93677783D01*
X138414304Y-93898229D01*
X138414096Y-94136924D01*
X138505248Y-94357529D01*
X138673883Y-94526459D01*
X138894329Y-94617996D01*
X139133024Y-94618204D01*
X139353629Y-94527052D01*
X139522559Y-94358417D01*
X139614096Y-94137971D01*
X139614304Y-93899276D01*
X139523152Y-93678671D01*
X139418262Y-93573598D01*
X139484459Y-93507517D01*
X139555336Y-93336824D01*
X144306896Y-93336824D01*
X144398048Y-93557429D01*
X144502971Y-93662535D01*
X144398641Y-93766683D01*
X144307104Y-93987129D01*
X144306896Y-94225824D01*
X144398048Y-94446429D01*
X144566683Y-94615359D01*
X144713523Y-94676332D01*
X144618371Y-94715648D01*
X144449441Y-94884283D01*
X144357904Y-95104729D01*
X144357696Y-95343424D01*
X144448848Y-95564029D01*
X144617483Y-95732959D01*
X144837929Y-95824496D01*
X145076624Y-95824704D01*
X145297229Y-95733552D01*
X145322671Y-95708154D01*
X145341185Y-95708154D01*
X145402397Y-95749978D01*
X145521400Y-95774077D01*
X146121400Y-95774077D01*
X146232573Y-95753158D01*
X146280884Y-95722071D01*
X146323745Y-95788679D01*
X146423997Y-95857178D01*
X146543000Y-95881277D01*
X146943000Y-95881277D01*
X147054173Y-95860358D01*
X147156279Y-95794655D01*
X147224778Y-95694403D01*
X147248877Y-95575400D01*
X147248877Y-94975400D01*
X147227958Y-94864227D01*
X147162255Y-94762121D01*
X147062003Y-94693622D01*
X146943000Y-94669523D01*
X146543000Y-94669523D01*
X146431827Y-94690442D01*
X146376749Y-94725884D01*
X146403178Y-94687203D01*
X146427277Y-94568200D01*
X146427277Y-94168200D01*
X146406358Y-94057027D01*
X146394486Y-94038577D01*
X146690600Y-94038577D01*
X146801773Y-94017658D01*
X146903879Y-93951955D01*
X146972378Y-93851703D01*
X146996477Y-93732700D01*
X146996477Y-92982700D01*
X146975558Y-92871527D01*
X146909855Y-92769421D01*
X146809603Y-92700922D01*
X146690600Y-92676823D01*
X145490600Y-92676823D01*
X145379427Y-92697742D01*
X145291755Y-92754157D01*
X145247317Y-92709641D01*
X145026871Y-92618104D01*
X144788176Y-92617896D01*
X144567571Y-92709048D01*
X144398641Y-92877683D01*
X144307104Y-93098129D01*
X144306896Y-93336824D01*
X139555336Y-93336824D01*
X139575996Y-93287071D01*
X139576204Y-93048376D01*
X139485052Y-92827771D01*
X139316417Y-92658841D01*
X139095971Y-92567304D01*
X138857276Y-92567096D01*
X138636671Y-92658248D01*
X138467741Y-92826883D01*
X138376204Y-93047329D01*
X138375996Y-93286024D01*
X134331051Y-93286024D01*
X133974129Y-92929102D01*
X133976824Y-92929104D01*
X134197429Y-92837952D01*
X134366359Y-92669317D01*
X134457896Y-92448871D01*
X134458104Y-92210176D01*
X134408931Y-92091167D01*
X135664294Y-92091167D01*
X135845079Y-92528700D01*
X136179539Y-92863744D01*
X136616756Y-93045293D01*
X137090167Y-93045706D01*
X137527700Y-92864921D01*
X137862744Y-92530461D01*
X138044293Y-92093244D01*
X138044706Y-91619833D01*
X137863921Y-91182300D01*
X137529461Y-90847256D01*
X137092244Y-90665707D01*
X136618833Y-90665294D01*
X136181300Y-90846079D01*
X135846256Y-91180539D01*
X135664707Y-91617756D01*
X135664294Y-92091167D01*
X134408931Y-92091167D01*
X134366952Y-91989571D01*
X134198317Y-91820641D01*
X133977871Y-91729104D01*
X133880208Y-91729019D01*
X133026094Y-90874906D01*
X132883363Y-90779536D01*
X132715000Y-90746046D01*
X130077835Y-90746046D01*
X128539820Y-89208032D01*
X128539904Y-89111376D01*
X128448752Y-88890771D01*
X128370090Y-88811971D01*
X133974188Y-88811971D01*
X134247645Y-89473786D01*
X134753551Y-89980576D01*
X135414887Y-90255187D01*
X136130971Y-90255812D01*
X136792786Y-89982355D01*
X137299576Y-89476449D01*
X137495131Y-89005500D01*
X137783082Y-89005500D01*
X138106567Y-89328985D01*
X137990128Y-89377097D01*
X137764888Y-89601945D01*
X137642839Y-89895872D01*
X137642561Y-90214132D01*
X137764097Y-90508272D01*
X137988945Y-90733512D01*
X138282872Y-90855561D01*
X138601132Y-90855839D01*
X138895272Y-90734303D01*
X139036821Y-90593000D01*
X139315100Y-90593000D01*
X139315100Y-91510100D01*
X139325223Y-91560992D01*
X139325223Y-92205300D01*
X139346142Y-92316473D01*
X139411845Y-92418579D01*
X139512097Y-92487078D01*
X139631100Y-92511177D01*
X142131100Y-92511177D01*
X142242273Y-92490258D01*
X142344379Y-92424555D01*
X142412878Y-92324303D01*
X142436977Y-92205300D01*
X142436977Y-90205300D01*
X142416058Y-90094127D01*
X142350355Y-89992021D01*
X142250103Y-89923522D01*
X142131100Y-89899423D01*
X140232641Y-89899423D01*
X139010650Y-88677432D01*
X144487861Y-88677432D01*
X144609397Y-88971572D01*
X144834245Y-89196812D01*
X145128172Y-89318861D01*
X145446432Y-89319139D01*
X145471180Y-89308913D01*
X145542000Y-89323000D01*
X146186979Y-89323000D01*
X146216000Y-89328877D01*
X146816000Y-89328877D01*
X146927173Y-89307958D01*
X147029279Y-89242255D01*
X147097778Y-89142003D01*
X147121877Y-89023000D01*
X147121877Y-88523000D01*
X147100958Y-88411827D01*
X147035255Y-88309721D01*
X146935003Y-88241222D01*
X146816000Y-88217123D01*
X146216000Y-88217123D01*
X146184767Y-88223000D01*
X146031297Y-88223000D01*
X145966603Y-88066428D01*
X145741755Y-87841188D01*
X145447828Y-87719139D01*
X145129568Y-87718861D01*
X144835428Y-87840397D01*
X144610188Y-88065245D01*
X144488139Y-88359172D01*
X144487861Y-88677432D01*
X139010650Y-88677432D01*
X138399809Y-88066591D01*
X138221376Y-87947366D01*
X138010900Y-87905500D01*
X137494847Y-87905500D01*
X137301355Y-87437214D01*
X136795449Y-86930424D01*
X136134113Y-86655813D01*
X135418029Y-86655188D01*
X134756214Y-86928645D01*
X134249424Y-87434551D01*
X133974813Y-88095887D01*
X133974188Y-88811971D01*
X128370090Y-88811971D01*
X128280117Y-88721841D01*
X128059671Y-88630304D01*
X127820976Y-88630096D01*
X127600371Y-88721248D01*
X127431441Y-88889883D01*
X127339904Y-89110329D01*
X127339696Y-89349024D01*
X127430848Y-89569629D01*
X127599483Y-89738559D01*
X127819929Y-89830096D01*
X127917593Y-89830181D01*
X129584506Y-91497095D01*
X129714517Y-91583965D01*
X129727237Y-91592464D01*
X129895600Y-91625954D01*
X132532766Y-91625954D01*
X132863984Y-91957172D01*
X132842000Y-91952799D01*
X132841995Y-91952800D01*
X123652796Y-91952800D01*
X123698359Y-91907317D01*
X123789896Y-91686871D01*
X123790104Y-91448176D01*
X123777505Y-91417684D01*
X124439308Y-91417684D01*
X124519613Y-91612037D01*
X124668181Y-91760864D01*
X124862394Y-91841508D01*
X125072684Y-91841692D01*
X125267037Y-91761387D01*
X125415864Y-91612819D01*
X125489618Y-91435200D01*
X125729995Y-91435200D01*
X125730000Y-91435201D01*
X125850079Y-91411314D01*
X125873966Y-91406563D01*
X125996014Y-91325014D01*
X126097614Y-91223414D01*
X126130640Y-91173986D01*
X126179163Y-91101366D01*
X126196549Y-91013963D01*
X126207801Y-90957400D01*
X126207800Y-90957395D01*
X126207800Y-89626958D01*
X126279464Y-89555419D01*
X126360108Y-89361206D01*
X126360292Y-89150916D01*
X126279987Y-88956563D01*
X126131419Y-88807736D01*
X125937206Y-88727092D01*
X125726916Y-88726908D01*
X125532563Y-88807213D01*
X125383736Y-88955781D01*
X125303092Y-89149994D01*
X125302908Y-89360284D01*
X125383213Y-89554637D01*
X125455400Y-89626950D01*
X125455400Y-90682800D01*
X125222000Y-90682800D01*
X125078034Y-90711437D01*
X124968836Y-90784400D01*
X124863316Y-90784308D01*
X124668963Y-90864613D01*
X124520136Y-91013181D01*
X124439492Y-91207394D01*
X124439308Y-91417684D01*
X123777505Y-91417684D01*
X123698952Y-91227571D01*
X123629954Y-91158452D01*
X123629954Y-91032451D01*
X123689978Y-90944603D01*
X123714077Y-90825600D01*
X123714077Y-90225600D01*
X123693158Y-90114427D01*
X123648154Y-90044488D01*
X123648154Y-89481815D01*
X123689978Y-89420603D01*
X123714077Y-89301600D01*
X123714077Y-88701600D01*
X123693158Y-88590427D01*
X123648154Y-88520488D01*
X123648154Y-87957815D01*
X123689978Y-87896603D01*
X123714077Y-87777600D01*
X123714077Y-87177600D01*
X123693158Y-87066427D01*
X123627455Y-86964321D01*
X123527203Y-86895822D01*
X123408200Y-86871723D01*
X123008200Y-86871723D01*
X122897027Y-86892642D01*
X122794921Y-86958345D01*
X122758196Y-87012094D01*
X122727455Y-86964321D01*
X122627203Y-86895822D01*
X122508200Y-86871723D01*
X122108200Y-86871723D01*
X121997027Y-86892642D01*
X121894921Y-86958345D01*
X121826422Y-87058597D01*
X121802323Y-87177600D01*
X121802323Y-87777600D01*
X121823242Y-87888773D01*
X121823248Y-87888782D01*
X121739116Y-87888708D01*
X121544763Y-87969013D01*
X121395936Y-88117581D01*
X121315292Y-88311794D01*
X121315108Y-88522084D01*
X121395413Y-88716437D01*
X121543981Y-88865264D01*
X121738194Y-88945908D01*
X121802323Y-88945964D01*
X121802323Y-89301600D01*
X121808895Y-89336525D01*
X121789916Y-89336508D01*
X121595563Y-89416813D01*
X121446736Y-89565381D01*
X121366092Y-89759594D01*
X121365908Y-89969884D01*
X121446213Y-90164237D01*
X121594781Y-90313064D01*
X121788994Y-90393708D01*
X121802323Y-90393720D01*
X121802323Y-90825600D01*
X121823242Y-90936773D01*
X121888945Y-91038879D01*
X121989197Y-91107378D01*
X122108200Y-91131477D01*
X122508200Y-91131477D01*
X122619373Y-91110558D01*
X122721479Y-91044855D01*
X122750046Y-91003046D01*
X122750046Y-91158397D01*
X122681641Y-91226683D01*
X122590104Y-91447129D01*
X122589896Y-91685824D01*
X122681048Y-91906429D01*
X122727338Y-91952800D01*
X121402358Y-91952800D01*
X121330819Y-91881136D01*
X121136606Y-91800492D01*
X120926316Y-91800308D01*
X120731963Y-91880613D01*
X120583136Y-92029181D01*
X120502492Y-92223394D01*
X120502308Y-92433684D01*
X120565987Y-92587800D01*
X116233827Y-92587800D01*
X116090014Y-92443986D01*
X116090011Y-92443984D01*
X115582529Y-91936502D01*
X115742793Y-91550544D01*
X115743206Y-91077531D01*
X115562573Y-90640365D01*
X115228394Y-90305603D01*
X114791544Y-90124207D01*
X114318531Y-90123794D01*
X113881365Y-90304427D01*
X113546603Y-90638606D01*
X113365207Y-91075456D01*
X113364794Y-91548469D01*
X113545427Y-91985635D01*
X113879606Y-92320397D01*
X114316456Y-92501793D01*
X114789469Y-92502206D01*
X114998011Y-92416038D01*
X115557984Y-92976011D01*
X115557986Y-92976014D01*
X115811984Y-93230011D01*
X115811986Y-93230014D01*
X115934034Y-93311563D01*
X116078000Y-93340200D01*
X124450369Y-93340200D01*
X124439492Y-93366394D01*
X124439308Y-93576684D01*
X124519613Y-93771037D01*
X124591800Y-93843350D01*
X124591800Y-100555173D01*
X123034172Y-102112800D01*
X121031005Y-102112800D01*
X121031000Y-102112799D01*
X121030995Y-102112800D01*
X117348005Y-102112800D01*
X117348000Y-102112799D01*
X117227921Y-102136686D01*
X117204034Y-102141437D01*
X117149454Y-102177906D01*
X117081986Y-102222986D01*
X114922986Y-104381986D01*
X114841437Y-104504034D01*
X114841437Y-104504035D01*
X114812799Y-104648000D01*
X114812800Y-104648005D01*
X114812800Y-105393854D01*
X114748387Y-105237963D01*
X114599819Y-105089136D01*
X114405606Y-105008492D01*
X114195316Y-105008308D01*
X114000963Y-105088613D01*
X113852136Y-105237181D01*
X113771492Y-105431394D01*
X113771399Y-105537838D01*
X113698437Y-105647034D01*
X113698437Y-105647035D01*
X113669799Y-105791000D01*
X113669800Y-105791005D01*
X113669800Y-108076995D01*
X113669799Y-108077000D01*
X113686430Y-108160604D01*
X113698437Y-108220966D01*
X113749617Y-108297563D01*
X113779986Y-108343014D01*
X113899772Y-108462800D01*
X112804827Y-108462800D01*
X112153014Y-107810986D01*
X112070924Y-107756136D01*
X112030966Y-107729437D01*
X112007079Y-107724686D01*
X111976104Y-107718524D01*
X112074789Y-107652585D01*
X112327026Y-107275086D01*
X112415600Y-106829796D01*
X112415600Y-106784204D01*
X112327026Y-106338914D01*
X112074789Y-105961415D01*
X111697290Y-105709178D01*
X111252000Y-105620604D01*
X110806710Y-105709178D01*
X110734473Y-105757445D01*
X110248014Y-105270986D01*
X110240603Y-105266034D01*
X110125966Y-105189437D01*
X110102079Y-105184686D01*
X109982000Y-105160799D01*
X109981995Y-105160800D01*
X109462630Y-105160800D01*
X109534789Y-105112585D01*
X109787026Y-104735086D01*
X109875600Y-104289796D01*
X109875600Y-104244204D01*
X110088400Y-104244204D01*
X110088400Y-104289796D01*
X110176974Y-104735086D01*
X110429211Y-105112585D01*
X110806710Y-105364822D01*
X111252000Y-105453396D01*
X111697290Y-105364822D01*
X112074789Y-105112585D01*
X112327026Y-104735086D01*
X112415600Y-104289796D01*
X112415600Y-104244204D01*
X112327026Y-103798914D01*
X112074789Y-103421415D01*
X111697290Y-103169178D01*
X111252000Y-103080604D01*
X110806710Y-103169178D01*
X110429211Y-103421415D01*
X110176974Y-103798914D01*
X110088400Y-104244204D01*
X109875600Y-104244204D01*
X109787026Y-103798914D01*
X109534789Y-103421415D01*
X109157290Y-103169178D01*
X108712000Y-103080604D01*
X108266710Y-103169178D01*
X107889211Y-103421415D01*
X107636974Y-103798914D01*
X107548400Y-104244204D01*
X107548400Y-104289796D01*
X107636974Y-104735086D01*
X107889211Y-105112585D01*
X108032131Y-105208081D01*
X107937986Y-105270986D01*
X107937984Y-105270989D01*
X107182000Y-106026972D01*
X107182000Y-101704204D01*
X107548400Y-101704204D01*
X107548400Y-101749796D01*
X107636974Y-102195086D01*
X107889211Y-102572585D01*
X108266710Y-102824822D01*
X108712000Y-102913396D01*
X109157290Y-102824822D01*
X109534789Y-102572585D01*
X109787026Y-102195086D01*
X109875600Y-101749796D01*
X109875600Y-101704204D01*
X109787026Y-101258914D01*
X109534789Y-100881415D01*
X109172475Y-100639324D01*
X116366896Y-100639324D01*
X116458048Y-100859929D01*
X116626683Y-101028859D01*
X116847129Y-101120396D01*
X117085824Y-101120604D01*
X117281766Y-101039643D01*
X117396500Y-101062877D01*
X117796500Y-101062877D01*
X117907673Y-101041958D01*
X117953439Y-101012508D01*
X117891104Y-101162629D01*
X117890896Y-101401324D01*
X117982048Y-101621929D01*
X118150683Y-101790859D01*
X118371129Y-101882396D01*
X118609824Y-101882604D01*
X118830429Y-101791452D01*
X118999359Y-101622817D01*
X119090896Y-101402371D01*
X119091104Y-101163676D01*
X118999952Y-100943071D01*
X118959880Y-100902929D01*
X118978278Y-100876003D01*
X119002377Y-100757000D01*
X119002377Y-100157000D01*
X118981458Y-100045827D01*
X118915755Y-99943721D01*
X118815503Y-99875222D01*
X118696500Y-99851123D01*
X118296500Y-99851123D01*
X118185327Y-99872042D01*
X118083221Y-99937745D01*
X118046496Y-99991494D01*
X118015755Y-99943721D01*
X117915503Y-99875222D01*
X117796500Y-99851123D01*
X117396500Y-99851123D01*
X117285327Y-99872042D01*
X117183221Y-99937745D01*
X117171050Y-99955558D01*
X117086871Y-99920604D01*
X116848176Y-99920396D01*
X116627571Y-100011548D01*
X116458641Y-100180183D01*
X116367104Y-100400629D01*
X116366896Y-100639324D01*
X109172475Y-100639324D01*
X109157290Y-100629178D01*
X108712000Y-100540604D01*
X108266710Y-100629178D01*
X107889211Y-100881415D01*
X107636974Y-101258914D01*
X107548400Y-101704204D01*
X107182000Y-101704204D01*
X107182000Y-98035824D01*
X109635896Y-98035824D01*
X109727048Y-98256429D01*
X109895683Y-98425359D01*
X110116129Y-98516896D01*
X110354824Y-98517104D01*
X110575429Y-98425952D01*
X110744359Y-98257317D01*
X110835896Y-98036871D01*
X110836104Y-97798176D01*
X110744952Y-97577571D01*
X110576317Y-97408641D01*
X110355871Y-97317104D01*
X110117176Y-97316896D01*
X109896571Y-97408048D01*
X109727641Y-97576683D01*
X109636104Y-97797129D01*
X109635896Y-98035824D01*
X107182000Y-98035824D01*
X107182000Y-96601000D01*
X111958123Y-96601000D01*
X111958123Y-97201000D01*
X111979042Y-97312173D01*
X112044745Y-97414279D01*
X112144997Y-97482778D01*
X112264000Y-97506877D01*
X112664000Y-97506877D01*
X112775173Y-97485958D01*
X112877279Y-97420255D01*
X112945778Y-97320003D01*
X112947396Y-97312015D01*
X112984181Y-97348864D01*
X113178394Y-97429508D01*
X113388684Y-97429692D01*
X113583037Y-97349387D01*
X113731864Y-97200819D01*
X113750889Y-97155000D01*
X115670523Y-97155000D01*
X115670523Y-99187000D01*
X115691442Y-99298173D01*
X115757145Y-99400279D01*
X115857397Y-99468778D01*
X115976400Y-99492877D01*
X117703600Y-99492877D01*
X117814773Y-99471958D01*
X117916879Y-99406255D01*
X117985378Y-99306003D01*
X118009477Y-99187000D01*
X118009477Y-97992818D01*
X118216400Y-97992818D01*
X118216400Y-98349182D01*
X118304974Y-98794472D01*
X118557211Y-99171971D01*
X118934710Y-99424208D01*
X119380000Y-99512782D01*
X119825290Y-99424208D01*
X120202789Y-99171971D01*
X120455026Y-98794472D01*
X120543600Y-98349182D01*
X120543600Y-97992818D01*
X120756400Y-97992818D01*
X120756400Y-98349182D01*
X120844974Y-98794472D01*
X121097211Y-99171971D01*
X121474710Y-99424208D01*
X121920000Y-99512782D01*
X122365290Y-99424208D01*
X122742789Y-99171971D01*
X122995026Y-98794472D01*
X123083600Y-98349182D01*
X123083600Y-97992818D01*
X122995026Y-97547528D01*
X122742789Y-97170029D01*
X122365290Y-96917792D01*
X121920000Y-96829218D01*
X121474710Y-96917792D01*
X121097211Y-97170029D01*
X120844974Y-97547528D01*
X120756400Y-97992818D01*
X120543600Y-97992818D01*
X120455026Y-97547528D01*
X120202789Y-97170029D01*
X119825290Y-96917792D01*
X119380000Y-96829218D01*
X118934710Y-96917792D01*
X118557211Y-97170029D01*
X118304974Y-97547528D01*
X118216400Y-97992818D01*
X118009477Y-97992818D01*
X118009477Y-97155000D01*
X117988558Y-97043827D01*
X117922855Y-96941721D01*
X117822603Y-96873222D01*
X117703600Y-96849123D01*
X115976400Y-96849123D01*
X115865227Y-96870042D01*
X115763121Y-96935745D01*
X115694622Y-97035997D01*
X115670523Y-97155000D01*
X113750889Y-97155000D01*
X113812508Y-97006606D01*
X113812692Y-96796316D01*
X113732387Y-96601963D01*
X113583819Y-96453136D01*
X113389606Y-96372492D01*
X113179316Y-96372308D01*
X112984963Y-96452613D01*
X112948460Y-96489053D01*
X112883255Y-96387721D01*
X112783003Y-96319222D01*
X112664000Y-96295123D01*
X112264000Y-96295123D01*
X112152827Y-96316042D01*
X112050721Y-96381745D01*
X111982222Y-96481997D01*
X111958123Y-96601000D01*
X107182000Y-96601000D01*
X107182000Y-94817818D01*
X113136400Y-94817818D01*
X113136400Y-95174182D01*
X113224974Y-95619472D01*
X113477211Y-95996971D01*
X113854710Y-96249208D01*
X114300000Y-96337782D01*
X114745290Y-96249208D01*
X115122789Y-95996971D01*
X115375026Y-95619472D01*
X115463600Y-95174182D01*
X115463600Y-94817818D01*
X115676400Y-94817818D01*
X115676400Y-95174182D01*
X115764974Y-95619472D01*
X116017211Y-95996971D01*
X116394710Y-96249208D01*
X116840000Y-96337782D01*
X117285290Y-96249208D01*
X117662789Y-95996971D01*
X117915026Y-95619472D01*
X118003600Y-95174182D01*
X118003600Y-94817818D01*
X117915026Y-94372528D01*
X117662789Y-93995029D01*
X117640297Y-93980000D01*
X118210523Y-93980000D01*
X118210523Y-96012000D01*
X118231442Y-96123173D01*
X118297145Y-96225279D01*
X118397397Y-96293778D01*
X118516400Y-96317877D01*
X120243600Y-96317877D01*
X120354773Y-96296958D01*
X120456879Y-96231255D01*
X120525378Y-96131003D01*
X120549477Y-96012000D01*
X120549477Y-93980000D01*
X120528558Y-93868827D01*
X120462855Y-93766721D01*
X120362603Y-93698222D01*
X120243600Y-93674123D01*
X118516400Y-93674123D01*
X118405227Y-93695042D01*
X118303121Y-93760745D01*
X118234622Y-93860997D01*
X118210523Y-93980000D01*
X117640297Y-93980000D01*
X117285290Y-93742792D01*
X116840000Y-93654218D01*
X116394710Y-93742792D01*
X116017211Y-93995029D01*
X115764974Y-94372528D01*
X115676400Y-94817818D01*
X115463600Y-94817818D01*
X115375026Y-94372528D01*
X115122789Y-93995029D01*
X114745290Y-93742792D01*
X114300000Y-93654218D01*
X113854710Y-93742792D01*
X113477211Y-93995029D01*
X113224974Y-94372528D01*
X113136400Y-94817818D01*
X107182000Y-94817818D01*
X107182000Y-91548469D01*
X110875594Y-91548469D01*
X111056227Y-91985635D01*
X111390406Y-92320397D01*
X111827256Y-92501793D01*
X112300269Y-92502206D01*
X112737435Y-92321573D01*
X113072197Y-91987394D01*
X113253593Y-91550544D01*
X113254006Y-91077531D01*
X113073373Y-90640365D01*
X112739194Y-90305603D01*
X112302344Y-90124207D01*
X111829331Y-90123794D01*
X111392165Y-90304427D01*
X111057403Y-90638606D01*
X110876007Y-91075456D01*
X110875594Y-91548469D01*
X107182000Y-91548469D01*
X107182000Y-88246469D01*
X110875594Y-88246469D01*
X111056227Y-88683635D01*
X111390406Y-89018397D01*
X111827256Y-89199793D01*
X112300269Y-89200206D01*
X112737435Y-89019573D01*
X113072197Y-88685394D01*
X113253593Y-88248544D01*
X113253594Y-88246469D01*
X113364794Y-88246469D01*
X113545427Y-88683635D01*
X113879606Y-89018397D01*
X114316456Y-89199793D01*
X114789469Y-89200206D01*
X115226635Y-89019573D01*
X115561397Y-88685394D01*
X115742793Y-88248544D01*
X115742794Y-88246469D01*
X115853994Y-88246469D01*
X116034627Y-88683635D01*
X116368806Y-89018397D01*
X116805656Y-89199793D01*
X117278669Y-89200206D01*
X117715835Y-89019573D01*
X118050597Y-88685394D01*
X118231993Y-88248544D01*
X118232406Y-87775531D01*
X118051773Y-87338365D01*
X117717594Y-87003603D01*
X117280744Y-86822207D01*
X116807731Y-86821794D01*
X116370565Y-87002427D01*
X116035803Y-87336606D01*
X115854407Y-87773456D01*
X115853994Y-88246469D01*
X115742794Y-88246469D01*
X115743206Y-87775531D01*
X115562573Y-87338365D01*
X115228394Y-87003603D01*
X114791544Y-86822207D01*
X114318531Y-86821794D01*
X113881365Y-87002427D01*
X113546603Y-87336606D01*
X113365207Y-87773456D01*
X113364794Y-88246469D01*
X113253594Y-88246469D01*
X113254006Y-87775531D01*
X113073373Y-87338365D01*
X112739194Y-87003603D01*
X112302344Y-86822207D01*
X111829331Y-86821794D01*
X111392165Y-87002427D01*
X111057403Y-87336606D01*
X110876007Y-87773456D01*
X110875594Y-88246469D01*
X107182000Y-88246469D01*
X107182000Y-86481000D01*
X155835000Y-86481000D01*
X155835000Y-113925000D01*
X155835000Y-113925000D01*
G37*
X155835000Y-113925000D02*
X107182000Y-113925000D01*
X107182000Y-110508028D01*
X107556984Y-110883011D01*
X107556986Y-110883014D01*
X107679034Y-110964563D01*
X107823000Y-110993200D01*
X107961370Y-110993200D01*
X107889211Y-111041415D01*
X107636974Y-111418914D01*
X107548400Y-111864204D01*
X107548400Y-111909796D01*
X107636974Y-112355086D01*
X107889211Y-112732585D01*
X108266710Y-112984822D01*
X108712000Y-113073396D01*
X109157290Y-112984822D01*
X109534789Y-112732585D01*
X109787026Y-112355086D01*
X109875600Y-111909796D01*
X109875600Y-111864204D01*
X109787026Y-111418914D01*
X109534789Y-111041415D01*
X109462630Y-110993200D01*
X110501370Y-110993200D01*
X110429211Y-111041415D01*
X110176974Y-111418914D01*
X110088400Y-111864204D01*
X110088400Y-111909796D01*
X110176974Y-112355086D01*
X110429211Y-112732585D01*
X110806710Y-112984822D01*
X111252000Y-113073396D01*
X111697290Y-112984822D01*
X112074789Y-112732585D01*
X112220960Y-112513824D01*
X124748896Y-112513824D01*
X124840048Y-112734429D01*
X125008683Y-112903359D01*
X125229129Y-112994896D01*
X125467824Y-112995104D01*
X125688429Y-112903952D01*
X125857359Y-112735317D01*
X125948896Y-112514871D01*
X125949104Y-112276176D01*
X125857952Y-112055571D01*
X125689317Y-111886641D01*
X125605899Y-111852003D01*
X125721824Y-111852104D01*
X125942429Y-111760952D01*
X126111359Y-111592317D01*
X126202896Y-111371871D01*
X126203104Y-111133176D01*
X126111952Y-110912571D01*
X125943317Y-110743641D01*
X125722871Y-110652104D01*
X125484176Y-110651896D01*
X125263571Y-110743048D01*
X125094641Y-110911683D01*
X125003104Y-111132129D01*
X125002896Y-111370824D01*
X125094048Y-111591429D01*
X125262683Y-111760359D01*
X125346101Y-111794997D01*
X125230176Y-111794896D01*
X125009571Y-111886048D01*
X124840641Y-112054683D01*
X124749104Y-112275129D01*
X124748896Y-112513824D01*
X112220960Y-112513824D01*
X112327026Y-112355086D01*
X112332622Y-112326954D01*
X122440700Y-112326954D01*
X122609063Y-112293464D01*
X122751794Y-112198094D01*
X126028394Y-108921495D01*
X126123764Y-108778763D01*
X126136089Y-108716800D01*
X126157254Y-108610400D01*
X126157254Y-107001934D01*
X127122364Y-106036824D01*
X128177896Y-106036824D01*
X128269048Y-106257429D01*
X128437683Y-106426359D01*
X128658129Y-106517896D01*
X128896824Y-106518104D01*
X129117429Y-106426952D01*
X129286359Y-106258317D01*
X129377896Y-106037871D01*
X129378104Y-105799176D01*
X129286952Y-105578571D01*
X129118317Y-105409641D01*
X128897871Y-105318104D01*
X128659176Y-105317896D01*
X128438571Y-105409048D01*
X128269641Y-105577683D01*
X128178104Y-105798129D01*
X128177896Y-106036824D01*
X127122364Y-106036824D01*
X127438095Y-105721094D01*
X127533464Y-105578363D01*
X127538317Y-105553965D01*
X127566954Y-105410000D01*
X127566954Y-103810877D01*
X127990600Y-103810877D01*
X128101773Y-103789958D01*
X128203879Y-103724255D01*
X128258413Y-103644441D01*
X129083484Y-104469511D01*
X129083486Y-104469514D01*
X129135151Y-104504035D01*
X129205535Y-104551064D01*
X129349500Y-104579701D01*
X129349505Y-104579700D01*
X131733672Y-104579700D01*
X132465800Y-105311827D01*
X132465800Y-112267995D01*
X132465799Y-112268000D01*
X132487687Y-112378034D01*
X132494437Y-112411966D01*
X132496804Y-112415508D01*
X132575986Y-112534014D01*
X133203773Y-113161800D01*
X129060827Y-113161800D01*
X128138200Y-112239172D01*
X128138200Y-106946705D01*
X128138201Y-106946700D01*
X128109564Y-106802735D01*
X128062135Y-106731752D01*
X128028014Y-106680686D01*
X128028011Y-106680684D01*
X127947703Y-106600376D01*
X127947792Y-106499116D01*
X127867487Y-106304763D01*
X127718919Y-106155936D01*
X127524706Y-106075292D01*
X127314416Y-106075108D01*
X127120063Y-106155413D01*
X126971236Y-106303981D01*
X126890592Y-106498194D01*
X126890408Y-106708484D01*
X126970713Y-106902837D01*
X127119281Y-107051664D01*
X127313494Y-107132308D01*
X127385800Y-107132371D01*
X127385800Y-112394995D01*
X127385799Y-112395000D01*
X127406946Y-112501308D01*
X127414437Y-112538966D01*
X127442933Y-112581613D01*
X127495986Y-112661014D01*
X128638984Y-113804011D01*
X128638986Y-113804014D01*
X128761034Y-113885563D01*
X128784921Y-113890314D01*
X128905000Y-113914201D01*
X128905005Y-113914200D01*
X147065995Y-113914200D01*
X147066000Y-113914201D01*
X147186079Y-113890314D01*
X147209966Y-113885563D01*
X147332014Y-113804014D01*
X147332015Y-113804013D01*
X148221011Y-112915016D01*
X148221014Y-112915014D01*
X148302563Y-112792966D01*
X148302564Y-112792965D01*
X148331201Y-112649000D01*
X148331200Y-112648995D01*
X148331200Y-109982005D01*
X148331201Y-109982000D01*
X148302564Y-109838035D01*
X148242744Y-109748508D01*
X148221014Y-109715986D01*
X148221011Y-109715984D01*
X147586014Y-109080986D01*
X147536591Y-109047963D01*
X147463966Y-108999437D01*
X147440079Y-108994686D01*
X147320000Y-108970799D01*
X147319995Y-108970800D01*
X145532358Y-108970800D01*
X145460819Y-108899136D01*
X145266606Y-108818492D01*
X145056316Y-108818308D01*
X144861963Y-108898613D01*
X144713136Y-109047181D01*
X144632492Y-109241394D01*
X144632308Y-109451684D01*
X144712613Y-109646037D01*
X144861181Y-109794864D01*
X145055394Y-109875508D01*
X145265684Y-109875692D01*
X145460037Y-109795387D01*
X145532350Y-109723200D01*
X147164172Y-109723200D01*
X147578800Y-110137827D01*
X147578800Y-111743854D01*
X147514387Y-111587963D01*
X147365819Y-111439136D01*
X147171606Y-111358492D01*
X146961316Y-111358308D01*
X146766963Y-111438613D01*
X146694650Y-111510800D01*
X142321796Y-111510800D01*
X142367359Y-111465317D01*
X142458896Y-111244871D01*
X142459104Y-111006176D01*
X142367952Y-110785571D01*
X142266436Y-110683877D01*
X142287877Y-110578000D01*
X142287877Y-109978000D01*
X142266958Y-109866827D01*
X142201255Y-109764721D01*
X142101003Y-109696222D01*
X141982000Y-109672123D01*
X141482000Y-109672123D01*
X141370827Y-109693042D01*
X141268721Y-109758745D01*
X141214537Y-109838046D01*
X139962438Y-109838046D01*
X139915255Y-109764721D01*
X139815003Y-109696222D01*
X139696000Y-109672123D01*
X139196000Y-109672123D01*
X139084827Y-109693042D01*
X138982721Y-109758745D01*
X138914222Y-109858997D01*
X138890123Y-109978000D01*
X138890123Y-110578000D01*
X138911042Y-110689173D01*
X138976745Y-110791279D01*
X139006046Y-110811299D01*
X139006046Y-110925796D01*
X138973104Y-111005129D01*
X138972896Y-111243824D01*
X139064048Y-111464429D01*
X139110338Y-111510800D01*
X137061827Y-111510800D01*
X136520200Y-110969172D01*
X136520200Y-106328924D01*
X136915496Y-106328924D01*
X137006648Y-106549529D01*
X137175283Y-106718459D01*
X137395729Y-106809996D01*
X137493392Y-106810081D01*
X137547406Y-106864095D01*
X137659211Y-106938800D01*
X137690137Y-106959464D01*
X137858500Y-106992954D01*
X137980736Y-106992954D01*
X137995745Y-107016279D01*
X138095997Y-107084778D01*
X138215000Y-107108877D01*
X138815000Y-107108877D01*
X138926173Y-107087958D01*
X139028279Y-107022255D01*
X139096778Y-106922003D01*
X139119256Y-106811000D01*
X143708123Y-106811000D01*
X143708123Y-107311000D01*
X143729042Y-107422173D01*
X143794745Y-107524279D01*
X143894997Y-107592778D01*
X144014000Y-107616877D01*
X144614000Y-107616877D01*
X144725173Y-107595958D01*
X144760316Y-107573344D01*
X144822897Y-107635925D01*
X144822808Y-107737184D01*
X144903113Y-107931537D01*
X145051681Y-108080364D01*
X145245894Y-108161008D01*
X145456184Y-108161192D01*
X145650537Y-108080887D01*
X145799364Y-107932319D01*
X145880008Y-107738106D01*
X145880192Y-107527816D01*
X145799887Y-107333463D01*
X145651319Y-107184636D01*
X145457106Y-107103992D01*
X145354931Y-107103903D01*
X145046014Y-106794986D01*
X145029877Y-106784204D01*
X144923966Y-106713437D01*
X144900646Y-106708798D01*
X144898958Y-106699827D01*
X144833255Y-106597721D01*
X144733003Y-106529222D01*
X144614000Y-106505123D01*
X144014000Y-106505123D01*
X143902827Y-106526042D01*
X143800721Y-106591745D01*
X143732222Y-106691997D01*
X143708123Y-106811000D01*
X139119256Y-106811000D01*
X139120877Y-106803000D01*
X139120877Y-106303000D01*
X139099958Y-106191827D01*
X139034255Y-106089721D01*
X138954954Y-106035537D01*
X138954954Y-105926438D01*
X139028279Y-105879255D01*
X139096778Y-105779003D01*
X139120877Y-105660000D01*
X139120877Y-105160000D01*
X139099958Y-105048827D01*
X139034255Y-104946721D01*
X138934003Y-104878222D01*
X138815000Y-104854123D01*
X138215000Y-104854123D01*
X138103827Y-104875042D01*
X138001721Y-104940745D01*
X137981701Y-104970046D01*
X137949603Y-104970046D01*
X137881317Y-104901641D01*
X137660871Y-104810104D01*
X137422176Y-104809896D01*
X137201571Y-104901048D01*
X137032641Y-105069683D01*
X136941104Y-105290129D01*
X136940896Y-105528824D01*
X137032048Y-105749429D01*
X137079843Y-105797308D01*
X137007241Y-105869783D01*
X136915704Y-106090229D01*
X136915496Y-106328924D01*
X136520200Y-106328924D01*
X136520200Y-103967000D01*
X139009123Y-103967000D01*
X139009123Y-104567000D01*
X139030042Y-104678173D01*
X139095745Y-104780279D01*
X139195997Y-104848778D01*
X139315000Y-104872877D01*
X139715000Y-104872877D01*
X139826173Y-104851958D01*
X139928279Y-104786255D01*
X139996778Y-104686003D01*
X140020877Y-104567000D01*
X140020877Y-103967000D01*
X139999958Y-103855827D01*
X139973239Y-103814305D01*
X139995464Y-103792119D01*
X140076108Y-103597906D01*
X140076292Y-103387616D01*
X139995987Y-103193263D01*
X139847419Y-103044436D01*
X139653206Y-102963792D01*
X139442916Y-102963608D01*
X139248563Y-103043913D01*
X139099736Y-103192481D01*
X139019092Y-103386694D01*
X139018908Y-103596984D01*
X139088934Y-103766460D01*
X139033222Y-103847997D01*
X139009123Y-103967000D01*
X136520200Y-103967000D01*
X136520200Y-95631000D01*
X136491563Y-95487034D01*
X136410014Y-95364986D01*
X136410011Y-95364984D01*
X134331051Y-93286024D01*
X138375996Y-93286024D01*
X138467148Y-93506629D01*
X138572038Y-93611702D01*
X138505841Y-93677783D01*
X138414304Y-93898229D01*
X138414096Y-94136924D01*
X138505248Y-94357529D01*
X138673883Y-94526459D01*
X138894329Y-94617996D01*
X139133024Y-94618204D01*
X139353629Y-94527052D01*
X139522559Y-94358417D01*
X139614096Y-94137971D01*
X139614304Y-93899276D01*
X139523152Y-93678671D01*
X139418262Y-93573598D01*
X139484459Y-93507517D01*
X139555336Y-93336824D01*
X144306896Y-93336824D01*
X144398048Y-93557429D01*
X144502971Y-93662535D01*
X144398641Y-93766683D01*
X144307104Y-93987129D01*
X144306896Y-94225824D01*
X144398048Y-94446429D01*
X144566683Y-94615359D01*
X144713523Y-94676332D01*
X144618371Y-94715648D01*
X144449441Y-94884283D01*
X144357904Y-95104729D01*
X144357696Y-95343424D01*
X144448848Y-95564029D01*
X144617483Y-95732959D01*
X144837929Y-95824496D01*
X145076624Y-95824704D01*
X145297229Y-95733552D01*
X145322671Y-95708154D01*
X145341185Y-95708154D01*
X145402397Y-95749978D01*
X145521400Y-95774077D01*
X146121400Y-95774077D01*
X146232573Y-95753158D01*
X146280884Y-95722071D01*
X146323745Y-95788679D01*
X146423997Y-95857178D01*
X146543000Y-95881277D01*
X146943000Y-95881277D01*
X147054173Y-95860358D01*
X147156279Y-95794655D01*
X147224778Y-95694403D01*
X147248877Y-95575400D01*
X147248877Y-94975400D01*
X147227958Y-94864227D01*
X147162255Y-94762121D01*
X147062003Y-94693622D01*
X146943000Y-94669523D01*
X146543000Y-94669523D01*
X146431827Y-94690442D01*
X146376749Y-94725884D01*
X146403178Y-94687203D01*
X146427277Y-94568200D01*
X146427277Y-94168200D01*
X146406358Y-94057027D01*
X146394486Y-94038577D01*
X146690600Y-94038577D01*
X146801773Y-94017658D01*
X146903879Y-93951955D01*
X146972378Y-93851703D01*
X146996477Y-93732700D01*
X146996477Y-92982700D01*
X146975558Y-92871527D01*
X146909855Y-92769421D01*
X146809603Y-92700922D01*
X146690600Y-92676823D01*
X145490600Y-92676823D01*
X145379427Y-92697742D01*
X145291755Y-92754157D01*
X145247317Y-92709641D01*
X145026871Y-92618104D01*
X144788176Y-92617896D01*
X144567571Y-92709048D01*
X144398641Y-92877683D01*
X144307104Y-93098129D01*
X144306896Y-93336824D01*
X139555336Y-93336824D01*
X139575996Y-93287071D01*
X139576204Y-93048376D01*
X139485052Y-92827771D01*
X139316417Y-92658841D01*
X139095971Y-92567304D01*
X138857276Y-92567096D01*
X138636671Y-92658248D01*
X138467741Y-92826883D01*
X138376204Y-93047329D01*
X138375996Y-93286024D01*
X134331051Y-93286024D01*
X133974129Y-92929102D01*
X133976824Y-92929104D01*
X134197429Y-92837952D01*
X134366359Y-92669317D01*
X134457896Y-92448871D01*
X134458104Y-92210176D01*
X134408931Y-92091167D01*
X135664294Y-92091167D01*
X135845079Y-92528700D01*
X136179539Y-92863744D01*
X136616756Y-93045293D01*
X137090167Y-93045706D01*
X137527700Y-92864921D01*
X137862744Y-92530461D01*
X138044293Y-92093244D01*
X138044706Y-91619833D01*
X137863921Y-91182300D01*
X137529461Y-90847256D01*
X137092244Y-90665707D01*
X136618833Y-90665294D01*
X136181300Y-90846079D01*
X135846256Y-91180539D01*
X135664707Y-91617756D01*
X135664294Y-92091167D01*
X134408931Y-92091167D01*
X134366952Y-91989571D01*
X134198317Y-91820641D01*
X133977871Y-91729104D01*
X133880208Y-91729019D01*
X133026094Y-90874906D01*
X132883363Y-90779536D01*
X132715000Y-90746046D01*
X130077835Y-90746046D01*
X128539820Y-89208032D01*
X128539904Y-89111376D01*
X128448752Y-88890771D01*
X128370090Y-88811971D01*
X133974188Y-88811971D01*
X134247645Y-89473786D01*
X134753551Y-89980576D01*
X135414887Y-90255187D01*
X136130971Y-90255812D01*
X136792786Y-89982355D01*
X137299576Y-89476449D01*
X137495131Y-89005500D01*
X137783082Y-89005500D01*
X138106567Y-89328985D01*
X137990128Y-89377097D01*
X137764888Y-89601945D01*
X137642839Y-89895872D01*
X137642561Y-90214132D01*
X137764097Y-90508272D01*
X137988945Y-90733512D01*
X138282872Y-90855561D01*
X138601132Y-90855839D01*
X138895272Y-90734303D01*
X139036821Y-90593000D01*
X139315100Y-90593000D01*
X139315100Y-91510100D01*
X139325223Y-91560992D01*
X139325223Y-92205300D01*
X139346142Y-92316473D01*
X139411845Y-92418579D01*
X139512097Y-92487078D01*
X139631100Y-92511177D01*
X142131100Y-92511177D01*
X142242273Y-92490258D01*
X142344379Y-92424555D01*
X142412878Y-92324303D01*
X142436977Y-92205300D01*
X142436977Y-90205300D01*
X142416058Y-90094127D01*
X142350355Y-89992021D01*
X142250103Y-89923522D01*
X142131100Y-89899423D01*
X140232641Y-89899423D01*
X139010650Y-88677432D01*
X144487861Y-88677432D01*
X144609397Y-88971572D01*
X144834245Y-89196812D01*
X145128172Y-89318861D01*
X145446432Y-89319139D01*
X145471180Y-89308913D01*
X145542000Y-89323000D01*
X146186979Y-89323000D01*
X146216000Y-89328877D01*
X146816000Y-89328877D01*
X146927173Y-89307958D01*
X147029279Y-89242255D01*
X147097778Y-89142003D01*
X147121877Y-89023000D01*
X147121877Y-88523000D01*
X147100958Y-88411827D01*
X147035255Y-88309721D01*
X146935003Y-88241222D01*
X146816000Y-88217123D01*
X146216000Y-88217123D01*
X146184767Y-88223000D01*
X146031297Y-88223000D01*
X145966603Y-88066428D01*
X145741755Y-87841188D01*
X145447828Y-87719139D01*
X145129568Y-87718861D01*
X144835428Y-87840397D01*
X144610188Y-88065245D01*
X144488139Y-88359172D01*
X144487861Y-88677432D01*
X139010650Y-88677432D01*
X138399809Y-88066591D01*
X138221376Y-87947366D01*
X138010900Y-87905500D01*
X137494847Y-87905500D01*
X137301355Y-87437214D01*
X136795449Y-86930424D01*
X136134113Y-86655813D01*
X135418029Y-86655188D01*
X134756214Y-86928645D01*
X134249424Y-87434551D01*
X133974813Y-88095887D01*
X133974188Y-88811971D01*
X128370090Y-88811971D01*
X128280117Y-88721841D01*
X128059671Y-88630304D01*
X127820976Y-88630096D01*
X127600371Y-88721248D01*
X127431441Y-88889883D01*
X127339904Y-89110329D01*
X127339696Y-89349024D01*
X127430848Y-89569629D01*
X127599483Y-89738559D01*
X127819929Y-89830096D01*
X127917593Y-89830181D01*
X129584506Y-91497095D01*
X129714517Y-91583965D01*
X129727237Y-91592464D01*
X129895600Y-91625954D01*
X132532766Y-91625954D01*
X132863984Y-91957172D01*
X132842000Y-91952799D01*
X132841995Y-91952800D01*
X123652796Y-91952800D01*
X123698359Y-91907317D01*
X123789896Y-91686871D01*
X123790104Y-91448176D01*
X123777505Y-91417684D01*
X124439308Y-91417684D01*
X124519613Y-91612037D01*
X124668181Y-91760864D01*
X124862394Y-91841508D01*
X125072684Y-91841692D01*
X125267037Y-91761387D01*
X125415864Y-91612819D01*
X125489618Y-91435200D01*
X125729995Y-91435200D01*
X125730000Y-91435201D01*
X125850079Y-91411314D01*
X125873966Y-91406563D01*
X125996014Y-91325014D01*
X126097614Y-91223414D01*
X126130640Y-91173986D01*
X126179163Y-91101366D01*
X126196549Y-91013963D01*
X126207801Y-90957400D01*
X126207800Y-90957395D01*
X126207800Y-89626958D01*
X126279464Y-89555419D01*
X126360108Y-89361206D01*
X126360292Y-89150916D01*
X126279987Y-88956563D01*
X126131419Y-88807736D01*
X125937206Y-88727092D01*
X125726916Y-88726908D01*
X125532563Y-88807213D01*
X125383736Y-88955781D01*
X125303092Y-89149994D01*
X125302908Y-89360284D01*
X125383213Y-89554637D01*
X125455400Y-89626950D01*
X125455400Y-90682800D01*
X125222000Y-90682800D01*
X125078034Y-90711437D01*
X124968836Y-90784400D01*
X124863316Y-90784308D01*
X124668963Y-90864613D01*
X124520136Y-91013181D01*
X124439492Y-91207394D01*
X124439308Y-91417684D01*
X123777505Y-91417684D01*
X123698952Y-91227571D01*
X123629954Y-91158452D01*
X123629954Y-91032451D01*
X123689978Y-90944603D01*
X123714077Y-90825600D01*
X123714077Y-90225600D01*
X123693158Y-90114427D01*
X123648154Y-90044488D01*
X123648154Y-89481815D01*
X123689978Y-89420603D01*
X123714077Y-89301600D01*
X123714077Y-88701600D01*
X123693158Y-88590427D01*
X123648154Y-88520488D01*
X123648154Y-87957815D01*
X123689978Y-87896603D01*
X123714077Y-87777600D01*
X123714077Y-87177600D01*
X123693158Y-87066427D01*
X123627455Y-86964321D01*
X123527203Y-86895822D01*
X123408200Y-86871723D01*
X123008200Y-86871723D01*
X122897027Y-86892642D01*
X122794921Y-86958345D01*
X122758196Y-87012094D01*
X122727455Y-86964321D01*
X122627203Y-86895822D01*
X122508200Y-86871723D01*
X122108200Y-86871723D01*
X121997027Y-86892642D01*
X121894921Y-86958345D01*
X121826422Y-87058597D01*
X121802323Y-87177600D01*
X121802323Y-87777600D01*
X121823242Y-87888773D01*
X121823248Y-87888782D01*
X121739116Y-87888708D01*
X121544763Y-87969013D01*
X121395936Y-88117581D01*
X121315292Y-88311794D01*
X121315108Y-88522084D01*
X121395413Y-88716437D01*
X121543981Y-88865264D01*
X121738194Y-88945908D01*
X121802323Y-88945964D01*
X121802323Y-89301600D01*
X121808895Y-89336525D01*
X121789916Y-89336508D01*
X121595563Y-89416813D01*
X121446736Y-89565381D01*
X121366092Y-89759594D01*
X121365908Y-89969884D01*
X121446213Y-90164237D01*
X121594781Y-90313064D01*
X121788994Y-90393708D01*
X121802323Y-90393720D01*
X121802323Y-90825600D01*
X121823242Y-90936773D01*
X121888945Y-91038879D01*
X121989197Y-91107378D01*
X122108200Y-91131477D01*
X122508200Y-91131477D01*
X122619373Y-91110558D01*
X122721479Y-91044855D01*
X122750046Y-91003046D01*
X122750046Y-91158397D01*
X122681641Y-91226683D01*
X122590104Y-91447129D01*
X122589896Y-91685824D01*
X122681048Y-91906429D01*
X122727338Y-91952800D01*
X121402358Y-91952800D01*
X121330819Y-91881136D01*
X121136606Y-91800492D01*
X120926316Y-91800308D01*
X120731963Y-91880613D01*
X120583136Y-92029181D01*
X120502492Y-92223394D01*
X120502308Y-92433684D01*
X120565987Y-92587800D01*
X116233827Y-92587800D01*
X116090014Y-92443986D01*
X116090011Y-92443984D01*
X115582529Y-91936502D01*
X115742793Y-91550544D01*
X115743206Y-91077531D01*
X115562573Y-90640365D01*
X115228394Y-90305603D01*
X114791544Y-90124207D01*
X114318531Y-90123794D01*
X113881365Y-90304427D01*
X113546603Y-90638606D01*
X113365207Y-91075456D01*
X113364794Y-91548469D01*
X113545427Y-91985635D01*
X113879606Y-92320397D01*
X114316456Y-92501793D01*
X114789469Y-92502206D01*
X114998011Y-92416038D01*
X115557984Y-92976011D01*
X115557986Y-92976014D01*
X115811984Y-93230011D01*
X115811986Y-93230014D01*
X115934034Y-93311563D01*
X116078000Y-93340200D01*
X124450369Y-93340200D01*
X124439492Y-93366394D01*
X124439308Y-93576684D01*
X124519613Y-93771037D01*
X124591800Y-93843350D01*
X124591800Y-100555173D01*
X123034172Y-102112800D01*
X121031005Y-102112800D01*
X121031000Y-102112799D01*
X121030995Y-102112800D01*
X117348005Y-102112800D01*
X117348000Y-102112799D01*
X117227921Y-102136686D01*
X117204034Y-102141437D01*
X117149454Y-102177906D01*
X117081986Y-102222986D01*
X114922986Y-104381986D01*
X114841437Y-104504034D01*
X114841437Y-104504035D01*
X114812799Y-104648000D01*
X114812800Y-104648005D01*
X114812800Y-105393854D01*
X114748387Y-105237963D01*
X114599819Y-105089136D01*
X114405606Y-105008492D01*
X114195316Y-105008308D01*
X114000963Y-105088613D01*
X113852136Y-105237181D01*
X113771492Y-105431394D01*
X113771399Y-105537838D01*
X113698437Y-105647034D01*
X113698437Y-105647035D01*
X113669799Y-105791000D01*
X113669800Y-105791005D01*
X113669800Y-108076995D01*
X113669799Y-108077000D01*
X113686430Y-108160604D01*
X113698437Y-108220966D01*
X113749617Y-108297563D01*
X113779986Y-108343014D01*
X113899772Y-108462800D01*
X112804827Y-108462800D01*
X112153014Y-107810986D01*
X112070924Y-107756136D01*
X112030966Y-107729437D01*
X112007079Y-107724686D01*
X111976104Y-107718524D01*
X112074789Y-107652585D01*
X112327026Y-107275086D01*
X112415600Y-106829796D01*
X112415600Y-106784204D01*
X112327026Y-106338914D01*
X112074789Y-105961415D01*
X111697290Y-105709178D01*
X111252000Y-105620604D01*
X110806710Y-105709178D01*
X110734473Y-105757445D01*
X110248014Y-105270986D01*
X110240603Y-105266034D01*
X110125966Y-105189437D01*
X110102079Y-105184686D01*
X109982000Y-105160799D01*
X109981995Y-105160800D01*
X109462630Y-105160800D01*
X109534789Y-105112585D01*
X109787026Y-104735086D01*
X109875600Y-104289796D01*
X109875600Y-104244204D01*
X110088400Y-104244204D01*
X110088400Y-104289796D01*
X110176974Y-104735086D01*
X110429211Y-105112585D01*
X110806710Y-105364822D01*
X111252000Y-105453396D01*
X111697290Y-105364822D01*
X112074789Y-105112585D01*
X112327026Y-104735086D01*
X112415600Y-104289796D01*
X112415600Y-104244204D01*
X112327026Y-103798914D01*
X112074789Y-103421415D01*
X111697290Y-103169178D01*
X111252000Y-103080604D01*
X110806710Y-103169178D01*
X110429211Y-103421415D01*
X110176974Y-103798914D01*
X110088400Y-104244204D01*
X109875600Y-104244204D01*
X109787026Y-103798914D01*
X109534789Y-103421415D01*
X109157290Y-103169178D01*
X108712000Y-103080604D01*
X108266710Y-103169178D01*
X107889211Y-103421415D01*
X107636974Y-103798914D01*
X107548400Y-104244204D01*
X107548400Y-104289796D01*
X107636974Y-104735086D01*
X107889211Y-105112585D01*
X108032131Y-105208081D01*
X107937986Y-105270986D01*
X107937984Y-105270989D01*
X107182000Y-106026972D01*
X107182000Y-101704204D01*
X107548400Y-101704204D01*
X107548400Y-101749796D01*
X107636974Y-102195086D01*
X107889211Y-102572585D01*
X108266710Y-102824822D01*
X108712000Y-102913396D01*
X109157290Y-102824822D01*
X109534789Y-102572585D01*
X109787026Y-102195086D01*
X109875600Y-101749796D01*
X109875600Y-101704204D01*
X109787026Y-101258914D01*
X109534789Y-100881415D01*
X109172475Y-100639324D01*
X116366896Y-100639324D01*
X116458048Y-100859929D01*
X116626683Y-101028859D01*
X116847129Y-101120396D01*
X117085824Y-101120604D01*
X117281766Y-101039643D01*
X117396500Y-101062877D01*
X117796500Y-101062877D01*
X117907673Y-101041958D01*
X117953439Y-101012508D01*
X117891104Y-101162629D01*
X117890896Y-101401324D01*
X117982048Y-101621929D01*
X118150683Y-101790859D01*
X118371129Y-101882396D01*
X118609824Y-101882604D01*
X118830429Y-101791452D01*
X118999359Y-101622817D01*
X119090896Y-101402371D01*
X119091104Y-101163676D01*
X118999952Y-100943071D01*
X118959880Y-100902929D01*
X118978278Y-100876003D01*
X119002377Y-100757000D01*
X119002377Y-100157000D01*
X118981458Y-100045827D01*
X118915755Y-99943721D01*
X118815503Y-99875222D01*
X118696500Y-99851123D01*
X118296500Y-99851123D01*
X118185327Y-99872042D01*
X118083221Y-99937745D01*
X118046496Y-99991494D01*
X118015755Y-99943721D01*
X117915503Y-99875222D01*
X117796500Y-99851123D01*
X117396500Y-99851123D01*
X117285327Y-99872042D01*
X117183221Y-99937745D01*
X117171050Y-99955558D01*
X117086871Y-99920604D01*
X116848176Y-99920396D01*
X116627571Y-100011548D01*
X116458641Y-100180183D01*
X116367104Y-100400629D01*
X116366896Y-100639324D01*
X109172475Y-100639324D01*
X109157290Y-100629178D01*
X108712000Y-100540604D01*
X108266710Y-100629178D01*
X107889211Y-100881415D01*
X107636974Y-101258914D01*
X107548400Y-101704204D01*
X107182000Y-101704204D01*
X107182000Y-98035824D01*
X109635896Y-98035824D01*
X109727048Y-98256429D01*
X109895683Y-98425359D01*
X110116129Y-98516896D01*
X110354824Y-98517104D01*
X110575429Y-98425952D01*
X110744359Y-98257317D01*
X110835896Y-98036871D01*
X110836104Y-97798176D01*
X110744952Y-97577571D01*
X110576317Y-97408641D01*
X110355871Y-97317104D01*
X110117176Y-97316896D01*
X109896571Y-97408048D01*
X109727641Y-97576683D01*
X109636104Y-97797129D01*
X109635896Y-98035824D01*
X107182000Y-98035824D01*
X107182000Y-96601000D01*
X111958123Y-96601000D01*
X111958123Y-97201000D01*
X111979042Y-97312173D01*
X112044745Y-97414279D01*
X112144997Y-97482778D01*
X112264000Y-97506877D01*
X112664000Y-97506877D01*
X112775173Y-97485958D01*
X112877279Y-97420255D01*
X112945778Y-97320003D01*
X112947396Y-97312015D01*
X112984181Y-97348864D01*
X113178394Y-97429508D01*
X113388684Y-97429692D01*
X113583037Y-97349387D01*
X113731864Y-97200819D01*
X113750889Y-97155000D01*
X115670523Y-97155000D01*
X115670523Y-99187000D01*
X115691442Y-99298173D01*
X115757145Y-99400279D01*
X115857397Y-99468778D01*
X115976400Y-99492877D01*
X117703600Y-99492877D01*
X117814773Y-99471958D01*
X117916879Y-99406255D01*
X117985378Y-99306003D01*
X118009477Y-99187000D01*
X118009477Y-97992818D01*
X118216400Y-97992818D01*
X118216400Y-98349182D01*
X118304974Y-98794472D01*
X118557211Y-99171971D01*
X118934710Y-99424208D01*
X119380000Y-99512782D01*
X119825290Y-99424208D01*
X120202789Y-99171971D01*
X120455026Y-98794472D01*
X120543600Y-98349182D01*
X120543600Y-97992818D01*
X120756400Y-97992818D01*
X120756400Y-98349182D01*
X120844974Y-98794472D01*
X121097211Y-99171971D01*
X121474710Y-99424208D01*
X121920000Y-99512782D01*
X122365290Y-99424208D01*
X122742789Y-99171971D01*
X122995026Y-98794472D01*
X123083600Y-98349182D01*
X123083600Y-97992818D01*
X122995026Y-97547528D01*
X122742789Y-97170029D01*
X122365290Y-96917792D01*
X121920000Y-96829218D01*
X121474710Y-96917792D01*
X121097211Y-97170029D01*
X120844974Y-97547528D01*
X120756400Y-97992818D01*
X120543600Y-97992818D01*
X120455026Y-97547528D01*
X120202789Y-97170029D01*
X119825290Y-96917792D01*
X119380000Y-96829218D01*
X118934710Y-96917792D01*
X118557211Y-97170029D01*
X118304974Y-97547528D01*
X118216400Y-97992818D01*
X118009477Y-97992818D01*
X118009477Y-97155000D01*
X117988558Y-97043827D01*
X117922855Y-96941721D01*
X117822603Y-96873222D01*
X117703600Y-96849123D01*
X115976400Y-96849123D01*
X115865227Y-96870042D01*
X115763121Y-96935745D01*
X115694622Y-97035997D01*
X115670523Y-97155000D01*
X113750889Y-97155000D01*
X113812508Y-97006606D01*
X113812692Y-96796316D01*
X113732387Y-96601963D01*
X113583819Y-96453136D01*
X113389606Y-96372492D01*
X113179316Y-96372308D01*
X112984963Y-96452613D01*
X112948460Y-96489053D01*
X112883255Y-96387721D01*
X112783003Y-96319222D01*
X112664000Y-96295123D01*
X112264000Y-96295123D01*
X112152827Y-96316042D01*
X112050721Y-96381745D01*
X111982222Y-96481997D01*
X111958123Y-96601000D01*
X107182000Y-96601000D01*
X107182000Y-94817818D01*
X113136400Y-94817818D01*
X113136400Y-95174182D01*
X113224974Y-95619472D01*
X113477211Y-95996971D01*
X113854710Y-96249208D01*
X114300000Y-96337782D01*
X114745290Y-96249208D01*
X115122789Y-95996971D01*
X115375026Y-95619472D01*
X115463600Y-95174182D01*
X115463600Y-94817818D01*
X115676400Y-94817818D01*
X115676400Y-95174182D01*
X115764974Y-95619472D01*
X116017211Y-95996971D01*
X116394710Y-96249208D01*
X116840000Y-96337782D01*
X117285290Y-96249208D01*
X117662789Y-95996971D01*
X117915026Y-95619472D01*
X118003600Y-95174182D01*
X118003600Y-94817818D01*
X117915026Y-94372528D01*
X117662789Y-93995029D01*
X117640297Y-93980000D01*
X118210523Y-93980000D01*
X118210523Y-96012000D01*
X118231442Y-96123173D01*
X118297145Y-96225279D01*
X118397397Y-96293778D01*
X118516400Y-96317877D01*
X120243600Y-96317877D01*
X120354773Y-96296958D01*
X120456879Y-96231255D01*
X120525378Y-96131003D01*
X120549477Y-96012000D01*
X120549477Y-93980000D01*
X120528558Y-93868827D01*
X120462855Y-93766721D01*
X120362603Y-93698222D01*
X120243600Y-93674123D01*
X118516400Y-93674123D01*
X118405227Y-93695042D01*
X118303121Y-93760745D01*
X118234622Y-93860997D01*
X118210523Y-93980000D01*
X117640297Y-93980000D01*
X117285290Y-93742792D01*
X116840000Y-93654218D01*
X116394710Y-93742792D01*
X116017211Y-93995029D01*
X115764974Y-94372528D01*
X115676400Y-94817818D01*
X115463600Y-94817818D01*
X115375026Y-94372528D01*
X115122789Y-93995029D01*
X114745290Y-93742792D01*
X114300000Y-93654218D01*
X113854710Y-93742792D01*
X113477211Y-93995029D01*
X113224974Y-94372528D01*
X113136400Y-94817818D01*
X107182000Y-94817818D01*
X107182000Y-91548469D01*
X110875594Y-91548469D01*
X111056227Y-91985635D01*
X111390406Y-92320397D01*
X111827256Y-92501793D01*
X112300269Y-92502206D01*
X112737435Y-92321573D01*
X113072197Y-91987394D01*
X113253593Y-91550544D01*
X113254006Y-91077531D01*
X113073373Y-90640365D01*
X112739194Y-90305603D01*
X112302344Y-90124207D01*
X111829331Y-90123794D01*
X111392165Y-90304427D01*
X111057403Y-90638606D01*
X110876007Y-91075456D01*
X110875594Y-91548469D01*
X107182000Y-91548469D01*
X107182000Y-88246469D01*
X110875594Y-88246469D01*
X111056227Y-88683635D01*
X111390406Y-89018397D01*
X111827256Y-89199793D01*
X112300269Y-89200206D01*
X112737435Y-89019573D01*
X113072197Y-88685394D01*
X113253593Y-88248544D01*
X113253594Y-88246469D01*
X113364794Y-88246469D01*
X113545427Y-88683635D01*
X113879606Y-89018397D01*
X114316456Y-89199793D01*
X114789469Y-89200206D01*
X115226635Y-89019573D01*
X115561397Y-88685394D01*
X115742793Y-88248544D01*
X115742794Y-88246469D01*
X115853994Y-88246469D01*
X116034627Y-88683635D01*
X116368806Y-89018397D01*
X116805656Y-89199793D01*
X117278669Y-89200206D01*
X117715835Y-89019573D01*
X118050597Y-88685394D01*
X118231993Y-88248544D01*
X118232406Y-87775531D01*
X118051773Y-87338365D01*
X117717594Y-87003603D01*
X117280744Y-86822207D01*
X116807731Y-86821794D01*
X116370565Y-87002427D01*
X116035803Y-87336606D01*
X115854407Y-87773456D01*
X115853994Y-88246469D01*
X115742794Y-88246469D01*
X115743206Y-87775531D01*
X115562573Y-87338365D01*
X115228394Y-87003603D01*
X114791544Y-86822207D01*
X114318531Y-86821794D01*
X113881365Y-87002427D01*
X113546603Y-87336606D01*
X113365207Y-87773456D01*
X113364794Y-88246469D01*
X113253594Y-88246469D01*
X113254006Y-87775531D01*
X113073373Y-87338365D01*
X112739194Y-87003603D01*
X112302344Y-86822207D01*
X111829331Y-86821794D01*
X111392165Y-87002427D01*
X111057403Y-87336606D01*
X110876007Y-87773456D01*
X110875594Y-88246469D01*
X107182000Y-88246469D01*
X107182000Y-86481000D01*
X155835000Y-86481000D01*
X155835000Y-113925000D01*
G36*
X135005800Y-95913827D02*
X135005800Y-111505995D01*
X135005799Y-111506000D01*
X135028022Y-111617717D01*
X135034437Y-111649966D01*
X135108595Y-111760952D01*
X135115986Y-111772014D01*
X135997772Y-112653800D01*
X133759827Y-112653800D01*
X133218200Y-112112172D01*
X133218200Y-105156000D01*
X133189563Y-105012034D01*
X133108014Y-104889986D01*
X133108011Y-104889984D01*
X132155514Y-103937486D01*
X132095254Y-103897222D01*
X132033466Y-103855937D01*
X132009579Y-103851186D01*
X131889500Y-103827299D01*
X131889495Y-103827300D01*
X129684505Y-103827300D01*
X130112290Y-103742208D01*
X130489789Y-103489971D01*
X130742026Y-103112472D01*
X130830600Y-102667182D01*
X130830600Y-102310818D01*
X131043400Y-102310818D01*
X131043400Y-102667182D01*
X131131974Y-103112472D01*
X131384211Y-103489971D01*
X131761710Y-103742208D01*
X132207000Y-103830782D01*
X132652290Y-103742208D01*
X133029789Y-103489971D01*
X133282026Y-103112472D01*
X133370600Y-102667182D01*
X133370600Y-102310818D01*
X133282026Y-101865528D01*
X133029789Y-101488029D01*
X132652290Y-101235792D01*
X132207000Y-101147218D01*
X131761710Y-101235792D01*
X131384211Y-101488029D01*
X131131974Y-101865528D01*
X131043400Y-102310818D01*
X130830600Y-102310818D01*
X130742026Y-101865528D01*
X130489789Y-101488029D01*
X130112290Y-101235792D01*
X129667000Y-101147218D01*
X129221710Y-101235792D01*
X128844211Y-101488029D01*
X128836700Y-101499270D01*
X128836700Y-101028505D01*
X128836701Y-101028500D01*
X128808064Y-100884535D01*
X128781003Y-100844036D01*
X128726514Y-100762486D01*
X128726511Y-100762484D01*
X127892151Y-99928124D01*
X129752696Y-99928124D01*
X129843848Y-100148729D01*
X130012483Y-100317659D01*
X130232929Y-100409196D01*
X130471624Y-100409404D01*
X130692229Y-100318252D01*
X130861159Y-100149617D01*
X130952696Y-99929171D01*
X130952904Y-99690476D01*
X130912473Y-99592626D01*
X130935378Y-99559103D01*
X130959477Y-99440100D01*
X130959477Y-98840100D01*
X130938558Y-98728927D01*
X130872855Y-98626821D01*
X130772603Y-98558322D01*
X130653600Y-98534223D01*
X130153600Y-98534223D01*
X130042427Y-98555142D01*
X129940321Y-98620845D01*
X129871822Y-98721097D01*
X129847723Y-98840100D01*
X129847723Y-99440100D01*
X129851779Y-99461657D01*
X129844441Y-99468983D01*
X129752904Y-99689429D01*
X129752696Y-99928124D01*
X127892151Y-99928124D01*
X127782603Y-99818576D01*
X127782692Y-99717316D01*
X127702387Y-99522963D01*
X127553819Y-99374136D01*
X127359606Y-99293492D01*
X127149316Y-99293308D01*
X126954963Y-99373613D01*
X126806136Y-99522181D01*
X126725492Y-99716394D01*
X126725308Y-99926684D01*
X126805613Y-100121037D01*
X126954181Y-100269864D01*
X127148394Y-100350508D01*
X127250570Y-100350597D01*
X128084300Y-101184327D01*
X128084300Y-101186098D01*
X127990600Y-101167123D01*
X126263400Y-101167123D01*
X126152227Y-101188042D01*
X126050121Y-101253745D01*
X125981622Y-101353997D01*
X125957523Y-101473000D01*
X125957523Y-103505000D01*
X125978442Y-103616173D01*
X126044145Y-103718279D01*
X126144397Y-103786778D01*
X126263400Y-103810877D01*
X126687046Y-103810877D01*
X126687046Y-105227765D01*
X125456291Y-106458521D01*
X125504396Y-106342671D01*
X125504604Y-106103976D01*
X125436258Y-105938566D01*
X125580684Y-105938692D01*
X125775037Y-105858387D01*
X125923864Y-105709819D01*
X126004508Y-105515606D01*
X126004692Y-105305316D01*
X125924387Y-105110963D01*
X125775819Y-104962136D01*
X125581606Y-104881492D01*
X125371316Y-104881308D01*
X125176963Y-104961613D01*
X125104650Y-105033800D01*
X124107827Y-105033800D01*
X123060720Y-103986693D01*
X123148429Y-103950452D01*
X123317359Y-103781817D01*
X123408896Y-103561371D01*
X123409104Y-103322676D01*
X123317952Y-103102071D01*
X123149317Y-102933141D01*
X122985697Y-102865200D01*
X123189995Y-102865200D01*
X123190000Y-102865201D01*
X123310079Y-102841314D01*
X123333966Y-102836563D01*
X123456014Y-102755014D01*
X125234011Y-100977016D01*
X125234014Y-100977014D01*
X125305160Y-100870536D01*
X125315564Y-100854965D01*
X125344201Y-100711000D01*
X125344200Y-100710995D01*
X125344200Y-98162824D01*
X128304896Y-98162824D01*
X128396048Y-98383429D01*
X128564683Y-98552359D01*
X128785129Y-98643896D01*
X129023824Y-98644104D01*
X129244429Y-98552952D01*
X129413359Y-98384317D01*
X129504896Y-98163871D01*
X129505104Y-97925176D01*
X129413952Y-97704571D01*
X129245317Y-97535641D01*
X129024871Y-97444104D01*
X128786176Y-97443896D01*
X128565571Y-97535048D01*
X128396641Y-97703683D01*
X128305104Y-97924129D01*
X128304896Y-98162824D01*
X125344200Y-98162824D01*
X125344200Y-93843358D01*
X125415864Y-93771819D01*
X125496508Y-93577606D01*
X125496692Y-93367316D01*
X125485488Y-93340200D01*
X132432172Y-93340200D01*
X135005800Y-95913827D01*
X135005800Y-95913827D01*
G37*
X135005800Y-95913827D02*
X135005800Y-111505995D01*
X135005799Y-111506000D01*
X135028022Y-111617717D01*
X135034437Y-111649966D01*
X135108595Y-111760952D01*
X135115986Y-111772014D01*
X135997772Y-112653800D01*
X133759827Y-112653800D01*
X133218200Y-112112172D01*
X133218200Y-105156000D01*
X133189563Y-105012034D01*
X133108014Y-104889986D01*
X133108011Y-104889984D01*
X132155514Y-103937486D01*
X132095254Y-103897222D01*
X132033466Y-103855937D01*
X132009579Y-103851186D01*
X131889500Y-103827299D01*
X131889495Y-103827300D01*
X129684505Y-103827300D01*
X130112290Y-103742208D01*
X130489789Y-103489971D01*
X130742026Y-103112472D01*
X130830600Y-102667182D01*
X130830600Y-102310818D01*
X131043400Y-102310818D01*
X131043400Y-102667182D01*
X131131974Y-103112472D01*
X131384211Y-103489971D01*
X131761710Y-103742208D01*
X132207000Y-103830782D01*
X132652290Y-103742208D01*
X133029789Y-103489971D01*
X133282026Y-103112472D01*
X133370600Y-102667182D01*
X133370600Y-102310818D01*
X133282026Y-101865528D01*
X133029789Y-101488029D01*
X132652290Y-101235792D01*
X132207000Y-101147218D01*
X131761710Y-101235792D01*
X131384211Y-101488029D01*
X131131974Y-101865528D01*
X131043400Y-102310818D01*
X130830600Y-102310818D01*
X130742026Y-101865528D01*
X130489789Y-101488029D01*
X130112290Y-101235792D01*
X129667000Y-101147218D01*
X129221710Y-101235792D01*
X128844211Y-101488029D01*
X128836700Y-101499270D01*
X128836700Y-101028505D01*
X128836701Y-101028500D01*
X128808064Y-100884535D01*
X128781003Y-100844036D01*
X128726514Y-100762486D01*
X128726511Y-100762484D01*
X127892151Y-99928124D01*
X129752696Y-99928124D01*
X129843848Y-100148729D01*
X130012483Y-100317659D01*
X130232929Y-100409196D01*
X130471624Y-100409404D01*
X130692229Y-100318252D01*
X130861159Y-100149617D01*
X130952696Y-99929171D01*
X130952904Y-99690476D01*
X130912473Y-99592626D01*
X130935378Y-99559103D01*
X130959477Y-99440100D01*
X130959477Y-98840100D01*
X130938558Y-98728927D01*
X130872855Y-98626821D01*
X130772603Y-98558322D01*
X130653600Y-98534223D01*
X130153600Y-98534223D01*
X130042427Y-98555142D01*
X129940321Y-98620845D01*
X129871822Y-98721097D01*
X129847723Y-98840100D01*
X129847723Y-99440100D01*
X129851779Y-99461657D01*
X129844441Y-99468983D01*
X129752904Y-99689429D01*
X129752696Y-99928124D01*
X127892151Y-99928124D01*
X127782603Y-99818576D01*
X127782692Y-99717316D01*
X127702387Y-99522963D01*
X127553819Y-99374136D01*
X127359606Y-99293492D01*
X127149316Y-99293308D01*
X126954963Y-99373613D01*
X126806136Y-99522181D01*
X126725492Y-99716394D01*
X126725308Y-99926684D01*
X126805613Y-100121037D01*
X126954181Y-100269864D01*
X127148394Y-100350508D01*
X127250570Y-100350597D01*
X128084300Y-101184327D01*
X128084300Y-101186098D01*
X127990600Y-101167123D01*
X126263400Y-101167123D01*
X126152227Y-101188042D01*
X126050121Y-101253745D01*
X125981622Y-101353997D01*
X125957523Y-101473000D01*
X125957523Y-103505000D01*
X125978442Y-103616173D01*
X126044145Y-103718279D01*
X126144397Y-103786778D01*
X126263400Y-103810877D01*
X126687046Y-103810877D01*
X126687046Y-105227765D01*
X125456291Y-106458521D01*
X125504396Y-106342671D01*
X125504604Y-106103976D01*
X125436258Y-105938566D01*
X125580684Y-105938692D01*
X125775037Y-105858387D01*
X125923864Y-105709819D01*
X126004508Y-105515606D01*
X126004692Y-105305316D01*
X125924387Y-105110963D01*
X125775819Y-104962136D01*
X125581606Y-104881492D01*
X125371316Y-104881308D01*
X125176963Y-104961613D01*
X125104650Y-105033800D01*
X124107827Y-105033800D01*
X123060720Y-103986693D01*
X123148429Y-103950452D01*
X123317359Y-103781817D01*
X123408896Y-103561371D01*
X123409104Y-103322676D01*
X123317952Y-103102071D01*
X123149317Y-102933141D01*
X122985697Y-102865200D01*
X123189995Y-102865200D01*
X123190000Y-102865201D01*
X123310079Y-102841314D01*
X123333966Y-102836563D01*
X123456014Y-102755014D01*
X125234011Y-100977016D01*
X125234014Y-100977014D01*
X125305160Y-100870536D01*
X125315564Y-100854965D01*
X125344201Y-100711000D01*
X125344200Y-100710995D01*
X125344200Y-98162824D01*
X128304896Y-98162824D01*
X128396048Y-98383429D01*
X128564683Y-98552359D01*
X128785129Y-98643896D01*
X129023824Y-98644104D01*
X129244429Y-98552952D01*
X129413359Y-98384317D01*
X129504896Y-98163871D01*
X129505104Y-97925176D01*
X129413952Y-97704571D01*
X129245317Y-97535641D01*
X129024871Y-97444104D01*
X128786176Y-97443896D01*
X128565571Y-97535048D01*
X128396641Y-97703683D01*
X128305104Y-97924129D01*
X128304896Y-98162824D01*
X125344200Y-98162824D01*
X125344200Y-93843358D01*
X125415864Y-93771819D01*
X125496508Y-93577606D01*
X125496692Y-93367316D01*
X125485488Y-93340200D01*
X132432172Y-93340200D01*
X135005800Y-95913827D01*
G36*
X118145104Y-102940629D02*
X118144896Y-103179324D01*
X118236048Y-103399929D01*
X118386258Y-103550402D01*
X118343492Y-103653394D01*
X118343308Y-103863684D01*
X118392692Y-103983204D01*
X118340222Y-104059997D01*
X118316123Y-104179000D01*
X118316123Y-104779000D01*
X118337042Y-104890173D01*
X118402745Y-104992279D01*
X118502997Y-105060778D01*
X118622000Y-105084877D01*
X119122000Y-105084877D01*
X119233173Y-105063958D01*
X119335279Y-104998255D01*
X119403778Y-104898003D01*
X119427877Y-104779000D01*
X119427877Y-104179000D01*
X119406958Y-104067827D01*
X119351749Y-103982030D01*
X119400508Y-103864606D01*
X119400692Y-103654316D01*
X119320387Y-103459963D01*
X119255705Y-103395168D01*
X119344896Y-103180371D01*
X119345104Y-102941676D01*
X119313505Y-102865200D01*
X119409292Y-102865200D01*
X119351604Y-103004129D01*
X119351396Y-103242824D01*
X119442548Y-103463429D01*
X119611183Y-103632359D01*
X119831629Y-103723896D01*
X120070324Y-103724104D01*
X120210990Y-103665982D01*
X120129986Y-103746986D01*
X120048437Y-103869034D01*
X120048437Y-103869035D01*
X120043798Y-103892354D01*
X120034827Y-103894042D01*
X119932721Y-103959745D01*
X119864222Y-104059997D01*
X119840123Y-104179000D01*
X119840123Y-104779000D01*
X119861042Y-104890173D01*
X119926745Y-104992279D01*
X120026997Y-105060778D01*
X120146000Y-105084877D01*
X120646000Y-105084877D01*
X120757173Y-105063958D01*
X120859279Y-104998255D01*
X120927778Y-104898003D01*
X120951877Y-104779000D01*
X120951877Y-104179000D01*
X120943617Y-104135102D01*
X121076037Y-104080387D01*
X121224864Y-103931819D01*
X121305508Y-103737606D01*
X121305692Y-103527316D01*
X121225387Y-103332963D01*
X121076819Y-103184136D01*
X120882606Y-103103492D01*
X120672316Y-103103308D01*
X120551475Y-103153238D01*
X120551604Y-103005176D01*
X120493767Y-102865200D01*
X120875172Y-102865200D01*
X123685984Y-105676011D01*
X123685986Y-105676014D01*
X123742609Y-105713848D01*
X123808035Y-105757564D01*
X123952000Y-105786201D01*
X123952005Y-105786200D01*
X124492592Y-105786200D01*
X124396141Y-105882483D01*
X124304604Y-106102929D01*
X124304396Y-106341624D01*
X124395548Y-106562229D01*
X124564183Y-106731159D01*
X124784629Y-106822696D01*
X125023324Y-106822904D01*
X125243929Y-106731752D01*
X125307454Y-106668338D01*
X125277346Y-106819700D01*
X125277346Y-108428165D01*
X122258466Y-111447046D01*
X120820675Y-111447046D01*
X120830796Y-111422671D01*
X120831004Y-111183976D01*
X120739852Y-110963371D01*
X120715548Y-110939024D01*
X121154796Y-110939024D01*
X121245948Y-111159629D01*
X121414583Y-111328559D01*
X121635029Y-111420096D01*
X121873724Y-111420304D01*
X122094329Y-111329152D01*
X122263259Y-111160517D01*
X122354796Y-110940071D01*
X122355004Y-110701376D01*
X122263852Y-110480771D01*
X122095217Y-110311841D01*
X121874771Y-110220304D01*
X121636076Y-110220096D01*
X121415471Y-110311248D01*
X121246541Y-110479883D01*
X121155004Y-110700329D01*
X121154796Y-110939024D01*
X120715548Y-110939024D01*
X120571217Y-110794441D01*
X120413818Y-110729083D01*
X120416508Y-110722606D01*
X120416692Y-110512316D01*
X120358272Y-110370929D01*
X120401279Y-110343255D01*
X120469778Y-110243003D01*
X120493877Y-110124000D01*
X120493877Y-109724000D01*
X120472958Y-109612827D01*
X120407255Y-109510721D01*
X120307003Y-109442222D01*
X120188000Y-109418123D01*
X119588000Y-109418123D01*
X119476827Y-109439042D01*
X119374721Y-109504745D01*
X119306222Y-109604997D01*
X119282123Y-109724000D01*
X119282123Y-110124000D01*
X119303042Y-110235173D01*
X119368745Y-110337279D01*
X119417857Y-110370836D01*
X119359492Y-110511394D01*
X119359308Y-110721684D01*
X119439613Y-110916037D01*
X119588181Y-111064864D01*
X119666521Y-111097394D01*
X119631004Y-111182929D01*
X119630796Y-111421624D01*
X119641300Y-111447046D01*
X118270128Y-111447046D01*
X118290796Y-111397271D01*
X118291004Y-111158576D01*
X118199852Y-110937971D01*
X118031217Y-110769041D01*
X117810771Y-110677504D01*
X117572076Y-110677296D01*
X117351471Y-110768448D01*
X117182541Y-110937083D01*
X117091004Y-111157529D01*
X117090796Y-111396224D01*
X117111795Y-111447046D01*
X116442369Y-111447046D01*
X116479508Y-111357606D01*
X116479692Y-111147316D01*
X116399387Y-110952963D01*
X116327200Y-110880650D01*
X116327200Y-110099358D01*
X116398864Y-110027819D01*
X116479508Y-109833606D01*
X116479692Y-109623316D01*
X116399387Y-109428963D01*
X116250819Y-109280136D01*
X116056606Y-109199492D01*
X115846316Y-109199308D01*
X115651963Y-109279613D01*
X115503136Y-109428181D01*
X115422492Y-109622394D01*
X115422308Y-109832684D01*
X115502613Y-110027037D01*
X115574800Y-110099350D01*
X115574800Y-110880642D01*
X115503136Y-110952181D01*
X115422492Y-111146394D01*
X115422308Y-111356684D01*
X115459645Y-111447046D01*
X112332622Y-111447046D01*
X112327026Y-111418914D01*
X112074789Y-111041415D01*
X112002630Y-110993200D01*
X113196021Y-110993200D01*
X113216613Y-111043037D01*
X113365181Y-111191864D01*
X113559394Y-111272508D01*
X113769684Y-111272692D01*
X113964037Y-111192387D01*
X114112864Y-111043819D01*
X114193508Y-110849606D01*
X114193692Y-110639316D01*
X114123632Y-110469758D01*
X114166079Y-110461314D01*
X114189966Y-110456563D01*
X114312014Y-110375014D01*
X115201011Y-109486016D01*
X115201014Y-109486014D01*
X115282563Y-109363966D01*
X115282564Y-109363965D01*
X115311201Y-109220000D01*
X115311200Y-109219995D01*
X115311200Y-108966005D01*
X115311201Y-108966000D01*
X115282564Y-108822035D01*
X115253651Y-108778763D01*
X115201014Y-108699986D01*
X115201011Y-108699984D01*
X115159786Y-108658759D01*
X115337394Y-108732508D01*
X115547684Y-108732692D01*
X115742037Y-108652387D01*
X115890864Y-108503819D01*
X115921671Y-108429627D01*
X115997997Y-108481778D01*
X116117000Y-108505877D01*
X116717000Y-108505877D01*
X116828173Y-108484958D01*
X116930279Y-108419255D01*
X116998778Y-108319003D01*
X117022877Y-108200000D01*
X117022877Y-107700000D01*
X117001958Y-107588827D01*
X116936255Y-107486721D01*
X116836003Y-107418222D01*
X116717000Y-107394123D01*
X116117000Y-107394123D01*
X116043030Y-107408042D01*
X116043104Y-107323176D01*
X115951952Y-107102571D01*
X115783317Y-106933641D01*
X115562871Y-106842104D01*
X115324176Y-106841896D01*
X115103571Y-106933048D01*
X114934641Y-107101683D01*
X114843104Y-107322129D01*
X114842896Y-107560824D01*
X114934048Y-107781429D01*
X115025914Y-107873456D01*
X114995136Y-107904181D01*
X114914492Y-108098394D01*
X114914308Y-108308684D01*
X114987958Y-108486931D01*
X114422200Y-107921172D01*
X114422200Y-106684000D01*
X121229123Y-106684000D01*
X121229123Y-107184000D01*
X121250042Y-107295173D01*
X121315745Y-107397279D01*
X121415997Y-107465778D01*
X121535000Y-107489877D01*
X122135000Y-107489877D01*
X122246173Y-107468958D01*
X122348279Y-107403255D01*
X122411861Y-107310200D01*
X122540845Y-107310200D01*
X122601794Y-107335508D01*
X122812084Y-107335692D01*
X123006437Y-107255387D01*
X123155264Y-107106819D01*
X123235908Y-106912606D01*
X123236092Y-106702316D01*
X123155787Y-106507963D01*
X123007219Y-106359136D01*
X122813006Y-106278492D01*
X122602716Y-106278308D01*
X122408363Y-106358613D01*
X122319707Y-106447115D01*
X122254003Y-106402222D01*
X122135000Y-106378123D01*
X121535000Y-106378123D01*
X121423827Y-106399042D01*
X121321721Y-106464745D01*
X121253222Y-106564997D01*
X121229123Y-106684000D01*
X114422200Y-106684000D01*
X114422200Y-106058455D01*
X114599037Y-105985387D01*
X114671382Y-105913168D01*
X114660492Y-105939394D01*
X114660308Y-106149684D01*
X114740613Y-106344037D01*
X114889181Y-106492864D01*
X115083394Y-106573508D01*
X115293684Y-106573692D01*
X115488037Y-106493387D01*
X115636864Y-106344819D01*
X115717508Y-106150606D01*
X115717692Y-105940316D01*
X115637387Y-105745963D01*
X115565200Y-105673650D01*
X115565200Y-104893824D01*
X115985896Y-104893824D01*
X116077048Y-105114429D01*
X116245683Y-105283359D01*
X116466129Y-105374896D01*
X116704824Y-105375104D01*
X116925429Y-105283952D01*
X117094359Y-105115317D01*
X117185896Y-104894871D01*
X117186104Y-104656176D01*
X117094952Y-104435571D01*
X116926317Y-104266641D01*
X116705871Y-104175104D01*
X116467176Y-104174896D01*
X116246571Y-104266048D01*
X116077641Y-104434683D01*
X115986104Y-104655129D01*
X115985896Y-104893824D01*
X115565200Y-104893824D01*
X115565200Y-104803828D01*
X117503828Y-102865200D01*
X118176425Y-102865200D01*
X118145104Y-102940629D01*
X118145104Y-102940629D01*
G37*
X118145104Y-102940629D02*
X118144896Y-103179324D01*
X118236048Y-103399929D01*
X118386258Y-103550402D01*
X118343492Y-103653394D01*
X118343308Y-103863684D01*
X118392692Y-103983204D01*
X118340222Y-104059997D01*
X118316123Y-104179000D01*
X118316123Y-104779000D01*
X118337042Y-104890173D01*
X118402745Y-104992279D01*
X118502997Y-105060778D01*
X118622000Y-105084877D01*
X119122000Y-105084877D01*
X119233173Y-105063958D01*
X119335279Y-104998255D01*
X119403778Y-104898003D01*
X119427877Y-104779000D01*
X119427877Y-104179000D01*
X119406958Y-104067827D01*
X119351749Y-103982030D01*
X119400508Y-103864606D01*
X119400692Y-103654316D01*
X119320387Y-103459963D01*
X119255705Y-103395168D01*
X119344896Y-103180371D01*
X119345104Y-102941676D01*
X119313505Y-102865200D01*
X119409292Y-102865200D01*
X119351604Y-103004129D01*
X119351396Y-103242824D01*
X119442548Y-103463429D01*
X119611183Y-103632359D01*
X119831629Y-103723896D01*
X120070324Y-103724104D01*
X120210990Y-103665982D01*
X120129986Y-103746986D01*
X120048437Y-103869034D01*
X120048437Y-103869035D01*
X120043798Y-103892354D01*
X120034827Y-103894042D01*
X119932721Y-103959745D01*
X119864222Y-104059997D01*
X119840123Y-104179000D01*
X119840123Y-104779000D01*
X119861042Y-104890173D01*
X119926745Y-104992279D01*
X120026997Y-105060778D01*
X120146000Y-105084877D01*
X120646000Y-105084877D01*
X120757173Y-105063958D01*
X120859279Y-104998255D01*
X120927778Y-104898003D01*
X120951877Y-104779000D01*
X120951877Y-104179000D01*
X120943617Y-104135102D01*
X121076037Y-104080387D01*
X121224864Y-103931819D01*
X121305508Y-103737606D01*
X121305692Y-103527316D01*
X121225387Y-103332963D01*
X121076819Y-103184136D01*
X120882606Y-103103492D01*
X120672316Y-103103308D01*
X120551475Y-103153238D01*
X120551604Y-103005176D01*
X120493767Y-102865200D01*
X120875172Y-102865200D01*
X123685984Y-105676011D01*
X123685986Y-105676014D01*
X123742609Y-105713848D01*
X123808035Y-105757564D01*
X123952000Y-105786201D01*
X123952005Y-105786200D01*
X124492592Y-105786200D01*
X124396141Y-105882483D01*
X124304604Y-106102929D01*
X124304396Y-106341624D01*
X124395548Y-106562229D01*
X124564183Y-106731159D01*
X124784629Y-106822696D01*
X125023324Y-106822904D01*
X125243929Y-106731752D01*
X125307454Y-106668338D01*
X125277346Y-106819700D01*
X125277346Y-108428165D01*
X122258466Y-111447046D01*
X120820675Y-111447046D01*
X120830796Y-111422671D01*
X120831004Y-111183976D01*
X120739852Y-110963371D01*
X120715548Y-110939024D01*
X121154796Y-110939024D01*
X121245948Y-111159629D01*
X121414583Y-111328559D01*
X121635029Y-111420096D01*
X121873724Y-111420304D01*
X122094329Y-111329152D01*
X122263259Y-111160517D01*
X122354796Y-110940071D01*
X122355004Y-110701376D01*
X122263852Y-110480771D01*
X122095217Y-110311841D01*
X121874771Y-110220304D01*
X121636076Y-110220096D01*
X121415471Y-110311248D01*
X121246541Y-110479883D01*
X121155004Y-110700329D01*
X121154796Y-110939024D01*
X120715548Y-110939024D01*
X120571217Y-110794441D01*
X120413818Y-110729083D01*
X120416508Y-110722606D01*
X120416692Y-110512316D01*
X120358272Y-110370929D01*
X120401279Y-110343255D01*
X120469778Y-110243003D01*
X120493877Y-110124000D01*
X120493877Y-109724000D01*
X120472958Y-109612827D01*
X120407255Y-109510721D01*
X120307003Y-109442222D01*
X120188000Y-109418123D01*
X119588000Y-109418123D01*
X119476827Y-109439042D01*
X119374721Y-109504745D01*
X119306222Y-109604997D01*
X119282123Y-109724000D01*
X119282123Y-110124000D01*
X119303042Y-110235173D01*
X119368745Y-110337279D01*
X119417857Y-110370836D01*
X119359492Y-110511394D01*
X119359308Y-110721684D01*
X119439613Y-110916037D01*
X119588181Y-111064864D01*
X119666521Y-111097394D01*
X119631004Y-111182929D01*
X119630796Y-111421624D01*
X119641300Y-111447046D01*
X118270128Y-111447046D01*
X118290796Y-111397271D01*
X118291004Y-111158576D01*
X118199852Y-110937971D01*
X118031217Y-110769041D01*
X117810771Y-110677504D01*
X117572076Y-110677296D01*
X117351471Y-110768448D01*
X117182541Y-110937083D01*
X117091004Y-111157529D01*
X117090796Y-111396224D01*
X117111795Y-111447046D01*
X116442369Y-111447046D01*
X116479508Y-111357606D01*
X116479692Y-111147316D01*
X116399387Y-110952963D01*
X116327200Y-110880650D01*
X116327200Y-110099358D01*
X116398864Y-110027819D01*
X116479508Y-109833606D01*
X116479692Y-109623316D01*
X116399387Y-109428963D01*
X116250819Y-109280136D01*
X116056606Y-109199492D01*
X115846316Y-109199308D01*
X115651963Y-109279613D01*
X115503136Y-109428181D01*
X115422492Y-109622394D01*
X115422308Y-109832684D01*
X115502613Y-110027037D01*
X115574800Y-110099350D01*
X115574800Y-110880642D01*
X115503136Y-110952181D01*
X115422492Y-111146394D01*
X115422308Y-111356684D01*
X115459645Y-111447046D01*
X112332622Y-111447046D01*
X112327026Y-111418914D01*
X112074789Y-111041415D01*
X112002630Y-110993200D01*
X113196021Y-110993200D01*
X113216613Y-111043037D01*
X113365181Y-111191864D01*
X113559394Y-111272508D01*
X113769684Y-111272692D01*
X113964037Y-111192387D01*
X114112864Y-111043819D01*
X114193508Y-110849606D01*
X114193692Y-110639316D01*
X114123632Y-110469758D01*
X114166079Y-110461314D01*
X114189966Y-110456563D01*
X114312014Y-110375014D01*
X115201011Y-109486016D01*
X115201014Y-109486014D01*
X115282563Y-109363966D01*
X115282564Y-109363965D01*
X115311201Y-109220000D01*
X115311200Y-109219995D01*
X115311200Y-108966005D01*
X115311201Y-108966000D01*
X115282564Y-108822035D01*
X115253651Y-108778763D01*
X115201014Y-108699986D01*
X115201011Y-108699984D01*
X115159786Y-108658759D01*
X115337394Y-108732508D01*
X115547684Y-108732692D01*
X115742037Y-108652387D01*
X115890864Y-108503819D01*
X115921671Y-108429627D01*
X115997997Y-108481778D01*
X116117000Y-108505877D01*
X116717000Y-108505877D01*
X116828173Y-108484958D01*
X116930279Y-108419255D01*
X116998778Y-108319003D01*
X117022877Y-108200000D01*
X117022877Y-107700000D01*
X117001958Y-107588827D01*
X116936255Y-107486721D01*
X116836003Y-107418222D01*
X116717000Y-107394123D01*
X116117000Y-107394123D01*
X116043030Y-107408042D01*
X116043104Y-107323176D01*
X115951952Y-107102571D01*
X115783317Y-106933641D01*
X115562871Y-106842104D01*
X115324176Y-106841896D01*
X115103571Y-106933048D01*
X114934641Y-107101683D01*
X114843104Y-107322129D01*
X114842896Y-107560824D01*
X114934048Y-107781429D01*
X115025914Y-107873456D01*
X114995136Y-107904181D01*
X114914492Y-108098394D01*
X114914308Y-108308684D01*
X114987958Y-108486931D01*
X114422200Y-107921172D01*
X114422200Y-106684000D01*
X121229123Y-106684000D01*
X121229123Y-107184000D01*
X121250042Y-107295173D01*
X121315745Y-107397279D01*
X121415997Y-107465778D01*
X121535000Y-107489877D01*
X122135000Y-107489877D01*
X122246173Y-107468958D01*
X122348279Y-107403255D01*
X122411861Y-107310200D01*
X122540845Y-107310200D01*
X122601794Y-107335508D01*
X122812084Y-107335692D01*
X123006437Y-107255387D01*
X123155264Y-107106819D01*
X123235908Y-106912606D01*
X123236092Y-106702316D01*
X123155787Y-106507963D01*
X123007219Y-106359136D01*
X122813006Y-106278492D01*
X122602716Y-106278308D01*
X122408363Y-106358613D01*
X122319707Y-106447115D01*
X122254003Y-106402222D01*
X122135000Y-106378123D01*
X121535000Y-106378123D01*
X121423827Y-106399042D01*
X121321721Y-106464745D01*
X121253222Y-106564997D01*
X121229123Y-106684000D01*
X114422200Y-106684000D01*
X114422200Y-106058455D01*
X114599037Y-105985387D01*
X114671382Y-105913168D01*
X114660492Y-105939394D01*
X114660308Y-106149684D01*
X114740613Y-106344037D01*
X114889181Y-106492864D01*
X115083394Y-106573508D01*
X115293684Y-106573692D01*
X115488037Y-106493387D01*
X115636864Y-106344819D01*
X115717508Y-106150606D01*
X115717692Y-105940316D01*
X115637387Y-105745963D01*
X115565200Y-105673650D01*
X115565200Y-104893824D01*
X115985896Y-104893824D01*
X116077048Y-105114429D01*
X116245683Y-105283359D01*
X116466129Y-105374896D01*
X116704824Y-105375104D01*
X116925429Y-105283952D01*
X117094359Y-105115317D01*
X117185896Y-104894871D01*
X117186104Y-104656176D01*
X117094952Y-104435571D01*
X116926317Y-104266641D01*
X116705871Y-104175104D01*
X116467176Y-104174896D01*
X116246571Y-104266048D01*
X116077641Y-104434683D01*
X115986104Y-104655129D01*
X115985896Y-104893824D01*
X115565200Y-104893824D01*
X115565200Y-104803828D01*
X117503828Y-102865200D01*
X118176425Y-102865200D01*
X118145104Y-102940629D01*
M02*
