M48
;DRILL file {KiCad 4.0.1-stable} date 2/1/2017 7:22:00 PM
;FORMAT={2:4/ absolute / inch / suppress trailing zeros}
FMAT,2
INCH,LZ
T1C0.010
T2C0.012
T3C0.016
T4C0.018
T5C0.028
T6C0.035
T7C0.040
T8C0.071
T9C0.070
%
G90
G05
M72
T1
X0446Y-03815
X04475Y-0436
X045Y-04155
X045Y-043
X04535Y-04175
X04545Y-0426
X04565Y-0432
X04565Y-0438
X0466Y-0422
X0468Y-04085
X0469Y-0419
X0469Y-0425
X0472Y-0422
X0472Y-04355
X04755Y-0408
X04765Y-03635
X04797Y-03481
X04799Y-03538
X04828Y-03473
X04831Y-04205
X0492Y-03595
X0492Y-0368
X0494Y-0415
X04954Y-03514
X0501Y-0393
X050165Y-04197
X05145Y-04245
X05494Y-040745
X0553Y-04195
X0553Y-04265
X05565Y-0423
X05605Y-04195
X05605Y-04265
X05715Y-04305
X057225Y-042375
X0575Y-0445
X0577Y-0443
X0579Y-04405
X0587Y-0346
X0587Y-0356
X0587Y-0366
X0587Y-0376
X0597Y-0346
X0597Y-0356
X0597Y-0366
X0597Y-0376
X0607Y-0346
X0607Y-0356
X0607Y-0366
X0607Y-0376
T2
X05Y-0422
X050012Y-0431
X051155Y-036875
X052837Y-0416
X052862Y-042475
X052862Y-043325
X0529Y-038965
X052925Y-040285
X053277Y-04425
X05389Y-037815
X054282Y-037805
X056347Y-03874
X057709Y-0408
X057734Y-0424
X058159Y-0408
X058184Y-0424
X058497Y-03879
X059532Y-04436
T3
X0434Y-03855
X044375Y-0423
X0448Y-04125
X04515Y-04075
X04545Y-0423
X0459Y-04125
X04605Y-039575
X046335Y-04381
X04665Y-039875
X046655Y-04453
X04675Y-040575
X04706Y-044525
X0471Y-03955
X047225Y-0406
X047335Y-04382
X047615Y-04441
X047935Y-04363
X04835Y-040725
X0485Y-03605
X048845Y-04106
X0491Y-03538
X049175Y-04182
X04935Y-04425
X04945Y-0438
X05037Y-03513
X0507Y-0417
X05075Y-0386
X05132Y-039295
X0515Y-04135
X051685Y-038335
X0527Y-03635
X0541Y-04305
X0541Y-0434
X054135Y-041115
X05414Y-041815
X05415Y-0415
X054645Y-0362
X054715Y-03668
X05473Y-037015
X05495Y-04375
X05525Y-04375
X05555Y-04375
X05585Y-04375
X0564Y-04375
X05705Y-0367
X05705Y-03705
X05707Y-03749
X057305Y-03614
T4
X0591Y-0433
X05985Y-039
T5
X054505Y-035455
X0572Y-03485
T6
X04412Y-03465
X04412Y-03595
X0451Y-03465
X0451Y-03595
X04608Y-03465
X04608Y-03595
T7
X0428Y-04005
X0428Y-04105
X0428Y-04205
X0428Y-04305
X0428Y-04405
X0438Y-04005
X0438Y-04105
X0438Y-04205
X0438Y-04305
X0438Y-04405
X045Y-0374
X046Y-0374
X046Y-03865
X047Y-0374
X047Y-03865
X048Y-03865
X05005Y-04035
X05105Y-04035
X05205Y-04035
T8
X051895Y-034825
X053455Y-034825
T9
X05388Y-036164
T0
M30
