G04 #@! TF.FileFunction,Soldermask,Top*
%FSLAX46Y46*%
G04 Gerber Fmt 4.6, Leading zero omitted, Abs format (unit mm)*
G04 Created by KiCad (PCBNEW 4.0.7-e2-6376~58~ubuntu16.04.1) date Fri Apr 27 15:54:17 2018*
%MOMM*%
%LPD*%
G01*
G04 APERTURE LIST*
%ADD10C,0.100000*%
%ADD11R,2.200000X1.050000*%
%ADD12R,1.050000X1.000000*%
%ADD13R,0.330000X0.900000*%
%ADD14R,0.900000X0.330000*%
%ADD15R,3.200000X3.200000*%
%ADD16R,0.600000X0.500000*%
%ADD17R,1.175000X0.475000*%
%ADD18R,1.175000X0.625000*%
%ADD19C,1.500000*%
%ADD20C,1.250000*%
%ADD21R,3.050000X1.000000*%
%ADD22R,1.000000X3.050000*%
%ADD23R,0.920000X0.920000*%
%ADD24R,0.440000X0.200000*%
%ADD25R,0.200000X0.440000*%
%ADD26R,0.280000X0.750000*%
%ADD27R,2.460000X0.900000*%
%ADD28R,0.310000X0.560000*%
%ADD29R,1.240000X0.750000*%
%ADD30R,1.500000X2.200000*%
%ADD31R,2.200000X1.500000*%
%ADD32R,0.500000X0.600000*%
%ADD33R,1.190000X0.740000*%
%ADD34R,0.660000X0.460000*%
%ADD35R,0.660000X0.310000*%
%ADD36R,1.060000X0.460000*%
%ADD37R,0.460000X1.710000*%
%ADD38R,0.460000X3.210000*%
%ADD39R,0.310000X0.810000*%
%ADD40R,0.600000X0.400000*%
%ADD41R,0.400000X0.600000*%
%ADD42R,1.000000X1.250000*%
%ADD43R,1.950000X2.500000*%
%ADD44R,2.550000X2.500000*%
%ADD45R,0.800000X0.750000*%
%ADD46R,1.000000X1.600000*%
%ADD47R,2.900000X1.400000*%
%ADD48R,0.578000X0.310000*%
%ADD49R,0.310000X0.578000*%
%ADD50R,2.750000X2.750000*%
%ADD51R,1.400000X1.200000*%
%ADD52R,1.200000X1.400000*%
%ADD53R,1.450000X0.450000*%
%ADD54R,0.600000X0.800000*%
%ADD55R,0.600000X0.420000*%
%ADD56R,0.350000X0.800000*%
%ADD57R,0.800000X0.350000*%
%ADD58R,1.700000X1.700000*%
%ADD59C,1.700000*%
%ADD60O,1.700000X1.700000*%
%ADD61R,0.800000X0.600000*%
%ADD62R,0.360000X0.610000*%
%ADD63R,0.610000X0.360000*%
%ADD64R,2.760000X2.760000*%
%ADD65C,0.300000*%
%ADD66R,0.600000X0.300000*%
%ADD67R,0.800000X1.600000*%
%ADD68R,1.250000X1.000000*%
%ADD69R,0.500000X0.900000*%
%ADD70R,0.787400X2.463800*%
%ADD71R,1.050000X2.200000*%
%ADD72R,1.000000X1.050000*%
%ADD73R,0.800000X0.800000*%
%ADD74R,0.750000X0.800000*%
%ADD75R,1.600000X1.000000*%
%ADD76C,1.720000*%
%ADD77C,6.350000*%
%ADD78C,2.400000*%
%ADD79C,2.300000*%
%ADD80R,2.300000X2.200000*%
%ADD81C,1.350000*%
%ADD82R,2.400000X2.000000*%
%ADD83R,1.600000X0.350000*%
%ADD84C,0.600000*%
%ADD85C,0.025400*%
%ADD86C,0.001000*%
%ADD87C,0.254000*%
%ADD88C,0.200000*%
G04 APERTURE END LIST*
D10*
D11*
X143560000Y-111705000D03*
X143560000Y-108755000D03*
D12*
X145085000Y-110230000D03*
D13*
X177740000Y-106735000D03*
D14*
X177015000Y-102510000D03*
X177015000Y-103010000D03*
X177015000Y-103510000D03*
X177015000Y-104010000D03*
X177015000Y-104510000D03*
X177015000Y-105010000D03*
X177015000Y-105510000D03*
X177015000Y-106010000D03*
X181965000Y-102510000D03*
X181965000Y-103010000D03*
X181965000Y-103510000D03*
X181965000Y-104010000D03*
X181965000Y-104510000D03*
X181965000Y-105010000D03*
X181965000Y-105510000D03*
X181965000Y-106010000D03*
D13*
X178240000Y-106735000D03*
X178740000Y-106735000D03*
X179240000Y-106735000D03*
X179740000Y-106735000D03*
X180240000Y-106735000D03*
X180740000Y-106735000D03*
X181240000Y-106735000D03*
X177740000Y-101785000D03*
X178240000Y-101785000D03*
X178740000Y-101785000D03*
X179240000Y-101785000D03*
X179740000Y-101785000D03*
X180240000Y-101785000D03*
X180740000Y-101785000D03*
X181240000Y-101785000D03*
D15*
X179490000Y-104260000D03*
D16*
X118025000Y-89750000D03*
X116975000Y-89750000D03*
D17*
X132325000Y-79725000D03*
D18*
X132325000Y-79000000D03*
D17*
X132325000Y-80375000D03*
D18*
X132325000Y-81100000D03*
X136675000Y-79000000D03*
D17*
X136675000Y-79725000D03*
X136675000Y-80375000D03*
D18*
X136675000Y-81100000D03*
D19*
X189750000Y-145750000D03*
X195250000Y-145750000D03*
X187750000Y-145750000D03*
X182250000Y-145750000D03*
X157580000Y-61820000D03*
X148920000Y-107420000D03*
X174750000Y-145750000D03*
X180250000Y-145750000D03*
X177250000Y-145750000D03*
D20*
X176500000Y-134000000D03*
X179000000Y-131500000D03*
X176500000Y-129000000D03*
D19*
X146960000Y-98620000D03*
X164970000Y-143450000D03*
X133340000Y-97070000D03*
X131280000Y-97070000D03*
X135400000Y-97070000D03*
X146960000Y-96220000D03*
X151350000Y-141900000D03*
X149290000Y-141900000D03*
X153410000Y-141900000D03*
X164970000Y-141050000D03*
D21*
X115265000Y-76760000D03*
D22*
X114240000Y-77785000D03*
D21*
X121140000Y-76760000D03*
X127140000Y-76760000D03*
X133140000Y-76760000D03*
X139140000Y-76760000D03*
X145140000Y-76760000D03*
D22*
X152140000Y-77785000D03*
D21*
X151115000Y-76760000D03*
D22*
X152140000Y-83760000D03*
X152140000Y-89760000D03*
X152140000Y-95760000D03*
X152140000Y-100935000D03*
D21*
X151115000Y-101960000D03*
X145140000Y-101960000D03*
X139140000Y-101960000D03*
X133140000Y-101960000D03*
X127140000Y-101960000D03*
X121140000Y-101960000D03*
D22*
X114240000Y-100935000D03*
D21*
X115265000Y-101960000D03*
D22*
X114240000Y-95760000D03*
X114240000Y-89760000D03*
X114240000Y-83760000D03*
D21*
X133275000Y-121645000D03*
D22*
X132250000Y-122670000D03*
D21*
X139150000Y-121645000D03*
X145150000Y-121645000D03*
X151150000Y-121645000D03*
X157150000Y-121645000D03*
X163150000Y-121645000D03*
D22*
X170150000Y-122670000D03*
D21*
X169125000Y-121645000D03*
D22*
X170150000Y-128645000D03*
X170150000Y-134645000D03*
X170150000Y-140645000D03*
X170150000Y-145820000D03*
D21*
X169125000Y-146845000D03*
X163150000Y-146845000D03*
X157150000Y-146845000D03*
X151150000Y-146845000D03*
X145150000Y-146845000D03*
X139150000Y-146845000D03*
D22*
X132250000Y-145820000D03*
D21*
X133275000Y-146845000D03*
D22*
X132250000Y-140645000D03*
X132250000Y-134645000D03*
X132250000Y-128645000D03*
D23*
X115740000Y-121460000D03*
D24*
X116670000Y-121860000D03*
D25*
X115340000Y-122390000D03*
D24*
X114810000Y-121060000D03*
D25*
X116140000Y-120530000D03*
X115740000Y-120530000D03*
X115340000Y-120530000D03*
D24*
X114810000Y-121460000D03*
X114810000Y-121860000D03*
D25*
X115740000Y-122390000D03*
X116140000Y-122390000D03*
D24*
X116670000Y-121460000D03*
X116670000Y-121060000D03*
D17*
X150497844Y-124320000D03*
D18*
X150497844Y-123595000D03*
D17*
X150497844Y-124970000D03*
D18*
X150497844Y-125695000D03*
X154847844Y-123595000D03*
D17*
X154847844Y-124320000D03*
X154847844Y-124970000D03*
D18*
X154847844Y-125695000D03*
D26*
X166200000Y-78615000D03*
X166700000Y-78615000D03*
X165700000Y-78615000D03*
X165700000Y-77465000D03*
X166200000Y-77465000D03*
X166700000Y-77465000D03*
D27*
X158200000Y-75290000D03*
D28*
X158700000Y-76240000D03*
X158200000Y-76240000D03*
X159200000Y-76240000D03*
X157700000Y-76240000D03*
X157200000Y-76240000D03*
X157200000Y-74340000D03*
X158700000Y-74340000D03*
X158200000Y-74340000D03*
X159200000Y-74340000D03*
X157700000Y-74340000D03*
D29*
X188850000Y-72530000D03*
X188850000Y-74430000D03*
X186150000Y-72530000D03*
X186150000Y-74430000D03*
X186150000Y-73480000D03*
D30*
X163600000Y-80540000D03*
X157300000Y-80540000D03*
D31*
X175800000Y-75840000D03*
X175800000Y-70340000D03*
D32*
X118050000Y-97485000D03*
X118050000Y-96435000D03*
X135000000Y-125975000D03*
X135000000Y-127025000D03*
D33*
X187599898Y-81033344D03*
X187599898Y-80083344D03*
X187599898Y-81983344D03*
X190299898Y-81983344D03*
X190299898Y-80083344D03*
D34*
X173900000Y-62590000D03*
D35*
X173900000Y-63165000D03*
X173900000Y-64015000D03*
D36*
X174100000Y-64840000D03*
D35*
X173900000Y-65765000D03*
X173900000Y-66265000D03*
X173900000Y-66765000D03*
D37*
X174800000Y-66465000D03*
D38*
X175800000Y-65715000D03*
D37*
X176800000Y-66465000D03*
D35*
X177700000Y-66765000D03*
X177700000Y-66265000D03*
X177700000Y-65765000D03*
D36*
X177500000Y-64840000D03*
D35*
X177700000Y-64015000D03*
X177700000Y-63165000D03*
D34*
X177700000Y-62590000D03*
D39*
X176800000Y-62265000D03*
X176300000Y-62265000D03*
X175800000Y-62265000D03*
X175300000Y-62265000D03*
X174800000Y-62265000D03*
D40*
X183250000Y-73430000D03*
X183250000Y-72530000D03*
X184734898Y-80108344D03*
X184734898Y-81008344D03*
D41*
X177750000Y-84090000D03*
X176850000Y-84090000D03*
D42*
X180300000Y-82340000D03*
X182300000Y-82340000D03*
X176800000Y-82340000D03*
X178800000Y-82340000D03*
D32*
X120180000Y-85945000D03*
X120180000Y-84895000D03*
D43*
X133260000Y-93710000D03*
X130210000Y-93710000D03*
D44*
X144565000Y-90530000D03*
X149615000Y-90530000D03*
D43*
X143855000Y-86540000D03*
X146905000Y-86540000D03*
D32*
X138940000Y-130775000D03*
X138940000Y-129725000D03*
D16*
X161895000Y-128160000D03*
X162945000Y-128160000D03*
D43*
X151270000Y-138540000D03*
X148220000Y-138540000D03*
D44*
X162575000Y-135360000D03*
X167625000Y-135360000D03*
D43*
X161865000Y-131370000D03*
X164915000Y-131370000D03*
D42*
X157200000Y-72540000D03*
X159200000Y-72540000D03*
D45*
X188000000Y-70980000D03*
X186500000Y-70980000D03*
D16*
X188025000Y-75930000D03*
X186975000Y-75930000D03*
D32*
X184750000Y-72480000D03*
X184750000Y-73530000D03*
D16*
X190195000Y-78820000D03*
X189145000Y-78820000D03*
D32*
X185984898Y-80083344D03*
X185984898Y-81133344D03*
D46*
X176550000Y-80340000D03*
X179550000Y-80340000D03*
X175050000Y-82590000D03*
X172050000Y-82590000D03*
X175050000Y-80340000D03*
X172050000Y-80340000D03*
X176550000Y-78090000D03*
X179550000Y-78090000D03*
D32*
X175300000Y-60365000D03*
X175300000Y-59315000D03*
X171550000Y-75865000D03*
X171550000Y-74815000D03*
D42*
X173220000Y-60800000D03*
X171220000Y-60800000D03*
D32*
X172800000Y-64815000D03*
X172800000Y-65865000D03*
D47*
X170300000Y-63540000D03*
X170300000Y-67140000D03*
X163800000Y-63540000D03*
X163800000Y-67140000D03*
D32*
X178800000Y-64815000D03*
X178800000Y-65865000D03*
D47*
X181300000Y-63540000D03*
X181300000Y-67140000D03*
X184550000Y-63540000D03*
X184550000Y-67140000D03*
X187800000Y-63540000D03*
X187800000Y-67140000D03*
D48*
X154404000Y-129570000D03*
X154404000Y-130070000D03*
X154404000Y-130570000D03*
X154404000Y-131070000D03*
X154404000Y-131570000D03*
X154404000Y-132070000D03*
X150676000Y-132070000D03*
X150676000Y-131570000D03*
X150676000Y-131070000D03*
X150676000Y-129570000D03*
X150676000Y-130070000D03*
D49*
X151290000Y-132684000D03*
X151790000Y-132684000D03*
X152290000Y-132684000D03*
X152790000Y-132684000D03*
X153290000Y-132684000D03*
X153790000Y-132684000D03*
X153790000Y-128956000D03*
X153290000Y-128956000D03*
X152790000Y-128956000D03*
X151290000Y-128956000D03*
X151790000Y-128956000D03*
X152290000Y-128956000D03*
D48*
X150676000Y-130570000D03*
D50*
X152540000Y-130820000D03*
D48*
X136394000Y-84740000D03*
X136394000Y-85240000D03*
X136394000Y-85740000D03*
X136394000Y-86240000D03*
X136394000Y-86740000D03*
X136394000Y-87240000D03*
X132666000Y-87240000D03*
X132666000Y-86740000D03*
X132666000Y-86240000D03*
X132666000Y-84740000D03*
X132666000Y-85240000D03*
D49*
X133280000Y-87854000D03*
X133780000Y-87854000D03*
X134280000Y-87854000D03*
X134780000Y-87854000D03*
X135280000Y-87854000D03*
X135780000Y-87854000D03*
X135780000Y-84126000D03*
X135280000Y-84126000D03*
X134780000Y-84126000D03*
X133280000Y-84126000D03*
X133780000Y-84126000D03*
X134280000Y-84126000D03*
D48*
X132666000Y-85740000D03*
D50*
X134530000Y-85990000D03*
D41*
X191550000Y-99500000D03*
X192450000Y-99500000D03*
X191550000Y-101250000D03*
X192450000Y-101250000D03*
D46*
X175050000Y-78090000D03*
X172050000Y-78090000D03*
D51*
X184700000Y-87060000D03*
X186900000Y-87060000D03*
X184700000Y-88660000D03*
X186900000Y-88660000D03*
D52*
X171070000Y-106130000D03*
X171070000Y-103930000D03*
X172670000Y-106130000D03*
X172670000Y-103930000D03*
D53*
X143620000Y-95825000D03*
X143620000Y-95175000D03*
X143620000Y-94525000D03*
X143620000Y-93875000D03*
X137720000Y-93875000D03*
X137720000Y-94525000D03*
X137720000Y-95175000D03*
X137720000Y-95825000D03*
D54*
X118900000Y-96970000D03*
D55*
X184050000Y-145070000D03*
X184050000Y-145720000D03*
X184050000Y-146370000D03*
X185950000Y-145070000D03*
X185950000Y-145720000D03*
X185950000Y-146370000D03*
D53*
X161630000Y-140655000D03*
X161630000Y-140005000D03*
X161630000Y-139355000D03*
X161630000Y-138705000D03*
X155730000Y-138705000D03*
X155730000Y-139355000D03*
X155730000Y-140005000D03*
X155730000Y-140655000D03*
D54*
X135850000Y-126460000D03*
D56*
X181120000Y-96130000D03*
X181770000Y-96130000D03*
X182420000Y-96130000D03*
X181120000Y-94830000D03*
X181770000Y-94830000D03*
X182420000Y-94830000D03*
D14*
X184095000Y-93730000D03*
D13*
X188320000Y-93005000D03*
X187820000Y-93005000D03*
X187320000Y-93005000D03*
X186820000Y-93005000D03*
X186320000Y-93005000D03*
X185820000Y-93005000D03*
X185320000Y-93005000D03*
X184820000Y-93005000D03*
X188320000Y-97955000D03*
X187820000Y-97955000D03*
X187320000Y-97955000D03*
X186820000Y-97955000D03*
X186320000Y-97955000D03*
X185820000Y-97955000D03*
X185320000Y-97955000D03*
X184820000Y-97955000D03*
D14*
X184095000Y-94230000D03*
X184095000Y-94730000D03*
X184095000Y-95230000D03*
X184095000Y-95730000D03*
X184095000Y-96230000D03*
X184095000Y-96730000D03*
X184095000Y-97230000D03*
X189045000Y-93730000D03*
X189045000Y-94230000D03*
X189045000Y-94730000D03*
X189045000Y-95230000D03*
X189045000Y-95730000D03*
X189045000Y-96230000D03*
X189045000Y-96730000D03*
X189045000Y-97230000D03*
D15*
X186570000Y-95480000D03*
D57*
X180140000Y-109710000D03*
X180140000Y-109060000D03*
X180140000Y-108410000D03*
X178840000Y-109710000D03*
X178840000Y-109060000D03*
X178840000Y-108410000D03*
D55*
X193450000Y-146630000D03*
X193450000Y-145980000D03*
X193450000Y-145330000D03*
X191550000Y-146630000D03*
X191550000Y-145980000D03*
X191550000Y-145330000D03*
D58*
X206500000Y-112500000D03*
D59*
X203960000Y-112500000D03*
X206500000Y-109960000D03*
X203960000Y-109960000D03*
X206500000Y-107420000D03*
X203960000Y-107420000D03*
D60*
X206500000Y-104880000D03*
D59*
X203960000Y-104880000D03*
X206500000Y-102340000D03*
X203960000Y-102340000D03*
D58*
X206500000Y-133750000D03*
D59*
X203960000Y-133750000D03*
X206500000Y-131210000D03*
X203960000Y-131210000D03*
X206500000Y-128670000D03*
X203960000Y-128670000D03*
D60*
X206500000Y-126130000D03*
D59*
X203960000Y-126130000D03*
X206500000Y-123590000D03*
X203960000Y-123590000D03*
D61*
X174970000Y-120210000D03*
D10*
G36*
X181470711Y-123905025D02*
X181894975Y-124329289D01*
X181329289Y-124894975D01*
X180905025Y-124470711D01*
X181470711Y-123905025D01*
X181470711Y-123905025D01*
G37*
D62*
X181420000Y-117250000D03*
X180770000Y-117250000D03*
X180120000Y-117250000D03*
X179470000Y-117250000D03*
D63*
X178570000Y-118150000D03*
X178570000Y-118800000D03*
X178570000Y-119450000D03*
X178570000Y-120100000D03*
D62*
X179470000Y-121000000D03*
X180120000Y-121000000D03*
X180770000Y-121000000D03*
X181420000Y-121000000D03*
D63*
X182320000Y-120100000D03*
X182320000Y-119450000D03*
X182320000Y-118800000D03*
X182320000Y-118150000D03*
D64*
X180445000Y-119125000D03*
D65*
X153450000Y-113670000D03*
X153450000Y-113060000D03*
X153450000Y-112480000D03*
D66*
X154350000Y-113810000D03*
X154350000Y-113310000D03*
X154350000Y-112810000D03*
X154350000Y-112310000D03*
X152550000Y-112310000D03*
X152550000Y-112810000D03*
X152550000Y-113310000D03*
X152550000Y-113810000D03*
D67*
X153450000Y-113060000D03*
D61*
X144410000Y-82530000D03*
D40*
X141500000Y-73950000D03*
X141500000Y-73050000D03*
X140250000Y-73050000D03*
X140250000Y-73950000D03*
X136500000Y-73950000D03*
X136500000Y-73050000D03*
X159500000Y-119200000D03*
X159500000Y-118300000D03*
X157000000Y-119200000D03*
X157000000Y-118300000D03*
X155750000Y-118300000D03*
X155750000Y-119200000D03*
X132770000Y-90610000D03*
X132770000Y-89710000D03*
X137720000Y-91520000D03*
X137720000Y-92420000D03*
X135400000Y-92950000D03*
X135400000Y-93850000D03*
D41*
X138690000Y-92420000D03*
X139590000Y-92420000D03*
D40*
X135410000Y-94630000D03*
X135410000Y-95530000D03*
D41*
X141470000Y-92420000D03*
X142370000Y-92420000D03*
X137720000Y-90550000D03*
X138620000Y-90550000D03*
X135400000Y-91980000D03*
X136300000Y-91980000D03*
X141190000Y-85240000D03*
X142090000Y-85240000D03*
D40*
X185750000Y-142700000D03*
X185750000Y-141800000D03*
X182750000Y-143450000D03*
X182750000Y-142550000D03*
X150895000Y-135440000D03*
X150895000Y-134540000D03*
X155730000Y-136350000D03*
X155730000Y-137250000D03*
X153410000Y-137780000D03*
X153410000Y-138680000D03*
D41*
X156700000Y-137250000D03*
X157600000Y-137250000D03*
D40*
X153420000Y-139460000D03*
X153420000Y-140360000D03*
D41*
X159480000Y-137250000D03*
X160380000Y-137250000D03*
X155730000Y-135380000D03*
X156630000Y-135380000D03*
X153410000Y-136810000D03*
X154310000Y-136810000D03*
X159200000Y-130070000D03*
X160100000Y-130070000D03*
D40*
X186010000Y-99600000D03*
X186010000Y-100500000D03*
D41*
X183610000Y-104820000D03*
X184510000Y-104820000D03*
D40*
X167200000Y-73490000D03*
X167200000Y-72590000D03*
X167200000Y-76240000D03*
X167200000Y-75340000D03*
D68*
X165450000Y-76040000D03*
X165450000Y-74040000D03*
D40*
X188750000Y-143450000D03*
X188750000Y-142550000D03*
D45*
X148950000Y-110080000D03*
X150450000Y-110080000D03*
D69*
X123000000Y-85940000D03*
X121500000Y-85940000D03*
D70*
X128208800Y-89222000D03*
X124551200Y-90238000D03*
D69*
X120970000Y-88530000D03*
X122470000Y-88530000D03*
X120970000Y-90240000D03*
X122470000Y-90240000D03*
X120970000Y-91950000D03*
X122470000Y-91950000D03*
D32*
X141670000Y-83340000D03*
X141670000Y-82240000D03*
D69*
X139960000Y-130770000D03*
X141460000Y-130770000D03*
D70*
X146238800Y-134142000D03*
X142581200Y-135158000D03*
D69*
X139000000Y-133450000D03*
X140500000Y-133450000D03*
X139000000Y-135160000D03*
X140500000Y-135160000D03*
X139000000Y-136870000D03*
X140500000Y-136870000D03*
D32*
X159680000Y-128170000D03*
X159680000Y-127070000D03*
X151050000Y-114280000D03*
X151050000Y-113180000D03*
D16*
X155700000Y-114880000D03*
X156800000Y-114880000D03*
D11*
X122520000Y-95485000D03*
X122520000Y-98435000D03*
D12*
X120995000Y-96960000D03*
D11*
X139170000Y-125005000D03*
X139170000Y-127955000D03*
D12*
X137645000Y-126480000D03*
D10*
G36*
X185606397Y-125807968D02*
X187162032Y-127363603D01*
X186419569Y-128106066D01*
X184863934Y-126550431D01*
X185606397Y-125807968D01*
X185606397Y-125807968D01*
G37*
G36*
X183520431Y-127893934D02*
X185076066Y-129449569D01*
X184333603Y-130192032D01*
X182777968Y-128636397D01*
X183520431Y-127893934D01*
X183520431Y-127893934D01*
G37*
G36*
X183873984Y-126196878D02*
X184616446Y-126939340D01*
X183909340Y-127646446D01*
X183166878Y-126903984D01*
X183873984Y-126196878D01*
X183873984Y-126196878D01*
G37*
D71*
X173505000Y-116925000D03*
X176455000Y-116925000D03*
D72*
X174980000Y-118450000D03*
D71*
X142935000Y-79550000D03*
X145885000Y-79550000D03*
D72*
X144410000Y-81075000D03*
D11*
X178220000Y-97605000D03*
X178220000Y-94655000D03*
D12*
X179745000Y-96130000D03*
D71*
X181595000Y-112670000D03*
X178645000Y-112670000D03*
D72*
X180120000Y-111145000D03*
D73*
X187250000Y-142071429D03*
X187250000Y-143671429D03*
X184250000Y-142070000D03*
X184250000Y-143670000D03*
X190250000Y-142150000D03*
X190250000Y-143750000D03*
D16*
X135275000Y-74000000D03*
X134225000Y-74000000D03*
X153275000Y-119000000D03*
X152225000Y-119000000D03*
X118025000Y-86000000D03*
X116975000Y-86000000D03*
D32*
X118930000Y-85945000D03*
X118930000Y-84895000D03*
D16*
X124655000Y-92550000D03*
X123605000Y-92550000D03*
D32*
X128230000Y-85945000D03*
X128230000Y-84895000D03*
X129480000Y-85945000D03*
X129480000Y-84895000D03*
X130730000Y-85945000D03*
X130730000Y-84895000D03*
D16*
X138455000Y-83340000D03*
X139505000Y-83340000D03*
X143885000Y-83330000D03*
X144935000Y-83330000D03*
X132775000Y-91470000D03*
X131725000Y-91470000D03*
X132775000Y-88800000D03*
X131725000Y-88800000D03*
D32*
X134500000Y-88875000D03*
X134500000Y-89925000D03*
D16*
X136395000Y-89490000D03*
X137445000Y-89490000D03*
X135405000Y-90970000D03*
X134355000Y-90970000D03*
X141545000Y-86930000D03*
X140495000Y-86930000D03*
D32*
X145180000Y-95175000D03*
X145180000Y-96225000D03*
X139560000Y-85245000D03*
X139560000Y-86295000D03*
D16*
X131715000Y-90610000D03*
X130665000Y-90610000D03*
D32*
X136440000Y-130775000D03*
X136440000Y-129725000D03*
X137690000Y-130775000D03*
X137690000Y-129725000D03*
D16*
X142685000Y-137470000D03*
X141635000Y-137470000D03*
D32*
X146240000Y-130775000D03*
X146240000Y-129725000D03*
X147490000Y-130775000D03*
X147490000Y-129725000D03*
X148740000Y-130775000D03*
X148740000Y-129725000D03*
D16*
X156465000Y-128170000D03*
X157515000Y-128170000D03*
X150895000Y-136320000D03*
X149845000Y-136320000D03*
X150895000Y-133640000D03*
X149845000Y-133640000D03*
D32*
X152410000Y-133705000D03*
X152410000Y-134755000D03*
D16*
X154405000Y-134320000D03*
X155455000Y-134320000D03*
X153415000Y-135800000D03*
X152365000Y-135800000D03*
X159555000Y-131760000D03*
X158505000Y-131760000D03*
D32*
X163190000Y-140005000D03*
X163190000Y-141055000D03*
X157570000Y-130075000D03*
X157570000Y-131125000D03*
D16*
X149825000Y-135440000D03*
X148775000Y-135440000D03*
D32*
X182730000Y-92275000D03*
X182730000Y-93325000D03*
D16*
X190245000Y-93530000D03*
X191295000Y-93530000D03*
X191295000Y-94730000D03*
X190245000Y-94730000D03*
D32*
X187180000Y-100575000D03*
X187180000Y-99525000D03*
X184780000Y-100575000D03*
X184780000Y-99525000D03*
X183000000Y-88585000D03*
X183000000Y-87535000D03*
X188600000Y-88460000D03*
X188600000Y-87410000D03*
X185820000Y-90755000D03*
X185820000Y-91805000D03*
D16*
X176285000Y-108100000D03*
X177335000Y-108100000D03*
D32*
X177540000Y-100585000D03*
X177540000Y-99535000D03*
X178740000Y-99535000D03*
X178740000Y-100585000D03*
D16*
X184585000Y-103650000D03*
X183535000Y-103650000D03*
X184585000Y-106050000D03*
X183535000Y-106050000D03*
X172595000Y-107830000D03*
X171545000Y-107830000D03*
X172470000Y-102230000D03*
X171420000Y-102230000D03*
X174765000Y-105010000D03*
X175815000Y-105010000D03*
D45*
X165690000Y-83770000D03*
X167190000Y-83770000D03*
D32*
X167200000Y-80515000D03*
X167200000Y-81565000D03*
D74*
X163450000Y-75790000D03*
X163450000Y-74290000D03*
D75*
X161450000Y-76040000D03*
X161450000Y-73040000D03*
D16*
X174025000Y-68340000D03*
X175075000Y-68340000D03*
D47*
X167050000Y-63540000D03*
X167050000Y-67140000D03*
D16*
X153125000Y-115480000D03*
X154175000Y-115480000D03*
X150125000Y-111880000D03*
X151175000Y-111880000D03*
D32*
X155650000Y-111805000D03*
X155650000Y-110755000D03*
D16*
X181895000Y-115970000D03*
X182945000Y-115970000D03*
D32*
X180140000Y-114885000D03*
X180140000Y-115935000D03*
D16*
X158125000Y-114880000D03*
X159175000Y-114880000D03*
D32*
X156650000Y-111805000D03*
X156650000Y-110755000D03*
X152050000Y-109755000D03*
X152050000Y-110805000D03*
X153250000Y-109755000D03*
X153250000Y-110805000D03*
D16*
X151175000Y-115480000D03*
X150125000Y-115480000D03*
X145985000Y-113130000D03*
X147035000Y-113130000D03*
D10*
G36*
X180343414Y-124510140D02*
X179989860Y-124156586D01*
X180414124Y-123732322D01*
X180767678Y-124085876D01*
X180343414Y-124510140D01*
X180343414Y-124510140D01*
G37*
G36*
X181085876Y-123767678D02*
X180732322Y-123414124D01*
X181156586Y-122989860D01*
X181510140Y-123343414D01*
X181085876Y-123767678D01*
X181085876Y-123767678D01*
G37*
D16*
X174445000Y-121010000D03*
X175495000Y-121010000D03*
D73*
X193250000Y-142150000D03*
X193250000Y-143750000D03*
X181250000Y-141950000D03*
X181250000Y-143550000D03*
D76*
X195690000Y-63410000D03*
X195690000Y-65950000D03*
X195690000Y-68490000D03*
X195690000Y-71030000D03*
X195690000Y-73570000D03*
X195690000Y-76110000D03*
X195690000Y-78650000D03*
X195690000Y-81190000D03*
X195690000Y-83730000D03*
X195690000Y-86270000D03*
X195690000Y-88810000D03*
X195690000Y-91350000D03*
X195690000Y-93890000D03*
X195690000Y-96430000D03*
X195690000Y-98970000D03*
X195690000Y-101510000D03*
X195690000Y-104050000D03*
X195690000Y-106590000D03*
X195690000Y-109130000D03*
X195690000Y-111670000D03*
X195690000Y-114210000D03*
X195690000Y-116750000D03*
X195690000Y-119290000D03*
X195690000Y-121830000D03*
X195690000Y-124370000D03*
X195690000Y-126910000D03*
X195690000Y-129450000D03*
X195690000Y-131990000D03*
X195690000Y-134530000D03*
X195690000Y-137070000D03*
X195690000Y-139610000D03*
X195690000Y-142150000D03*
X198230000Y-63410000D03*
X198230000Y-65950000D03*
X198230000Y-68490000D03*
X198230000Y-71030000D03*
X198230000Y-73570000D03*
X198230000Y-76110000D03*
X198230000Y-78650000D03*
X198230000Y-81190000D03*
X198230000Y-83730000D03*
X198230000Y-86270000D03*
X198230000Y-88810000D03*
X198230000Y-91350000D03*
X198230000Y-93890000D03*
X198230000Y-96430000D03*
X198230000Y-98970000D03*
X198230000Y-101510000D03*
X198230000Y-104050000D03*
X198230000Y-106590000D03*
X198230000Y-109130000D03*
X198230000Y-111670000D03*
X198230000Y-114210000D03*
X198230000Y-116750000D03*
X198230000Y-119290000D03*
X198230000Y-121830000D03*
X198230000Y-124370000D03*
X198230000Y-126910000D03*
X198230000Y-129450000D03*
X198230000Y-131990000D03*
X198230000Y-134530000D03*
X198230000Y-137070000D03*
X198230000Y-139610000D03*
X198230000Y-142150000D03*
D77*
X117580000Y-65950000D03*
X203310000Y-63410000D03*
X203310000Y-143420000D03*
X117580000Y-139610000D03*
D78*
X124460000Y-124040000D03*
X124460000Y-118960000D03*
X119380000Y-118960000D03*
D79*
X121920000Y-121500000D03*
D78*
X119380000Y-124040000D03*
D16*
X156800000Y-113280000D03*
X155700000Y-113280000D03*
D40*
X179750000Y-143450000D03*
X179750000Y-142550000D03*
X154450000Y-110030000D03*
X154450000Y-110930000D03*
X149050000Y-113130000D03*
X149050000Y-112230000D03*
X191750000Y-143450000D03*
X191750000Y-142550000D03*
D73*
X178250000Y-141950000D03*
X178250000Y-143550000D03*
D40*
X176750000Y-143450000D03*
X176750000Y-142550000D03*
D61*
X146510000Y-112330000D03*
D32*
X155450000Y-131865000D03*
X155450000Y-132915000D03*
D16*
X156435000Y-133290000D03*
X157485000Y-133290000D03*
D32*
X157500000Y-135385000D03*
X157500000Y-134335000D03*
D16*
X159555000Y-134340000D03*
X158505000Y-134340000D03*
X159555000Y-133480000D03*
X158505000Y-133480000D03*
D32*
X137440000Y-87035000D03*
X137440000Y-88085000D03*
D16*
X138425000Y-88460000D03*
X139475000Y-88460000D03*
D32*
X139490000Y-90555000D03*
X139490000Y-89505000D03*
D16*
X141545000Y-89510000D03*
X140495000Y-89510000D03*
X141545000Y-88650000D03*
X140495000Y-88650000D03*
X159555000Y-132620000D03*
X158505000Y-132620000D03*
X141545000Y-87790000D03*
X140495000Y-87790000D03*
D55*
X186380000Y-112820000D03*
X186380000Y-113470000D03*
X186380000Y-112170000D03*
X184480000Y-112170000D03*
X184480000Y-113470000D03*
D20*
X129000000Y-110480000D03*
X131500000Y-107980000D03*
X129000000Y-105480000D03*
D32*
X145000000Y-130775000D03*
X145000000Y-129725000D03*
X143750000Y-130775000D03*
X143750000Y-129725000D03*
X142500000Y-130775000D03*
X142500000Y-129725000D03*
D16*
X135025000Y-128250000D03*
X133975000Y-128250000D03*
X135025000Y-129500000D03*
X133975000Y-129500000D03*
X135025000Y-130750000D03*
X133975000Y-130750000D03*
D32*
X127000000Y-85945000D03*
X127000000Y-84895000D03*
X125750000Y-85945000D03*
X125750000Y-84895000D03*
X124500000Y-85945000D03*
X124500000Y-84895000D03*
D16*
X118025000Y-87250000D03*
X116975000Y-87250000D03*
X118025000Y-88500000D03*
X116975000Y-88500000D03*
D58*
X191310000Y-61000000D03*
D60*
X191310000Y-63540000D03*
D32*
X115000000Y-123725000D03*
X115000000Y-124775000D03*
D16*
X123975000Y-136250000D03*
X125025000Y-136250000D03*
D58*
X191750000Y-71050000D03*
D60*
X191750000Y-73590000D03*
D40*
X154500000Y-119200000D03*
X154500000Y-118300000D03*
X158250000Y-118300000D03*
X158250000Y-119200000D03*
X160750000Y-118300000D03*
X160750000Y-119200000D03*
X137750000Y-73050000D03*
X137750000Y-73950000D03*
X139000000Y-73950000D03*
X139000000Y-73050000D03*
X142750000Y-73050000D03*
X142750000Y-73950000D03*
D73*
X175250000Y-141950000D03*
X175250000Y-143550000D03*
D40*
X173750000Y-143450000D03*
X173750000Y-142550000D03*
D80*
X154670000Y-61810000D03*
D81*
X151120000Y-62810000D03*
D80*
X146770000Y-61810000D03*
D82*
X147320000Y-68310000D03*
X152720000Y-68310000D03*
D68*
X182500000Y-133750000D03*
X182500000Y-131750000D03*
X184250000Y-131750000D03*
X184250000Y-133750000D03*
X137000000Y-108000000D03*
X137000000Y-106000000D03*
X135250000Y-106000000D03*
X135250000Y-108000000D03*
D83*
X127470000Y-132795000D03*
X127470000Y-132145000D03*
X127470000Y-130845000D03*
X127470000Y-131495000D03*
X127470000Y-133445000D03*
X127470000Y-134745000D03*
X127470000Y-134095000D03*
X127470000Y-130195000D03*
X122070000Y-133445000D03*
X122070000Y-132145000D03*
X122070000Y-130845000D03*
X122070000Y-131495000D03*
X122070000Y-130195000D03*
X122070000Y-134745000D03*
X122070000Y-134095000D03*
X122070000Y-132795000D03*
D84*
X136250000Y-121750000D03*
X142250000Y-121750000D03*
X148000000Y-121750000D03*
X142250000Y-102000000D03*
X148250000Y-102000000D03*
X155750000Y-86750000D03*
X157500000Y-88500000D03*
X159250000Y-73500000D03*
X186000000Y-76000000D03*
X152500000Y-62000000D03*
X145000000Y-68250000D03*
X144250000Y-61750000D03*
X132250000Y-128645000D03*
X132250000Y-130500000D03*
X132250000Y-132750000D03*
X132250000Y-134645000D03*
X132250000Y-137750000D03*
X132250000Y-139000000D03*
X132250000Y-140645000D03*
X132250000Y-142500000D03*
X132250000Y-144000000D03*
X132250000Y-145820000D03*
X133275000Y-146845000D03*
X135250000Y-146750000D03*
X137500000Y-146750000D03*
X139250000Y-146250000D03*
X141000000Y-146500000D03*
X143500000Y-146500000D03*
X145150000Y-146691390D03*
X147250000Y-146500000D03*
X149250000Y-146500000D03*
X151150000Y-146691390D03*
X153250000Y-146500000D03*
X155000000Y-146500000D03*
X157150000Y-146691390D03*
X159000000Y-146691390D03*
X161250000Y-146691390D03*
X163150000Y-146691390D03*
X165250000Y-146500000D03*
X167250000Y-146500000D03*
X169125000Y-146691390D03*
X170150000Y-145820000D03*
X170250000Y-142500000D03*
X170150000Y-140645000D03*
X170250000Y-139000000D03*
X170250000Y-136500000D03*
X167750000Y-137500000D03*
X167750000Y-133250000D03*
X170150000Y-134645000D03*
X170250000Y-132750000D03*
X170250000Y-130500000D03*
X170150000Y-128645000D03*
X170150000Y-122670000D03*
X169125000Y-121645000D03*
X166000000Y-121750000D03*
X165000000Y-121750000D03*
X163150000Y-121645000D03*
X160250000Y-121750000D03*
X157150000Y-121645000D03*
X153999990Y-121750000D03*
X151150000Y-121645000D03*
X145150000Y-121645000D03*
X139150000Y-121645000D03*
X133275000Y-121645000D03*
X132250000Y-122670000D03*
X121140000Y-101960000D03*
X123000000Y-102000000D03*
X125250000Y-102000000D03*
X127140000Y-101960000D03*
X129750000Y-102000000D03*
X133140000Y-101960000D03*
X134750000Y-102000000D03*
X139140000Y-101960000D03*
X145140000Y-101960000D03*
X151115000Y-101960000D03*
X152140000Y-100935000D03*
X152250000Y-99246000D03*
X152250000Y-97500000D03*
X152140000Y-95760000D03*
X152250000Y-94000000D03*
X152250000Y-92500000D03*
X152140000Y-89760000D03*
X152250000Y-81500000D03*
X152250000Y-79500000D03*
X152140000Y-77785000D03*
X151115000Y-76760000D03*
X149000000Y-76750000D03*
X147000000Y-76750000D03*
X145140000Y-76760000D03*
X143000000Y-76750000D03*
X140750000Y-76750000D03*
X139140000Y-76760000D03*
X136000000Y-76750000D03*
X133140000Y-76760000D03*
X131250000Y-76750000D03*
X129000000Y-76750000D03*
X127140000Y-76760000D03*
X125000000Y-76750000D03*
X122750000Y-76750000D03*
X121140000Y-76760000D03*
X119500000Y-76750000D03*
X117000000Y-76750000D03*
X115265000Y-76760000D03*
X114240000Y-77785000D03*
X114250000Y-80500000D03*
X114250000Y-82250000D03*
X114240000Y-83760000D03*
X114250000Y-85500000D03*
X114250000Y-86750000D03*
X114250000Y-88250000D03*
X114240000Y-89760000D03*
X114250000Y-91250000D03*
X114250000Y-92750000D03*
X114250000Y-94250000D03*
X114240000Y-95760000D03*
X114250000Y-97750000D03*
X114250000Y-99250000D03*
X151750000Y-135250000D03*
X148750000Y-136250000D03*
X148250000Y-140500000D03*
X146500000Y-138500000D03*
X148000000Y-135500000D03*
X148750000Y-133000000D03*
X143750000Y-137500000D03*
X137750000Y-132750000D03*
X136500000Y-132750000D03*
X134750000Y-132750000D03*
X134000000Y-132000000D03*
X133000000Y-130750000D03*
X133000000Y-129500000D03*
X133000000Y-128250000D03*
X130250000Y-127750000D03*
X128750000Y-127750000D03*
X128000000Y-128500000D03*
X127000000Y-129250000D03*
X124750000Y-129250000D03*
X122500000Y-129250000D03*
X120000000Y-129250000D03*
X116740735Y-129259265D03*
X115990735Y-128509265D03*
X114750000Y-127500000D03*
X136500000Y-128750000D03*
X137750000Y-128750000D03*
X139000000Y-128750000D03*
X147500000Y-128750000D03*
X145000000Y-128750000D03*
X142500000Y-128750000D03*
X141250000Y-126500000D03*
X141250000Y-125000000D03*
X140250000Y-124000000D03*
X138250000Y-124000000D03*
X135500000Y-124000000D03*
X133500000Y-124000000D03*
X131500000Y-124000000D03*
X129750000Y-124000000D03*
X128000000Y-124000000D03*
X126000000Y-124000000D03*
X122500000Y-125750000D03*
X120500000Y-125750000D03*
X145500000Y-85250000D03*
X146000000Y-115250000D03*
X144500000Y-116750000D03*
X141750000Y-117250000D03*
X135750000Y-117250000D03*
X130750000Y-117250000D03*
X129000000Y-117250000D03*
X127250000Y-117250000D03*
X125500000Y-117250000D03*
X124000000Y-117250000D03*
X122000000Y-117250000D03*
X120500000Y-117250000D03*
X119500000Y-117250000D03*
X129750000Y-88750000D03*
X130500000Y-89750000D03*
X133750000Y-91500000D03*
X139750000Y-87000000D03*
X139500000Y-87750000D03*
X153250000Y-90750000D03*
X155000000Y-92500000D03*
X157000000Y-94500000D03*
X158750000Y-96250000D03*
X160000000Y-97250000D03*
X161000000Y-98000000D03*
X163250000Y-98000000D03*
X166250000Y-98000000D03*
X168250000Y-98000000D03*
X171750000Y-98000000D03*
X174250000Y-98000000D03*
X176250000Y-98000000D03*
X181750000Y-98750000D03*
X180750000Y-92750000D03*
X179750000Y-93750000D03*
X177000000Y-93750000D03*
X176000000Y-94500000D03*
X174000000Y-94500000D03*
X170000000Y-94500000D03*
X167000000Y-94500000D03*
X165250000Y-94500000D03*
X164250000Y-94500000D03*
X163250000Y-94250000D03*
X162250000Y-93250000D03*
X160750000Y-91750000D03*
X159750000Y-90750000D03*
X154000000Y-85000000D03*
X152750000Y-84750000D03*
X152140000Y-83760000D03*
X151000000Y-83000000D03*
X149750000Y-81750000D03*
X148250000Y-81500000D03*
X148250000Y-80250000D03*
X148250000Y-79000000D03*
X147500000Y-78000000D03*
X146000000Y-77750000D03*
X144750000Y-77750000D03*
X143250000Y-77750000D03*
X142000000Y-77750000D03*
X141000000Y-78750000D03*
X140500000Y-80250000D03*
X140000000Y-81250000D03*
X138500000Y-81250000D03*
X136750000Y-81900002D03*
X135746445Y-81753555D03*
X134750000Y-81750000D03*
X134000000Y-81750000D03*
X133000000Y-81750000D03*
X132500000Y-82500000D03*
X133250000Y-82500000D03*
X134250000Y-82500000D03*
X135000000Y-82500000D03*
X136000000Y-82500000D03*
X136500000Y-83250000D03*
X135500000Y-83250000D03*
X134750000Y-83250000D03*
X133750000Y-83250000D03*
X132750000Y-83250000D03*
X131750000Y-83750000D03*
X130250000Y-83750000D03*
X129000000Y-83750000D03*
X127000000Y-83750000D03*
X125750000Y-83750000D03*
X123750000Y-83750000D03*
X122000000Y-83750000D03*
X120250000Y-83750000D03*
X119000000Y-83750000D03*
X117250000Y-83750000D03*
X116250000Y-84750000D03*
X115750000Y-86000000D03*
X115750000Y-87250000D03*
X115750000Y-88500000D03*
X115750000Y-89750000D03*
X115750000Y-91500000D03*
X115750000Y-93250000D03*
X115750000Y-95000000D03*
X115750000Y-96500000D03*
X115750000Y-97750000D03*
X115750000Y-99500000D03*
X115750000Y-101000000D03*
X113500000Y-120250000D03*
X113500000Y-118750000D03*
X113500000Y-117250000D03*
X113500000Y-115750000D03*
X113500000Y-114500000D03*
X113500000Y-113250000D03*
X113500000Y-111750000D03*
X113500000Y-110750000D03*
X113500000Y-109750000D03*
X113500000Y-108500000D03*
X113500000Y-107000000D03*
X114000000Y-106250000D03*
X114750000Y-105500000D03*
X115750000Y-104500000D03*
X115750000Y-103250000D03*
X124500000Y-93500000D03*
X124500000Y-94500000D03*
X124500000Y-96500000D03*
X124500000Y-97500000D03*
X124500000Y-98750000D03*
X120250000Y-98750000D03*
X120250000Y-100000000D03*
X120250000Y-101000000D03*
X120250000Y-102750000D03*
X120250000Y-104000000D03*
X120250000Y-105250000D03*
X120250000Y-106750000D03*
X118500000Y-108500000D03*
X117250000Y-110000000D03*
X117250000Y-111750000D03*
X117250000Y-113750000D03*
X119500000Y-113750000D03*
X121500000Y-113750000D03*
X123250000Y-113750000D03*
X125750000Y-113750000D03*
X128250000Y-113750000D03*
X130500000Y-113750000D03*
X134250000Y-113750000D03*
X138000000Y-113750000D03*
X140250000Y-113750000D03*
X140983374Y-112766626D03*
X141000000Y-108500000D03*
X142000000Y-107750000D03*
X145000000Y-107750000D03*
X147250000Y-108250000D03*
X150500000Y-108250000D03*
X151500000Y-108250000D03*
X153250000Y-108250000D03*
X155000000Y-108250000D03*
X156750000Y-108250000D03*
X157750000Y-110500000D03*
X147500000Y-116750000D03*
X149750000Y-116750000D03*
X151250000Y-116750000D03*
X153000000Y-116750000D03*
X157750000Y-112000000D03*
X158750000Y-112250000D03*
X159500000Y-113000000D03*
X161000000Y-113000000D03*
X162500000Y-113000000D03*
X164250000Y-113000000D03*
X165750000Y-113000000D03*
X167500000Y-113000000D03*
X169250000Y-113000000D03*
X170250000Y-113750000D03*
X171000000Y-114500000D03*
X172500000Y-115000000D03*
X177250000Y-110000000D03*
X176941644Y-111191644D03*
X178000000Y-114750000D03*
X182500000Y-109250000D03*
X182500000Y-111111010D03*
X183500000Y-114750000D03*
X183750000Y-117000000D03*
X183500000Y-119250000D03*
X183250000Y-121000000D03*
X183250000Y-121750000D03*
X183250000Y-123000000D03*
X183750000Y-124000000D03*
X184500000Y-124750000D03*
X185750000Y-125250000D03*
X188000000Y-127500000D03*
X188000000Y-128750000D03*
X187250000Y-129500000D03*
X186000000Y-130500000D03*
X184500000Y-130500000D03*
X182500000Y-129000000D03*
X182500000Y-128000000D03*
X181750000Y-127250000D03*
X180750000Y-127250000D03*
X179500000Y-127250000D03*
X177750000Y-127250000D03*
X176250000Y-127250000D03*
X174666999Y-127250000D03*
X173750000Y-127250000D03*
X172250000Y-127250000D03*
X170750000Y-127250000D03*
X169250000Y-127250000D03*
X168000000Y-127250000D03*
X167000000Y-127750000D03*
X166250000Y-128500000D03*
X165250000Y-129500000D03*
X166500000Y-130750000D03*
X166500000Y-132250000D03*
X150497844Y-126747844D03*
X151500000Y-126750000D03*
X152250000Y-126750000D03*
X153000000Y-126750000D03*
X154000000Y-126750000D03*
X154500000Y-127500000D03*
X153500000Y-127500000D03*
X152500000Y-127500000D03*
X151750000Y-127500000D03*
X151000000Y-127500000D03*
X150250000Y-127500000D03*
X150250000Y-128250000D03*
X151250000Y-128250000D03*
X152250000Y-128250000D03*
X153250000Y-128250000D03*
X154250000Y-128250000D03*
X155000000Y-126500000D03*
X156500000Y-126500000D03*
X158250000Y-126500000D03*
X161750000Y-126500000D03*
X162750000Y-125750000D03*
X163750000Y-124750000D03*
X165250000Y-123750000D03*
X167500000Y-123500000D03*
X169000000Y-123500000D03*
X155250000Y-116750000D03*
X157750000Y-116750000D03*
X160250000Y-116750000D03*
X162000000Y-116750000D03*
X163750000Y-116750000D03*
X166000000Y-116750000D03*
X166750000Y-117500000D03*
X167500000Y-118250000D03*
X168500000Y-119250000D03*
X170500000Y-121227000D03*
X178500000Y-122750000D03*
X176500000Y-123250000D03*
X174250000Y-123250000D03*
X172250000Y-123250000D03*
X186500000Y-111250000D03*
X183000000Y-130000000D03*
X186750000Y-126250000D03*
X178000000Y-117500000D03*
X183500000Y-120000000D03*
X183500000Y-118250000D03*
X180445000Y-119125000D03*
X171500000Y-115750000D03*
X177000000Y-115250000D03*
X178250000Y-93250000D03*
X177500000Y-113500000D03*
X183000000Y-112000000D03*
X158500000Y-136500000D03*
X159750000Y-126000000D03*
X122500000Y-99750000D03*
X124985000Y-95485000D03*
X130000000Y-91750000D03*
X130000000Y-95500000D03*
X147500000Y-88500000D03*
X149500000Y-92500000D03*
X150500000Y-88750000D03*
X151500000Y-92000000D03*
X148500000Y-86500000D03*
X147250000Y-79500000D03*
X141750000Y-79500000D03*
X141500000Y-81000000D03*
X180500000Y-122250000D03*
X134000000Y-108000000D03*
X184250000Y-135000000D03*
X159500000Y-117500000D03*
X141500000Y-72250000D03*
X139000000Y-72250000D03*
X174020000Y-105020000D03*
X188000237Y-100558944D03*
X183750000Y-100500000D03*
X134530000Y-85990000D03*
X135255000Y-86715000D03*
X135255000Y-85265000D03*
X133805000Y-85265000D03*
X133805000Y-86715000D03*
X153265000Y-130095000D03*
X153265000Y-131545000D03*
X151815000Y-131545000D03*
X152540000Y-130820000D03*
X151815000Y-130095000D03*
X192500000Y-145000000D03*
X185250000Y-144000000D03*
X183508948Y-144502982D03*
X181250000Y-144500000D03*
X175750000Y-144500000D03*
X157500000Y-132250000D03*
X154500000Y-133250000D03*
X178500000Y-116250000D03*
X177250000Y-119000000D03*
X184000000Y-116000000D03*
X140500000Y-92250000D03*
X136500000Y-88500000D03*
X126000000Y-92500000D03*
X181250000Y-109250000D03*
X177750000Y-109250000D03*
X188750000Y-89500000D03*
X183000000Y-89500000D03*
X187370000Y-96280000D03*
X187370000Y-94680000D03*
X185770000Y-94680000D03*
X185770000Y-96280000D03*
X178690000Y-105060000D03*
X180290000Y-105060000D03*
X180290000Y-103460000D03*
X178750000Y-103500000D03*
X173750000Y-102250000D03*
X173750000Y-107750000D03*
X175250000Y-108000000D03*
X176500000Y-107000000D03*
X185750000Y-106000000D03*
X185750000Y-103750000D03*
X178750000Y-98750000D03*
X177500000Y-98750000D03*
X181750000Y-97250000D03*
X181750000Y-93750000D03*
X192250000Y-94750000D03*
X192250000Y-93500000D03*
X184000000Y-92500000D03*
X182750000Y-91250000D03*
X177500000Y-68250000D03*
X178500000Y-67250000D03*
X172750000Y-67000000D03*
X176000000Y-63250000D03*
X125000000Y-137250000D03*
X113500000Y-126500000D03*
X178250000Y-144750000D03*
X134250000Y-73000000D03*
X152250000Y-118000000D03*
X136500000Y-72250000D03*
X157000000Y-117500000D03*
X154500000Y-117500000D03*
X189000000Y-77750000D03*
X186634898Y-81138344D03*
X185270000Y-73520000D03*
X185810000Y-89960000D03*
X155650000Y-109780000D03*
X156650000Y-109780000D03*
X153450000Y-111680000D03*
X153450000Y-114380000D03*
X153450000Y-113060000D03*
X152750000Y-111580000D03*
X149150000Y-115580000D03*
X154170000Y-116300000D03*
X165950000Y-72540000D03*
X163450000Y-72790000D03*
X166200000Y-79540000D03*
X167200000Y-82790000D03*
X156450000Y-76540000D03*
X160200000Y-71790000D03*
X161450000Y-71540000D03*
X181050000Y-80340000D03*
X181050000Y-78090000D03*
X170550000Y-82590000D03*
X170550000Y-80340000D03*
X170550000Y-78090000D03*
X187800000Y-68840000D03*
X184550000Y-68840000D03*
X181300000Y-68840000D03*
X163800000Y-68840000D03*
X167050000Y-68840000D03*
X170300000Y-68840000D03*
X182250000Y-81000000D03*
X176300000Y-59310000D03*
X169970000Y-60800000D03*
X190000000Y-98000000D03*
X190638002Y-98750000D03*
X188250000Y-99000000D03*
X189250000Y-99600000D03*
X192500000Y-97750000D03*
X152150000Y-115480000D03*
X151150000Y-110880000D03*
X174750000Y-105760002D03*
X187997018Y-99758948D03*
X183994862Y-102992788D03*
X191550000Y-102030000D03*
X191550000Y-98730000D03*
X188750000Y-144250000D03*
X191750000Y-144250000D03*
X185815687Y-143434313D03*
X182750000Y-144250000D03*
X114110010Y-123250000D03*
X123750000Y-137250000D03*
X142750000Y-72000000D03*
X140250000Y-72000000D03*
X137750000Y-72250000D03*
X135250000Y-73000000D03*
X160750000Y-117500000D03*
X158250000Y-117500000D03*
X155750000Y-117500000D03*
X153250000Y-118000000D03*
X184480000Y-114280000D03*
X182460000Y-115160000D03*
X183750000Y-107000000D03*
X176750000Y-109000000D03*
X179500000Y-100000000D03*
X186750000Y-91000000D03*
X191000000Y-95500000D03*
X183750000Y-99500000D03*
X181750000Y-92500000D03*
X149820000Y-134610000D03*
X142750000Y-89250000D03*
X160750000Y-134000000D03*
X161750000Y-133500000D03*
X163000000Y-137500000D03*
X133820000Y-88880000D03*
X151780000Y-133710000D03*
X175230000Y-84550000D03*
X175230000Y-85420000D03*
X175230000Y-86360000D03*
X176240000Y-86350000D03*
X176240000Y-85420000D03*
X176240000Y-84550000D03*
X139000000Y-137840000D03*
X139000000Y-132560000D03*
X145500000Y-92750000D03*
X144250000Y-88750000D03*
X121000000Y-87250000D03*
X121000000Y-93250000D03*
X183250000Y-71250000D03*
X184750000Y-79000000D03*
X154310000Y-135810000D03*
X158410000Y-135380000D03*
X136300000Y-90980000D03*
X140400000Y-90550000D03*
X160210000Y-138110000D03*
X160210000Y-140010000D03*
X154080000Y-137780000D03*
X156540000Y-136350000D03*
X131720000Y-89780000D03*
X142200000Y-93280000D03*
X142200000Y-95180000D03*
X136070000Y-92950000D03*
X138530000Y-91520000D03*
X149510000Y-124330000D03*
X129240000Y-79720000D03*
X150500000Y-122890000D03*
X131380000Y-79000000D03*
X175500000Y-101750000D03*
X186049265Y-108700735D03*
X174550003Y-102250000D03*
X185000000Y-108500000D03*
X169700000Y-110740000D03*
X191500000Y-79000000D03*
X139250000Y-96000000D03*
X167370000Y-91900000D03*
X166510000Y-91900000D03*
X164030000Y-91900000D03*
X164860000Y-91900000D03*
X165690000Y-91900000D03*
X194500000Y-147000000D03*
X180065687Y-100565687D03*
X183750000Y-109250000D03*
X187500000Y-112750000D03*
X200500000Y-130500000D03*
X130590000Y-134090000D03*
X186750000Y-144750000D03*
X129060000Y-133450000D03*
X157200000Y-77290000D03*
X165450000Y-75040000D03*
X156450000Y-73790000D03*
X167200000Y-74290000D03*
X126294382Y-132939981D03*
X113110000Y-121550000D03*
X113904648Y-121660000D03*
X126300000Y-132140000D03*
X114110010Y-124307208D03*
X126285915Y-131340123D03*
X152720000Y-64400000D03*
X152720000Y-65560000D03*
X152720000Y-66810000D03*
X160250000Y-63500000D03*
X161790000Y-63540000D03*
X160750000Y-62500000D03*
X157250000Y-70750000D03*
X159450000Y-77040000D03*
X158073000Y-77224154D03*
X201750000Y-99750000D03*
X174800000Y-63340000D03*
X173300000Y-68090000D03*
X171550000Y-73840000D03*
X175300000Y-61165002D03*
X179550000Y-82340000D03*
X176300000Y-60340000D03*
X178800000Y-84090000D03*
D85*
G36*
X154727300Y-128907300D02*
X153990000Y-128907300D01*
X153985059Y-128908301D01*
X153980897Y-128911145D01*
X153978169Y-128915384D01*
X153977300Y-128920000D01*
X153977300Y-129277300D01*
X153960000Y-129277300D01*
X153955059Y-129278301D01*
X153950897Y-129281145D01*
X153948169Y-129285384D01*
X153947300Y-129290000D01*
X153947300Y-132227300D01*
X151132700Y-132227300D01*
X151132700Y-129290000D01*
X151131699Y-129285059D01*
X151128855Y-129280897D01*
X151124616Y-129278169D01*
X151120000Y-129277300D01*
X151102700Y-129277300D01*
X151102700Y-128920000D01*
X151101699Y-128915059D01*
X151098855Y-128910897D01*
X151094616Y-128908169D01*
X151090000Y-128907300D01*
X150352700Y-128907300D01*
X150352700Y-126832700D01*
X154727300Y-126832700D01*
X154727300Y-128907300D01*
X154727300Y-128907300D01*
G37*
X154727300Y-128907300D02*
X153990000Y-128907300D01*
X153985059Y-128908301D01*
X153980897Y-128911145D01*
X153978169Y-128915384D01*
X153977300Y-128920000D01*
X153977300Y-129277300D01*
X153960000Y-129277300D01*
X153955059Y-129278301D01*
X153950897Y-129281145D01*
X153948169Y-129285384D01*
X153947300Y-129290000D01*
X153947300Y-132227300D01*
X151132700Y-132227300D01*
X151132700Y-129290000D01*
X151131699Y-129285059D01*
X151128855Y-129280897D01*
X151124616Y-129278169D01*
X151120000Y-129277300D01*
X151102700Y-129277300D01*
X151102700Y-128920000D01*
X151101699Y-128915059D01*
X151098855Y-128910897D01*
X151094616Y-128908169D01*
X151090000Y-128907300D01*
X150352700Y-128907300D01*
X150352700Y-126832700D01*
X154727300Y-126832700D01*
X154727300Y-128907300D01*
D86*
G36*
X156739500Y-132269500D02*
X154410500Y-132269500D01*
X154410500Y-130870500D01*
X156739500Y-130870500D01*
X156739500Y-132269500D01*
X156739500Y-132269500D01*
G37*
X156739500Y-132269500D02*
X154410500Y-132269500D01*
X154410500Y-130870500D01*
X156739500Y-130870500D01*
X156739500Y-132269500D01*
D87*
G36*
X157698000Y-131375000D02*
X157708006Y-131424410D01*
X157736447Y-131466035D01*
X157778841Y-131493315D01*
X157824355Y-131501998D01*
X158683000Y-131506357D01*
X158683000Y-134513000D01*
X157306834Y-134513000D01*
X157302167Y-130952000D01*
X157698000Y-130952000D01*
X157698000Y-131375000D01*
X157698000Y-131375000D01*
G37*
X157698000Y-131375000D02*
X157708006Y-131424410D01*
X157736447Y-131466035D01*
X157778841Y-131493315D01*
X157824355Y-131501998D01*
X158683000Y-131506357D01*
X158683000Y-134513000D01*
X157306834Y-134513000D01*
X157302167Y-130952000D01*
X157698000Y-130952000D01*
X157698000Y-131375000D01*
G36*
X155213000Y-130073000D02*
X154267000Y-130073000D01*
X154267000Y-130067000D01*
X155213000Y-130067000D01*
X155213000Y-130073000D01*
X155213000Y-130073000D01*
G37*
X155213000Y-130073000D02*
X154267000Y-130073000D01*
X154267000Y-130067000D01*
X155213000Y-130067000D01*
X155213000Y-130073000D01*
G36*
X155570394Y-128460000D02*
X154500000Y-129530394D01*
X154439606Y-129470000D01*
X155510000Y-128399606D01*
X155570394Y-128460000D01*
X155570394Y-128460000D01*
G37*
X155570394Y-128460000D02*
X154500000Y-129530394D01*
X154439606Y-129470000D01*
X155510000Y-128399606D01*
X155570394Y-128460000D01*
D86*
G36*
X150669500Y-132179500D02*
X150340190Y-132179500D01*
X149150500Y-131119776D01*
X149150500Y-130520224D01*
X150340190Y-129460500D01*
X150669500Y-129460500D01*
X150669500Y-132179500D01*
X150669500Y-132179500D01*
G37*
X150669500Y-132179500D02*
X150340190Y-132179500D01*
X149150500Y-131119776D01*
X149150500Y-130520224D01*
X150340190Y-129460500D01*
X150669500Y-129460500D01*
X150669500Y-132179500D01*
D87*
G36*
X152803000Y-133207394D02*
X152460000Y-133550394D01*
X152449606Y-133540000D01*
X152749803Y-133239803D01*
X152777666Y-133197789D01*
X152787000Y-133150000D01*
X152787000Y-132977000D01*
X152803000Y-132977000D01*
X152803000Y-133207394D01*
X152803000Y-133207394D01*
G37*
X152803000Y-133207394D02*
X152460000Y-133550394D01*
X152449606Y-133540000D01*
X152749803Y-133239803D01*
X152777666Y-133197789D01*
X152787000Y-133150000D01*
X152787000Y-132977000D01*
X152803000Y-132977000D01*
X152803000Y-133207394D01*
G36*
X153293000Y-133573000D02*
X153287000Y-133573000D01*
X153287000Y-132977000D01*
X153293000Y-132977000D01*
X153293000Y-133573000D01*
X153293000Y-133573000D01*
G37*
X153293000Y-133573000D02*
X153287000Y-133573000D01*
X153287000Y-132977000D01*
X153293000Y-132977000D01*
X153293000Y-133573000D01*
G36*
X153793000Y-133573000D02*
X153787000Y-133573000D01*
X153787000Y-133067000D01*
X153793000Y-133067000D01*
X153793000Y-133573000D01*
X153793000Y-133573000D01*
G37*
X153793000Y-133573000D02*
X153787000Y-133573000D01*
X153787000Y-133067000D01*
X153793000Y-133067000D01*
X153793000Y-133573000D01*
D85*
G36*
X136717300Y-84077300D02*
X135980000Y-84077300D01*
X135975059Y-84078301D01*
X135970897Y-84081145D01*
X135968169Y-84085384D01*
X135967300Y-84090000D01*
X135967300Y-84447300D01*
X135950000Y-84447300D01*
X135945059Y-84448301D01*
X135940897Y-84451145D01*
X135938169Y-84455384D01*
X135937300Y-84460000D01*
X135937300Y-87397300D01*
X133122700Y-87397300D01*
X133122700Y-84460000D01*
X133121699Y-84455059D01*
X133118855Y-84450897D01*
X133114616Y-84448169D01*
X133110000Y-84447300D01*
X133092700Y-84447300D01*
X133092700Y-84090000D01*
X133091699Y-84085059D01*
X133088855Y-84080897D01*
X133084616Y-84078169D01*
X133080000Y-84077300D01*
X132342700Y-84077300D01*
X132342700Y-82002700D01*
X136717300Y-82002700D01*
X136717300Y-84077300D01*
X136717300Y-84077300D01*
G37*
X136717300Y-84077300D02*
X135980000Y-84077300D01*
X135975059Y-84078301D01*
X135970897Y-84081145D01*
X135968169Y-84085384D01*
X135967300Y-84090000D01*
X135967300Y-84447300D01*
X135950000Y-84447300D01*
X135945059Y-84448301D01*
X135940897Y-84451145D01*
X135938169Y-84455384D01*
X135937300Y-84460000D01*
X135937300Y-87397300D01*
X133122700Y-87397300D01*
X133122700Y-84460000D01*
X133121699Y-84455059D01*
X133118855Y-84450897D01*
X133114616Y-84448169D01*
X133110000Y-84447300D01*
X133092700Y-84447300D01*
X133092700Y-84090000D01*
X133091699Y-84085059D01*
X133088855Y-84080897D01*
X133084616Y-84078169D01*
X133080000Y-84077300D01*
X132342700Y-84077300D01*
X132342700Y-82002700D01*
X136717300Y-82002700D01*
X136717300Y-84077300D01*
D86*
G36*
X138729500Y-87439500D02*
X136400500Y-87439500D01*
X136400500Y-86040500D01*
X138729500Y-86040500D01*
X138729500Y-87439500D01*
X138729500Y-87439500D01*
G37*
X138729500Y-87439500D02*
X136400500Y-87439500D01*
X136400500Y-86040500D01*
X138729500Y-86040500D01*
X138729500Y-87439500D01*
D87*
G36*
X139698000Y-86550000D02*
X139708006Y-86599410D01*
X139736447Y-86641035D01*
X139778841Y-86668315D01*
X139825000Y-86677000D01*
X140673000Y-86677000D01*
X140673000Y-89683000D01*
X139297167Y-89683000D01*
X139301834Y-86127000D01*
X139698000Y-86127000D01*
X139698000Y-86550000D01*
X139698000Y-86550000D01*
G37*
X139698000Y-86550000D02*
X139708006Y-86599410D01*
X139736447Y-86641035D01*
X139778841Y-86668315D01*
X139825000Y-86677000D01*
X140673000Y-86677000D01*
X140673000Y-89683000D01*
X139297167Y-89683000D01*
X139301834Y-86127000D01*
X139698000Y-86127000D01*
X139698000Y-86550000D01*
G36*
X137203000Y-85243000D02*
X136257000Y-85243000D01*
X136257000Y-85237000D01*
X137203000Y-85237000D01*
X137203000Y-85243000D01*
X137203000Y-85243000D01*
G37*
X137203000Y-85243000D02*
X136257000Y-85243000D01*
X136257000Y-85237000D01*
X137203000Y-85237000D01*
X137203000Y-85243000D01*
G36*
X137560394Y-83630000D02*
X136490000Y-84700394D01*
X136429606Y-84640000D01*
X137500000Y-83569606D01*
X137560394Y-83630000D01*
X137560394Y-83630000D01*
G37*
X137560394Y-83630000D02*
X136490000Y-84700394D01*
X136429606Y-84640000D01*
X137500000Y-83569606D01*
X137560394Y-83630000D01*
D86*
G36*
X132659500Y-87349500D02*
X132330190Y-87349500D01*
X131140500Y-86289776D01*
X131140500Y-85690224D01*
X132330190Y-84630500D01*
X132659500Y-84630500D01*
X132659500Y-87349500D01*
X132659500Y-87349500D01*
G37*
X132659500Y-87349500D02*
X132330190Y-87349500D01*
X131140500Y-86289776D01*
X131140500Y-85690224D01*
X132330190Y-84630500D01*
X132659500Y-84630500D01*
X132659500Y-87349500D01*
D87*
G36*
X134793000Y-88377394D02*
X134450000Y-88720394D01*
X134439606Y-88710000D01*
X134739803Y-88409803D01*
X134767666Y-88367789D01*
X134777000Y-88320000D01*
X134777000Y-88147000D01*
X134793000Y-88147000D01*
X134793000Y-88377394D01*
X134793000Y-88377394D01*
G37*
X134793000Y-88377394D02*
X134450000Y-88720394D01*
X134439606Y-88710000D01*
X134739803Y-88409803D01*
X134767666Y-88367789D01*
X134777000Y-88320000D01*
X134777000Y-88147000D01*
X134793000Y-88147000D01*
X134793000Y-88377394D01*
G36*
X135283000Y-88743000D02*
X135277000Y-88743000D01*
X135277000Y-88147000D01*
X135283000Y-88147000D01*
X135283000Y-88743000D01*
X135283000Y-88743000D01*
G37*
X135283000Y-88743000D02*
X135277000Y-88743000D01*
X135277000Y-88147000D01*
X135283000Y-88147000D01*
X135283000Y-88743000D01*
G36*
X135783000Y-88743000D02*
X135777000Y-88743000D01*
X135777000Y-88237000D01*
X135783000Y-88237000D01*
X135783000Y-88743000D01*
X135783000Y-88743000D01*
G37*
X135783000Y-88743000D02*
X135777000Y-88743000D01*
X135777000Y-88237000D01*
X135783000Y-88237000D01*
X135783000Y-88743000D01*
D88*
G36*
X133300000Y-88308578D02*
X133008578Y-88600000D01*
X132941422Y-88600000D01*
X133220711Y-88320711D01*
X133242650Y-88287629D01*
X133250000Y-88250000D01*
X133250000Y-88200000D01*
X133300000Y-88200000D01*
X133300000Y-88308578D01*
X133300000Y-88308578D01*
G37*
X133300000Y-88308578D02*
X133008578Y-88600000D01*
X132941422Y-88600000D01*
X133220711Y-88320711D01*
X133242650Y-88287629D01*
X133250000Y-88250000D01*
X133250000Y-88200000D01*
X133300000Y-88200000D01*
X133300000Y-88308578D01*
G36*
X151310000Y-133138578D02*
X151018578Y-133430000D01*
X150951422Y-133430000D01*
X151230711Y-133150711D01*
X151252650Y-133117629D01*
X151260000Y-133080000D01*
X151260000Y-133030000D01*
X151310000Y-133030000D01*
X151310000Y-133138578D01*
X151310000Y-133138578D01*
G37*
X151310000Y-133138578D02*
X151018578Y-133430000D01*
X150951422Y-133430000D01*
X151230711Y-133150711D01*
X151252650Y-133117629D01*
X151260000Y-133080000D01*
X151260000Y-133030000D01*
X151310000Y-133030000D01*
X151310000Y-133138578D01*
M02*
