G04 #@! TF.FileFunction,Legend,Bot*
%FSLAX46Y46*%
G04 Gerber Fmt 4.6, Leading zero omitted, Abs format (unit mm)*
G04 Created by KiCad (PCBNEW 4.0.7-e2-6376~58~ubuntu16.04.1) date Sun Apr 29 22:17:45 2018*
%MOMM*%
%LPD*%
G01*
G04 APERTURE LIST*
%ADD10C,0.100000*%
%ADD11C,0.300000*%
%ADD12C,0.010000*%
G04 APERTURE END LIST*
D10*
D11*
X128514286Y-101285714D02*
X128442857Y-101357143D01*
X128371429Y-101571429D01*
X128371429Y-101714286D01*
X128442857Y-101928571D01*
X128585714Y-102071429D01*
X128728571Y-102142857D01*
X129014286Y-102214286D01*
X129228571Y-102214286D01*
X129514286Y-102142857D01*
X129657143Y-102071429D01*
X129800000Y-101928571D01*
X129871429Y-101714286D01*
X129871429Y-101571429D01*
X129800000Y-101357143D01*
X129728571Y-101285714D01*
X129371429Y-100000000D02*
X128371429Y-100000000D01*
X129371429Y-100642857D02*
X128585714Y-100642857D01*
X128442857Y-100571429D01*
X128371429Y-100428571D01*
X128371429Y-100214286D01*
X128442857Y-100071429D01*
X128514286Y-100000000D01*
X128371429Y-99285714D02*
X129871429Y-99285714D01*
X129300000Y-99285714D02*
X129371429Y-99142857D01*
X129371429Y-98857143D01*
X129300000Y-98714286D01*
X129228571Y-98642857D01*
X129085714Y-98571428D01*
X128657143Y-98571428D01*
X128514286Y-98642857D01*
X128442857Y-98714286D01*
X128371429Y-98857143D01*
X128371429Y-99142857D01*
X128442857Y-99285714D01*
X128442857Y-97357143D02*
X128371429Y-97500000D01*
X128371429Y-97785714D01*
X128442857Y-97928571D01*
X128585714Y-98000000D01*
X129157143Y-98000000D01*
X129300000Y-97928571D01*
X129371429Y-97785714D01*
X129371429Y-97500000D01*
X129300000Y-97357143D01*
X129157143Y-97285714D01*
X129014286Y-97285714D01*
X128871429Y-98000000D01*
X128442857Y-96714286D02*
X128371429Y-96500000D01*
X128371429Y-96142857D01*
X128442857Y-96000000D01*
X128514286Y-95928571D01*
X128657143Y-95857143D01*
X128800000Y-95857143D01*
X128942857Y-95928571D01*
X129014286Y-96000000D01*
X129085714Y-96142857D01*
X129157143Y-96428571D01*
X129228571Y-96571429D01*
X129300000Y-96642857D01*
X129442857Y-96714286D01*
X129585714Y-96714286D01*
X129728571Y-96642857D01*
X129800000Y-96571429D01*
X129871429Y-96428571D01*
X129871429Y-96071429D01*
X129800000Y-95857143D01*
X128371429Y-94571429D02*
X129157143Y-94571429D01*
X129300000Y-94642858D01*
X129371429Y-94785715D01*
X129371429Y-95071429D01*
X129300000Y-95214286D01*
X128442857Y-94571429D02*
X128371429Y-94714286D01*
X128371429Y-95071429D01*
X128442857Y-95214286D01*
X128585714Y-95285715D01*
X128728571Y-95285715D01*
X128871429Y-95214286D01*
X128942857Y-95071429D01*
X128942857Y-94714286D01*
X129014286Y-94571429D01*
X129371429Y-94071429D02*
X129371429Y-93500000D01*
X129871429Y-93857143D02*
X128585714Y-93857143D01*
X128442857Y-93785715D01*
X128371429Y-93642857D01*
X128371429Y-93500000D01*
X128371429Y-91000000D02*
X129085714Y-91500000D01*
X128371429Y-91857143D02*
X129871429Y-91857143D01*
X129871429Y-91285715D01*
X129800000Y-91142857D01*
X129728571Y-91071429D01*
X129585714Y-91000000D01*
X129371429Y-91000000D01*
X129228571Y-91071429D01*
X129157143Y-91142857D01*
X129085714Y-91285715D01*
X129085714Y-91857143D01*
X128371429Y-89714286D02*
X129157143Y-89714286D01*
X129300000Y-89785715D01*
X129371429Y-89928572D01*
X129371429Y-90214286D01*
X129300000Y-90357143D01*
X128442857Y-89714286D02*
X128371429Y-89857143D01*
X128371429Y-90214286D01*
X128442857Y-90357143D01*
X128585714Y-90428572D01*
X128728571Y-90428572D01*
X128871429Y-90357143D01*
X128942857Y-90214286D01*
X128942857Y-89857143D01*
X129014286Y-89714286D01*
X128371429Y-88357143D02*
X129871429Y-88357143D01*
X128442857Y-88357143D02*
X128371429Y-88500000D01*
X128371429Y-88785714D01*
X128442857Y-88928572D01*
X128514286Y-89000000D01*
X128657143Y-89071429D01*
X129085714Y-89071429D01*
X129228571Y-89000000D01*
X129300000Y-88928572D01*
X129371429Y-88785714D01*
X129371429Y-88500000D01*
X129300000Y-88357143D01*
X128371429Y-87642857D02*
X129371429Y-87642857D01*
X129871429Y-87642857D02*
X129800000Y-87714286D01*
X129728571Y-87642857D01*
X129800000Y-87571429D01*
X129871429Y-87642857D01*
X129728571Y-87642857D01*
X128371429Y-86714285D02*
X128442857Y-86857143D01*
X128514286Y-86928571D01*
X128657143Y-87000000D01*
X129085714Y-87000000D01*
X129228571Y-86928571D01*
X129300000Y-86857143D01*
X129371429Y-86714285D01*
X129371429Y-86500000D01*
X129300000Y-86357143D01*
X129228571Y-86285714D01*
X129085714Y-86214285D01*
X128657143Y-86214285D01*
X128514286Y-86285714D01*
X128442857Y-86357143D01*
X128371429Y-86500000D01*
X128371429Y-86714285D01*
X128371429Y-83571428D02*
X129085714Y-84071428D01*
X128371429Y-84428571D02*
X129871429Y-84428571D01*
X129871429Y-83857143D01*
X129800000Y-83714285D01*
X129728571Y-83642857D01*
X129585714Y-83571428D01*
X129371429Y-83571428D01*
X129228571Y-83642857D01*
X129157143Y-83714285D01*
X129085714Y-83857143D01*
X129085714Y-84428571D01*
X128442857Y-82357143D02*
X128371429Y-82500000D01*
X128371429Y-82785714D01*
X128442857Y-82928571D01*
X128585714Y-83000000D01*
X129157143Y-83000000D01*
X129300000Y-82928571D01*
X129371429Y-82785714D01*
X129371429Y-82500000D01*
X129300000Y-82357143D01*
X129157143Y-82285714D01*
X129014286Y-82285714D01*
X128871429Y-83000000D01*
X129371429Y-81785714D02*
X128371429Y-81428571D01*
X129371429Y-81071429D01*
X128514286Y-80500000D02*
X128442857Y-80428572D01*
X128371429Y-80500000D01*
X128442857Y-80571429D01*
X128514286Y-80500000D01*
X128371429Y-80500000D01*
X129871429Y-78785714D02*
X129871429Y-77857143D01*
X129300000Y-78357143D01*
X129300000Y-78142857D01*
X129228571Y-78000000D01*
X129157143Y-77928571D01*
X129014286Y-77857143D01*
X128657143Y-77857143D01*
X128514286Y-77928571D01*
X128442857Y-78000000D01*
X128371429Y-78142857D01*
X128371429Y-78571429D01*
X128442857Y-78714286D01*
X128514286Y-78785714D01*
X125892857Y-102214286D02*
X125821429Y-102000000D01*
X125821429Y-101642857D01*
X125892857Y-101500000D01*
X125964286Y-101428571D01*
X126107143Y-101357143D01*
X126250000Y-101357143D01*
X126392857Y-101428571D01*
X126464286Y-101500000D01*
X126535714Y-101642857D01*
X126607143Y-101928571D01*
X126678571Y-102071429D01*
X126750000Y-102142857D01*
X126892857Y-102214286D01*
X127035714Y-102214286D01*
X127178571Y-102142857D01*
X127250000Y-102071429D01*
X127321429Y-101928571D01*
X127321429Y-101571429D01*
X127250000Y-101357143D01*
X126607143Y-100214286D02*
X126607143Y-100714286D01*
X125821429Y-100714286D02*
X127321429Y-100714286D01*
X127321429Y-100000000D01*
X127321429Y-99428572D02*
X126107143Y-99428572D01*
X125964286Y-99357144D01*
X125892857Y-99285715D01*
X125821429Y-99142858D01*
X125821429Y-98857144D01*
X125892857Y-98714286D01*
X125964286Y-98642858D01*
X126107143Y-98571429D01*
X127321429Y-98571429D01*
X125892857Y-96785715D02*
X125821429Y-96571429D01*
X125821429Y-96214286D01*
X125892857Y-96071429D01*
X125964286Y-96000000D01*
X126107143Y-95928572D01*
X126250000Y-95928572D01*
X126392857Y-96000000D01*
X126464286Y-96071429D01*
X126535714Y-96214286D01*
X126607143Y-96500000D01*
X126678571Y-96642858D01*
X126750000Y-96714286D01*
X126892857Y-96785715D01*
X127035714Y-96785715D01*
X127178571Y-96714286D01*
X127250000Y-96642858D01*
X127321429Y-96500000D01*
X127321429Y-96142858D01*
X127250000Y-95928572D01*
X125821429Y-94642858D02*
X126607143Y-94642858D01*
X126750000Y-94714287D01*
X126821429Y-94857144D01*
X126821429Y-95142858D01*
X126750000Y-95285715D01*
X125892857Y-94642858D02*
X125821429Y-94785715D01*
X125821429Y-95142858D01*
X125892857Y-95285715D01*
X126035714Y-95357144D01*
X126178571Y-95357144D01*
X126321429Y-95285715D01*
X126392857Y-95142858D01*
X126392857Y-94785715D01*
X126464286Y-94642858D01*
X126821429Y-94142858D02*
X126821429Y-93571429D01*
X127321429Y-93928572D02*
X126035714Y-93928572D01*
X125892857Y-93857144D01*
X125821429Y-93714286D01*
X125821429Y-93571429D01*
X125892857Y-92500001D02*
X125821429Y-92642858D01*
X125821429Y-92928572D01*
X125892857Y-93071429D01*
X126035714Y-93142858D01*
X126607143Y-93142858D01*
X126750000Y-93071429D01*
X126821429Y-92928572D01*
X126821429Y-92642858D01*
X126750000Y-92500001D01*
X126607143Y-92428572D01*
X126464286Y-92428572D01*
X126321429Y-93142858D01*
X125821429Y-91571429D02*
X125892857Y-91714287D01*
X126035714Y-91785715D01*
X127321429Y-91785715D01*
X125821429Y-90785715D02*
X125892857Y-90928573D01*
X126035714Y-91000001D01*
X127321429Y-91000001D01*
X125821429Y-90214287D02*
X126821429Y-90214287D01*
X127321429Y-90214287D02*
X127250000Y-90285716D01*
X127178571Y-90214287D01*
X127250000Y-90142859D01*
X127321429Y-90214287D01*
X127178571Y-90214287D01*
X126821429Y-89714287D02*
X126821429Y-89142858D01*
X127321429Y-89500001D02*
X126035714Y-89500001D01*
X125892857Y-89428573D01*
X125821429Y-89285715D01*
X125821429Y-89142858D01*
X125892857Y-88071430D02*
X125821429Y-88214287D01*
X125821429Y-88500001D01*
X125892857Y-88642858D01*
X126035714Y-88714287D01*
X126607143Y-88714287D01*
X126750000Y-88642858D01*
X126821429Y-88500001D01*
X126821429Y-88214287D01*
X126750000Y-88071430D01*
X126607143Y-88000001D01*
X126464286Y-88000001D01*
X126321429Y-88714287D01*
X125821429Y-86214287D02*
X127321429Y-86214287D01*
X127321429Y-85857144D01*
X127250000Y-85642859D01*
X127107143Y-85500001D01*
X126964286Y-85428573D01*
X126678571Y-85357144D01*
X126464286Y-85357144D01*
X126178571Y-85428573D01*
X126035714Y-85500001D01*
X125892857Y-85642859D01*
X125821429Y-85857144D01*
X125821429Y-86214287D01*
X125892857Y-84142859D02*
X125821429Y-84285716D01*
X125821429Y-84571430D01*
X125892857Y-84714287D01*
X126035714Y-84785716D01*
X126607143Y-84785716D01*
X126750000Y-84714287D01*
X126821429Y-84571430D01*
X126821429Y-84285716D01*
X126750000Y-84142859D01*
X126607143Y-84071430D01*
X126464286Y-84071430D01*
X126321429Y-84785716D01*
X125892857Y-83500002D02*
X125821429Y-83357145D01*
X125821429Y-83071430D01*
X125892857Y-82928573D01*
X126035714Y-82857145D01*
X126107143Y-82857145D01*
X126250000Y-82928573D01*
X126321429Y-83071430D01*
X126321429Y-83285716D01*
X126392857Y-83428573D01*
X126535714Y-83500002D01*
X126607143Y-83500002D01*
X126750000Y-83428573D01*
X126821429Y-83285716D01*
X126821429Y-83071430D01*
X126750000Y-82928573D01*
X125821429Y-82214287D02*
X126821429Y-82214287D01*
X127321429Y-82214287D02*
X127250000Y-82285716D01*
X127178571Y-82214287D01*
X127250000Y-82142859D01*
X127321429Y-82214287D01*
X127178571Y-82214287D01*
X126821429Y-80857144D02*
X125607143Y-80857144D01*
X125464286Y-80928573D01*
X125392857Y-81000001D01*
X125321429Y-81142858D01*
X125321429Y-81357144D01*
X125392857Y-81500001D01*
X125892857Y-80857144D02*
X125821429Y-81000001D01*
X125821429Y-81285715D01*
X125892857Y-81428573D01*
X125964286Y-81500001D01*
X126107143Y-81571430D01*
X126535714Y-81571430D01*
X126678571Y-81500001D01*
X126750000Y-81428573D01*
X126821429Y-81285715D01*
X126821429Y-81000001D01*
X126750000Y-80857144D01*
X126821429Y-80142858D02*
X125821429Y-80142858D01*
X126678571Y-80142858D02*
X126750000Y-80071430D01*
X126821429Y-79928572D01*
X126821429Y-79714287D01*
X126750000Y-79571430D01*
X126607143Y-79500001D01*
X125821429Y-79500001D01*
X127321429Y-77857144D02*
X127321429Y-77000001D01*
X125821429Y-77428572D02*
X127321429Y-77428572D01*
X125892857Y-75928573D02*
X125821429Y-76071430D01*
X125821429Y-76357144D01*
X125892857Y-76500001D01*
X126035714Y-76571430D01*
X126607143Y-76571430D01*
X126750000Y-76500001D01*
X126821429Y-76357144D01*
X126821429Y-76071430D01*
X126750000Y-75928573D01*
X126607143Y-75857144D01*
X126464286Y-75857144D01*
X126321429Y-76571430D01*
X125821429Y-74571430D02*
X126607143Y-74571430D01*
X126750000Y-74642859D01*
X126821429Y-74785716D01*
X126821429Y-75071430D01*
X126750000Y-75214287D01*
X125892857Y-74571430D02*
X125821429Y-74714287D01*
X125821429Y-75071430D01*
X125892857Y-75214287D01*
X126035714Y-75285716D01*
X126178571Y-75285716D01*
X126321429Y-75214287D01*
X126392857Y-75071430D01*
X126392857Y-74714287D01*
X126464286Y-74571430D01*
X125821429Y-73857144D02*
X126821429Y-73857144D01*
X126678571Y-73857144D02*
X126750000Y-73785716D01*
X126821429Y-73642858D01*
X126821429Y-73428573D01*
X126750000Y-73285716D01*
X126607143Y-73214287D01*
X125821429Y-73214287D01*
X126607143Y-73214287D02*
X126750000Y-73142858D01*
X126821429Y-73000001D01*
X126821429Y-72785716D01*
X126750000Y-72642858D01*
X126607143Y-72571430D01*
X125821429Y-72571430D01*
X123700000Y-102214286D02*
X123700000Y-101500000D01*
X123271429Y-102357143D02*
X124771429Y-101857143D01*
X123271429Y-101357143D01*
X124271429Y-100857143D02*
X122771429Y-100857143D01*
X124200000Y-100857143D02*
X124271429Y-100714286D01*
X124271429Y-100428572D01*
X124200000Y-100285715D01*
X124128571Y-100214286D01*
X123985714Y-100142857D01*
X123557143Y-100142857D01*
X123414286Y-100214286D01*
X123342857Y-100285715D01*
X123271429Y-100428572D01*
X123271429Y-100714286D01*
X123342857Y-100857143D01*
X123271429Y-99500000D02*
X124271429Y-99500000D01*
X123985714Y-99500000D02*
X124128571Y-99428572D01*
X124200000Y-99357143D01*
X124271429Y-99214286D01*
X124271429Y-99071429D01*
X123271429Y-98571429D02*
X124271429Y-98571429D01*
X124771429Y-98571429D02*
X124700000Y-98642858D01*
X124628571Y-98571429D01*
X124700000Y-98500001D01*
X124771429Y-98571429D01*
X124628571Y-98571429D01*
X123271429Y-97642857D02*
X123342857Y-97785715D01*
X123485714Y-97857143D01*
X124771429Y-97857143D01*
X124628571Y-96000001D02*
X124700000Y-95928572D01*
X124771429Y-95785715D01*
X124771429Y-95428572D01*
X124700000Y-95285715D01*
X124628571Y-95214286D01*
X124485714Y-95142858D01*
X124342857Y-95142858D01*
X124128571Y-95214286D01*
X123271429Y-96071429D01*
X123271429Y-95142858D01*
X124771429Y-94214287D02*
X124771429Y-94071430D01*
X124700000Y-93928573D01*
X124628571Y-93857144D01*
X124485714Y-93785715D01*
X124200000Y-93714287D01*
X123842857Y-93714287D01*
X123557143Y-93785715D01*
X123414286Y-93857144D01*
X123342857Y-93928573D01*
X123271429Y-94071430D01*
X123271429Y-94214287D01*
X123342857Y-94357144D01*
X123414286Y-94428573D01*
X123557143Y-94500001D01*
X123842857Y-94571430D01*
X124200000Y-94571430D01*
X124485714Y-94500001D01*
X124628571Y-94428573D01*
X124700000Y-94357144D01*
X124771429Y-94214287D01*
X123271429Y-92285716D02*
X123271429Y-93142859D01*
X123271429Y-92714287D02*
X124771429Y-92714287D01*
X124557143Y-92857144D01*
X124414286Y-93000002D01*
X124342857Y-93142859D01*
X124128571Y-91428573D02*
X124200000Y-91571431D01*
X124271429Y-91642859D01*
X124414286Y-91714288D01*
X124485714Y-91714288D01*
X124628571Y-91642859D01*
X124700000Y-91571431D01*
X124771429Y-91428573D01*
X124771429Y-91142859D01*
X124700000Y-91000002D01*
X124628571Y-90928573D01*
X124485714Y-90857145D01*
X124414286Y-90857145D01*
X124271429Y-90928573D01*
X124200000Y-91000002D01*
X124128571Y-91142859D01*
X124128571Y-91428573D01*
X124057143Y-91571431D01*
X123985714Y-91642859D01*
X123842857Y-91714288D01*
X123557143Y-91714288D01*
X123414286Y-91642859D01*
X123342857Y-91571431D01*
X123271429Y-91428573D01*
X123271429Y-91142859D01*
X123342857Y-91000002D01*
X123414286Y-90928573D01*
X123557143Y-90857145D01*
X123842857Y-90857145D01*
X123985714Y-90928573D01*
X124057143Y-91000002D01*
X124128571Y-91142859D01*
D12*
G36*
X122240311Y-89106464D02*
X122054930Y-88988590D01*
X121789383Y-88838642D01*
X121696167Y-88789005D01*
X121403477Y-88632608D01*
X121169527Y-88502622D01*
X121034515Y-88421536D01*
X121019873Y-88410620D01*
X121017388Y-88308887D01*
X121085771Y-88120576D01*
X121125707Y-88040613D01*
X121230713Y-87828783D01*
X121289480Y-87679352D01*
X121294000Y-87654285D01*
X121219219Y-87625941D01*
X121027182Y-87632452D01*
X120870667Y-87653978D01*
X120510884Y-87715205D01*
X120130745Y-87779921D01*
X120030308Y-87797025D01*
X119777670Y-87831926D01*
X119644392Y-87819912D01*
X119585085Y-87753212D01*
X119574292Y-87718952D01*
X119608940Y-87553909D01*
X119763748Y-87351283D01*
X119779651Y-87335754D01*
X119931174Y-87208183D01*
X120018441Y-87168697D01*
X120026575Y-87180993D01*
X120062108Y-87184416D01*
X120121091Y-87102084D01*
X120151209Y-86938568D01*
X120030956Y-86832667D01*
X119788251Y-86795963D01*
X119677550Y-86783763D01*
X119628065Y-86721182D01*
X119627003Y-86566322D01*
X119652118Y-86350166D01*
X119699538Y-86053123D01*
X119755814Y-85796832D01*
X119783527Y-85705729D01*
X119820085Y-85572142D01*
X119765051Y-85529043D01*
X119581091Y-85547218D01*
X119580993Y-85547232D01*
X119334162Y-85595307D01*
X119020111Y-85670548D01*
X118863557Y-85712635D01*
X118422780Y-85836596D01*
X118306317Y-85544602D01*
X118189855Y-85252608D01*
X117776111Y-85748471D01*
X117574754Y-85990489D01*
X117419082Y-86178904D01*
X117337957Y-86278751D01*
X117333477Y-86284651D01*
X117268796Y-86239009D01*
X117104577Y-86088455D01*
X116858544Y-85850235D01*
X116548421Y-85541596D01*
X116191933Y-85179787D01*
X116080543Y-85065457D01*
X115712853Y-84691305D01*
X115385021Y-84365684D01*
X115115025Y-84105799D01*
X114920847Y-83928856D01*
X114820465Y-83852060D01*
X114811434Y-83851011D01*
X114819303Y-83946191D01*
X114894987Y-84126414D01*
X114924014Y-84181204D01*
X115030038Y-84395812D01*
X115169753Y-84709087D01*
X115316778Y-85061373D01*
X115349655Y-85143666D01*
X115767395Y-86425810D01*
X116022800Y-87739689D01*
X116116350Y-89070514D01*
X116048526Y-90403495D01*
X115819809Y-91723843D01*
X115430679Y-93016768D01*
X115065221Y-93893047D01*
X114930472Y-94188542D01*
X114829863Y-94423155D01*
X114780467Y-94556606D01*
X114778139Y-94570380D01*
X114831052Y-94543512D01*
X114965498Y-94417875D01*
X115129490Y-94245333D01*
X115296209Y-94040597D01*
X115296209Y-93855963D01*
X115281344Y-93813227D01*
X115324778Y-93649750D01*
X115417150Y-93400019D01*
X115425584Y-93379277D01*
X115573827Y-92989258D01*
X115722543Y-92554781D01*
X115801840Y-92298000D01*
X116021201Y-91339774D01*
X116160966Y-90290108D01*
X116217819Y-89208500D01*
X116188447Y-88154445D01*
X116082446Y-87260333D01*
X115996622Y-86858515D01*
X115864255Y-86353323D01*
X115701659Y-85798619D01*
X115525152Y-85248264D01*
X115351049Y-84756117D01*
X115237119Y-84469866D01*
X115269647Y-84474348D01*
X115402437Y-84585807D01*
X115618894Y-84788668D01*
X115902425Y-85067356D01*
X116236437Y-85406296D01*
X116253329Y-85423684D01*
X117340308Y-86543302D01*
X117487817Y-86309151D01*
X117639177Y-86093413D01*
X117834391Y-85844616D01*
X117889897Y-85778666D01*
X118144469Y-85482333D01*
X118251158Y-85715166D01*
X118316751Y-85848583D01*
X118387657Y-85918929D01*
X118504052Y-85931076D01*
X118706114Y-85889891D01*
X119009458Y-85807069D01*
X119282951Y-85741630D01*
X119488018Y-85712208D01*
X119572103Y-85721881D01*
X119585534Y-85828612D01*
X119561759Y-86045572D01*
X119523804Y-86242535D01*
X119465596Y-86569724D01*
X119475364Y-86766424D01*
X119560076Y-86860103D01*
X119685334Y-86879333D01*
X119851303Y-86914220D01*
X119869431Y-87021374D01*
X119739400Y-87204534D01*
X119649680Y-87296192D01*
X119478702Y-87477868D01*
X119415705Y-87611548D01*
X119437730Y-87756605D01*
X119454032Y-87802141D01*
X119541449Y-88033734D01*
X120142558Y-87923030D01*
X120471202Y-87861151D01*
X120756456Y-87805066D01*
X120936899Y-87766853D01*
X120937624Y-87766682D01*
X121064017Y-87745234D01*
X121085966Y-87792274D01*
X121015215Y-87946017D01*
X121001124Y-87973315D01*
X120904663Y-88194469D01*
X120895487Y-88361325D01*
X120991762Y-88506629D01*
X121211655Y-88663129D01*
X121461896Y-88803921D01*
X121738812Y-88959964D01*
X121946673Y-89089647D01*
X122049483Y-89170124D01*
X122054563Y-89180104D01*
X121985255Y-89242877D01*
X121800895Y-89356120D01*
X121539087Y-89497025D01*
X121496189Y-89518771D01*
X121217333Y-89670661D01*
X121002885Y-89809197D01*
X120895055Y-89906800D01*
X120891511Y-89913862D01*
X120896089Y-90059769D01*
X120965005Y-90273451D01*
X120984286Y-90316029D01*
X121067676Y-90503983D01*
X121071072Y-90585261D01*
X120990729Y-90604380D01*
X120960011Y-90604666D01*
X120787646Y-90559556D01*
X120612427Y-90408369D01*
X120408583Y-90127320D01*
X120361302Y-90052125D01*
X120238219Y-89875431D01*
X120150425Y-89789841D01*
X120133181Y-89789930D01*
X120154564Y-89875638D01*
X120252431Y-90054272D01*
X120360416Y-90220395D01*
X120665774Y-90724466D01*
X120907060Y-91242640D01*
X121060202Y-91720030D01*
X121091361Y-91887087D01*
X121109868Y-92151516D01*
X121060794Y-92335691D01*
X120938553Y-92504927D01*
X120755874Y-92666917D01*
X120522401Y-92753390D01*
X120305186Y-92784255D01*
X120015463Y-92792578D01*
X119844375Y-92755072D01*
X119818937Y-92732018D01*
X119820767Y-92672357D01*
X119882719Y-92685235D01*
X120035021Y-92684742D01*
X120055079Y-92679323D01*
X120055079Y-92499159D01*
X119840292Y-92493856D01*
X119735954Y-92430193D01*
X119683815Y-92264458D01*
X119674180Y-92213333D01*
X119630423Y-91882659D01*
X119652719Y-91680834D01*
X119749302Y-91577547D01*
X119854667Y-91549054D01*
X120059227Y-91494329D01*
X120162193Y-91439380D01*
X120162193Y-91256696D01*
X120083253Y-91225436D01*
X119912155Y-91103633D01*
X119681557Y-90915178D01*
X119608029Y-90851304D01*
X119374171Y-90640406D01*
X119202981Y-90476302D01*
X119123076Y-90386767D01*
X119121107Y-90378671D01*
X119209242Y-90383595D01*
X119397398Y-90425474D01*
X119446717Y-90438696D01*
X119732579Y-90585478D01*
X119977465Y-90867504D01*
X120101360Y-91075067D01*
X120163260Y-91220479D01*
X120162193Y-91256696D01*
X120162193Y-91439380D01*
X120168107Y-91436223D01*
X120257164Y-91427379D01*
X120353430Y-91561353D01*
X120400940Y-91666342D01*
X120515210Y-92028585D01*
X120504572Y-92281683D01*
X120365187Y-92434880D01*
X120093217Y-92497419D01*
X120055079Y-92499159D01*
X120055079Y-92679323D01*
X120257949Y-92624505D01*
X120310450Y-92603919D01*
X120508352Y-92504196D01*
X120595537Y-92383215D01*
X120616487Y-92172214D01*
X120616667Y-92130572D01*
X120563910Y-91814697D01*
X120417514Y-91413011D01*
X120195290Y-90967186D01*
X119948809Y-90567990D01*
X119799693Y-90400427D01*
X119605673Y-90316487D01*
X119394067Y-90287290D01*
X119147561Y-90283270D01*
X119031222Y-90331059D01*
X119046917Y-90442237D01*
X119196512Y-90628385D01*
X119481872Y-90901085D01*
X119494834Y-90912783D01*
X119739367Y-91136098D01*
X119862790Y-91275222D01*
X119867949Y-91361326D01*
X119757690Y-91425580D01*
X119548011Y-91494970D01*
X119458257Y-91566331D01*
X119453618Y-91726368D01*
X119469897Y-91812470D01*
X119525285Y-92097271D01*
X119574799Y-92394625D01*
X119620493Y-92702916D01*
X119000079Y-92532794D01*
X118677093Y-92455402D01*
X118451136Y-92424098D01*
X118353083Y-92443050D01*
X118352113Y-92445329D01*
X118282842Y-92576984D01*
X118216235Y-92676130D01*
X118161416Y-92726096D01*
X118090617Y-92718575D01*
X117984141Y-92636503D01*
X117822289Y-92462818D01*
X117585363Y-92180458D01*
X117443965Y-92007193D01*
X117188054Y-91702472D01*
X116968665Y-91460372D01*
X116807661Y-91303666D01*
X116726903Y-91255124D01*
X116723974Y-91257223D01*
X116668726Y-91363943D01*
X116573356Y-91585511D01*
X116456599Y-91878000D01*
X116432894Y-91939665D01*
X116300826Y-92242056D01*
X116120914Y-92596496D01*
X115914929Y-92966282D01*
X115704641Y-93314711D01*
X115511820Y-93605083D01*
X115358237Y-93800694D01*
X115296209Y-93855963D01*
X115296209Y-94040597D01*
X115528284Y-93755600D01*
X115920084Y-93181027D01*
X116263899Y-92586669D01*
X116515640Y-92045499D01*
X116633216Y-91761909D01*
X116731883Y-91552985D01*
X116793182Y-91457217D01*
X116798876Y-91454969D01*
X116867494Y-91519173D01*
X117017443Y-91691366D01*
X117226697Y-91945404D01*
X117473232Y-92255143D01*
X117476492Y-92259303D01*
X117777406Y-92635927D01*
X117992645Y-92885453D01*
X118134477Y-93018919D01*
X118215169Y-93047364D01*
X118246987Y-92981825D01*
X118248693Y-92954166D01*
X118298694Y-92805214D01*
X118365798Y-92697517D01*
X118469523Y-92604157D01*
X118616554Y-92589824D01*
X118807605Y-92628409D01*
X119068547Y-92693649D01*
X119409940Y-92779151D01*
X119685333Y-92848208D01*
X120215432Y-92927034D01*
X120639095Y-92877536D01*
X120949698Y-92708179D01*
X121140614Y-92427431D01*
X121205217Y-92043757D01*
X121136882Y-91565625D01*
X121001263Y-91166704D01*
X120797212Y-90670409D01*
X121045606Y-90720088D01*
X121208293Y-90746861D01*
X121275264Y-90721547D01*
X121252280Y-90613177D01*
X121145101Y-90390780D01*
X121117087Y-90335808D01*
X121033722Y-90173284D01*
X120995680Y-90058149D01*
X121022902Y-89964669D01*
X121135333Y-89867109D01*
X121352914Y-89739736D01*
X121695590Y-89556814D01*
X121738500Y-89533946D01*
X122010428Y-89381728D01*
X122212174Y-89255208D01*
X122307070Y-89177724D01*
X122310000Y-89170203D01*
X122240311Y-89106464D01*
X122240311Y-89106464D01*
G37*
X122240311Y-89106464D02*
X122054930Y-88988590D01*
X121789383Y-88838642D01*
X121696167Y-88789005D01*
X121403477Y-88632608D01*
X121169527Y-88502622D01*
X121034515Y-88421536D01*
X121019873Y-88410620D01*
X121017388Y-88308887D01*
X121085771Y-88120576D01*
X121125707Y-88040613D01*
X121230713Y-87828783D01*
X121289480Y-87679352D01*
X121294000Y-87654285D01*
X121219219Y-87625941D01*
X121027182Y-87632452D01*
X120870667Y-87653978D01*
X120510884Y-87715205D01*
X120130745Y-87779921D01*
X120030308Y-87797025D01*
X119777670Y-87831926D01*
X119644392Y-87819912D01*
X119585085Y-87753212D01*
X119574292Y-87718952D01*
X119608940Y-87553909D01*
X119763748Y-87351283D01*
X119779651Y-87335754D01*
X119931174Y-87208183D01*
X120018441Y-87168697D01*
X120026575Y-87180993D01*
X120062108Y-87184416D01*
X120121091Y-87102084D01*
X120151209Y-86938568D01*
X120030956Y-86832667D01*
X119788251Y-86795963D01*
X119677550Y-86783763D01*
X119628065Y-86721182D01*
X119627003Y-86566322D01*
X119652118Y-86350166D01*
X119699538Y-86053123D01*
X119755814Y-85796832D01*
X119783527Y-85705729D01*
X119820085Y-85572142D01*
X119765051Y-85529043D01*
X119581091Y-85547218D01*
X119580993Y-85547232D01*
X119334162Y-85595307D01*
X119020111Y-85670548D01*
X118863557Y-85712635D01*
X118422780Y-85836596D01*
X118306317Y-85544602D01*
X118189855Y-85252608D01*
X117776111Y-85748471D01*
X117574754Y-85990489D01*
X117419082Y-86178904D01*
X117337957Y-86278751D01*
X117333477Y-86284651D01*
X117268796Y-86239009D01*
X117104577Y-86088455D01*
X116858544Y-85850235D01*
X116548421Y-85541596D01*
X116191933Y-85179787D01*
X116080543Y-85065457D01*
X115712853Y-84691305D01*
X115385021Y-84365684D01*
X115115025Y-84105799D01*
X114920847Y-83928856D01*
X114820465Y-83852060D01*
X114811434Y-83851011D01*
X114819303Y-83946191D01*
X114894987Y-84126414D01*
X114924014Y-84181204D01*
X115030038Y-84395812D01*
X115169753Y-84709087D01*
X115316778Y-85061373D01*
X115349655Y-85143666D01*
X115767395Y-86425810D01*
X116022800Y-87739689D01*
X116116350Y-89070514D01*
X116048526Y-90403495D01*
X115819809Y-91723843D01*
X115430679Y-93016768D01*
X115065221Y-93893047D01*
X114930472Y-94188542D01*
X114829863Y-94423155D01*
X114780467Y-94556606D01*
X114778139Y-94570380D01*
X114831052Y-94543512D01*
X114965498Y-94417875D01*
X115129490Y-94245333D01*
X115296209Y-94040597D01*
X115296209Y-93855963D01*
X115281344Y-93813227D01*
X115324778Y-93649750D01*
X115417150Y-93400019D01*
X115425584Y-93379277D01*
X115573827Y-92989258D01*
X115722543Y-92554781D01*
X115801840Y-92298000D01*
X116021201Y-91339774D01*
X116160966Y-90290108D01*
X116217819Y-89208500D01*
X116188447Y-88154445D01*
X116082446Y-87260333D01*
X115996622Y-86858515D01*
X115864255Y-86353323D01*
X115701659Y-85798619D01*
X115525152Y-85248264D01*
X115351049Y-84756117D01*
X115237119Y-84469866D01*
X115269647Y-84474348D01*
X115402437Y-84585807D01*
X115618894Y-84788668D01*
X115902425Y-85067356D01*
X116236437Y-85406296D01*
X116253329Y-85423684D01*
X117340308Y-86543302D01*
X117487817Y-86309151D01*
X117639177Y-86093413D01*
X117834391Y-85844616D01*
X117889897Y-85778666D01*
X118144469Y-85482333D01*
X118251158Y-85715166D01*
X118316751Y-85848583D01*
X118387657Y-85918929D01*
X118504052Y-85931076D01*
X118706114Y-85889891D01*
X119009458Y-85807069D01*
X119282951Y-85741630D01*
X119488018Y-85712208D01*
X119572103Y-85721881D01*
X119585534Y-85828612D01*
X119561759Y-86045572D01*
X119523804Y-86242535D01*
X119465596Y-86569724D01*
X119475364Y-86766424D01*
X119560076Y-86860103D01*
X119685334Y-86879333D01*
X119851303Y-86914220D01*
X119869431Y-87021374D01*
X119739400Y-87204534D01*
X119649680Y-87296192D01*
X119478702Y-87477868D01*
X119415705Y-87611548D01*
X119437730Y-87756605D01*
X119454032Y-87802141D01*
X119541449Y-88033734D01*
X120142558Y-87923030D01*
X120471202Y-87861151D01*
X120756456Y-87805066D01*
X120936899Y-87766853D01*
X120937624Y-87766682D01*
X121064017Y-87745234D01*
X121085966Y-87792274D01*
X121015215Y-87946017D01*
X121001124Y-87973315D01*
X120904663Y-88194469D01*
X120895487Y-88361325D01*
X120991762Y-88506629D01*
X121211655Y-88663129D01*
X121461896Y-88803921D01*
X121738812Y-88959964D01*
X121946673Y-89089647D01*
X122049483Y-89170124D01*
X122054563Y-89180104D01*
X121985255Y-89242877D01*
X121800895Y-89356120D01*
X121539087Y-89497025D01*
X121496189Y-89518771D01*
X121217333Y-89670661D01*
X121002885Y-89809197D01*
X120895055Y-89906800D01*
X120891511Y-89913862D01*
X120896089Y-90059769D01*
X120965005Y-90273451D01*
X120984286Y-90316029D01*
X121067676Y-90503983D01*
X121071072Y-90585261D01*
X120990729Y-90604380D01*
X120960011Y-90604666D01*
X120787646Y-90559556D01*
X120612427Y-90408369D01*
X120408583Y-90127320D01*
X120361302Y-90052125D01*
X120238219Y-89875431D01*
X120150425Y-89789841D01*
X120133181Y-89789930D01*
X120154564Y-89875638D01*
X120252431Y-90054272D01*
X120360416Y-90220395D01*
X120665774Y-90724466D01*
X120907060Y-91242640D01*
X121060202Y-91720030D01*
X121091361Y-91887087D01*
X121109868Y-92151516D01*
X121060794Y-92335691D01*
X120938553Y-92504927D01*
X120755874Y-92666917D01*
X120522401Y-92753390D01*
X120305186Y-92784255D01*
X120015463Y-92792578D01*
X119844375Y-92755072D01*
X119818937Y-92732018D01*
X119820767Y-92672357D01*
X119882719Y-92685235D01*
X120035021Y-92684742D01*
X120055079Y-92679323D01*
X120055079Y-92499159D01*
X119840292Y-92493856D01*
X119735954Y-92430193D01*
X119683815Y-92264458D01*
X119674180Y-92213333D01*
X119630423Y-91882659D01*
X119652719Y-91680834D01*
X119749302Y-91577547D01*
X119854667Y-91549054D01*
X120059227Y-91494329D01*
X120162193Y-91439380D01*
X120162193Y-91256696D01*
X120083253Y-91225436D01*
X119912155Y-91103633D01*
X119681557Y-90915178D01*
X119608029Y-90851304D01*
X119374171Y-90640406D01*
X119202981Y-90476302D01*
X119123076Y-90386767D01*
X119121107Y-90378671D01*
X119209242Y-90383595D01*
X119397398Y-90425474D01*
X119446717Y-90438696D01*
X119732579Y-90585478D01*
X119977465Y-90867504D01*
X120101360Y-91075067D01*
X120163260Y-91220479D01*
X120162193Y-91256696D01*
X120162193Y-91439380D01*
X120168107Y-91436223D01*
X120257164Y-91427379D01*
X120353430Y-91561353D01*
X120400940Y-91666342D01*
X120515210Y-92028585D01*
X120504572Y-92281683D01*
X120365187Y-92434880D01*
X120093217Y-92497419D01*
X120055079Y-92499159D01*
X120055079Y-92679323D01*
X120257949Y-92624505D01*
X120310450Y-92603919D01*
X120508352Y-92504196D01*
X120595537Y-92383215D01*
X120616487Y-92172214D01*
X120616667Y-92130572D01*
X120563910Y-91814697D01*
X120417514Y-91413011D01*
X120195290Y-90967186D01*
X119948809Y-90567990D01*
X119799693Y-90400427D01*
X119605673Y-90316487D01*
X119394067Y-90287290D01*
X119147561Y-90283270D01*
X119031222Y-90331059D01*
X119046917Y-90442237D01*
X119196512Y-90628385D01*
X119481872Y-90901085D01*
X119494834Y-90912783D01*
X119739367Y-91136098D01*
X119862790Y-91275222D01*
X119867949Y-91361326D01*
X119757690Y-91425580D01*
X119548011Y-91494970D01*
X119458257Y-91566331D01*
X119453618Y-91726368D01*
X119469897Y-91812470D01*
X119525285Y-92097271D01*
X119574799Y-92394625D01*
X119620493Y-92702916D01*
X119000079Y-92532794D01*
X118677093Y-92455402D01*
X118451136Y-92424098D01*
X118353083Y-92443050D01*
X118352113Y-92445329D01*
X118282842Y-92576984D01*
X118216235Y-92676130D01*
X118161416Y-92726096D01*
X118090617Y-92718575D01*
X117984141Y-92636503D01*
X117822289Y-92462818D01*
X117585363Y-92180458D01*
X117443965Y-92007193D01*
X117188054Y-91702472D01*
X116968665Y-91460372D01*
X116807661Y-91303666D01*
X116726903Y-91255124D01*
X116723974Y-91257223D01*
X116668726Y-91363943D01*
X116573356Y-91585511D01*
X116456599Y-91878000D01*
X116432894Y-91939665D01*
X116300826Y-92242056D01*
X116120914Y-92596496D01*
X115914929Y-92966282D01*
X115704641Y-93314711D01*
X115511820Y-93605083D01*
X115358237Y-93800694D01*
X115296209Y-93855963D01*
X115296209Y-94040597D01*
X115528284Y-93755600D01*
X115920084Y-93181027D01*
X116263899Y-92586669D01*
X116515640Y-92045499D01*
X116633216Y-91761909D01*
X116731883Y-91552985D01*
X116793182Y-91457217D01*
X116798876Y-91454969D01*
X116867494Y-91519173D01*
X117017443Y-91691366D01*
X117226697Y-91945404D01*
X117473232Y-92255143D01*
X117476492Y-92259303D01*
X117777406Y-92635927D01*
X117992645Y-92885453D01*
X118134477Y-93018919D01*
X118215169Y-93047364D01*
X118246987Y-92981825D01*
X118248693Y-92954166D01*
X118298694Y-92805214D01*
X118365798Y-92697517D01*
X118469523Y-92604157D01*
X118616554Y-92589824D01*
X118807605Y-92628409D01*
X119068547Y-92693649D01*
X119409940Y-92779151D01*
X119685333Y-92848208D01*
X120215432Y-92927034D01*
X120639095Y-92877536D01*
X120949698Y-92708179D01*
X121140614Y-92427431D01*
X121205217Y-92043757D01*
X121136882Y-91565625D01*
X121001263Y-91166704D01*
X120797212Y-90670409D01*
X121045606Y-90720088D01*
X121208293Y-90746861D01*
X121275264Y-90721547D01*
X121252280Y-90613177D01*
X121145101Y-90390780D01*
X121117087Y-90335808D01*
X121033722Y-90173284D01*
X120995680Y-90058149D01*
X121022902Y-89964669D01*
X121135333Y-89867109D01*
X121352914Y-89739736D01*
X121695590Y-89556814D01*
X121738500Y-89533946D01*
X122010428Y-89381728D01*
X122212174Y-89255208D01*
X122307070Y-89177724D01*
X122310000Y-89170203D01*
X122240311Y-89106464D01*
G36*
X117190297Y-89097410D02*
X117097660Y-88998578D01*
X116972140Y-88891060D01*
X116889284Y-88910384D01*
X116801537Y-89022732D01*
X116716654Y-89170343D01*
X116746456Y-89275543D01*
X116815816Y-89348945D01*
X116934107Y-89440592D01*
X117029003Y-89409720D01*
X117111938Y-89324790D01*
X117210973Y-89194864D01*
X117190297Y-89097410D01*
X117190297Y-89097410D01*
G37*
X117190297Y-89097410D02*
X117097660Y-88998578D01*
X116972140Y-88891060D01*
X116889284Y-88910384D01*
X116801537Y-89022732D01*
X116716654Y-89170343D01*
X116746456Y-89275543D01*
X116815816Y-89348945D01*
X116934107Y-89440592D01*
X117029003Y-89409720D01*
X117111938Y-89324790D01*
X117210973Y-89194864D01*
X117190297Y-89097410D01*
G36*
X116826904Y-86881793D02*
X116806667Y-86879333D01*
X116724460Y-86943762D01*
X116722000Y-86964000D01*
X116786429Y-87046206D01*
X116806667Y-87048666D01*
X116888873Y-86984237D01*
X116891333Y-86964000D01*
X116826904Y-86881793D01*
X116826904Y-86881793D01*
G37*
X116826904Y-86881793D02*
X116806667Y-86879333D01*
X116724460Y-86943762D01*
X116722000Y-86964000D01*
X116786429Y-87046206D01*
X116806667Y-87048666D01*
X116888873Y-86984237D01*
X116891333Y-86964000D01*
X116826904Y-86881793D01*
G36*
X119974988Y-89551584D02*
X119845697Y-89359614D01*
X119662751Y-89114713D01*
X119637805Y-89082801D01*
X119410635Y-88812869D01*
X119245878Y-88668293D01*
X119119036Y-88629099D01*
X119087472Y-88634160D01*
X118950635Y-88642352D01*
X118948661Y-88558257D01*
X119082383Y-88378898D01*
X119191889Y-88261316D01*
X119354305Y-88077502D01*
X119409954Y-87946116D01*
X119379453Y-87808025D01*
X119363037Y-87770452D01*
X119211407Y-87597009D01*
X119001767Y-87566259D01*
X118767442Y-87678301D01*
X118669333Y-87768333D01*
X118482707Y-87935531D01*
X118371294Y-87966195D01*
X118344791Y-87859667D01*
X118357453Y-87789500D01*
X118351311Y-87652986D01*
X118261026Y-87477308D01*
X118069004Y-87232665D01*
X117947511Y-87095232D01*
X117492426Y-86591463D01*
X117311037Y-86755618D01*
X117135557Y-86932143D01*
X117062600Y-87080005D01*
X117098045Y-87236909D01*
X117247770Y-87440558D01*
X117452176Y-87660799D01*
X117696583Y-87895234D01*
X117896246Y-88049073D01*
X118020734Y-88099293D01*
X118029131Y-88097280D01*
X118159412Y-88092668D01*
X118190171Y-88183804D01*
X118113393Y-88323960D01*
X118074670Y-88362807D01*
X117938273Y-88567996D01*
X117919427Y-88788954D01*
X118005735Y-88974875D01*
X118184803Y-89074949D01*
X118249811Y-89080666D01*
X118408955Y-89021782D01*
X118540527Y-88913330D01*
X118688080Y-88805237D01*
X118794171Y-88813466D01*
X118814577Y-88927787D01*
X118800460Y-88973444D01*
X118826870Y-89091176D01*
X118932581Y-89294283D01*
X119087885Y-89538558D01*
X119263074Y-89779796D01*
X119428441Y-89973792D01*
X119534579Y-90065816D01*
X119638773Y-90045342D01*
X119792373Y-89941207D01*
X119938499Y-89801572D01*
X120020271Y-89674597D01*
X120024000Y-89651424D01*
X119974988Y-89551584D01*
X119974988Y-89551584D01*
G37*
X119974988Y-89551584D02*
X119845697Y-89359614D01*
X119662751Y-89114713D01*
X119637805Y-89082801D01*
X119410635Y-88812869D01*
X119245878Y-88668293D01*
X119119036Y-88629099D01*
X119087472Y-88634160D01*
X118950635Y-88642352D01*
X118948661Y-88558257D01*
X119082383Y-88378898D01*
X119191889Y-88261316D01*
X119354305Y-88077502D01*
X119409954Y-87946116D01*
X119379453Y-87808025D01*
X119363037Y-87770452D01*
X119211407Y-87597009D01*
X119001767Y-87566259D01*
X118767442Y-87678301D01*
X118669333Y-87768333D01*
X118482707Y-87935531D01*
X118371294Y-87966195D01*
X118344791Y-87859667D01*
X118357453Y-87789500D01*
X118351311Y-87652986D01*
X118261026Y-87477308D01*
X118069004Y-87232665D01*
X117947511Y-87095232D01*
X117492426Y-86591463D01*
X117311037Y-86755618D01*
X117135557Y-86932143D01*
X117062600Y-87080005D01*
X117098045Y-87236909D01*
X117247770Y-87440558D01*
X117452176Y-87660799D01*
X117696583Y-87895234D01*
X117896246Y-88049073D01*
X118020734Y-88099293D01*
X118029131Y-88097280D01*
X118159412Y-88092668D01*
X118190171Y-88183804D01*
X118113393Y-88323960D01*
X118074670Y-88362807D01*
X117938273Y-88567996D01*
X117919427Y-88788954D01*
X118005735Y-88974875D01*
X118184803Y-89074949D01*
X118249811Y-89080666D01*
X118408955Y-89021782D01*
X118540527Y-88913330D01*
X118688080Y-88805237D01*
X118794171Y-88813466D01*
X118814577Y-88927787D01*
X118800460Y-88973444D01*
X118826870Y-89091176D01*
X118932581Y-89294283D01*
X119087885Y-89538558D01*
X119263074Y-89779796D01*
X119428441Y-89973792D01*
X119534579Y-90065816D01*
X119638773Y-90045342D01*
X119792373Y-89941207D01*
X119938499Y-89801572D01*
X120020271Y-89674597D01*
X120024000Y-89651424D01*
X119974988Y-89551584D01*
G36*
X117529994Y-88707743D02*
X117415785Y-88731832D01*
X117353359Y-88808248D01*
X117430122Y-88901751D01*
X117551640Y-88959188D01*
X117613019Y-88908067D01*
X117624986Y-88778935D01*
X117529994Y-88707743D01*
X117529994Y-88707743D01*
G37*
X117529994Y-88707743D02*
X117415785Y-88731832D01*
X117353359Y-88808248D01*
X117430122Y-88901751D01*
X117551640Y-88959188D01*
X117613019Y-88908067D01*
X117624986Y-88778935D01*
X117529994Y-88707743D01*
G36*
X117890906Y-89301140D02*
X117849432Y-89260678D01*
X117728732Y-89186786D01*
X117618753Y-89250404D01*
X117608520Y-89260678D01*
X117537393Y-89381013D01*
X117599313Y-89518339D01*
X117603766Y-89524378D01*
X117696740Y-89624880D01*
X117779525Y-89593593D01*
X117844678Y-89524378D01*
X117930922Y-89398284D01*
X117890906Y-89301140D01*
X117890906Y-89301140D01*
G37*
X117890906Y-89301140D02*
X117849432Y-89260678D01*
X117728732Y-89186786D01*
X117618753Y-89250404D01*
X117608520Y-89260678D01*
X117537393Y-89381013D01*
X117599313Y-89518339D01*
X117603766Y-89524378D01*
X117696740Y-89624880D01*
X117779525Y-89593593D01*
X117844678Y-89524378D01*
X117930922Y-89398284D01*
X117890906Y-89301140D01*
M02*
