G04 #@! TF.FileFunction,Soldermask,Bot*
%FSLAX46Y46*%
G04 Gerber Fmt 4.6, Leading zero omitted, Abs format (unit mm)*
G04 Created by KiCad (PCBNEW 4.0.7-e2-6376~58~ubuntu16.04.1) date Mon Apr 30 12:37:49 2018*
%MOMM*%
%LPD*%
G01*
G04 APERTURE LIST*
%ADD10C,0.100000*%
%ADD11C,1.500000*%
%ADD12C,1.250000*%
%ADD13R,1.700000X1.700000*%
%ADD14C,1.700000*%
%ADD15O,1.700000X1.700000*%
%ADD16C,1.720000*%
%ADD17C,6.350000*%
%ADD18C,2.400000*%
%ADD19C,2.300000*%
%ADD20C,1.350000*%
%ADD21C,0.025400*%
G04 APERTURE END LIST*
D10*
D11*
X189750000Y-145750000D03*
X195250000Y-145750000D03*
X187750000Y-145750000D03*
X182250000Y-145750000D03*
X157580000Y-61820000D03*
X148920000Y-107420000D03*
X174750000Y-145750000D03*
X180250000Y-145750000D03*
X177250000Y-145750000D03*
D12*
X176500000Y-134000000D03*
X179000000Y-131500000D03*
X176500000Y-129000000D03*
D11*
X146960000Y-98620000D03*
X164970000Y-143450000D03*
X133340000Y-97070000D03*
X131280000Y-97070000D03*
X135400000Y-97070000D03*
X146960000Y-96220000D03*
X151350000Y-141900000D03*
X149290000Y-141900000D03*
X153410000Y-141900000D03*
X164970000Y-141050000D03*
D13*
X206500000Y-112500000D03*
D14*
X203960000Y-112500000D03*
X206500000Y-109960000D03*
X203960000Y-109960000D03*
X206500000Y-107420000D03*
X203960000Y-107420000D03*
D15*
X206500000Y-104880000D03*
D14*
X203960000Y-104880000D03*
X206500000Y-102340000D03*
X203960000Y-102340000D03*
D13*
X206500000Y-133750000D03*
D14*
X203960000Y-133750000D03*
X206500000Y-131210000D03*
X203960000Y-131210000D03*
X206500000Y-128670000D03*
X203960000Y-128670000D03*
D15*
X206500000Y-126130000D03*
D14*
X203960000Y-126130000D03*
X206500000Y-123590000D03*
X203960000Y-123590000D03*
D16*
X195690000Y-63410000D03*
X195690000Y-65950000D03*
X195690000Y-68490000D03*
X195690000Y-71030000D03*
X195690000Y-73570000D03*
X195690000Y-76110000D03*
X195690000Y-78650000D03*
X195690000Y-81190000D03*
X195690000Y-83730000D03*
X195690000Y-86270000D03*
X195690000Y-88810000D03*
X195690000Y-91350000D03*
X195690000Y-93890000D03*
X195690000Y-96430000D03*
X195690000Y-98970000D03*
X195690000Y-101510000D03*
X195690000Y-104050000D03*
X195690000Y-106590000D03*
X195690000Y-109130000D03*
X195690000Y-111670000D03*
X195690000Y-114210000D03*
X195690000Y-116750000D03*
X195690000Y-119290000D03*
X195690000Y-121830000D03*
X195690000Y-124370000D03*
X195690000Y-126910000D03*
X195690000Y-129450000D03*
X195690000Y-131990000D03*
X195690000Y-134530000D03*
X195690000Y-137070000D03*
X195690000Y-139610000D03*
X195690000Y-142150000D03*
X198230000Y-63410000D03*
X198230000Y-65950000D03*
X198230000Y-68490000D03*
X198230000Y-71030000D03*
X198230000Y-73570000D03*
X198230000Y-76110000D03*
X198230000Y-78650000D03*
X198230000Y-81190000D03*
X198230000Y-83730000D03*
X198230000Y-86270000D03*
X198230000Y-88810000D03*
X198230000Y-91350000D03*
X198230000Y-93890000D03*
X198230000Y-96430000D03*
X198230000Y-98970000D03*
X198230000Y-101510000D03*
X198230000Y-104050000D03*
X198230000Y-106590000D03*
X198230000Y-109130000D03*
X198230000Y-111670000D03*
X198230000Y-114210000D03*
X198230000Y-116750000D03*
X198230000Y-119290000D03*
X198230000Y-121830000D03*
X198230000Y-124370000D03*
X198230000Y-126910000D03*
X198230000Y-129450000D03*
X198230000Y-131990000D03*
X198230000Y-134530000D03*
X198230000Y-137070000D03*
X198230000Y-139610000D03*
X198230000Y-142150000D03*
D17*
X117580000Y-65950000D03*
X203310000Y-63410000D03*
X203310000Y-143420000D03*
X117580000Y-139610000D03*
D18*
X124460000Y-124040000D03*
X124460000Y-118960000D03*
X119380000Y-118960000D03*
D19*
X121920000Y-121500000D03*
D18*
X119380000Y-124040000D03*
D12*
X129000000Y-110480000D03*
X131500000Y-107980000D03*
X129000000Y-105480000D03*
D13*
X191310000Y-61000000D03*
D15*
X191310000Y-63540000D03*
D13*
X191750000Y-71050000D03*
D15*
X191750000Y-73590000D03*
D20*
X151120000Y-62810000D03*
D21*
G36*
X154727300Y-128909089D02*
X153990000Y-128909089D01*
X153985059Y-128910090D01*
X153980897Y-128912934D01*
X153978169Y-128917173D01*
X153977300Y-128921789D01*
X153977300Y-129279089D01*
X153960000Y-129279089D01*
X153955059Y-129280090D01*
X153950897Y-129282934D01*
X153948169Y-129287173D01*
X153947300Y-129291789D01*
X153947300Y-132229089D01*
X151132700Y-132229089D01*
X151132700Y-129291789D01*
X151131699Y-129286848D01*
X151128855Y-129282686D01*
X151124616Y-129279958D01*
X151120000Y-129279089D01*
X151102700Y-129279089D01*
X151102700Y-128921789D01*
X151101699Y-128916848D01*
X151098855Y-128912686D01*
X151094616Y-128909958D01*
X151090000Y-128909089D01*
X150352700Y-128909089D01*
X150352700Y-126834489D01*
X154727300Y-126834489D01*
X154727300Y-128909089D01*
X154727300Y-128909089D01*
G37*
X154727300Y-128909089D02*
X153990000Y-128909089D01*
X153985059Y-128910090D01*
X153980897Y-128912934D01*
X153978169Y-128917173D01*
X153977300Y-128921789D01*
X153977300Y-129279089D01*
X153960000Y-129279089D01*
X153955059Y-129280090D01*
X153950897Y-129282934D01*
X153948169Y-129287173D01*
X153947300Y-129291789D01*
X153947300Y-132229089D01*
X151132700Y-132229089D01*
X151132700Y-129291789D01*
X151131699Y-129286848D01*
X151128855Y-129282686D01*
X151124616Y-129279958D01*
X151120000Y-129279089D01*
X151102700Y-129279089D01*
X151102700Y-128921789D01*
X151101699Y-128916848D01*
X151098855Y-128912686D01*
X151094616Y-128909958D01*
X151090000Y-128909089D01*
X150352700Y-128909089D01*
X150352700Y-126834489D01*
X154727300Y-126834489D01*
X154727300Y-128909089D01*
G36*
X136717300Y-84079089D02*
X135980000Y-84079089D01*
X135975059Y-84080090D01*
X135970897Y-84082934D01*
X135968169Y-84087173D01*
X135967300Y-84091789D01*
X135967300Y-84449089D01*
X135950000Y-84449089D01*
X135945059Y-84450090D01*
X135940897Y-84452934D01*
X135938169Y-84457173D01*
X135937300Y-84461789D01*
X135937300Y-87399089D01*
X133122700Y-87399089D01*
X133122700Y-84461789D01*
X133121699Y-84456848D01*
X133118855Y-84452686D01*
X133114616Y-84449958D01*
X133110000Y-84449089D01*
X133092700Y-84449089D01*
X133092700Y-84091789D01*
X133091699Y-84086848D01*
X133088855Y-84082686D01*
X133084616Y-84079958D01*
X133080000Y-84079089D01*
X132342700Y-84079089D01*
X132342700Y-82004489D01*
X136717300Y-82004489D01*
X136717300Y-84079089D01*
X136717300Y-84079089D01*
G37*
X136717300Y-84079089D02*
X135980000Y-84079089D01*
X135975059Y-84080090D01*
X135970897Y-84082934D01*
X135968169Y-84087173D01*
X135967300Y-84091789D01*
X135967300Y-84449089D01*
X135950000Y-84449089D01*
X135945059Y-84450090D01*
X135940897Y-84452934D01*
X135938169Y-84457173D01*
X135937300Y-84461789D01*
X135937300Y-87399089D01*
X133122700Y-87399089D01*
X133122700Y-84461789D01*
X133121699Y-84456848D01*
X133118855Y-84452686D01*
X133114616Y-84449958D01*
X133110000Y-84449089D01*
X133092700Y-84449089D01*
X133092700Y-84091789D01*
X133091699Y-84086848D01*
X133088855Y-84082686D01*
X133084616Y-84079958D01*
X133080000Y-84079089D01*
X132342700Y-84079089D01*
X132342700Y-82004489D01*
X136717300Y-82004489D01*
X136717300Y-84079089D01*
M02*
