G04 #@! TF.FileFunction,Soldermask,Bot*
%FSLAX46Y46*%
G04 Gerber Fmt 4.6, Leading zero omitted, Abs format (unit mm)*
G04 Created by KiCad (PCBNEW 4.0.6-e0-6349~53~ubuntu16.04.1) date Wed Jun 14 20:32:15 2017*
%MOMM*%
%LPD*%
G01*
G04 APERTURE LIST*
%ADD10C,0.100000*%
%ADD11R,1.727200X2.032000*%
%ADD12O,1.727200X2.032000*%
%ADD13C,1.720000*%
%ADD14C,6.350000*%
%ADD15C,2.400000*%
%ADD16C,2.300000*%
%ADD17R,1.700000X1.700000*%
%ADD18C,1.700000*%
%ADD19O,1.700000X1.700000*%
%ADD20C,0.600000*%
G04 APERTURE END LIST*
D10*
D11*
X165360000Y-63000000D03*
D12*
X167900000Y-63000000D03*
X170440000Y-63000000D03*
D13*
X198230000Y-142150000D03*
X198230000Y-139610000D03*
X198230000Y-137070000D03*
X198230000Y-134530000D03*
X198230000Y-131990000D03*
X198230000Y-129450000D03*
X198230000Y-126910000D03*
X198230000Y-124370000D03*
X198230000Y-121830000D03*
X198230000Y-119290000D03*
X198230000Y-116750000D03*
X198230000Y-114210000D03*
X198230000Y-111670000D03*
X198230000Y-109130000D03*
X198230000Y-106590000D03*
X198230000Y-104050000D03*
X198230000Y-101510000D03*
X198230000Y-98970000D03*
X198230000Y-96430000D03*
X198230000Y-93890000D03*
X198230000Y-91350000D03*
X198230000Y-88810000D03*
X198230000Y-86270000D03*
X198230000Y-83730000D03*
X198230000Y-81190000D03*
X198230000Y-78650000D03*
X198230000Y-76110000D03*
X198230000Y-73570000D03*
X198230000Y-71030000D03*
X198230000Y-68490000D03*
X198230000Y-65950000D03*
X198230000Y-63410000D03*
X195690000Y-142150000D03*
X195690000Y-139610000D03*
X195690000Y-137070000D03*
X195690000Y-134530000D03*
X195690000Y-131990000D03*
X195690000Y-129450000D03*
X195690000Y-126910000D03*
X195690000Y-124370000D03*
X195690000Y-121830000D03*
X195690000Y-119290000D03*
X195690000Y-116750000D03*
X195690000Y-114210000D03*
X195690000Y-111670000D03*
X195690000Y-109130000D03*
X195690000Y-106590000D03*
X195690000Y-104050000D03*
X195690000Y-101510000D03*
X195690000Y-98970000D03*
X195690000Y-96430000D03*
X195690000Y-93890000D03*
X195690000Y-91350000D03*
X195690000Y-88810000D03*
X195690000Y-86270000D03*
X195690000Y-83730000D03*
X195690000Y-81190000D03*
X195690000Y-78650000D03*
X195690000Y-76110000D03*
X195690000Y-73570000D03*
X195690000Y-71030000D03*
X195690000Y-68490000D03*
X195690000Y-65950000D03*
X195690000Y-63410000D03*
D14*
X117580000Y-65950000D03*
X203310000Y-63410000D03*
X203310000Y-143420000D03*
X117580000Y-139610000D03*
D15*
X133260000Y-72540000D03*
X138340000Y-72540000D03*
X138340000Y-67460000D03*
D16*
X135800000Y-70000000D03*
D15*
X133260000Y-67460000D03*
X123460000Y-121140000D03*
X128540000Y-121140000D03*
X128540000Y-116060000D03*
D16*
X126000000Y-118600000D03*
D15*
X123460000Y-116060000D03*
X147960000Y-105540000D03*
X153040000Y-105540000D03*
X153040000Y-100460000D03*
D16*
X150500000Y-103000000D03*
D15*
X147960000Y-100460000D03*
X123460000Y-105540000D03*
X128540000Y-105540000D03*
X128540000Y-100460000D03*
D16*
X126000000Y-103000000D03*
D15*
X123460000Y-100460000D03*
D11*
X150060000Y-63000000D03*
D12*
X152600000Y-63000000D03*
X155140000Y-63000000D03*
D11*
X157560000Y-144400000D03*
D12*
X160100000Y-144400000D03*
X162640000Y-144400000D03*
D17*
X135320000Y-145370000D03*
D18*
X135320000Y-142830000D03*
X137860000Y-145370000D03*
X137860000Y-142830000D03*
X140400000Y-145370000D03*
X140400000Y-142830000D03*
D19*
X142940000Y-145370000D03*
D18*
X142940000Y-142830000D03*
X145480000Y-145370000D03*
X145480000Y-142830000D03*
D20*
X135775000Y-96600000D03*
X142000000Y-84000000D03*
X143000000Y-84000000D03*
X144000000Y-84000000D03*
X145000000Y-84000000D03*
X146000000Y-84000000D03*
X147000000Y-84000000D03*
X148000000Y-84000000D03*
X134500000Y-96000000D03*
X133500000Y-96000000D03*
X132500000Y-96000000D03*
X131500000Y-96000000D03*
X130500000Y-96000000D03*
X129500000Y-96000000D03*
X128500000Y-96000000D03*
X127500000Y-96000000D03*
X126500000Y-96000000D03*
X125500000Y-96000000D03*
X124500000Y-96000000D03*
X123500000Y-96000000D03*
X122500000Y-96000000D03*
X121500000Y-97000000D03*
X120500000Y-98000000D03*
X120000000Y-99000000D03*
X120000000Y-100000000D03*
X120000000Y-101000000D03*
X120000000Y-102000000D03*
X120000000Y-103000000D03*
X120000000Y-104000000D03*
X120000000Y-105000000D03*
X120000000Y-106000000D03*
X120000000Y-107000000D03*
X120000000Y-108000000D03*
X120000000Y-109000000D03*
X120000000Y-110000000D03*
X120500000Y-111000000D03*
X121500000Y-111000000D03*
X133500000Y-111000000D03*
X132500000Y-111000000D03*
X131500000Y-111000000D03*
X130500000Y-111000000D03*
X129500000Y-111000000D03*
X122500000Y-111000000D03*
X123500000Y-111000000D03*
X124500000Y-111000000D03*
X125500000Y-111000000D03*
X126500000Y-111000000D03*
X127500000Y-111000000D03*
X128500000Y-111000000D03*
X136250000Y-109750000D03*
X142659620Y-81759620D03*
X141859620Y-82559620D03*
X141059620Y-83359620D03*
X155575000Y-123925000D03*
X155575000Y-122600000D03*
X155575000Y-121500000D03*
X155575000Y-120350000D03*
X155575000Y-119350000D03*
X155575000Y-118250000D03*
X155575000Y-117050000D03*
X155575000Y-115850000D03*
X155550000Y-114775000D03*
X155575000Y-113675000D03*
X155575000Y-112575000D03*
X155575000Y-111375000D03*
X155575000Y-110200000D03*
X155575000Y-109025000D03*
X155575000Y-107850000D03*
X155575000Y-106700000D03*
X155525000Y-105600000D03*
X155550000Y-104500000D03*
X155550000Y-103375000D03*
X155550000Y-102125000D03*
X155550000Y-101075000D03*
X155550000Y-99950000D03*
X155550000Y-98825000D03*
X190400000Y-140350000D03*
X171350000Y-144150000D03*
X133950000Y-135650000D03*
X134000000Y-133150000D03*
X136200000Y-133200000D03*
X136200000Y-135600000D03*
X136200000Y-139100000D03*
X136500000Y-131350000D03*
X161600000Y-128050000D03*
X161550000Y-114100000D03*
X162400000Y-95200000D03*
X160350000Y-91300000D03*
X155850000Y-90700000D03*
X151950000Y-87300000D03*
X153900000Y-83950000D03*
X156900000Y-87700000D03*
X161800000Y-87850000D03*
X165850000Y-91950000D03*
X140700000Y-137250000D03*
X141850000Y-135200000D03*
X174950000Y-130000000D03*
X175000000Y-133200000D03*
X170200000Y-130300000D03*
X170200000Y-133250000D03*
X161900000Y-139800000D03*
X167200000Y-139900000D03*
X164950000Y-144600000D03*
X158250000Y-139700000D03*
X153500000Y-135500000D03*
X148850000Y-82550000D03*
X151750000Y-79650000D03*
X151750000Y-73650000D03*
X151500000Y-67400000D03*
X151500000Y-70100000D03*
X177950000Y-147000000D03*
X166700000Y-147000000D03*
X159950000Y-146950000D03*
X149600000Y-146950000D03*
X153550000Y-133300000D03*
X149700000Y-135200000D03*
X149700000Y-133300000D03*
X144400000Y-87350000D03*
X145450000Y-87350000D03*
X146350000Y-87350000D03*
X147450000Y-87850000D03*
X148250000Y-88650000D03*
X149000000Y-89400000D03*
X149750000Y-90150000D03*
X150400000Y-90800000D03*
X149850000Y-92000000D03*
X148600000Y-92000000D03*
X147400000Y-92000000D03*
X143800000Y-59100000D03*
X144550000Y-59800000D03*
X144550000Y-60700000D03*
X144550000Y-61800000D03*
X144550000Y-63100000D03*
X144550000Y-64100000D03*
X144550000Y-65000000D03*
X144550000Y-66000000D03*
X144550000Y-67050000D03*
X144550000Y-68150000D03*
X144550000Y-69050000D03*
X144550000Y-70100000D03*
X144550000Y-71150000D03*
X144550000Y-72150000D03*
X144550000Y-73100000D03*
X144550000Y-74150000D03*
X144550000Y-75350000D03*
X144550000Y-76450000D03*
X143550000Y-77450000D03*
X142750000Y-78250000D03*
X141900000Y-79100000D03*
X141200000Y-79800000D03*
X140200000Y-80800000D03*
X139300000Y-81700000D03*
X113800000Y-93550000D03*
X115150000Y-93550000D03*
X116300000Y-93550000D03*
X117350000Y-93550000D03*
X118400000Y-93550000D03*
X119550000Y-93550000D03*
X120650000Y-93550000D03*
X121800000Y-93550000D03*
X123000000Y-93550000D03*
X124200000Y-93550000D03*
X125300000Y-93550000D03*
X126400000Y-93550000D03*
X127600000Y-93500000D03*
X128850000Y-93550000D03*
X129950000Y-93550000D03*
X131000000Y-93550000D03*
X132050000Y-93550000D03*
X133200000Y-93550000D03*
X138400000Y-113650000D03*
X137100000Y-113650000D03*
X136050000Y-113650000D03*
X134850000Y-113650000D03*
X133500000Y-113650000D03*
X132050000Y-113650000D03*
X130950000Y-113650000D03*
X129700000Y-113650000D03*
X128600000Y-113650000D03*
X127450000Y-113650000D03*
X126400000Y-113650000D03*
X125100000Y-113650000D03*
X123950000Y-113650000D03*
X122750000Y-113650000D03*
X121750000Y-113950000D03*
X120950000Y-114750000D03*
X120250000Y-115800000D03*
X120250000Y-116950000D03*
X120250000Y-118000000D03*
X120250000Y-119050000D03*
X120250000Y-120200000D03*
X120250000Y-121450000D03*
X120250000Y-122500000D03*
X120250000Y-123500000D03*
X120800000Y-124500000D03*
X122000000Y-124500000D03*
X123100000Y-124500000D03*
X124250000Y-124500000D03*
X125250000Y-124500000D03*
X127050000Y-124500000D03*
X128750000Y-124500000D03*
X130350000Y-124500000D03*
X131700000Y-124500000D03*
X133150000Y-124500000D03*
X134450000Y-124500000D03*
X135650000Y-124500000D03*
X137000000Y-124500000D03*
X154450000Y-123050000D03*
X153500000Y-122400000D03*
X152200000Y-122400000D03*
X151000000Y-122400000D03*
X149800000Y-122400000D03*
X148600000Y-122400000D03*
X147300000Y-122400000D03*
X146150000Y-122400000D03*
X145000000Y-122400000D03*
X143650000Y-122400000D03*
X142550000Y-93050000D03*
X142550000Y-94050000D03*
X142600000Y-94900000D03*
X143250000Y-95600000D03*
X144600000Y-95650000D03*
X146300000Y-95600000D03*
X147800000Y-95600000D03*
X149500000Y-95600000D03*
X150950000Y-95550000D03*
X152400000Y-95550000D03*
X155550000Y-97550000D03*
X154650000Y-96300000D03*
X165950000Y-95200000D03*
X153950000Y-95550000D03*
X151000000Y-91500000D03*
X137200000Y-81200000D03*
X137800000Y-86300000D03*
X142750000Y-89000000D03*
X142750000Y-87450000D03*
X134600000Y-88400000D03*
X135050000Y-93600000D03*
X141400000Y-94300000D03*
X139150000Y-94600000D03*
X139100000Y-103000000D03*
X139100000Y-107300000D03*
X142250000Y-111000000D03*
X142250000Y-109250000D03*
X136250000Y-111000000D03*
X142250000Y-132250000D03*
X142900000Y-126375000D03*
X139400000Y-127750000D03*
X139400000Y-129750000D03*
X141400000Y-129750000D03*
X140400000Y-129750000D03*
X139400000Y-128750000D03*
X140400000Y-128750000D03*
X141400000Y-128750000D03*
X141400000Y-127750000D03*
X140400000Y-127750000D03*
X138600000Y-110850000D03*
X139800000Y-110850000D03*
X139800000Y-109650000D03*
X138550000Y-109650000D03*
X137700000Y-91500000D03*
X138900000Y-91500000D03*
X140050000Y-91500000D03*
X140050000Y-90350000D03*
X138900000Y-90350000D03*
X137700000Y-90350000D03*
X140050000Y-89350000D03*
X138900000Y-89350000D03*
X137700000Y-89350000D03*
X173600000Y-103100000D03*
X173600000Y-96600000D03*
X177600000Y-95300000D03*
X166700000Y-112000000D03*
X166700000Y-105900000D03*
X170400000Y-115200000D03*
X177400000Y-115300000D03*
X180100000Y-111800000D03*
X180100000Y-106100000D03*
X175600000Y-87500000D03*
X174200000Y-87500000D03*
X172300000Y-87500000D03*
X170700000Y-87500000D03*
X164900000Y-66100000D03*
X154800000Y-66100000D03*
X157800000Y-76500000D03*
X138500000Y-82500000D03*
X134600000Y-85400000D03*
X133700000Y-81000000D03*
X136900000Y-96600000D03*
X145900000Y-89700000D03*
X145800000Y-90800000D03*
X146400000Y-92000000D03*
X167700000Y-96400000D03*
X166100000Y-134500000D03*
X164200000Y-136900000D03*
X161600000Y-135600000D03*
X183700000Y-136300000D03*
X182400000Y-138200000D03*
X174300000Y-140400000D03*
X177600000Y-140400000D03*
X165100000Y-131600000D03*
X144800000Y-124300000D03*
X151900000Y-125400000D03*
X149700000Y-130100000D03*
X134100000Y-129200000D03*
X138300000Y-124500000D03*
X140400000Y-123500000D03*
X141500000Y-122200000D03*
X142500000Y-122700000D03*
X142500000Y-123500000D03*
X138300000Y-123500000D03*
X146200000Y-126400000D03*
X144000000Y-130600000D03*
X140400000Y-132600000D03*
X136300000Y-127700000D03*
X147000000Y-131500000D03*
X146250000Y-128500000D03*
X152600000Y-82300000D03*
X152600000Y-84700000D03*
X172100000Y-130100000D03*
X172100000Y-133300000D03*
X151300000Y-93500000D03*
X149400000Y-93500000D03*
X159400000Y-93500000D03*
X161000000Y-93500000D03*
X151200000Y-136600000D03*
X140300000Y-139250000D03*
X156750000Y-125500000D03*
X133000000Y-132200000D03*
X184900000Y-140100000D03*
X139500000Y-132650000D03*
X145100000Y-133300000D03*
X141000000Y-138700000D03*
X182000000Y-141100000D03*
X142250000Y-139000000D03*
X146400000Y-141000000D03*
X145542648Y-129840418D03*
X137899997Y-132600000D03*
X147600000Y-142500000D03*
X137099994Y-132600000D03*
X138700000Y-132600000D03*
M02*
