G04 #@! TF.FileFunction,Other,Fab,Top*
%FSLAX46Y46*%
G04 Gerber Fmt 4.6, Leading zero omitted, Abs format (unit mm)*
G04 Created by KiCad (PCBNEW 4.0.6-e0-6349~53~ubuntu16.04.1) date Sun Jun 11 15:52:44 2017*
%MOMM*%
%LPD*%
G01*
G04 APERTURE LIST*
%ADD10C,0.100000*%
%ADD11C,0.010000*%
%ADD12C,0.200000*%
%ADD13C,0.150000*%
%ADD14C,0.015000*%
G04 APERTURE END LIST*
D10*
X135600000Y-112100000D02*
X135100000Y-112100000D01*
X135600000Y-111100000D02*
X135600000Y-112100000D01*
X135100000Y-111100000D02*
X135600000Y-111100000D01*
X135100000Y-112100000D02*
X135100000Y-111100000D01*
D11*
X139500000Y-127750000D02*
G75*
G03X139500000Y-127750000I-100000J0D01*
G01*
X140500000Y-127750000D02*
G75*
G03X140500000Y-127750000I-100000J0D01*
G01*
X141500000Y-127750000D02*
G75*
G03X141500000Y-127750000I-100000J0D01*
G01*
X141500000Y-129750000D02*
G75*
G03X141500000Y-129750000I-100000J0D01*
G01*
X140500000Y-129750000D02*
G75*
G03X140500000Y-129750000I-100000J0D01*
G01*
X139500000Y-129750000D02*
G75*
G03X139500000Y-129750000I-100000J0D01*
G01*
X139500000Y-128750000D02*
G75*
G03X139500000Y-128750000I-100000J0D01*
G01*
X140500000Y-128750000D02*
G75*
G03X140500000Y-128750000I-100000J0D01*
G01*
X141500000Y-128750000D02*
G75*
G03X141500000Y-128750000I-100000J0D01*
G01*
D12*
X142900000Y-131250000D02*
X137900000Y-131250000D01*
X137900000Y-131250000D02*
X137900000Y-126250000D01*
X137900000Y-126250000D02*
X142900000Y-126250000D01*
X142900000Y-126250000D02*
X142900000Y-131250000D01*
D10*
X139750000Y-119050000D02*
X139250000Y-119050000D01*
X139750000Y-118050000D02*
X139750000Y-119050000D01*
X139250000Y-118050000D02*
X139750000Y-118050000D01*
X139250000Y-119050000D02*
X139250000Y-118050000D01*
X148800000Y-129850000D02*
X148800000Y-130350000D01*
X147800000Y-129850000D02*
X148800000Y-129850000D01*
X147800000Y-130350000D02*
X147800000Y-129850000D01*
X148800000Y-130350000D02*
X147800000Y-130350000D01*
X151000000Y-125150000D02*
X151000000Y-125650000D01*
X150000000Y-125150000D02*
X151000000Y-125150000D01*
X150000000Y-125650000D02*
X150000000Y-125150000D01*
X151000000Y-125650000D02*
X150000000Y-125650000D01*
X135700000Y-125850000D02*
X135700000Y-125350000D01*
X136700000Y-125850000D02*
X135700000Y-125850000D01*
X136700000Y-125350000D02*
X136700000Y-125850000D01*
X135700000Y-125350000D02*
X136700000Y-125350000D01*
X135200000Y-129500000D02*
X135200000Y-129000000D01*
X136200000Y-129500000D02*
X135200000Y-129500000D01*
X136200000Y-129000000D02*
X136200000Y-129500000D01*
X135200000Y-129000000D02*
X136200000Y-129000000D01*
X142250000Y-132750000D02*
X142250000Y-133250000D01*
X141250000Y-132750000D02*
X142250000Y-132750000D01*
X141250000Y-133250000D02*
X141250000Y-132750000D01*
X142250000Y-133250000D02*
X141250000Y-133250000D01*
X144300000Y-132050000D02*
X144300000Y-132550000D01*
X143300000Y-132050000D02*
X144300000Y-132050000D01*
X143300000Y-132550000D02*
X143300000Y-132050000D01*
X144300000Y-132550000D02*
X143300000Y-132550000D01*
X144750000Y-125000000D02*
X144750000Y-125500000D01*
X143750000Y-125000000D02*
X144750000Y-125000000D01*
X143750000Y-125500000D02*
X143750000Y-125000000D01*
X144750000Y-125500000D02*
X143750000Y-125500000D01*
X146200000Y-127150000D02*
X146200000Y-127650000D01*
X145200000Y-127150000D02*
X146200000Y-127150000D01*
X145200000Y-127650000D02*
X145200000Y-127150000D01*
X146200000Y-127650000D02*
X145200000Y-127650000D01*
X137900000Y-102500000D02*
X138400000Y-102500000D01*
X137900000Y-103500000D02*
X137900000Y-102500000D01*
X138400000Y-103500000D02*
X137900000Y-103500000D01*
X138400000Y-102500000D02*
X138400000Y-103500000D01*
X139900000Y-102500000D02*
X140400000Y-102500000D01*
X139900000Y-103500000D02*
X139900000Y-102500000D01*
X140400000Y-103500000D02*
X139900000Y-103500000D01*
X140400000Y-102500000D02*
X140400000Y-103500000D01*
X138750000Y-84600000D02*
X138250000Y-84600000D01*
X138750000Y-83600000D02*
X138750000Y-84600000D01*
X138250000Y-83600000D02*
X138750000Y-83600000D01*
X138250000Y-84600000D02*
X138250000Y-83600000D01*
X136650000Y-94600000D02*
X137150000Y-94600000D01*
X136650000Y-95600000D02*
X136650000Y-94600000D01*
X137150000Y-95600000D02*
X136650000Y-95600000D01*
X137150000Y-94600000D02*
X137150000Y-95600000D01*
X143750000Y-90000000D02*
X143750000Y-89500000D01*
X144750000Y-90000000D02*
X143750000Y-90000000D01*
X144750000Y-89500000D02*
X144750000Y-90000000D01*
X143750000Y-89500000D02*
X144750000Y-89500000D01*
X143750000Y-91000000D02*
X143750000Y-90500000D01*
X144750000Y-91000000D02*
X143750000Y-91000000D01*
X144750000Y-90500000D02*
X144750000Y-91000000D01*
X143750000Y-90500000D02*
X144750000Y-90500000D01*
X136850000Y-85100000D02*
X136850000Y-85600000D01*
X135850000Y-85100000D02*
X136850000Y-85100000D01*
X135850000Y-85600000D02*
X135850000Y-85100000D01*
X136850000Y-85600000D02*
X135850000Y-85600000D01*
X135850000Y-84100000D02*
X135850000Y-83600000D01*
X136850000Y-84100000D02*
X135850000Y-84100000D01*
X136850000Y-83600000D02*
X136850000Y-84100000D01*
X135850000Y-83600000D02*
X136850000Y-83600000D01*
X135750000Y-80800000D02*
X135750000Y-81300000D01*
X134750000Y-80800000D02*
X135750000Y-80800000D01*
X134750000Y-81300000D02*
X134750000Y-80800000D01*
X135750000Y-81300000D02*
X134750000Y-81300000D01*
X175616726Y-95521568D02*
X175616726Y-95021568D01*
X176616726Y-95521568D02*
X175616726Y-95521568D01*
X176616726Y-95021568D02*
X176616726Y-95521568D01*
X175616726Y-95021568D02*
X176616726Y-95021568D01*
X167000000Y-131350000D02*
X167000000Y-131850000D01*
X166000000Y-131350000D02*
X167000000Y-131350000D01*
X166000000Y-131850000D02*
X166000000Y-131350000D01*
X167000000Y-131850000D02*
X166000000Y-131850000D01*
X163600000Y-135350000D02*
X163600000Y-135850000D01*
X162600000Y-135350000D02*
X163600000Y-135350000D01*
X162600000Y-135850000D02*
X162600000Y-135350000D01*
X163600000Y-135850000D02*
X162600000Y-135850000D01*
X183750000Y-142150000D02*
X183350000Y-142150000D01*
X183550000Y-142200000D02*
X183750000Y-142500000D01*
X183350000Y-142500000D02*
X183550000Y-142200000D01*
X183750000Y-142500000D02*
X183350000Y-142500000D01*
X183150000Y-143150000D02*
X183150000Y-141550000D01*
X183950000Y-143150000D02*
X183150000Y-143150000D01*
X183950000Y-141550000D02*
X183950000Y-143150000D01*
X183150000Y-141550000D02*
X183950000Y-141550000D01*
X180750000Y-142150000D02*
X180350000Y-142150000D01*
X180550000Y-142200000D02*
X180750000Y-142500000D01*
X180350000Y-142500000D02*
X180550000Y-142200000D01*
X180750000Y-142500000D02*
X180350000Y-142500000D01*
X180150000Y-143150000D02*
X180150000Y-141550000D01*
X180950000Y-143150000D02*
X180150000Y-143150000D01*
X180950000Y-141550000D02*
X180950000Y-143150000D01*
X180150000Y-141550000D02*
X180950000Y-141550000D01*
X177750000Y-142150000D02*
X177350000Y-142150000D01*
X177550000Y-142200000D02*
X177750000Y-142500000D01*
X177350000Y-142500000D02*
X177550000Y-142200000D01*
X177750000Y-142500000D02*
X177350000Y-142500000D01*
X177150000Y-143150000D02*
X177150000Y-141550000D01*
X177950000Y-143150000D02*
X177150000Y-143150000D01*
X177950000Y-141550000D02*
X177950000Y-143150000D01*
X177150000Y-141550000D02*
X177950000Y-141550000D01*
X135850000Y-82850000D02*
X135850000Y-82350000D01*
X136850000Y-82850000D02*
X135850000Y-82850000D01*
X136850000Y-82350000D02*
X136850000Y-82850000D01*
X135850000Y-82350000D02*
X136850000Y-82350000D01*
X183800000Y-145600000D02*
X183300000Y-145600000D01*
X183800000Y-144600000D02*
X183800000Y-145600000D01*
X183300000Y-144600000D02*
X183800000Y-144600000D01*
X183300000Y-145600000D02*
X183300000Y-144600000D01*
X180800000Y-145600000D02*
X180300000Y-145600000D01*
X180800000Y-144600000D02*
X180800000Y-145600000D01*
X180300000Y-144600000D02*
X180800000Y-144600000D01*
X180300000Y-145600000D02*
X180300000Y-144600000D01*
X177800000Y-145600000D02*
X177300000Y-145600000D01*
X177800000Y-144600000D02*
X177800000Y-145600000D01*
X177300000Y-144600000D02*
X177800000Y-144600000D01*
X177300000Y-145600000D02*
X177300000Y-144600000D01*
X135400000Y-127650000D02*
X135400000Y-128150000D01*
X134400000Y-127650000D02*
X135400000Y-127650000D01*
X134400000Y-128150000D02*
X134400000Y-127650000D01*
X135400000Y-128150000D02*
X134400000Y-128150000D01*
X133800000Y-92100000D02*
X134300000Y-92100000D01*
X133800000Y-93100000D02*
X133800000Y-92100000D01*
X134300000Y-93100000D02*
X133800000Y-93100000D01*
X134300000Y-92100000D02*
X134300000Y-93100000D01*
X141000000Y-85500000D02*
X141000000Y-86000000D01*
X140000000Y-85500000D02*
X141000000Y-85500000D01*
X140000000Y-86000000D02*
X140000000Y-85500000D01*
X141000000Y-86000000D02*
X140000000Y-86000000D01*
X154500000Y-72800000D02*
X154500000Y-72300000D01*
X155500000Y-72800000D02*
X154500000Y-72800000D01*
X155500000Y-72300000D02*
X155500000Y-72800000D01*
X154500000Y-72300000D02*
X155500000Y-72300000D01*
X155600000Y-78350000D02*
X155600000Y-77850000D01*
X156600000Y-78350000D02*
X155600000Y-78350000D01*
X156600000Y-77850000D02*
X156600000Y-78350000D01*
X155600000Y-77850000D02*
X156600000Y-77850000D01*
X165500000Y-130650000D02*
X165500000Y-130150000D01*
X166500000Y-130650000D02*
X165500000Y-130650000D01*
X166500000Y-130150000D02*
X166500000Y-130650000D01*
X165500000Y-130150000D02*
X166500000Y-130150000D01*
X175616726Y-96571568D02*
X175616726Y-96071568D01*
X176616726Y-96571568D02*
X175616726Y-96571568D01*
X176616726Y-96071568D02*
X176616726Y-96571568D01*
X175616726Y-96071568D02*
X176616726Y-96071568D01*
X171416726Y-96121568D02*
X171416726Y-96621568D01*
X170416726Y-96121568D02*
X171416726Y-96121568D01*
X170416726Y-96621568D02*
X170416726Y-96121568D01*
X171416726Y-96621568D02*
X170416726Y-96621568D01*
X169466726Y-96121568D02*
X169466726Y-96621568D01*
X168466726Y-96121568D02*
X169466726Y-96121568D01*
X168466726Y-96621568D02*
X168466726Y-96121568D01*
X169466726Y-96621568D02*
X168466726Y-96621568D01*
D11*
X141625000Y-122200000D02*
G75*
G03X141625000Y-122200000I-150000J0D01*
G01*
X138450000Y-123500000D02*
G75*
G03X138450000Y-123500000I-150000J0D01*
G01*
X138900000Y-123500000D02*
G75*
G03X138900000Y-123500000I-150000J0D01*
G01*
X142625000Y-122850000D02*
G75*
G03X142625000Y-122850000I-150000J0D01*
G01*
X142200000Y-122850000D02*
G75*
G03X142200000Y-122850000I-150000J0D01*
G01*
X142650000Y-123500000D02*
G75*
G03X142650000Y-123500000I-150000J0D01*
G01*
X142200000Y-123500000D02*
G75*
G03X142200000Y-123500000I-150000J0D01*
G01*
X140550000Y-123500000D02*
G75*
G03X140550000Y-123500000I-150000J0D01*
G01*
D12*
X139775000Y-124500000D02*
X139775000Y-122500000D01*
X139775000Y-122500000D02*
X141025000Y-122500000D01*
X141025000Y-122500000D02*
X141025000Y-124500000D01*
X141025000Y-124500000D02*
X139775000Y-124500000D01*
X137150000Y-112250000D02*
X137150000Y-108250000D01*
X137150000Y-108250000D02*
X141150000Y-108250000D01*
X141150000Y-108250000D02*
X141150000Y-112250000D01*
X141150000Y-112250000D02*
X137150000Y-112250000D01*
D11*
X138000000Y-91750000D02*
G75*
G03X138000000Y-91750000I-300000J0D01*
G01*
X138000000Y-91150000D02*
G75*
G03X138000000Y-91150000I-300000J0D01*
G01*
X138000000Y-90550000D02*
G75*
G03X138000000Y-90550000I-300000J0D01*
G01*
X138000000Y-89950000D02*
G75*
G03X138000000Y-89950000I-300000J0D01*
G01*
X138000000Y-89350000D02*
G75*
G03X138000000Y-89350000I-300000J0D01*
G01*
X138000000Y-88750000D02*
G75*
G03X138000000Y-88750000I-300000J0D01*
G01*
X139800000Y-91750000D02*
G75*
G03X139800000Y-91750000I-300000J0D01*
G01*
X139200000Y-91750000D02*
G75*
G03X139200000Y-91750000I-300000J0D01*
G01*
X138600000Y-91750000D02*
G75*
G03X138600000Y-91750000I-300000J0D01*
G01*
X138600000Y-91150000D02*
G75*
G03X138600000Y-91150000I-300000J0D01*
G01*
X139200000Y-91150000D02*
G75*
G03X139200000Y-91150000I-300000J0D01*
G01*
X139200000Y-89950000D02*
G75*
G03X139200000Y-89950000I-300000J0D01*
G01*
X138600000Y-89950000D02*
G75*
G03X138600000Y-89950000I-300000J0D01*
G01*
X139200000Y-90550000D02*
G75*
G03X139200000Y-90550000I-300000J0D01*
G01*
X139800000Y-90550000D02*
G75*
G03X139800000Y-90550000I-300000J0D01*
G01*
X139200000Y-89350000D02*
G75*
G03X139200000Y-89350000I-300000J0D01*
G01*
X138600000Y-89350000D02*
G75*
G03X138600000Y-89350000I-300000J0D01*
G01*
X138600000Y-90550000D02*
G75*
G03X138600000Y-90550000I-300000J0D01*
G01*
X139800000Y-91150000D02*
G75*
G03X139800000Y-91150000I-300000J0D01*
G01*
X138600000Y-88750000D02*
G75*
G03X138600000Y-88750000I-300000J0D01*
G01*
X139200000Y-88750000D02*
G75*
G03X139200000Y-88750000I-300000J0D01*
G01*
X139800000Y-89950000D02*
G75*
G03X139800000Y-89950000I-300000J0D01*
G01*
X139800000Y-89350000D02*
G75*
G03X139800000Y-89350000I-300000J0D01*
G01*
X139800000Y-88750000D02*
G75*
G03X139800000Y-88750000I-300000J0D01*
G01*
D13*
X141734500Y-87265500D02*
X141734500Y-93044000D01*
X141734500Y-93044000D02*
X141544000Y-93044000D01*
X141734500Y-87265500D02*
X135892500Y-87265500D01*
X135892500Y-87265500D02*
X135892500Y-93044000D01*
X135892500Y-93044000D02*
X141607500Y-93044000D01*
D10*
X168609726Y-111297568D02*
X168609726Y-112497568D01*
X168609726Y-112497568D02*
X178609726Y-112497568D01*
X178609726Y-112497568D02*
X178609726Y-111297568D01*
X178609726Y-102297568D02*
X168609726Y-102297568D01*
X168609726Y-102297568D02*
X168609726Y-111297568D01*
X168609726Y-111297568D02*
X178609726Y-111297568D01*
X178609726Y-111297568D02*
X178609726Y-102297568D01*
D12*
X150500000Y-129000000D02*
X150500000Y-126500000D01*
X150500000Y-126500000D02*
X147300000Y-126500000D01*
X147300000Y-126500000D02*
X147300000Y-129000000D01*
X147300000Y-129000000D02*
X150500000Y-129000000D01*
D13*
X130450000Y-139850000D02*
X150350000Y-139850000D01*
X150350000Y-139850000D02*
X150350000Y-148350000D01*
X150350000Y-148350000D02*
X142800000Y-148350000D01*
X142800000Y-148350000D02*
X142800000Y-147125000D01*
X142800000Y-147125000D02*
X138000000Y-147125000D01*
X138000000Y-147125000D02*
X138000000Y-148350000D01*
X137987000Y-148350000D02*
X130450000Y-148350000D01*
X130450000Y-148350000D02*
X130450000Y-139850000D01*
D10*
X143700000Y-92400000D02*
X143700000Y-91600000D01*
X145300000Y-92400000D02*
X143700000Y-92400000D01*
X145300000Y-91600000D02*
X145300000Y-92400000D01*
X143700000Y-91600000D02*
X145300000Y-91600000D01*
X176266726Y-92921568D02*
X173766726Y-92921568D01*
X176266726Y-89721568D02*
X176266726Y-92921568D01*
X173766726Y-89721568D02*
X176266726Y-89721568D01*
X173766726Y-92921568D02*
X173766726Y-89721568D01*
X167100000Y-136700000D02*
X167100000Y-137500000D01*
X165500000Y-136700000D02*
X167100000Y-136700000D01*
X165500000Y-137500000D02*
X165500000Y-136700000D01*
X167100000Y-137500000D02*
X165500000Y-137500000D01*
X172866726Y-92921568D02*
X170366726Y-92921568D01*
X172866726Y-89721568D02*
X172866726Y-92921568D01*
X170366726Y-89721568D02*
X172866726Y-89721568D01*
X170366726Y-92921568D02*
X170366726Y-89721568D01*
X174500000Y-142150000D02*
X174100000Y-142150000D01*
X174300000Y-142200000D02*
X174500000Y-142500000D01*
X174100000Y-142500000D02*
X174300000Y-142200000D01*
X174500000Y-142500000D02*
X174100000Y-142500000D01*
X173900000Y-143150000D02*
X173900000Y-141550000D01*
X174700000Y-143150000D02*
X173900000Y-143150000D01*
X174700000Y-141550000D02*
X174700000Y-143150000D01*
X173900000Y-141550000D02*
X174700000Y-141550000D01*
X174550000Y-145600000D02*
X174050000Y-145600000D01*
X174550000Y-144600000D02*
X174550000Y-145600000D01*
X174050000Y-144600000D02*
X174550000Y-144600000D01*
X174050000Y-145600000D02*
X174050000Y-144600000D01*
X135550000Y-94600000D02*
X136050000Y-94600000D01*
X135550000Y-95600000D02*
X135550000Y-94600000D01*
X136050000Y-95600000D02*
X135550000Y-95600000D01*
X136050000Y-94600000D02*
X136050000Y-95600000D01*
D13*
X138155000Y-103000000D02*
G75*
G03X138155000Y-103000000I-5000J0D01*
G01*
X140155000Y-103000000D02*
G75*
G03X140155000Y-103000000I-5000J0D01*
G01*
X139505000Y-118550000D02*
G75*
G03X139505000Y-118550000I-5000J0D01*
G01*
X134437143Y-112242857D02*
X134484762Y-112290476D01*
X134532381Y-112433333D01*
X134532381Y-112528571D01*
X134484762Y-112671429D01*
X134389524Y-112766667D01*
X134294286Y-112814286D01*
X134103810Y-112861905D01*
X133960952Y-112861905D01*
X133770476Y-112814286D01*
X133675238Y-112766667D01*
X133580000Y-112671429D01*
X133532381Y-112528571D01*
X133532381Y-112433333D01*
X133580000Y-112290476D01*
X133627619Y-112242857D01*
X134532381Y-111290476D02*
X134532381Y-111861905D01*
X134532381Y-111576191D02*
X133532381Y-111576191D01*
X133675238Y-111671429D01*
X133770476Y-111766667D01*
X133818095Y-111861905D01*
X133532381Y-110957143D02*
X133532381Y-110338095D01*
X133913333Y-110671429D01*
X133913333Y-110528571D01*
X133960952Y-110433333D01*
X134008571Y-110385714D01*
X134103810Y-110338095D01*
X134341905Y-110338095D01*
X134437143Y-110385714D01*
X134484762Y-110433333D01*
X134532381Y-110528571D01*
X134532381Y-110814286D01*
X134484762Y-110909524D01*
X134437143Y-110957143D01*
D14*
X139518452Y-127357452D02*
X139518452Y-127290929D01*
X139512404Y-127278833D01*
X139500309Y-127272786D01*
X139476118Y-127272786D01*
X139464023Y-127278833D01*
X139518452Y-127351405D02*
X139506356Y-127357452D01*
X139476118Y-127357452D01*
X139464023Y-127351405D01*
X139457975Y-127339310D01*
X139457975Y-127327214D01*
X139464023Y-127315119D01*
X139476118Y-127309071D01*
X139506356Y-127309071D01*
X139518452Y-127303024D01*
X139560785Y-127272786D02*
X139609166Y-127272786D01*
X139578928Y-127230452D02*
X139578928Y-127339310D01*
X139584976Y-127351405D01*
X139597071Y-127357452D01*
X139609166Y-127357452D01*
X139766404Y-127357452D02*
X139754309Y-127351405D01*
X139748261Y-127339310D01*
X139748261Y-127230452D01*
X139832928Y-127357452D02*
X139820833Y-127351405D01*
X139814785Y-127345357D01*
X139808737Y-127333262D01*
X139808737Y-127296976D01*
X139814785Y-127284881D01*
X139820833Y-127278833D01*
X139832928Y-127272786D01*
X139851071Y-127272786D01*
X139863166Y-127278833D01*
X139869214Y-127284881D01*
X139875261Y-127296976D01*
X139875261Y-127333262D01*
X139869214Y-127345357D01*
X139863166Y-127351405D01*
X139851071Y-127357452D01*
X139832928Y-127357452D01*
X139984119Y-127351405D02*
X139972023Y-127357452D01*
X139947833Y-127357452D01*
X139935738Y-127351405D01*
X139929690Y-127345357D01*
X139923642Y-127333262D01*
X139923642Y-127296976D01*
X139929690Y-127284881D01*
X139935738Y-127278833D01*
X139947833Y-127272786D01*
X139972023Y-127272786D01*
X139984119Y-127278833D01*
X140092976Y-127357452D02*
X140092976Y-127290929D01*
X140086928Y-127278833D01*
X140074833Y-127272786D01*
X140050642Y-127272786D01*
X140038547Y-127278833D01*
X140092976Y-127351405D02*
X140080880Y-127357452D01*
X140050642Y-127357452D01*
X140038547Y-127351405D01*
X140032499Y-127339310D01*
X140032499Y-127327214D01*
X140038547Y-127315119D01*
X140050642Y-127309071D01*
X140080880Y-127309071D01*
X140092976Y-127303024D01*
X140135309Y-127272786D02*
X140183690Y-127272786D01*
X140153452Y-127230452D02*
X140153452Y-127339310D01*
X140159500Y-127351405D01*
X140171595Y-127357452D01*
X140183690Y-127357452D01*
X140226023Y-127357452D02*
X140226023Y-127272786D01*
X140226023Y-127230452D02*
X140219975Y-127236500D01*
X140226023Y-127242548D01*
X140232071Y-127236500D01*
X140226023Y-127230452D01*
X140226023Y-127242548D01*
X140304642Y-127357452D02*
X140292547Y-127351405D01*
X140286499Y-127345357D01*
X140280451Y-127333262D01*
X140280451Y-127296976D01*
X140286499Y-127284881D01*
X140292547Y-127278833D01*
X140304642Y-127272786D01*
X140322785Y-127272786D01*
X140334880Y-127278833D01*
X140340928Y-127284881D01*
X140346975Y-127296976D01*
X140346975Y-127333262D01*
X140340928Y-127345357D01*
X140334880Y-127351405D01*
X140322785Y-127357452D01*
X140304642Y-127357452D01*
X140401404Y-127272786D02*
X140401404Y-127357452D01*
X140401404Y-127284881D02*
X140407452Y-127278833D01*
X140419547Y-127272786D01*
X140437690Y-127272786D01*
X140449785Y-127278833D01*
X140455833Y-127290929D01*
X140455833Y-127357452D01*
X140510261Y-127351405D02*
X140522357Y-127357452D01*
X140546547Y-127357452D01*
X140558642Y-127351405D01*
X140564690Y-127339310D01*
X140564690Y-127333262D01*
X140558642Y-127321167D01*
X140546547Y-127315119D01*
X140528404Y-127315119D01*
X140516309Y-127309071D01*
X140510261Y-127296976D01*
X140510261Y-127290929D01*
X140516309Y-127278833D01*
X140528404Y-127272786D01*
X140546547Y-127272786D01*
X140558642Y-127278833D01*
X140709833Y-127351405D02*
X140721929Y-127357452D01*
X140746119Y-127357452D01*
X140758214Y-127351405D01*
X140764262Y-127339310D01*
X140764262Y-127333262D01*
X140758214Y-127321167D01*
X140746119Y-127315119D01*
X140727976Y-127315119D01*
X140715881Y-127309071D01*
X140709833Y-127296976D01*
X140709833Y-127290929D01*
X140715881Y-127278833D01*
X140727976Y-127272786D01*
X140746119Y-127272786D01*
X140758214Y-127278833D01*
X140818691Y-127357452D02*
X140818691Y-127230452D01*
X140873120Y-127357452D02*
X140873120Y-127290929D01*
X140867072Y-127278833D01*
X140854977Y-127272786D01*
X140836834Y-127272786D01*
X140824739Y-127278833D01*
X140818691Y-127284881D01*
X140951739Y-127357452D02*
X140939644Y-127351405D01*
X140933596Y-127345357D01*
X140927548Y-127333262D01*
X140927548Y-127296976D01*
X140933596Y-127284881D01*
X140939644Y-127278833D01*
X140951739Y-127272786D01*
X140969882Y-127272786D01*
X140981977Y-127278833D01*
X140988025Y-127284881D01*
X140994072Y-127296976D01*
X140994072Y-127333262D01*
X140988025Y-127345357D01*
X140981977Y-127351405D01*
X140969882Y-127357452D01*
X140951739Y-127357452D01*
X141036406Y-127272786D02*
X141060596Y-127357452D01*
X141084787Y-127296976D01*
X141108977Y-127357452D01*
X141133168Y-127272786D01*
X141181549Y-127272786D02*
X141181549Y-127357452D01*
X141181549Y-127284881D02*
X141187597Y-127278833D01*
X141199692Y-127272786D01*
X141217835Y-127272786D01*
X141229930Y-127278833D01*
X141235978Y-127290929D01*
X141235978Y-127357452D01*
X139320500Y-127557452D02*
X139320500Y-127430452D01*
X139368881Y-127430452D01*
X139380976Y-127436500D01*
X139387024Y-127442548D01*
X139393072Y-127454643D01*
X139393072Y-127472786D01*
X139387024Y-127484881D01*
X139380976Y-127490929D01*
X139368881Y-127496976D01*
X139320500Y-127496976D01*
X139465643Y-127557452D02*
X139453548Y-127551405D01*
X139447500Y-127539310D01*
X139447500Y-127430452D01*
X139568453Y-127557452D02*
X139568453Y-127490929D01*
X139562405Y-127478833D01*
X139550310Y-127472786D01*
X139526119Y-127472786D01*
X139514024Y-127478833D01*
X139568453Y-127551405D02*
X139556357Y-127557452D01*
X139526119Y-127557452D01*
X139514024Y-127551405D01*
X139507976Y-127539310D01*
X139507976Y-127527214D01*
X139514024Y-127515119D01*
X139526119Y-127509071D01*
X139556357Y-127509071D01*
X139568453Y-127503024D01*
X139683358Y-127551405D02*
X139671262Y-127557452D01*
X139647072Y-127557452D01*
X139634977Y-127551405D01*
X139628929Y-127545357D01*
X139622881Y-127533262D01*
X139622881Y-127496976D01*
X139628929Y-127484881D01*
X139634977Y-127478833D01*
X139647072Y-127472786D01*
X139671262Y-127472786D01*
X139683358Y-127478833D01*
X139786167Y-127551405D02*
X139774072Y-127557452D01*
X139749881Y-127557452D01*
X139737786Y-127551405D01*
X139731738Y-127539310D01*
X139731738Y-127490929D01*
X139737786Y-127478833D01*
X139749881Y-127472786D01*
X139774072Y-127472786D01*
X139786167Y-127478833D01*
X139792215Y-127490929D01*
X139792215Y-127503024D01*
X139731738Y-127515119D01*
X139967596Y-127430452D02*
X139979691Y-127430452D01*
X139991786Y-127436500D01*
X139997834Y-127442548D01*
X140003881Y-127454643D01*
X140009929Y-127478833D01*
X140009929Y-127509071D01*
X140003881Y-127533262D01*
X139997834Y-127545357D01*
X139991786Y-127551405D01*
X139979691Y-127557452D01*
X139967596Y-127557452D01*
X139955500Y-127551405D01*
X139949453Y-127545357D01*
X139943405Y-127533262D01*
X139937357Y-127509071D01*
X139937357Y-127478833D01*
X139943405Y-127454643D01*
X139949453Y-127442548D01*
X139955500Y-127436500D01*
X139967596Y-127430452D01*
X140064357Y-127545357D02*
X140070405Y-127551405D01*
X140064357Y-127557452D01*
X140058309Y-127551405D01*
X140064357Y-127545357D01*
X140064357Y-127557452D01*
X140118785Y-127442548D02*
X140124833Y-127436500D01*
X140136928Y-127430452D01*
X140167166Y-127430452D01*
X140179262Y-127436500D01*
X140185309Y-127442548D01*
X140191357Y-127454643D01*
X140191357Y-127466738D01*
X140185309Y-127484881D01*
X140112738Y-127557452D01*
X140191357Y-127557452D01*
X140342547Y-127557452D02*
X140342547Y-127472786D01*
X140342547Y-127484881D02*
X140348595Y-127478833D01*
X140360690Y-127472786D01*
X140378833Y-127472786D01*
X140390928Y-127478833D01*
X140396976Y-127490929D01*
X140396976Y-127557452D01*
X140396976Y-127490929D02*
X140403023Y-127478833D01*
X140415119Y-127472786D01*
X140433261Y-127472786D01*
X140445357Y-127478833D01*
X140451404Y-127490929D01*
X140451404Y-127557452D01*
X140511880Y-127557452D02*
X140511880Y-127472786D01*
X140511880Y-127484881D02*
X140517928Y-127478833D01*
X140530023Y-127472786D01*
X140548166Y-127472786D01*
X140560261Y-127478833D01*
X140566309Y-127490929D01*
X140566309Y-127557452D01*
X140566309Y-127490929D02*
X140572356Y-127478833D01*
X140584452Y-127472786D01*
X140602594Y-127472786D01*
X140614690Y-127478833D01*
X140620737Y-127490929D01*
X140620737Y-127557452D01*
X140832404Y-127557452D02*
X140832404Y-127430452D01*
X140832404Y-127551405D02*
X140820308Y-127557452D01*
X140796118Y-127557452D01*
X140784023Y-127551405D01*
X140777975Y-127545357D01*
X140771927Y-127533262D01*
X140771927Y-127496976D01*
X140777975Y-127484881D01*
X140784023Y-127478833D01*
X140796118Y-127472786D01*
X140820308Y-127472786D01*
X140832404Y-127478833D01*
X140892880Y-127557452D02*
X140892880Y-127472786D01*
X140892880Y-127430452D02*
X140886832Y-127436500D01*
X140892880Y-127442548D01*
X140898928Y-127436500D01*
X140892880Y-127430452D01*
X140892880Y-127442548D01*
X141007785Y-127557452D02*
X141007785Y-127490929D01*
X141001737Y-127478833D01*
X140989642Y-127472786D01*
X140965451Y-127472786D01*
X140953356Y-127478833D01*
X141007785Y-127551405D02*
X140995689Y-127557452D01*
X140965451Y-127557452D01*
X140953356Y-127551405D01*
X140947308Y-127539310D01*
X140947308Y-127527214D01*
X140953356Y-127515119D01*
X140965451Y-127509071D01*
X140995689Y-127509071D01*
X141007785Y-127503024D01*
X141152928Y-127472786D02*
X141183166Y-127557452D01*
X141213404Y-127472786D01*
X141261785Y-127557452D02*
X141261785Y-127472786D01*
X141261785Y-127430452D02*
X141255737Y-127436500D01*
X141261785Y-127442548D01*
X141267833Y-127436500D01*
X141261785Y-127430452D01*
X141261785Y-127442548D01*
X141376690Y-127557452D02*
X141376690Y-127490929D01*
X141370642Y-127478833D01*
X141358547Y-127472786D01*
X141334356Y-127472786D01*
X141322261Y-127478833D01*
X141376690Y-127551405D02*
X141364594Y-127557452D01*
X141334356Y-127557452D01*
X141322261Y-127551405D01*
X141316213Y-127539310D01*
X141316213Y-127527214D01*
X141322261Y-127515119D01*
X141334356Y-127509071D01*
X141364594Y-127509071D01*
X141376690Y-127503024D01*
X141431118Y-127551405D02*
X141443214Y-127557452D01*
X141467404Y-127557452D01*
X141479499Y-127551405D01*
X141485547Y-127539310D01*
X141485547Y-127533262D01*
X141479499Y-127521167D01*
X141467404Y-127515119D01*
X141449261Y-127515119D01*
X141437166Y-127509071D01*
X141431118Y-127496976D01*
X141431118Y-127490929D01*
X141437166Y-127478833D01*
X141449261Y-127472786D01*
X141467404Y-127472786D01*
X141479499Y-127478833D01*
D13*
X138587143Y-119192857D02*
X138634762Y-119240476D01*
X138682381Y-119383333D01*
X138682381Y-119478571D01*
X138634762Y-119621429D01*
X138539524Y-119716667D01*
X138444286Y-119764286D01*
X138253810Y-119811905D01*
X138110952Y-119811905D01*
X137920476Y-119764286D01*
X137825238Y-119716667D01*
X137730000Y-119621429D01*
X137682381Y-119478571D01*
X137682381Y-119383333D01*
X137730000Y-119240476D01*
X137777619Y-119192857D01*
X138682381Y-118240476D02*
X138682381Y-118811905D01*
X138682381Y-118526191D02*
X137682381Y-118526191D01*
X137825238Y-118621429D01*
X137920476Y-118716667D01*
X137968095Y-118811905D01*
X137777619Y-117859524D02*
X137730000Y-117811905D01*
X137682381Y-117716667D01*
X137682381Y-117478571D01*
X137730000Y-117383333D01*
X137777619Y-117335714D01*
X137872857Y-117288095D01*
X137968095Y-117288095D01*
X138110952Y-117335714D01*
X138682381Y-117907143D01*
X138682381Y-117288095D01*
X148133334Y-131727143D02*
X148085715Y-131774762D01*
X147942858Y-131822381D01*
X147847620Y-131822381D01*
X147704762Y-131774762D01*
X147609524Y-131679524D01*
X147561905Y-131584286D01*
X147514286Y-131393810D01*
X147514286Y-131250952D01*
X147561905Y-131060476D01*
X147609524Y-130965238D01*
X147704762Y-130870000D01*
X147847620Y-130822381D01*
X147942858Y-130822381D01*
X148085715Y-130870000D01*
X148133334Y-130917619D01*
X149085715Y-131822381D02*
X148514286Y-131822381D01*
X148800000Y-131822381D02*
X148800000Y-130822381D01*
X148704762Y-130965238D01*
X148609524Y-131060476D01*
X148514286Y-131108095D01*
X150333334Y-127027143D02*
X150285715Y-127074762D01*
X150142858Y-127122381D01*
X150047620Y-127122381D01*
X149904762Y-127074762D01*
X149809524Y-126979524D01*
X149761905Y-126884286D01*
X149714286Y-126693810D01*
X149714286Y-126550952D01*
X149761905Y-126360476D01*
X149809524Y-126265238D01*
X149904762Y-126170000D01*
X150047620Y-126122381D01*
X150142858Y-126122381D01*
X150285715Y-126170000D01*
X150333334Y-126217619D01*
X150714286Y-126217619D02*
X150761905Y-126170000D01*
X150857143Y-126122381D01*
X151095239Y-126122381D01*
X151190477Y-126170000D01*
X151238096Y-126217619D01*
X151285715Y-126312857D01*
X151285715Y-126408095D01*
X151238096Y-126550952D01*
X150666667Y-127122381D01*
X151285715Y-127122381D01*
X136033334Y-124687143D02*
X135985715Y-124734762D01*
X135842858Y-124782381D01*
X135747620Y-124782381D01*
X135604762Y-124734762D01*
X135509524Y-124639524D01*
X135461905Y-124544286D01*
X135414286Y-124353810D01*
X135414286Y-124210952D01*
X135461905Y-124020476D01*
X135509524Y-123925238D01*
X135604762Y-123830000D01*
X135747620Y-123782381D01*
X135842858Y-123782381D01*
X135985715Y-123830000D01*
X136033334Y-123877619D01*
X136366667Y-123782381D02*
X136985715Y-123782381D01*
X136652381Y-124163333D01*
X136795239Y-124163333D01*
X136890477Y-124210952D01*
X136938096Y-124258571D01*
X136985715Y-124353810D01*
X136985715Y-124591905D01*
X136938096Y-124687143D01*
X136890477Y-124734762D01*
X136795239Y-124782381D01*
X136509524Y-124782381D01*
X136414286Y-124734762D01*
X136366667Y-124687143D01*
X135533334Y-128337143D02*
X135485715Y-128384762D01*
X135342858Y-128432381D01*
X135247620Y-128432381D01*
X135104762Y-128384762D01*
X135009524Y-128289524D01*
X134961905Y-128194286D01*
X134914286Y-128003810D01*
X134914286Y-127860952D01*
X134961905Y-127670476D01*
X135009524Y-127575238D01*
X135104762Y-127480000D01*
X135247620Y-127432381D01*
X135342858Y-127432381D01*
X135485715Y-127480000D01*
X135533334Y-127527619D01*
X136390477Y-127765714D02*
X136390477Y-128432381D01*
X136152381Y-127384762D02*
X135914286Y-128099048D01*
X136533334Y-128099048D01*
X141583334Y-134627143D02*
X141535715Y-134674762D01*
X141392858Y-134722381D01*
X141297620Y-134722381D01*
X141154762Y-134674762D01*
X141059524Y-134579524D01*
X141011905Y-134484286D01*
X140964286Y-134293810D01*
X140964286Y-134150952D01*
X141011905Y-133960476D01*
X141059524Y-133865238D01*
X141154762Y-133770000D01*
X141297620Y-133722381D01*
X141392858Y-133722381D01*
X141535715Y-133770000D01*
X141583334Y-133817619D01*
X142488096Y-133722381D02*
X142011905Y-133722381D01*
X141964286Y-134198571D01*
X142011905Y-134150952D01*
X142107143Y-134103333D01*
X142345239Y-134103333D01*
X142440477Y-134150952D01*
X142488096Y-134198571D01*
X142535715Y-134293810D01*
X142535715Y-134531905D01*
X142488096Y-134627143D01*
X142440477Y-134674762D01*
X142345239Y-134722381D01*
X142107143Y-134722381D01*
X142011905Y-134674762D01*
X141964286Y-134627143D01*
X143633334Y-133927143D02*
X143585715Y-133974762D01*
X143442858Y-134022381D01*
X143347620Y-134022381D01*
X143204762Y-133974762D01*
X143109524Y-133879524D01*
X143061905Y-133784286D01*
X143014286Y-133593810D01*
X143014286Y-133450952D01*
X143061905Y-133260476D01*
X143109524Y-133165238D01*
X143204762Y-133070000D01*
X143347620Y-133022381D01*
X143442858Y-133022381D01*
X143585715Y-133070000D01*
X143633334Y-133117619D01*
X143966667Y-133022381D02*
X144633334Y-133022381D01*
X144204762Y-134022381D01*
X143607143Y-126877143D02*
X143559524Y-126924762D01*
X143416667Y-126972381D01*
X143321429Y-126972381D01*
X143178571Y-126924762D01*
X143083333Y-126829524D01*
X143035714Y-126734286D01*
X142988095Y-126543810D01*
X142988095Y-126400952D01*
X143035714Y-126210476D01*
X143083333Y-126115238D01*
X143178571Y-126020000D01*
X143321429Y-125972381D01*
X143416667Y-125972381D01*
X143559524Y-126020000D01*
X143607143Y-126067619D01*
X144559524Y-126972381D02*
X143988095Y-126972381D01*
X144273809Y-126972381D02*
X144273809Y-125972381D01*
X144178571Y-126115238D01*
X144083333Y-126210476D01*
X143988095Y-126258095D01*
X145178571Y-125972381D02*
X145273810Y-125972381D01*
X145369048Y-126020000D01*
X145416667Y-126067619D01*
X145464286Y-126162857D01*
X145511905Y-126353333D01*
X145511905Y-126591429D01*
X145464286Y-126781905D01*
X145416667Y-126877143D01*
X145369048Y-126924762D01*
X145273810Y-126972381D01*
X145178571Y-126972381D01*
X145083333Y-126924762D01*
X145035714Y-126877143D01*
X144988095Y-126781905D01*
X144940476Y-126591429D01*
X144940476Y-126353333D01*
X144988095Y-126162857D01*
X145035714Y-126067619D01*
X145083333Y-126020000D01*
X145178571Y-125972381D01*
X145057143Y-129027143D02*
X145009524Y-129074762D01*
X144866667Y-129122381D01*
X144771429Y-129122381D01*
X144628571Y-129074762D01*
X144533333Y-128979524D01*
X144485714Y-128884286D01*
X144438095Y-128693810D01*
X144438095Y-128550952D01*
X144485714Y-128360476D01*
X144533333Y-128265238D01*
X144628571Y-128170000D01*
X144771429Y-128122381D01*
X144866667Y-128122381D01*
X145009524Y-128170000D01*
X145057143Y-128217619D01*
X146009524Y-129122381D02*
X145438095Y-129122381D01*
X145723809Y-129122381D02*
X145723809Y-128122381D01*
X145628571Y-128265238D01*
X145533333Y-128360476D01*
X145438095Y-128408095D01*
X146961905Y-129122381D02*
X146390476Y-129122381D01*
X146676190Y-129122381D02*
X146676190Y-128122381D01*
X146580952Y-128265238D01*
X146485714Y-128360476D01*
X146390476Y-128408095D01*
X139777143Y-103642857D02*
X139824762Y-103690476D01*
X139872381Y-103833333D01*
X139872381Y-103928571D01*
X139824762Y-104071429D01*
X139729524Y-104166667D01*
X139634286Y-104214286D01*
X139443810Y-104261905D01*
X139300952Y-104261905D01*
X139110476Y-104214286D01*
X139015238Y-104166667D01*
X138920000Y-104071429D01*
X138872381Y-103928571D01*
X138872381Y-103833333D01*
X138920000Y-103690476D01*
X138967619Y-103642857D01*
X139872381Y-102690476D02*
X139872381Y-103261905D01*
X139872381Y-102976191D02*
X138872381Y-102976191D01*
X139015238Y-103071429D01*
X139110476Y-103166667D01*
X139158095Y-103261905D01*
X139205714Y-101833333D02*
X139872381Y-101833333D01*
X138824762Y-102071429D02*
X139539048Y-102309524D01*
X139539048Y-101690476D01*
X141777143Y-103642857D02*
X141824762Y-103690476D01*
X141872381Y-103833333D01*
X141872381Y-103928571D01*
X141824762Y-104071429D01*
X141729524Y-104166667D01*
X141634286Y-104214286D01*
X141443810Y-104261905D01*
X141300952Y-104261905D01*
X141110476Y-104214286D01*
X141015238Y-104166667D01*
X140920000Y-104071429D01*
X140872381Y-103928571D01*
X140872381Y-103833333D01*
X140920000Y-103690476D01*
X140967619Y-103642857D01*
X141872381Y-102690476D02*
X141872381Y-103261905D01*
X141872381Y-102976191D02*
X140872381Y-102976191D01*
X141015238Y-103071429D01*
X141110476Y-103166667D01*
X141158095Y-103261905D01*
X140872381Y-101785714D02*
X140872381Y-102261905D01*
X141348571Y-102309524D01*
X141300952Y-102261905D01*
X141253333Y-102166667D01*
X141253333Y-101928571D01*
X141300952Y-101833333D01*
X141348571Y-101785714D01*
X141443810Y-101738095D01*
X141681905Y-101738095D01*
X141777143Y-101785714D01*
X141824762Y-101833333D01*
X141872381Y-101928571D01*
X141872381Y-102166667D01*
X141824762Y-102261905D01*
X141777143Y-102309524D01*
X137587143Y-84742857D02*
X137634762Y-84790476D01*
X137682381Y-84933333D01*
X137682381Y-85028571D01*
X137634762Y-85171429D01*
X137539524Y-85266667D01*
X137444286Y-85314286D01*
X137253810Y-85361905D01*
X137110952Y-85361905D01*
X136920476Y-85314286D01*
X136825238Y-85266667D01*
X136730000Y-85171429D01*
X136682381Y-85028571D01*
X136682381Y-84933333D01*
X136730000Y-84790476D01*
X136777619Y-84742857D01*
X137682381Y-83790476D02*
X137682381Y-84361905D01*
X137682381Y-84076191D02*
X136682381Y-84076191D01*
X136825238Y-84171429D01*
X136920476Y-84266667D01*
X136968095Y-84361905D01*
X136682381Y-82933333D02*
X136682381Y-83123810D01*
X136730000Y-83219048D01*
X136777619Y-83266667D01*
X136920476Y-83361905D01*
X137110952Y-83409524D01*
X137491905Y-83409524D01*
X137587143Y-83361905D01*
X137634762Y-83314286D01*
X137682381Y-83219048D01*
X137682381Y-83028571D01*
X137634762Y-82933333D01*
X137587143Y-82885714D01*
X137491905Y-82838095D01*
X137253810Y-82838095D01*
X137158571Y-82885714D01*
X137110952Y-82933333D01*
X137063333Y-83028571D01*
X137063333Y-83219048D01*
X137110952Y-83314286D01*
X137158571Y-83361905D01*
X137253810Y-83409524D01*
X138527143Y-95742857D02*
X138574762Y-95790476D01*
X138622381Y-95933333D01*
X138622381Y-96028571D01*
X138574762Y-96171429D01*
X138479524Y-96266667D01*
X138384286Y-96314286D01*
X138193810Y-96361905D01*
X138050952Y-96361905D01*
X137860476Y-96314286D01*
X137765238Y-96266667D01*
X137670000Y-96171429D01*
X137622381Y-96028571D01*
X137622381Y-95933333D01*
X137670000Y-95790476D01*
X137717619Y-95742857D01*
X138622381Y-94790476D02*
X138622381Y-95361905D01*
X138622381Y-95076191D02*
X137622381Y-95076191D01*
X137765238Y-95171429D01*
X137860476Y-95266667D01*
X137908095Y-95361905D01*
X137622381Y-94457143D02*
X137622381Y-93790476D01*
X138622381Y-94219048D01*
X143607143Y-88837143D02*
X143559524Y-88884762D01*
X143416667Y-88932381D01*
X143321429Y-88932381D01*
X143178571Y-88884762D01*
X143083333Y-88789524D01*
X143035714Y-88694286D01*
X142988095Y-88503810D01*
X142988095Y-88360952D01*
X143035714Y-88170476D01*
X143083333Y-88075238D01*
X143178571Y-87980000D01*
X143321429Y-87932381D01*
X143416667Y-87932381D01*
X143559524Y-87980000D01*
X143607143Y-88027619D01*
X144559524Y-88932381D02*
X143988095Y-88932381D01*
X144273809Y-88932381D02*
X144273809Y-87932381D01*
X144178571Y-88075238D01*
X144083333Y-88170476D01*
X143988095Y-88218095D01*
X145035714Y-88932381D02*
X145226190Y-88932381D01*
X145321429Y-88884762D01*
X145369048Y-88837143D01*
X145464286Y-88694286D01*
X145511905Y-88503810D01*
X145511905Y-88122857D01*
X145464286Y-88027619D01*
X145416667Y-87980000D01*
X145321429Y-87932381D01*
X145130952Y-87932381D01*
X145035714Y-87980000D01*
X144988095Y-88027619D01*
X144940476Y-88122857D01*
X144940476Y-88360952D01*
X144988095Y-88456190D01*
X145035714Y-88503810D01*
X145130952Y-88551429D01*
X145321429Y-88551429D01*
X145416667Y-88503810D01*
X145464286Y-88456190D01*
X145511905Y-88360952D01*
X143607143Y-89837143D02*
X143559524Y-89884762D01*
X143416667Y-89932381D01*
X143321429Y-89932381D01*
X143178571Y-89884762D01*
X143083333Y-89789524D01*
X143035714Y-89694286D01*
X142988095Y-89503810D01*
X142988095Y-89360952D01*
X143035714Y-89170476D01*
X143083333Y-89075238D01*
X143178571Y-88980000D01*
X143321429Y-88932381D01*
X143416667Y-88932381D01*
X143559524Y-88980000D01*
X143607143Y-89027619D01*
X143988095Y-89027619D02*
X144035714Y-88980000D01*
X144130952Y-88932381D01*
X144369048Y-88932381D01*
X144464286Y-88980000D01*
X144511905Y-89027619D01*
X144559524Y-89122857D01*
X144559524Y-89218095D01*
X144511905Y-89360952D01*
X143940476Y-89932381D01*
X144559524Y-89932381D01*
X145178571Y-88932381D02*
X145273810Y-88932381D01*
X145369048Y-88980000D01*
X145416667Y-89027619D01*
X145464286Y-89122857D01*
X145511905Y-89313333D01*
X145511905Y-89551429D01*
X145464286Y-89741905D01*
X145416667Y-89837143D01*
X145369048Y-89884762D01*
X145273810Y-89932381D01*
X145178571Y-89932381D01*
X145083333Y-89884762D01*
X145035714Y-89837143D01*
X144988095Y-89741905D01*
X144940476Y-89551429D01*
X144940476Y-89313333D01*
X144988095Y-89122857D01*
X145035714Y-89027619D01*
X145083333Y-88980000D01*
X145178571Y-88932381D01*
X135707143Y-86977143D02*
X135659524Y-87024762D01*
X135516667Y-87072381D01*
X135421429Y-87072381D01*
X135278571Y-87024762D01*
X135183333Y-86929524D01*
X135135714Y-86834286D01*
X135088095Y-86643810D01*
X135088095Y-86500952D01*
X135135714Y-86310476D01*
X135183333Y-86215238D01*
X135278571Y-86120000D01*
X135421429Y-86072381D01*
X135516667Y-86072381D01*
X135659524Y-86120000D01*
X135707143Y-86167619D01*
X136088095Y-86167619D02*
X136135714Y-86120000D01*
X136230952Y-86072381D01*
X136469048Y-86072381D01*
X136564286Y-86120000D01*
X136611905Y-86167619D01*
X136659524Y-86262857D01*
X136659524Y-86358095D01*
X136611905Y-86500952D01*
X136040476Y-87072381D01*
X136659524Y-87072381D01*
X137040476Y-86167619D02*
X137088095Y-86120000D01*
X137183333Y-86072381D01*
X137421429Y-86072381D01*
X137516667Y-86120000D01*
X137564286Y-86167619D01*
X137611905Y-86262857D01*
X137611905Y-86358095D01*
X137564286Y-86500952D01*
X136992857Y-87072381D01*
X137611905Y-87072381D01*
X135707143Y-82937143D02*
X135659524Y-82984762D01*
X135516667Y-83032381D01*
X135421429Y-83032381D01*
X135278571Y-82984762D01*
X135183333Y-82889524D01*
X135135714Y-82794286D01*
X135088095Y-82603810D01*
X135088095Y-82460952D01*
X135135714Y-82270476D01*
X135183333Y-82175238D01*
X135278571Y-82080000D01*
X135421429Y-82032381D01*
X135516667Y-82032381D01*
X135659524Y-82080000D01*
X135707143Y-82127619D01*
X136088095Y-82127619D02*
X136135714Y-82080000D01*
X136230952Y-82032381D01*
X136469048Y-82032381D01*
X136564286Y-82080000D01*
X136611905Y-82127619D01*
X136659524Y-82222857D01*
X136659524Y-82318095D01*
X136611905Y-82460952D01*
X136040476Y-83032381D01*
X136659524Y-83032381D01*
X136992857Y-82032381D02*
X137611905Y-82032381D01*
X137278571Y-82413333D01*
X137421429Y-82413333D01*
X137516667Y-82460952D01*
X137564286Y-82508571D01*
X137611905Y-82603810D01*
X137611905Y-82841905D01*
X137564286Y-82937143D01*
X137516667Y-82984762D01*
X137421429Y-83032381D01*
X137135714Y-83032381D01*
X137040476Y-82984762D01*
X136992857Y-82937143D01*
X134607143Y-82677143D02*
X134559524Y-82724762D01*
X134416667Y-82772381D01*
X134321429Y-82772381D01*
X134178571Y-82724762D01*
X134083333Y-82629524D01*
X134035714Y-82534286D01*
X133988095Y-82343810D01*
X133988095Y-82200952D01*
X134035714Y-82010476D01*
X134083333Y-81915238D01*
X134178571Y-81820000D01*
X134321429Y-81772381D01*
X134416667Y-81772381D01*
X134559524Y-81820000D01*
X134607143Y-81867619D01*
X134988095Y-81867619D02*
X135035714Y-81820000D01*
X135130952Y-81772381D01*
X135369048Y-81772381D01*
X135464286Y-81820000D01*
X135511905Y-81867619D01*
X135559524Y-81962857D01*
X135559524Y-82058095D01*
X135511905Y-82200952D01*
X134940476Y-82772381D01*
X135559524Y-82772381D01*
X136416667Y-82105714D02*
X136416667Y-82772381D01*
X136178571Y-81724762D02*
X135940476Y-82439048D01*
X136559524Y-82439048D01*
X175473869Y-94358711D02*
X175426250Y-94406330D01*
X175283393Y-94453949D01*
X175188155Y-94453949D01*
X175045297Y-94406330D01*
X174950059Y-94311092D01*
X174902440Y-94215854D01*
X174854821Y-94025378D01*
X174854821Y-93882520D01*
X174902440Y-93692044D01*
X174950059Y-93596806D01*
X175045297Y-93501568D01*
X175188155Y-93453949D01*
X175283393Y-93453949D01*
X175426250Y-93501568D01*
X175473869Y-93549187D01*
X175854821Y-93549187D02*
X175902440Y-93501568D01*
X175997678Y-93453949D01*
X176235774Y-93453949D01*
X176331012Y-93501568D01*
X176378631Y-93549187D01*
X176426250Y-93644425D01*
X176426250Y-93739663D01*
X176378631Y-93882520D01*
X175807202Y-94453949D01*
X176426250Y-94453949D01*
X177331012Y-93453949D02*
X176854821Y-93453949D01*
X176807202Y-93930139D01*
X176854821Y-93882520D01*
X176950059Y-93834901D01*
X177188155Y-93834901D01*
X177283393Y-93882520D01*
X177331012Y-93930139D01*
X177378631Y-94025378D01*
X177378631Y-94263473D01*
X177331012Y-94358711D01*
X177283393Y-94406330D01*
X177188155Y-94453949D01*
X176950059Y-94453949D01*
X176854821Y-94406330D01*
X176807202Y-94358711D01*
X165857143Y-133227143D02*
X165809524Y-133274762D01*
X165666667Y-133322381D01*
X165571429Y-133322381D01*
X165428571Y-133274762D01*
X165333333Y-133179524D01*
X165285714Y-133084286D01*
X165238095Y-132893810D01*
X165238095Y-132750952D01*
X165285714Y-132560476D01*
X165333333Y-132465238D01*
X165428571Y-132370000D01*
X165571429Y-132322381D01*
X165666667Y-132322381D01*
X165809524Y-132370000D01*
X165857143Y-132417619D01*
X166238095Y-132417619D02*
X166285714Y-132370000D01*
X166380952Y-132322381D01*
X166619048Y-132322381D01*
X166714286Y-132370000D01*
X166761905Y-132417619D01*
X166809524Y-132512857D01*
X166809524Y-132608095D01*
X166761905Y-132750952D01*
X166190476Y-133322381D01*
X166809524Y-133322381D01*
X167666667Y-132322381D02*
X167476190Y-132322381D01*
X167380952Y-132370000D01*
X167333333Y-132417619D01*
X167238095Y-132560476D01*
X167190476Y-132750952D01*
X167190476Y-133131905D01*
X167238095Y-133227143D01*
X167285714Y-133274762D01*
X167380952Y-133322381D01*
X167571429Y-133322381D01*
X167666667Y-133274762D01*
X167714286Y-133227143D01*
X167761905Y-133131905D01*
X167761905Y-132893810D01*
X167714286Y-132798571D01*
X167666667Y-132750952D01*
X167571429Y-132703333D01*
X167380952Y-132703333D01*
X167285714Y-132750952D01*
X167238095Y-132798571D01*
X167190476Y-132893810D01*
X162457143Y-137227143D02*
X162409524Y-137274762D01*
X162266667Y-137322381D01*
X162171429Y-137322381D01*
X162028571Y-137274762D01*
X161933333Y-137179524D01*
X161885714Y-137084286D01*
X161838095Y-136893810D01*
X161838095Y-136750952D01*
X161885714Y-136560476D01*
X161933333Y-136465238D01*
X162028571Y-136370000D01*
X162171429Y-136322381D01*
X162266667Y-136322381D01*
X162409524Y-136370000D01*
X162457143Y-136417619D01*
X162838095Y-136417619D02*
X162885714Y-136370000D01*
X162980952Y-136322381D01*
X163219048Y-136322381D01*
X163314286Y-136370000D01*
X163361905Y-136417619D01*
X163409524Y-136512857D01*
X163409524Y-136608095D01*
X163361905Y-136750952D01*
X162790476Y-137322381D01*
X163409524Y-137322381D01*
X163980952Y-136750952D02*
X163885714Y-136703333D01*
X163838095Y-136655714D01*
X163790476Y-136560476D01*
X163790476Y-136512857D01*
X163838095Y-136417619D01*
X163885714Y-136370000D01*
X163980952Y-136322381D01*
X164171429Y-136322381D01*
X164266667Y-136370000D01*
X164314286Y-136417619D01*
X164361905Y-136512857D01*
X164361905Y-136560476D01*
X164314286Y-136655714D01*
X164266667Y-136703333D01*
X164171429Y-136750952D01*
X163980952Y-136750952D01*
X163885714Y-136798571D01*
X163838095Y-136846190D01*
X163790476Y-136941429D01*
X163790476Y-137131905D01*
X163838095Y-137227143D01*
X163885714Y-137274762D01*
X163980952Y-137322381D01*
X164171429Y-137322381D01*
X164266667Y-137274762D01*
X164314286Y-137227143D01*
X164361905Y-137131905D01*
X164361905Y-136941429D01*
X164314286Y-136846190D01*
X164266667Y-136798571D01*
X164171429Y-136750952D01*
X182652381Y-145266666D02*
X182176190Y-145600000D01*
X182652381Y-145838095D02*
X181652381Y-145838095D01*
X181652381Y-145457142D01*
X181700000Y-145361904D01*
X181747619Y-145314285D01*
X181842857Y-145266666D01*
X181985714Y-145266666D01*
X182080952Y-145314285D01*
X182128571Y-145361904D01*
X182176190Y-145457142D01*
X182176190Y-145838095D01*
X182652381Y-144314285D02*
X182652381Y-144885714D01*
X182652381Y-144600000D02*
X181652381Y-144600000D01*
X181795238Y-144695238D01*
X181890476Y-144790476D01*
X181938095Y-144885714D01*
X179652381Y-145266666D02*
X179176190Y-145600000D01*
X179652381Y-145838095D02*
X178652381Y-145838095D01*
X178652381Y-145457142D01*
X178700000Y-145361904D01*
X178747619Y-145314285D01*
X178842857Y-145266666D01*
X178985714Y-145266666D01*
X179080952Y-145314285D01*
X179128571Y-145361904D01*
X179176190Y-145457142D01*
X179176190Y-145838095D01*
X178747619Y-144885714D02*
X178700000Y-144838095D01*
X178652381Y-144742857D01*
X178652381Y-144504761D01*
X178700000Y-144409523D01*
X178747619Y-144361904D01*
X178842857Y-144314285D01*
X178938095Y-144314285D01*
X179080952Y-144361904D01*
X179652381Y-144933333D01*
X179652381Y-144314285D01*
X176652381Y-145266666D02*
X176176190Y-145600000D01*
X176652381Y-145838095D02*
X175652381Y-145838095D01*
X175652381Y-145457142D01*
X175700000Y-145361904D01*
X175747619Y-145314285D01*
X175842857Y-145266666D01*
X175985714Y-145266666D01*
X176080952Y-145314285D01*
X176128571Y-145361904D01*
X176176190Y-145457142D01*
X176176190Y-145838095D01*
X175652381Y-144933333D02*
X175652381Y-144314285D01*
X176033333Y-144647619D01*
X176033333Y-144504761D01*
X176080952Y-144409523D01*
X176128571Y-144361904D01*
X176223810Y-144314285D01*
X176461905Y-144314285D01*
X176557143Y-144361904D01*
X176604762Y-144409523D01*
X176652381Y-144504761D01*
X176652381Y-144790476D01*
X176604762Y-144885714D01*
X176557143Y-144933333D01*
X134733334Y-129702381D02*
X134400000Y-129226190D01*
X134161905Y-129702381D02*
X134161905Y-128702381D01*
X134542858Y-128702381D01*
X134638096Y-128750000D01*
X134685715Y-128797619D01*
X134733334Y-128892857D01*
X134733334Y-129035714D01*
X134685715Y-129130952D01*
X134638096Y-129178571D01*
X134542858Y-129226190D01*
X134161905Y-129226190D01*
X135590477Y-129035714D02*
X135590477Y-129702381D01*
X135352381Y-128654762D02*
X135114286Y-129369048D01*
X135733334Y-129369048D01*
X135852381Y-92766666D02*
X135376190Y-93100000D01*
X135852381Y-93338095D02*
X134852381Y-93338095D01*
X134852381Y-92957142D01*
X134900000Y-92861904D01*
X134947619Y-92814285D01*
X135042857Y-92766666D01*
X135185714Y-92766666D01*
X135280952Y-92814285D01*
X135328571Y-92861904D01*
X135376190Y-92957142D01*
X135376190Y-93338095D01*
X134852381Y-91861904D02*
X134852381Y-92338095D01*
X135328571Y-92385714D01*
X135280952Y-92338095D01*
X135233333Y-92242857D01*
X135233333Y-92004761D01*
X135280952Y-91909523D01*
X135328571Y-91861904D01*
X135423810Y-91814285D01*
X135661905Y-91814285D01*
X135757143Y-91861904D01*
X135804762Y-91909523D01*
X135852381Y-92004761D01*
X135852381Y-92242857D01*
X135804762Y-92338095D01*
X135757143Y-92385714D01*
X140333334Y-87552381D02*
X140000000Y-87076190D01*
X139761905Y-87552381D02*
X139761905Y-86552381D01*
X140142858Y-86552381D01*
X140238096Y-86600000D01*
X140285715Y-86647619D01*
X140333334Y-86742857D01*
X140333334Y-86885714D01*
X140285715Y-86980952D01*
X140238096Y-87028571D01*
X140142858Y-87076190D01*
X139761905Y-87076190D01*
X141190477Y-86552381D02*
X141000000Y-86552381D01*
X140904762Y-86600000D01*
X140857143Y-86647619D01*
X140761905Y-86790476D01*
X140714286Y-86980952D01*
X140714286Y-87361905D01*
X140761905Y-87457143D01*
X140809524Y-87504762D01*
X140904762Y-87552381D01*
X141095239Y-87552381D01*
X141190477Y-87504762D01*
X141238096Y-87457143D01*
X141285715Y-87361905D01*
X141285715Y-87123810D01*
X141238096Y-87028571D01*
X141190477Y-86980952D01*
X141095239Y-86933333D01*
X140904762Y-86933333D01*
X140809524Y-86980952D01*
X140761905Y-87028571D01*
X140714286Y-87123810D01*
X154833334Y-71652381D02*
X154500000Y-71176190D01*
X154261905Y-71652381D02*
X154261905Y-70652381D01*
X154642858Y-70652381D01*
X154738096Y-70700000D01*
X154785715Y-70747619D01*
X154833334Y-70842857D01*
X154833334Y-70985714D01*
X154785715Y-71080952D01*
X154738096Y-71128571D01*
X154642858Y-71176190D01*
X154261905Y-71176190D01*
X155166667Y-70652381D02*
X155833334Y-70652381D01*
X155404762Y-71652381D01*
X155933334Y-77202381D02*
X155600000Y-76726190D01*
X155361905Y-77202381D02*
X155361905Y-76202381D01*
X155742858Y-76202381D01*
X155838096Y-76250000D01*
X155885715Y-76297619D01*
X155933334Y-76392857D01*
X155933334Y-76535714D01*
X155885715Y-76630952D01*
X155838096Y-76678571D01*
X155742858Y-76726190D01*
X155361905Y-76726190D01*
X156504762Y-76630952D02*
X156409524Y-76583333D01*
X156361905Y-76535714D01*
X156314286Y-76440476D01*
X156314286Y-76392857D01*
X156361905Y-76297619D01*
X156409524Y-76250000D01*
X156504762Y-76202381D01*
X156695239Y-76202381D01*
X156790477Y-76250000D01*
X156838096Y-76297619D01*
X156885715Y-76392857D01*
X156885715Y-76440476D01*
X156838096Y-76535714D01*
X156790477Y-76583333D01*
X156695239Y-76630952D01*
X156504762Y-76630952D01*
X156409524Y-76678571D01*
X156361905Y-76726190D01*
X156314286Y-76821429D01*
X156314286Y-77011905D01*
X156361905Y-77107143D01*
X156409524Y-77154762D01*
X156504762Y-77202381D01*
X156695239Y-77202381D01*
X156790477Y-77154762D01*
X156838096Y-77107143D01*
X156885715Y-77011905D01*
X156885715Y-76821429D01*
X156838096Y-76726190D01*
X156790477Y-76678571D01*
X156695239Y-76630952D01*
X165833334Y-129502381D02*
X165500000Y-129026190D01*
X165261905Y-129502381D02*
X165261905Y-128502381D01*
X165642858Y-128502381D01*
X165738096Y-128550000D01*
X165785715Y-128597619D01*
X165833334Y-128692857D01*
X165833334Y-128835714D01*
X165785715Y-128930952D01*
X165738096Y-128978571D01*
X165642858Y-129026190D01*
X165261905Y-129026190D01*
X166309524Y-129502381D02*
X166500000Y-129502381D01*
X166595239Y-129454762D01*
X166642858Y-129407143D01*
X166738096Y-129264286D01*
X166785715Y-129073810D01*
X166785715Y-128692857D01*
X166738096Y-128597619D01*
X166690477Y-128550000D01*
X166595239Y-128502381D01*
X166404762Y-128502381D01*
X166309524Y-128550000D01*
X166261905Y-128597619D01*
X166214286Y-128692857D01*
X166214286Y-128930952D01*
X166261905Y-129026190D01*
X166309524Y-129073810D01*
X166404762Y-129121429D01*
X166595239Y-129121429D01*
X166690477Y-129073810D01*
X166738096Y-129026190D01*
X166785715Y-128930952D01*
X175473869Y-95423949D02*
X175140535Y-94947758D01*
X174902440Y-95423949D02*
X174902440Y-94423949D01*
X175283393Y-94423949D01*
X175378631Y-94471568D01*
X175426250Y-94519187D01*
X175473869Y-94614425D01*
X175473869Y-94757282D01*
X175426250Y-94852520D01*
X175378631Y-94900139D01*
X175283393Y-94947758D01*
X174902440Y-94947758D01*
X176426250Y-95423949D02*
X175854821Y-95423949D01*
X176140535Y-95423949D02*
X176140535Y-94423949D01*
X176045297Y-94566806D01*
X175950059Y-94662044D01*
X175854821Y-94709663D01*
X177045297Y-94423949D02*
X177140536Y-94423949D01*
X177235774Y-94471568D01*
X177283393Y-94519187D01*
X177331012Y-94614425D01*
X177378631Y-94804901D01*
X177378631Y-95042997D01*
X177331012Y-95233473D01*
X177283393Y-95328711D01*
X177235774Y-95376330D01*
X177140536Y-95423949D01*
X177045297Y-95423949D01*
X176950059Y-95376330D01*
X176902440Y-95328711D01*
X176854821Y-95233473D01*
X176807202Y-95042997D01*
X176807202Y-94804901D01*
X176854821Y-94614425D01*
X176902440Y-94519187D01*
X176950059Y-94471568D01*
X177045297Y-94423949D01*
X170273869Y-98173949D02*
X169940535Y-97697758D01*
X169702440Y-98173949D02*
X169702440Y-97173949D01*
X170083393Y-97173949D01*
X170178631Y-97221568D01*
X170226250Y-97269187D01*
X170273869Y-97364425D01*
X170273869Y-97507282D01*
X170226250Y-97602520D01*
X170178631Y-97650139D01*
X170083393Y-97697758D01*
X169702440Y-97697758D01*
X171226250Y-98173949D02*
X170654821Y-98173949D01*
X170940535Y-98173949D02*
X170940535Y-97173949D01*
X170845297Y-97316806D01*
X170750059Y-97412044D01*
X170654821Y-97459663D01*
X172178631Y-98173949D02*
X171607202Y-98173949D01*
X171892916Y-98173949D02*
X171892916Y-97173949D01*
X171797678Y-97316806D01*
X171702440Y-97412044D01*
X171607202Y-97459663D01*
X168323869Y-98173949D02*
X167990535Y-97697758D01*
X167752440Y-98173949D02*
X167752440Y-97173949D01*
X168133393Y-97173949D01*
X168228631Y-97221568D01*
X168276250Y-97269187D01*
X168323869Y-97364425D01*
X168323869Y-97507282D01*
X168276250Y-97602520D01*
X168228631Y-97650139D01*
X168133393Y-97697758D01*
X167752440Y-97697758D01*
X169276250Y-98173949D02*
X168704821Y-98173949D01*
X168990535Y-98173949D02*
X168990535Y-97173949D01*
X168895297Y-97316806D01*
X168800059Y-97412044D01*
X168704821Y-97459663D01*
X169657202Y-97269187D02*
X169704821Y-97221568D01*
X169800059Y-97173949D01*
X170038155Y-97173949D01*
X170133393Y-97221568D01*
X170181012Y-97269187D01*
X170228631Y-97364425D01*
X170228631Y-97459663D01*
X170181012Y-97602520D01*
X169609583Y-98173949D01*
X170228631Y-98173949D01*
D14*
X136707452Y-91946358D02*
X136580452Y-91946358D01*
X136580452Y-91897977D01*
X136586500Y-91885882D01*
X136592548Y-91879834D01*
X136604643Y-91873786D01*
X136622786Y-91873786D01*
X136634881Y-91879834D01*
X136640929Y-91885882D01*
X136646976Y-91897977D01*
X136646976Y-91946358D01*
X136707452Y-91801215D02*
X136701405Y-91813310D01*
X136689310Y-91819358D01*
X136580452Y-91819358D01*
X136707452Y-91698405D02*
X136640929Y-91698405D01*
X136628833Y-91704453D01*
X136622786Y-91716548D01*
X136622786Y-91740739D01*
X136628833Y-91752834D01*
X136701405Y-91698405D02*
X136707452Y-91710501D01*
X136707452Y-91740739D01*
X136701405Y-91752834D01*
X136689310Y-91758882D01*
X136677214Y-91758882D01*
X136665119Y-91752834D01*
X136659071Y-91740739D01*
X136659071Y-91710501D01*
X136653024Y-91698405D01*
X136701405Y-91583500D02*
X136707452Y-91595596D01*
X136707452Y-91619786D01*
X136701405Y-91631881D01*
X136695357Y-91637929D01*
X136683262Y-91643977D01*
X136646976Y-91643977D01*
X136634881Y-91637929D01*
X136628833Y-91631881D01*
X136622786Y-91619786D01*
X136622786Y-91595596D01*
X136628833Y-91583500D01*
X136701405Y-91480691D02*
X136707452Y-91492786D01*
X136707452Y-91516977D01*
X136701405Y-91529072D01*
X136689310Y-91535120D01*
X136640929Y-91535120D01*
X136628833Y-91529072D01*
X136622786Y-91516977D01*
X136622786Y-91492786D01*
X136628833Y-91480691D01*
X136640929Y-91474643D01*
X136653024Y-91474643D01*
X136665119Y-91535120D01*
X136580452Y-91299262D02*
X136580452Y-91287167D01*
X136586500Y-91275072D01*
X136592548Y-91269024D01*
X136604643Y-91262977D01*
X136628833Y-91256929D01*
X136659071Y-91256929D01*
X136683262Y-91262977D01*
X136695357Y-91269024D01*
X136701405Y-91275072D01*
X136707452Y-91287167D01*
X136707452Y-91299262D01*
X136701405Y-91311358D01*
X136695357Y-91317405D01*
X136683262Y-91323453D01*
X136659071Y-91329501D01*
X136628833Y-91329501D01*
X136604643Y-91323453D01*
X136592548Y-91317405D01*
X136586500Y-91311358D01*
X136580452Y-91299262D01*
X136695357Y-91202501D02*
X136701405Y-91196453D01*
X136707452Y-91202501D01*
X136701405Y-91208549D01*
X136695357Y-91202501D01*
X136707452Y-91202501D01*
X136580452Y-91154120D02*
X136580452Y-91075501D01*
X136628833Y-91117834D01*
X136628833Y-91099692D01*
X136634881Y-91087596D01*
X136640929Y-91081549D01*
X136653024Y-91075501D01*
X136683262Y-91075501D01*
X136695357Y-91081549D01*
X136701405Y-91087596D01*
X136707452Y-91099692D01*
X136707452Y-91135977D01*
X136701405Y-91148073D01*
X136695357Y-91154120D01*
X136707452Y-91021073D02*
X136622786Y-91021073D01*
X136634881Y-91021073D02*
X136628833Y-91015025D01*
X136622786Y-91002930D01*
X136622786Y-90984787D01*
X136628833Y-90972692D01*
X136640929Y-90966644D01*
X136707452Y-90966644D01*
X136640929Y-90966644D02*
X136628833Y-90960597D01*
X136622786Y-90948501D01*
X136622786Y-90930359D01*
X136628833Y-90918263D01*
X136640929Y-90912216D01*
X136707452Y-90912216D01*
X136707452Y-90851740D02*
X136622786Y-90851740D01*
X136634881Y-90851740D02*
X136628833Y-90845692D01*
X136622786Y-90833597D01*
X136622786Y-90815454D01*
X136628833Y-90803359D01*
X136640929Y-90797311D01*
X136707452Y-90797311D01*
X136640929Y-90797311D02*
X136628833Y-90791264D01*
X136622786Y-90779168D01*
X136622786Y-90761026D01*
X136628833Y-90748930D01*
X136640929Y-90742883D01*
X136707452Y-90742883D01*
X136622786Y-90597740D02*
X136707452Y-90567502D01*
X136622786Y-90537264D01*
X136707452Y-90488883D02*
X136622786Y-90488883D01*
X136580452Y-90488883D02*
X136586500Y-90494931D01*
X136592548Y-90488883D01*
X136586500Y-90482835D01*
X136580452Y-90488883D01*
X136592548Y-90488883D01*
X136707452Y-90373978D02*
X136640929Y-90373978D01*
X136628833Y-90380026D01*
X136622786Y-90392121D01*
X136622786Y-90416312D01*
X136628833Y-90428407D01*
X136701405Y-90373978D02*
X136707452Y-90386074D01*
X136707452Y-90416312D01*
X136701405Y-90428407D01*
X136689310Y-90434455D01*
X136677214Y-90434455D01*
X136665119Y-90428407D01*
X136659071Y-90416312D01*
X136659071Y-90386074D01*
X136653024Y-90373978D01*
X136701405Y-90319550D02*
X136707452Y-90307454D01*
X136707452Y-90283264D01*
X136701405Y-90271169D01*
X136689310Y-90265121D01*
X136683262Y-90265121D01*
X136671167Y-90271169D01*
X136665119Y-90283264D01*
X136665119Y-90301407D01*
X136659071Y-90313502D01*
X136646976Y-90319550D01*
X136640929Y-90319550D01*
X136628833Y-90313502D01*
X136622786Y-90301407D01*
X136622786Y-90283264D01*
X136628833Y-90271169D01*
X136707452Y-90095787D02*
X136701405Y-90107882D01*
X136695357Y-90113930D01*
X136683262Y-90119978D01*
X136646976Y-90119978D01*
X136634881Y-90113930D01*
X136628833Y-90107882D01*
X136622786Y-90095787D01*
X136622786Y-90077644D01*
X136628833Y-90065549D01*
X136634881Y-90059501D01*
X136646976Y-90053454D01*
X136683262Y-90053454D01*
X136695357Y-90059501D01*
X136701405Y-90065549D01*
X136707452Y-90077644D01*
X136707452Y-90095787D01*
X136622786Y-89999025D02*
X136707452Y-89999025D01*
X136634881Y-89999025D02*
X136628833Y-89992977D01*
X136622786Y-89980882D01*
X136622786Y-89962739D01*
X136628833Y-89950644D01*
X136640929Y-89944596D01*
X136707452Y-89944596D01*
X136622786Y-89787358D02*
X136749786Y-89787358D01*
X136628833Y-89787358D02*
X136622786Y-89775263D01*
X136622786Y-89751072D01*
X136628833Y-89738977D01*
X136634881Y-89732929D01*
X136646976Y-89726882D01*
X136683262Y-89726882D01*
X136695357Y-89732929D01*
X136701405Y-89738977D01*
X136707452Y-89751072D01*
X136707452Y-89775263D01*
X136701405Y-89787358D01*
X136707452Y-89654310D02*
X136701405Y-89666405D01*
X136689310Y-89672453D01*
X136580452Y-89672453D01*
X136707452Y-89551500D02*
X136640929Y-89551500D01*
X136628833Y-89557548D01*
X136622786Y-89569643D01*
X136622786Y-89593834D01*
X136628833Y-89605929D01*
X136701405Y-89551500D02*
X136707452Y-89563596D01*
X136707452Y-89593834D01*
X136701405Y-89605929D01*
X136689310Y-89611977D01*
X136677214Y-89611977D01*
X136665119Y-89605929D01*
X136659071Y-89593834D01*
X136659071Y-89563596D01*
X136653024Y-89551500D01*
X136701405Y-89436595D02*
X136707452Y-89448691D01*
X136707452Y-89472881D01*
X136701405Y-89484976D01*
X136695357Y-89491024D01*
X136683262Y-89497072D01*
X136646976Y-89497072D01*
X136634881Y-89491024D01*
X136628833Y-89484976D01*
X136622786Y-89472881D01*
X136622786Y-89448691D01*
X136628833Y-89436595D01*
X136701405Y-89333786D02*
X136707452Y-89345881D01*
X136707452Y-89370072D01*
X136701405Y-89382167D01*
X136689310Y-89388215D01*
X136640929Y-89388215D01*
X136628833Y-89382167D01*
X136622786Y-89370072D01*
X136622786Y-89345881D01*
X136628833Y-89333786D01*
X136640929Y-89327738D01*
X136653024Y-89327738D01*
X136665119Y-89388215D01*
X136701405Y-89279358D02*
X136707452Y-89267262D01*
X136707452Y-89243072D01*
X136701405Y-89230977D01*
X136689310Y-89224929D01*
X136683262Y-89224929D01*
X136671167Y-89230977D01*
X136665119Y-89243072D01*
X136665119Y-89261215D01*
X136659071Y-89273310D01*
X136646976Y-89279358D01*
X136640929Y-89279358D01*
X136628833Y-89273310D01*
X136622786Y-89261215D01*
X136622786Y-89243072D01*
X136628833Y-89230977D01*
X136701405Y-89079786D02*
X136707452Y-89067690D01*
X136707452Y-89043500D01*
X136701405Y-89031405D01*
X136689310Y-89025357D01*
X136683262Y-89025357D01*
X136671167Y-89031405D01*
X136665119Y-89043500D01*
X136665119Y-89061643D01*
X136659071Y-89073738D01*
X136646976Y-89079786D01*
X136640929Y-89079786D01*
X136628833Y-89073738D01*
X136622786Y-89061643D01*
X136622786Y-89043500D01*
X136628833Y-89031405D01*
X136707452Y-88970928D02*
X136580452Y-88970928D01*
X136707452Y-88916499D02*
X136640929Y-88916499D01*
X136628833Y-88922547D01*
X136622786Y-88934642D01*
X136622786Y-88952785D01*
X136628833Y-88964880D01*
X136634881Y-88970928D01*
X136707452Y-88837880D02*
X136701405Y-88849975D01*
X136695357Y-88856023D01*
X136683262Y-88862071D01*
X136646976Y-88862071D01*
X136634881Y-88856023D01*
X136628833Y-88849975D01*
X136622786Y-88837880D01*
X136622786Y-88819737D01*
X136628833Y-88807642D01*
X136634881Y-88801594D01*
X136646976Y-88795547D01*
X136683262Y-88795547D01*
X136695357Y-88801594D01*
X136701405Y-88807642D01*
X136707452Y-88819737D01*
X136707452Y-88837880D01*
X136622786Y-88753213D02*
X136707452Y-88729023D01*
X136646976Y-88704832D01*
X136707452Y-88680642D01*
X136622786Y-88656451D01*
X136622786Y-88608070D02*
X136707452Y-88608070D01*
X136634881Y-88608070D02*
X136628833Y-88602022D01*
X136622786Y-88589927D01*
X136622786Y-88571784D01*
X136628833Y-88559689D01*
X136640929Y-88553641D01*
X136707452Y-88553641D01*
D13*
X143857143Y-90857143D02*
X143809524Y-90904762D01*
X143666667Y-90952381D01*
X143571429Y-90952381D01*
X143428571Y-90904762D01*
X143333333Y-90809524D01*
X143285714Y-90714286D01*
X143238095Y-90523810D01*
X143238095Y-90380952D01*
X143285714Y-90190476D01*
X143333333Y-90095238D01*
X143428571Y-90000000D01*
X143571429Y-89952381D01*
X143666667Y-89952381D01*
X143809524Y-90000000D01*
X143857143Y-90047619D01*
X144238095Y-90047619D02*
X144285714Y-90000000D01*
X144380952Y-89952381D01*
X144619048Y-89952381D01*
X144714286Y-90000000D01*
X144761905Y-90047619D01*
X144809524Y-90142857D01*
X144809524Y-90238095D01*
X144761905Y-90380952D01*
X144190476Y-90952381D01*
X144809524Y-90952381D01*
X145761905Y-90952381D02*
X145190476Y-90952381D01*
X145476190Y-90952381D02*
X145476190Y-89952381D01*
X145380952Y-90095238D01*
X145285714Y-90190476D01*
X145190476Y-90238095D01*
X173123869Y-91964425D02*
X173171488Y-92012044D01*
X173219107Y-92154901D01*
X173219107Y-92250139D01*
X173171488Y-92392997D01*
X173076250Y-92488235D01*
X172981012Y-92535854D01*
X172790536Y-92583473D01*
X172647678Y-92583473D01*
X172457202Y-92535854D01*
X172361964Y-92488235D01*
X172266726Y-92392997D01*
X172219107Y-92250139D01*
X172219107Y-92154901D01*
X172266726Y-92012044D01*
X172314345Y-91964425D01*
X172314345Y-91583473D02*
X172266726Y-91535854D01*
X172219107Y-91440616D01*
X172219107Y-91202520D01*
X172266726Y-91107282D01*
X172314345Y-91059663D01*
X172409583Y-91012044D01*
X172504821Y-91012044D01*
X172647678Y-91059663D01*
X173219107Y-91631092D01*
X173219107Y-91012044D01*
X172219107Y-90678711D02*
X172219107Y-90012044D01*
X173219107Y-90440616D01*
X165657143Y-138957143D02*
X165609524Y-139004762D01*
X165466667Y-139052381D01*
X165371429Y-139052381D01*
X165228571Y-139004762D01*
X165133333Y-138909524D01*
X165085714Y-138814286D01*
X165038095Y-138623810D01*
X165038095Y-138480952D01*
X165085714Y-138290476D01*
X165133333Y-138195238D01*
X165228571Y-138100000D01*
X165371429Y-138052381D01*
X165466667Y-138052381D01*
X165609524Y-138100000D01*
X165657143Y-138147619D01*
X166038095Y-138147619D02*
X166085714Y-138100000D01*
X166180952Y-138052381D01*
X166419048Y-138052381D01*
X166514286Y-138100000D01*
X166561905Y-138147619D01*
X166609524Y-138242857D01*
X166609524Y-138338095D01*
X166561905Y-138480952D01*
X165990476Y-139052381D01*
X166609524Y-139052381D01*
X167085714Y-139052381D02*
X167276190Y-139052381D01*
X167371429Y-139004762D01*
X167419048Y-138957143D01*
X167514286Y-138814286D01*
X167561905Y-138623810D01*
X167561905Y-138242857D01*
X167514286Y-138147619D01*
X167466667Y-138100000D01*
X167371429Y-138052381D01*
X167180952Y-138052381D01*
X167085714Y-138100000D01*
X167038095Y-138147619D01*
X166990476Y-138242857D01*
X166990476Y-138480952D01*
X167038095Y-138576190D01*
X167085714Y-138623810D01*
X167180952Y-138671429D01*
X167371429Y-138671429D01*
X167466667Y-138623810D01*
X167514286Y-138576190D01*
X167561905Y-138480952D01*
X169723869Y-91964425D02*
X169771488Y-92012044D01*
X169819107Y-92154901D01*
X169819107Y-92250139D01*
X169771488Y-92392997D01*
X169676250Y-92488235D01*
X169581012Y-92535854D01*
X169390536Y-92583473D01*
X169247678Y-92583473D01*
X169057202Y-92535854D01*
X168961964Y-92488235D01*
X168866726Y-92392997D01*
X168819107Y-92250139D01*
X168819107Y-92154901D01*
X168866726Y-92012044D01*
X168914345Y-91964425D01*
X168819107Y-91631092D02*
X168819107Y-91012044D01*
X169200059Y-91345378D01*
X169200059Y-91202520D01*
X169247678Y-91107282D01*
X169295297Y-91059663D01*
X169390536Y-91012044D01*
X169628631Y-91012044D01*
X169723869Y-91059663D01*
X169771488Y-91107282D01*
X169819107Y-91202520D01*
X169819107Y-91488235D01*
X169771488Y-91583473D01*
X169723869Y-91631092D01*
X168819107Y-90392997D02*
X168819107Y-90297758D01*
X168866726Y-90202520D01*
X168914345Y-90154901D01*
X169009583Y-90107282D01*
X169200059Y-90059663D01*
X169438155Y-90059663D01*
X169628631Y-90107282D01*
X169723869Y-90154901D01*
X169771488Y-90202520D01*
X169819107Y-90297758D01*
X169819107Y-90392997D01*
X169771488Y-90488235D01*
X169723869Y-90535854D01*
X169628631Y-90583473D01*
X169438155Y-90631092D01*
X169200059Y-90631092D01*
X169009583Y-90583473D01*
X168914345Y-90535854D01*
X168866726Y-90488235D01*
X168819107Y-90392997D01*
X173402381Y-145742857D02*
X172926190Y-146076191D01*
X173402381Y-146314286D02*
X172402381Y-146314286D01*
X172402381Y-145933333D01*
X172450000Y-145838095D01*
X172497619Y-145790476D01*
X172592857Y-145742857D01*
X172735714Y-145742857D01*
X172830952Y-145790476D01*
X172878571Y-145838095D01*
X172926190Y-145933333D01*
X172926190Y-146314286D01*
X173402381Y-144790476D02*
X173402381Y-145361905D01*
X173402381Y-145076191D02*
X172402381Y-145076191D01*
X172545238Y-145171429D01*
X172640476Y-145266667D01*
X172688095Y-145361905D01*
X172402381Y-144457143D02*
X172402381Y-143838095D01*
X172783333Y-144171429D01*
X172783333Y-144028571D01*
X172830952Y-143933333D01*
X172878571Y-143885714D01*
X172973810Y-143838095D01*
X173211905Y-143838095D01*
X173307143Y-143885714D01*
X173354762Y-143933333D01*
X173402381Y-144028571D01*
X173402381Y-144314286D01*
X173354762Y-144409524D01*
X173307143Y-144457143D01*
X138057143Y-95742857D02*
X138104762Y-95790476D01*
X138152381Y-95933333D01*
X138152381Y-96028571D01*
X138104762Y-96171429D01*
X138009524Y-96266667D01*
X137914286Y-96314286D01*
X137723810Y-96361905D01*
X137580952Y-96361905D01*
X137390476Y-96314286D01*
X137295238Y-96266667D01*
X137200000Y-96171429D01*
X137152381Y-96028571D01*
X137152381Y-95933333D01*
X137200000Y-95790476D01*
X137247619Y-95742857D01*
X138152381Y-94790476D02*
X138152381Y-95361905D01*
X138152381Y-95076191D02*
X137152381Y-95076191D01*
X137295238Y-95171429D01*
X137390476Y-95266667D01*
X137438095Y-95361905D01*
X137580952Y-94219048D02*
X137533333Y-94314286D01*
X137485714Y-94361905D01*
X137390476Y-94409524D01*
X137342857Y-94409524D01*
X137247619Y-94361905D01*
X137200000Y-94314286D01*
X137152381Y-94219048D01*
X137152381Y-94028571D01*
X137200000Y-93933333D01*
X137247619Y-93885714D01*
X137342857Y-93838095D01*
X137390476Y-93838095D01*
X137485714Y-93885714D01*
X137533333Y-93933333D01*
X137580952Y-94028571D01*
X137580952Y-94219048D01*
X137628571Y-94314286D01*
X137676190Y-94361905D01*
X137771429Y-94409524D01*
X137961905Y-94409524D01*
X138057143Y-94361905D01*
X138104762Y-94314286D01*
X138152381Y-94219048D01*
X138152381Y-94028571D01*
X138104762Y-93933333D01*
X138057143Y-93885714D01*
X137961905Y-93838095D01*
X137771429Y-93838095D01*
X137676190Y-93885714D01*
X137628571Y-93933333D01*
X137580952Y-94028571D01*
M02*
