M48
;DRILL file {KiCad 4.0.7-e2-6376~58~ubuntu16.04.1} date Sun Apr 29 22:17:48 2018
;FORMAT={-:-/ absolute / inch / decimal}
FMAT,2
INCH,TZ
T1C0.012
T2C0.016
T3C0.026
T4C0.030
T5C0.039
T6C0.040
T7C0.059
T8C0.063
T9C0.125
%
G90
G05
M72
T1
X6.0413Y-4.4283
X6.0413Y-4.4512
X6.0413Y-4.4752
T2
X4.4531Y-4.7854
X4.4685Y-4.2126
X4.4685Y-4.2717
X4.4685Y-4.3209
X4.4685Y-4.3602
X4.4685Y-4.3996
X4.4685Y-4.4587
X4.4685Y-4.5079
X4.4685Y-4.5571
X4.4685Y-4.6161
X4.4685Y-4.6752
X4.4685Y-4.7343
X4.4685Y-4.9803
X4.4844Y-4.7898
X4.4882Y-4.1831
X4.4925Y-4.8524
X4.4925Y-4.894
X4.4976Y-3.0624
X4.4976Y-3.2976
X4.4976Y-3.5339
X4.4976Y-3.7701
X4.498Y-3.1693
X4.498Y-3.2382
X4.498Y-3.3661
X4.498Y-3.4154
X4.498Y-3.4744
X4.498Y-3.5925
X4.498Y-3.6516
X4.498Y-3.7106
X4.498Y-3.8484
X4.498Y-3.9075
X4.5177Y-4.1535
X4.5177Y-5.0197
X4.538Y-3.022
X4.5571Y-3.3858
X4.5571Y-3.435
X4.5571Y-3.4843
X4.5571Y-3.5335
X4.5571Y-3.6024
X4.5571Y-3.6713
X4.5571Y-3.7402
X4.5571Y-3.7992
X4.5571Y-3.8484
X4.5571Y-3.9173
X4.5571Y-3.9764
X4.5571Y-4.065
X4.5571Y-4.1142
X4.5666Y-5.0594
X4.5768Y-3.3366
X4.5961Y-5.0889
X4.6063Y-3.0217
X4.6161Y-3.2972
X4.6161Y-4.3307
X4.6161Y-4.3996
X4.6161Y-4.4783
X4.6654Y-4.2717
X4.685Y-3.2972
X4.7047Y-3.0217
X4.7047Y-4.4783
X4.7047Y-4.6161
X4.7244Y-5.0886
X4.7343Y-3.2972
X4.7343Y-3.8878
X4.7343Y-3.937
X4.7343Y-3.9764
X4.7343Y-4.0453
X4.7343Y-4.0945
X4.7343Y-4.1437
X4.7343Y-4.2028
X4.7441Y-4.6161
X4.7441Y-4.9508
X4.7638Y-3.435
X4.7638Y-3.6713
X4.7693Y-3.022
X4.7693Y-4.0142
X4.7835Y-4.4783
X4.8031Y-3.2972
X4.8031Y-4.6161
X4.8228Y-3.9272
X4.8228Y-4.9508
X4.8228Y-5.0886
X4.8327Y-3.0217
X4.8425Y-4.0157
X4.8524Y-4.4783
X4.872Y-3.2972
X4.872Y-5.4035
X4.8819Y-4.6161
X4.9016Y-3.6811
X4.9016Y-3.7205
X4.9016Y-3.7992
X4.9016Y-3.8386
X4.9016Y-3.8878
X4.9114Y-5.0886
X4.9207Y-3.7593
X4.9213Y-3.0217
X4.9213Y-5.4035
X4.9311Y-4.0157
X4.9409Y-4.6161
X4.9508Y-3.2972
X4.9508Y-4.4783
X4.9606Y-3.6417
X4.9606Y-4.8819
X4.9719Y-5.1709
X4.9722Y-5.2339
X4.9724Y-5.2024
X5.Y-3.2972
X5.Y-5.0886
X5.0055Y-3.022
X5.0055Y-4.0142
X5.0098Y-4.6161
X5.0394Y-4.8819
X5.0394Y-5.0591
X5.0492Y-4.4783
X5.0689Y-5.0295
X5.0787Y-3.0217
X5.0787Y-3.2972
X5.0787Y-4.6161
X5.0811Y-5.2539
X5.0882Y-3.1386
X5.1083Y-3.4941
X5.1083Y-4.0157
X5.1083Y-4.8819
X5.1181Y-3.6122
X5.1181Y-3.7598
X5.128Y-3.2972
X5.128Y-5.0295
X5.1378Y-3.5335
X5.1378Y-4.4783
X5.1413Y-5.2791
X5.1476Y-4.6161
X5.1673Y-3.0217
X5.1724Y-3.1102
X5.1772Y-4.8819
X5.1858Y-3.5346
X5.187Y-3.2972
X5.2067Y-4.8295
X5.2067Y-5.0648
X5.2067Y-5.1378
X5.2067Y-5.2264
X5.2067Y-5.301
X5.2067Y-5.4232
X5.2067Y-5.4724
X5.2067Y-5.5372
X5.2067Y-5.6102
X5.2067Y-5.6693
X5.2067Y-5.7409
X5.2165Y-3.248
X5.2264Y-3.2776
X5.2362Y-3.2185
X5.2362Y-5.0492
X5.2362Y-5.0984
X5.2362Y-5.1476
X5.2417Y-3.022
X5.2417Y-4.0142
X5.2461Y-3.248
X5.247Y-4.7892
X5.247Y-5.7813
X5.2559Y-4.8819
X5.2657Y-3.2776
X5.2657Y-3.6024
X5.2679Y-3.3569
X5.2679Y-3.414
X5.2685Y-3.4992
X5.2756Y-3.2185
X5.2756Y-4.252
X5.2756Y-5.1969
X5.2854Y-2.874
X5.2854Y-3.248
X5.2854Y-4.4783
X5.2965Y-3.3854
X5.3051Y-3.2185
X5.3051Y-3.2776
X5.3051Y-4.0157
X5.3051Y-5.2264
X5.315Y-3.248
X5.3248Y-2.874
X5.3248Y-5.7776
X5.325Y-3.3569
X5.325Y-3.414
X5.3346Y-3.2776
X5.3346Y-4.8819
X5.3443Y-3.2186
X5.3445Y-4.6161
X5.3543Y-3.0217
X5.3543Y-3.248
X5.3571Y-3.6594
X5.3642Y-4.7933
X5.3661Y-3.5819
X5.374Y-2.8445
X5.374Y-3.2776
X5.374Y-3.4843
X5.374Y-5.0689
X5.374Y-5.2264
X5.3839Y-3.2244
X5.4134Y-5.7776
X5.4232Y-2.8445
X5.4232Y-5.0689
X5.4232Y-5.2264
X5.4331Y-4.4783
X5.4429Y-4.8819
X5.4528Y-3.1988
X5.4539Y-3.6031
X5.4724Y-2.8445
X5.4724Y-5.0689
X5.4724Y-5.2189
X5.4724Y-5.4268
X5.478Y-3.022
X5.478Y-4.0142
X5.4783Y-4.7892
X5.4823Y-3.7795
X5.4823Y-5.7579
X5.4921Y-3.4547
X5.502Y-3.4252
X5.5118Y-3.1988
X5.5217Y-2.8346
X5.5217Y-4.4783
X5.5217Y-4.8819
X5.5276Y-3.565
X5.5315Y-3.1594
X5.5315Y-3.6319
X5.5413Y-3.0217
X5.5505Y-4.4396
X5.5512Y-3.1004
X5.5512Y-4.2717
X5.5512Y-5.7677
X5.561Y-4.9213
X5.561Y-4.9803
X5.5709Y-2.8445
X5.5709Y-3.189
X5.5807Y-3.1299
X5.5807Y-4.6161
X5.5906Y-3.061
X5.5906Y-4.2421
X5.5984Y-3.6724
X5.5984Y-3.7472
X5.6004Y-4.0157
X5.6004Y-4.7933
X5.6102Y-5.0689
X5.6201Y-2.8346
X5.6201Y-3.5138
X5.6299Y-3.0217
X5.6398Y-3.061
X5.6496Y-5.7677
X5.6594Y-5.4134
X5.6791Y-2.4311
X5.6791Y-3.4941
X5.689Y-4.5965
X5.6988Y-3.061
X5.7087Y-2.687
X5.7087Y-4.2421
X5.7087Y-5.0689
X5.7142Y-3.022
X5.7142Y-4.0142
X5.7146Y-4.7892
X5.7146Y-5.7753
X5.7283Y-3.3563
X5.7283Y-3.6516
X5.748Y-3.061
X5.748Y-4.5374
X5.7677Y-5.4528
X5.7874Y-3.0217
X5.7972Y-3.1299
X5.7972Y-4.2618
X5.7972Y-5.7677
X5.8071Y-3.0709
X5.8071Y-3.4843
X5.8071Y-4.5965
X5.8071Y-5.0689
X5.8268Y-4.7933
X5.8268Y-5.3346
X5.8366Y-3.1102
X5.8366Y-3.1594
X5.8366Y-3.2087
X5.8366Y-4.0157
X5.8366Y-5.5315
X5.8465Y-3.4055
X5.8563Y-5.2362
X5.8563Y-5.3642
X5.8661Y-3.0217
X5.872Y-4.5504
X5.876Y-5.7677
X5.8858Y-3.6417
X5.8862Y-4.8949
X5.8957Y-3.2185
X5.8957Y-4.5965
X5.8984Y-5.2996
X5.9154Y-5.0197
X5.9154Y-5.0492
X5.9251Y-4.9901
X5.9252Y-3.4941
X5.9252Y-4.2618
X5.9252Y-4.8382
X5.9449Y-3.2677
X5.9449Y-5.0197
X5.9494Y-3.022
X5.9494Y-4.0142
X5.9508Y-4.3654
X5.9508Y-4.7892
X5.9508Y-5.7753
X5.9547Y-4.5965
X5.9547Y-5.0492
X5.9646Y-3.622
X5.9646Y-4.2618
X5.9646Y-4.9902
X5.9744Y-5.0197
X5.9744Y-5.3248
X5.9756Y-5.2642
X5.977Y-5.1219
X5.977Y-5.1789
X5.9898Y-3.0624
X5.9898Y-3.2976
X5.9898Y-3.5339
X5.9898Y-3.7701
X5.9898Y-3.9738
X5.9902Y-4.5465
X5.9941Y-3.1299
X5.9941Y-3.2087
X5.9941Y-3.6417
X5.9941Y-3.7008
X5.9941Y-3.8386
X5.9941Y-3.9073
X5.9941Y-4.6457
X5.9941Y-4.9902
X5.9941Y-5.0492
X6.0039Y-2.4409
X6.0039Y-5.0197
X6.0055Y-5.1504
X6.0126Y-2.5354
X6.0126Y-2.5811
X6.0126Y-2.6303
X6.0138Y-3.3366
X6.0138Y-4.3929
X6.0236Y-4.5965
X6.0236Y-4.9902
X6.0335Y-3.5728
X6.0335Y-4.2618
X6.0335Y-4.6457
X6.0335Y-5.0492
X6.0335Y-5.7677
X6.0341Y-5.1219
X6.0341Y-5.1789
X6.0413Y-4.3969
X6.0413Y-4.4512
X6.0413Y-4.5031
X6.0433Y-5.0197
X6.063Y-4.7933
X6.063Y-3.3465
X6.063Y-4.9902
X6.0661Y-5.4244
X6.0697Y-4.5787
X6.0728Y-5.0492
X6.0752Y-5.3469
X6.0827Y-4.626
X6.0827Y-5.0197
X6.0827Y-5.2461
X6.1024Y-3.6417
X6.1024Y-4.2618
X6.1024Y-4.9803
X6.1024Y-5.7677
X6.1122Y-4.5965
X6.128Y-4.322
X6.1319Y-3.4154
X6.1319Y-4.626
X6.1594Y-2.9051
X6.1594Y-3.0134
X6.1614Y-4.9803
X6.163Y-5.3681
X6.1673Y-4.322
X6.1713Y-4.2618
X6.1811Y-3.7205
X6.1811Y-4.626
X6.187Y-4.7892
X6.187Y-5.7753
X6.189Y-3.0429
X6.1909Y-2.7854
X6.2008Y-3.4843
X6.2008Y-5.2067
X6.2106Y-4.3504
X6.2106Y-4.4094
X6.2106Y-4.5965
X6.2233Y-3.0403
X6.2303Y-4.626
X6.2303Y-4.9803
X6.2366Y-5.3299
X6.2402Y-5.374
X6.25Y-3.7894
X6.25Y-4.4193
X6.2598Y-5.7753
X6.2697Y-2.8937
X6.2776Y-3.0331
X6.2795Y-4.4488
X6.2795Y-4.626
X6.2894Y-3.5728
X6.2894Y-4.9606
X6.2992Y-3.8287
X6.3071Y-2.8264
X6.3075Y-5.4374
X6.3075Y-5.5122
X6.3091Y-2.5
X6.3091Y-4.5965
X6.3091Y-4.7933
X6.3287Y-2.4606
X6.3287Y-3.6122
X6.3287Y-4.626
X6.3287Y-5.2756
X6.3386Y-3.8583
X6.3386Y-4.4488
X6.3484Y-5.7753
X6.3563Y-2.8165
X6.3681Y-4.9803
X6.3681Y-5.2559
X6.3697Y-2.5016
X6.378Y-4.5965
X6.3878Y-3.6713
X6.3976Y-4.4488
X6.4075Y-4.9508
X6.4173Y-5.4134
X6.4232Y-4.7892
X6.4232Y-5.7753
X6.4272Y-3.7106
X6.4272Y-3.8583
X6.437Y-2.8937
X6.4469Y-4.5965
X6.4469Y-4.9114
X6.4488Y-2.7102
X6.4579Y-3.6181
X6.4665Y-3.7205
X6.4665Y-4.4488
X6.4906Y-3.6181
X6.4961Y-4.7933
X6.5059Y-3.7205
X6.5059Y-4.872
X6.5059Y-5.0984
X6.5059Y-5.7677
X6.5138Y-2.9543
X6.5232Y-3.6181
X6.5256Y-4.4488
X6.5335Y-2.8559
X6.5354Y-4.5965
X6.5354Y-4.7933
X6.5433Y-3.1315
X6.5453Y-3.8583
X6.5453Y-5.0591
X6.5551Y-5.1476
X6.5551Y-5.2067
X6.5555Y-3.6181
X6.565Y-4.626
X6.5748Y-3.7205
X6.5748Y-5.0295
X6.5768Y-2.7102
X6.5827Y-2.9248
X6.5827Y-3.2594
X6.5846Y-5.7677
X6.5894Y-3.6181
X6.5945Y-4.4488
X6.5945Y-4.6555
X6.5945Y-4.8622
X6.6043Y-5.2461
X6.6043Y-5.4134
X6.6142Y-5.0098
X6.624Y-3.8583
X6.6339Y-4.6949
X6.6535Y-4.8622
X6.6585Y-4.7892
X6.6585Y-5.7753
X6.6634Y-4.4488
X6.6634Y-5.0098
X6.6811Y-4.3598
X6.6917Y-2.3937
X6.6929Y-3.7205
X6.6988Y-4.8295
X6.6988Y-5.0648
X6.6988Y-5.301
X6.6988Y-5.5372
X6.6988Y-5.7409
X6.7028Y-4.4783
X6.7028Y-5.1378
X6.7028Y-5.2264
X6.7028Y-5.374
X6.7028Y-5.4724
X6.7028Y-5.6102
X6.7047Y-2.7102
X6.7126Y-4.7727
X6.7146Y-3.0744
X6.7146Y-3.163
X6.7146Y-3.2516
X6.7224Y-5.0098
X6.7323Y-4.5079
X6.752Y-4.5571
X6.7539Y-2.9071
X6.7618Y-3.8583
X6.7815Y-4.8524
X6.7815Y-5.0098
X6.7913Y-4.5276
X6.8012Y-2.6378
X6.8228Y-2.6807
X6.8406Y-4.0256
X6.8406Y-4.2421
X6.8406Y-5.0098
X6.8504Y-3.7205
X6.8512Y-4.1346
X6.8602Y-3.8583
X6.8602Y-4.8524
X6.872Y-4.0256
X6.8767Y-5.0098
X6.8799Y-4.1638
X6.8819Y-2.4937
X6.8988Y-3.3287
X6.8988Y-3.363
X6.8988Y-3.4
X6.8996Y-4.252
X6.9016Y-2.4081
X6.9094Y-4.0059
X6.9193Y-5.689
X6.9291Y-2.4902
X6.9291Y-3.7205
X6.9386Y-3.3287
X6.9386Y-3.363
X6.9386Y-3.3996
X6.939Y-3.8583
X6.939Y-5.0098
X6.9409Y-2.335
X6.9409Y-2.3756
X6.9488Y-4.2126
X6.9488Y-4.8524
X6.9587Y-4.2913
X6.9662Y-4.3776
X6.9685Y-3.6909
X6.9685Y-4.5374
X6.9783Y-4.3307
X6.9783Y-4.685
X6.9882Y-2.687
X6.9882Y-3.8878
X6.9882Y-4.4685
X6.998Y-4.3012
X6.998Y-5.0098
X7.0079Y-4.5177
X7.0079Y-4.626
X7.0177Y-3.6713
X7.0177Y-5.6988
X7.0276Y-2.6476
X7.0276Y-4.5768
X7.0276Y-4.8327
X7.035Y-4.1362
X7.0374Y-3.8878
X7.0374Y-4.0748
X7.0394Y-3.3106
X7.0669Y-3.937
X7.0669Y-5.0098
X7.0689Y-3.2417
X7.0768Y-3.6909
X7.0892Y-3.9593
X7.098Y-4.0732
X7.098Y-4.1362
X7.1041Y-4.69
X7.1063Y-4.813
X7.1161Y-3.6516
X7.1161Y-5.0098
X7.128Y-3.0744
X7.128Y-3.163
X7.1358Y-4.3012
X7.1358Y-5.689
X7.1378Y-2.7102
X7.1555Y-3.6417
X7.1555Y-3.6909
X7.1555Y-3.8287
X7.1555Y-3.8878
X7.1555Y-5.0098
X7.1752Y-3.189
X7.1835Y-4.5339
X7.185Y-4.3012
X7.185Y-4.3744
X7.185Y-5.0394
X7.185Y-5.0787
X7.1949Y-3.5925
X7.1949Y-5.6791
X7.2047Y-3.5236
X7.2047Y-4.4094
X7.2047Y-5.1181
X7.2146Y-2.8051
X7.2146Y-4.7638
X7.2146Y-4.7933
X7.2146Y-4.8425
X7.2244Y-4.5177
X7.2244Y-4.6555
X7.2244Y-4.6949
X7.2244Y-4.7244
X7.2248Y-5.6891
X7.2343Y-3.9173
X7.2343Y-3.9567
X7.2343Y-4.2126
X7.2343Y-4.3012
X7.2343Y-4.6063
X7.2343Y-4.8819
X7.2439Y-4.0548
X7.2441Y-3.6417
X7.2441Y-4.5669
X7.2539Y-5.315
X7.263Y-4.4992
X7.2638Y-4.9114
X7.2638Y-5.1378
X7.2657Y-2.7102
X7.2736Y-3.1102
X7.2835Y-4.2717
X7.2933Y-5.6693
X7.2941Y-2.8945
X7.313Y-4.0846
X7.313Y-4.1732
X7.313Y-4.9311
X7.3138Y-3.7276
X7.3138Y-3.7906
X7.3154Y-3.5417
X7.3156Y-5.647
X7.3228Y-2.9921
X7.3228Y-5.1378
X7.3248Y-4.2796
X7.3425Y-4.3799
X7.3478Y-3.1944
X7.3524Y-3.5827
X7.3524Y-4.9705
X7.3524Y-5.6988
X7.372Y-5.0984
X7.3768Y-3.7276
X7.3768Y-3.7906
X7.3819Y-4.439
X7.3937Y-2.7102
X7.4015Y-3.9275
X7.4016Y-5.0197
X7.4016Y-5.0689
X7.4016Y-3.959
X7.4114Y-3.8976
X7.4311Y-3.5236
X7.4311Y-5.6791
X7.4409Y-3.061
X7.4508Y-3.9213
X7.4803Y-3.8583
X7.5054Y-3.8878
X7.5197Y-3.7598
X7.5394Y-3.1102
X7.5413Y-3.887
X7.5413Y-4.0169
X7.5492Y-5.6791
X7.5689Y-3.6811
X7.5689Y-3.7303
X7.5787Y-3.8484
X7.5787Y-5.7087
X7.6575Y-5.7874
X7.8937Y-5.1378
X7.9429Y-3.9272
T3
X5.0787Y-4.1528
X5.0787Y-4.3496
X5.1772Y-4.2512
X6.9488Y-5.0787
X6.9488Y-5.2756
X7.0472Y-5.1772
T4
X5.1685Y-3.8217
X5.2496Y-3.8217
X5.3307Y-3.8217
X5.7858Y-3.7882
X5.7858Y-3.8827
X5.863Y-4.2291
X5.8776Y-5.5866
X5.9587Y-5.5866
X6.0398Y-5.5866
X6.2039Y-2.4339
X6.4949Y-5.5531
X6.4949Y-5.6476
X6.8799Y-5.7382
X6.9783Y-5.7382
X7.0965Y-5.7382
X7.1752Y-5.7382
X7.3917Y-5.7382
X7.4705Y-5.7382
X7.687Y-5.7382
T5
X7.5319Y-2.4016
X7.5319Y-2.5016
X7.5492Y-2.7972
X7.5492Y-2.8972
X8.0299Y-4.0291
X8.0299Y-4.1291
X8.0299Y-4.2291
X8.0299Y-4.3291
X8.0299Y-4.4291
X8.0299Y-4.8657
X8.0299Y-4.9657
X8.0299Y-5.0657
X8.0299Y-5.1657
X8.0299Y-5.2657
X8.1299Y-4.0291
X8.1299Y-4.1291
X8.1299Y-4.2291
X8.1299Y-4.3291
X8.1299Y-4.4291
X8.1299Y-4.8657
X8.1299Y-4.9657
X8.1299Y-5.0657
X8.1299Y-5.1657
X8.1299Y-5.2657
T6
X7.7043Y-2.4965
X7.7043Y-2.5965
X7.7043Y-2.6965
X7.7043Y-2.7965
X7.7043Y-2.8965
X7.7043Y-2.9965
X7.7043Y-3.0965
X7.7043Y-3.1965
X7.7043Y-3.2965
X7.7043Y-3.3965
X7.7043Y-3.4965
X7.7043Y-3.5965
X7.7043Y-3.6965
X7.7043Y-3.7965
X7.7043Y-3.8965
X7.7043Y-3.9965
X7.7043Y-4.0965
X7.7043Y-4.1965
X7.7043Y-4.2965
X7.7043Y-4.3965
X7.7043Y-4.4965
X7.7043Y-4.5965
X7.7043Y-4.6965
X7.7043Y-4.7965
X7.7043Y-4.8965
X7.7043Y-4.9965
X7.7043Y-5.0965
X7.7043Y-5.1965
X7.7043Y-5.2965
X7.7043Y-5.3965
X7.7043Y-5.4965
X7.7043Y-5.5965
X7.8043Y-2.4965
X7.8043Y-2.5965
X7.8043Y-2.6965
X7.8043Y-2.7965
X7.8043Y-2.8965
X7.8043Y-2.9965
X7.8043Y-3.0965
X7.8043Y-3.1965
X7.8043Y-3.2965
X7.8043Y-3.3965
X7.8043Y-3.4965
X7.8043Y-3.5965
X7.8043Y-3.6965
X7.8043Y-3.7965
X7.8043Y-3.8965
X7.8043Y-3.9965
X7.8043Y-4.0965
X7.8043Y-4.1965
X7.8043Y-4.2965
X7.8043Y-4.3965
X7.8043Y-4.4965
X7.8043Y-4.5965
X7.8043Y-4.6965
X7.8043Y-4.7965
X7.8043Y-4.8965
X7.8043Y-4.9965
X7.8043Y-5.0965
X7.8043Y-5.1965
X7.8043Y-5.2965
X7.8043Y-5.3965
X7.8043Y-5.4965
X7.8043Y-5.5965
T7
X4.8Y-4.7835
T8
X4.7Y-4.6835
X4.7Y-4.8835
X4.9Y-4.6835
X4.9Y-4.8835
T9
X4.6291Y-2.5965
X4.6291Y-5.4965
X8.0043Y-2.4965
X8.0043Y-5.6465
T0
M30
