M48
;DRILL file {KiCad 4.0.5} date 06/11/18 22:07:01
;FORMAT={-:-/ absolute / metric / decimal}
FMAT,2
METRIC,TZ
T1C0.400
T2C0.650
T3C0.750
T4C1.000
T5C1.020
T6C1.500
T7C1.600
T8C3.180
T9C1.350
%
G90
G05
M71
T1
X113.11Y-121.55
X113.5Y-107.
X113.5Y-108.5
X113.5Y-109.75
X113.5Y-110.75
X113.5Y-111.75
X113.5Y-113.25
X113.5Y-114.5
X113.5Y-115.75
X113.5Y-117.25
X113.5Y-118.75
X113.5Y-120.25
X113.5Y-126.5
X113.905Y-121.66
X114.Y-106.25
X114.11Y-123.25
X114.11Y-124.307
X114.24Y-77.785
X114.24Y-83.76
X114.24Y-89.76
X114.24Y-95.76
X114.25Y-80.5
X114.25Y-82.25
X114.25Y-85.5
X114.25Y-86.75
X114.25Y-88.25
X114.25Y-91.25
X114.25Y-92.75
X114.25Y-94.25
X114.25Y-97.75
X114.25Y-99.25
X114.75Y-105.5
X114.75Y-127.5
X115.265Y-76.76
X115.75Y-86.
X115.75Y-87.25
X115.75Y-88.5
X115.75Y-89.75
X115.75Y-91.5
X115.75Y-93.25
X115.75Y-95.
X115.75Y-96.5
X115.75Y-97.75
X115.75Y-99.5
X115.75Y-101.
X115.75Y-103.25
X115.75Y-104.5
X115.991Y-128.509
X116.25Y-84.75
X116.741Y-129.259
X117.Y-76.75
X117.25Y-83.75
X117.25Y-110.
X117.25Y-111.75
X117.25Y-113.75
X118.5Y-108.5
X119.Y-83.75
X119.5Y-76.75
X119.5Y-113.75
X119.5Y-117.25
X120.Y-129.25
X120.25Y-83.75
X120.25Y-98.75
X120.25Y-100.
X120.25Y-101.
X120.25Y-102.75
X120.25Y-104.
X120.25Y-105.25
X120.25Y-106.75
X120.5Y-117.25
X120.5Y-125.75
X121.Y-87.25
X121.Y-93.25
X121.14Y-76.76
X121.14Y-101.96
X121.5Y-113.75
X122.Y-83.75
X122.Y-117.25
X122.5Y-99.75
X122.5Y-125.75
X122.5Y-129.25
X122.75Y-76.75
X123.Y-102.
X123.25Y-113.75
X123.75Y-83.75
X123.75Y-137.25
X124.Y-117.25
X124.5Y-93.5
X124.5Y-94.5
X124.5Y-96.5
X124.5Y-97.5
X124.5Y-98.75
X124.75Y-129.25
X124.985Y-95.485
X125.Y-76.75
X125.Y-137.25
X125.25Y-102.
X125.5Y-117.25
X125.75Y-83.75
X125.75Y-113.75
X126.Y-92.5
X126.Y-124.
X126.286Y-131.34
X126.294Y-132.94
X126.3Y-132.14
X127.Y-83.75
X127.Y-129.25
X127.14Y-76.76
X127.14Y-101.96
X127.25Y-117.25
X128.Y-124.
X128.Y-128.5
X128.25Y-113.75
X128.75Y-127.75
X129.Y-76.75
X129.Y-83.75
X129.Y-117.25
X129.06Y-133.45
X129.24Y-79.72
X129.75Y-88.75
X129.75Y-102.
X129.75Y-124.
X130.Y-91.75
X130.Y-95.5
X130.25Y-83.75
X130.25Y-127.75
X130.5Y-89.75
X130.5Y-113.75
X130.59Y-134.09
X130.75Y-117.25
X131.25Y-76.75
X131.38Y-79.
X131.5Y-124.
X131.72Y-89.78
X131.75Y-83.75
X132.25Y-122.67
X132.25Y-128.645
X132.25Y-130.5
X132.25Y-132.75
X132.25Y-134.645
X132.25Y-137.75
X132.25Y-139.
X132.25Y-140.645
X132.25Y-142.5
X132.25Y-144.
X132.25Y-145.82
X132.5Y-82.5
X132.75Y-83.25
X133.Y-81.75
X133.Y-128.25
X133.Y-129.5
X133.Y-130.75
X133.14Y-76.76
X133.14Y-101.96
X133.25Y-82.5
X133.275Y-121.645
X133.275Y-146.845
X133.5Y-124.
X133.75Y-83.25
X133.75Y-91.75
X133.805Y-85.265
X133.805Y-86.715
X133.82Y-88.88
X134.Y-81.75
X134.Y-108.
X134.Y-132.
X134.25Y-73.
X134.25Y-82.5
X134.25Y-113.75
X134.53Y-85.99
X134.75Y-81.75
X134.75Y-83.25
X134.75Y-102.
X134.75Y-132.75
X135.Y-82.5
X135.25Y-73.
X135.25Y-146.75
X135.255Y-85.265
X135.255Y-86.715
X135.5Y-83.25
X135.5Y-124.
X135.746Y-81.754
X135.75Y-117.25
X136.Y-76.75
X136.Y-82.5
X136.07Y-92.95
X136.25Y-121.75
X136.3Y-90.98
X136.5Y-72.25
X136.5Y-83.25
X136.5Y-88.5
X136.5Y-128.75
X136.5Y-132.75
X136.75Y-81.9
X137.5Y-146.75
X137.75Y-72.25
X137.75Y-128.75
X137.75Y-132.75
X138.Y-113.75
X138.25Y-124.
X138.5Y-81.25
X138.53Y-91.52
X139.Y-72.25
X139.Y-128.75
X139.Y-132.56
X139.Y-137.84
X139.14Y-76.76
X139.14Y-101.96
X139.15Y-121.645
X139.25Y-96.
X139.25Y-146.25
X139.5Y-87.75
X139.75Y-87.
X140.Y-81.25
X140.25Y-72.
X140.25Y-113.75
X140.25Y-124.
X140.4Y-90.55
X140.5Y-80.25
X140.5Y-92.25
X140.75Y-76.75
X140.983Y-112.767
X141.Y-78.75
X141.Y-108.5
X141.Y-146.5
X141.25Y-125.
X141.25Y-126.5
X141.5Y-72.25
X141.5Y-81.
X141.75Y-79.5
X141.75Y-117.25
X142.Y-77.75
X142.Y-107.75
X142.2Y-93.28
X142.2Y-95.18
X142.25Y-102.
X142.25Y-121.75
X142.5Y-128.75
X142.75Y-72.
X142.75Y-89.25
X143.Y-76.75
X143.25Y-77.75
X143.5Y-146.5
X143.75Y-137.5
X144.25Y-61.75
X144.25Y-88.75
X144.5Y-116.75
X144.75Y-77.75
X145.Y-68.25
X145.Y-107.75
X145.Y-128.75
X145.14Y-76.76
X145.14Y-101.96
X145.15Y-121.645
X145.15Y-146.691
X145.5Y-85.25
X145.5Y-92.75
X146.Y-77.75
X146.Y-115.25
X146.5Y-138.5
X147.Y-76.75
X147.25Y-79.5
X147.25Y-108.25
X147.25Y-146.5
X147.5Y-78.
X147.5Y-88.5
X147.5Y-116.75
X147.5Y-128.75
X148.Y-121.75
X148.Y-135.5
X148.25Y-79.
X148.25Y-80.25
X148.25Y-81.5
X148.25Y-102.
X148.25Y-140.5
X148.5Y-86.5
X148.75Y-133.
X148.75Y-136.25
X149.Y-76.75
X149.15Y-115.58
X149.25Y-146.5
X149.5Y-92.5
X149.51Y-124.33
X149.75Y-81.75
X149.75Y-116.75
X149.82Y-134.61
X150.25Y-127.5
X150.25Y-128.25
X150.498Y-126.748
X150.5Y-88.75
X150.5Y-108.25
X150.5Y-122.89
X151.Y-83.
X151.Y-127.5
X151.115Y-76.76
X151.115Y-101.96
X151.15Y-110.88
X151.15Y-121.645
X151.15Y-146.691
X151.25Y-116.75
X151.25Y-128.25
X151.5Y-92.
X151.5Y-108.25
X151.5Y-126.75
X151.75Y-127.5
X151.75Y-136.5
X151.78Y-133.71
X151.815Y-130.095
X151.815Y-131.545
X152.14Y-77.785
X152.14Y-83.76
X152.14Y-89.76
X152.14Y-95.76
X152.14Y-100.935
X152.15Y-115.48
X152.25Y-79.5
X152.25Y-81.5
X152.25Y-92.5
X152.25Y-94.
X152.25Y-97.5
X152.25Y-99.246
X152.25Y-118.
X152.25Y-126.75
X152.25Y-128.25
X152.5Y-62.
X152.5Y-127.5
X152.54Y-130.82
X152.72Y-64.4
X152.72Y-65.56
X152.72Y-66.81
X152.75Y-84.75
X152.75Y-111.58
X153.Y-116.75
X153.Y-126.75
X153.25Y-90.75
X153.25Y-108.25
X153.25Y-118.
X153.25Y-128.25
X153.25Y-146.5
X153.265Y-130.095
X153.265Y-131.545
X153.45Y-111.68
X153.45Y-113.06
X153.45Y-114.38
X153.5Y-127.5
X153.99Y-121.75
X154.Y-85.
X154.Y-126.75
X154.08Y-137.78
X154.17Y-116.3
X154.25Y-128.25
X154.31Y-135.81
X154.5Y-117.5
X154.5Y-127.5
X154.5Y-133.25
X155.Y-92.5
X155.Y-108.25
X155.Y-126.5
X155.Y-146.5
X155.25Y-116.75
X155.65Y-109.78
X155.75Y-86.75
X155.75Y-117.5
X156.45Y-73.79
X156.45Y-76.54
X156.5Y-126.5
X156.54Y-136.35
X156.65Y-109.78
X156.75Y-108.25
X157.Y-94.5
X157.Y-117.5
X157.15Y-121.645
X157.15Y-146.691
X157.2Y-77.29
X157.25Y-70.75
X157.5Y-88.5
X157.5Y-132.25
X157.75Y-110.5
X157.75Y-112.
X157.75Y-116.75
X158.073Y-77.224
X158.25Y-117.5
X158.25Y-126.5
X158.41Y-135.38
X158.5Y-136.5
X158.75Y-96.25
X158.75Y-112.25
X159.Y-146.691
X159.25Y-73.5
X159.45Y-77.04
X159.5Y-113.
X159.5Y-117.5
X159.75Y-90.75
X159.75Y-126.
X160.Y-97.25
X160.2Y-71.79
X160.21Y-138.11
X160.21Y-140.01
X160.25Y-63.5
X160.25Y-116.75
X160.25Y-121.75
X160.75Y-62.5
X160.75Y-91.75
X160.75Y-117.5
X160.75Y-134.
X161.Y-98.
X161.Y-113.
X161.25Y-146.691
X161.45Y-71.54
X161.75Y-126.5
X161.75Y-133.5
X161.79Y-63.54
X162.Y-116.75
X162.25Y-93.25
X162.5Y-113.
X162.75Y-125.75
X163.Y-137.5
X163.15Y-121.645
X163.15Y-146.691
X163.25Y-94.25
X163.25Y-98.
X163.5Y-73.5
X163.75Y-116.75
X163.75Y-124.75
X163.8Y-68.84
X164.03Y-91.9
X164.25Y-94.5
X164.25Y-113.
X164.86Y-91.9
X165.Y-121.75
X165.25Y-94.5
X165.25Y-123.75
X165.25Y-129.5
X165.25Y-146.5
X165.45Y-75.04
X165.69Y-91.9
X165.75Y-113.
X165.95Y-72.54
X166.Y-116.75
X166.Y-121.75
X166.2Y-79.54
X166.25Y-98.
X166.25Y-128.5
X166.5Y-130.75
X166.5Y-132.25
X166.51Y-91.9
X166.75Y-117.5
X167.Y-94.5
X167.Y-127.75
X167.05Y-68.84
X167.2Y-74.29
X167.2Y-82.79
X167.25Y-146.5
X167.37Y-91.9
X167.5Y-113.
X167.5Y-118.25
X167.5Y-123.5
X167.75Y-133.25
X167.75Y-137.5
X168.Y-127.25
X168.25Y-98.
X168.5Y-119.25
X169.Y-123.5
X169.125Y-121.645
X169.125Y-146.691
X169.25Y-113.
X169.25Y-127.25
X169.7Y-110.74
X169.97Y-60.8
X170.Y-94.5
X170.15Y-122.67
X170.15Y-128.645
X170.15Y-134.645
X170.15Y-140.645
X170.15Y-145.82
X170.25Y-113.75
X170.25Y-130.5
X170.25Y-132.75
X170.25Y-136.5
X170.25Y-139.
X170.25Y-142.5
X170.3Y-68.84
X170.5Y-121.227
X170.55Y-78.09
X170.55Y-80.34
X170.55Y-82.59
X170.75Y-127.25
X171.Y-114.5
X171.5Y-115.75
X171.55Y-73.84
X171.75Y-98.
X172.25Y-123.25
X172.25Y-127.25
X172.5Y-115.
X172.75Y-67.
X173.3Y-68.09
X173.75Y-102.25
X173.75Y-107.75
X173.75Y-127.25
X174.Y-94.5
X174.02Y-105.02
X174.25Y-98.
X174.25Y-123.25
X174.55Y-102.25
X174.667Y-127.25
X174.75Y-105.76
X174.8Y-63.34
X175.23Y-84.55
X175.23Y-85.42
X175.23Y-86.36
X175.25Y-108.
X175.3Y-61.165
X175.5Y-101.75
X175.75Y-144.5
X176.Y-63.25
X176.Y-94.5
X176.24Y-84.55
X176.24Y-85.42
X176.24Y-86.35
X176.25Y-98.
X176.25Y-127.25
X176.3Y-59.31
X176.3Y-60.34
X176.5Y-107.
X176.5Y-123.25
X176.75Y-109.
X176.942Y-111.192
X177.Y-93.75
X177.Y-115.25
X177.25Y-110.
X177.25Y-119.
X177.5Y-68.25
X177.5Y-98.75
X177.5Y-113.5
X177.75Y-109.25
X177.75Y-127.25
X178.Y-114.75
X178.Y-117.5
X178.25Y-93.25
X178.25Y-144.75
X178.5Y-67.25
X178.5Y-116.25
X178.5Y-122.75
X178.69Y-105.06
X178.75Y-98.75
X178.75Y-103.5
X178.8Y-84.09
X179.5Y-100.
X179.5Y-127.25
X179.55Y-82.34
X179.75Y-93.75
X180.066Y-100.566
X180.29Y-103.46
X180.29Y-105.06
X180.445Y-119.125
X180.5Y-122.25
X180.75Y-92.75
X180.75Y-127.25
X181.05Y-78.09
X181.05Y-80.34
X181.25Y-109.25
X181.25Y-144.5
X181.3Y-68.84
X181.75Y-92.5
X181.75Y-93.75
X181.75Y-97.25
X181.75Y-98.75
X181.75Y-127.25
X182.25Y-81.
X182.46Y-115.16
X182.5Y-109.25
X182.5Y-111.111
X182.5Y-128.
X182.5Y-129.
X182.75Y-91.25
X182.75Y-144.25
X183.Y-89.5
X183.Y-112.
X183.Y-130.
X183.25Y-71.25
X183.25Y-121.
X183.25Y-121.75
X183.25Y-123.
X183.5Y-114.75
X183.5Y-118.25
X183.5Y-119.25
X183.5Y-120.
X183.509Y-144.503
X183.75Y-99.5
X183.75Y-100.5
X183.75Y-107.
X183.75Y-109.25
X183.75Y-117.
X183.75Y-124.
X183.995Y-102.993
X184.Y-92.5
X184.Y-116.
X184.25Y-135.
X184.48Y-114.28
X184.5Y-124.75
X184.5Y-130.5
X184.55Y-68.84
X184.75Y-79.
X185.Y-108.5
X185.25Y-144.
X185.27Y-73.52
X185.75Y-103.75
X185.75Y-106.
X185.75Y-125.25
X185.77Y-94.68
X185.77Y-96.28
X185.81Y-89.96
X185.816Y-143.434
X186.Y-76.
X186.Y-130.5
X186.049Y-108.701
X186.5Y-111.25
X186.635Y-81.138
X186.75Y-91.
X186.75Y-126.25
X186.75Y-144.75
X187.25Y-129.5
X187.37Y-94.68
X187.37Y-96.28
X187.5Y-112.75
X187.8Y-68.84
X187.997Y-99.759
X188.Y-127.5
X188.Y-128.75
X188.Y-100.559
X188.25Y-99.
X188.75Y-89.5
X188.75Y-144.25
X189.Y-77.75
X189.25Y-99.6
X190.Y-98.
X190.638Y-98.75
X191.Y-95.5
X191.5Y-79.
X191.55Y-98.73
X191.55Y-102.03
X191.75Y-144.25
X192.25Y-93.5
X192.25Y-94.75
X192.5Y-97.75
X192.5Y-145.
X194.5Y-147.
X200.5Y-130.5
X201.75Y-99.75
T2
X129.Y-105.48
X129.Y-110.48
X131.5Y-107.98
X176.5Y-129.
X176.5Y-134.
X179.Y-131.5
T3
X131.28Y-97.07
X133.34Y-97.07
X135.4Y-97.07
X146.96Y-96.22
X146.96Y-98.62
X148.92Y-107.42
X149.29Y-141.9
X151.35Y-141.9
X153.41Y-141.9
X157.58Y-61.82
X164.97Y-141.05
X164.97Y-143.45
X174.75Y-145.75
X177.25Y-145.75
X180.25Y-145.75
X182.25Y-145.75
X187.75Y-145.75
X189.75Y-145.75
X195.25Y-145.75
T4
X191.31Y-61.
X191.31Y-63.54
X191.75Y-71.05
X191.75Y-73.59
X203.96Y-102.34
X203.96Y-104.88
X203.96Y-107.42
X203.96Y-109.96
X203.96Y-112.5
X203.96Y-123.59
X203.96Y-126.13
X203.96Y-128.67
X203.96Y-131.21
X203.96Y-133.75
X206.5Y-102.34
X206.5Y-104.88
X206.5Y-107.42
X206.5Y-109.96
X206.5Y-112.5
X206.5Y-123.59
X206.5Y-126.13
X206.5Y-128.67
X206.5Y-131.21
X206.5Y-133.75
T5
X195.69Y-63.41
X195.69Y-65.95
X195.69Y-68.49
X195.69Y-71.03
X195.69Y-73.57
X195.69Y-76.11
X195.69Y-78.65
X195.69Y-81.19
X195.69Y-83.73
X195.69Y-86.27
X195.69Y-88.81
X195.69Y-91.35
X195.69Y-93.89
X195.69Y-96.43
X195.69Y-98.97
X195.69Y-101.51
X195.69Y-104.05
X195.69Y-106.59
X195.69Y-109.13
X195.69Y-111.67
X195.69Y-114.21
X195.69Y-116.75
X195.69Y-119.29
X195.69Y-121.83
X195.69Y-124.37
X195.69Y-126.91
X195.69Y-129.45
X195.69Y-131.99
X195.69Y-134.53
X195.69Y-137.07
X195.69Y-139.61
X195.69Y-142.15
X198.23Y-63.41
X198.23Y-65.95
X198.23Y-68.49
X198.23Y-71.03
X198.23Y-73.57
X198.23Y-76.11
X198.23Y-78.65
X198.23Y-81.19
X198.23Y-83.73
X198.23Y-86.27
X198.23Y-88.81
X198.23Y-91.35
X198.23Y-93.89
X198.23Y-96.43
X198.23Y-98.97
X198.23Y-101.51
X198.23Y-104.05
X198.23Y-106.59
X198.23Y-109.13
X198.23Y-111.67
X198.23Y-114.21
X198.23Y-116.75
X198.23Y-119.29
X198.23Y-121.83
X198.23Y-124.37
X198.23Y-126.91
X198.23Y-129.45
X198.23Y-131.99
X198.23Y-134.53
X198.23Y-137.07
X198.23Y-139.61
X198.23Y-142.15
T6
X121.92Y-121.5
T7
X119.38Y-118.96
X119.38Y-124.04
X124.46Y-118.96
X124.46Y-124.04
T8
X117.58Y-65.95
X117.58Y-139.61
X203.31Y-63.41
X203.31Y-143.42
T9
X151.12Y-62.81
T0
M30
