G04 #@! TF.FileFunction,Copper,L2,Bot,Signal*
%FSLAX46Y46*%
G04 Gerber Fmt 4.6, Leading zero omitted, Abs format (unit mm)*
G04 Created by KiCad (PCBNEW 4.0.6-e0-6349~53~ubuntu16.04.1) date Mon Jun 12 06:52:07 2017*
%MOMM*%
%LPD*%
G01*
G04 APERTURE LIST*
%ADD10C,0.100000*%
%ADD11R,1.727200X2.032000*%
%ADD12O,1.727200X2.032000*%
%ADD13C,1.720000*%
%ADD14C,6.350000*%
%ADD15C,2.400000*%
%ADD16C,2.300000*%
%ADD17R,1.700000X1.700000*%
%ADD18C,1.700000*%
%ADD19O,1.700000X1.700000*%
%ADD20C,0.600000*%
%ADD21C,0.300000*%
%ADD22C,0.600000*%
%ADD23C,1.000000*%
%ADD24C,0.200000*%
%ADD25C,0.254000*%
G04 APERTURE END LIST*
D10*
D11*
X165360000Y-63000000D03*
D12*
X167900000Y-63000000D03*
X170440000Y-63000000D03*
D13*
X198230000Y-142150000D03*
X198230000Y-139610000D03*
X198230000Y-137070000D03*
X198230000Y-134530000D03*
X198230000Y-131990000D03*
X198230000Y-129450000D03*
X198230000Y-126910000D03*
X198230000Y-124370000D03*
X198230000Y-121830000D03*
X198230000Y-119290000D03*
X198230000Y-116750000D03*
X198230000Y-114210000D03*
X198230000Y-111670000D03*
X198230000Y-109130000D03*
X198230000Y-106590000D03*
X198230000Y-104050000D03*
X198230000Y-101510000D03*
X198230000Y-98970000D03*
X198230000Y-96430000D03*
X198230000Y-93890000D03*
X198230000Y-91350000D03*
X198230000Y-88810000D03*
X198230000Y-86270000D03*
X198230000Y-83730000D03*
X198230000Y-81190000D03*
X198230000Y-78650000D03*
X198230000Y-76110000D03*
X198230000Y-73570000D03*
X198230000Y-71030000D03*
X198230000Y-68490000D03*
X198230000Y-65950000D03*
X198230000Y-63410000D03*
X195690000Y-142150000D03*
X195690000Y-139610000D03*
X195690000Y-137070000D03*
X195690000Y-134530000D03*
X195690000Y-131990000D03*
X195690000Y-129450000D03*
X195690000Y-126910000D03*
X195690000Y-124370000D03*
X195690000Y-121830000D03*
X195690000Y-119290000D03*
X195690000Y-116750000D03*
X195690000Y-114210000D03*
X195690000Y-111670000D03*
X195690000Y-109130000D03*
X195690000Y-106590000D03*
X195690000Y-104050000D03*
X195690000Y-101510000D03*
X195690000Y-98970000D03*
X195690000Y-96430000D03*
X195690000Y-93890000D03*
X195690000Y-91350000D03*
X195690000Y-88810000D03*
X195690000Y-86270000D03*
X195690000Y-83730000D03*
X195690000Y-81190000D03*
X195690000Y-78650000D03*
X195690000Y-76110000D03*
X195690000Y-73570000D03*
X195690000Y-71030000D03*
X195690000Y-68490000D03*
X195690000Y-65950000D03*
X195690000Y-63410000D03*
D14*
X117580000Y-65950000D03*
X203310000Y-63410000D03*
X203310000Y-143420000D03*
X117580000Y-139610000D03*
D15*
X133260000Y-72540000D03*
X138340000Y-72540000D03*
X138340000Y-67460000D03*
D16*
X135800000Y-70000000D03*
D15*
X133260000Y-67460000D03*
X123460000Y-121140000D03*
X128540000Y-121140000D03*
X128540000Y-116060000D03*
D16*
X126000000Y-118600000D03*
D15*
X123460000Y-116060000D03*
X147960000Y-105540000D03*
X153040000Y-105540000D03*
X153040000Y-100460000D03*
D16*
X150500000Y-103000000D03*
D15*
X147960000Y-100460000D03*
X123460000Y-105540000D03*
X128540000Y-105540000D03*
X128540000Y-100460000D03*
D16*
X126000000Y-103000000D03*
D15*
X123460000Y-100460000D03*
D11*
X150060000Y-63000000D03*
D12*
X152600000Y-63000000D03*
X155140000Y-63000000D03*
D11*
X157560000Y-144400000D03*
D12*
X160100000Y-144400000D03*
X162640000Y-144400000D03*
D17*
X135320000Y-145370000D03*
D18*
X135320000Y-142830000D03*
X137860000Y-145370000D03*
X137860000Y-142830000D03*
X140400000Y-145370000D03*
X140400000Y-142830000D03*
D19*
X142940000Y-145370000D03*
D18*
X142940000Y-142830000D03*
X145480000Y-145370000D03*
X145480000Y-142830000D03*
D20*
X135775000Y-96600000D03*
X142000000Y-84000000D03*
X143000000Y-84000000D03*
X144000000Y-84000000D03*
X145000000Y-84000000D03*
X146000000Y-84000000D03*
X147000000Y-84000000D03*
X148000000Y-84000000D03*
X134500000Y-96000000D03*
X133500000Y-96000000D03*
X132500000Y-96000000D03*
X131500000Y-96000000D03*
X130500000Y-96000000D03*
X129500000Y-96000000D03*
X128500000Y-96000000D03*
X127500000Y-96000000D03*
X126500000Y-96000000D03*
X125500000Y-96000000D03*
X124500000Y-96000000D03*
X123500000Y-96000000D03*
X122500000Y-96000000D03*
X121500000Y-97000000D03*
X120500000Y-98000000D03*
X120000000Y-99000000D03*
X120000000Y-100000000D03*
X120000000Y-101000000D03*
X120000000Y-102000000D03*
X120000000Y-103000000D03*
X120000000Y-104000000D03*
X120000000Y-105000000D03*
X120000000Y-106000000D03*
X120000000Y-107000000D03*
X120000000Y-108000000D03*
X120000000Y-109000000D03*
X120000000Y-110000000D03*
X120500000Y-111000000D03*
X121500000Y-111000000D03*
X133500000Y-111000000D03*
X132500000Y-111000000D03*
X131500000Y-111000000D03*
X130500000Y-111000000D03*
X129500000Y-111000000D03*
X122500000Y-111000000D03*
X123500000Y-111000000D03*
X124500000Y-111000000D03*
X125500000Y-111000000D03*
X126500000Y-111000000D03*
X127500000Y-111000000D03*
X128500000Y-111000000D03*
X136250000Y-109750000D03*
X142659620Y-81759620D03*
X141859620Y-82559620D03*
X141059620Y-83359620D03*
X155575000Y-123925000D03*
X155575000Y-122600000D03*
X155575000Y-121500000D03*
X155575000Y-120350000D03*
X155575000Y-119350000D03*
X155575000Y-118250000D03*
X155575000Y-117050000D03*
X155575000Y-115850000D03*
X155550000Y-114775000D03*
X155575000Y-113675000D03*
X155575000Y-112575000D03*
X155575000Y-111375000D03*
X155575000Y-110200000D03*
X155575000Y-109025000D03*
X155575000Y-107850000D03*
X155575000Y-106700000D03*
X155525000Y-105600000D03*
X155550000Y-104500000D03*
X155550000Y-103375000D03*
X155550000Y-102125000D03*
X155550000Y-101075000D03*
X155550000Y-99950000D03*
X155550000Y-98825000D03*
X190400000Y-140350000D03*
X171350000Y-144150000D03*
X133950000Y-135650000D03*
X134000000Y-133150000D03*
X136200000Y-133200000D03*
X136200000Y-135600000D03*
X136200000Y-139100000D03*
X136500000Y-131350000D03*
X161600000Y-128050000D03*
X161550000Y-114100000D03*
X162400000Y-95200000D03*
X160350000Y-91300000D03*
X155850000Y-90700000D03*
X151950000Y-87300000D03*
X153900000Y-83950000D03*
X156900000Y-87700000D03*
X161800000Y-87850000D03*
X165850000Y-91950000D03*
X140700000Y-137250000D03*
X141850000Y-135200000D03*
X174950000Y-130000000D03*
X175000000Y-133200000D03*
X170200000Y-130300000D03*
X170200000Y-133250000D03*
X161900000Y-139800000D03*
X167200000Y-139900000D03*
X164950000Y-144600000D03*
X158250000Y-139700000D03*
X153500000Y-135500000D03*
X148850000Y-82550000D03*
X151750000Y-79650000D03*
X151750000Y-73650000D03*
X151500000Y-67400000D03*
X151500000Y-70100000D03*
X177950000Y-147000000D03*
X166700000Y-147000000D03*
X159950000Y-146950000D03*
X149600000Y-146950000D03*
X153550000Y-133300000D03*
X149700000Y-135200000D03*
X149700000Y-133300000D03*
X144400000Y-87350000D03*
X145450000Y-87350000D03*
X146350000Y-87350000D03*
X147450000Y-87850000D03*
X148250000Y-88650000D03*
X149000000Y-89400000D03*
X149750000Y-90150000D03*
X150400000Y-90800000D03*
X149850000Y-92000000D03*
X148600000Y-92000000D03*
X147400000Y-92000000D03*
X143800000Y-59100000D03*
X144550000Y-59800000D03*
X144550000Y-60700000D03*
X144550000Y-61800000D03*
X144550000Y-63100000D03*
X144550000Y-64100000D03*
X144550000Y-65000000D03*
X144550000Y-66000000D03*
X144550000Y-67050000D03*
X144550000Y-68150000D03*
X144550000Y-69050000D03*
X144550000Y-70100000D03*
X144550000Y-71150000D03*
X144550000Y-72150000D03*
X144550000Y-73100000D03*
X144550000Y-74150000D03*
X144550000Y-75350000D03*
X144550000Y-76450000D03*
X143550000Y-77450000D03*
X142750000Y-78250000D03*
X141900000Y-79100000D03*
X141200000Y-79800000D03*
X140200000Y-80800000D03*
X139300000Y-81700000D03*
X113800000Y-93550000D03*
X115150000Y-93550000D03*
X116300000Y-93550000D03*
X117350000Y-93550000D03*
X118400000Y-93550000D03*
X119550000Y-93550000D03*
X120650000Y-93550000D03*
X121800000Y-93550000D03*
X123000000Y-93550000D03*
X124200000Y-93550000D03*
X125300000Y-93550000D03*
X126400000Y-93550000D03*
X127600000Y-93500000D03*
X128850000Y-93550000D03*
X129950000Y-93550000D03*
X131000000Y-93550000D03*
X132050000Y-93550000D03*
X133200000Y-93550000D03*
X138400000Y-113650000D03*
X137100000Y-113650000D03*
X136050000Y-113650000D03*
X134850000Y-113650000D03*
X133500000Y-113650000D03*
X132050000Y-113650000D03*
X130950000Y-113650000D03*
X129700000Y-113650000D03*
X128600000Y-113650000D03*
X127450000Y-113650000D03*
X126400000Y-113650000D03*
X125100000Y-113650000D03*
X123950000Y-113650000D03*
X122750000Y-113650000D03*
X121750000Y-113950000D03*
X120950000Y-114750000D03*
X120250000Y-115800000D03*
X120250000Y-116950000D03*
X120250000Y-118000000D03*
X120250000Y-119050000D03*
X120250000Y-120200000D03*
X120250000Y-121450000D03*
X120250000Y-122500000D03*
X120250000Y-123500000D03*
X120800000Y-124500000D03*
X122000000Y-124500000D03*
X123100000Y-124500000D03*
X124250000Y-124500000D03*
X125250000Y-124500000D03*
X127050000Y-124500000D03*
X128750000Y-124500000D03*
X130350000Y-124500000D03*
X131700000Y-124500000D03*
X133150000Y-124500000D03*
X134450000Y-124500000D03*
X135650000Y-124500000D03*
X137000000Y-124500000D03*
X154450000Y-123050000D03*
X153500000Y-122400000D03*
X152200000Y-122400000D03*
X151000000Y-122400000D03*
X149800000Y-122400000D03*
X148600000Y-122400000D03*
X147300000Y-122400000D03*
X146150000Y-122400000D03*
X145000000Y-122400000D03*
X143650000Y-122400000D03*
X142550000Y-93050000D03*
X142550000Y-94050000D03*
X142600000Y-94900000D03*
X143250000Y-95600000D03*
X144600000Y-95650000D03*
X146300000Y-95600000D03*
X147800000Y-95600000D03*
X149500000Y-95600000D03*
X150950000Y-95550000D03*
X152400000Y-95550000D03*
X155550000Y-97550000D03*
X154650000Y-96300000D03*
X165950000Y-95200000D03*
X153950000Y-95550000D03*
X151000000Y-91500000D03*
X137200000Y-81200000D03*
X137800000Y-86300000D03*
X142750000Y-89000000D03*
X142750000Y-87450000D03*
X134600000Y-88400000D03*
X135050000Y-93600000D03*
X141400000Y-94300000D03*
X139150000Y-94600000D03*
X139100000Y-103000000D03*
X139100000Y-107300000D03*
X142250000Y-111000000D03*
X142250000Y-109250000D03*
X136250000Y-111000000D03*
X142250000Y-132250000D03*
X142900000Y-126375000D03*
X139400000Y-127750000D03*
X139400000Y-129750000D03*
X141400000Y-129750000D03*
X140400000Y-129750000D03*
X139400000Y-128750000D03*
X140400000Y-128750000D03*
X141400000Y-128750000D03*
X141400000Y-127750000D03*
X140400000Y-127750000D03*
X138600000Y-110850000D03*
X139800000Y-110850000D03*
X139800000Y-109650000D03*
X138550000Y-109650000D03*
X137700000Y-91500000D03*
X138900000Y-91500000D03*
X140050000Y-91500000D03*
X140050000Y-90350000D03*
X138900000Y-90350000D03*
X137700000Y-90350000D03*
X140050000Y-89350000D03*
X138900000Y-89350000D03*
X137700000Y-89350000D03*
X173600000Y-103100000D03*
X173600000Y-96600000D03*
X177600000Y-95300000D03*
X166700000Y-112000000D03*
X166700000Y-105900000D03*
X170400000Y-115200000D03*
X177400000Y-115300000D03*
X180100000Y-111800000D03*
X180100000Y-106100000D03*
X175600000Y-87500000D03*
X174200000Y-87500000D03*
X172300000Y-87500000D03*
X170700000Y-87500000D03*
X164900000Y-66100000D03*
X154800000Y-66100000D03*
X157800000Y-76500000D03*
X138500000Y-82500000D03*
X134600000Y-85400000D03*
X133700000Y-81000000D03*
X136900000Y-96600000D03*
X145900000Y-89700000D03*
X145800000Y-90800000D03*
X146400000Y-92000000D03*
X167700000Y-96400000D03*
X166100000Y-134500000D03*
X164200000Y-136900000D03*
X161600000Y-135600000D03*
X183700000Y-136300000D03*
X182400000Y-138200000D03*
X174300000Y-140400000D03*
X177600000Y-140400000D03*
X165100000Y-131600000D03*
X144800000Y-124300000D03*
X151900000Y-125400000D03*
X149700000Y-130100000D03*
X134100000Y-129200000D03*
X138300000Y-124500000D03*
X140400000Y-123500000D03*
X141500000Y-122200000D03*
X142500000Y-122700000D03*
X142500000Y-123500000D03*
X138300000Y-123500000D03*
X146200000Y-126400000D03*
X144000000Y-130600000D03*
X140400000Y-132600000D03*
X136300000Y-127700000D03*
X147000000Y-131500000D03*
X146250000Y-128500000D03*
X152600000Y-82300000D03*
X152600000Y-84700000D03*
X172100000Y-130100000D03*
X172100000Y-133300000D03*
X151300000Y-93500000D03*
X149400000Y-93500000D03*
X159400000Y-93500000D03*
X161000000Y-93500000D03*
X151200000Y-136600000D03*
X140300000Y-139250000D03*
X156750000Y-125500000D03*
X133000000Y-132200000D03*
X184900000Y-140100000D03*
X139500000Y-132650000D03*
X145100000Y-133300000D03*
X141000000Y-138700000D03*
X182000000Y-141100000D03*
X142250000Y-139000000D03*
X146400000Y-141000000D03*
X145542648Y-129840418D03*
X137899997Y-132600000D03*
X147600000Y-142500000D03*
X137099994Y-132600000D03*
X138700000Y-132600000D03*
D21*
X135775000Y-96600000D02*
X136900000Y-96600000D01*
X143000000Y-84000000D02*
X142000000Y-84000000D01*
X145000000Y-84000000D02*
X144000000Y-84000000D01*
X147000000Y-84000000D02*
X146000000Y-84000000D01*
X148100000Y-83300000D02*
X148100000Y-83900000D01*
X148100000Y-83900000D02*
X148000000Y-84000000D01*
X134500000Y-96000000D02*
X135500000Y-96000000D01*
X132500000Y-96000000D02*
X133500000Y-96000000D01*
X130500000Y-96000000D02*
X131500000Y-96000000D01*
X128500000Y-96000000D02*
X129500000Y-96000000D01*
X126500000Y-96000000D02*
X127500000Y-96000000D01*
X124500000Y-96000000D02*
X125500000Y-96000000D01*
X122500000Y-96000000D02*
X123500000Y-96000000D01*
X120500000Y-98000000D02*
X121500000Y-97000000D01*
X120000000Y-101000000D02*
X120000000Y-100000000D01*
X120000000Y-103000000D02*
X120000000Y-102000000D01*
X120000000Y-105000000D02*
X120000000Y-104000000D01*
X120000000Y-107000000D02*
X120000000Y-106000000D01*
X120000000Y-108000000D02*
X120000000Y-107000000D01*
X120000000Y-110000000D02*
X120000000Y-109000000D01*
X121500000Y-111000000D02*
X120500000Y-111000000D01*
X131500000Y-111000000D02*
X132500000Y-111000000D01*
X129500000Y-111000000D02*
X130500000Y-111000000D01*
X123500000Y-111000000D02*
X122500000Y-111000000D01*
X125500000Y-111000000D02*
X124500000Y-111000000D01*
X127500000Y-111000000D02*
X126500000Y-111000000D01*
X128599990Y-111099990D02*
X128500000Y-111000000D01*
X141059620Y-83359620D02*
X141859620Y-82559620D01*
X155575000Y-123925000D02*
X155325000Y-123925000D01*
X155325000Y-123925000D02*
X154450000Y-123050000D01*
X155575000Y-121500000D02*
X155575000Y-122600000D01*
X155575000Y-119350000D02*
X155575000Y-120350000D01*
X155575000Y-117050000D02*
X155575000Y-118250000D01*
X155550000Y-114775000D02*
X155550000Y-115825000D01*
X155550000Y-115825000D02*
X155575000Y-115850000D01*
X155575000Y-112575000D02*
X155575000Y-113675000D01*
X155575000Y-110200000D02*
X155575000Y-111375000D01*
X155575000Y-107850000D02*
X155575000Y-109025000D01*
X155525000Y-105600000D02*
X155525000Y-106650000D01*
X155525000Y-106650000D02*
X155575000Y-106700000D01*
X155550000Y-103375000D02*
X155550000Y-104500000D01*
X155550000Y-101075000D02*
X155550000Y-102125000D01*
X155550000Y-98825000D02*
X155550000Y-99950000D01*
X134000000Y-133150000D02*
X134000000Y-135600000D01*
X134000000Y-135600000D02*
X133950000Y-135650000D01*
X136200000Y-133200000D02*
X134050000Y-133200000D01*
X134050000Y-133200000D02*
X134000000Y-133150000D01*
X136200000Y-135600000D02*
X136200000Y-133200000D01*
X136200000Y-139100000D02*
X136200000Y-135600000D01*
X161550000Y-114100000D02*
X161550000Y-128000000D01*
X161550000Y-128000000D02*
X161600000Y-128050000D01*
X160350000Y-91300000D02*
X162400000Y-93350000D01*
X162400000Y-93350000D02*
X162400000Y-95200000D01*
X151950000Y-87300000D02*
X155350000Y-90700000D01*
X155350000Y-90700000D02*
X155850000Y-90700000D01*
X161800000Y-87850000D02*
X157050000Y-87850000D01*
X157050000Y-87850000D02*
X156900000Y-87700000D01*
X165950000Y-95200000D02*
X165950000Y-92050000D01*
X165950000Y-92050000D02*
X165850000Y-91950000D01*
X141850000Y-135200000D02*
X141850000Y-136100000D01*
X141850000Y-136100000D02*
X140700000Y-137250000D01*
X175000000Y-133200000D02*
X175000000Y-130050000D01*
X175000000Y-130050000D02*
X174950000Y-130000000D01*
X170200000Y-133250000D02*
X170200000Y-130300000D01*
X164200000Y-136900000D02*
X164200000Y-137500000D01*
X164200000Y-137500000D02*
X161900000Y-139800000D01*
X166700000Y-147000000D02*
X166700000Y-146350000D01*
X166700000Y-146350000D02*
X164950000Y-144600000D01*
X153550000Y-133300000D02*
X153550000Y-135450000D01*
X153550000Y-135450000D02*
X153500000Y-135500000D01*
X148850000Y-82550000D02*
X148100000Y-83300000D01*
X151750000Y-73650000D02*
X151750000Y-79650000D01*
X151500000Y-70100000D02*
X151500000Y-67400000D01*
X166700000Y-147000000D02*
X177950000Y-147000000D01*
X149600000Y-146950000D02*
X159950000Y-146950000D01*
X149700000Y-133300000D02*
X149700000Y-135050001D01*
X149700000Y-135200000D02*
X149700000Y-135050001D01*
X145450000Y-87350000D02*
X144400000Y-87350000D01*
X147450000Y-87850000D02*
X146850000Y-87850000D01*
X146850000Y-87850000D02*
X146350000Y-87350000D01*
X149000000Y-89400000D02*
X148250000Y-88650000D01*
X150400000Y-90800000D02*
X149750000Y-90150000D01*
X144550000Y-59800000D02*
X144500000Y-59800000D01*
X144500000Y-59800000D02*
X143800000Y-59100000D01*
X144550000Y-61800000D02*
X144550000Y-60700000D01*
X144550000Y-64100000D02*
X144550000Y-63100000D01*
X144550000Y-66000000D02*
X144550000Y-65000000D01*
X144550000Y-68150000D02*
X144550000Y-67050000D01*
X144550000Y-70100000D02*
X144550000Y-69050000D01*
X144550000Y-72150000D02*
X144550000Y-71150000D01*
X144550000Y-74150000D02*
X144550000Y-73100000D01*
X144550000Y-76450000D02*
X144550000Y-75350000D01*
X142750000Y-78250000D02*
X143550000Y-77450000D01*
X141200000Y-79800000D02*
X141900000Y-79100000D01*
X139300000Y-81700000D02*
X140200000Y-80800000D01*
X115150000Y-93550000D02*
X113800000Y-93550000D01*
X117350000Y-93550000D02*
X116300000Y-93550000D01*
X119550000Y-93550000D02*
X118400000Y-93550000D01*
X121800000Y-93550000D02*
X120650000Y-93550000D01*
X124200000Y-93550000D02*
X123000000Y-93550000D01*
X126400000Y-93550000D02*
X125300000Y-93550000D01*
X128850000Y-93550000D02*
X127650000Y-93550000D01*
X127650000Y-93550000D02*
X127600000Y-93500000D01*
X131000000Y-93550000D02*
X129950000Y-93550000D01*
X133200000Y-93550000D02*
X132050000Y-93550000D01*
X136050000Y-113650000D02*
X137100000Y-113650000D01*
X133500000Y-113650000D02*
X134850000Y-113650000D01*
X130950000Y-113650000D02*
X132050000Y-113650000D01*
X128600000Y-113650000D02*
X129700000Y-113650000D01*
X126400000Y-113650000D02*
X127450000Y-113650000D01*
X123950000Y-113650000D02*
X125100000Y-113650000D01*
X121750000Y-113950000D02*
X122450000Y-113950000D01*
X122450000Y-113950000D02*
X122750000Y-113650000D01*
X120250000Y-115800000D02*
X120250000Y-115450000D01*
X120250000Y-115450000D02*
X120950000Y-114750000D01*
X120250000Y-118000000D02*
X120250000Y-116950000D01*
X120250000Y-120200000D02*
X120250000Y-119050000D01*
X120250000Y-122500000D02*
X120250000Y-121450000D01*
X120800000Y-124500000D02*
X120800000Y-124050000D01*
X120800000Y-124050000D02*
X120250000Y-123500000D01*
X123100000Y-124500000D02*
X122000000Y-124500000D01*
X125250000Y-124500000D02*
X124250000Y-124500000D01*
X128750000Y-124500000D02*
X127050000Y-124500000D01*
X131700000Y-124500000D02*
X130350000Y-124500000D01*
X134450000Y-124500000D02*
X133150000Y-124500000D01*
X137000000Y-124500000D02*
X135650000Y-124500000D01*
X153500000Y-122400000D02*
X153800000Y-122400000D01*
X153800000Y-122400000D02*
X154450000Y-123050000D01*
X151000000Y-122400000D02*
X152200000Y-122400000D01*
X148600000Y-122400000D02*
X149800000Y-122400000D01*
X146150000Y-122400000D02*
X147300000Y-122400000D01*
X143650000Y-122400000D02*
X145000000Y-122400000D01*
X142550000Y-94050000D02*
X142550000Y-93050000D01*
X143250000Y-95600000D02*
X143250000Y-95550000D01*
X143250000Y-95550000D02*
X142600000Y-94900000D01*
X146300000Y-95600000D02*
X144650000Y-95600000D01*
X144650000Y-95600000D02*
X144600000Y-95650000D01*
X149500000Y-95600000D02*
X147800000Y-95600000D01*
X152400000Y-95550000D02*
X150950000Y-95550000D01*
D22*
X146250000Y-128500000D02*
X147000000Y-129250000D01*
X147000000Y-129250000D02*
X147000000Y-131500000D01*
D21*
X152600000Y-84700000D02*
X152600000Y-82300000D01*
X172100000Y-133300000D02*
X172100000Y-130100000D01*
D23*
X159400000Y-93500000D02*
X151300000Y-93500000D01*
X151300000Y-93500000D02*
X149400000Y-93500000D01*
X161000000Y-93500000D02*
X159400000Y-93500000D01*
D24*
X151200000Y-136600000D02*
X151499999Y-136300001D01*
X151499999Y-136300001D02*
X151499999Y-136147430D01*
X151499999Y-136147430D02*
X151997428Y-135650001D01*
X139500000Y-133700000D02*
X139500000Y-138450000D01*
X139500000Y-138450000D02*
X140300000Y-139250000D01*
D21*
X156750000Y-125500000D02*
X156325736Y-125500000D01*
X156325736Y-125500000D02*
X151997428Y-129828308D01*
X151997428Y-129828308D02*
X151997428Y-135650001D01*
D24*
X182111998Y-140100000D02*
X184900000Y-140100000D01*
X157431376Y-141083949D02*
X181128049Y-141083949D01*
X151997428Y-135650001D02*
X157431376Y-141083949D01*
X181128049Y-141083949D02*
X182111998Y-140100000D01*
X133000000Y-132200000D02*
X133200001Y-131999999D01*
X133200001Y-131999999D02*
X139274263Y-131999999D01*
X139274263Y-131999999D02*
X139500000Y-132225736D01*
X139500000Y-132225736D02*
X139500000Y-132650000D01*
X139500000Y-132650000D02*
X139500000Y-133700000D01*
X141799999Y-138400001D02*
X145000000Y-135200000D01*
X145000000Y-135200000D02*
X145200000Y-135000000D01*
X145100000Y-133300000D02*
X145100000Y-135100000D01*
X145100000Y-135100000D02*
X145000000Y-135200000D01*
X141000000Y-138700000D02*
X141299999Y-138400001D01*
X141299999Y-138400001D02*
X141799999Y-138400001D01*
X143615689Y-140399990D02*
X142699990Y-140399990D01*
X142699990Y-140399990D02*
X141000000Y-138700000D01*
X157265688Y-141483959D02*
X156181719Y-140399990D01*
X156181719Y-140399990D02*
X143615689Y-140399990D01*
X182000000Y-141483959D02*
X157265688Y-141483959D01*
X186196041Y-141483959D02*
X182000000Y-141483959D01*
X182000000Y-141100000D02*
X182000000Y-141483959D01*
X195690000Y-131990000D02*
X189500000Y-138180000D01*
X189500000Y-138180000D02*
X186196041Y-141483959D01*
X189480000Y-138200000D02*
X189500000Y-138180000D01*
X145542648Y-129840418D02*
X145542648Y-130264682D01*
X145542648Y-130264682D02*
X145800002Y-130522036D01*
X145800002Y-130522036D02*
X145800002Y-135449998D01*
X145800002Y-135449998D02*
X142250000Y-139000000D01*
X157100000Y-141883969D02*
X156216031Y-141000000D01*
X156216031Y-141000000D02*
X146400000Y-141000000D01*
X159160668Y-141883969D02*
X157100000Y-141883969D01*
X195690000Y-134530000D02*
X194473777Y-134530000D01*
X194473777Y-134530000D02*
X187119808Y-141883969D01*
X187119808Y-141883969D02*
X159160668Y-141883969D01*
X143492001Y-143980001D02*
X144090001Y-143382001D01*
X144090001Y-143382001D02*
X144090001Y-142277999D01*
X144090001Y-142277999D02*
X143091991Y-141279989D01*
X137899997Y-133024264D02*
X137899997Y-132600000D01*
X143091991Y-141279989D02*
X140629989Y-141279989D01*
X140629989Y-141279989D02*
X137900000Y-138550000D01*
X137900000Y-138550000D02*
X137900000Y-133024267D01*
X137900000Y-133024267D02*
X137899997Y-133024264D01*
X195690000Y-142150000D02*
X194756001Y-143083999D01*
X194756001Y-143083999D02*
X155716001Y-143083999D01*
X155716001Y-143083999D02*
X154819999Y-143980001D01*
X154819999Y-143980001D02*
X143492001Y-143980001D01*
X143492001Y-143980001D02*
X141550001Y-143980001D01*
X141550001Y-143980001D02*
X141249999Y-143679999D01*
X141249999Y-143679999D02*
X140400000Y-142830000D01*
X137099994Y-132600000D02*
X137099994Y-138699994D01*
X137099994Y-138699994D02*
X140079999Y-141679999D01*
X140079999Y-141679999D02*
X141789999Y-141679999D01*
X141789999Y-141679999D02*
X142090001Y-141980001D01*
X142090001Y-141980001D02*
X142940000Y-142830000D01*
X156300000Y-142683989D02*
X147783989Y-142683989D01*
X147783989Y-142683989D02*
X147600000Y-142500000D01*
X158829290Y-142683989D02*
X156300000Y-142683989D01*
X195690000Y-139610000D02*
X192616011Y-142683989D01*
X192616011Y-142683989D02*
X158829290Y-142683989D01*
X138700000Y-132600000D02*
X138700000Y-138700000D01*
X138700000Y-138700000D02*
X140800000Y-140800000D01*
X143450000Y-140800000D02*
X145480000Y-142830000D01*
X140800000Y-140800000D02*
X143450000Y-140800000D01*
X195690000Y-137070000D02*
X190476021Y-142283979D01*
X190476021Y-142283979D02*
X156600000Y-142283979D01*
X156600000Y-142283979D02*
X156216020Y-141899999D01*
X146329999Y-141980001D02*
X145480000Y-142830000D01*
X156216020Y-141899999D02*
X146410001Y-141899999D01*
X146410001Y-141899999D02*
X146329999Y-141980001D01*
D21*
X150060000Y-63000000D02*
X150060000Y-83810000D01*
X179950000Y-129450000D02*
X195690000Y-129450000D01*
X163750000Y-113250000D02*
X179950000Y-129450000D01*
X163750000Y-92250000D02*
X163750000Y-113250000D01*
X160750000Y-89250000D02*
X163750000Y-92250000D01*
X155500000Y-89250000D02*
X160750000Y-89250000D01*
X150060000Y-83810000D02*
X155500000Y-89250000D01*
D25*
G36*
X207705000Y-147815000D02*
X113185000Y-147815000D01*
X113185000Y-145655750D01*
X133835000Y-145655750D01*
X133835000Y-146346310D01*
X133931673Y-146579699D01*
X134110302Y-146758327D01*
X134343691Y-146855000D01*
X135034250Y-146855000D01*
X135193000Y-146696250D01*
X135193000Y-145497000D01*
X133993750Y-145497000D01*
X133835000Y-145655750D01*
X113185000Y-145655750D01*
X113185000Y-142332875D01*
X115036730Y-142332875D01*
X115400630Y-142825710D01*
X116797124Y-143414937D01*
X118312803Y-143424898D01*
X119716920Y-142854074D01*
X119759370Y-142825710D01*
X120123270Y-142332875D01*
X117580000Y-139789605D01*
X115036730Y-142332875D01*
X113185000Y-142332875D01*
X113185000Y-140342803D01*
X113765102Y-140342803D01*
X114335926Y-141746920D01*
X114364290Y-141789370D01*
X114857125Y-142153270D01*
X117400395Y-139610000D01*
X117759605Y-139610000D01*
X120302875Y-142153270D01*
X120795710Y-141789370D01*
X121384937Y-140392876D01*
X121394898Y-138877197D01*
X120824074Y-137473080D01*
X120795710Y-137430630D01*
X120302875Y-137066730D01*
X117759605Y-139610000D01*
X117400395Y-139610000D01*
X114857125Y-137066730D01*
X114364290Y-137430630D01*
X113775063Y-138827124D01*
X113765102Y-140342803D01*
X113185000Y-140342803D01*
X113185000Y-136887125D01*
X115036730Y-136887125D01*
X117580000Y-139430395D01*
X120123270Y-136887125D01*
X119759370Y-136394290D01*
X118362876Y-135805063D01*
X116847197Y-135795102D01*
X115443080Y-136365926D01*
X115400630Y-136394290D01*
X115036730Y-136887125D01*
X113185000Y-136887125D01*
X113185000Y-132385167D01*
X132064838Y-132385167D01*
X132206883Y-132728943D01*
X132469673Y-132992192D01*
X132813201Y-133134838D01*
X133185167Y-133135162D01*
X133528943Y-132993117D01*
X133787512Y-132734999D01*
X136164876Y-132734999D01*
X136164832Y-132785167D01*
X136306877Y-133128943D01*
X136364994Y-133187162D01*
X136364994Y-138699994D01*
X136410934Y-138930949D01*
X136420943Y-138981266D01*
X136580271Y-139219717D01*
X139245131Y-141884578D01*
X139141812Y-141987717D01*
X139130252Y-142015557D01*
X139119656Y-141989914D01*
X138702283Y-141571812D01*
X138156681Y-141345258D01*
X137565911Y-141344743D01*
X137019914Y-141570344D01*
X136601812Y-141987717D01*
X136590252Y-142015557D01*
X136579656Y-141989914D01*
X136162283Y-141571812D01*
X135616681Y-141345258D01*
X135025911Y-141344743D01*
X134479914Y-141570344D01*
X134061812Y-141987717D01*
X133835258Y-142533319D01*
X133834743Y-143124089D01*
X134060344Y-143670086D01*
X134295012Y-143905164D01*
X134110302Y-143981673D01*
X133931673Y-144160301D01*
X133835000Y-144393690D01*
X133835000Y-145084250D01*
X133993750Y-145243000D01*
X135193000Y-145243000D01*
X135193000Y-145223000D01*
X135447000Y-145223000D01*
X135447000Y-145243000D01*
X135467000Y-145243000D01*
X135467000Y-145497000D01*
X135447000Y-145497000D01*
X135447000Y-146696250D01*
X135605750Y-146855000D01*
X136296309Y-146855000D01*
X136529698Y-146758327D01*
X136708327Y-146579699D01*
X136784862Y-146394927D01*
X137017717Y-146628188D01*
X137563319Y-146854742D01*
X138154089Y-146855257D01*
X138700086Y-146629656D01*
X139118188Y-146212283D01*
X139129748Y-146184443D01*
X139140344Y-146210086D01*
X139557717Y-146628188D01*
X140103319Y-146854742D01*
X140694089Y-146855257D01*
X141240086Y-146629656D01*
X141658188Y-146212283D01*
X141682655Y-146153361D01*
X141860853Y-146420054D01*
X142342622Y-146741961D01*
X142910907Y-146855000D01*
X142969093Y-146855000D01*
X143537378Y-146741961D01*
X144019147Y-146420054D01*
X144197074Y-146153767D01*
X144220344Y-146210086D01*
X144637717Y-146628188D01*
X145183319Y-146854742D01*
X145774089Y-146855257D01*
X146320086Y-146629656D01*
X146738188Y-146212283D01*
X146767008Y-146142875D01*
X200766730Y-146142875D01*
X201130630Y-146635710D01*
X202527124Y-147224937D01*
X204042803Y-147234898D01*
X205446920Y-146664074D01*
X205489370Y-146635710D01*
X205853270Y-146142875D01*
X203310000Y-143599605D01*
X200766730Y-146142875D01*
X146767008Y-146142875D01*
X146964742Y-145666681D01*
X146965257Y-145075911D01*
X146816132Y-144715001D01*
X154819999Y-144715001D01*
X155101271Y-144659052D01*
X155339722Y-144499724D01*
X156020448Y-143818999D01*
X156048960Y-143818999D01*
X156048960Y-145416000D01*
X156093238Y-145651317D01*
X156232310Y-145867441D01*
X156444510Y-146012431D01*
X156696400Y-146063440D01*
X158423600Y-146063440D01*
X158658917Y-146019162D01*
X158875041Y-145880090D01*
X159020031Y-145667890D01*
X159028400Y-145626561D01*
X159040330Y-145644415D01*
X159526511Y-145969271D01*
X160100000Y-146083345D01*
X160673489Y-145969271D01*
X161159670Y-145644415D01*
X161370000Y-145329634D01*
X161580330Y-145644415D01*
X162066511Y-145969271D01*
X162640000Y-146083345D01*
X163213489Y-145969271D01*
X163699670Y-145644415D01*
X164024526Y-145158234D01*
X164138600Y-144584745D01*
X164138600Y-144215255D01*
X164059780Y-143818999D01*
X194756001Y-143818999D01*
X195037273Y-143763050D01*
X195275724Y-143603722D01*
X195280658Y-143598788D01*
X195391321Y-143644740D01*
X195986069Y-143645259D01*
X196535743Y-143418139D01*
X196753061Y-143201199D01*
X197358406Y-143201199D01*
X197439906Y-143453537D01*
X197998890Y-143656667D01*
X198593059Y-143630421D01*
X199020094Y-143453537D01*
X199101594Y-143201199D01*
X198230000Y-142329605D01*
X197358406Y-143201199D01*
X196753061Y-143201199D01*
X196956660Y-142997955D01*
X196974274Y-142955536D01*
X197178801Y-143021594D01*
X198050395Y-142150000D01*
X198409605Y-142150000D01*
X199281199Y-143021594D01*
X199503007Y-142949955D01*
X199495102Y-144152803D01*
X200065926Y-145556920D01*
X200094290Y-145599370D01*
X200587125Y-145963270D01*
X203130395Y-143420000D01*
X203489605Y-143420000D01*
X206032875Y-145963270D01*
X206525710Y-145599370D01*
X207114937Y-144202876D01*
X207124898Y-142687197D01*
X206554074Y-141283080D01*
X206525710Y-141240630D01*
X206032875Y-140876730D01*
X203489605Y-143420000D01*
X203130395Y-143420000D01*
X200587125Y-140876730D01*
X200094290Y-141240630D01*
X199724955Y-142115970D01*
X199710421Y-141786941D01*
X199533537Y-141359906D01*
X199281199Y-141278406D01*
X198409605Y-142150000D01*
X198050395Y-142150000D01*
X197178801Y-141278406D01*
X196974696Y-141344328D01*
X196958139Y-141304257D01*
X196537955Y-140883340D01*
X196530574Y-140880275D01*
X196535743Y-140878139D01*
X196753061Y-140661199D01*
X197358406Y-140661199D01*
X197429074Y-140880000D01*
X197358406Y-141098801D01*
X198230000Y-141970395D01*
X199101594Y-141098801D01*
X199030926Y-140880000D01*
X199089990Y-140697125D01*
X200766730Y-140697125D01*
X203310000Y-143240395D01*
X205853270Y-140697125D01*
X205489370Y-140204290D01*
X204092876Y-139615063D01*
X202577197Y-139605102D01*
X201173080Y-140175926D01*
X201130630Y-140204290D01*
X200766730Y-140697125D01*
X199089990Y-140697125D01*
X199101594Y-140661199D01*
X198230000Y-139789605D01*
X197358406Y-140661199D01*
X196753061Y-140661199D01*
X196956660Y-140457955D01*
X196974274Y-140415536D01*
X197178801Y-140481594D01*
X198050395Y-139610000D01*
X198409605Y-139610000D01*
X199281199Y-140481594D01*
X199533537Y-140400094D01*
X199736667Y-139841110D01*
X199710421Y-139246941D01*
X199533537Y-138819906D01*
X199281199Y-138738406D01*
X198409605Y-139610000D01*
X198050395Y-139610000D01*
X197178801Y-138738406D01*
X196974696Y-138804328D01*
X196958139Y-138764257D01*
X196537955Y-138343340D01*
X196530574Y-138340275D01*
X196535743Y-138338139D01*
X196956660Y-137917955D01*
X196959725Y-137910574D01*
X196961861Y-137915743D01*
X197382045Y-138336660D01*
X197424464Y-138354274D01*
X197358406Y-138558801D01*
X198230000Y-139430395D01*
X199101594Y-138558801D01*
X199035672Y-138354696D01*
X199075743Y-138338139D01*
X199496660Y-137917955D01*
X199724740Y-137368679D01*
X199725259Y-136773931D01*
X199498139Y-136224257D01*
X199077955Y-135803340D01*
X199070574Y-135800275D01*
X199075743Y-135798139D01*
X199496660Y-135377955D01*
X199724740Y-134828679D01*
X199725259Y-134233931D01*
X199498139Y-133684257D01*
X199077955Y-133263340D01*
X199070574Y-133260275D01*
X199075743Y-133258139D01*
X199496660Y-132837955D01*
X199724740Y-132288679D01*
X199725259Y-131693931D01*
X199498139Y-131144257D01*
X199077955Y-130723340D01*
X199070574Y-130720275D01*
X199075743Y-130718139D01*
X199496660Y-130297955D01*
X199724740Y-129748679D01*
X199725259Y-129153931D01*
X199498139Y-128604257D01*
X199077955Y-128183340D01*
X199070574Y-128180275D01*
X199075743Y-128178139D01*
X199496660Y-127757955D01*
X199724740Y-127208679D01*
X199725259Y-126613931D01*
X199498139Y-126064257D01*
X199077955Y-125643340D01*
X199070574Y-125640275D01*
X199075743Y-125638139D01*
X199496660Y-125217955D01*
X199724740Y-124668679D01*
X199725259Y-124073931D01*
X199498139Y-123524257D01*
X199077955Y-123103340D01*
X199070574Y-123100275D01*
X199075743Y-123098139D01*
X199496660Y-122677955D01*
X199724740Y-122128679D01*
X199725259Y-121533931D01*
X199498139Y-120984257D01*
X199077955Y-120563340D01*
X199070574Y-120560275D01*
X199075743Y-120558139D01*
X199496660Y-120137955D01*
X199724740Y-119588679D01*
X199725259Y-118993931D01*
X199498139Y-118444257D01*
X199077955Y-118023340D01*
X199070574Y-118020275D01*
X199075743Y-118018139D01*
X199496660Y-117597955D01*
X199724740Y-117048679D01*
X199725259Y-116453931D01*
X199498139Y-115904257D01*
X199077955Y-115483340D01*
X199070574Y-115480275D01*
X199075743Y-115478139D01*
X199496660Y-115057955D01*
X199724740Y-114508679D01*
X199725259Y-113913931D01*
X199498139Y-113364257D01*
X199077955Y-112943340D01*
X199070574Y-112940275D01*
X199075743Y-112938139D01*
X199496660Y-112517955D01*
X199724740Y-111968679D01*
X199725259Y-111373931D01*
X199498139Y-110824257D01*
X199077955Y-110403340D01*
X199070574Y-110400275D01*
X199075743Y-110398139D01*
X199496660Y-109977955D01*
X199724740Y-109428679D01*
X199725259Y-108833931D01*
X199498139Y-108284257D01*
X199077955Y-107863340D01*
X199070574Y-107860275D01*
X199075743Y-107858139D01*
X199496660Y-107437955D01*
X199724740Y-106888679D01*
X199725259Y-106293931D01*
X199498139Y-105744257D01*
X199077955Y-105323340D01*
X199070574Y-105320275D01*
X199075743Y-105318139D01*
X199496660Y-104897955D01*
X199724740Y-104348679D01*
X199725259Y-103753931D01*
X199498139Y-103204257D01*
X199077955Y-102783340D01*
X199070574Y-102780275D01*
X199075743Y-102778139D01*
X199496660Y-102357955D01*
X199724740Y-101808679D01*
X199725259Y-101213931D01*
X199498139Y-100664257D01*
X199077955Y-100243340D01*
X199070574Y-100240275D01*
X199075743Y-100238139D01*
X199496660Y-99817955D01*
X199724740Y-99268679D01*
X199725259Y-98673931D01*
X199498139Y-98124257D01*
X199077955Y-97703340D01*
X199070574Y-97700275D01*
X199075743Y-97698139D01*
X199496660Y-97277955D01*
X199724740Y-96728679D01*
X199725259Y-96133931D01*
X199498139Y-95584257D01*
X199077955Y-95163340D01*
X199070574Y-95160275D01*
X199075743Y-95158139D01*
X199496660Y-94737955D01*
X199724740Y-94188679D01*
X199725259Y-93593931D01*
X199498139Y-93044257D01*
X199077955Y-92623340D01*
X199070574Y-92620275D01*
X199075743Y-92618139D01*
X199496660Y-92197955D01*
X199724740Y-91648679D01*
X199725259Y-91053931D01*
X199498139Y-90504257D01*
X199077955Y-90083340D01*
X199070574Y-90080275D01*
X199075743Y-90078139D01*
X199496660Y-89657955D01*
X199724740Y-89108679D01*
X199725259Y-88513931D01*
X199498139Y-87964257D01*
X199077955Y-87543340D01*
X199070574Y-87540275D01*
X199075743Y-87538139D01*
X199496660Y-87117955D01*
X199724740Y-86568679D01*
X199725259Y-85973931D01*
X199498139Y-85424257D01*
X199077955Y-85003340D01*
X199070574Y-85000275D01*
X199075743Y-84998139D01*
X199496660Y-84577955D01*
X199724740Y-84028679D01*
X199725259Y-83433931D01*
X199498139Y-82884257D01*
X199077955Y-82463340D01*
X199070574Y-82460275D01*
X199075743Y-82458139D01*
X199496660Y-82037955D01*
X199724740Y-81488679D01*
X199725259Y-80893931D01*
X199498139Y-80344257D01*
X199077955Y-79923340D01*
X199070574Y-79920275D01*
X199075743Y-79918139D01*
X199496660Y-79497955D01*
X199724740Y-78948679D01*
X199725259Y-78353931D01*
X199498139Y-77804257D01*
X199077955Y-77383340D01*
X199070574Y-77380275D01*
X199075743Y-77378139D01*
X199496660Y-76957955D01*
X199724740Y-76408679D01*
X199725259Y-75813931D01*
X199498139Y-75264257D01*
X199077955Y-74843340D01*
X199070574Y-74840275D01*
X199075743Y-74838139D01*
X199496660Y-74417955D01*
X199724740Y-73868679D01*
X199725259Y-73273931D01*
X199498139Y-72724257D01*
X199077955Y-72303340D01*
X199070574Y-72300275D01*
X199075743Y-72298139D01*
X199496660Y-71877955D01*
X199724740Y-71328679D01*
X199725259Y-70733931D01*
X199498139Y-70184257D01*
X199077955Y-69763340D01*
X199070574Y-69760275D01*
X199075743Y-69758139D01*
X199496660Y-69337955D01*
X199724740Y-68788679D01*
X199725259Y-68193931D01*
X199498139Y-67644257D01*
X199077955Y-67223340D01*
X199035536Y-67205726D01*
X199101594Y-67001199D01*
X198230000Y-66129605D01*
X197358406Y-67001199D01*
X197424328Y-67205304D01*
X197384257Y-67221861D01*
X196963340Y-67642045D01*
X196960275Y-67649426D01*
X196958139Y-67644257D01*
X196537955Y-67223340D01*
X196530574Y-67220275D01*
X196535743Y-67218139D01*
X196956660Y-66797955D01*
X196974274Y-66755536D01*
X197178801Y-66821594D01*
X198050395Y-65950000D01*
X198409605Y-65950000D01*
X199281199Y-66821594D01*
X199533537Y-66740094D01*
X199736667Y-66181110D01*
X199734537Y-66132875D01*
X200766730Y-66132875D01*
X201130630Y-66625710D01*
X202527124Y-67214937D01*
X204042803Y-67224898D01*
X205446920Y-66654074D01*
X205489370Y-66625710D01*
X205853270Y-66132875D01*
X203310000Y-63589605D01*
X200766730Y-66132875D01*
X199734537Y-66132875D01*
X199710421Y-65586941D01*
X199533537Y-65159906D01*
X199281199Y-65078406D01*
X198409605Y-65950000D01*
X198050395Y-65950000D01*
X197178801Y-65078406D01*
X196974696Y-65144328D01*
X196958139Y-65104257D01*
X196537955Y-64683340D01*
X196530574Y-64680275D01*
X196535743Y-64678139D01*
X196753061Y-64461199D01*
X197358406Y-64461199D01*
X197429074Y-64680000D01*
X197358406Y-64898801D01*
X198230000Y-65770395D01*
X199101594Y-64898801D01*
X199030926Y-64680000D01*
X199101594Y-64461199D01*
X198230000Y-63589605D01*
X197358406Y-64461199D01*
X196753061Y-64461199D01*
X196956660Y-64257955D01*
X196974274Y-64215536D01*
X197178801Y-64281594D01*
X198050395Y-63410000D01*
X198409605Y-63410000D01*
X199281199Y-64281594D01*
X199520151Y-64204418D01*
X200065926Y-65546920D01*
X200094290Y-65589370D01*
X200587125Y-65953270D01*
X203130395Y-63410000D01*
X203489605Y-63410000D01*
X206032875Y-65953270D01*
X206525710Y-65589370D01*
X207114937Y-64192876D01*
X207124898Y-62677197D01*
X206554074Y-61273080D01*
X206525710Y-61230630D01*
X206032875Y-60866730D01*
X203489605Y-63410000D01*
X203130395Y-63410000D01*
X200587125Y-60866730D01*
X200094290Y-61230630D01*
X199511158Y-62612678D01*
X199281199Y-62538406D01*
X198409605Y-63410000D01*
X198050395Y-63410000D01*
X197178801Y-62538406D01*
X196974696Y-62604328D01*
X196958139Y-62564257D01*
X196753041Y-62358801D01*
X197358406Y-62358801D01*
X198230000Y-63230395D01*
X199101594Y-62358801D01*
X199020094Y-62106463D01*
X198461110Y-61903333D01*
X197866941Y-61929579D01*
X197439906Y-62106463D01*
X197358406Y-62358801D01*
X196753041Y-62358801D01*
X196537955Y-62143340D01*
X195988679Y-61915260D01*
X195393931Y-61914741D01*
X194844257Y-62141861D01*
X194423340Y-62562045D01*
X194195260Y-63111321D01*
X194194741Y-63706069D01*
X194421861Y-64255743D01*
X194842045Y-64676660D01*
X194849426Y-64679725D01*
X194844257Y-64681861D01*
X194423340Y-65102045D01*
X194195260Y-65651321D01*
X194194741Y-66246069D01*
X194421861Y-66795743D01*
X194842045Y-67216660D01*
X194849426Y-67219725D01*
X194844257Y-67221861D01*
X194423340Y-67642045D01*
X194195260Y-68191321D01*
X194194741Y-68786069D01*
X194421861Y-69335743D01*
X194842045Y-69756660D01*
X194849426Y-69759725D01*
X194844257Y-69761861D01*
X194423340Y-70182045D01*
X194195260Y-70731321D01*
X194194741Y-71326069D01*
X194421861Y-71875743D01*
X194842045Y-72296660D01*
X194849426Y-72299725D01*
X194844257Y-72301861D01*
X194423340Y-72722045D01*
X194195260Y-73271321D01*
X194194741Y-73866069D01*
X194421861Y-74415743D01*
X194842045Y-74836660D01*
X194849426Y-74839725D01*
X194844257Y-74841861D01*
X194423340Y-75262045D01*
X194195260Y-75811321D01*
X194194741Y-76406069D01*
X194421861Y-76955743D01*
X194842045Y-77376660D01*
X194849426Y-77379725D01*
X194844257Y-77381861D01*
X194423340Y-77802045D01*
X194195260Y-78351321D01*
X194194741Y-78946069D01*
X194421861Y-79495743D01*
X194842045Y-79916660D01*
X194849426Y-79919725D01*
X194844257Y-79921861D01*
X194423340Y-80342045D01*
X194195260Y-80891321D01*
X194194741Y-81486069D01*
X194421861Y-82035743D01*
X194842045Y-82456660D01*
X194849426Y-82459725D01*
X194844257Y-82461861D01*
X194423340Y-82882045D01*
X194195260Y-83431321D01*
X194194741Y-84026069D01*
X194421861Y-84575743D01*
X194842045Y-84996660D01*
X194849426Y-84999725D01*
X194844257Y-85001861D01*
X194423340Y-85422045D01*
X194195260Y-85971321D01*
X194194741Y-86566069D01*
X194421861Y-87115743D01*
X194842045Y-87536660D01*
X194849426Y-87539725D01*
X194844257Y-87541861D01*
X194423340Y-87962045D01*
X194195260Y-88511321D01*
X194194741Y-89106069D01*
X194421861Y-89655743D01*
X194842045Y-90076660D01*
X194849426Y-90079725D01*
X194844257Y-90081861D01*
X194423340Y-90502045D01*
X194195260Y-91051321D01*
X194194741Y-91646069D01*
X194421861Y-92195743D01*
X194842045Y-92616660D01*
X194849426Y-92619725D01*
X194844257Y-92621861D01*
X194423340Y-93042045D01*
X194195260Y-93591321D01*
X194194741Y-94186069D01*
X194421861Y-94735743D01*
X194842045Y-95156660D01*
X194849426Y-95159725D01*
X194844257Y-95161861D01*
X194423340Y-95582045D01*
X194195260Y-96131321D01*
X194194741Y-96726069D01*
X194421861Y-97275743D01*
X194842045Y-97696660D01*
X194849426Y-97699725D01*
X194844257Y-97701861D01*
X194423340Y-98122045D01*
X194195260Y-98671321D01*
X194194741Y-99266069D01*
X194421861Y-99815743D01*
X194842045Y-100236660D01*
X194849426Y-100239725D01*
X194844257Y-100241861D01*
X194423340Y-100662045D01*
X194195260Y-101211321D01*
X194194741Y-101806069D01*
X194421861Y-102355743D01*
X194842045Y-102776660D01*
X194849426Y-102779725D01*
X194844257Y-102781861D01*
X194423340Y-103202045D01*
X194195260Y-103751321D01*
X194194741Y-104346069D01*
X194421861Y-104895743D01*
X194842045Y-105316660D01*
X194849426Y-105319725D01*
X194844257Y-105321861D01*
X194423340Y-105742045D01*
X194195260Y-106291321D01*
X194194741Y-106886069D01*
X194421861Y-107435743D01*
X194842045Y-107856660D01*
X194849426Y-107859725D01*
X194844257Y-107861861D01*
X194423340Y-108282045D01*
X194195260Y-108831321D01*
X194194741Y-109426069D01*
X194421861Y-109975743D01*
X194842045Y-110396660D01*
X194849426Y-110399725D01*
X194844257Y-110401861D01*
X194423340Y-110822045D01*
X194195260Y-111371321D01*
X194194741Y-111966069D01*
X194421861Y-112515743D01*
X194842045Y-112936660D01*
X194849426Y-112939725D01*
X194844257Y-112941861D01*
X194423340Y-113362045D01*
X194195260Y-113911321D01*
X194194741Y-114506069D01*
X194421861Y-115055743D01*
X194842045Y-115476660D01*
X194849426Y-115479725D01*
X194844257Y-115481861D01*
X194423340Y-115902045D01*
X194195260Y-116451321D01*
X194194741Y-117046069D01*
X194421861Y-117595743D01*
X194842045Y-118016660D01*
X194849426Y-118019725D01*
X194844257Y-118021861D01*
X194423340Y-118442045D01*
X194195260Y-118991321D01*
X194194741Y-119586069D01*
X194421861Y-120135743D01*
X194842045Y-120556660D01*
X194849426Y-120559725D01*
X194844257Y-120561861D01*
X194423340Y-120982045D01*
X194195260Y-121531321D01*
X194194741Y-122126069D01*
X194421861Y-122675743D01*
X194842045Y-123096660D01*
X194849426Y-123099725D01*
X194844257Y-123101861D01*
X194423340Y-123522045D01*
X194195260Y-124071321D01*
X194194741Y-124666069D01*
X194421861Y-125215743D01*
X194842045Y-125636660D01*
X194849426Y-125639725D01*
X194844257Y-125641861D01*
X194423340Y-126062045D01*
X194195260Y-126611321D01*
X194194741Y-127206069D01*
X194421861Y-127755743D01*
X194842045Y-128176660D01*
X194849426Y-128179725D01*
X194844257Y-128181861D01*
X194423340Y-128602045D01*
X194397199Y-128665000D01*
X180275158Y-128665000D01*
X164535000Y-112924842D01*
X164535000Y-92250000D01*
X164475245Y-91949594D01*
X164305079Y-91694921D01*
X161305079Y-88694921D01*
X161050407Y-88524755D01*
X160750000Y-88465000D01*
X155825158Y-88465000D01*
X152933875Y-85573717D01*
X153128943Y-85493117D01*
X153392192Y-85230327D01*
X153534838Y-84886799D01*
X153535162Y-84514833D01*
X153393117Y-84171057D01*
X153385000Y-84162926D01*
X153385000Y-82837506D01*
X153392192Y-82830327D01*
X153534838Y-82486799D01*
X153535162Y-82114833D01*
X153393117Y-81771057D01*
X153130327Y-81507808D01*
X152786799Y-81365162D01*
X152414833Y-81364838D01*
X152071057Y-81506883D01*
X151807808Y-81769673D01*
X151665162Y-82113201D01*
X151664838Y-82485167D01*
X151806883Y-82828943D01*
X151815000Y-82837074D01*
X151815000Y-84162494D01*
X151807808Y-84169673D01*
X151726248Y-84366090D01*
X150845000Y-83484842D01*
X150845000Y-64663440D01*
X150923600Y-64663440D01*
X151158917Y-64619162D01*
X151375041Y-64480090D01*
X151520031Y-64267890D01*
X151528400Y-64226561D01*
X151540330Y-64244415D01*
X152026511Y-64569271D01*
X152600000Y-64683345D01*
X153173489Y-64569271D01*
X153659670Y-64244415D01*
X153870000Y-63929634D01*
X154080330Y-64244415D01*
X154566511Y-64569271D01*
X155140000Y-64683345D01*
X155713489Y-64569271D01*
X156199670Y-64244415D01*
X156524526Y-63758234D01*
X156618508Y-63285750D01*
X163861400Y-63285750D01*
X163861400Y-64142310D01*
X163958073Y-64375699D01*
X164136702Y-64554327D01*
X164370091Y-64651000D01*
X165074250Y-64651000D01*
X165233000Y-64492250D01*
X165233000Y-63127000D01*
X164020150Y-63127000D01*
X163861400Y-63285750D01*
X156618508Y-63285750D01*
X156638600Y-63184745D01*
X156638600Y-62815255D01*
X156524526Y-62241766D01*
X156267895Y-61857690D01*
X163861400Y-61857690D01*
X163861400Y-62714250D01*
X164020150Y-62873000D01*
X165233000Y-62873000D01*
X165233000Y-61507750D01*
X165487000Y-61507750D01*
X165487000Y-62873000D01*
X165507000Y-62873000D01*
X165507000Y-63127000D01*
X165487000Y-63127000D01*
X165487000Y-64492250D01*
X165645750Y-64651000D01*
X166349909Y-64651000D01*
X166583298Y-64554327D01*
X166761927Y-64375699D01*
X166825500Y-64222220D01*
X166840330Y-64244415D01*
X167326511Y-64569271D01*
X167900000Y-64683345D01*
X168473489Y-64569271D01*
X168959670Y-64244415D01*
X169170000Y-63929634D01*
X169380330Y-64244415D01*
X169866511Y-64569271D01*
X170440000Y-64683345D01*
X171013489Y-64569271D01*
X171499670Y-64244415D01*
X171824526Y-63758234D01*
X171938600Y-63184745D01*
X171938600Y-62815255D01*
X171824526Y-62241766D01*
X171499670Y-61755585D01*
X171013489Y-61430729D01*
X170440000Y-61316655D01*
X169866511Y-61430729D01*
X169380330Y-61755585D01*
X169170000Y-62070366D01*
X168959670Y-61755585D01*
X168473489Y-61430729D01*
X167900000Y-61316655D01*
X167326511Y-61430729D01*
X166840330Y-61755585D01*
X166825500Y-61777780D01*
X166761927Y-61624301D01*
X166583298Y-61445673D01*
X166349909Y-61349000D01*
X165645750Y-61349000D01*
X165487000Y-61507750D01*
X165233000Y-61507750D01*
X165074250Y-61349000D01*
X164370091Y-61349000D01*
X164136702Y-61445673D01*
X163958073Y-61624301D01*
X163861400Y-61857690D01*
X156267895Y-61857690D01*
X156199670Y-61755585D01*
X155713489Y-61430729D01*
X155140000Y-61316655D01*
X154566511Y-61430729D01*
X154080330Y-61755585D01*
X153870000Y-62070366D01*
X153659670Y-61755585D01*
X153173489Y-61430729D01*
X152600000Y-61316655D01*
X152026511Y-61430729D01*
X151540330Y-61755585D01*
X151530757Y-61769913D01*
X151526762Y-61748683D01*
X151387690Y-61532559D01*
X151175490Y-61387569D01*
X150923600Y-61336560D01*
X149196400Y-61336560D01*
X148961083Y-61380838D01*
X148744959Y-61519910D01*
X148599969Y-61732110D01*
X148548960Y-61984000D01*
X148548960Y-64016000D01*
X148593238Y-64251317D01*
X148732310Y-64467441D01*
X148944510Y-64612431D01*
X149196400Y-64663440D01*
X149275000Y-64663440D01*
X149275000Y-83810000D01*
X149334755Y-84110407D01*
X149504921Y-84365079D01*
X154944921Y-89805079D01*
X155199594Y-89975245D01*
X155500000Y-90035000D01*
X160424842Y-90035000D01*
X162965000Y-92575158D01*
X162965000Y-113250000D01*
X163024755Y-113550407D01*
X163194921Y-113805079D01*
X179394921Y-130005079D01*
X179649594Y-130175245D01*
X179950000Y-130235000D01*
X194396763Y-130235000D01*
X194421861Y-130295743D01*
X194842045Y-130716660D01*
X194849426Y-130719725D01*
X194844257Y-130721861D01*
X194423340Y-131142045D01*
X194195260Y-131691321D01*
X194194741Y-132286069D01*
X194241447Y-132399106D01*
X188980280Y-137660274D01*
X188980277Y-137660276D01*
X185891595Y-140748959D01*
X185573353Y-140748959D01*
X185692192Y-140630327D01*
X185834838Y-140286799D01*
X185835162Y-139914833D01*
X185693117Y-139571057D01*
X185430327Y-139307808D01*
X185086799Y-139165162D01*
X184714833Y-139164838D01*
X184371057Y-139306883D01*
X184312838Y-139365000D01*
X182111998Y-139365000D01*
X181830726Y-139420949D01*
X181592275Y-139580277D01*
X180823603Y-140348949D01*
X157735823Y-140348949D01*
X152782428Y-135395555D01*
X152782428Y-130285167D01*
X171164838Y-130285167D01*
X171306883Y-130628943D01*
X171315000Y-130637074D01*
X171315000Y-132762494D01*
X171307808Y-132769673D01*
X171165162Y-133113201D01*
X171164838Y-133485167D01*
X171306883Y-133828943D01*
X171569673Y-134092192D01*
X171913201Y-134234838D01*
X172285167Y-134235162D01*
X172628943Y-134093117D01*
X172892192Y-133830327D01*
X173034838Y-133486799D01*
X173035162Y-133114833D01*
X172893117Y-132771057D01*
X172885000Y-132762926D01*
X172885000Y-130637506D01*
X172892192Y-130630327D01*
X173034838Y-130286799D01*
X173035162Y-129914833D01*
X172893117Y-129571057D01*
X172630327Y-129307808D01*
X172286799Y-129165162D01*
X171914833Y-129164838D01*
X171571057Y-129306883D01*
X171307808Y-129569673D01*
X171165162Y-129913201D01*
X171164838Y-130285167D01*
X152782428Y-130285167D01*
X152782428Y-130153466D01*
X156519290Y-126416604D01*
X156563201Y-126434838D01*
X156935167Y-126435162D01*
X157278943Y-126293117D01*
X157542192Y-126030327D01*
X157684838Y-125686799D01*
X157685162Y-125314833D01*
X157543117Y-124971057D01*
X157280327Y-124707808D01*
X156936799Y-124565162D01*
X156564833Y-124564838D01*
X156221057Y-124706883D01*
X156184853Y-124743024D01*
X156025330Y-124774755D01*
X155770657Y-124944921D01*
X151442349Y-129273229D01*
X151272183Y-129527901D01*
X151265968Y-129559146D01*
X151212428Y-129828308D01*
X151212428Y-135395555D01*
X150980276Y-135627707D01*
X150932824Y-135698723D01*
X150671057Y-135806883D01*
X150407808Y-136069673D01*
X150265162Y-136413201D01*
X150264838Y-136785167D01*
X150406883Y-137128943D01*
X150669673Y-137392192D01*
X151013201Y-137534838D01*
X151385167Y-137535162D01*
X151728943Y-137393117D01*
X151992192Y-137130327D01*
X152123085Y-136815104D01*
X154972970Y-139664990D01*
X143004437Y-139664990D01*
X142955908Y-139616461D01*
X143042192Y-139530327D01*
X143184838Y-139186799D01*
X143184910Y-139104536D01*
X146319726Y-135969721D01*
X146479053Y-135731270D01*
X146492267Y-135664838D01*
X146535002Y-135449998D01*
X146535002Y-132319319D01*
X146813201Y-132434838D01*
X147185167Y-132435162D01*
X147528943Y-132293117D01*
X147792192Y-132030327D01*
X147934838Y-131686799D01*
X147935162Y-131314833D01*
X147935000Y-131314441D01*
X147935000Y-129250000D01*
X147863827Y-128892191D01*
X147661145Y-128588855D01*
X146911436Y-127839146D01*
X146780327Y-127707808D01*
X146436799Y-127565162D01*
X146064833Y-127564838D01*
X145721057Y-127706883D01*
X145457808Y-127969673D01*
X145315162Y-128313201D01*
X145314838Y-128685167D01*
X145405794Y-128905298D01*
X145357481Y-128905256D01*
X145013705Y-129047301D01*
X144750456Y-129310091D01*
X144607810Y-129653619D01*
X144607486Y-130025585D01*
X144749531Y-130369361D01*
X144848114Y-130468116D01*
X144853410Y-130494741D01*
X144863597Y-130545954D01*
X145022925Y-130784405D01*
X145065002Y-130826482D01*
X145065002Y-132364969D01*
X144914833Y-132364838D01*
X144571057Y-132506883D01*
X144307808Y-132769673D01*
X144165162Y-133113201D01*
X144164838Y-133485167D01*
X144306883Y-133828943D01*
X144365000Y-133887162D01*
X144365000Y-134795553D01*
X141495553Y-137665001D01*
X141299999Y-137665001D01*
X141018727Y-137720950D01*
X140952864Y-137764958D01*
X140814833Y-137764838D01*
X140471057Y-137906883D01*
X140235000Y-138142528D01*
X140235000Y-133237419D01*
X140292192Y-133180327D01*
X140434838Y-132836799D01*
X140435162Y-132464833D01*
X140293117Y-132121057D01*
X140194534Y-132022302D01*
X140179051Y-131944464D01*
X140121150Y-131857809D01*
X140019723Y-131706012D01*
X139793986Y-131480276D01*
X139555535Y-131320948D01*
X139524793Y-131314833D01*
X139274263Y-131264999D01*
X133200001Y-131264999D01*
X133190810Y-131266827D01*
X133186799Y-131265162D01*
X132814833Y-131264838D01*
X132471057Y-131406883D01*
X132207808Y-131669673D01*
X132065162Y-132013201D01*
X132064838Y-132385167D01*
X113185000Y-132385167D01*
X113185000Y-122437175D01*
X122342430Y-122437175D01*
X122465565Y-122724788D01*
X123147734Y-122984707D01*
X123877443Y-122963786D01*
X124454435Y-122724788D01*
X124577570Y-122437175D01*
X127422430Y-122437175D01*
X127545565Y-122724788D01*
X128227734Y-122984707D01*
X128957443Y-122963786D01*
X129534435Y-122724788D01*
X129657570Y-122437175D01*
X128540000Y-121319605D01*
X127422430Y-122437175D01*
X124577570Y-122437175D01*
X123460000Y-121319605D01*
X122342430Y-122437175D01*
X113185000Y-122437175D01*
X113185000Y-120827734D01*
X121615293Y-120827734D01*
X121636214Y-121557443D01*
X121875212Y-122134435D01*
X122162825Y-122257570D01*
X123280395Y-121140000D01*
X122162825Y-120022430D01*
X121875212Y-120145565D01*
X121615293Y-120827734D01*
X113185000Y-120827734D01*
X113185000Y-117357175D01*
X122342430Y-117357175D01*
X122465565Y-117644788D01*
X123147734Y-117904707D01*
X123877443Y-117883786D01*
X124454435Y-117644788D01*
X124577569Y-117357177D01*
X124647932Y-117427540D01*
X124487633Y-117587559D01*
X124215311Y-118243384D01*
X124214691Y-118953501D01*
X124485868Y-119609800D01*
X124648088Y-119772304D01*
X124577569Y-119842823D01*
X124454435Y-119555212D01*
X123772266Y-119295293D01*
X123042557Y-119316214D01*
X122465565Y-119555212D01*
X122342430Y-119842825D01*
X123460000Y-120960395D01*
X123474143Y-120946253D01*
X123653748Y-121125858D01*
X123639605Y-121140000D01*
X124757175Y-122257570D01*
X125044788Y-122134435D01*
X125304707Y-121452266D01*
X125283786Y-120722557D01*
X125044788Y-120145565D01*
X124757177Y-120022431D01*
X124827540Y-119952068D01*
X124987559Y-120112367D01*
X125643384Y-120384689D01*
X126353501Y-120385309D01*
X127009800Y-120114132D01*
X127172304Y-119951912D01*
X127242823Y-120022431D01*
X126955212Y-120145565D01*
X126695293Y-120827734D01*
X126716214Y-121557443D01*
X126955212Y-122134435D01*
X127242825Y-122257570D01*
X128360395Y-121140000D01*
X128719605Y-121140000D01*
X129837175Y-122257570D01*
X130124788Y-122134435D01*
X130384707Y-121452266D01*
X130363786Y-120722557D01*
X130124788Y-120145565D01*
X129837175Y-120022430D01*
X128719605Y-121140000D01*
X128360395Y-121140000D01*
X128346253Y-121125858D01*
X128525858Y-120946253D01*
X128540000Y-120960395D01*
X129657570Y-119842825D01*
X129534435Y-119555212D01*
X128852266Y-119295293D01*
X128122557Y-119316214D01*
X127545565Y-119555212D01*
X127422431Y-119842823D01*
X127352068Y-119772460D01*
X127512367Y-119612441D01*
X127784689Y-118956616D01*
X127785309Y-118246499D01*
X127514132Y-117590200D01*
X127351912Y-117427696D01*
X127422431Y-117357177D01*
X127545565Y-117644788D01*
X128227734Y-117904707D01*
X128957443Y-117883786D01*
X129534435Y-117644788D01*
X129657570Y-117357175D01*
X128540000Y-116239605D01*
X128525858Y-116253748D01*
X128346253Y-116074143D01*
X128360395Y-116060000D01*
X128719605Y-116060000D01*
X129837175Y-117177570D01*
X130124788Y-117054435D01*
X130384707Y-116372266D01*
X130363786Y-115642557D01*
X130124788Y-115065565D01*
X129837175Y-114942430D01*
X128719605Y-116060000D01*
X128360395Y-116060000D01*
X127242825Y-114942430D01*
X126955212Y-115065565D01*
X126695293Y-115747734D01*
X126716214Y-116477443D01*
X126955212Y-117054435D01*
X127242823Y-117177569D01*
X127172460Y-117247932D01*
X127012441Y-117087633D01*
X126356616Y-116815311D01*
X125646499Y-116814691D01*
X124990200Y-117085868D01*
X124827696Y-117248088D01*
X124757177Y-117177569D01*
X125044788Y-117054435D01*
X125304707Y-116372266D01*
X125283786Y-115642557D01*
X125044788Y-115065565D01*
X124757175Y-114942430D01*
X123639605Y-116060000D01*
X123653748Y-116074143D01*
X123474143Y-116253748D01*
X123460000Y-116239605D01*
X122342430Y-117357175D01*
X113185000Y-117357175D01*
X113185000Y-115747734D01*
X121615293Y-115747734D01*
X121636214Y-116477443D01*
X121875212Y-117054435D01*
X122162825Y-117177570D01*
X123280395Y-116060000D01*
X122162825Y-114942430D01*
X121875212Y-115065565D01*
X121615293Y-115747734D01*
X113185000Y-115747734D01*
X113185000Y-114762825D01*
X122342430Y-114762825D01*
X123460000Y-115880395D01*
X124577570Y-114762825D01*
X127422430Y-114762825D01*
X128540000Y-115880395D01*
X129657570Y-114762825D01*
X129534435Y-114475212D01*
X128852266Y-114215293D01*
X128122557Y-114236214D01*
X127545565Y-114475212D01*
X127422430Y-114762825D01*
X124577570Y-114762825D01*
X124454435Y-114475212D01*
X123772266Y-114215293D01*
X123042557Y-114236214D01*
X122465565Y-114475212D01*
X122342430Y-114762825D01*
X113185000Y-114762825D01*
X113185000Y-106837175D01*
X122342430Y-106837175D01*
X122465565Y-107124788D01*
X123147734Y-107384707D01*
X123877443Y-107363786D01*
X124454435Y-107124788D01*
X124577570Y-106837175D01*
X127422430Y-106837175D01*
X127545565Y-107124788D01*
X128227734Y-107384707D01*
X128957443Y-107363786D01*
X129534435Y-107124788D01*
X129657570Y-106837175D01*
X146842430Y-106837175D01*
X146965565Y-107124788D01*
X147647734Y-107384707D01*
X148377443Y-107363786D01*
X148954435Y-107124788D01*
X149077570Y-106837175D01*
X151922430Y-106837175D01*
X152045565Y-107124788D01*
X152727734Y-107384707D01*
X153457443Y-107363786D01*
X154034435Y-107124788D01*
X154157570Y-106837175D01*
X153040000Y-105719605D01*
X151922430Y-106837175D01*
X149077570Y-106837175D01*
X147960000Y-105719605D01*
X146842430Y-106837175D01*
X129657570Y-106837175D01*
X128540000Y-105719605D01*
X127422430Y-106837175D01*
X124577570Y-106837175D01*
X123460000Y-105719605D01*
X122342430Y-106837175D01*
X113185000Y-106837175D01*
X113185000Y-105227734D01*
X121615293Y-105227734D01*
X121636214Y-105957443D01*
X121875212Y-106534435D01*
X122162825Y-106657570D01*
X123280395Y-105540000D01*
X122162825Y-104422430D01*
X121875212Y-104545565D01*
X121615293Y-105227734D01*
X113185000Y-105227734D01*
X113185000Y-101757175D01*
X122342430Y-101757175D01*
X122465565Y-102044788D01*
X123147734Y-102304707D01*
X123877443Y-102283786D01*
X124454435Y-102044788D01*
X124577569Y-101757177D01*
X124647932Y-101827540D01*
X124487633Y-101987559D01*
X124215311Y-102643384D01*
X124214691Y-103353501D01*
X124485868Y-104009800D01*
X124648088Y-104172304D01*
X124577569Y-104242823D01*
X124454435Y-103955212D01*
X123772266Y-103695293D01*
X123042557Y-103716214D01*
X122465565Y-103955212D01*
X122342430Y-104242825D01*
X123460000Y-105360395D01*
X123474143Y-105346253D01*
X123653748Y-105525858D01*
X123639605Y-105540000D01*
X124757175Y-106657570D01*
X125044788Y-106534435D01*
X125304707Y-105852266D01*
X125283786Y-105122557D01*
X125044788Y-104545565D01*
X124757177Y-104422431D01*
X124827540Y-104352068D01*
X124987559Y-104512367D01*
X125643384Y-104784689D01*
X126353501Y-104785309D01*
X127009800Y-104514132D01*
X127172304Y-104351912D01*
X127242823Y-104422431D01*
X126955212Y-104545565D01*
X126695293Y-105227734D01*
X126716214Y-105957443D01*
X126955212Y-106534435D01*
X127242825Y-106657570D01*
X128360395Y-105540000D01*
X128719605Y-105540000D01*
X129837175Y-106657570D01*
X130124788Y-106534435D01*
X130384707Y-105852266D01*
X130366802Y-105227734D01*
X146115293Y-105227734D01*
X146136214Y-105957443D01*
X146375212Y-106534435D01*
X146662825Y-106657570D01*
X147780395Y-105540000D01*
X146662825Y-104422430D01*
X146375212Y-104545565D01*
X146115293Y-105227734D01*
X130366802Y-105227734D01*
X130363786Y-105122557D01*
X130124788Y-104545565D01*
X129837175Y-104422430D01*
X128719605Y-105540000D01*
X128360395Y-105540000D01*
X128346253Y-105525858D01*
X128525858Y-105346253D01*
X128540000Y-105360395D01*
X129657570Y-104242825D01*
X129534435Y-103955212D01*
X128852266Y-103695293D01*
X128122557Y-103716214D01*
X127545565Y-103955212D01*
X127422431Y-104242823D01*
X127352068Y-104172460D01*
X127512367Y-104012441D01*
X127784689Y-103356616D01*
X127785309Y-102646499D01*
X127514132Y-101990200D01*
X127351912Y-101827696D01*
X127422431Y-101757177D01*
X127545565Y-102044788D01*
X128227734Y-102304707D01*
X128957443Y-102283786D01*
X129534435Y-102044788D01*
X129657570Y-101757175D01*
X146842430Y-101757175D01*
X146965565Y-102044788D01*
X147647734Y-102304707D01*
X148377443Y-102283786D01*
X148954435Y-102044788D01*
X149077569Y-101757177D01*
X149147932Y-101827540D01*
X148987633Y-101987559D01*
X148715311Y-102643384D01*
X148714691Y-103353501D01*
X148985868Y-104009800D01*
X149148088Y-104172304D01*
X149077569Y-104242823D01*
X148954435Y-103955212D01*
X148272266Y-103695293D01*
X147542557Y-103716214D01*
X146965565Y-103955212D01*
X146842430Y-104242825D01*
X147960000Y-105360395D01*
X147974143Y-105346253D01*
X148153748Y-105525858D01*
X148139605Y-105540000D01*
X149257175Y-106657570D01*
X149544788Y-106534435D01*
X149804707Y-105852266D01*
X149783786Y-105122557D01*
X149544788Y-104545565D01*
X149257177Y-104422431D01*
X149327540Y-104352068D01*
X149487559Y-104512367D01*
X150143384Y-104784689D01*
X150853501Y-104785309D01*
X151509800Y-104514132D01*
X151672304Y-104351912D01*
X151742823Y-104422431D01*
X151455212Y-104545565D01*
X151195293Y-105227734D01*
X151216214Y-105957443D01*
X151455212Y-106534435D01*
X151742825Y-106657570D01*
X152860395Y-105540000D01*
X153219605Y-105540000D01*
X154337175Y-106657570D01*
X154624788Y-106534435D01*
X154884707Y-105852266D01*
X154863786Y-105122557D01*
X154624788Y-104545565D01*
X154337175Y-104422430D01*
X153219605Y-105540000D01*
X152860395Y-105540000D01*
X152846253Y-105525858D01*
X153025858Y-105346253D01*
X153040000Y-105360395D01*
X154157570Y-104242825D01*
X154034435Y-103955212D01*
X153352266Y-103695293D01*
X152622557Y-103716214D01*
X152045565Y-103955212D01*
X151922431Y-104242823D01*
X151852068Y-104172460D01*
X152012367Y-104012441D01*
X152284689Y-103356616D01*
X152285309Y-102646499D01*
X152014132Y-101990200D01*
X151851912Y-101827696D01*
X151922431Y-101757177D01*
X152045565Y-102044788D01*
X152727734Y-102304707D01*
X153457443Y-102283786D01*
X154034435Y-102044788D01*
X154157570Y-101757175D01*
X153040000Y-100639605D01*
X153025858Y-100653748D01*
X152846253Y-100474143D01*
X152860395Y-100460000D01*
X153219605Y-100460000D01*
X154337175Y-101577570D01*
X154624788Y-101454435D01*
X154884707Y-100772266D01*
X154863786Y-100042557D01*
X154624788Y-99465565D01*
X154337175Y-99342430D01*
X153219605Y-100460000D01*
X152860395Y-100460000D01*
X151742825Y-99342430D01*
X151455212Y-99465565D01*
X151195293Y-100147734D01*
X151216214Y-100877443D01*
X151455212Y-101454435D01*
X151742823Y-101577569D01*
X151672460Y-101647932D01*
X151512441Y-101487633D01*
X150856616Y-101215311D01*
X150146499Y-101214691D01*
X149490200Y-101485868D01*
X149327696Y-101648088D01*
X149257177Y-101577569D01*
X149544788Y-101454435D01*
X149804707Y-100772266D01*
X149783786Y-100042557D01*
X149544788Y-99465565D01*
X149257175Y-99342430D01*
X148139605Y-100460000D01*
X148153748Y-100474143D01*
X147974143Y-100653748D01*
X147960000Y-100639605D01*
X146842430Y-101757175D01*
X129657570Y-101757175D01*
X128540000Y-100639605D01*
X128525858Y-100653748D01*
X128346253Y-100474143D01*
X128360395Y-100460000D01*
X128719605Y-100460000D01*
X129837175Y-101577570D01*
X130124788Y-101454435D01*
X130384707Y-100772266D01*
X130366802Y-100147734D01*
X146115293Y-100147734D01*
X146136214Y-100877443D01*
X146375212Y-101454435D01*
X146662825Y-101577570D01*
X147780395Y-100460000D01*
X146662825Y-99342430D01*
X146375212Y-99465565D01*
X146115293Y-100147734D01*
X130366802Y-100147734D01*
X130363786Y-100042557D01*
X130124788Y-99465565D01*
X129837175Y-99342430D01*
X128719605Y-100460000D01*
X128360395Y-100460000D01*
X127242825Y-99342430D01*
X126955212Y-99465565D01*
X126695293Y-100147734D01*
X126716214Y-100877443D01*
X126955212Y-101454435D01*
X127242823Y-101577569D01*
X127172460Y-101647932D01*
X127012441Y-101487633D01*
X126356616Y-101215311D01*
X125646499Y-101214691D01*
X124990200Y-101485868D01*
X124827696Y-101648088D01*
X124757177Y-101577569D01*
X125044788Y-101454435D01*
X125304707Y-100772266D01*
X125283786Y-100042557D01*
X125044788Y-99465565D01*
X124757175Y-99342430D01*
X123639605Y-100460000D01*
X123653748Y-100474143D01*
X123474143Y-100653748D01*
X123460000Y-100639605D01*
X122342430Y-101757175D01*
X113185000Y-101757175D01*
X113185000Y-100147734D01*
X121615293Y-100147734D01*
X121636214Y-100877443D01*
X121875212Y-101454435D01*
X122162825Y-101577570D01*
X123280395Y-100460000D01*
X122162825Y-99342430D01*
X121875212Y-99465565D01*
X121615293Y-100147734D01*
X113185000Y-100147734D01*
X113185000Y-99162825D01*
X122342430Y-99162825D01*
X123460000Y-100280395D01*
X124577570Y-99162825D01*
X127422430Y-99162825D01*
X128540000Y-100280395D01*
X129657570Y-99162825D01*
X146842430Y-99162825D01*
X147960000Y-100280395D01*
X149077570Y-99162825D01*
X151922430Y-99162825D01*
X153040000Y-100280395D01*
X154157570Y-99162825D01*
X154034435Y-98875212D01*
X153352266Y-98615293D01*
X152622557Y-98636214D01*
X152045565Y-98875212D01*
X151922430Y-99162825D01*
X149077570Y-99162825D01*
X148954435Y-98875212D01*
X148272266Y-98615293D01*
X147542557Y-98636214D01*
X146965565Y-98875212D01*
X146842430Y-99162825D01*
X129657570Y-99162825D01*
X129534435Y-98875212D01*
X128852266Y-98615293D01*
X128122557Y-98636214D01*
X127545565Y-98875212D01*
X127422430Y-99162825D01*
X124577570Y-99162825D01*
X124454435Y-98875212D01*
X123772266Y-98615293D01*
X123042557Y-98636214D01*
X122465565Y-98875212D01*
X122342430Y-99162825D01*
X113185000Y-99162825D01*
X113185000Y-93500000D01*
X148265000Y-93500000D01*
X148351397Y-93934346D01*
X148597434Y-94302566D01*
X148965654Y-94548603D01*
X149400000Y-94635000D01*
X161000000Y-94635000D01*
X161434346Y-94548603D01*
X161802566Y-94302566D01*
X162048603Y-93934346D01*
X162135000Y-93500000D01*
X162048603Y-93065654D01*
X161802566Y-92697434D01*
X161434346Y-92451397D01*
X161000000Y-92365000D01*
X149400000Y-92365000D01*
X148965654Y-92451397D01*
X148597434Y-92697434D01*
X148351397Y-93065654D01*
X148265000Y-93500000D01*
X113185000Y-93500000D01*
X113185000Y-73837175D01*
X132142430Y-73837175D01*
X132265565Y-74124788D01*
X132947734Y-74384707D01*
X133677443Y-74363786D01*
X134254435Y-74124788D01*
X134377570Y-73837175D01*
X137222430Y-73837175D01*
X137345565Y-74124788D01*
X138027734Y-74384707D01*
X138757443Y-74363786D01*
X139334435Y-74124788D01*
X139457570Y-73837175D01*
X138340000Y-72719605D01*
X137222430Y-73837175D01*
X134377570Y-73837175D01*
X133260000Y-72719605D01*
X132142430Y-73837175D01*
X113185000Y-73837175D01*
X113185000Y-72227734D01*
X131415293Y-72227734D01*
X131436214Y-72957443D01*
X131675212Y-73534435D01*
X131962825Y-73657570D01*
X133080395Y-72540000D01*
X131962825Y-71422430D01*
X131675212Y-71545565D01*
X131415293Y-72227734D01*
X113185000Y-72227734D01*
X113185000Y-68672875D01*
X115036730Y-68672875D01*
X115400630Y-69165710D01*
X116797124Y-69754937D01*
X118312803Y-69764898D01*
X119716920Y-69194074D01*
X119759370Y-69165710D01*
X120061024Y-68757175D01*
X132142430Y-68757175D01*
X132265565Y-69044788D01*
X132947734Y-69304707D01*
X133677443Y-69283786D01*
X134254435Y-69044788D01*
X134377569Y-68757177D01*
X134447932Y-68827540D01*
X134287633Y-68987559D01*
X134015311Y-69643384D01*
X134014691Y-70353501D01*
X134285868Y-71009800D01*
X134448088Y-71172304D01*
X134377569Y-71242823D01*
X134254435Y-70955212D01*
X133572266Y-70695293D01*
X132842557Y-70716214D01*
X132265565Y-70955212D01*
X132142430Y-71242825D01*
X133260000Y-72360395D01*
X133274143Y-72346253D01*
X133453748Y-72525858D01*
X133439605Y-72540000D01*
X134557175Y-73657570D01*
X134844788Y-73534435D01*
X135104707Y-72852266D01*
X135083786Y-72122557D01*
X134844788Y-71545565D01*
X134557177Y-71422431D01*
X134627540Y-71352068D01*
X134787559Y-71512367D01*
X135443384Y-71784689D01*
X136153501Y-71785309D01*
X136809800Y-71514132D01*
X136972304Y-71351912D01*
X137042823Y-71422431D01*
X136755212Y-71545565D01*
X136495293Y-72227734D01*
X136516214Y-72957443D01*
X136755212Y-73534435D01*
X137042825Y-73657570D01*
X138160395Y-72540000D01*
X138519605Y-72540000D01*
X139637175Y-73657570D01*
X139924788Y-73534435D01*
X140184707Y-72852266D01*
X140163786Y-72122557D01*
X139924788Y-71545565D01*
X139637175Y-71422430D01*
X138519605Y-72540000D01*
X138160395Y-72540000D01*
X138146253Y-72525858D01*
X138325858Y-72346253D01*
X138340000Y-72360395D01*
X139457570Y-71242825D01*
X139334435Y-70955212D01*
X138652266Y-70695293D01*
X137922557Y-70716214D01*
X137345565Y-70955212D01*
X137222431Y-71242823D01*
X137152068Y-71172460D01*
X137312367Y-71012441D01*
X137584689Y-70356616D01*
X137585309Y-69646499D01*
X137314132Y-68990200D01*
X137151912Y-68827696D01*
X137222431Y-68757177D01*
X137345565Y-69044788D01*
X138027734Y-69304707D01*
X138757443Y-69283786D01*
X139334435Y-69044788D01*
X139457570Y-68757175D01*
X138340000Y-67639605D01*
X138325858Y-67653748D01*
X138146253Y-67474143D01*
X138160395Y-67460000D01*
X138519605Y-67460000D01*
X139637175Y-68577570D01*
X139924788Y-68454435D01*
X140184707Y-67772266D01*
X140163786Y-67042557D01*
X139924788Y-66465565D01*
X139637175Y-66342430D01*
X138519605Y-67460000D01*
X138160395Y-67460000D01*
X137042825Y-66342430D01*
X136755212Y-66465565D01*
X136495293Y-67147734D01*
X136516214Y-67877443D01*
X136755212Y-68454435D01*
X137042823Y-68577569D01*
X136972460Y-68647932D01*
X136812441Y-68487633D01*
X136156616Y-68215311D01*
X135446499Y-68214691D01*
X134790200Y-68485868D01*
X134627696Y-68648088D01*
X134557177Y-68577569D01*
X134844788Y-68454435D01*
X135104707Y-67772266D01*
X135083786Y-67042557D01*
X134844788Y-66465565D01*
X134557175Y-66342430D01*
X133439605Y-67460000D01*
X133453748Y-67474143D01*
X133274143Y-67653748D01*
X133260000Y-67639605D01*
X132142430Y-68757175D01*
X120061024Y-68757175D01*
X120123270Y-68672875D01*
X117580000Y-66129605D01*
X115036730Y-68672875D01*
X113185000Y-68672875D01*
X113185000Y-66682803D01*
X113765102Y-66682803D01*
X114335926Y-68086920D01*
X114364290Y-68129370D01*
X114857125Y-68493270D01*
X117400395Y-65950000D01*
X117759605Y-65950000D01*
X120302875Y-68493270D01*
X120795710Y-68129370D01*
X121209894Y-67147734D01*
X131415293Y-67147734D01*
X131436214Y-67877443D01*
X131675212Y-68454435D01*
X131962825Y-68577570D01*
X133080395Y-67460000D01*
X131962825Y-66342430D01*
X131675212Y-66465565D01*
X131415293Y-67147734D01*
X121209894Y-67147734D01*
X121384937Y-66732876D01*
X121388683Y-66162825D01*
X132142430Y-66162825D01*
X133260000Y-67280395D01*
X134377570Y-66162825D01*
X137222430Y-66162825D01*
X138340000Y-67280395D01*
X139457570Y-66162825D01*
X139334435Y-65875212D01*
X138652266Y-65615293D01*
X137922557Y-65636214D01*
X137345565Y-65875212D01*
X137222430Y-66162825D01*
X134377570Y-66162825D01*
X134254435Y-65875212D01*
X133572266Y-65615293D01*
X132842557Y-65636214D01*
X132265565Y-65875212D01*
X132142430Y-66162825D01*
X121388683Y-66162825D01*
X121394898Y-65217197D01*
X120824074Y-63813080D01*
X120795710Y-63770630D01*
X120302875Y-63406730D01*
X117759605Y-65950000D01*
X117400395Y-65950000D01*
X114857125Y-63406730D01*
X114364290Y-63770630D01*
X113775063Y-65167124D01*
X113765102Y-66682803D01*
X113185000Y-66682803D01*
X113185000Y-63227125D01*
X115036730Y-63227125D01*
X117580000Y-65770395D01*
X120123270Y-63227125D01*
X119759370Y-62734290D01*
X118362876Y-62145063D01*
X116847197Y-62135102D01*
X115443080Y-62705926D01*
X115400630Y-62734290D01*
X115036730Y-63227125D01*
X113185000Y-63227125D01*
X113185000Y-60687125D01*
X200766730Y-60687125D01*
X203310000Y-63230395D01*
X205853270Y-60687125D01*
X205489370Y-60194290D01*
X204092876Y-59605063D01*
X202577197Y-59595102D01*
X201173080Y-60165926D01*
X201130630Y-60194290D01*
X200766730Y-60687125D01*
X113185000Y-60687125D01*
X113185000Y-59015000D01*
X207705000Y-59015000D01*
X207705000Y-147815000D01*
X207705000Y-147815000D01*
G37*
X207705000Y-147815000D02*
X113185000Y-147815000D01*
X113185000Y-145655750D01*
X133835000Y-145655750D01*
X133835000Y-146346310D01*
X133931673Y-146579699D01*
X134110302Y-146758327D01*
X134343691Y-146855000D01*
X135034250Y-146855000D01*
X135193000Y-146696250D01*
X135193000Y-145497000D01*
X133993750Y-145497000D01*
X133835000Y-145655750D01*
X113185000Y-145655750D01*
X113185000Y-142332875D01*
X115036730Y-142332875D01*
X115400630Y-142825710D01*
X116797124Y-143414937D01*
X118312803Y-143424898D01*
X119716920Y-142854074D01*
X119759370Y-142825710D01*
X120123270Y-142332875D01*
X117580000Y-139789605D01*
X115036730Y-142332875D01*
X113185000Y-142332875D01*
X113185000Y-140342803D01*
X113765102Y-140342803D01*
X114335926Y-141746920D01*
X114364290Y-141789370D01*
X114857125Y-142153270D01*
X117400395Y-139610000D01*
X117759605Y-139610000D01*
X120302875Y-142153270D01*
X120795710Y-141789370D01*
X121384937Y-140392876D01*
X121394898Y-138877197D01*
X120824074Y-137473080D01*
X120795710Y-137430630D01*
X120302875Y-137066730D01*
X117759605Y-139610000D01*
X117400395Y-139610000D01*
X114857125Y-137066730D01*
X114364290Y-137430630D01*
X113775063Y-138827124D01*
X113765102Y-140342803D01*
X113185000Y-140342803D01*
X113185000Y-136887125D01*
X115036730Y-136887125D01*
X117580000Y-139430395D01*
X120123270Y-136887125D01*
X119759370Y-136394290D01*
X118362876Y-135805063D01*
X116847197Y-135795102D01*
X115443080Y-136365926D01*
X115400630Y-136394290D01*
X115036730Y-136887125D01*
X113185000Y-136887125D01*
X113185000Y-132385167D01*
X132064838Y-132385167D01*
X132206883Y-132728943D01*
X132469673Y-132992192D01*
X132813201Y-133134838D01*
X133185167Y-133135162D01*
X133528943Y-132993117D01*
X133787512Y-132734999D01*
X136164876Y-132734999D01*
X136164832Y-132785167D01*
X136306877Y-133128943D01*
X136364994Y-133187162D01*
X136364994Y-138699994D01*
X136410934Y-138930949D01*
X136420943Y-138981266D01*
X136580271Y-139219717D01*
X139245131Y-141884578D01*
X139141812Y-141987717D01*
X139130252Y-142015557D01*
X139119656Y-141989914D01*
X138702283Y-141571812D01*
X138156681Y-141345258D01*
X137565911Y-141344743D01*
X137019914Y-141570344D01*
X136601812Y-141987717D01*
X136590252Y-142015557D01*
X136579656Y-141989914D01*
X136162283Y-141571812D01*
X135616681Y-141345258D01*
X135025911Y-141344743D01*
X134479914Y-141570344D01*
X134061812Y-141987717D01*
X133835258Y-142533319D01*
X133834743Y-143124089D01*
X134060344Y-143670086D01*
X134295012Y-143905164D01*
X134110302Y-143981673D01*
X133931673Y-144160301D01*
X133835000Y-144393690D01*
X133835000Y-145084250D01*
X133993750Y-145243000D01*
X135193000Y-145243000D01*
X135193000Y-145223000D01*
X135447000Y-145223000D01*
X135447000Y-145243000D01*
X135467000Y-145243000D01*
X135467000Y-145497000D01*
X135447000Y-145497000D01*
X135447000Y-146696250D01*
X135605750Y-146855000D01*
X136296309Y-146855000D01*
X136529698Y-146758327D01*
X136708327Y-146579699D01*
X136784862Y-146394927D01*
X137017717Y-146628188D01*
X137563319Y-146854742D01*
X138154089Y-146855257D01*
X138700086Y-146629656D01*
X139118188Y-146212283D01*
X139129748Y-146184443D01*
X139140344Y-146210086D01*
X139557717Y-146628188D01*
X140103319Y-146854742D01*
X140694089Y-146855257D01*
X141240086Y-146629656D01*
X141658188Y-146212283D01*
X141682655Y-146153361D01*
X141860853Y-146420054D01*
X142342622Y-146741961D01*
X142910907Y-146855000D01*
X142969093Y-146855000D01*
X143537378Y-146741961D01*
X144019147Y-146420054D01*
X144197074Y-146153767D01*
X144220344Y-146210086D01*
X144637717Y-146628188D01*
X145183319Y-146854742D01*
X145774089Y-146855257D01*
X146320086Y-146629656D01*
X146738188Y-146212283D01*
X146767008Y-146142875D01*
X200766730Y-146142875D01*
X201130630Y-146635710D01*
X202527124Y-147224937D01*
X204042803Y-147234898D01*
X205446920Y-146664074D01*
X205489370Y-146635710D01*
X205853270Y-146142875D01*
X203310000Y-143599605D01*
X200766730Y-146142875D01*
X146767008Y-146142875D01*
X146964742Y-145666681D01*
X146965257Y-145075911D01*
X146816132Y-144715001D01*
X154819999Y-144715001D01*
X155101271Y-144659052D01*
X155339722Y-144499724D01*
X156020448Y-143818999D01*
X156048960Y-143818999D01*
X156048960Y-145416000D01*
X156093238Y-145651317D01*
X156232310Y-145867441D01*
X156444510Y-146012431D01*
X156696400Y-146063440D01*
X158423600Y-146063440D01*
X158658917Y-146019162D01*
X158875041Y-145880090D01*
X159020031Y-145667890D01*
X159028400Y-145626561D01*
X159040330Y-145644415D01*
X159526511Y-145969271D01*
X160100000Y-146083345D01*
X160673489Y-145969271D01*
X161159670Y-145644415D01*
X161370000Y-145329634D01*
X161580330Y-145644415D01*
X162066511Y-145969271D01*
X162640000Y-146083345D01*
X163213489Y-145969271D01*
X163699670Y-145644415D01*
X164024526Y-145158234D01*
X164138600Y-144584745D01*
X164138600Y-144215255D01*
X164059780Y-143818999D01*
X194756001Y-143818999D01*
X195037273Y-143763050D01*
X195275724Y-143603722D01*
X195280658Y-143598788D01*
X195391321Y-143644740D01*
X195986069Y-143645259D01*
X196535743Y-143418139D01*
X196753061Y-143201199D01*
X197358406Y-143201199D01*
X197439906Y-143453537D01*
X197998890Y-143656667D01*
X198593059Y-143630421D01*
X199020094Y-143453537D01*
X199101594Y-143201199D01*
X198230000Y-142329605D01*
X197358406Y-143201199D01*
X196753061Y-143201199D01*
X196956660Y-142997955D01*
X196974274Y-142955536D01*
X197178801Y-143021594D01*
X198050395Y-142150000D01*
X198409605Y-142150000D01*
X199281199Y-143021594D01*
X199503007Y-142949955D01*
X199495102Y-144152803D01*
X200065926Y-145556920D01*
X200094290Y-145599370D01*
X200587125Y-145963270D01*
X203130395Y-143420000D01*
X203489605Y-143420000D01*
X206032875Y-145963270D01*
X206525710Y-145599370D01*
X207114937Y-144202876D01*
X207124898Y-142687197D01*
X206554074Y-141283080D01*
X206525710Y-141240630D01*
X206032875Y-140876730D01*
X203489605Y-143420000D01*
X203130395Y-143420000D01*
X200587125Y-140876730D01*
X200094290Y-141240630D01*
X199724955Y-142115970D01*
X199710421Y-141786941D01*
X199533537Y-141359906D01*
X199281199Y-141278406D01*
X198409605Y-142150000D01*
X198050395Y-142150000D01*
X197178801Y-141278406D01*
X196974696Y-141344328D01*
X196958139Y-141304257D01*
X196537955Y-140883340D01*
X196530574Y-140880275D01*
X196535743Y-140878139D01*
X196753061Y-140661199D01*
X197358406Y-140661199D01*
X197429074Y-140880000D01*
X197358406Y-141098801D01*
X198230000Y-141970395D01*
X199101594Y-141098801D01*
X199030926Y-140880000D01*
X199089990Y-140697125D01*
X200766730Y-140697125D01*
X203310000Y-143240395D01*
X205853270Y-140697125D01*
X205489370Y-140204290D01*
X204092876Y-139615063D01*
X202577197Y-139605102D01*
X201173080Y-140175926D01*
X201130630Y-140204290D01*
X200766730Y-140697125D01*
X199089990Y-140697125D01*
X199101594Y-140661199D01*
X198230000Y-139789605D01*
X197358406Y-140661199D01*
X196753061Y-140661199D01*
X196956660Y-140457955D01*
X196974274Y-140415536D01*
X197178801Y-140481594D01*
X198050395Y-139610000D01*
X198409605Y-139610000D01*
X199281199Y-140481594D01*
X199533537Y-140400094D01*
X199736667Y-139841110D01*
X199710421Y-139246941D01*
X199533537Y-138819906D01*
X199281199Y-138738406D01*
X198409605Y-139610000D01*
X198050395Y-139610000D01*
X197178801Y-138738406D01*
X196974696Y-138804328D01*
X196958139Y-138764257D01*
X196537955Y-138343340D01*
X196530574Y-138340275D01*
X196535743Y-138338139D01*
X196956660Y-137917955D01*
X196959725Y-137910574D01*
X196961861Y-137915743D01*
X197382045Y-138336660D01*
X197424464Y-138354274D01*
X197358406Y-138558801D01*
X198230000Y-139430395D01*
X199101594Y-138558801D01*
X199035672Y-138354696D01*
X199075743Y-138338139D01*
X199496660Y-137917955D01*
X199724740Y-137368679D01*
X199725259Y-136773931D01*
X199498139Y-136224257D01*
X199077955Y-135803340D01*
X199070574Y-135800275D01*
X199075743Y-135798139D01*
X199496660Y-135377955D01*
X199724740Y-134828679D01*
X199725259Y-134233931D01*
X199498139Y-133684257D01*
X199077955Y-133263340D01*
X199070574Y-133260275D01*
X199075743Y-133258139D01*
X199496660Y-132837955D01*
X199724740Y-132288679D01*
X199725259Y-131693931D01*
X199498139Y-131144257D01*
X199077955Y-130723340D01*
X199070574Y-130720275D01*
X199075743Y-130718139D01*
X199496660Y-130297955D01*
X199724740Y-129748679D01*
X199725259Y-129153931D01*
X199498139Y-128604257D01*
X199077955Y-128183340D01*
X199070574Y-128180275D01*
X199075743Y-128178139D01*
X199496660Y-127757955D01*
X199724740Y-127208679D01*
X199725259Y-126613931D01*
X199498139Y-126064257D01*
X199077955Y-125643340D01*
X199070574Y-125640275D01*
X199075743Y-125638139D01*
X199496660Y-125217955D01*
X199724740Y-124668679D01*
X199725259Y-124073931D01*
X199498139Y-123524257D01*
X199077955Y-123103340D01*
X199070574Y-123100275D01*
X199075743Y-123098139D01*
X199496660Y-122677955D01*
X199724740Y-122128679D01*
X199725259Y-121533931D01*
X199498139Y-120984257D01*
X199077955Y-120563340D01*
X199070574Y-120560275D01*
X199075743Y-120558139D01*
X199496660Y-120137955D01*
X199724740Y-119588679D01*
X199725259Y-118993931D01*
X199498139Y-118444257D01*
X199077955Y-118023340D01*
X199070574Y-118020275D01*
X199075743Y-118018139D01*
X199496660Y-117597955D01*
X199724740Y-117048679D01*
X199725259Y-116453931D01*
X199498139Y-115904257D01*
X199077955Y-115483340D01*
X199070574Y-115480275D01*
X199075743Y-115478139D01*
X199496660Y-115057955D01*
X199724740Y-114508679D01*
X199725259Y-113913931D01*
X199498139Y-113364257D01*
X199077955Y-112943340D01*
X199070574Y-112940275D01*
X199075743Y-112938139D01*
X199496660Y-112517955D01*
X199724740Y-111968679D01*
X199725259Y-111373931D01*
X199498139Y-110824257D01*
X199077955Y-110403340D01*
X199070574Y-110400275D01*
X199075743Y-110398139D01*
X199496660Y-109977955D01*
X199724740Y-109428679D01*
X199725259Y-108833931D01*
X199498139Y-108284257D01*
X199077955Y-107863340D01*
X199070574Y-107860275D01*
X199075743Y-107858139D01*
X199496660Y-107437955D01*
X199724740Y-106888679D01*
X199725259Y-106293931D01*
X199498139Y-105744257D01*
X199077955Y-105323340D01*
X199070574Y-105320275D01*
X199075743Y-105318139D01*
X199496660Y-104897955D01*
X199724740Y-104348679D01*
X199725259Y-103753931D01*
X199498139Y-103204257D01*
X199077955Y-102783340D01*
X199070574Y-102780275D01*
X199075743Y-102778139D01*
X199496660Y-102357955D01*
X199724740Y-101808679D01*
X199725259Y-101213931D01*
X199498139Y-100664257D01*
X199077955Y-100243340D01*
X199070574Y-100240275D01*
X199075743Y-100238139D01*
X199496660Y-99817955D01*
X199724740Y-99268679D01*
X199725259Y-98673931D01*
X199498139Y-98124257D01*
X199077955Y-97703340D01*
X199070574Y-97700275D01*
X199075743Y-97698139D01*
X199496660Y-97277955D01*
X199724740Y-96728679D01*
X199725259Y-96133931D01*
X199498139Y-95584257D01*
X199077955Y-95163340D01*
X199070574Y-95160275D01*
X199075743Y-95158139D01*
X199496660Y-94737955D01*
X199724740Y-94188679D01*
X199725259Y-93593931D01*
X199498139Y-93044257D01*
X199077955Y-92623340D01*
X199070574Y-92620275D01*
X199075743Y-92618139D01*
X199496660Y-92197955D01*
X199724740Y-91648679D01*
X199725259Y-91053931D01*
X199498139Y-90504257D01*
X199077955Y-90083340D01*
X199070574Y-90080275D01*
X199075743Y-90078139D01*
X199496660Y-89657955D01*
X199724740Y-89108679D01*
X199725259Y-88513931D01*
X199498139Y-87964257D01*
X199077955Y-87543340D01*
X199070574Y-87540275D01*
X199075743Y-87538139D01*
X199496660Y-87117955D01*
X199724740Y-86568679D01*
X199725259Y-85973931D01*
X199498139Y-85424257D01*
X199077955Y-85003340D01*
X199070574Y-85000275D01*
X199075743Y-84998139D01*
X199496660Y-84577955D01*
X199724740Y-84028679D01*
X199725259Y-83433931D01*
X199498139Y-82884257D01*
X199077955Y-82463340D01*
X199070574Y-82460275D01*
X199075743Y-82458139D01*
X199496660Y-82037955D01*
X199724740Y-81488679D01*
X199725259Y-80893931D01*
X199498139Y-80344257D01*
X199077955Y-79923340D01*
X199070574Y-79920275D01*
X199075743Y-79918139D01*
X199496660Y-79497955D01*
X199724740Y-78948679D01*
X199725259Y-78353931D01*
X199498139Y-77804257D01*
X199077955Y-77383340D01*
X199070574Y-77380275D01*
X199075743Y-77378139D01*
X199496660Y-76957955D01*
X199724740Y-76408679D01*
X199725259Y-75813931D01*
X199498139Y-75264257D01*
X199077955Y-74843340D01*
X199070574Y-74840275D01*
X199075743Y-74838139D01*
X199496660Y-74417955D01*
X199724740Y-73868679D01*
X199725259Y-73273931D01*
X199498139Y-72724257D01*
X199077955Y-72303340D01*
X199070574Y-72300275D01*
X199075743Y-72298139D01*
X199496660Y-71877955D01*
X199724740Y-71328679D01*
X199725259Y-70733931D01*
X199498139Y-70184257D01*
X199077955Y-69763340D01*
X199070574Y-69760275D01*
X199075743Y-69758139D01*
X199496660Y-69337955D01*
X199724740Y-68788679D01*
X199725259Y-68193931D01*
X199498139Y-67644257D01*
X199077955Y-67223340D01*
X199035536Y-67205726D01*
X199101594Y-67001199D01*
X198230000Y-66129605D01*
X197358406Y-67001199D01*
X197424328Y-67205304D01*
X197384257Y-67221861D01*
X196963340Y-67642045D01*
X196960275Y-67649426D01*
X196958139Y-67644257D01*
X196537955Y-67223340D01*
X196530574Y-67220275D01*
X196535743Y-67218139D01*
X196956660Y-66797955D01*
X196974274Y-66755536D01*
X197178801Y-66821594D01*
X198050395Y-65950000D01*
X198409605Y-65950000D01*
X199281199Y-66821594D01*
X199533537Y-66740094D01*
X199736667Y-66181110D01*
X199734537Y-66132875D01*
X200766730Y-66132875D01*
X201130630Y-66625710D01*
X202527124Y-67214937D01*
X204042803Y-67224898D01*
X205446920Y-66654074D01*
X205489370Y-66625710D01*
X205853270Y-66132875D01*
X203310000Y-63589605D01*
X200766730Y-66132875D01*
X199734537Y-66132875D01*
X199710421Y-65586941D01*
X199533537Y-65159906D01*
X199281199Y-65078406D01*
X198409605Y-65950000D01*
X198050395Y-65950000D01*
X197178801Y-65078406D01*
X196974696Y-65144328D01*
X196958139Y-65104257D01*
X196537955Y-64683340D01*
X196530574Y-64680275D01*
X196535743Y-64678139D01*
X196753061Y-64461199D01*
X197358406Y-64461199D01*
X197429074Y-64680000D01*
X197358406Y-64898801D01*
X198230000Y-65770395D01*
X199101594Y-64898801D01*
X199030926Y-64680000D01*
X199101594Y-64461199D01*
X198230000Y-63589605D01*
X197358406Y-64461199D01*
X196753061Y-64461199D01*
X196956660Y-64257955D01*
X196974274Y-64215536D01*
X197178801Y-64281594D01*
X198050395Y-63410000D01*
X198409605Y-63410000D01*
X199281199Y-64281594D01*
X199520151Y-64204418D01*
X200065926Y-65546920D01*
X200094290Y-65589370D01*
X200587125Y-65953270D01*
X203130395Y-63410000D01*
X203489605Y-63410000D01*
X206032875Y-65953270D01*
X206525710Y-65589370D01*
X207114937Y-64192876D01*
X207124898Y-62677197D01*
X206554074Y-61273080D01*
X206525710Y-61230630D01*
X206032875Y-60866730D01*
X203489605Y-63410000D01*
X203130395Y-63410000D01*
X200587125Y-60866730D01*
X200094290Y-61230630D01*
X199511158Y-62612678D01*
X199281199Y-62538406D01*
X198409605Y-63410000D01*
X198050395Y-63410000D01*
X197178801Y-62538406D01*
X196974696Y-62604328D01*
X196958139Y-62564257D01*
X196753041Y-62358801D01*
X197358406Y-62358801D01*
X198230000Y-63230395D01*
X199101594Y-62358801D01*
X199020094Y-62106463D01*
X198461110Y-61903333D01*
X197866941Y-61929579D01*
X197439906Y-62106463D01*
X197358406Y-62358801D01*
X196753041Y-62358801D01*
X196537955Y-62143340D01*
X195988679Y-61915260D01*
X195393931Y-61914741D01*
X194844257Y-62141861D01*
X194423340Y-62562045D01*
X194195260Y-63111321D01*
X194194741Y-63706069D01*
X194421861Y-64255743D01*
X194842045Y-64676660D01*
X194849426Y-64679725D01*
X194844257Y-64681861D01*
X194423340Y-65102045D01*
X194195260Y-65651321D01*
X194194741Y-66246069D01*
X194421861Y-66795743D01*
X194842045Y-67216660D01*
X194849426Y-67219725D01*
X194844257Y-67221861D01*
X194423340Y-67642045D01*
X194195260Y-68191321D01*
X194194741Y-68786069D01*
X194421861Y-69335743D01*
X194842045Y-69756660D01*
X194849426Y-69759725D01*
X194844257Y-69761861D01*
X194423340Y-70182045D01*
X194195260Y-70731321D01*
X194194741Y-71326069D01*
X194421861Y-71875743D01*
X194842045Y-72296660D01*
X194849426Y-72299725D01*
X194844257Y-72301861D01*
X194423340Y-72722045D01*
X194195260Y-73271321D01*
X194194741Y-73866069D01*
X194421861Y-74415743D01*
X194842045Y-74836660D01*
X194849426Y-74839725D01*
X194844257Y-74841861D01*
X194423340Y-75262045D01*
X194195260Y-75811321D01*
X194194741Y-76406069D01*
X194421861Y-76955743D01*
X194842045Y-77376660D01*
X194849426Y-77379725D01*
X194844257Y-77381861D01*
X194423340Y-77802045D01*
X194195260Y-78351321D01*
X194194741Y-78946069D01*
X194421861Y-79495743D01*
X194842045Y-79916660D01*
X194849426Y-79919725D01*
X194844257Y-79921861D01*
X194423340Y-80342045D01*
X194195260Y-80891321D01*
X194194741Y-81486069D01*
X194421861Y-82035743D01*
X194842045Y-82456660D01*
X194849426Y-82459725D01*
X194844257Y-82461861D01*
X194423340Y-82882045D01*
X194195260Y-83431321D01*
X194194741Y-84026069D01*
X194421861Y-84575743D01*
X194842045Y-84996660D01*
X194849426Y-84999725D01*
X194844257Y-85001861D01*
X194423340Y-85422045D01*
X194195260Y-85971321D01*
X194194741Y-86566069D01*
X194421861Y-87115743D01*
X194842045Y-87536660D01*
X194849426Y-87539725D01*
X194844257Y-87541861D01*
X194423340Y-87962045D01*
X194195260Y-88511321D01*
X194194741Y-89106069D01*
X194421861Y-89655743D01*
X194842045Y-90076660D01*
X194849426Y-90079725D01*
X194844257Y-90081861D01*
X194423340Y-90502045D01*
X194195260Y-91051321D01*
X194194741Y-91646069D01*
X194421861Y-92195743D01*
X194842045Y-92616660D01*
X194849426Y-92619725D01*
X194844257Y-92621861D01*
X194423340Y-93042045D01*
X194195260Y-93591321D01*
X194194741Y-94186069D01*
X194421861Y-94735743D01*
X194842045Y-95156660D01*
X194849426Y-95159725D01*
X194844257Y-95161861D01*
X194423340Y-95582045D01*
X194195260Y-96131321D01*
X194194741Y-96726069D01*
X194421861Y-97275743D01*
X194842045Y-97696660D01*
X194849426Y-97699725D01*
X194844257Y-97701861D01*
X194423340Y-98122045D01*
X194195260Y-98671321D01*
X194194741Y-99266069D01*
X194421861Y-99815743D01*
X194842045Y-100236660D01*
X194849426Y-100239725D01*
X194844257Y-100241861D01*
X194423340Y-100662045D01*
X194195260Y-101211321D01*
X194194741Y-101806069D01*
X194421861Y-102355743D01*
X194842045Y-102776660D01*
X194849426Y-102779725D01*
X194844257Y-102781861D01*
X194423340Y-103202045D01*
X194195260Y-103751321D01*
X194194741Y-104346069D01*
X194421861Y-104895743D01*
X194842045Y-105316660D01*
X194849426Y-105319725D01*
X194844257Y-105321861D01*
X194423340Y-105742045D01*
X194195260Y-106291321D01*
X194194741Y-106886069D01*
X194421861Y-107435743D01*
X194842045Y-107856660D01*
X194849426Y-107859725D01*
X194844257Y-107861861D01*
X194423340Y-108282045D01*
X194195260Y-108831321D01*
X194194741Y-109426069D01*
X194421861Y-109975743D01*
X194842045Y-110396660D01*
X194849426Y-110399725D01*
X194844257Y-110401861D01*
X194423340Y-110822045D01*
X194195260Y-111371321D01*
X194194741Y-111966069D01*
X194421861Y-112515743D01*
X194842045Y-112936660D01*
X194849426Y-112939725D01*
X194844257Y-112941861D01*
X194423340Y-113362045D01*
X194195260Y-113911321D01*
X194194741Y-114506069D01*
X194421861Y-115055743D01*
X194842045Y-115476660D01*
X194849426Y-115479725D01*
X194844257Y-115481861D01*
X194423340Y-115902045D01*
X194195260Y-116451321D01*
X194194741Y-117046069D01*
X194421861Y-117595743D01*
X194842045Y-118016660D01*
X194849426Y-118019725D01*
X194844257Y-118021861D01*
X194423340Y-118442045D01*
X194195260Y-118991321D01*
X194194741Y-119586069D01*
X194421861Y-120135743D01*
X194842045Y-120556660D01*
X194849426Y-120559725D01*
X194844257Y-120561861D01*
X194423340Y-120982045D01*
X194195260Y-121531321D01*
X194194741Y-122126069D01*
X194421861Y-122675743D01*
X194842045Y-123096660D01*
X194849426Y-123099725D01*
X194844257Y-123101861D01*
X194423340Y-123522045D01*
X194195260Y-124071321D01*
X194194741Y-124666069D01*
X194421861Y-125215743D01*
X194842045Y-125636660D01*
X194849426Y-125639725D01*
X194844257Y-125641861D01*
X194423340Y-126062045D01*
X194195260Y-126611321D01*
X194194741Y-127206069D01*
X194421861Y-127755743D01*
X194842045Y-128176660D01*
X194849426Y-128179725D01*
X194844257Y-128181861D01*
X194423340Y-128602045D01*
X194397199Y-128665000D01*
X180275158Y-128665000D01*
X164535000Y-112924842D01*
X164535000Y-92250000D01*
X164475245Y-91949594D01*
X164305079Y-91694921D01*
X161305079Y-88694921D01*
X161050407Y-88524755D01*
X160750000Y-88465000D01*
X155825158Y-88465000D01*
X152933875Y-85573717D01*
X153128943Y-85493117D01*
X153392192Y-85230327D01*
X153534838Y-84886799D01*
X153535162Y-84514833D01*
X153393117Y-84171057D01*
X153385000Y-84162926D01*
X153385000Y-82837506D01*
X153392192Y-82830327D01*
X153534838Y-82486799D01*
X153535162Y-82114833D01*
X153393117Y-81771057D01*
X153130327Y-81507808D01*
X152786799Y-81365162D01*
X152414833Y-81364838D01*
X152071057Y-81506883D01*
X151807808Y-81769673D01*
X151665162Y-82113201D01*
X151664838Y-82485167D01*
X151806883Y-82828943D01*
X151815000Y-82837074D01*
X151815000Y-84162494D01*
X151807808Y-84169673D01*
X151726248Y-84366090D01*
X150845000Y-83484842D01*
X150845000Y-64663440D01*
X150923600Y-64663440D01*
X151158917Y-64619162D01*
X151375041Y-64480090D01*
X151520031Y-64267890D01*
X151528400Y-64226561D01*
X151540330Y-64244415D01*
X152026511Y-64569271D01*
X152600000Y-64683345D01*
X153173489Y-64569271D01*
X153659670Y-64244415D01*
X153870000Y-63929634D01*
X154080330Y-64244415D01*
X154566511Y-64569271D01*
X155140000Y-64683345D01*
X155713489Y-64569271D01*
X156199670Y-64244415D01*
X156524526Y-63758234D01*
X156618508Y-63285750D01*
X163861400Y-63285750D01*
X163861400Y-64142310D01*
X163958073Y-64375699D01*
X164136702Y-64554327D01*
X164370091Y-64651000D01*
X165074250Y-64651000D01*
X165233000Y-64492250D01*
X165233000Y-63127000D01*
X164020150Y-63127000D01*
X163861400Y-63285750D01*
X156618508Y-63285750D01*
X156638600Y-63184745D01*
X156638600Y-62815255D01*
X156524526Y-62241766D01*
X156267895Y-61857690D01*
X163861400Y-61857690D01*
X163861400Y-62714250D01*
X164020150Y-62873000D01*
X165233000Y-62873000D01*
X165233000Y-61507750D01*
X165487000Y-61507750D01*
X165487000Y-62873000D01*
X165507000Y-62873000D01*
X165507000Y-63127000D01*
X165487000Y-63127000D01*
X165487000Y-64492250D01*
X165645750Y-64651000D01*
X166349909Y-64651000D01*
X166583298Y-64554327D01*
X166761927Y-64375699D01*
X166825500Y-64222220D01*
X166840330Y-64244415D01*
X167326511Y-64569271D01*
X167900000Y-64683345D01*
X168473489Y-64569271D01*
X168959670Y-64244415D01*
X169170000Y-63929634D01*
X169380330Y-64244415D01*
X169866511Y-64569271D01*
X170440000Y-64683345D01*
X171013489Y-64569271D01*
X171499670Y-64244415D01*
X171824526Y-63758234D01*
X171938600Y-63184745D01*
X171938600Y-62815255D01*
X171824526Y-62241766D01*
X171499670Y-61755585D01*
X171013489Y-61430729D01*
X170440000Y-61316655D01*
X169866511Y-61430729D01*
X169380330Y-61755585D01*
X169170000Y-62070366D01*
X168959670Y-61755585D01*
X168473489Y-61430729D01*
X167900000Y-61316655D01*
X167326511Y-61430729D01*
X166840330Y-61755585D01*
X166825500Y-61777780D01*
X166761927Y-61624301D01*
X166583298Y-61445673D01*
X166349909Y-61349000D01*
X165645750Y-61349000D01*
X165487000Y-61507750D01*
X165233000Y-61507750D01*
X165074250Y-61349000D01*
X164370091Y-61349000D01*
X164136702Y-61445673D01*
X163958073Y-61624301D01*
X163861400Y-61857690D01*
X156267895Y-61857690D01*
X156199670Y-61755585D01*
X155713489Y-61430729D01*
X155140000Y-61316655D01*
X154566511Y-61430729D01*
X154080330Y-61755585D01*
X153870000Y-62070366D01*
X153659670Y-61755585D01*
X153173489Y-61430729D01*
X152600000Y-61316655D01*
X152026511Y-61430729D01*
X151540330Y-61755585D01*
X151530757Y-61769913D01*
X151526762Y-61748683D01*
X151387690Y-61532559D01*
X151175490Y-61387569D01*
X150923600Y-61336560D01*
X149196400Y-61336560D01*
X148961083Y-61380838D01*
X148744959Y-61519910D01*
X148599969Y-61732110D01*
X148548960Y-61984000D01*
X148548960Y-64016000D01*
X148593238Y-64251317D01*
X148732310Y-64467441D01*
X148944510Y-64612431D01*
X149196400Y-64663440D01*
X149275000Y-64663440D01*
X149275000Y-83810000D01*
X149334755Y-84110407D01*
X149504921Y-84365079D01*
X154944921Y-89805079D01*
X155199594Y-89975245D01*
X155500000Y-90035000D01*
X160424842Y-90035000D01*
X162965000Y-92575158D01*
X162965000Y-113250000D01*
X163024755Y-113550407D01*
X163194921Y-113805079D01*
X179394921Y-130005079D01*
X179649594Y-130175245D01*
X179950000Y-130235000D01*
X194396763Y-130235000D01*
X194421861Y-130295743D01*
X194842045Y-130716660D01*
X194849426Y-130719725D01*
X194844257Y-130721861D01*
X194423340Y-131142045D01*
X194195260Y-131691321D01*
X194194741Y-132286069D01*
X194241447Y-132399106D01*
X188980280Y-137660274D01*
X188980277Y-137660276D01*
X185891595Y-140748959D01*
X185573353Y-140748959D01*
X185692192Y-140630327D01*
X185834838Y-140286799D01*
X185835162Y-139914833D01*
X185693117Y-139571057D01*
X185430327Y-139307808D01*
X185086799Y-139165162D01*
X184714833Y-139164838D01*
X184371057Y-139306883D01*
X184312838Y-139365000D01*
X182111998Y-139365000D01*
X181830726Y-139420949D01*
X181592275Y-139580277D01*
X180823603Y-140348949D01*
X157735823Y-140348949D01*
X152782428Y-135395555D01*
X152782428Y-130285167D01*
X171164838Y-130285167D01*
X171306883Y-130628943D01*
X171315000Y-130637074D01*
X171315000Y-132762494D01*
X171307808Y-132769673D01*
X171165162Y-133113201D01*
X171164838Y-133485167D01*
X171306883Y-133828943D01*
X171569673Y-134092192D01*
X171913201Y-134234838D01*
X172285167Y-134235162D01*
X172628943Y-134093117D01*
X172892192Y-133830327D01*
X173034838Y-133486799D01*
X173035162Y-133114833D01*
X172893117Y-132771057D01*
X172885000Y-132762926D01*
X172885000Y-130637506D01*
X172892192Y-130630327D01*
X173034838Y-130286799D01*
X173035162Y-129914833D01*
X172893117Y-129571057D01*
X172630327Y-129307808D01*
X172286799Y-129165162D01*
X171914833Y-129164838D01*
X171571057Y-129306883D01*
X171307808Y-129569673D01*
X171165162Y-129913201D01*
X171164838Y-130285167D01*
X152782428Y-130285167D01*
X152782428Y-130153466D01*
X156519290Y-126416604D01*
X156563201Y-126434838D01*
X156935167Y-126435162D01*
X157278943Y-126293117D01*
X157542192Y-126030327D01*
X157684838Y-125686799D01*
X157685162Y-125314833D01*
X157543117Y-124971057D01*
X157280327Y-124707808D01*
X156936799Y-124565162D01*
X156564833Y-124564838D01*
X156221057Y-124706883D01*
X156184853Y-124743024D01*
X156025330Y-124774755D01*
X155770657Y-124944921D01*
X151442349Y-129273229D01*
X151272183Y-129527901D01*
X151265968Y-129559146D01*
X151212428Y-129828308D01*
X151212428Y-135395555D01*
X150980276Y-135627707D01*
X150932824Y-135698723D01*
X150671057Y-135806883D01*
X150407808Y-136069673D01*
X150265162Y-136413201D01*
X150264838Y-136785167D01*
X150406883Y-137128943D01*
X150669673Y-137392192D01*
X151013201Y-137534838D01*
X151385167Y-137535162D01*
X151728943Y-137393117D01*
X151992192Y-137130327D01*
X152123085Y-136815104D01*
X154972970Y-139664990D01*
X143004437Y-139664990D01*
X142955908Y-139616461D01*
X143042192Y-139530327D01*
X143184838Y-139186799D01*
X143184910Y-139104536D01*
X146319726Y-135969721D01*
X146479053Y-135731270D01*
X146492267Y-135664838D01*
X146535002Y-135449998D01*
X146535002Y-132319319D01*
X146813201Y-132434838D01*
X147185167Y-132435162D01*
X147528943Y-132293117D01*
X147792192Y-132030327D01*
X147934838Y-131686799D01*
X147935162Y-131314833D01*
X147935000Y-131314441D01*
X147935000Y-129250000D01*
X147863827Y-128892191D01*
X147661145Y-128588855D01*
X146911436Y-127839146D01*
X146780327Y-127707808D01*
X146436799Y-127565162D01*
X146064833Y-127564838D01*
X145721057Y-127706883D01*
X145457808Y-127969673D01*
X145315162Y-128313201D01*
X145314838Y-128685167D01*
X145405794Y-128905298D01*
X145357481Y-128905256D01*
X145013705Y-129047301D01*
X144750456Y-129310091D01*
X144607810Y-129653619D01*
X144607486Y-130025585D01*
X144749531Y-130369361D01*
X144848114Y-130468116D01*
X144853410Y-130494741D01*
X144863597Y-130545954D01*
X145022925Y-130784405D01*
X145065002Y-130826482D01*
X145065002Y-132364969D01*
X144914833Y-132364838D01*
X144571057Y-132506883D01*
X144307808Y-132769673D01*
X144165162Y-133113201D01*
X144164838Y-133485167D01*
X144306883Y-133828943D01*
X144365000Y-133887162D01*
X144365000Y-134795553D01*
X141495553Y-137665001D01*
X141299999Y-137665001D01*
X141018727Y-137720950D01*
X140952864Y-137764958D01*
X140814833Y-137764838D01*
X140471057Y-137906883D01*
X140235000Y-138142528D01*
X140235000Y-133237419D01*
X140292192Y-133180327D01*
X140434838Y-132836799D01*
X140435162Y-132464833D01*
X140293117Y-132121057D01*
X140194534Y-132022302D01*
X140179051Y-131944464D01*
X140121150Y-131857809D01*
X140019723Y-131706012D01*
X139793986Y-131480276D01*
X139555535Y-131320948D01*
X139524793Y-131314833D01*
X139274263Y-131264999D01*
X133200001Y-131264999D01*
X133190810Y-131266827D01*
X133186799Y-131265162D01*
X132814833Y-131264838D01*
X132471057Y-131406883D01*
X132207808Y-131669673D01*
X132065162Y-132013201D01*
X132064838Y-132385167D01*
X113185000Y-132385167D01*
X113185000Y-122437175D01*
X122342430Y-122437175D01*
X122465565Y-122724788D01*
X123147734Y-122984707D01*
X123877443Y-122963786D01*
X124454435Y-122724788D01*
X124577570Y-122437175D01*
X127422430Y-122437175D01*
X127545565Y-122724788D01*
X128227734Y-122984707D01*
X128957443Y-122963786D01*
X129534435Y-122724788D01*
X129657570Y-122437175D01*
X128540000Y-121319605D01*
X127422430Y-122437175D01*
X124577570Y-122437175D01*
X123460000Y-121319605D01*
X122342430Y-122437175D01*
X113185000Y-122437175D01*
X113185000Y-120827734D01*
X121615293Y-120827734D01*
X121636214Y-121557443D01*
X121875212Y-122134435D01*
X122162825Y-122257570D01*
X123280395Y-121140000D01*
X122162825Y-120022430D01*
X121875212Y-120145565D01*
X121615293Y-120827734D01*
X113185000Y-120827734D01*
X113185000Y-117357175D01*
X122342430Y-117357175D01*
X122465565Y-117644788D01*
X123147734Y-117904707D01*
X123877443Y-117883786D01*
X124454435Y-117644788D01*
X124577569Y-117357177D01*
X124647932Y-117427540D01*
X124487633Y-117587559D01*
X124215311Y-118243384D01*
X124214691Y-118953501D01*
X124485868Y-119609800D01*
X124648088Y-119772304D01*
X124577569Y-119842823D01*
X124454435Y-119555212D01*
X123772266Y-119295293D01*
X123042557Y-119316214D01*
X122465565Y-119555212D01*
X122342430Y-119842825D01*
X123460000Y-120960395D01*
X123474143Y-120946253D01*
X123653748Y-121125858D01*
X123639605Y-121140000D01*
X124757175Y-122257570D01*
X125044788Y-122134435D01*
X125304707Y-121452266D01*
X125283786Y-120722557D01*
X125044788Y-120145565D01*
X124757177Y-120022431D01*
X124827540Y-119952068D01*
X124987559Y-120112367D01*
X125643384Y-120384689D01*
X126353501Y-120385309D01*
X127009800Y-120114132D01*
X127172304Y-119951912D01*
X127242823Y-120022431D01*
X126955212Y-120145565D01*
X126695293Y-120827734D01*
X126716214Y-121557443D01*
X126955212Y-122134435D01*
X127242825Y-122257570D01*
X128360395Y-121140000D01*
X128719605Y-121140000D01*
X129837175Y-122257570D01*
X130124788Y-122134435D01*
X130384707Y-121452266D01*
X130363786Y-120722557D01*
X130124788Y-120145565D01*
X129837175Y-120022430D01*
X128719605Y-121140000D01*
X128360395Y-121140000D01*
X128346253Y-121125858D01*
X128525858Y-120946253D01*
X128540000Y-120960395D01*
X129657570Y-119842825D01*
X129534435Y-119555212D01*
X128852266Y-119295293D01*
X128122557Y-119316214D01*
X127545565Y-119555212D01*
X127422431Y-119842823D01*
X127352068Y-119772460D01*
X127512367Y-119612441D01*
X127784689Y-118956616D01*
X127785309Y-118246499D01*
X127514132Y-117590200D01*
X127351912Y-117427696D01*
X127422431Y-117357177D01*
X127545565Y-117644788D01*
X128227734Y-117904707D01*
X128957443Y-117883786D01*
X129534435Y-117644788D01*
X129657570Y-117357175D01*
X128540000Y-116239605D01*
X128525858Y-116253748D01*
X128346253Y-116074143D01*
X128360395Y-116060000D01*
X128719605Y-116060000D01*
X129837175Y-117177570D01*
X130124788Y-117054435D01*
X130384707Y-116372266D01*
X130363786Y-115642557D01*
X130124788Y-115065565D01*
X129837175Y-114942430D01*
X128719605Y-116060000D01*
X128360395Y-116060000D01*
X127242825Y-114942430D01*
X126955212Y-115065565D01*
X126695293Y-115747734D01*
X126716214Y-116477443D01*
X126955212Y-117054435D01*
X127242823Y-117177569D01*
X127172460Y-117247932D01*
X127012441Y-117087633D01*
X126356616Y-116815311D01*
X125646499Y-116814691D01*
X124990200Y-117085868D01*
X124827696Y-117248088D01*
X124757177Y-117177569D01*
X125044788Y-117054435D01*
X125304707Y-116372266D01*
X125283786Y-115642557D01*
X125044788Y-115065565D01*
X124757175Y-114942430D01*
X123639605Y-116060000D01*
X123653748Y-116074143D01*
X123474143Y-116253748D01*
X123460000Y-116239605D01*
X122342430Y-117357175D01*
X113185000Y-117357175D01*
X113185000Y-115747734D01*
X121615293Y-115747734D01*
X121636214Y-116477443D01*
X121875212Y-117054435D01*
X122162825Y-117177570D01*
X123280395Y-116060000D01*
X122162825Y-114942430D01*
X121875212Y-115065565D01*
X121615293Y-115747734D01*
X113185000Y-115747734D01*
X113185000Y-114762825D01*
X122342430Y-114762825D01*
X123460000Y-115880395D01*
X124577570Y-114762825D01*
X127422430Y-114762825D01*
X128540000Y-115880395D01*
X129657570Y-114762825D01*
X129534435Y-114475212D01*
X128852266Y-114215293D01*
X128122557Y-114236214D01*
X127545565Y-114475212D01*
X127422430Y-114762825D01*
X124577570Y-114762825D01*
X124454435Y-114475212D01*
X123772266Y-114215293D01*
X123042557Y-114236214D01*
X122465565Y-114475212D01*
X122342430Y-114762825D01*
X113185000Y-114762825D01*
X113185000Y-106837175D01*
X122342430Y-106837175D01*
X122465565Y-107124788D01*
X123147734Y-107384707D01*
X123877443Y-107363786D01*
X124454435Y-107124788D01*
X124577570Y-106837175D01*
X127422430Y-106837175D01*
X127545565Y-107124788D01*
X128227734Y-107384707D01*
X128957443Y-107363786D01*
X129534435Y-107124788D01*
X129657570Y-106837175D01*
X146842430Y-106837175D01*
X146965565Y-107124788D01*
X147647734Y-107384707D01*
X148377443Y-107363786D01*
X148954435Y-107124788D01*
X149077570Y-106837175D01*
X151922430Y-106837175D01*
X152045565Y-107124788D01*
X152727734Y-107384707D01*
X153457443Y-107363786D01*
X154034435Y-107124788D01*
X154157570Y-106837175D01*
X153040000Y-105719605D01*
X151922430Y-106837175D01*
X149077570Y-106837175D01*
X147960000Y-105719605D01*
X146842430Y-106837175D01*
X129657570Y-106837175D01*
X128540000Y-105719605D01*
X127422430Y-106837175D01*
X124577570Y-106837175D01*
X123460000Y-105719605D01*
X122342430Y-106837175D01*
X113185000Y-106837175D01*
X113185000Y-105227734D01*
X121615293Y-105227734D01*
X121636214Y-105957443D01*
X121875212Y-106534435D01*
X122162825Y-106657570D01*
X123280395Y-105540000D01*
X122162825Y-104422430D01*
X121875212Y-104545565D01*
X121615293Y-105227734D01*
X113185000Y-105227734D01*
X113185000Y-101757175D01*
X122342430Y-101757175D01*
X122465565Y-102044788D01*
X123147734Y-102304707D01*
X123877443Y-102283786D01*
X124454435Y-102044788D01*
X124577569Y-101757177D01*
X124647932Y-101827540D01*
X124487633Y-101987559D01*
X124215311Y-102643384D01*
X124214691Y-103353501D01*
X124485868Y-104009800D01*
X124648088Y-104172304D01*
X124577569Y-104242823D01*
X124454435Y-103955212D01*
X123772266Y-103695293D01*
X123042557Y-103716214D01*
X122465565Y-103955212D01*
X122342430Y-104242825D01*
X123460000Y-105360395D01*
X123474143Y-105346253D01*
X123653748Y-105525858D01*
X123639605Y-105540000D01*
X124757175Y-106657570D01*
X125044788Y-106534435D01*
X125304707Y-105852266D01*
X125283786Y-105122557D01*
X125044788Y-104545565D01*
X124757177Y-104422431D01*
X124827540Y-104352068D01*
X124987559Y-104512367D01*
X125643384Y-104784689D01*
X126353501Y-104785309D01*
X127009800Y-104514132D01*
X127172304Y-104351912D01*
X127242823Y-104422431D01*
X126955212Y-104545565D01*
X126695293Y-105227734D01*
X126716214Y-105957443D01*
X126955212Y-106534435D01*
X127242825Y-106657570D01*
X128360395Y-105540000D01*
X128719605Y-105540000D01*
X129837175Y-106657570D01*
X130124788Y-106534435D01*
X130384707Y-105852266D01*
X130366802Y-105227734D01*
X146115293Y-105227734D01*
X146136214Y-105957443D01*
X146375212Y-106534435D01*
X146662825Y-106657570D01*
X147780395Y-105540000D01*
X146662825Y-104422430D01*
X146375212Y-104545565D01*
X146115293Y-105227734D01*
X130366802Y-105227734D01*
X130363786Y-105122557D01*
X130124788Y-104545565D01*
X129837175Y-104422430D01*
X128719605Y-105540000D01*
X128360395Y-105540000D01*
X128346253Y-105525858D01*
X128525858Y-105346253D01*
X128540000Y-105360395D01*
X129657570Y-104242825D01*
X129534435Y-103955212D01*
X128852266Y-103695293D01*
X128122557Y-103716214D01*
X127545565Y-103955212D01*
X127422431Y-104242823D01*
X127352068Y-104172460D01*
X127512367Y-104012441D01*
X127784689Y-103356616D01*
X127785309Y-102646499D01*
X127514132Y-101990200D01*
X127351912Y-101827696D01*
X127422431Y-101757177D01*
X127545565Y-102044788D01*
X128227734Y-102304707D01*
X128957443Y-102283786D01*
X129534435Y-102044788D01*
X129657570Y-101757175D01*
X146842430Y-101757175D01*
X146965565Y-102044788D01*
X147647734Y-102304707D01*
X148377443Y-102283786D01*
X148954435Y-102044788D01*
X149077569Y-101757177D01*
X149147932Y-101827540D01*
X148987633Y-101987559D01*
X148715311Y-102643384D01*
X148714691Y-103353501D01*
X148985868Y-104009800D01*
X149148088Y-104172304D01*
X149077569Y-104242823D01*
X148954435Y-103955212D01*
X148272266Y-103695293D01*
X147542557Y-103716214D01*
X146965565Y-103955212D01*
X146842430Y-104242825D01*
X147960000Y-105360395D01*
X147974143Y-105346253D01*
X148153748Y-105525858D01*
X148139605Y-105540000D01*
X149257175Y-106657570D01*
X149544788Y-106534435D01*
X149804707Y-105852266D01*
X149783786Y-105122557D01*
X149544788Y-104545565D01*
X149257177Y-104422431D01*
X149327540Y-104352068D01*
X149487559Y-104512367D01*
X150143384Y-104784689D01*
X150853501Y-104785309D01*
X151509800Y-104514132D01*
X151672304Y-104351912D01*
X151742823Y-104422431D01*
X151455212Y-104545565D01*
X151195293Y-105227734D01*
X151216214Y-105957443D01*
X151455212Y-106534435D01*
X151742825Y-106657570D01*
X152860395Y-105540000D01*
X153219605Y-105540000D01*
X154337175Y-106657570D01*
X154624788Y-106534435D01*
X154884707Y-105852266D01*
X154863786Y-105122557D01*
X154624788Y-104545565D01*
X154337175Y-104422430D01*
X153219605Y-105540000D01*
X152860395Y-105540000D01*
X152846253Y-105525858D01*
X153025858Y-105346253D01*
X153040000Y-105360395D01*
X154157570Y-104242825D01*
X154034435Y-103955212D01*
X153352266Y-103695293D01*
X152622557Y-103716214D01*
X152045565Y-103955212D01*
X151922431Y-104242823D01*
X151852068Y-104172460D01*
X152012367Y-104012441D01*
X152284689Y-103356616D01*
X152285309Y-102646499D01*
X152014132Y-101990200D01*
X151851912Y-101827696D01*
X151922431Y-101757177D01*
X152045565Y-102044788D01*
X152727734Y-102304707D01*
X153457443Y-102283786D01*
X154034435Y-102044788D01*
X154157570Y-101757175D01*
X153040000Y-100639605D01*
X153025858Y-100653748D01*
X152846253Y-100474143D01*
X152860395Y-100460000D01*
X153219605Y-100460000D01*
X154337175Y-101577570D01*
X154624788Y-101454435D01*
X154884707Y-100772266D01*
X154863786Y-100042557D01*
X154624788Y-99465565D01*
X154337175Y-99342430D01*
X153219605Y-100460000D01*
X152860395Y-100460000D01*
X151742825Y-99342430D01*
X151455212Y-99465565D01*
X151195293Y-100147734D01*
X151216214Y-100877443D01*
X151455212Y-101454435D01*
X151742823Y-101577569D01*
X151672460Y-101647932D01*
X151512441Y-101487633D01*
X150856616Y-101215311D01*
X150146499Y-101214691D01*
X149490200Y-101485868D01*
X149327696Y-101648088D01*
X149257177Y-101577569D01*
X149544788Y-101454435D01*
X149804707Y-100772266D01*
X149783786Y-100042557D01*
X149544788Y-99465565D01*
X149257175Y-99342430D01*
X148139605Y-100460000D01*
X148153748Y-100474143D01*
X147974143Y-100653748D01*
X147960000Y-100639605D01*
X146842430Y-101757175D01*
X129657570Y-101757175D01*
X128540000Y-100639605D01*
X128525858Y-100653748D01*
X128346253Y-100474143D01*
X128360395Y-100460000D01*
X128719605Y-100460000D01*
X129837175Y-101577570D01*
X130124788Y-101454435D01*
X130384707Y-100772266D01*
X130366802Y-100147734D01*
X146115293Y-100147734D01*
X146136214Y-100877443D01*
X146375212Y-101454435D01*
X146662825Y-101577570D01*
X147780395Y-100460000D01*
X146662825Y-99342430D01*
X146375212Y-99465565D01*
X146115293Y-100147734D01*
X130366802Y-100147734D01*
X130363786Y-100042557D01*
X130124788Y-99465565D01*
X129837175Y-99342430D01*
X128719605Y-100460000D01*
X128360395Y-100460000D01*
X127242825Y-99342430D01*
X126955212Y-99465565D01*
X126695293Y-100147734D01*
X126716214Y-100877443D01*
X126955212Y-101454435D01*
X127242823Y-101577569D01*
X127172460Y-101647932D01*
X127012441Y-101487633D01*
X126356616Y-101215311D01*
X125646499Y-101214691D01*
X124990200Y-101485868D01*
X124827696Y-101648088D01*
X124757177Y-101577569D01*
X125044788Y-101454435D01*
X125304707Y-100772266D01*
X125283786Y-100042557D01*
X125044788Y-99465565D01*
X124757175Y-99342430D01*
X123639605Y-100460000D01*
X123653748Y-100474143D01*
X123474143Y-100653748D01*
X123460000Y-100639605D01*
X122342430Y-101757175D01*
X113185000Y-101757175D01*
X113185000Y-100147734D01*
X121615293Y-100147734D01*
X121636214Y-100877443D01*
X121875212Y-101454435D01*
X122162825Y-101577570D01*
X123280395Y-100460000D01*
X122162825Y-99342430D01*
X121875212Y-99465565D01*
X121615293Y-100147734D01*
X113185000Y-100147734D01*
X113185000Y-99162825D01*
X122342430Y-99162825D01*
X123460000Y-100280395D01*
X124577570Y-99162825D01*
X127422430Y-99162825D01*
X128540000Y-100280395D01*
X129657570Y-99162825D01*
X146842430Y-99162825D01*
X147960000Y-100280395D01*
X149077570Y-99162825D01*
X151922430Y-99162825D01*
X153040000Y-100280395D01*
X154157570Y-99162825D01*
X154034435Y-98875212D01*
X153352266Y-98615293D01*
X152622557Y-98636214D01*
X152045565Y-98875212D01*
X151922430Y-99162825D01*
X149077570Y-99162825D01*
X148954435Y-98875212D01*
X148272266Y-98615293D01*
X147542557Y-98636214D01*
X146965565Y-98875212D01*
X146842430Y-99162825D01*
X129657570Y-99162825D01*
X129534435Y-98875212D01*
X128852266Y-98615293D01*
X128122557Y-98636214D01*
X127545565Y-98875212D01*
X127422430Y-99162825D01*
X124577570Y-99162825D01*
X124454435Y-98875212D01*
X123772266Y-98615293D01*
X123042557Y-98636214D01*
X122465565Y-98875212D01*
X122342430Y-99162825D01*
X113185000Y-99162825D01*
X113185000Y-93500000D01*
X148265000Y-93500000D01*
X148351397Y-93934346D01*
X148597434Y-94302566D01*
X148965654Y-94548603D01*
X149400000Y-94635000D01*
X161000000Y-94635000D01*
X161434346Y-94548603D01*
X161802566Y-94302566D01*
X162048603Y-93934346D01*
X162135000Y-93500000D01*
X162048603Y-93065654D01*
X161802566Y-92697434D01*
X161434346Y-92451397D01*
X161000000Y-92365000D01*
X149400000Y-92365000D01*
X148965654Y-92451397D01*
X148597434Y-92697434D01*
X148351397Y-93065654D01*
X148265000Y-93500000D01*
X113185000Y-93500000D01*
X113185000Y-73837175D01*
X132142430Y-73837175D01*
X132265565Y-74124788D01*
X132947734Y-74384707D01*
X133677443Y-74363786D01*
X134254435Y-74124788D01*
X134377570Y-73837175D01*
X137222430Y-73837175D01*
X137345565Y-74124788D01*
X138027734Y-74384707D01*
X138757443Y-74363786D01*
X139334435Y-74124788D01*
X139457570Y-73837175D01*
X138340000Y-72719605D01*
X137222430Y-73837175D01*
X134377570Y-73837175D01*
X133260000Y-72719605D01*
X132142430Y-73837175D01*
X113185000Y-73837175D01*
X113185000Y-72227734D01*
X131415293Y-72227734D01*
X131436214Y-72957443D01*
X131675212Y-73534435D01*
X131962825Y-73657570D01*
X133080395Y-72540000D01*
X131962825Y-71422430D01*
X131675212Y-71545565D01*
X131415293Y-72227734D01*
X113185000Y-72227734D01*
X113185000Y-68672875D01*
X115036730Y-68672875D01*
X115400630Y-69165710D01*
X116797124Y-69754937D01*
X118312803Y-69764898D01*
X119716920Y-69194074D01*
X119759370Y-69165710D01*
X120061024Y-68757175D01*
X132142430Y-68757175D01*
X132265565Y-69044788D01*
X132947734Y-69304707D01*
X133677443Y-69283786D01*
X134254435Y-69044788D01*
X134377569Y-68757177D01*
X134447932Y-68827540D01*
X134287633Y-68987559D01*
X134015311Y-69643384D01*
X134014691Y-70353501D01*
X134285868Y-71009800D01*
X134448088Y-71172304D01*
X134377569Y-71242823D01*
X134254435Y-70955212D01*
X133572266Y-70695293D01*
X132842557Y-70716214D01*
X132265565Y-70955212D01*
X132142430Y-71242825D01*
X133260000Y-72360395D01*
X133274143Y-72346253D01*
X133453748Y-72525858D01*
X133439605Y-72540000D01*
X134557175Y-73657570D01*
X134844788Y-73534435D01*
X135104707Y-72852266D01*
X135083786Y-72122557D01*
X134844788Y-71545565D01*
X134557177Y-71422431D01*
X134627540Y-71352068D01*
X134787559Y-71512367D01*
X135443384Y-71784689D01*
X136153501Y-71785309D01*
X136809800Y-71514132D01*
X136972304Y-71351912D01*
X137042823Y-71422431D01*
X136755212Y-71545565D01*
X136495293Y-72227734D01*
X136516214Y-72957443D01*
X136755212Y-73534435D01*
X137042825Y-73657570D01*
X138160395Y-72540000D01*
X138519605Y-72540000D01*
X139637175Y-73657570D01*
X139924788Y-73534435D01*
X140184707Y-72852266D01*
X140163786Y-72122557D01*
X139924788Y-71545565D01*
X139637175Y-71422430D01*
X138519605Y-72540000D01*
X138160395Y-72540000D01*
X138146253Y-72525858D01*
X138325858Y-72346253D01*
X138340000Y-72360395D01*
X139457570Y-71242825D01*
X139334435Y-70955212D01*
X138652266Y-70695293D01*
X137922557Y-70716214D01*
X137345565Y-70955212D01*
X137222431Y-71242823D01*
X137152068Y-71172460D01*
X137312367Y-71012441D01*
X137584689Y-70356616D01*
X137585309Y-69646499D01*
X137314132Y-68990200D01*
X137151912Y-68827696D01*
X137222431Y-68757177D01*
X137345565Y-69044788D01*
X138027734Y-69304707D01*
X138757443Y-69283786D01*
X139334435Y-69044788D01*
X139457570Y-68757175D01*
X138340000Y-67639605D01*
X138325858Y-67653748D01*
X138146253Y-67474143D01*
X138160395Y-67460000D01*
X138519605Y-67460000D01*
X139637175Y-68577570D01*
X139924788Y-68454435D01*
X140184707Y-67772266D01*
X140163786Y-67042557D01*
X139924788Y-66465565D01*
X139637175Y-66342430D01*
X138519605Y-67460000D01*
X138160395Y-67460000D01*
X137042825Y-66342430D01*
X136755212Y-66465565D01*
X136495293Y-67147734D01*
X136516214Y-67877443D01*
X136755212Y-68454435D01*
X137042823Y-68577569D01*
X136972460Y-68647932D01*
X136812441Y-68487633D01*
X136156616Y-68215311D01*
X135446499Y-68214691D01*
X134790200Y-68485868D01*
X134627696Y-68648088D01*
X134557177Y-68577569D01*
X134844788Y-68454435D01*
X135104707Y-67772266D01*
X135083786Y-67042557D01*
X134844788Y-66465565D01*
X134557175Y-66342430D01*
X133439605Y-67460000D01*
X133453748Y-67474143D01*
X133274143Y-67653748D01*
X133260000Y-67639605D01*
X132142430Y-68757175D01*
X120061024Y-68757175D01*
X120123270Y-68672875D01*
X117580000Y-66129605D01*
X115036730Y-68672875D01*
X113185000Y-68672875D01*
X113185000Y-66682803D01*
X113765102Y-66682803D01*
X114335926Y-68086920D01*
X114364290Y-68129370D01*
X114857125Y-68493270D01*
X117400395Y-65950000D01*
X117759605Y-65950000D01*
X120302875Y-68493270D01*
X120795710Y-68129370D01*
X121209894Y-67147734D01*
X131415293Y-67147734D01*
X131436214Y-67877443D01*
X131675212Y-68454435D01*
X131962825Y-68577570D01*
X133080395Y-67460000D01*
X131962825Y-66342430D01*
X131675212Y-66465565D01*
X131415293Y-67147734D01*
X121209894Y-67147734D01*
X121384937Y-66732876D01*
X121388683Y-66162825D01*
X132142430Y-66162825D01*
X133260000Y-67280395D01*
X134377570Y-66162825D01*
X137222430Y-66162825D01*
X138340000Y-67280395D01*
X139457570Y-66162825D01*
X139334435Y-65875212D01*
X138652266Y-65615293D01*
X137922557Y-65636214D01*
X137345565Y-65875212D01*
X137222430Y-66162825D01*
X134377570Y-66162825D01*
X134254435Y-65875212D01*
X133572266Y-65615293D01*
X132842557Y-65636214D01*
X132265565Y-65875212D01*
X132142430Y-66162825D01*
X121388683Y-66162825D01*
X121394898Y-65217197D01*
X120824074Y-63813080D01*
X120795710Y-63770630D01*
X120302875Y-63406730D01*
X117759605Y-65950000D01*
X117400395Y-65950000D01*
X114857125Y-63406730D01*
X114364290Y-63770630D01*
X113775063Y-65167124D01*
X113765102Y-66682803D01*
X113185000Y-66682803D01*
X113185000Y-63227125D01*
X115036730Y-63227125D01*
X117580000Y-65770395D01*
X120123270Y-63227125D01*
X119759370Y-62734290D01*
X118362876Y-62145063D01*
X116847197Y-62135102D01*
X115443080Y-62705926D01*
X115400630Y-62734290D01*
X115036730Y-63227125D01*
X113185000Y-63227125D01*
X113185000Y-60687125D01*
X200766730Y-60687125D01*
X203310000Y-63230395D01*
X205853270Y-60687125D01*
X205489370Y-60194290D01*
X204092876Y-59605063D01*
X202577197Y-59595102D01*
X201173080Y-60165926D01*
X201130630Y-60194290D01*
X200766730Y-60687125D01*
X113185000Y-60687125D01*
X113185000Y-59015000D01*
X207705000Y-59015000D01*
X207705000Y-147815000D01*
G36*
X194842045Y-135796660D02*
X194849426Y-135799725D01*
X194844257Y-135801861D01*
X194423340Y-136222045D01*
X194195260Y-136771321D01*
X194194741Y-137366069D01*
X194241447Y-137479106D01*
X190171575Y-141548979D01*
X188494244Y-141548979D01*
X194544564Y-135498660D01*
X194842045Y-135796660D01*
X194842045Y-135796660D01*
G37*
X194842045Y-135796660D02*
X194849426Y-135799725D01*
X194844257Y-135801861D01*
X194423340Y-136222045D01*
X194195260Y-136771321D01*
X194194741Y-137366069D01*
X194241447Y-137479106D01*
X190171575Y-141548979D01*
X188494244Y-141548979D01*
X194544564Y-135498660D01*
X194842045Y-135796660D01*
M02*
