M48
;DRILL file {KiCad 4.0.6-e0-6349~53~ubuntu16.04.1} date Wed Jun 14 00:41:22 2017
;FORMAT={-:-/ absolute / inch / decimal}
FMAT,2
INCH,TZ
T1C0.016
T2C0.039
T3C0.040
T4C0.040
T5C0.059
T6C0.063
T7C0.125
%
G90
G05
M72
T1
X4.4803Y-3.6831
X4.5335Y-3.6831
X4.5787Y-3.6831
X4.6201Y-3.6831
X4.6614Y-3.6831
X4.7067Y-3.6831
X4.7244Y-3.8976
X4.7244Y-3.937
X4.7244Y-3.9764
X4.7244Y-4.0157
X4.7244Y-4.0551
X4.7244Y-4.0945
X4.7244Y-4.1339
X4.7244Y-4.1732
X4.7244Y-4.2126
X4.7244Y-4.252
X4.7244Y-4.2913
X4.7244Y-4.3307
X4.7343Y-4.5591
X4.7343Y-4.6043
X4.7343Y-4.6457
X4.7343Y-4.687
X4.7343Y-4.7323
X4.7343Y-4.7815
X4.7343Y-4.8228
X4.7343Y-4.8622
X4.7441Y-3.8583
X4.7441Y-4.3701
X4.75Y-3.6831
X4.7559Y-4.9016
X4.7618Y-4.5177
X4.7835Y-3.8189
X4.7835Y-4.3701
X4.7933Y-4.4862
X4.7953Y-3.6831
X4.8031Y-4.9016
X4.8228Y-3.7795
X4.8228Y-4.3701
X4.8327Y-4.4744
X4.8425Y-3.6831
X4.8465Y-4.9016
X4.8622Y-3.7795
X4.8622Y-4.3701
X4.8799Y-4.4744
X4.8898Y-3.6831
X4.8917Y-4.9016
X4.9016Y-3.7795
X4.9016Y-4.3701
X4.9252Y-4.4744
X4.9311Y-4.9016
X4.9331Y-3.6831
X4.9409Y-3.7795
X4.9409Y-4.3701
X4.9764Y-3.6831
X4.9764Y-4.4744
X4.9803Y-3.7795
X4.9803Y-4.3701
X5.002Y-4.9016
X5.0177Y-4.4744
X5.0197Y-3.7795
X5.0197Y-4.3701
X5.0236Y-3.6811
X5.0591Y-3.7795
X5.0591Y-4.3701
X5.063Y-4.4744
X5.0689Y-4.9016
X5.0728Y-3.6831
X5.0984Y-3.7795
X5.0984Y-4.3701
X5.1063Y-4.4744
X5.1161Y-3.6831
X5.1319Y-4.9016
X5.1378Y-3.7795
X5.1378Y-4.3701
X5.1555Y-4.4744
X5.1575Y-3.6831
X5.1772Y-3.7795
X5.1772Y-4.3701
X5.185Y-4.9016
X5.1988Y-3.6831
X5.1988Y-4.4744
X5.2165Y-3.7795
X5.2165Y-4.3701
X5.2362Y-5.2047
X5.2421Y-4.9016
X5.2441Y-3.6831
X5.2559Y-3.7795
X5.2559Y-4.3701
X5.2559Y-4.4744
X5.2638Y-3.189
X5.2736Y-5.3406
X5.2756Y-5.2421
X5.2795Y-5.0866
X5.2933Y-4.9016
X5.2953Y-3.7795
X5.2992Y-3.3622
X5.2992Y-3.4803
X5.3091Y-4.4744
X5.3169Y-3.685
X5.3406Y-4.9016
X5.3455Y-3.8031
X5.3563Y-4.4744
X5.3622Y-5.2441
X5.3622Y-5.3386
X5.3622Y-5.4764
X5.3642Y-4.3209
X5.3642Y-4.3701
X5.3661Y-5.0276
X5.374Y-5.1713
X5.3898Y-3.8031
X5.3937Y-4.9016
X5.3976Y-5.2205
X5.3976Y-4.4744
X5.4016Y-3.1969
X5.4213Y-3.5177
X5.4213Y-3.5571
X5.4213Y-3.6024
X5.4252Y-3.3976
X5.4291Y-5.2205
X5.4449Y-4.8622
X5.4449Y-4.9016
X5.4488Y-4.4744
X5.4528Y-3.248
X5.4547Y-4.3169
X5.4567Y-4.3642
X5.4606Y-5.2205
X5.4685Y-3.5177
X5.4685Y-3.5571
X5.4685Y-3.6024
X5.4764Y-4.0551
X5.4764Y-4.2244
X5.4783Y-3.7244
X5.4843Y-3.2165
X5.4882Y-5.0295
X5.4882Y-5.0689
X5.4882Y-5.1083
X5.4921Y-5.2224
X5.5039Y-4.3169
X5.5039Y-4.3642
X5.5138Y-3.5177
X5.5138Y-3.5571
X5.5138Y-3.6024
X5.5197Y-3.1811
X5.5236Y-5.4823
X5.5276Y-4.8622
X5.5276Y-5.0295
X5.5276Y-5.0689
X5.5276Y-5.1083
X5.5276Y-5.2205
X5.5394Y-5.4035
X5.5512Y-5.4606
X5.5535Y-3.2819
X5.5591Y-3.1417
X5.5669Y-3.7126
X5.5669Y-5.0295
X5.5669Y-5.0689
X5.5669Y-5.1083
X5.5709Y-4.811
X5.5846Y-5.3228
X5.585Y-3.2504
X5.5866Y-3.1142
X5.5906Y-3.3071
X5.6004Y-4.3012
X5.6004Y-4.3701
X5.6004Y-5.2067
X5.6004Y-5.4724
X5.6102Y-4.8307
X5.6102Y-4.8622
X5.6122Y-3.6634
X5.6122Y-3.7028
X5.6142Y-3.7362
X5.6165Y-3.2189
X5.6201Y-3.0807
X5.6201Y-3.4429
X5.6201Y-3.5039
X5.626Y-4.9754
X5.6299Y-3.3071
X5.6398Y-3.7638
X5.6516Y-3.0492
X5.6555Y-4.8189
X5.6614Y-2.3268
X5.6693Y-3.3071
X5.6693Y-5.1417
X5.685Y-3.439
X5.6909Y-2.3543
X5.6909Y-2.3898
X5.6909Y-2.4331
X5.6909Y-2.4843
X5.6909Y-2.5236
X5.6909Y-2.5591
X5.6909Y-2.5984
X5.6909Y-2.6398
X5.6909Y-2.6831
X5.6909Y-2.7185
X5.6909Y-2.7598
X5.6909Y-2.8012
X5.6909Y-2.8406
X5.6909Y-2.878
X5.6909Y-2.9193
X5.6909Y-2.9665
X5.6909Y-3.0098
X5.6929Y-3.7657
X5.7008Y-4.8937
X5.7087Y-3.3071
X5.7087Y-4.8189
X5.7126Y-5.248
X5.7264Y-3.439
X5.73Y-5.1118
X5.7402Y-3.5748
X5.7441Y-3.5315
X5.748Y-3.3071
X5.7539Y-4.8189
X5.7559Y-4.9764
X5.7579Y-5.0591
X5.7598Y-3.7638
X5.7618Y-3.439
X5.7638Y-3.622
X5.7638Y-5.5512
X5.7874Y-3.3071
X5.7874Y-5.1772
X5.7992Y-4.8189
X5.8031Y-3.622
X5.8051Y-3.4587
X5.811Y-5.6102
X5.8189Y-3.7638
X5.8268Y-3.3071
X5.8366Y-3.4902
X5.8504Y-3.622
X5.8504Y-4.8189
X5.8602Y-3.25
X5.8661Y-3.5197
X5.8819Y-3.6811
X5.8858Y-3.7638
X5.8898Y-5.7854
X5.8937Y-5.122
X5.8937Y-5.248
X5.8937Y-5.3228
X5.8957Y-3.5492
X5.8976Y-4.8189
X5.8996Y-3.622
X5.9213Y-3.5748
X5.9429Y-3.7618
X5.9449Y-3.6024
X5.9449Y-4.8189
X5.9528Y-5.378
X5.9567Y-3.6811
X5.9646Y-2.6535
X5.9646Y-2.7598
X5.9744Y-2.8996
X5.9744Y-3.1358
X5.9803Y-4.937
X5.9823Y-3.437
X5.9921Y-4.8189
X6.Y-3.7618
X6.0079Y-3.2402
X6.0079Y-3.3346
X6.0433Y-4.8189
X6.0433Y-5.3346
X6.0453Y-5.248
X6.0591Y-3.3051
X6.061Y-3.7618
X6.0807Y-4.8445
X6.0886Y-3.7913
X6.0945Y-2.6024
X6.123Y-4.1575
X6.124Y-3.8406
X6.124Y-3.8907
X6.124Y-3.935
X6.124Y-3.9793
X6.124Y-4.0207
X6.124Y-4.0699
X6.124Y-4.1142
X6.124Y-4.5187
X6.125Y-4.2008
X6.125Y-4.2461
X6.125Y-4.2923
X6.125Y-4.3386
X6.125Y-4.3848
X6.125Y-4.4321
X6.125Y-4.4754
X6.125Y-4.561
X6.125Y-4.6083
X6.125Y-4.6555
X6.125Y-4.6988
X6.125Y-4.7382
X6.125Y-4.7835
X6.125Y-4.8268
X6.125Y-4.8789
X6.1358Y-3.5709
X6.1713Y-4.9409
X6.1772Y-3.4528
X6.2126Y-3.0118
X6.2303Y-5.5
X6.2756Y-3.6811
X6.2972Y-5.7854
X6.313Y-3.5945
X6.3386Y-3.6811
X6.3602Y-4.4921
X6.3622Y-5.0413
X6.3622Y-5.3386
X6.3701Y-3.4587
X6.374Y-5.5039
X6.3937Y-3.748
X6.4646Y-5.3898
X6.4921Y-2.6024
X6.4941Y-5.6929
X6.5Y-5.1811
X6.5295Y-3.6201
X6.5335Y-3.748
X6.5394Y-5.2953
X6.563Y-4.1693
X6.563Y-4.4094
X6.563Y-5.7874
X6.5827Y-5.5079
X6.6024Y-3.7953
X6.7008Y-5.1299
X6.7008Y-5.2461
X6.7087Y-4.5354
X6.7205Y-3.4449
X6.7461Y-5.6752
X6.7756Y-5.122
X6.7756Y-5.248
X6.7835Y-3.4449
X6.8346Y-3.8031
X6.8346Y-4.0591
X6.8583Y-3.4449
X6.8622Y-5.5276
X6.8878Y-5.1181
X6.8898Y-5.2441
X6.9134Y-3.4449
X6.9843Y-4.5394
X6.9921Y-3.752
X6.9921Y-5.5276
X7.0059Y-5.7874
X7.0906Y-4.1772
X7.0906Y-4.4016
X7.1654Y-5.5551
X7.1811Y-5.4409
X7.2323Y-5.3661
X7.2795Y-5.5157
X7.4961Y-5.5256
T2
X5.3276Y-5.6232
X5.3276Y-5.7232
X5.4276Y-5.6232
X5.4276Y-5.7232
X5.5276Y-5.6232
X5.5276Y-5.7232
X5.6276Y-5.6232
X5.6276Y-5.7232
X5.7276Y-5.6232
X5.7276Y-5.7232
T3
X5.9079Y-2.4803
X6.0079Y-2.4803
X6.1079Y-2.4803
X6.2031Y-5.685
X6.3031Y-5.685
X6.4031Y-5.685
X6.5102Y-2.4803
X6.6102Y-2.4803
X6.7102Y-2.4803
T4
X7.7043Y-2.4965
X7.7043Y-2.5965
X7.7043Y-2.6965
X7.7043Y-2.7965
X7.7043Y-2.8965
X7.7043Y-2.9965
X7.7043Y-3.0965
X7.7043Y-3.1965
X7.7043Y-3.2965
X7.7043Y-3.3965
X7.7043Y-3.4965
X7.7043Y-3.5965
X7.7043Y-3.6965
X7.7043Y-3.7965
X7.7043Y-3.8965
X7.7043Y-3.9965
X7.7043Y-4.0965
X7.7043Y-4.1965
X7.7043Y-4.2965
X7.7043Y-4.3965
X7.7043Y-4.4965
X7.7043Y-4.5965
X7.7043Y-4.6965
X7.7043Y-4.7965
X7.7043Y-4.8965
X7.7043Y-4.9965
X7.7043Y-5.0965
X7.7043Y-5.1965
X7.7043Y-5.2965
X7.7043Y-5.3965
X7.7043Y-5.4965
X7.7043Y-5.5965
X7.8043Y-2.4965
X7.8043Y-2.5965
X7.8043Y-2.6965
X7.8043Y-2.7965
X7.8043Y-2.8965
X7.8043Y-2.9965
X7.8043Y-3.0965
X7.8043Y-3.1965
X7.8043Y-3.2965
X7.8043Y-3.3965
X7.8043Y-3.4965
X7.8043Y-3.5965
X7.8043Y-3.6965
X7.8043Y-3.7965
X7.8043Y-3.8965
X7.8043Y-3.9965
X7.8043Y-4.0965
X7.8043Y-4.1965
X7.8043Y-4.2965
X7.8043Y-4.3965
X7.8043Y-4.4965
X7.8043Y-4.5965
X7.8043Y-4.6965
X7.8043Y-4.7965
X7.8043Y-4.8965
X7.8043Y-4.9965
X7.8043Y-5.0965
X7.8043Y-5.1965
X7.8043Y-5.2965
X7.8043Y-5.3965
X7.8043Y-5.4965
X7.8043Y-5.5965
T5
X4.9606Y-4.0551
X4.9606Y-4.6693
X5.3465Y-2.7559
X5.9252Y-4.0551
T6
X4.8606Y-3.9551
X4.8606Y-4.1551
X4.8606Y-4.5693
X4.8606Y-4.7693
X5.0606Y-3.9551
X5.0606Y-4.1551
X5.0606Y-4.5693
X5.0606Y-4.7693
X5.2465Y-2.6559
X5.2465Y-2.8559
X5.4465Y-2.6559
X5.4465Y-2.8559
X5.8252Y-3.9551
X5.8252Y-4.1551
X6.0252Y-3.9551
X6.0252Y-4.1551
T7
X4.6291Y-2.5965
X4.6291Y-5.4965
X8.0043Y-2.4965
X8.0043Y-5.6465
T0
M30
