%FSLAX45Y45*%
G04 Gerber Fmt 4.5, Leading zero omitted, Abs format (unit mm)*
G04 Created by KiCad (PCBNEW 4.0.5) date 06/11/18 22:11:35*
%MOMM*%
%LPD*%
G01*
G04 APERTURE LIST*
%ADD10C,0.127000*%
%ADD11C,0.100000*%
%ADD12C,0.200000*%
%ADD13C,0.300000*%
G04 APERTURE END LIST*
D10*
D11*
X20839000Y-14850000D02*
X20839000Y-5833000D01*
X11250000Y-14850000D02*
X11250000Y-5833000D01*
X11250000Y-5833000D02*
X20839000Y-5833000D01*
X11250000Y-14850000D02*
X20839000Y-14850000D01*
D12*
X11291000Y-12135000D02*
X11331000Y-12175000D01*
X11331000Y-12135000D02*
X11291000Y-12175000D01*
X11330000Y-10680000D02*
X11370000Y-10720000D01*
X11370000Y-10680000D02*
X11330000Y-10720000D01*
X11330000Y-10830000D02*
X11370000Y-10870000D01*
X11370000Y-10830000D02*
X11330000Y-10870000D01*
X11330000Y-10955000D02*
X11370000Y-10995000D01*
X11370000Y-10955000D02*
X11330000Y-10995000D01*
X11330000Y-11055000D02*
X11370000Y-11095000D01*
X11370000Y-11055000D02*
X11330000Y-11095000D01*
X11330000Y-11155000D02*
X11370000Y-11195000D01*
X11370000Y-11155000D02*
X11330000Y-11195000D01*
X11330000Y-11305000D02*
X11370000Y-11345000D01*
X11370000Y-11305000D02*
X11330000Y-11345000D01*
X11330000Y-11430000D02*
X11370000Y-11470000D01*
X11370000Y-11430000D02*
X11330000Y-11470000D01*
X11330000Y-11555000D02*
X11370000Y-11595000D01*
X11370000Y-11555000D02*
X11330000Y-11595000D01*
X11330000Y-11705000D02*
X11370000Y-11745000D01*
X11370000Y-11705000D02*
X11330000Y-11745000D01*
X11330000Y-11855000D02*
X11370000Y-11895000D01*
X11370000Y-11855000D02*
X11330000Y-11895000D01*
X11330000Y-12005000D02*
X11370000Y-12045000D01*
X11370000Y-12005000D02*
X11330000Y-12045000D01*
X11330000Y-12630000D02*
X11370000Y-12670000D01*
X11370000Y-12630000D02*
X11330000Y-12670000D01*
X11370465Y-12146000D02*
X11410465Y-12186000D01*
X11410465Y-12146000D02*
X11370465Y-12186000D01*
X11380000Y-10605000D02*
X11420000Y-10645000D01*
X11420000Y-10605000D02*
X11380000Y-10645000D01*
X11391001Y-12305000D02*
X11431001Y-12345000D01*
X11431001Y-12305000D02*
X11391001Y-12345000D01*
X11391001Y-12410721D02*
X11431001Y-12450721D01*
X11431001Y-12410721D02*
X11391001Y-12450721D01*
X11404000Y-7758500D02*
X11444000Y-7798500D01*
X11444000Y-7758500D02*
X11404000Y-7798500D01*
X11404000Y-8356000D02*
X11444000Y-8396000D01*
X11444000Y-8356000D02*
X11404000Y-8396000D01*
X11404000Y-8956000D02*
X11444000Y-8996000D01*
X11444000Y-8956000D02*
X11404000Y-8996000D01*
X11404000Y-9556000D02*
X11444000Y-9596000D01*
X11444000Y-9556000D02*
X11404000Y-9596000D01*
X11405000Y-8030000D02*
X11445000Y-8070000D01*
X11445000Y-8030000D02*
X11405000Y-8070000D01*
X11405000Y-8205000D02*
X11445000Y-8245000D01*
X11445000Y-8205000D02*
X11405000Y-8245000D01*
X11405000Y-8530000D02*
X11445000Y-8570000D01*
X11445000Y-8530000D02*
X11405000Y-8570000D01*
X11405000Y-8655000D02*
X11445000Y-8695000D01*
X11445000Y-8655000D02*
X11405000Y-8695000D01*
X11405000Y-8805000D02*
X11445000Y-8845000D01*
X11445000Y-8805000D02*
X11405000Y-8845000D01*
X11405000Y-9105000D02*
X11445000Y-9145000D01*
X11445000Y-9105000D02*
X11405000Y-9145000D01*
X11405000Y-9255000D02*
X11445000Y-9295000D01*
X11445000Y-9255000D02*
X11405000Y-9295000D01*
X11405000Y-9405000D02*
X11445000Y-9445000D01*
X11445000Y-9405000D02*
X11405000Y-9445000D01*
X11405000Y-9755000D02*
X11445000Y-9795000D01*
X11445000Y-9755000D02*
X11405000Y-9795000D01*
X11405000Y-9905000D02*
X11445000Y-9945000D01*
X11445000Y-9905000D02*
X11405000Y-9945000D01*
X11455000Y-10530000D02*
X11495000Y-10570000D01*
X11495000Y-10530000D02*
X11455000Y-10570000D01*
X11455000Y-12730000D02*
X11495000Y-12770000D01*
X11495000Y-12730000D02*
X11455000Y-12770000D01*
X11506500Y-7656000D02*
X11546500Y-7696000D01*
X11546500Y-7656000D02*
X11506500Y-7696000D01*
X11555000Y-8580000D02*
X11595000Y-8620000D01*
X11595000Y-8580000D02*
X11555000Y-8620000D01*
X11555000Y-8705000D02*
X11595000Y-8745000D01*
X11595000Y-8705000D02*
X11555000Y-8745000D01*
X11555000Y-8830000D02*
X11595000Y-8870000D01*
X11595000Y-8830000D02*
X11555000Y-8870000D01*
X11555000Y-8955000D02*
X11595000Y-8995000D01*
X11595000Y-8955000D02*
X11555000Y-8995000D01*
X11555000Y-9130000D02*
X11595000Y-9170000D01*
X11595000Y-9130000D02*
X11555000Y-9170000D01*
X11555000Y-9305000D02*
X11595000Y-9345000D01*
X11595000Y-9305000D02*
X11555000Y-9345000D01*
X11555000Y-9480000D02*
X11595000Y-9520000D01*
X11595000Y-9480000D02*
X11555000Y-9520000D01*
X11555000Y-9630000D02*
X11595000Y-9670000D01*
X11595000Y-9630000D02*
X11555000Y-9670000D01*
X11555000Y-9755000D02*
X11595000Y-9795000D01*
X11595000Y-9755000D02*
X11555000Y-9795000D01*
X11555000Y-9930000D02*
X11595000Y-9970000D01*
X11595000Y-9930000D02*
X11555000Y-9970000D01*
X11555000Y-10080000D02*
X11595000Y-10120000D01*
X11595000Y-10080000D02*
X11555000Y-10120000D01*
X11555000Y-10305000D02*
X11595000Y-10345000D01*
X11595000Y-10305000D02*
X11555000Y-10345000D01*
X11555000Y-10430000D02*
X11595000Y-10470000D01*
X11595000Y-10430000D02*
X11555000Y-10470000D01*
X11579073Y-12830926D02*
X11619073Y-12870926D01*
X11619073Y-12830926D02*
X11579073Y-12870926D01*
X11605000Y-8455000D02*
X11645000Y-8495000D01*
X11645000Y-8455000D02*
X11605000Y-8495000D01*
X11654073Y-12905926D02*
X11694073Y-12945926D01*
X11694073Y-12905926D02*
X11654073Y-12945926D01*
X11680000Y-7655000D02*
X11720000Y-7695000D01*
X11720000Y-7655000D02*
X11680000Y-7695000D01*
X11705000Y-8355000D02*
X11745000Y-8395000D01*
X11745000Y-8355000D02*
X11705000Y-8395000D01*
X11705000Y-10980000D02*
X11745000Y-11020000D01*
X11745000Y-10980000D02*
X11705000Y-11020000D01*
X11705000Y-11155000D02*
X11745000Y-11195000D01*
X11745000Y-11155000D02*
X11705000Y-11195000D01*
X11705000Y-11355000D02*
X11745000Y-11395000D01*
X11745000Y-11355000D02*
X11705000Y-11395000D01*
X11830000Y-10830000D02*
X11870000Y-10870000D01*
X11870000Y-10830000D02*
X11830000Y-10870000D01*
X11880000Y-8355000D02*
X11920000Y-8395000D01*
X11920000Y-8355000D02*
X11880000Y-8395000D01*
X11930000Y-7655000D02*
X11970000Y-7695000D01*
X11970000Y-7655000D02*
X11930000Y-7695000D01*
X11930000Y-11355000D02*
X11970000Y-11395000D01*
X11970000Y-11355000D02*
X11930000Y-11395000D01*
X11930000Y-11705000D02*
X11970000Y-11745000D01*
X11970000Y-11705000D02*
X11930000Y-11745000D01*
X11980000Y-12905000D02*
X12020000Y-12945000D01*
X12020000Y-12905000D02*
X11980000Y-12945000D01*
X12005000Y-8355000D02*
X12045000Y-8395000D01*
X12045000Y-8355000D02*
X12005000Y-8395000D01*
X12005000Y-9855000D02*
X12045000Y-9895000D01*
X12045000Y-9855000D02*
X12005000Y-9895000D01*
X12005000Y-9980000D02*
X12045000Y-10020000D01*
X12045000Y-9980000D02*
X12005000Y-10020000D01*
X12005000Y-10080000D02*
X12045000Y-10120000D01*
X12045000Y-10080000D02*
X12005000Y-10120000D01*
X12005000Y-10255000D02*
X12045000Y-10295000D01*
X12045000Y-10255000D02*
X12005000Y-10295000D01*
X12005000Y-10380000D02*
X12045000Y-10420000D01*
X12045000Y-10380000D02*
X12005000Y-10420000D01*
X12005000Y-10505000D02*
X12045000Y-10545000D01*
X12045000Y-10505000D02*
X12005000Y-10545000D01*
X12005000Y-10655000D02*
X12045000Y-10695000D01*
X12045000Y-10655000D02*
X12005000Y-10695000D01*
X12030000Y-11705000D02*
X12070000Y-11745000D01*
X12070000Y-11705000D02*
X12030000Y-11745000D01*
X12030000Y-12555000D02*
X12070000Y-12595000D01*
X12070000Y-12555000D02*
X12030000Y-12595000D01*
X12080000Y-8705000D02*
X12120000Y-8745000D01*
X12120000Y-8705000D02*
X12080000Y-8745000D01*
X12080000Y-9305000D02*
X12120000Y-9345000D01*
X12120000Y-9305000D02*
X12080000Y-9345000D01*
X12094000Y-7656000D02*
X12134000Y-7696000D01*
X12134000Y-7656000D02*
X12094000Y-7696000D01*
X12094000Y-10176000D02*
X12134000Y-10216000D01*
X12134000Y-10176000D02*
X12094000Y-10216000D01*
X12130000Y-11355000D02*
X12170000Y-11395000D01*
X12170000Y-11355000D02*
X12130000Y-11395000D01*
X12180000Y-8355000D02*
X12220000Y-8395000D01*
X12220000Y-8355000D02*
X12180000Y-8395000D01*
X12180000Y-11705000D02*
X12220000Y-11745000D01*
X12220000Y-11705000D02*
X12180000Y-11745000D01*
X12230000Y-9955000D02*
X12270000Y-9995000D01*
X12270000Y-9955000D02*
X12230000Y-9995000D01*
X12230000Y-12555000D02*
X12270000Y-12595000D01*
X12270000Y-12555000D02*
X12230000Y-12595000D01*
X12230000Y-12905000D02*
X12270000Y-12945000D01*
X12270000Y-12905000D02*
X12230000Y-12945000D01*
X12255000Y-7655000D02*
X12295000Y-7695000D01*
X12295000Y-7655000D02*
X12255000Y-7695000D01*
X12280000Y-10180000D02*
X12320000Y-10220000D01*
X12320000Y-10180000D02*
X12280000Y-10220000D01*
X12305000Y-11355000D02*
X12345000Y-11395000D01*
X12345000Y-11355000D02*
X12305000Y-11395000D01*
X12355000Y-8355000D02*
X12395000Y-8395000D01*
X12395000Y-8355000D02*
X12355000Y-8395000D01*
X12355000Y-13705000D02*
X12395000Y-13745000D01*
X12395000Y-13705000D02*
X12355000Y-13745000D01*
X12380000Y-11705000D02*
X12420000Y-11745000D01*
X12420000Y-11705000D02*
X12380000Y-11745000D01*
X12430000Y-9330000D02*
X12470000Y-9370000D01*
X12470000Y-9330000D02*
X12430000Y-9370000D01*
X12430000Y-9430000D02*
X12470000Y-9470000D01*
X12470000Y-9430000D02*
X12430000Y-9470000D01*
X12430000Y-9630000D02*
X12470000Y-9670000D01*
X12470000Y-9630000D02*
X12430000Y-9670000D01*
X12430000Y-9730000D02*
X12470000Y-9770000D01*
X12470000Y-9730000D02*
X12430000Y-9770000D01*
X12430000Y-9855000D02*
X12470000Y-9895000D01*
X12470000Y-9855000D02*
X12430000Y-9895000D01*
X12455000Y-12905000D02*
X12495000Y-12945000D01*
X12495000Y-12905000D02*
X12455000Y-12945000D01*
X12478500Y-9528500D02*
X12518500Y-9568500D01*
X12518500Y-9528500D02*
X12478500Y-9568500D01*
X12480000Y-7655000D02*
X12520000Y-7695000D01*
X12520000Y-7655000D02*
X12480000Y-7695000D01*
X12480000Y-13705000D02*
X12520000Y-13745000D01*
X12520000Y-13705000D02*
X12480000Y-13745000D01*
X12505000Y-10180000D02*
X12545000Y-10220000D01*
X12545000Y-10180000D02*
X12505000Y-10220000D01*
X12530000Y-11705000D02*
X12570000Y-11745000D01*
X12570000Y-11705000D02*
X12530000Y-11745000D01*
X12555000Y-8355000D02*
X12595000Y-8395000D01*
X12595000Y-8355000D02*
X12555000Y-8395000D01*
X12555000Y-11355000D02*
X12595000Y-11395000D01*
X12595000Y-11355000D02*
X12555000Y-11395000D01*
X12580000Y-9230000D02*
X12620000Y-9270000D01*
X12620000Y-9230000D02*
X12580000Y-9270000D01*
X12580000Y-12380000D02*
X12620000Y-12420000D01*
X12620000Y-12380000D02*
X12580000Y-12420000D01*
X12608591Y-13114012D02*
X12648591Y-13154012D01*
X12648591Y-13114012D02*
X12608591Y-13154012D01*
X12609438Y-13273998D02*
X12649438Y-13313998D01*
X12649438Y-13273998D02*
X12609438Y-13313998D01*
X12610000Y-13194000D02*
X12650000Y-13234000D01*
X12650000Y-13194000D02*
X12610000Y-13234000D01*
X12680000Y-8355000D02*
X12720000Y-8395000D01*
X12720000Y-8355000D02*
X12680000Y-8395000D01*
X12680000Y-12905000D02*
X12720000Y-12945000D01*
X12720000Y-12905000D02*
X12680000Y-12945000D01*
X12694000Y-7656000D02*
X12734000Y-7696000D01*
X12734000Y-7656000D02*
X12694000Y-7696000D01*
X12694000Y-10176000D02*
X12734000Y-10216000D01*
X12734000Y-10176000D02*
X12694000Y-10216000D01*
X12705000Y-11705000D02*
X12745000Y-11745000D01*
X12745000Y-11705000D02*
X12705000Y-11745000D01*
X12780000Y-12380000D02*
X12820000Y-12420000D01*
X12820000Y-12380000D02*
X12780000Y-12420000D01*
X12780000Y-12830000D02*
X12820000Y-12870000D01*
X12820000Y-12830000D02*
X12780000Y-12870000D01*
X12805000Y-11355000D02*
X12845000Y-11395000D01*
X12845000Y-11355000D02*
X12805000Y-11395000D01*
X12855000Y-12755000D02*
X12895000Y-12795000D01*
X12895000Y-12755000D02*
X12855000Y-12795000D01*
X12880000Y-7655000D02*
X12920000Y-7695000D01*
X12920000Y-7655000D02*
X12880000Y-7695000D01*
X12880000Y-8355000D02*
X12920000Y-8395000D01*
X12920000Y-8355000D02*
X12880000Y-8395000D01*
X12880000Y-11705000D02*
X12920000Y-11745000D01*
X12920000Y-11705000D02*
X12880000Y-11745000D01*
X12886000Y-13325000D02*
X12926000Y-13365000D01*
X12926000Y-13325000D02*
X12886000Y-13365000D01*
X12904000Y-7952000D02*
X12944000Y-7992000D01*
X12944000Y-7952000D02*
X12904000Y-7992000D01*
X12955000Y-8855000D02*
X12995000Y-8895000D01*
X12995000Y-8855000D02*
X12955000Y-8895000D01*
X12955000Y-10180000D02*
X12995000Y-10220000D01*
X12995000Y-10180000D02*
X12955000Y-10220000D01*
X12955000Y-12380000D02*
X12995000Y-12420000D01*
X12995000Y-12380000D02*
X12955000Y-12420000D01*
X12980000Y-9155000D02*
X13020000Y-9195000D01*
X13020000Y-9155000D02*
X12980000Y-9195000D01*
X12980000Y-9530000D02*
X13020000Y-9570000D01*
X13020000Y-9530000D02*
X12980000Y-9570000D01*
X13005000Y-8355000D02*
X13045000Y-8395000D01*
X13045000Y-8355000D02*
X13005000Y-8395000D01*
X13005000Y-12755000D02*
X13045000Y-12795000D01*
X13045000Y-12755000D02*
X13005000Y-12795000D01*
X13030000Y-8955000D02*
X13070000Y-8995000D01*
X13070000Y-8955000D02*
X13030000Y-8995000D01*
X13030000Y-11355000D02*
X13070000Y-11395000D01*
X13070000Y-11355000D02*
X13030000Y-11395000D01*
X13039000Y-13389000D02*
X13079000Y-13429000D01*
X13079000Y-13389000D02*
X13039000Y-13429000D01*
X13055000Y-11705000D02*
X13095000Y-11745000D01*
X13095000Y-11705000D02*
X13055000Y-11745000D01*
X13105000Y-7655000D02*
X13145000Y-7695000D01*
X13145000Y-7655000D02*
X13105000Y-7695000D01*
X13118000Y-7880000D02*
X13158000Y-7920000D01*
X13158000Y-7880000D02*
X13118000Y-7920000D01*
X13130000Y-12380000D02*
X13170000Y-12420000D01*
X13170000Y-12380000D02*
X13130000Y-12420000D01*
X13152000Y-8958000D02*
X13192000Y-8998000D01*
X13192000Y-8958000D02*
X13152000Y-8998000D01*
X13155000Y-8355000D02*
X13195000Y-8395000D01*
X13195000Y-8355000D02*
X13155000Y-8395000D01*
X13205000Y-12247000D02*
X13245000Y-12287000D01*
X13245000Y-12247000D02*
X13205000Y-12287000D01*
X13205000Y-12844500D02*
X13245000Y-12884500D01*
X13245000Y-12844500D02*
X13205000Y-12884500D01*
X13205000Y-13030000D02*
X13245000Y-13070000D01*
X13245000Y-13030000D02*
X13205000Y-13070000D01*
X13205000Y-13255000D02*
X13245000Y-13295000D01*
X13245000Y-13255000D02*
X13205000Y-13295000D01*
X13205000Y-13444500D02*
X13245000Y-13484500D01*
X13245000Y-13444500D02*
X13205000Y-13484500D01*
X13205000Y-13755000D02*
X13245000Y-13795000D01*
X13245000Y-13755000D02*
X13205000Y-13795000D01*
X13205000Y-13880000D02*
X13245000Y-13920000D01*
X13245000Y-13880000D02*
X13205000Y-13920000D01*
X13205000Y-14044500D02*
X13245000Y-14084500D01*
X13245000Y-14044500D02*
X13205000Y-14084500D01*
X13205000Y-14230000D02*
X13245000Y-14270000D01*
X13245000Y-14230000D02*
X13205000Y-14270000D01*
X13205000Y-14380000D02*
X13245000Y-14420000D01*
X13245000Y-14380000D02*
X13205000Y-14420000D01*
X13205000Y-14562000D02*
X13245000Y-14602000D01*
X13245000Y-14562000D02*
X13205000Y-14602000D01*
X13230000Y-8230000D02*
X13270000Y-8270000D01*
X13270000Y-8230000D02*
X13230000Y-8270000D01*
X13255000Y-8305000D02*
X13295000Y-8345000D01*
X13295000Y-8305000D02*
X13255000Y-8345000D01*
X13280000Y-8155000D02*
X13320000Y-8195000D01*
X13320000Y-8155000D02*
X13280000Y-8195000D01*
X13280000Y-12805000D02*
X13320000Y-12845000D01*
X13320000Y-12805000D02*
X13280000Y-12845000D01*
X13280000Y-12930000D02*
X13320000Y-12970000D01*
X13320000Y-12930000D02*
X13280000Y-12970000D01*
X13280000Y-13055000D02*
X13320000Y-13095000D01*
X13320000Y-13055000D02*
X13280000Y-13095000D01*
X13294000Y-7656000D02*
X13334000Y-7696000D01*
X13334000Y-7656000D02*
X13294000Y-7696000D01*
X13294000Y-10176000D02*
X13334000Y-10216000D01*
X13334000Y-10176000D02*
X13294000Y-10216000D01*
X13305000Y-8230000D02*
X13345000Y-8270000D01*
X13345000Y-8230000D02*
X13305000Y-8270000D01*
X13307500Y-12144500D02*
X13347500Y-12184500D01*
X13347500Y-12144500D02*
X13307500Y-12184500D01*
X13307500Y-14664500D02*
X13347500Y-14704500D01*
X13347500Y-14664500D02*
X13307500Y-14704500D01*
X13330000Y-12380000D02*
X13370000Y-12420000D01*
X13370000Y-12380000D02*
X13330000Y-12420000D01*
X13355000Y-8305000D02*
X13395000Y-8345000D01*
X13395000Y-8305000D02*
X13355000Y-8345000D01*
X13355000Y-9155000D02*
X13395000Y-9195000D01*
X13395000Y-9155000D02*
X13355000Y-9195000D01*
X13360500Y-8506500D02*
X13400500Y-8546500D01*
X13400500Y-8506500D02*
X13360500Y-8546500D01*
X13360500Y-8651500D02*
X13400500Y-8691500D01*
X13400500Y-8651500D02*
X13360500Y-8691500D01*
X13362000Y-8868000D02*
X13402000Y-8908000D01*
X13402000Y-8868000D02*
X13362000Y-8908000D01*
X13380000Y-8155000D02*
X13420000Y-8195000D01*
X13420000Y-8155000D02*
X13380000Y-8195000D01*
X13380000Y-10780000D02*
X13420000Y-10820000D01*
X13420000Y-10780000D02*
X13380000Y-10820000D01*
X13380000Y-13180000D02*
X13420000Y-13220000D01*
X13420000Y-13180000D02*
X13380000Y-13220000D01*
X13405000Y-7280000D02*
X13445000Y-7320000D01*
X13445000Y-7280000D02*
X13405000Y-7320000D01*
X13405000Y-8230000D02*
X13445000Y-8270000D01*
X13445000Y-8230000D02*
X13405000Y-8270000D01*
X13405000Y-11355000D02*
X13445000Y-11395000D01*
X13445000Y-11355000D02*
X13405000Y-11395000D01*
X13433000Y-8579000D02*
X13473000Y-8619000D01*
X13473000Y-8579000D02*
X13433000Y-8619000D01*
X13455000Y-8155000D02*
X13495000Y-8195000D01*
X13495000Y-8155000D02*
X13455000Y-8195000D01*
X13455000Y-8305000D02*
X13495000Y-8345000D01*
X13495000Y-8305000D02*
X13455000Y-8345000D01*
X13455000Y-10180000D02*
X13495000Y-10220000D01*
X13495000Y-10180000D02*
X13455000Y-10220000D01*
X13455000Y-13255000D02*
X13495000Y-13295000D01*
X13495000Y-13255000D02*
X13455000Y-13295000D01*
X13480000Y-8230000D02*
X13520000Y-8270000D01*
X13520000Y-8230000D02*
X13480000Y-8270000D01*
X13505000Y-7280000D02*
X13545000Y-7320000D01*
X13545000Y-7280000D02*
X13505000Y-7320000D01*
X13505000Y-14655000D02*
X13545000Y-14695000D01*
X13545000Y-14655000D02*
X13505000Y-14695000D01*
X13505500Y-8506500D02*
X13545500Y-8546500D01*
X13545500Y-8506500D02*
X13505500Y-8546500D01*
X13505500Y-8651500D02*
X13545500Y-8691500D01*
X13545500Y-8651500D02*
X13505500Y-8691500D01*
X13530000Y-8305000D02*
X13570000Y-8345000D01*
X13570000Y-8305000D02*
X13530000Y-8345000D01*
X13530000Y-12380000D02*
X13570000Y-12420000D01*
X13570000Y-12380000D02*
X13530000Y-12420000D01*
X13554644Y-8155355D02*
X13594644Y-8195355D01*
X13594644Y-8155355D02*
X13554644Y-8195355D01*
X13555000Y-11705000D02*
X13595000Y-11745000D01*
X13595000Y-11705000D02*
X13555000Y-11745000D01*
X13580000Y-7655000D02*
X13620000Y-7695000D01*
X13620000Y-7655000D02*
X13580000Y-7695000D01*
X13580000Y-8230000D02*
X13620000Y-8270000D01*
X13620000Y-8230000D02*
X13580000Y-8270000D01*
X13587000Y-9275000D02*
X13627000Y-9315000D01*
X13627000Y-9275000D02*
X13587000Y-9315000D01*
X13605000Y-12155000D02*
X13645000Y-12195000D01*
X13645000Y-12155000D02*
X13605000Y-12195000D01*
X13610000Y-9078000D02*
X13650000Y-9118000D01*
X13650000Y-9078000D02*
X13610000Y-9118000D01*
X13630000Y-7205000D02*
X13670000Y-7245000D01*
X13670000Y-7205000D02*
X13630000Y-7245000D01*
X13630000Y-8305000D02*
X13670000Y-8345000D01*
X13670000Y-8305000D02*
X13630000Y-8345000D01*
X13630000Y-8830000D02*
X13670000Y-8870000D01*
X13670000Y-8830000D02*
X13630000Y-8870000D01*
X13630000Y-12855000D02*
X13670000Y-12895000D01*
X13670000Y-12855000D02*
X13630000Y-12895000D01*
X13630000Y-13255000D02*
X13670000Y-13295000D01*
X13670000Y-13255000D02*
X13630000Y-13295000D01*
X13655000Y-8170000D02*
X13695000Y-8210000D01*
X13695000Y-8170000D02*
X13655000Y-8210000D01*
X13730000Y-14655000D02*
X13770000Y-14695000D01*
X13770000Y-14655000D02*
X13730000Y-14695000D01*
X13755000Y-7205000D02*
X13795000Y-7245000D01*
X13795000Y-7205000D02*
X13755000Y-7245000D01*
X13755000Y-12855000D02*
X13795000Y-12895000D01*
X13795000Y-12855000D02*
X13755000Y-12895000D01*
X13755000Y-13255000D02*
X13795000Y-13295000D01*
X13795000Y-13255000D02*
X13755000Y-13295000D01*
X13780000Y-11355000D02*
X13820000Y-11395000D01*
X13820000Y-11355000D02*
X13780000Y-11395000D01*
X13805000Y-12380000D02*
X13845000Y-12420000D01*
X13845000Y-12380000D02*
X13805000Y-12420000D01*
X13830000Y-8105000D02*
X13870000Y-8145000D01*
X13870000Y-8105000D02*
X13830000Y-8145000D01*
X13833000Y-9132000D02*
X13873000Y-9172000D01*
X13873000Y-9132000D02*
X13833000Y-9172000D01*
X13880000Y-7205000D02*
X13920000Y-7245000D01*
X13920000Y-7205000D02*
X13880000Y-7245000D01*
X13880000Y-12855000D02*
X13920000Y-12895000D01*
X13920000Y-12855000D02*
X13880000Y-12895000D01*
X13880000Y-13236000D02*
X13920000Y-13276000D01*
X13920000Y-13236000D02*
X13880000Y-13276000D01*
X13880000Y-13764000D02*
X13920000Y-13804000D01*
X13920000Y-13764000D02*
X13880000Y-13804000D01*
X13894000Y-7656000D02*
X13934000Y-7696000D01*
X13934000Y-7656000D02*
X13894000Y-7696000D01*
X13894000Y-10176000D02*
X13934000Y-10216000D01*
X13934000Y-10176000D02*
X13894000Y-10216000D01*
X13895000Y-12144500D02*
X13935000Y-12184500D01*
X13935000Y-12144500D02*
X13895000Y-12184500D01*
X13905000Y-9580000D02*
X13945000Y-9620000D01*
X13945000Y-9580000D02*
X13905000Y-9620000D01*
X13905000Y-14605000D02*
X13945000Y-14645000D01*
X13945000Y-14605000D02*
X13905000Y-14645000D01*
X13930000Y-8755000D02*
X13970000Y-8795000D01*
X13970000Y-8755000D02*
X13930000Y-8795000D01*
X13955000Y-8680000D02*
X13995000Y-8720000D01*
X13995000Y-8680000D02*
X13955000Y-8720000D01*
X13980000Y-8105000D02*
X14020000Y-8145000D01*
X14020000Y-8105000D02*
X13980000Y-8145000D01*
X14005000Y-7180000D02*
X14045000Y-7220000D01*
X14045000Y-7180000D02*
X14005000Y-7220000D01*
X14005000Y-11355000D02*
X14045000Y-11395000D01*
X14045000Y-11355000D02*
X14005000Y-11395000D01*
X14005000Y-12380000D02*
X14045000Y-12420000D01*
X14045000Y-12380000D02*
X14005000Y-12420000D01*
X14020000Y-9035000D02*
X14060000Y-9075000D01*
X14060000Y-9035000D02*
X14020000Y-9075000D01*
X14030000Y-8005000D02*
X14070000Y-8045000D01*
X14070000Y-8005000D02*
X14030000Y-8045000D01*
X14030000Y-9205000D02*
X14070000Y-9245000D01*
X14070000Y-9205000D02*
X14030000Y-9245000D01*
X14055000Y-7655000D02*
X14095000Y-7695000D01*
X14095000Y-7655000D02*
X14055000Y-7695000D01*
X14078337Y-11256663D02*
X14118337Y-11296663D01*
X14118337Y-11256663D02*
X14078337Y-11296663D01*
X14080000Y-7855000D02*
X14120000Y-7895000D01*
X14120000Y-7855000D02*
X14080000Y-7895000D01*
X14080000Y-10830000D02*
X14120000Y-10870000D01*
X14120000Y-10830000D02*
X14080000Y-10870000D01*
X14080000Y-14630000D02*
X14120000Y-14670000D01*
X14120000Y-14630000D02*
X14080000Y-14670000D01*
X14105000Y-12480000D02*
X14145000Y-12520000D01*
X14145000Y-12480000D02*
X14105000Y-12520000D01*
X14105000Y-12630000D02*
X14145000Y-12670000D01*
X14145000Y-12630000D02*
X14105000Y-12670000D01*
X14130000Y-7205000D02*
X14170000Y-7245000D01*
X14170000Y-7205000D02*
X14130000Y-7245000D01*
X14130000Y-8080000D02*
X14170000Y-8120000D01*
X14170000Y-8080000D02*
X14130000Y-8120000D01*
X14155000Y-7930000D02*
X14195000Y-7970000D01*
X14195000Y-7930000D02*
X14155000Y-7970000D01*
X14155000Y-11705000D02*
X14195000Y-11745000D01*
X14195000Y-11705000D02*
X14155000Y-11745000D01*
X14180000Y-7755000D02*
X14220000Y-7795000D01*
X14220000Y-7755000D02*
X14180000Y-7795000D01*
X14180000Y-10755000D02*
X14220000Y-10795000D01*
X14220000Y-10755000D02*
X14180000Y-10795000D01*
X14200000Y-9308000D02*
X14240000Y-9348000D01*
X14240000Y-9308000D02*
X14200000Y-9348000D01*
X14200000Y-9498000D02*
X14240000Y-9538000D01*
X14240000Y-9498000D02*
X14200000Y-9538000D01*
X14205000Y-10180000D02*
X14245000Y-10220000D01*
X14245000Y-10180000D02*
X14205000Y-10220000D01*
X14205000Y-12155000D02*
X14245000Y-12195000D01*
X14245000Y-12155000D02*
X14205000Y-12195000D01*
X14230000Y-12855000D02*
X14270000Y-12895000D01*
X14270000Y-12855000D02*
X14230000Y-12895000D01*
X14255000Y-7180000D02*
X14295000Y-7220000D01*
X14295000Y-7180000D02*
X14255000Y-7220000D01*
X14255000Y-8905000D02*
X14295000Y-8945000D01*
X14295000Y-8905000D02*
X14255000Y-8945000D01*
X14280000Y-7655000D02*
X14320000Y-7695000D01*
X14320000Y-7655000D02*
X14280000Y-7695000D01*
X14305000Y-7755000D02*
X14345000Y-7795000D01*
X14345000Y-7755000D02*
X14305000Y-7795000D01*
X14330000Y-14630000D02*
X14370000Y-14670000D01*
X14370000Y-14630000D02*
X14330000Y-14670000D01*
X14355000Y-13730000D02*
X14395000Y-13770000D01*
X14395000Y-13730000D02*
X14355000Y-13770000D01*
X14405000Y-6155000D02*
X14445000Y-6195000D01*
X14445000Y-6155000D02*
X14405000Y-6195000D01*
X14405000Y-8855000D02*
X14445000Y-8895000D01*
X14445000Y-8855000D02*
X14405000Y-8895000D01*
X14430000Y-11655000D02*
X14470000Y-11695000D01*
X14470000Y-11655000D02*
X14430000Y-11695000D01*
X14455000Y-7755000D02*
X14495000Y-7795000D01*
X14495000Y-7755000D02*
X14455000Y-7795000D01*
X14480000Y-6805000D02*
X14520000Y-6845000D01*
X14520000Y-6805000D02*
X14480000Y-6845000D01*
X14480000Y-10755000D02*
X14520000Y-10795000D01*
X14520000Y-10755000D02*
X14480000Y-10795000D01*
X14480000Y-12855000D02*
X14520000Y-12895000D01*
X14520000Y-12855000D02*
X14480000Y-12895000D01*
X14494000Y-7656000D02*
X14534000Y-7696000D01*
X14534000Y-7656000D02*
X14494000Y-7696000D01*
X14494000Y-10176000D02*
X14534000Y-10216000D01*
X14534000Y-10176000D02*
X14494000Y-10216000D01*
X14495000Y-12144500D02*
X14535000Y-12184500D01*
X14535000Y-12144500D02*
X14495000Y-12184500D01*
X14495000Y-14649139D02*
X14535000Y-14689139D01*
X14535000Y-14649139D02*
X14495000Y-14689139D01*
X14530000Y-8505000D02*
X14570000Y-8545000D01*
X14570000Y-8505000D02*
X14530000Y-8545000D01*
X14530000Y-9255000D02*
X14570000Y-9295000D01*
X14570000Y-9255000D02*
X14530000Y-9295000D01*
X14580000Y-7755000D02*
X14620000Y-7795000D01*
X14620000Y-7755000D02*
X14580000Y-7795000D01*
X14580000Y-11505000D02*
X14620000Y-11545000D01*
X14620000Y-11505000D02*
X14580000Y-11545000D01*
X14630000Y-13830000D02*
X14670000Y-13870000D01*
X14670000Y-13830000D02*
X14630000Y-13870000D01*
X14680000Y-7655000D02*
X14720000Y-7695000D01*
X14720000Y-7655000D02*
X14680000Y-7695000D01*
X14705000Y-7930000D02*
X14745000Y-7970000D01*
X14745000Y-7930000D02*
X14705000Y-7970000D01*
X14705000Y-10805000D02*
X14745000Y-10845000D01*
X14745000Y-10805000D02*
X14705000Y-10845000D01*
X14705000Y-14630000D02*
X14745000Y-14670000D01*
X14745000Y-14630000D02*
X14705000Y-14670000D01*
X14730000Y-7780000D02*
X14770000Y-7820000D01*
X14770000Y-7780000D02*
X14730000Y-7820000D01*
X14730000Y-8830000D02*
X14770000Y-8870000D01*
X14770000Y-8830000D02*
X14730000Y-8870000D01*
X14730000Y-11655000D02*
X14770000Y-11695000D01*
X14770000Y-11655000D02*
X14730000Y-11695000D01*
X14730000Y-12855000D02*
X14770000Y-12895000D01*
X14770000Y-12855000D02*
X14730000Y-12895000D01*
X14780000Y-12155000D02*
X14820000Y-12195000D01*
X14820000Y-12155000D02*
X14780000Y-12195000D01*
X14780000Y-13530000D02*
X14820000Y-13570000D01*
X14820000Y-13530000D02*
X14780000Y-13570000D01*
X14805000Y-7880000D02*
X14845000Y-7920000D01*
X14845000Y-7880000D02*
X14805000Y-7920000D01*
X14805000Y-8005000D02*
X14845000Y-8045000D01*
X14845000Y-8005000D02*
X14805000Y-8045000D01*
X14805000Y-8130000D02*
X14845000Y-8170000D01*
X14845000Y-8130000D02*
X14805000Y-8170000D01*
X14805000Y-10180000D02*
X14845000Y-10220000D01*
X14845000Y-10180000D02*
X14805000Y-10220000D01*
X14805000Y-14030000D02*
X14845000Y-14070000D01*
X14845000Y-14030000D02*
X14805000Y-14070000D01*
X14830000Y-8630000D02*
X14870000Y-8670000D01*
X14870000Y-8630000D02*
X14830000Y-8670000D01*
X14855000Y-13280000D02*
X14895000Y-13320000D01*
X14895000Y-13280000D02*
X14855000Y-13320000D01*
X14855000Y-13605000D02*
X14895000Y-13645000D01*
X14895000Y-13605000D02*
X14855000Y-13645000D01*
X14880000Y-7655000D02*
X14920000Y-7695000D01*
X14920000Y-7655000D02*
X14880000Y-7695000D01*
X14895000Y-11538000D02*
X14935000Y-11578000D01*
X14935000Y-11538000D02*
X14895000Y-11578000D01*
X14905000Y-14630000D02*
X14945000Y-14670000D01*
X14945000Y-14630000D02*
X14905000Y-14670000D01*
X14930000Y-9230000D02*
X14970000Y-9270000D01*
X14970000Y-9230000D02*
X14930000Y-9270000D01*
X14931000Y-12413000D02*
X14971000Y-12453000D01*
X14971000Y-12413000D02*
X14931000Y-12453000D01*
X14955000Y-8155000D02*
X14995000Y-8195000D01*
X14995000Y-8155000D02*
X14955000Y-8195000D01*
X14955000Y-11655000D02*
X14995000Y-11695000D01*
X14995000Y-11655000D02*
X14955000Y-11695000D01*
X14962000Y-13441000D02*
X15002000Y-13481000D01*
X15002000Y-13441000D02*
X14962000Y-13481000D01*
X15005000Y-12730000D02*
X15045000Y-12770000D01*
X15045000Y-12730000D02*
X15005000Y-12770000D01*
X15005000Y-12805000D02*
X15045000Y-12845000D01*
X15045000Y-12805000D02*
X15005000Y-12845000D01*
X15029784Y-12654784D02*
X15069784Y-12694784D01*
X15069784Y-12654784D02*
X15029784Y-12694784D01*
X15030000Y-8855000D02*
X15070000Y-8895000D01*
X15070000Y-8855000D02*
X15030000Y-8895000D01*
X15030000Y-10805000D02*
X15070000Y-10845000D01*
X15070000Y-10805000D02*
X15030000Y-10845000D01*
X15030000Y-12269000D02*
X15070000Y-12309000D01*
X15070000Y-12269000D02*
X15030000Y-12309000D01*
X15080000Y-8280000D02*
X15120000Y-8320000D01*
X15120000Y-8280000D02*
X15080000Y-8320000D01*
X15080000Y-12730000D02*
X15120000Y-12770000D01*
X15120000Y-12730000D02*
X15080000Y-12770000D01*
X15091500Y-7656000D02*
X15131500Y-7696000D01*
X15131500Y-7656000D02*
X15091500Y-7696000D01*
X15091500Y-10176000D02*
X15131500Y-10216000D01*
X15131500Y-10176000D02*
X15091500Y-10216000D01*
X15095000Y-11068000D02*
X15135000Y-11108000D01*
X15135000Y-11068000D02*
X15095000Y-11108000D01*
X15095000Y-12144500D02*
X15135000Y-12184500D01*
X15135000Y-12144500D02*
X15095000Y-12184500D01*
X15095000Y-14649139D02*
X15135000Y-14689139D01*
X15135000Y-14649139D02*
X15095000Y-14689139D01*
X15105000Y-11655000D02*
X15145000Y-11695000D01*
X15145000Y-11655000D02*
X15105000Y-11695000D01*
X15105000Y-12805000D02*
X15145000Y-12845000D01*
X15145000Y-12805000D02*
X15105000Y-12845000D01*
X15130000Y-9180000D02*
X15170000Y-9220000D01*
X15170000Y-9180000D02*
X15130000Y-9220000D01*
X15130000Y-10805000D02*
X15170000Y-10845000D01*
X15170000Y-10805000D02*
X15130000Y-10845000D01*
X15130000Y-12655000D02*
X15170000Y-12695000D01*
X15170000Y-12655000D02*
X15130000Y-12695000D01*
X15155000Y-12730000D02*
X15195000Y-12770000D01*
X15195000Y-12730000D02*
X15155000Y-12770000D01*
X15155000Y-13630000D02*
X15195000Y-13670000D01*
X15195000Y-13630000D02*
X15155000Y-13670000D01*
X15158000Y-13351000D02*
X15198000Y-13391000D01*
X15198000Y-13351000D02*
X15158000Y-13391000D01*
X15161500Y-12989500D02*
X15201500Y-13029500D01*
X15201500Y-12989500D02*
X15161500Y-13029500D01*
X15161500Y-13134500D02*
X15201500Y-13174500D01*
X15201500Y-13134500D02*
X15161500Y-13174500D01*
X15194000Y-7758500D02*
X15234000Y-7798500D01*
X15234000Y-7758500D02*
X15194000Y-7798500D01*
X15194000Y-8356000D02*
X15234000Y-8396000D01*
X15234000Y-8356000D02*
X15194000Y-8396000D01*
X15194000Y-8956000D02*
X15234000Y-8996000D01*
X15234000Y-8956000D02*
X15194000Y-8996000D01*
X15194000Y-9556000D02*
X15234000Y-9596000D01*
X15234000Y-9556000D02*
X15194000Y-9596000D01*
X15194000Y-10073500D02*
X15234000Y-10113500D01*
X15234000Y-10073500D02*
X15194000Y-10113500D01*
X15195000Y-11528000D02*
X15235000Y-11568000D01*
X15235000Y-11528000D02*
X15195000Y-11568000D01*
X15205000Y-7930000D02*
X15245000Y-7970000D01*
X15245000Y-7930000D02*
X15205000Y-7970000D01*
X15205000Y-8130000D02*
X15245000Y-8170000D01*
X15245000Y-8130000D02*
X15205000Y-8170000D01*
X15205000Y-9230000D02*
X15245000Y-9270000D01*
X15245000Y-9230000D02*
X15205000Y-9270000D01*
X15205000Y-9380000D02*
X15245000Y-9420000D01*
X15245000Y-9380000D02*
X15205000Y-9420000D01*
X15205000Y-9730000D02*
X15245000Y-9770000D01*
X15245000Y-9730000D02*
X15205000Y-9770000D01*
X15205000Y-9904600D02*
X15245000Y-9944600D01*
X15245000Y-9904600D02*
X15205000Y-9944600D01*
X15205000Y-11780000D02*
X15245000Y-11820000D01*
X15245000Y-11780000D02*
X15205000Y-11820000D01*
X15205000Y-12655000D02*
X15245000Y-12695000D01*
X15245000Y-12655000D02*
X15205000Y-12695000D01*
X15205000Y-12805000D02*
X15245000Y-12845000D01*
X15245000Y-12805000D02*
X15205000Y-12845000D01*
X15230000Y-6180000D02*
X15270000Y-6220000D01*
X15270000Y-6180000D02*
X15230000Y-6220000D01*
X15230000Y-12730000D02*
X15270000Y-12770000D01*
X15270000Y-12730000D02*
X15230000Y-12770000D01*
X15234000Y-13062000D02*
X15274000Y-13102000D01*
X15274000Y-13062000D02*
X15234000Y-13102000D01*
X15252000Y-6420000D02*
X15292000Y-6460000D01*
X15292000Y-6420000D02*
X15252000Y-6460000D01*
X15252000Y-6536000D02*
X15292000Y-6576000D01*
X15292000Y-6536000D02*
X15252000Y-6576000D01*
X15252000Y-6661000D02*
X15292000Y-6701000D01*
X15292000Y-6661000D02*
X15252000Y-6701000D01*
X15255000Y-8455000D02*
X15295000Y-8495000D01*
X15295000Y-8455000D02*
X15255000Y-8495000D01*
X15255000Y-11138000D02*
X15295000Y-11178000D01*
X15295000Y-11138000D02*
X15255000Y-11178000D01*
X15280000Y-11655000D02*
X15320000Y-11695000D01*
X15320000Y-11655000D02*
X15280000Y-11695000D01*
X15280000Y-12655000D02*
X15320000Y-12695000D01*
X15320000Y-12655000D02*
X15280000Y-12695000D01*
X15305000Y-9055000D02*
X15345000Y-9095000D01*
X15345000Y-9055000D02*
X15305000Y-9095000D01*
X15305000Y-10805000D02*
X15345000Y-10845000D01*
X15345000Y-10805000D02*
X15305000Y-10845000D01*
X15305000Y-11780000D02*
X15345000Y-11820000D01*
X15345000Y-11780000D02*
X15305000Y-11820000D01*
X15305000Y-12805000D02*
X15345000Y-12845000D01*
X15345000Y-12805000D02*
X15305000Y-12845000D01*
X15305000Y-14630000D02*
X15345000Y-14670000D01*
X15345000Y-14630000D02*
X15305000Y-14670000D01*
X15306500Y-12989500D02*
X15346500Y-13029500D01*
X15346500Y-12989500D02*
X15306500Y-13029500D01*
X15306500Y-13134500D02*
X15346500Y-13174500D01*
X15346500Y-13134500D02*
X15306500Y-13174500D01*
X15325000Y-11148000D02*
X15365000Y-11188000D01*
X15365000Y-11148000D02*
X15325000Y-11188000D01*
X15325000Y-11286000D02*
X15365000Y-11326000D01*
X15365000Y-11286000D02*
X15325000Y-11326000D01*
X15325000Y-11418000D02*
X15365000Y-11458000D01*
X15365000Y-11418000D02*
X15325000Y-11458000D01*
X15330000Y-12730000D02*
X15370000Y-12770000D01*
X15370000Y-12730000D02*
X15330000Y-12770000D01*
X15379000Y-12155000D02*
X15419000Y-12195000D01*
X15419000Y-12155000D02*
X15379000Y-12195000D01*
X15380000Y-8480000D02*
X15420000Y-8520000D01*
X15420000Y-8480000D02*
X15380000Y-8520000D01*
X15380000Y-12655000D02*
X15420000Y-12695000D01*
X15420000Y-12655000D02*
X15380000Y-12695000D01*
X15388000Y-13758000D02*
X15428000Y-13798000D01*
X15428000Y-13758000D02*
X15388000Y-13798000D01*
X15397000Y-11610000D02*
X15437000Y-11650000D01*
X15437000Y-11610000D02*
X15397000Y-11650000D01*
X15405000Y-12805000D02*
X15445000Y-12845000D01*
X15445000Y-12805000D02*
X15405000Y-12845000D01*
X15411000Y-13561000D02*
X15451000Y-13601000D01*
X15451000Y-13561000D02*
X15411000Y-13601000D01*
X15430000Y-11730000D02*
X15470000Y-11770000D01*
X15470000Y-11730000D02*
X15430000Y-11770000D01*
X15430000Y-12730000D02*
X15470000Y-12770000D01*
X15470000Y-12730000D02*
X15430000Y-12770000D01*
X15430000Y-13305000D02*
X15470000Y-13345000D01*
X15470000Y-13305000D02*
X15430000Y-13345000D01*
X15480000Y-9230000D02*
X15520000Y-9270000D01*
X15520000Y-9230000D02*
X15480000Y-9270000D01*
X15480000Y-10805000D02*
X15520000Y-10845000D01*
X15520000Y-10805000D02*
X15480000Y-10845000D01*
X15480000Y-12630000D02*
X15520000Y-12670000D01*
X15520000Y-12630000D02*
X15480000Y-12670000D01*
X15480000Y-14630000D02*
X15520000Y-14670000D01*
X15520000Y-14630000D02*
X15480000Y-14670000D01*
X15505000Y-11655000D02*
X15545000Y-11695000D01*
X15545000Y-11655000D02*
X15505000Y-11695000D01*
X15545000Y-10958000D02*
X15585000Y-10998000D01*
X15585000Y-10958000D02*
X15545000Y-10998000D01*
X15555000Y-8655000D02*
X15595000Y-8695000D01*
X15595000Y-8655000D02*
X15555000Y-8695000D01*
X15555000Y-11730000D02*
X15595000Y-11770000D01*
X15595000Y-11730000D02*
X15555000Y-11770000D01*
X15625000Y-7359000D02*
X15665000Y-7399000D01*
X15665000Y-7359000D02*
X15625000Y-7399000D01*
X15625000Y-7634000D02*
X15665000Y-7674000D01*
X15665000Y-7634000D02*
X15625000Y-7674000D01*
X15630000Y-12630000D02*
X15670000Y-12670000D01*
X15670000Y-12630000D02*
X15630000Y-12670000D01*
X15634000Y-13615000D02*
X15674000Y-13655000D01*
X15674000Y-13615000D02*
X15634000Y-13655000D01*
X15645000Y-10958000D02*
X15685000Y-10998000D01*
X15685000Y-10958000D02*
X15645000Y-10998000D01*
X15655000Y-10805000D02*
X15695000Y-10845000D01*
X15695000Y-10805000D02*
X15655000Y-10845000D01*
X15680000Y-9430000D02*
X15720000Y-9470000D01*
X15720000Y-9430000D02*
X15680000Y-9470000D01*
X15680000Y-11730000D02*
X15720000Y-11770000D01*
X15720000Y-11730000D02*
X15680000Y-11770000D01*
X15695000Y-12144500D02*
X15735000Y-12184500D01*
X15735000Y-12144500D02*
X15695000Y-12184500D01*
X15695000Y-14649139D02*
X15735000Y-14689139D01*
X15735000Y-14649139D02*
X15695000Y-14689139D01*
X15700000Y-7709000D02*
X15740000Y-7749000D01*
X15740000Y-7709000D02*
X15700000Y-7749000D01*
X15705000Y-7055000D02*
X15745000Y-7095000D01*
X15745000Y-7055000D02*
X15705000Y-7095000D01*
X15730000Y-8830000D02*
X15770000Y-8870000D01*
X15770000Y-8830000D02*
X15730000Y-8870000D01*
X15730000Y-13205000D02*
X15770000Y-13245000D01*
X15770000Y-13205000D02*
X15730000Y-13245000D01*
X15755000Y-11030000D02*
X15795000Y-11070000D01*
X15795000Y-11030000D02*
X15755000Y-11070000D01*
X15755000Y-11180000D02*
X15795000Y-11220000D01*
X15795000Y-11180000D02*
X15755000Y-11220000D01*
X15755000Y-11655000D02*
X15795000Y-11695000D01*
X15795000Y-11655000D02*
X15755000Y-11695000D01*
X15787300Y-7702415D02*
X15827300Y-7742415D01*
X15827300Y-7702415D02*
X15787300Y-7742415D01*
X15805000Y-11730000D02*
X15845000Y-11770000D01*
X15845000Y-11730000D02*
X15805000Y-11770000D01*
X15805000Y-12630000D02*
X15845000Y-12670000D01*
X15845000Y-12630000D02*
X15805000Y-12670000D01*
X15821000Y-13518000D02*
X15861000Y-13558000D01*
X15861000Y-13518000D02*
X15821000Y-13558000D01*
X15830000Y-13630000D02*
X15870000Y-13670000D01*
X15870000Y-13630000D02*
X15830000Y-13670000D01*
X15855000Y-9605000D02*
X15895000Y-9645000D01*
X15895000Y-9605000D02*
X15855000Y-9645000D01*
X15855000Y-11205000D02*
X15895000Y-11245000D01*
X15895000Y-11205000D02*
X15855000Y-11245000D01*
X15880000Y-14649139D02*
X15920000Y-14689139D01*
X15920000Y-14649139D02*
X15880000Y-14689139D01*
X15905000Y-7330000D02*
X15945000Y-7370000D01*
X15945000Y-7330000D02*
X15905000Y-7370000D01*
X15925000Y-7684000D02*
X15965000Y-7724000D01*
X15965000Y-7684000D02*
X15925000Y-7724000D01*
X15930000Y-11280000D02*
X15970000Y-11320000D01*
X15970000Y-11280000D02*
X15930000Y-11320000D01*
X15930000Y-11730000D02*
X15970000Y-11770000D01*
X15970000Y-11730000D02*
X15930000Y-11770000D01*
X15955000Y-9055000D02*
X15995000Y-9095000D01*
X15995000Y-9055000D02*
X15955000Y-9095000D01*
X15955000Y-12580000D02*
X15995000Y-12620000D01*
X15995000Y-12580000D02*
X15955000Y-12620000D01*
X15980000Y-9705000D02*
X16020000Y-9745000D01*
X16020000Y-9705000D02*
X15980000Y-9745000D01*
X16000000Y-7159000D02*
X16040000Y-7199000D01*
X16040000Y-7159000D02*
X16000000Y-7199000D01*
X16001000Y-13791000D02*
X16041000Y-13831000D01*
X16041000Y-13791000D02*
X16001000Y-13831000D01*
X16001000Y-13981000D02*
X16041000Y-14021000D01*
X16041000Y-13981000D02*
X16001000Y-14021000D01*
X16005000Y-6330000D02*
X16045000Y-6370000D01*
X16045000Y-6330000D02*
X16005000Y-6370000D01*
X16005000Y-11655000D02*
X16045000Y-11695000D01*
X16045000Y-11655000D02*
X16005000Y-11695000D01*
X16005000Y-12155000D02*
X16045000Y-12195000D01*
X16045000Y-12155000D02*
X16005000Y-12195000D01*
X16055000Y-6230000D02*
X16095000Y-6270000D01*
X16095000Y-6230000D02*
X16055000Y-6270000D01*
X16055000Y-9155000D02*
X16095000Y-9195000D01*
X16095000Y-9155000D02*
X16055000Y-9195000D01*
X16055000Y-11730000D02*
X16095000Y-11770000D01*
X16095000Y-11730000D02*
X16055000Y-11770000D01*
X16055000Y-13380000D02*
X16095000Y-13420000D01*
X16095000Y-13380000D02*
X16055000Y-13420000D01*
X16080000Y-9780000D02*
X16120000Y-9820000D01*
X16120000Y-9780000D02*
X16080000Y-9820000D01*
X16080000Y-11280000D02*
X16120000Y-11320000D01*
X16120000Y-11280000D02*
X16080000Y-11320000D01*
X16105000Y-14649139D02*
X16145000Y-14689139D01*
X16145000Y-14649139D02*
X16105000Y-14689139D01*
X16125000Y-7134000D02*
X16165000Y-7174000D01*
X16165000Y-7134000D02*
X16125000Y-7174000D01*
X16155000Y-12630000D02*
X16195000Y-12670000D01*
X16195000Y-12630000D02*
X16155000Y-12670000D01*
X16155000Y-13330000D02*
X16195000Y-13370000D01*
X16195000Y-13330000D02*
X16155000Y-13370000D01*
X16159000Y-6334000D02*
X16199000Y-6374000D01*
X16199000Y-6334000D02*
X16159000Y-6374000D01*
X16180000Y-11655000D02*
X16220000Y-11695000D01*
X16220000Y-11655000D02*
X16180000Y-11695000D01*
X16205000Y-9305000D02*
X16245000Y-9345000D01*
X16245000Y-9305000D02*
X16205000Y-9345000D01*
X16230000Y-11280000D02*
X16270000Y-11320000D01*
X16270000Y-11280000D02*
X16230000Y-11320000D01*
X16255000Y-12555000D02*
X16295000Y-12595000D01*
X16295000Y-12555000D02*
X16255000Y-12595000D01*
X16280000Y-13730000D02*
X16320000Y-13770000D01*
X16320000Y-13730000D02*
X16280000Y-13770000D01*
X16295000Y-12144500D02*
X16335000Y-12184500D01*
X16335000Y-12144500D02*
X16295000Y-12184500D01*
X16295000Y-14649139D02*
X16335000Y-14689139D01*
X16335000Y-14649139D02*
X16295000Y-14689139D01*
X16305000Y-9405000D02*
X16345000Y-9445000D01*
X16345000Y-9405000D02*
X16305000Y-9445000D01*
X16305000Y-9780000D02*
X16345000Y-9820000D01*
X16345000Y-9780000D02*
X16305000Y-9820000D01*
X16330000Y-7330000D02*
X16370000Y-7370000D01*
X16370000Y-7330000D02*
X16330000Y-7370000D01*
X16355000Y-11655000D02*
X16395000Y-11695000D01*
X16395000Y-11655000D02*
X16355000Y-11695000D01*
X16355000Y-12455000D02*
X16395000Y-12495000D01*
X16395000Y-12455000D02*
X16355000Y-12495000D01*
X16360000Y-6864000D02*
X16400000Y-6904000D01*
X16400000Y-6864000D02*
X16360000Y-6904000D01*
X16383000Y-9170000D02*
X16423000Y-9210000D01*
X16423000Y-9170000D02*
X16383000Y-9210000D01*
X16405000Y-9430000D02*
X16445000Y-9470000D01*
X16445000Y-9430000D02*
X16405000Y-9470000D01*
X16405000Y-11280000D02*
X16445000Y-11320000D01*
X16445000Y-11280000D02*
X16405000Y-11320000D01*
X16466000Y-9170000D02*
X16506000Y-9210000D01*
X16506000Y-9170000D02*
X16466000Y-9210000D01*
X16480000Y-12155000D02*
X16520000Y-12195000D01*
X16520000Y-12155000D02*
X16480000Y-12195000D01*
X16505000Y-9430000D02*
X16545000Y-9470000D01*
X16545000Y-9430000D02*
X16505000Y-9470000D01*
X16505000Y-12355000D02*
X16545000Y-12395000D01*
X16545000Y-12355000D02*
X16505000Y-12395000D01*
X16505000Y-12930000D02*
X16545000Y-12970000D01*
X16545000Y-12930000D02*
X16505000Y-12970000D01*
X16505000Y-14630000D02*
X16545000Y-14670000D01*
X16545000Y-14630000D02*
X16505000Y-14670000D01*
X16525000Y-7484000D02*
X16565000Y-7524000D01*
X16565000Y-7484000D02*
X16525000Y-7524000D01*
X16549000Y-9170000D02*
X16589000Y-9210000D01*
X16589000Y-9170000D02*
X16549000Y-9210000D01*
X16555000Y-11280000D02*
X16595000Y-11320000D01*
X16595000Y-11280000D02*
X16555000Y-11320000D01*
X16575000Y-7234000D02*
X16615000Y-7274000D01*
X16615000Y-7234000D02*
X16575000Y-7274000D01*
X16580000Y-11655000D02*
X16620000Y-11695000D01*
X16620000Y-11655000D02*
X16580000Y-11695000D01*
X16580000Y-12155000D02*
X16620000Y-12195000D01*
X16620000Y-12155000D02*
X16580000Y-12195000D01*
X16600000Y-7934000D02*
X16640000Y-7974000D01*
X16640000Y-7934000D02*
X16600000Y-7974000D01*
X16605000Y-9780000D02*
X16645000Y-9820000D01*
X16645000Y-9780000D02*
X16605000Y-9820000D01*
X16605000Y-12830000D02*
X16645000Y-12870000D01*
X16645000Y-12830000D02*
X16605000Y-12870000D01*
X16630000Y-13055000D02*
X16670000Y-13095000D01*
X16670000Y-13055000D02*
X16630000Y-13095000D01*
X16630000Y-13205000D02*
X16670000Y-13245000D01*
X16670000Y-13205000D02*
X16630000Y-13245000D01*
X16631000Y-9170000D02*
X16671000Y-9210000D01*
X16671000Y-9170000D02*
X16631000Y-9210000D01*
X16655000Y-11730000D02*
X16695000Y-11770000D01*
X16695000Y-11730000D02*
X16655000Y-11770000D01*
X16680000Y-9430000D02*
X16720000Y-9470000D01*
X16720000Y-9430000D02*
X16680000Y-9470000D01*
X16680000Y-12755000D02*
X16720000Y-12795000D01*
X16720000Y-12755000D02*
X16680000Y-12795000D01*
X16685000Y-6864000D02*
X16725000Y-6904000D01*
X16725000Y-6864000D02*
X16685000Y-6904000D01*
X16700000Y-7409000D02*
X16740000Y-7449000D01*
X16740000Y-7409000D02*
X16700000Y-7449000D01*
X16700000Y-8259000D02*
X16740000Y-8299000D01*
X16740000Y-8259000D02*
X16700000Y-8299000D01*
X16705000Y-14630000D02*
X16745000Y-14670000D01*
X16745000Y-14630000D02*
X16705000Y-14670000D01*
X16717000Y-9170000D02*
X16757000Y-9210000D01*
X16757000Y-9170000D02*
X16717000Y-9210000D01*
X16730000Y-11280000D02*
X16770000Y-11320000D01*
X16770000Y-11280000D02*
X16730000Y-11320000D01*
X16730000Y-11805000D02*
X16770000Y-11845000D01*
X16770000Y-11805000D02*
X16730000Y-11845000D01*
X16730000Y-12330000D02*
X16770000Y-12370000D01*
X16770000Y-12330000D02*
X16730000Y-12370000D01*
X16755000Y-13305000D02*
X16795000Y-13345000D01*
X16795000Y-13305000D02*
X16755000Y-13345000D01*
X16755000Y-13730000D02*
X16795000Y-13770000D01*
X16795000Y-13730000D02*
X16755000Y-13770000D01*
X16780000Y-12705000D02*
X16820000Y-12745000D01*
X16820000Y-12705000D02*
X16780000Y-12745000D01*
X16805000Y-9780000D02*
X16845000Y-9820000D01*
X16845000Y-9780000D02*
X16805000Y-9820000D01*
X16830000Y-11905000D02*
X16870000Y-11945000D01*
X16870000Y-11905000D02*
X16830000Y-11945000D01*
X16880000Y-12330000D02*
X16920000Y-12370000D01*
X16920000Y-12330000D02*
X16880000Y-12370000D01*
X16892500Y-12144500D02*
X16932500Y-12184500D01*
X16932500Y-12144500D02*
X16892500Y-12184500D01*
X16892500Y-14649139D02*
X16932500Y-14689139D01*
X16932500Y-14649139D02*
X16892500Y-14689139D01*
X16905000Y-11280000D02*
X16945000Y-11320000D01*
X16945000Y-11280000D02*
X16905000Y-11320000D01*
X16905000Y-12705000D02*
X16945000Y-12745000D01*
X16945000Y-12705000D02*
X16905000Y-12745000D01*
X16950000Y-11054000D02*
X16990000Y-11094000D01*
X16990000Y-11054000D02*
X16950000Y-11094000D01*
X16977000Y-6060000D02*
X17017000Y-6100000D01*
X17017000Y-6060000D02*
X16977000Y-6100000D01*
X16980000Y-9430000D02*
X17020000Y-9470000D01*
X17020000Y-9430000D02*
X16980000Y-9470000D01*
X16995000Y-12247000D02*
X17035000Y-12287000D01*
X17035000Y-12247000D02*
X16995000Y-12287000D01*
X16995000Y-12844500D02*
X17035000Y-12884500D01*
X17035000Y-12844500D02*
X16995000Y-12884500D01*
X16995000Y-13444500D02*
X17035000Y-13484500D01*
X17035000Y-13444500D02*
X16995000Y-13484500D01*
X16995000Y-14044500D02*
X17035000Y-14084500D01*
X17035000Y-14044500D02*
X16995000Y-14084500D01*
X16995000Y-14562000D02*
X17035000Y-14602000D01*
X17035000Y-14562000D02*
X16995000Y-14602000D01*
X17005000Y-11355000D02*
X17045000Y-11395000D01*
X17045000Y-11355000D02*
X17005000Y-11395000D01*
X17005000Y-13030000D02*
X17045000Y-13070000D01*
X17045000Y-13030000D02*
X17005000Y-13070000D01*
X17005000Y-13255000D02*
X17045000Y-13295000D01*
X17045000Y-13255000D02*
X17005000Y-13295000D01*
X17005000Y-13630000D02*
X17045000Y-13670000D01*
X17045000Y-13630000D02*
X17005000Y-13670000D01*
X17005000Y-13880000D02*
X17045000Y-13920000D01*
X17045000Y-13880000D02*
X17005000Y-13920000D01*
X17005000Y-14230000D02*
X17045000Y-14270000D01*
X17045000Y-14230000D02*
X17005000Y-14270000D01*
X17010000Y-6864000D02*
X17050000Y-6904000D01*
X17050000Y-6864000D02*
X17010000Y-6904000D01*
X17030000Y-12102700D02*
X17070000Y-12142700D01*
X17070000Y-12102700D02*
X17030000Y-12142700D01*
X17035000Y-7789000D02*
X17075000Y-7829000D01*
X17075000Y-7789000D02*
X17035000Y-7829000D01*
X17035000Y-8014000D02*
X17075000Y-8054000D01*
X17075000Y-8014000D02*
X17035000Y-8054000D01*
X17035000Y-8239000D02*
X17075000Y-8279000D01*
X17075000Y-8239000D02*
X17035000Y-8279000D01*
X17055000Y-12705000D02*
X17095000Y-12745000D01*
X17095000Y-12705000D02*
X17055000Y-12745000D01*
X17080000Y-11430000D02*
X17120000Y-11470000D01*
X17120000Y-11430000D02*
X17080000Y-11470000D01*
X17130000Y-11555000D02*
X17170000Y-11595000D01*
X17170000Y-11555000D02*
X17130000Y-11595000D01*
X17135000Y-7364000D02*
X17175000Y-7404000D01*
X17175000Y-7364000D02*
X17135000Y-7404000D01*
X17155000Y-9780000D02*
X17195000Y-9820000D01*
X17195000Y-9780000D02*
X17155000Y-9820000D01*
X17205000Y-12305000D02*
X17245000Y-12345000D01*
X17245000Y-12305000D02*
X17205000Y-12345000D01*
X17205000Y-12705000D02*
X17245000Y-12745000D01*
X17245000Y-12705000D02*
X17205000Y-12745000D01*
X17230000Y-11480000D02*
X17270000Y-11520000D01*
X17270000Y-11480000D02*
X17230000Y-11520000D01*
X17255000Y-6680000D02*
X17295000Y-6720000D01*
X17295000Y-6680000D02*
X17255000Y-6720000D01*
X17310000Y-6789000D02*
X17350000Y-6829000D01*
X17350000Y-6789000D02*
X17310000Y-6829000D01*
X17355000Y-10205000D02*
X17395000Y-10245000D01*
X17395000Y-10205000D02*
X17355000Y-10245000D01*
X17355000Y-10755000D02*
X17395000Y-10795000D01*
X17395000Y-10755000D02*
X17355000Y-10795000D01*
X17355000Y-12705000D02*
X17395000Y-12745000D01*
X17395000Y-12705000D02*
X17355000Y-12745000D01*
X17380000Y-9430000D02*
X17420000Y-9470000D01*
X17420000Y-9430000D02*
X17380000Y-9470000D01*
X17382000Y-10482000D02*
X17422000Y-10522000D01*
X17422000Y-10482000D02*
X17382000Y-10522000D01*
X17405000Y-9780000D02*
X17445000Y-9820000D01*
X17445000Y-9780000D02*
X17405000Y-9820000D01*
X17405000Y-12305000D02*
X17445000Y-12345000D01*
X17445000Y-12305000D02*
X17405000Y-12345000D01*
X17435000Y-10205000D02*
X17475000Y-10245000D01*
X17475000Y-10205000D02*
X17435000Y-10245000D01*
X17446700Y-12705000D02*
X17486700Y-12745000D01*
X17486700Y-12705000D02*
X17446700Y-12745000D01*
X17455000Y-10556000D02*
X17495000Y-10596000D01*
X17495000Y-10556000D02*
X17455000Y-10596000D01*
X17460000Y-6314000D02*
X17500000Y-6354000D01*
X17500000Y-6314000D02*
X17460000Y-6354000D01*
X17503000Y-8435000D02*
X17543000Y-8475000D01*
X17543000Y-8435000D02*
X17503000Y-8475000D01*
X17503000Y-8522000D02*
X17543000Y-8562000D01*
X17543000Y-8522000D02*
X17503000Y-8562000D01*
X17503000Y-8616000D02*
X17543000Y-8656000D01*
X17543000Y-8616000D02*
X17503000Y-8656000D01*
X17505000Y-10780000D02*
X17545000Y-10820000D01*
X17545000Y-10780000D02*
X17505000Y-10820000D01*
X17510000Y-6096500D02*
X17550000Y-6136500D01*
X17550000Y-6096500D02*
X17510000Y-6136500D01*
X17530000Y-10155000D02*
X17570000Y-10195000D01*
X17570000Y-10155000D02*
X17530000Y-10195000D01*
X17555000Y-14430000D02*
X17595000Y-14470000D01*
X17595000Y-14430000D02*
X17555000Y-14470000D01*
X17580000Y-6305000D02*
X17620000Y-6345000D01*
X17620000Y-6305000D02*
X17580000Y-6345000D01*
X17580000Y-9430000D02*
X17620000Y-9470000D01*
X17620000Y-9430000D02*
X17580000Y-9470000D01*
X17604000Y-8435000D02*
X17644000Y-8475000D01*
X17644000Y-8435000D02*
X17604000Y-8475000D01*
X17604000Y-8522000D02*
X17644000Y-8562000D01*
X17644000Y-8522000D02*
X17604000Y-8562000D01*
X17604000Y-8615000D02*
X17644000Y-8655000D01*
X17644000Y-8615000D02*
X17604000Y-8655000D01*
X17605000Y-9780000D02*
X17645000Y-9820000D01*
X17645000Y-9780000D02*
X17605000Y-9820000D01*
X17605000Y-12705000D02*
X17645000Y-12745000D01*
X17645000Y-12705000D02*
X17605000Y-12745000D01*
X17610000Y-5911000D02*
X17650000Y-5951000D01*
X17650000Y-5911000D02*
X17610000Y-5951000D01*
X17610000Y-6014000D02*
X17650000Y-6054000D01*
X17650000Y-6014000D02*
X17610000Y-6054000D01*
X17630000Y-10680000D02*
X17670000Y-10720000D01*
X17670000Y-10680000D02*
X17630000Y-10720000D01*
X17630000Y-12305000D02*
X17670000Y-12345000D01*
X17670000Y-12305000D02*
X17630000Y-12345000D01*
X17655000Y-10880000D02*
X17695000Y-10920000D01*
X17695000Y-10880000D02*
X17655000Y-10920000D01*
X17674164Y-11099164D02*
X17714164Y-11139164D01*
X17714164Y-11099164D02*
X17674164Y-11139164D01*
X17680000Y-9355000D02*
X17720000Y-9395000D01*
X17720000Y-9355000D02*
X17680000Y-9395000D01*
X17680000Y-11505000D02*
X17720000Y-11545000D01*
X17720000Y-11505000D02*
X17680000Y-11545000D01*
X17705000Y-10980000D02*
X17745000Y-11020000D01*
X17745000Y-10980000D02*
X17705000Y-11020000D01*
X17705000Y-11880000D02*
X17745000Y-11920000D01*
X17745000Y-11880000D02*
X17705000Y-11920000D01*
X17730000Y-6805000D02*
X17770000Y-6845000D01*
X17770000Y-6805000D02*
X17730000Y-6845000D01*
X17730000Y-9855000D02*
X17770000Y-9895000D01*
X17770000Y-9855000D02*
X17730000Y-9895000D01*
X17730000Y-11330000D02*
X17770000Y-11370000D01*
X17770000Y-11330000D02*
X17730000Y-11370000D01*
X17755000Y-10905000D02*
X17795000Y-10945000D01*
X17795000Y-10905000D02*
X17755000Y-10945000D01*
X17755000Y-12705000D02*
X17795000Y-12745000D01*
X17795000Y-12705000D02*
X17755000Y-12745000D01*
X17780000Y-11455000D02*
X17820000Y-11495000D01*
X17820000Y-11455000D02*
X17780000Y-11495000D01*
X17780000Y-11730000D02*
X17820000Y-11770000D01*
X17820000Y-11730000D02*
X17780000Y-11770000D01*
X17805000Y-9305000D02*
X17845000Y-9345000D01*
X17845000Y-9305000D02*
X17805000Y-9345000D01*
X17805000Y-14455000D02*
X17845000Y-14495000D01*
X17845000Y-14455000D02*
X17805000Y-14495000D01*
X17830000Y-6705000D02*
X17870000Y-6745000D01*
X17870000Y-6705000D02*
X17830000Y-6745000D01*
X17830000Y-11605000D02*
X17870000Y-11645000D01*
X17870000Y-11605000D02*
X17830000Y-11645000D01*
X17830000Y-12255000D02*
X17870000Y-12295000D01*
X17870000Y-12255000D02*
X17830000Y-12295000D01*
X17849000Y-10486000D02*
X17889000Y-10526000D01*
X17889000Y-10486000D02*
X17849000Y-10526000D01*
X17855000Y-9855000D02*
X17895000Y-9895000D01*
X17895000Y-9855000D02*
X17855000Y-9895000D01*
X17855000Y-10330000D02*
X17895000Y-10370000D01*
X17895000Y-10330000D02*
X17855000Y-10370000D01*
X17860000Y-8389000D02*
X17900000Y-8429000D01*
X17900000Y-8389000D02*
X17860000Y-8429000D01*
X17930000Y-9980000D02*
X17970000Y-10020000D01*
X17970000Y-9980000D02*
X17930000Y-10020000D01*
X17930000Y-12705000D02*
X17970000Y-12745000D01*
X17970000Y-12705000D02*
X17930000Y-12745000D01*
X17935000Y-8214000D02*
X17975000Y-8254000D01*
X17975000Y-8214000D02*
X17935000Y-8254000D01*
X17955000Y-9355000D02*
X17995000Y-9395000D01*
X17995000Y-9355000D02*
X17955000Y-9395000D01*
X17986569Y-10036569D02*
X18026569Y-10076569D01*
X18026569Y-10036569D02*
X17986569Y-10076569D01*
X18009000Y-10326000D02*
X18049000Y-10366000D01*
X18049000Y-10326000D02*
X18009000Y-10366000D01*
X18009000Y-10486000D02*
X18049000Y-10526000D01*
X18049000Y-10486000D02*
X18009000Y-10526000D01*
X18024500Y-11892500D02*
X18064500Y-11932500D01*
X18064500Y-11892500D02*
X18024500Y-11932500D01*
X18030000Y-12205000D02*
X18070000Y-12245000D01*
X18070000Y-12205000D02*
X18030000Y-12245000D01*
X18055000Y-9255000D02*
X18095000Y-9295000D01*
X18095000Y-9255000D02*
X18055000Y-9295000D01*
X18055000Y-12705000D02*
X18095000Y-12745000D01*
X18095000Y-12705000D02*
X18055000Y-12745000D01*
X18085000Y-7789000D02*
X18125000Y-7829000D01*
X18125000Y-7789000D02*
X18085000Y-7829000D01*
X18085000Y-8014000D02*
X18125000Y-8054000D01*
X18125000Y-8014000D02*
X18085000Y-8054000D01*
X18105000Y-10905000D02*
X18145000Y-10945000D01*
X18145000Y-10905000D02*
X18105000Y-10945000D01*
X18105000Y-14430000D02*
X18145000Y-14470000D01*
X18145000Y-14430000D02*
X18105000Y-14470000D01*
X18110000Y-6864000D02*
X18150000Y-6904000D01*
X18150000Y-6864000D02*
X18110000Y-6904000D01*
X18155000Y-9230000D02*
X18195000Y-9270000D01*
X18195000Y-9230000D02*
X18155000Y-9270000D01*
X18155000Y-9355000D02*
X18195000Y-9395000D01*
X18195000Y-9355000D02*
X18155000Y-9395000D01*
X18155000Y-9705000D02*
X18195000Y-9745000D01*
X18195000Y-9705000D02*
X18155000Y-9745000D01*
X18155000Y-9855000D02*
X18195000Y-9895000D01*
X18195000Y-9855000D02*
X18155000Y-9895000D01*
X18155000Y-12705000D02*
X18195000Y-12745000D01*
X18195000Y-12705000D02*
X18155000Y-12745000D01*
X18205000Y-8080000D02*
X18245000Y-8120000D01*
X18245000Y-8080000D02*
X18205000Y-8120000D01*
X18226000Y-11496000D02*
X18266000Y-11536000D01*
X18266000Y-11496000D02*
X18226000Y-11536000D01*
X18230000Y-10905000D02*
X18270000Y-10945000D01*
X18270000Y-10905000D02*
X18230000Y-10945000D01*
X18230000Y-11091101D02*
X18270000Y-11131101D01*
X18270000Y-11091101D02*
X18230000Y-11131101D01*
X18230000Y-12780000D02*
X18270000Y-12820000D01*
X18270000Y-12780000D02*
X18230000Y-12820000D01*
X18230000Y-12880000D02*
X18270000Y-12920000D01*
X18270000Y-12880000D02*
X18230000Y-12920000D01*
X18255000Y-9105000D02*
X18295000Y-9145000D01*
X18295000Y-9105000D02*
X18255000Y-9145000D01*
X18255000Y-14405000D02*
X18295000Y-14445000D01*
X18295000Y-14405000D02*
X18255000Y-14445000D01*
X18280000Y-8930000D02*
X18320000Y-8970000D01*
X18320000Y-8930000D02*
X18280000Y-8970000D01*
X18280000Y-11180000D02*
X18320000Y-11220000D01*
X18320000Y-11180000D02*
X18280000Y-11220000D01*
X18280000Y-12980000D02*
X18320000Y-13020000D01*
X18320000Y-12980000D02*
X18280000Y-13020000D01*
X18305000Y-7105000D02*
X18345000Y-7145000D01*
X18345000Y-7105000D02*
X18305000Y-7145000D01*
X18305000Y-12080000D02*
X18345000Y-12120000D01*
X18345000Y-12080000D02*
X18305000Y-12120000D01*
X18305000Y-12155000D02*
X18345000Y-12195000D01*
X18345000Y-12155000D02*
X18305000Y-12195000D01*
X18305000Y-12280000D02*
X18345000Y-12320000D01*
X18345000Y-12280000D02*
X18305000Y-12320000D01*
X18330000Y-11455000D02*
X18370000Y-11495000D01*
X18370000Y-11455000D02*
X18330000Y-11495000D01*
X18330000Y-11805000D02*
X18370000Y-11845000D01*
X18370000Y-11805000D02*
X18330000Y-11845000D01*
X18330000Y-11905000D02*
X18370000Y-11945000D01*
X18370000Y-11905000D02*
X18330000Y-11945000D01*
X18330000Y-11980000D02*
X18370000Y-12020000D01*
X18370000Y-11980000D02*
X18330000Y-12020000D01*
X18330895Y-14430298D02*
X18370895Y-14470298D01*
X18370895Y-14430298D02*
X18330895Y-14470298D01*
X18355000Y-9930000D02*
X18395000Y-9970000D01*
X18395000Y-9930000D02*
X18355000Y-9970000D01*
X18355000Y-10030000D02*
X18395000Y-10070000D01*
X18395000Y-10030000D02*
X18355000Y-10070000D01*
X18355000Y-10680000D02*
X18395000Y-10720000D01*
X18395000Y-10680000D02*
X18355000Y-10720000D01*
X18355000Y-10905000D02*
X18395000Y-10945000D01*
X18395000Y-10905000D02*
X18355000Y-10945000D01*
X18355000Y-11680000D02*
X18395000Y-11720000D01*
X18395000Y-11680000D02*
X18355000Y-11720000D01*
X18355000Y-12380000D02*
X18395000Y-12420000D01*
X18395000Y-12380000D02*
X18355000Y-12420000D01*
X18379486Y-10279279D02*
X18419486Y-10319279D01*
X18419486Y-10279279D02*
X18379486Y-10319279D01*
X18380000Y-9230000D02*
X18420000Y-9270000D01*
X18420000Y-9230000D02*
X18380000Y-9270000D01*
X18380000Y-11580000D02*
X18420000Y-11620000D01*
X18420000Y-11580000D02*
X18380000Y-11620000D01*
X18405000Y-13480000D02*
X18445000Y-13520000D01*
X18445000Y-13480000D02*
X18405000Y-13520000D01*
X18428000Y-11408000D02*
X18468000Y-11448000D01*
X18468000Y-11408000D02*
X18428000Y-11448000D01*
X18430000Y-12455000D02*
X18470000Y-12495000D01*
X18470000Y-12455000D02*
X18430000Y-12495000D01*
X18430000Y-13030000D02*
X18470000Y-13070000D01*
X18470000Y-13030000D02*
X18430000Y-13070000D01*
X18435000Y-6864000D02*
X18475000Y-6904000D01*
X18475000Y-6864000D02*
X18435000Y-6904000D01*
X18455000Y-7880000D02*
X18495000Y-7920000D01*
X18495000Y-7880000D02*
X18455000Y-7920000D01*
X18480000Y-10830000D02*
X18520000Y-10870000D01*
X18520000Y-10830000D02*
X18480000Y-10870000D01*
X18505000Y-14380000D02*
X18545000Y-14420000D01*
X18545000Y-14380000D02*
X18505000Y-14420000D01*
X18507000Y-7332000D02*
X18547000Y-7372000D01*
X18547000Y-7332000D02*
X18507000Y-7372000D01*
X18555000Y-10355000D02*
X18595000Y-10395000D01*
X18595000Y-10355000D02*
X18555000Y-10395000D01*
X18555000Y-10580000D02*
X18595000Y-10620000D01*
X18595000Y-10580000D02*
X18555000Y-10620000D01*
X18555000Y-12505000D02*
X18595000Y-12545000D01*
X18595000Y-12505000D02*
X18555000Y-12545000D01*
X18557000Y-9448000D02*
X18597000Y-9488000D01*
X18597000Y-9448000D02*
X18557000Y-9488000D01*
X18557000Y-9608000D02*
X18597000Y-9648000D01*
X18597000Y-9608000D02*
X18557000Y-9648000D01*
X18561000Y-8976000D02*
X18601000Y-9016000D01*
X18601000Y-8976000D02*
X18561000Y-9016000D01*
X18561569Y-14323431D02*
X18601569Y-14363431D01*
X18601569Y-14323431D02*
X18561569Y-14363431D01*
X18580000Y-7580000D02*
X18620000Y-7620000D01*
X18620000Y-7580000D02*
X18580000Y-7620000D01*
X18580000Y-13030000D02*
X18620000Y-13070000D01*
X18620000Y-13030000D02*
X18580000Y-13070000D01*
X18584927Y-10850074D02*
X18624927Y-10890074D01*
X18624927Y-10850074D02*
X18584927Y-10890074D01*
X18630000Y-11105000D02*
X18670000Y-11145000D01*
X18670000Y-11105000D02*
X18630000Y-11145000D01*
X18643490Y-8093834D02*
X18683490Y-8133834D01*
X18683490Y-8093834D02*
X18643490Y-8133834D01*
X18655000Y-9080000D02*
X18695000Y-9120000D01*
X18695000Y-9080000D02*
X18655000Y-9120000D01*
X18655000Y-12605000D02*
X18695000Y-12645000D01*
X18695000Y-12605000D02*
X18655000Y-12645000D01*
X18655000Y-14455000D02*
X18695000Y-14495000D01*
X18695000Y-14455000D02*
X18655000Y-14495000D01*
X18705000Y-12930000D02*
X18745000Y-12970000D01*
X18745000Y-12930000D02*
X18705000Y-12970000D01*
X18717000Y-9448000D02*
X18757000Y-9488000D01*
X18757000Y-9448000D02*
X18717000Y-9488000D01*
X18717000Y-9608000D02*
X18757000Y-9648000D01*
X18757000Y-9608000D02*
X18717000Y-9648000D01*
X18730000Y-11255000D02*
X18770000Y-11295000D01*
X18770000Y-11255000D02*
X18730000Y-11295000D01*
X18760000Y-6864000D02*
X18800000Y-6904000D01*
X18800000Y-6864000D02*
X18760000Y-6904000D01*
X18779702Y-9955895D02*
X18819702Y-9995895D01*
X18819702Y-9955895D02*
X18779702Y-9995895D01*
X18780000Y-12730000D02*
X18820000Y-12770000D01*
X18820000Y-12730000D02*
X18780000Y-12770000D01*
X18780000Y-12855000D02*
X18820000Y-12895000D01*
X18820000Y-12855000D02*
X18780000Y-12895000D01*
X18780024Y-10035894D02*
X18820024Y-10075894D01*
X18820024Y-10035894D02*
X18780024Y-10075894D01*
X18805000Y-9880000D02*
X18845000Y-9920000D01*
X18845000Y-9880000D02*
X18805000Y-9920000D01*
X18855000Y-8930000D02*
X18895000Y-8970000D01*
X18895000Y-8930000D02*
X18855000Y-8970000D01*
X18855000Y-14405000D02*
X18895000Y-14445000D01*
X18895000Y-14405000D02*
X18855000Y-14445000D01*
X18880000Y-7755000D02*
X18920000Y-7795000D01*
X18920000Y-7755000D02*
X18880000Y-7795000D01*
X18905000Y-9940000D02*
X18945000Y-9980000D01*
X18945000Y-9940000D02*
X18905000Y-9980000D01*
X18980000Y-9780000D02*
X19020000Y-9820000D01*
X19020000Y-9780000D02*
X18980000Y-9820000D01*
X19043800Y-9855000D02*
X19083800Y-9895000D01*
X19083800Y-9855000D02*
X19043800Y-9895000D01*
X19080000Y-9530000D02*
X19120000Y-9570000D01*
X19120000Y-9530000D02*
X19080000Y-9570000D01*
X19130000Y-7880000D02*
X19170000Y-7920000D01*
X19170000Y-7880000D02*
X19130000Y-7920000D01*
X19135000Y-9853000D02*
X19175000Y-9893000D01*
X19175000Y-9853000D02*
X19135000Y-9893000D01*
X19135000Y-10183000D02*
X19175000Y-10223000D01*
X19175000Y-10183000D02*
X19135000Y-10223000D01*
X19155000Y-14405000D02*
X19195000Y-14445000D01*
X19195000Y-14405000D02*
X19155000Y-14445000D01*
X19205000Y-9330000D02*
X19245000Y-9370000D01*
X19245000Y-9330000D02*
X19205000Y-9370000D01*
X19205000Y-9455000D02*
X19245000Y-9495000D01*
X19245000Y-9455000D02*
X19205000Y-9495000D01*
X19230000Y-9755000D02*
X19270000Y-9795000D01*
X19270000Y-9755000D02*
X19230000Y-9795000D01*
X19230000Y-14480000D02*
X19270000Y-14520000D01*
X19270000Y-14480000D02*
X19230000Y-14520000D01*
X19430000Y-14680000D02*
X19470000Y-14720000D01*
X19470000Y-14680000D02*
X19430000Y-14720000D01*
X20030000Y-13030000D02*
X20070000Y-13070000D01*
X20070000Y-13030000D02*
X20030000Y-13070000D01*
X20155000Y-9955000D02*
X20195000Y-9995000D01*
X20195000Y-9955000D02*
X20155000Y-9995000D01*
X12932500Y-10548000D02*
G75*
G03X12932500Y-10548000I-32500J0D01*
G01*
X12932500Y-11048000D02*
G75*
G03X12932500Y-11048000I-32500J0D01*
G01*
X13182500Y-10798000D02*
G75*
G03X13182500Y-10798000I-32500J0D01*
G01*
X17682500Y-12900000D02*
G75*
G03X17682500Y-12900000I-32500J0D01*
G01*
X17682500Y-13400000D02*
G75*
G03X17682500Y-13400000I-32500J0D01*
G01*
X17932500Y-13150000D02*
G75*
G03X17932500Y-13150000I-32500J0D01*
G01*
X13128000Y-9669500D02*
X13128000Y-9744500D01*
X13090500Y-9707000D02*
X13165500Y-9707000D01*
X13334000Y-9669500D02*
X13334000Y-9744500D01*
X13296500Y-9707000D02*
X13371500Y-9707000D01*
X13540000Y-9669500D02*
X13540000Y-9744500D01*
X13502500Y-9707000D02*
X13577500Y-9707000D01*
X14696000Y-9584500D02*
X14696000Y-9659500D01*
X14658500Y-9622000D02*
X14733500Y-9622000D01*
X14696000Y-9824500D02*
X14696000Y-9899500D01*
X14658500Y-9862000D02*
X14733500Y-9862000D01*
X14892000Y-10704500D02*
X14892000Y-10779500D01*
X14854500Y-10742000D02*
X14929500Y-10742000D01*
X14929000Y-14152500D02*
X14929000Y-14227500D01*
X14891500Y-14190000D02*
X14966500Y-14190000D01*
X15135000Y-14152500D02*
X15135000Y-14227500D01*
X15097500Y-14190000D02*
X15172500Y-14190000D01*
X15341000Y-14152500D02*
X15341000Y-14227500D01*
X15303500Y-14190000D02*
X15378500Y-14190000D01*
X15758000Y-6144500D02*
X15758000Y-6219500D01*
X15720500Y-6182000D02*
X15795500Y-6182000D01*
X16497000Y-14067500D02*
X16497000Y-14142500D01*
X16459500Y-14105000D02*
X16534500Y-14105000D01*
X16497000Y-14307500D02*
X16497000Y-14382500D01*
X16459500Y-14345000D02*
X16534500Y-14345000D01*
X17475000Y-14537500D02*
X17475000Y-14612500D01*
X17437500Y-14575000D02*
X17512500Y-14575000D01*
X17725000Y-14537500D02*
X17725000Y-14612500D01*
X17687500Y-14575000D02*
X17762500Y-14575000D01*
X18025000Y-14537500D02*
X18025000Y-14612500D01*
X17987500Y-14575000D02*
X18062500Y-14575000D01*
X18225000Y-14537500D02*
X18225000Y-14612500D01*
X18187500Y-14575000D02*
X18262500Y-14575000D01*
X18775000Y-14537500D02*
X18775000Y-14612500D01*
X18737500Y-14575000D02*
X18812500Y-14575000D01*
X18975000Y-14537500D02*
X18975000Y-14612500D01*
X18937500Y-14575000D02*
X19012500Y-14575000D01*
X19525000Y-14537500D02*
X19525000Y-14612500D01*
X19487500Y-14575000D02*
X19562500Y-14575000D01*
X19166356Y-6135356D02*
X19166356Y-6064644D01*
X19095644Y-6064644D01*
X19095644Y-6135356D01*
X19166356Y-6135356D01*
X19166356Y-6389356D02*
X19166356Y-6318644D01*
X19095644Y-6318644D01*
X19095644Y-6389356D01*
X19166356Y-6389356D01*
X19210356Y-7140356D02*
X19210356Y-7069644D01*
X19139644Y-7069644D01*
X19139644Y-7140356D01*
X19210356Y-7140356D01*
X19210356Y-7394356D02*
X19210356Y-7323644D01*
X19139644Y-7323644D01*
X19139644Y-7394356D01*
X19210356Y-7394356D01*
X20431356Y-10269356D02*
X20431356Y-10198644D01*
X20360644Y-10198644D01*
X20360644Y-10269356D01*
X20431356Y-10269356D01*
X20431356Y-10523356D02*
X20431356Y-10452644D01*
X20360644Y-10452644D01*
X20360644Y-10523356D01*
X20431356Y-10523356D01*
X20431356Y-10777356D02*
X20431356Y-10706644D01*
X20360644Y-10706644D01*
X20360644Y-10777356D01*
X20431356Y-10777356D01*
X20431356Y-11031356D02*
X20431356Y-10960644D01*
X20360644Y-10960644D01*
X20360644Y-11031356D01*
X20431356Y-11031356D01*
X20431356Y-11285356D02*
X20431356Y-11214644D01*
X20360644Y-11214644D01*
X20360644Y-11285356D01*
X20431356Y-11285356D01*
X20431356Y-12394356D02*
X20431356Y-12323644D01*
X20360644Y-12323644D01*
X20360644Y-12394356D01*
X20431356Y-12394356D01*
X20431356Y-12648356D02*
X20431356Y-12577644D01*
X20360644Y-12577644D01*
X20360644Y-12648356D01*
X20431356Y-12648356D01*
X20431356Y-12902356D02*
X20431356Y-12831644D01*
X20360644Y-12831644D01*
X20360644Y-12902356D01*
X20431356Y-12902356D01*
X20431356Y-13156356D02*
X20431356Y-13085644D01*
X20360644Y-13085644D01*
X20360644Y-13156356D01*
X20431356Y-13156356D01*
X20431356Y-13410356D02*
X20431356Y-13339644D01*
X20360644Y-13339644D01*
X20360644Y-13410356D01*
X20431356Y-13410356D01*
X20685356Y-10269356D02*
X20685356Y-10198644D01*
X20614644Y-10198644D01*
X20614644Y-10269356D01*
X20685356Y-10269356D01*
X20685356Y-10523356D02*
X20685356Y-10452644D01*
X20614644Y-10452644D01*
X20614644Y-10523356D01*
X20685356Y-10523356D01*
X20685356Y-10777356D02*
X20685356Y-10706644D01*
X20614644Y-10706644D01*
X20614644Y-10777356D01*
X20685356Y-10777356D01*
X20685356Y-11031356D02*
X20685356Y-10960644D01*
X20614644Y-10960644D01*
X20614644Y-11031356D01*
X20685356Y-11031356D01*
X20685356Y-11285356D02*
X20685356Y-11214644D01*
X20614644Y-11214644D01*
X20614644Y-11285356D01*
X20685356Y-11285356D01*
X20685356Y-12394356D02*
X20685356Y-12323644D01*
X20614644Y-12323644D01*
X20614644Y-12394356D01*
X20685356Y-12394356D01*
X20685356Y-12648356D02*
X20685356Y-12577644D01*
X20614644Y-12577644D01*
X20614644Y-12648356D01*
X20685356Y-12648356D01*
X20685356Y-12902356D02*
X20685356Y-12831644D01*
X20614644Y-12831644D01*
X20614644Y-12902356D01*
X20685356Y-12902356D01*
X20685356Y-13156356D02*
X20685356Y-13085644D01*
X20614644Y-13085644D01*
X20614644Y-13156356D01*
X20685356Y-13156356D01*
X20685356Y-13410356D02*
X20685356Y-13339644D01*
X20614644Y-13339644D01*
X20614644Y-13410356D01*
X20685356Y-13410356D01*
X19569000Y-6392000D02*
X19620000Y-6341000D01*
X19569000Y-6290000D01*
X19518000Y-6341000D01*
X19569000Y-6392000D01*
X19569000Y-6646000D02*
X19620000Y-6595000D01*
X19569000Y-6544000D01*
X19518000Y-6595000D01*
X19569000Y-6646000D01*
X19569000Y-6900000D02*
X19620000Y-6849000D01*
X19569000Y-6798000D01*
X19518000Y-6849000D01*
X19569000Y-6900000D01*
X19569000Y-7154000D02*
X19620000Y-7103000D01*
X19569000Y-7052000D01*
X19518000Y-7103000D01*
X19569000Y-7154000D01*
X19569000Y-7408000D02*
X19620000Y-7357000D01*
X19569000Y-7306000D01*
X19518000Y-7357000D01*
X19569000Y-7408000D01*
X19569000Y-7662000D02*
X19620000Y-7611000D01*
X19569000Y-7560000D01*
X19518000Y-7611000D01*
X19569000Y-7662000D01*
X19569000Y-7916000D02*
X19620000Y-7865000D01*
X19569000Y-7814000D01*
X19518000Y-7865000D01*
X19569000Y-7916000D01*
X19569000Y-8170000D02*
X19620000Y-8119000D01*
X19569000Y-8068000D01*
X19518000Y-8119000D01*
X19569000Y-8170000D01*
X19569000Y-8424000D02*
X19620000Y-8373000D01*
X19569000Y-8322000D01*
X19518000Y-8373000D01*
X19569000Y-8424000D01*
X19569000Y-8678000D02*
X19620000Y-8627000D01*
X19569000Y-8576000D01*
X19518000Y-8627000D01*
X19569000Y-8678000D01*
X19569000Y-8932000D02*
X19620000Y-8881000D01*
X19569000Y-8830000D01*
X19518000Y-8881000D01*
X19569000Y-8932000D01*
X19569000Y-9186000D02*
X19620000Y-9135000D01*
X19569000Y-9084000D01*
X19518000Y-9135000D01*
X19569000Y-9186000D01*
X19569000Y-9440000D02*
X19620000Y-9389000D01*
X19569000Y-9338000D01*
X19518000Y-9389000D01*
X19569000Y-9440000D01*
X19569000Y-9694000D02*
X19620000Y-9643000D01*
X19569000Y-9592000D01*
X19518000Y-9643000D01*
X19569000Y-9694000D01*
X19569000Y-9948000D02*
X19620000Y-9897000D01*
X19569000Y-9846000D01*
X19518000Y-9897000D01*
X19569000Y-9948000D01*
X19569000Y-10202000D02*
X19620000Y-10151000D01*
X19569000Y-10100000D01*
X19518000Y-10151000D01*
X19569000Y-10202000D01*
X19569000Y-10456000D02*
X19620000Y-10405000D01*
X19569000Y-10354000D01*
X19518000Y-10405000D01*
X19569000Y-10456000D01*
X19569000Y-10710000D02*
X19620000Y-10659000D01*
X19569000Y-10608000D01*
X19518000Y-10659000D01*
X19569000Y-10710000D01*
X19569000Y-10964000D02*
X19620000Y-10913000D01*
X19569000Y-10862000D01*
X19518000Y-10913000D01*
X19569000Y-10964000D01*
X19569000Y-11218000D02*
X19620000Y-11167000D01*
X19569000Y-11116000D01*
X19518000Y-11167000D01*
X19569000Y-11218000D01*
X19569000Y-11472000D02*
X19620000Y-11421000D01*
X19569000Y-11370000D01*
X19518000Y-11421000D01*
X19569000Y-11472000D01*
X19569000Y-11726000D02*
X19620000Y-11675000D01*
X19569000Y-11624000D01*
X19518000Y-11675000D01*
X19569000Y-11726000D01*
X19569000Y-11980000D02*
X19620000Y-11929000D01*
X19569000Y-11878000D01*
X19518000Y-11929000D01*
X19569000Y-11980000D01*
X19569000Y-12234000D02*
X19620000Y-12183000D01*
X19569000Y-12132000D01*
X19518000Y-12183000D01*
X19569000Y-12234000D01*
X19569000Y-12488000D02*
X19620000Y-12437000D01*
X19569000Y-12386000D01*
X19518000Y-12437000D01*
X19569000Y-12488000D01*
X19569000Y-12742000D02*
X19620000Y-12691000D01*
X19569000Y-12640000D01*
X19518000Y-12691000D01*
X19569000Y-12742000D01*
X19569000Y-12996000D02*
X19620000Y-12945000D01*
X19569000Y-12894000D01*
X19518000Y-12945000D01*
X19569000Y-12996000D01*
X19569000Y-13250000D02*
X19620000Y-13199000D01*
X19569000Y-13148000D01*
X19518000Y-13199000D01*
X19569000Y-13250000D01*
X19569000Y-13504000D02*
X19620000Y-13453000D01*
X19569000Y-13402000D01*
X19518000Y-13453000D01*
X19569000Y-13504000D01*
X19569000Y-13758000D02*
X19620000Y-13707000D01*
X19569000Y-13656000D01*
X19518000Y-13707000D01*
X19569000Y-13758000D01*
X19569000Y-14012000D02*
X19620000Y-13961000D01*
X19569000Y-13910000D01*
X19518000Y-13961000D01*
X19569000Y-14012000D01*
X19569000Y-14266000D02*
X19620000Y-14215000D01*
X19569000Y-14164000D01*
X19518000Y-14215000D01*
X19569000Y-14266000D01*
X19823000Y-6392000D02*
X19874000Y-6341000D01*
X19823000Y-6290000D01*
X19772000Y-6341000D01*
X19823000Y-6392000D01*
X19823000Y-6646000D02*
X19874000Y-6595000D01*
X19823000Y-6544000D01*
X19772000Y-6595000D01*
X19823000Y-6646000D01*
X19823000Y-6900000D02*
X19874000Y-6849000D01*
X19823000Y-6798000D01*
X19772000Y-6849000D01*
X19823000Y-6900000D01*
X19823000Y-7154000D02*
X19874000Y-7103000D01*
X19823000Y-7052000D01*
X19772000Y-7103000D01*
X19823000Y-7154000D01*
X19823000Y-7408000D02*
X19874000Y-7357000D01*
X19823000Y-7306000D01*
X19772000Y-7357000D01*
X19823000Y-7408000D01*
X19823000Y-7662000D02*
X19874000Y-7611000D01*
X19823000Y-7560000D01*
X19772000Y-7611000D01*
X19823000Y-7662000D01*
X19823000Y-7916000D02*
X19874000Y-7865000D01*
X19823000Y-7814000D01*
X19772000Y-7865000D01*
X19823000Y-7916000D01*
X19823000Y-8170000D02*
X19874000Y-8119000D01*
X19823000Y-8068000D01*
X19772000Y-8119000D01*
X19823000Y-8170000D01*
X19823000Y-8424000D02*
X19874000Y-8373000D01*
X19823000Y-8322000D01*
X19772000Y-8373000D01*
X19823000Y-8424000D01*
X19823000Y-8678000D02*
X19874000Y-8627000D01*
X19823000Y-8576000D01*
X19772000Y-8627000D01*
X19823000Y-8678000D01*
X19823000Y-8932000D02*
X19874000Y-8881000D01*
X19823000Y-8830000D01*
X19772000Y-8881000D01*
X19823000Y-8932000D01*
X19823000Y-9186000D02*
X19874000Y-9135000D01*
X19823000Y-9084000D01*
X19772000Y-9135000D01*
X19823000Y-9186000D01*
X19823000Y-9440000D02*
X19874000Y-9389000D01*
X19823000Y-9338000D01*
X19772000Y-9389000D01*
X19823000Y-9440000D01*
X19823000Y-9694000D02*
X19874000Y-9643000D01*
X19823000Y-9592000D01*
X19772000Y-9643000D01*
X19823000Y-9694000D01*
X19823000Y-9948000D02*
X19874000Y-9897000D01*
X19823000Y-9846000D01*
X19772000Y-9897000D01*
X19823000Y-9948000D01*
X19823000Y-10202000D02*
X19874000Y-10151000D01*
X19823000Y-10100000D01*
X19772000Y-10151000D01*
X19823000Y-10202000D01*
X19823000Y-10456000D02*
X19874000Y-10405000D01*
X19823000Y-10354000D01*
X19772000Y-10405000D01*
X19823000Y-10456000D01*
X19823000Y-10710000D02*
X19874000Y-10659000D01*
X19823000Y-10608000D01*
X19772000Y-10659000D01*
X19823000Y-10710000D01*
X19823000Y-10964000D02*
X19874000Y-10913000D01*
X19823000Y-10862000D01*
X19772000Y-10913000D01*
X19823000Y-10964000D01*
X19823000Y-11218000D02*
X19874000Y-11167000D01*
X19823000Y-11116000D01*
X19772000Y-11167000D01*
X19823000Y-11218000D01*
X19823000Y-11472000D02*
X19874000Y-11421000D01*
X19823000Y-11370000D01*
X19772000Y-11421000D01*
X19823000Y-11472000D01*
X19823000Y-11726000D02*
X19874000Y-11675000D01*
X19823000Y-11624000D01*
X19772000Y-11675000D01*
X19823000Y-11726000D01*
X19823000Y-11980000D02*
X19874000Y-11929000D01*
X19823000Y-11878000D01*
X19772000Y-11929000D01*
X19823000Y-11980000D01*
X19823000Y-12234000D02*
X19874000Y-12183000D01*
X19823000Y-12132000D01*
X19772000Y-12183000D01*
X19823000Y-12234000D01*
X19823000Y-12488000D02*
X19874000Y-12437000D01*
X19823000Y-12386000D01*
X19772000Y-12437000D01*
X19823000Y-12488000D01*
X19823000Y-12742000D02*
X19874000Y-12691000D01*
X19823000Y-12640000D01*
X19772000Y-12691000D01*
X19823000Y-12742000D01*
X19823000Y-12996000D02*
X19874000Y-12945000D01*
X19823000Y-12894000D01*
X19772000Y-12945000D01*
X19823000Y-12996000D01*
X19823000Y-13250000D02*
X19874000Y-13199000D01*
X19823000Y-13148000D01*
X19772000Y-13199000D01*
X19823000Y-13250000D01*
X19823000Y-13504000D02*
X19874000Y-13453000D01*
X19823000Y-13402000D01*
X19772000Y-13453000D01*
X19823000Y-13504000D01*
X19823000Y-13758000D02*
X19874000Y-13707000D01*
X19823000Y-13656000D01*
X19772000Y-13707000D01*
X19823000Y-13758000D01*
X19823000Y-14012000D02*
X19874000Y-13961000D01*
X19823000Y-13910000D01*
X19772000Y-13961000D01*
X19823000Y-14012000D01*
X19823000Y-14266000D02*
X19874000Y-14215000D01*
X19823000Y-14164000D01*
X19772000Y-14215000D01*
X19823000Y-14266000D01*
X12117000Y-12075000D02*
X12267000Y-12225000D01*
X12267000Y-12075000D02*
X12117000Y-12225000D01*
X12267000Y-12150000D02*
G75*
G03X12267000Y-12150000I-75000J0D01*
G01*
X11858000Y-11816000D02*
X12018000Y-11976000D01*
X12018000Y-11816000D02*
X11858000Y-11976000D01*
X11938000Y-11816000D02*
X11938000Y-11976000D01*
X11858000Y-11896000D02*
X12018000Y-11896000D01*
X11858000Y-12324000D02*
X12018000Y-12484000D01*
X12018000Y-12324000D02*
X11858000Y-12484000D01*
X11938000Y-12324000D02*
X11938000Y-12484000D01*
X11858000Y-12404000D02*
X12018000Y-12404000D01*
X12366000Y-11816000D02*
X12526000Y-11976000D01*
X12526000Y-11816000D02*
X12366000Y-11976000D01*
X12446000Y-11816000D02*
X12446000Y-11976000D01*
X12366000Y-11896000D02*
X12526000Y-11896000D01*
X12366000Y-12324000D02*
X12526000Y-12484000D01*
X12526000Y-12324000D02*
X12366000Y-12484000D01*
X12446000Y-12324000D02*
X12446000Y-12484000D01*
X12366000Y-12404000D02*
X12526000Y-12404000D01*
X11599000Y-6436000D02*
X11917000Y-6754000D01*
X11917000Y-6436000D02*
X11599000Y-6754000D01*
X11870431Y-6707431D02*
X11870431Y-6482569D01*
X11645569Y-6482569D01*
X11645569Y-6707431D01*
X11870431Y-6707431D01*
X11599000Y-13802000D02*
X11917000Y-14120000D01*
X11917000Y-13802000D02*
X11599000Y-14120000D01*
X11870431Y-14073431D02*
X11870431Y-13848569D01*
X11645569Y-13848569D01*
X11645569Y-14073431D01*
X11870431Y-14073431D01*
X20172000Y-6182000D02*
X20490000Y-6500000D01*
X20490000Y-6182000D02*
X20172000Y-6500000D01*
X20443431Y-6453431D02*
X20443431Y-6228569D01*
X20218569Y-6228569D01*
X20218569Y-6453431D01*
X20443431Y-6453431D01*
X20172000Y-14183000D02*
X20490000Y-14501000D01*
X20490000Y-14183000D02*
X20172000Y-14501000D01*
X20443431Y-14454431D02*
X20443431Y-14229569D01*
X20218569Y-14229569D01*
X20218569Y-14454431D01*
X20443431Y-14454431D01*
X15044500Y-6213500D02*
X15179500Y-6348500D01*
X15179500Y-6213500D02*
X15044500Y-6348500D01*
X15112000Y-6348500D02*
X15179500Y-6281000D01*
X15112000Y-6213500D01*
X15044500Y-6281000D01*
X15112000Y-6348500D01*
D13*
X11516428Y-15320714D02*
X11516428Y-15020714D01*
X11587857Y-15020714D01*
X11630714Y-15035000D01*
X11659286Y-15063571D01*
X11673571Y-15092143D01*
X11687857Y-15149286D01*
X11687857Y-15192143D01*
X11673571Y-15249286D01*
X11659286Y-15277857D01*
X11630714Y-15306429D01*
X11587857Y-15320714D01*
X11516428Y-15320714D01*
X11816428Y-15320714D02*
X11816428Y-15120714D01*
X11816428Y-15177857D02*
X11830714Y-15149286D01*
X11845000Y-15135000D01*
X11873571Y-15120714D01*
X11902143Y-15120714D01*
X12002143Y-15320714D02*
X12002143Y-15120714D01*
X12002143Y-15020714D02*
X11987857Y-15035000D01*
X12002143Y-15049286D01*
X12016428Y-15035000D01*
X12002143Y-15020714D01*
X12002143Y-15049286D01*
X12187857Y-15320714D02*
X12159286Y-15306429D01*
X12145000Y-15277857D01*
X12145000Y-15020714D01*
X12345000Y-15320714D02*
X12316428Y-15306429D01*
X12302143Y-15277857D01*
X12302143Y-15020714D01*
X12687857Y-15320714D02*
X12687857Y-15020714D01*
X12787857Y-15235000D01*
X12887857Y-15020714D01*
X12887857Y-15320714D01*
X13159286Y-15320714D02*
X13159286Y-15163571D01*
X13145000Y-15135000D01*
X13116428Y-15120714D01*
X13059286Y-15120714D01*
X13030714Y-15135000D01*
X13159286Y-15306429D02*
X13130714Y-15320714D01*
X13059286Y-15320714D01*
X13030714Y-15306429D01*
X13016428Y-15277857D01*
X13016428Y-15249286D01*
X13030714Y-15220714D01*
X13059286Y-15206429D01*
X13130714Y-15206429D01*
X13159286Y-15192143D01*
X13302143Y-15120714D02*
X13302143Y-15420714D01*
X13302143Y-15135000D02*
X13330714Y-15120714D01*
X13387857Y-15120714D01*
X13416428Y-15135000D01*
X13430714Y-15149286D01*
X13445000Y-15177857D01*
X13445000Y-15263571D01*
X13430714Y-15292143D01*
X13416428Y-15306429D01*
X13387857Y-15320714D01*
X13330714Y-15320714D01*
X13302143Y-15306429D01*
X13573571Y-15292143D02*
X13587857Y-15306429D01*
X13573571Y-15320714D01*
X13559286Y-15306429D01*
X13573571Y-15292143D01*
X13573571Y-15320714D01*
X13573571Y-15135000D02*
X13587857Y-15149286D01*
X13573571Y-15163571D01*
X13559286Y-15149286D01*
X13573571Y-15135000D01*
X13573571Y-15163571D01*
X11205000Y-15795000D02*
X11245000Y-15835000D01*
X11245000Y-15795000D02*
X11205000Y-15835000D01*
X11573571Y-15650714D02*
X11602143Y-15650714D01*
X11630714Y-15665000D01*
X11645000Y-15679286D01*
X11659286Y-15707857D01*
X11673571Y-15765000D01*
X11673571Y-15836429D01*
X11659286Y-15893571D01*
X11645000Y-15922143D01*
X11630714Y-15936429D01*
X11602143Y-15950714D01*
X11573571Y-15950714D01*
X11545000Y-15936429D01*
X11530714Y-15922143D01*
X11516428Y-15893571D01*
X11502143Y-15836429D01*
X11502143Y-15765000D01*
X11516428Y-15707857D01*
X11530714Y-15679286D01*
X11545000Y-15665000D01*
X11573571Y-15650714D01*
X11802143Y-15922143D02*
X11816428Y-15936429D01*
X11802143Y-15950714D01*
X11787857Y-15936429D01*
X11802143Y-15922143D01*
X11802143Y-15950714D01*
X12073571Y-15750714D02*
X12073571Y-15950714D01*
X12002143Y-15636429D02*
X11930714Y-15850714D01*
X12116428Y-15850714D01*
X12287857Y-15650714D02*
X12316428Y-15650714D01*
X12345000Y-15665000D01*
X12359286Y-15679286D01*
X12373571Y-15707857D01*
X12387857Y-15765000D01*
X12387857Y-15836429D01*
X12373571Y-15893571D01*
X12359286Y-15922143D01*
X12345000Y-15936429D01*
X12316428Y-15950714D01*
X12287857Y-15950714D01*
X12259286Y-15936429D01*
X12245000Y-15922143D01*
X12230714Y-15893571D01*
X12216428Y-15836429D01*
X12216428Y-15765000D01*
X12230714Y-15707857D01*
X12245000Y-15679286D01*
X12259286Y-15665000D01*
X12287857Y-15650714D01*
X12516428Y-15950714D02*
X12516428Y-15750714D01*
X12516428Y-15779286D02*
X12530714Y-15765000D01*
X12559286Y-15750714D01*
X12602143Y-15750714D01*
X12630714Y-15765000D01*
X12645000Y-15793571D01*
X12645000Y-15950714D01*
X12645000Y-15793571D02*
X12659286Y-15765000D01*
X12687857Y-15750714D01*
X12730714Y-15750714D01*
X12759286Y-15765000D01*
X12773571Y-15793571D01*
X12773571Y-15950714D01*
X12916428Y-15950714D02*
X12916428Y-15750714D01*
X12916428Y-15779286D02*
X12930714Y-15765000D01*
X12959286Y-15750714D01*
X13002143Y-15750714D01*
X13030714Y-15765000D01*
X13045000Y-15793571D01*
X13045000Y-15950714D01*
X13045000Y-15793571D02*
X13059286Y-15765000D01*
X13087857Y-15750714D01*
X13130714Y-15750714D01*
X13159286Y-15765000D01*
X13173571Y-15793571D01*
X13173571Y-15950714D01*
X13759286Y-15636429D02*
X13502143Y-16022143D01*
X14145000Y-15650714D02*
X14173571Y-15650714D01*
X14202143Y-15665000D01*
X14216428Y-15679286D01*
X14230714Y-15707857D01*
X14245000Y-15765000D01*
X14245000Y-15836429D01*
X14230714Y-15893571D01*
X14216428Y-15922143D01*
X14202143Y-15936429D01*
X14173571Y-15950714D01*
X14145000Y-15950714D01*
X14116428Y-15936429D01*
X14102143Y-15922143D01*
X14087857Y-15893571D01*
X14073571Y-15836429D01*
X14073571Y-15765000D01*
X14087857Y-15707857D01*
X14102143Y-15679286D01*
X14116428Y-15665000D01*
X14145000Y-15650714D01*
X14373571Y-15922143D02*
X14387857Y-15936429D01*
X14373571Y-15950714D01*
X14359286Y-15936429D01*
X14373571Y-15922143D01*
X14373571Y-15950714D01*
X14573571Y-15650714D02*
X14602143Y-15650714D01*
X14630714Y-15665000D01*
X14645000Y-15679286D01*
X14659285Y-15707857D01*
X14673571Y-15765000D01*
X14673571Y-15836429D01*
X14659285Y-15893571D01*
X14645000Y-15922143D01*
X14630714Y-15936429D01*
X14602143Y-15950714D01*
X14573571Y-15950714D01*
X14545000Y-15936429D01*
X14530714Y-15922143D01*
X14516428Y-15893571D01*
X14502143Y-15836429D01*
X14502143Y-15765000D01*
X14516428Y-15707857D01*
X14530714Y-15679286D01*
X14545000Y-15665000D01*
X14573571Y-15650714D01*
X14959285Y-15950714D02*
X14787857Y-15950714D01*
X14873571Y-15950714D02*
X14873571Y-15650714D01*
X14845000Y-15693571D01*
X14816428Y-15722143D01*
X14787857Y-15736429D01*
X15216428Y-15650714D02*
X15159285Y-15650714D01*
X15130714Y-15665000D01*
X15116428Y-15679286D01*
X15087857Y-15722143D01*
X15073571Y-15779286D01*
X15073571Y-15893571D01*
X15087857Y-15922143D01*
X15102143Y-15936429D01*
X15130714Y-15950714D01*
X15187857Y-15950714D01*
X15216428Y-15936429D01*
X15230714Y-15922143D01*
X15245000Y-15893571D01*
X15245000Y-15822143D01*
X15230714Y-15793571D01*
X15216428Y-15779286D01*
X15187857Y-15765000D01*
X15130714Y-15765000D01*
X15102143Y-15779286D01*
X15087857Y-15793571D01*
X15073571Y-15822143D01*
X15359286Y-15650714D02*
X15359286Y-15707857D01*
X15473571Y-15650714D02*
X15473571Y-15707857D01*
X15916428Y-16065000D02*
X15902143Y-16050714D01*
X15873571Y-16007857D01*
X15859285Y-15979286D01*
X15845000Y-15936429D01*
X15830714Y-15865000D01*
X15830714Y-15807857D01*
X15845000Y-15736429D01*
X15859285Y-15693571D01*
X15873571Y-15665000D01*
X15902143Y-15622143D01*
X15916428Y-15607857D01*
X16159285Y-15650714D02*
X16102143Y-15650714D01*
X16073571Y-15665000D01*
X16059285Y-15679286D01*
X16030714Y-15722143D01*
X16016428Y-15779286D01*
X16016428Y-15893571D01*
X16030714Y-15922143D01*
X16045000Y-15936429D01*
X16073571Y-15950714D01*
X16130714Y-15950714D01*
X16159285Y-15936429D01*
X16173571Y-15922143D01*
X16187857Y-15893571D01*
X16187857Y-15822143D01*
X16173571Y-15793571D01*
X16159285Y-15779286D01*
X16130714Y-15765000D01*
X16073571Y-15765000D01*
X16045000Y-15779286D01*
X16030714Y-15793571D01*
X16016428Y-15822143D01*
X16445000Y-15750714D02*
X16445000Y-15950714D01*
X16373571Y-15636429D02*
X16302143Y-15850714D01*
X16487857Y-15850714D01*
X16616428Y-15950714D02*
X16673571Y-15950714D01*
X16702143Y-15936429D01*
X16716428Y-15922143D01*
X16745000Y-15879286D01*
X16759285Y-15822143D01*
X16759285Y-15707857D01*
X16745000Y-15679286D01*
X16730714Y-15665000D01*
X16702143Y-15650714D01*
X16645000Y-15650714D01*
X16616428Y-15665000D01*
X16602143Y-15679286D01*
X16587857Y-15707857D01*
X16587857Y-15779286D01*
X16602143Y-15807857D01*
X16616428Y-15822143D01*
X16645000Y-15836429D01*
X16702143Y-15836429D01*
X16730714Y-15822143D01*
X16745000Y-15807857D01*
X16759285Y-15779286D01*
X17116428Y-15950714D02*
X17116428Y-15650714D01*
X17245000Y-15950714D02*
X17245000Y-15793571D01*
X17230714Y-15765000D01*
X17202143Y-15750714D01*
X17159286Y-15750714D01*
X17130714Y-15765000D01*
X17116428Y-15779286D01*
X17430714Y-15950714D02*
X17402143Y-15936429D01*
X17387857Y-15922143D01*
X17373571Y-15893571D01*
X17373571Y-15807857D01*
X17387857Y-15779286D01*
X17402143Y-15765000D01*
X17430714Y-15750714D01*
X17473571Y-15750714D01*
X17502143Y-15765000D01*
X17516428Y-15779286D01*
X17530714Y-15807857D01*
X17530714Y-15893571D01*
X17516428Y-15922143D01*
X17502143Y-15936429D01*
X17473571Y-15950714D01*
X17430714Y-15950714D01*
X17702143Y-15950714D02*
X17673571Y-15936429D01*
X17659286Y-15907857D01*
X17659286Y-15650714D01*
X17930714Y-15936429D02*
X17902143Y-15950714D01*
X17845000Y-15950714D01*
X17816429Y-15936429D01*
X17802143Y-15907857D01*
X17802143Y-15793571D01*
X17816429Y-15765000D01*
X17845000Y-15750714D01*
X17902143Y-15750714D01*
X17930714Y-15765000D01*
X17945000Y-15793571D01*
X17945000Y-15822143D01*
X17802143Y-15850714D01*
X18059286Y-15936429D02*
X18087857Y-15950714D01*
X18145000Y-15950714D01*
X18173571Y-15936429D01*
X18187857Y-15907857D01*
X18187857Y-15893571D01*
X18173571Y-15865000D01*
X18145000Y-15850714D01*
X18102143Y-15850714D01*
X18073571Y-15836429D01*
X18059286Y-15807857D01*
X18059286Y-15793571D01*
X18073571Y-15765000D01*
X18102143Y-15750714D01*
X18145000Y-15750714D01*
X18173571Y-15765000D01*
X18287857Y-16065000D02*
X18302143Y-16050714D01*
X18330714Y-16007857D01*
X18345000Y-15979286D01*
X18359286Y-15936429D01*
X18373571Y-15865000D01*
X18373571Y-15807857D01*
X18359286Y-15736429D01*
X18345000Y-15693571D01*
X18330714Y-15665000D01*
X18302143Y-15622143D01*
X18287857Y-15607857D01*
X11245000Y-16211000D02*
G75*
G03X11245000Y-16211000I-32500J0D01*
G01*
X11573571Y-16046714D02*
X11602143Y-16046714D01*
X11630714Y-16061000D01*
X11645000Y-16075286D01*
X11659286Y-16103857D01*
X11673571Y-16161000D01*
X11673571Y-16232429D01*
X11659286Y-16289571D01*
X11645000Y-16318143D01*
X11630714Y-16332429D01*
X11602143Y-16346714D01*
X11573571Y-16346714D01*
X11545000Y-16332429D01*
X11530714Y-16318143D01*
X11516428Y-16289571D01*
X11502143Y-16232429D01*
X11502143Y-16161000D01*
X11516428Y-16103857D01*
X11530714Y-16075286D01*
X11545000Y-16061000D01*
X11573571Y-16046714D01*
X11802143Y-16318143D02*
X11816428Y-16332429D01*
X11802143Y-16346714D01*
X11787857Y-16332429D01*
X11802143Y-16318143D01*
X11802143Y-16346714D01*
X12073571Y-16046714D02*
X12016428Y-16046714D01*
X11987857Y-16061000D01*
X11973571Y-16075286D01*
X11945000Y-16118143D01*
X11930714Y-16175286D01*
X11930714Y-16289571D01*
X11945000Y-16318143D01*
X11959286Y-16332429D01*
X11987857Y-16346714D01*
X12045000Y-16346714D01*
X12073571Y-16332429D01*
X12087857Y-16318143D01*
X12102143Y-16289571D01*
X12102143Y-16218143D01*
X12087857Y-16189571D01*
X12073571Y-16175286D01*
X12045000Y-16161000D01*
X11987857Y-16161000D01*
X11959286Y-16175286D01*
X11945000Y-16189571D01*
X11930714Y-16218143D01*
X12373571Y-16046714D02*
X12230714Y-16046714D01*
X12216428Y-16189571D01*
X12230714Y-16175286D01*
X12259286Y-16161000D01*
X12330714Y-16161000D01*
X12359286Y-16175286D01*
X12373571Y-16189571D01*
X12387857Y-16218143D01*
X12387857Y-16289571D01*
X12373571Y-16318143D01*
X12359286Y-16332429D01*
X12330714Y-16346714D01*
X12259286Y-16346714D01*
X12230714Y-16332429D01*
X12216428Y-16318143D01*
X12516428Y-16346714D02*
X12516428Y-16146714D01*
X12516428Y-16175286D02*
X12530714Y-16161000D01*
X12559286Y-16146714D01*
X12602143Y-16146714D01*
X12630714Y-16161000D01*
X12645000Y-16189571D01*
X12645000Y-16346714D01*
X12645000Y-16189571D02*
X12659286Y-16161000D01*
X12687857Y-16146714D01*
X12730714Y-16146714D01*
X12759286Y-16161000D01*
X12773571Y-16189571D01*
X12773571Y-16346714D01*
X12916428Y-16346714D02*
X12916428Y-16146714D01*
X12916428Y-16175286D02*
X12930714Y-16161000D01*
X12959286Y-16146714D01*
X13002143Y-16146714D01*
X13030714Y-16161000D01*
X13045000Y-16189571D01*
X13045000Y-16346714D01*
X13045000Y-16189571D02*
X13059286Y-16161000D01*
X13087857Y-16146714D01*
X13130714Y-16146714D01*
X13159286Y-16161000D01*
X13173571Y-16189571D01*
X13173571Y-16346714D01*
X13759286Y-16032429D02*
X13502143Y-16418143D01*
X14145000Y-16046714D02*
X14173571Y-16046714D01*
X14202143Y-16061000D01*
X14216428Y-16075286D01*
X14230714Y-16103857D01*
X14245000Y-16161000D01*
X14245000Y-16232429D01*
X14230714Y-16289571D01*
X14216428Y-16318143D01*
X14202143Y-16332429D01*
X14173571Y-16346714D01*
X14145000Y-16346714D01*
X14116428Y-16332429D01*
X14102143Y-16318143D01*
X14087857Y-16289571D01*
X14073571Y-16232429D01*
X14073571Y-16161000D01*
X14087857Y-16103857D01*
X14102143Y-16075286D01*
X14116428Y-16061000D01*
X14145000Y-16046714D01*
X14373571Y-16318143D02*
X14387857Y-16332429D01*
X14373571Y-16346714D01*
X14359286Y-16332429D01*
X14373571Y-16318143D01*
X14373571Y-16346714D01*
X14573571Y-16046714D02*
X14602143Y-16046714D01*
X14630714Y-16061000D01*
X14645000Y-16075286D01*
X14659285Y-16103857D01*
X14673571Y-16161000D01*
X14673571Y-16232429D01*
X14659285Y-16289571D01*
X14645000Y-16318143D01*
X14630714Y-16332429D01*
X14602143Y-16346714D01*
X14573571Y-16346714D01*
X14545000Y-16332429D01*
X14530714Y-16318143D01*
X14516428Y-16289571D01*
X14502143Y-16232429D01*
X14502143Y-16161000D01*
X14516428Y-16103857D01*
X14530714Y-16075286D01*
X14545000Y-16061000D01*
X14573571Y-16046714D01*
X14787857Y-16075286D02*
X14802143Y-16061000D01*
X14830714Y-16046714D01*
X14902143Y-16046714D01*
X14930714Y-16061000D01*
X14945000Y-16075286D01*
X14959285Y-16103857D01*
X14959285Y-16132429D01*
X14945000Y-16175286D01*
X14773571Y-16346714D01*
X14959285Y-16346714D01*
X15216428Y-16046714D02*
X15159285Y-16046714D01*
X15130714Y-16061000D01*
X15116428Y-16075286D01*
X15087857Y-16118143D01*
X15073571Y-16175286D01*
X15073571Y-16289571D01*
X15087857Y-16318143D01*
X15102143Y-16332429D01*
X15130714Y-16346714D01*
X15187857Y-16346714D01*
X15216428Y-16332429D01*
X15230714Y-16318143D01*
X15245000Y-16289571D01*
X15245000Y-16218143D01*
X15230714Y-16189571D01*
X15216428Y-16175286D01*
X15187857Y-16161000D01*
X15130714Y-16161000D01*
X15102143Y-16175286D01*
X15087857Y-16189571D01*
X15073571Y-16218143D01*
X15359286Y-16046714D02*
X15359286Y-16103857D01*
X15473571Y-16046714D02*
X15473571Y-16103857D01*
X15916428Y-16461000D02*
X15902143Y-16446714D01*
X15873571Y-16403857D01*
X15859285Y-16375286D01*
X15845000Y-16332429D01*
X15830714Y-16261000D01*
X15830714Y-16203857D01*
X15845000Y-16132429D01*
X15859285Y-16089571D01*
X15873571Y-16061000D01*
X15902143Y-16018143D01*
X15916428Y-16003857D01*
X16159285Y-16046714D02*
X16102143Y-16046714D01*
X16073571Y-16061000D01*
X16059285Y-16075286D01*
X16030714Y-16118143D01*
X16016428Y-16175286D01*
X16016428Y-16289571D01*
X16030714Y-16318143D01*
X16045000Y-16332429D01*
X16073571Y-16346714D01*
X16130714Y-16346714D01*
X16159285Y-16332429D01*
X16173571Y-16318143D01*
X16187857Y-16289571D01*
X16187857Y-16218143D01*
X16173571Y-16189571D01*
X16159285Y-16175286D01*
X16130714Y-16161000D01*
X16073571Y-16161000D01*
X16045000Y-16175286D01*
X16030714Y-16189571D01*
X16016428Y-16218143D01*
X16545000Y-16346714D02*
X16545000Y-16046714D01*
X16673571Y-16346714D02*
X16673571Y-16189571D01*
X16659285Y-16161000D01*
X16630714Y-16146714D01*
X16587857Y-16146714D01*
X16559285Y-16161000D01*
X16545000Y-16175286D01*
X16859286Y-16346714D02*
X16830714Y-16332429D01*
X16816428Y-16318143D01*
X16802143Y-16289571D01*
X16802143Y-16203857D01*
X16816428Y-16175286D01*
X16830714Y-16161000D01*
X16859286Y-16146714D01*
X16902143Y-16146714D01*
X16930714Y-16161000D01*
X16945000Y-16175286D01*
X16959286Y-16203857D01*
X16959286Y-16289571D01*
X16945000Y-16318143D01*
X16930714Y-16332429D01*
X16902143Y-16346714D01*
X16859286Y-16346714D01*
X17130714Y-16346714D02*
X17102143Y-16332429D01*
X17087857Y-16303857D01*
X17087857Y-16046714D01*
X17359286Y-16332429D02*
X17330714Y-16346714D01*
X17273571Y-16346714D01*
X17245000Y-16332429D01*
X17230714Y-16303857D01*
X17230714Y-16189571D01*
X17245000Y-16161000D01*
X17273571Y-16146714D01*
X17330714Y-16146714D01*
X17359286Y-16161000D01*
X17373571Y-16189571D01*
X17373571Y-16218143D01*
X17230714Y-16246714D01*
X17487857Y-16332429D02*
X17516429Y-16346714D01*
X17573571Y-16346714D01*
X17602143Y-16332429D01*
X17616429Y-16303857D01*
X17616429Y-16289571D01*
X17602143Y-16261000D01*
X17573571Y-16246714D01*
X17530714Y-16246714D01*
X17502143Y-16232429D01*
X17487857Y-16203857D01*
X17487857Y-16189571D01*
X17502143Y-16161000D01*
X17530714Y-16146714D01*
X17573571Y-16146714D01*
X17602143Y-16161000D01*
X17716428Y-16461000D02*
X17730714Y-16446714D01*
X17759286Y-16403857D01*
X17773571Y-16375286D01*
X17787857Y-16332429D01*
X17802143Y-16261000D01*
X17802143Y-16203857D01*
X17787857Y-16132429D01*
X17773571Y-16089571D01*
X17759286Y-16061000D01*
X17730714Y-16018143D01*
X17716428Y-16003857D01*
X11207500Y-16569500D02*
X11207500Y-16644500D01*
X11170000Y-16607000D02*
X11245000Y-16607000D01*
X11573571Y-16442714D02*
X11602143Y-16442714D01*
X11630714Y-16457000D01*
X11645000Y-16471286D01*
X11659286Y-16499857D01*
X11673571Y-16557000D01*
X11673571Y-16628429D01*
X11659286Y-16685571D01*
X11645000Y-16714143D01*
X11630714Y-16728429D01*
X11602143Y-16742714D01*
X11573571Y-16742714D01*
X11545000Y-16728429D01*
X11530714Y-16714143D01*
X11516428Y-16685571D01*
X11502143Y-16628429D01*
X11502143Y-16557000D01*
X11516428Y-16499857D01*
X11530714Y-16471286D01*
X11545000Y-16457000D01*
X11573571Y-16442714D01*
X11802143Y-16714143D02*
X11816428Y-16728429D01*
X11802143Y-16742714D01*
X11787857Y-16728429D01*
X11802143Y-16714143D01*
X11802143Y-16742714D01*
X11916428Y-16442714D02*
X12116428Y-16442714D01*
X11987857Y-16742714D01*
X12373571Y-16442714D02*
X12230714Y-16442714D01*
X12216428Y-16585571D01*
X12230714Y-16571286D01*
X12259286Y-16557000D01*
X12330714Y-16557000D01*
X12359286Y-16571286D01*
X12373571Y-16585571D01*
X12387857Y-16614143D01*
X12387857Y-16685571D01*
X12373571Y-16714143D01*
X12359286Y-16728429D01*
X12330714Y-16742714D01*
X12259286Y-16742714D01*
X12230714Y-16728429D01*
X12216428Y-16714143D01*
X12516428Y-16742714D02*
X12516428Y-16542714D01*
X12516428Y-16571286D02*
X12530714Y-16557000D01*
X12559286Y-16542714D01*
X12602143Y-16542714D01*
X12630714Y-16557000D01*
X12645000Y-16585571D01*
X12645000Y-16742714D01*
X12645000Y-16585571D02*
X12659286Y-16557000D01*
X12687857Y-16542714D01*
X12730714Y-16542714D01*
X12759286Y-16557000D01*
X12773571Y-16585571D01*
X12773571Y-16742714D01*
X12916428Y-16742714D02*
X12916428Y-16542714D01*
X12916428Y-16571286D02*
X12930714Y-16557000D01*
X12959286Y-16542714D01*
X13002143Y-16542714D01*
X13030714Y-16557000D01*
X13045000Y-16585571D01*
X13045000Y-16742714D01*
X13045000Y-16585571D02*
X13059286Y-16557000D01*
X13087857Y-16542714D01*
X13130714Y-16542714D01*
X13159286Y-16557000D01*
X13173571Y-16585571D01*
X13173571Y-16742714D01*
X13759286Y-16428429D02*
X13502143Y-16814143D01*
X14145000Y-16442714D02*
X14173571Y-16442714D01*
X14202143Y-16457000D01*
X14216428Y-16471286D01*
X14230714Y-16499857D01*
X14245000Y-16557000D01*
X14245000Y-16628429D01*
X14230714Y-16685571D01*
X14216428Y-16714143D01*
X14202143Y-16728429D01*
X14173571Y-16742714D01*
X14145000Y-16742714D01*
X14116428Y-16728429D01*
X14102143Y-16714143D01*
X14087857Y-16685571D01*
X14073571Y-16628429D01*
X14073571Y-16557000D01*
X14087857Y-16499857D01*
X14102143Y-16471286D01*
X14116428Y-16457000D01*
X14145000Y-16442714D01*
X14373571Y-16714143D02*
X14387857Y-16728429D01*
X14373571Y-16742714D01*
X14359286Y-16728429D01*
X14373571Y-16714143D01*
X14373571Y-16742714D01*
X14573571Y-16442714D02*
X14602143Y-16442714D01*
X14630714Y-16457000D01*
X14645000Y-16471286D01*
X14659285Y-16499857D01*
X14673571Y-16557000D01*
X14673571Y-16628429D01*
X14659285Y-16685571D01*
X14645000Y-16714143D01*
X14630714Y-16728429D01*
X14602143Y-16742714D01*
X14573571Y-16742714D01*
X14545000Y-16728429D01*
X14530714Y-16714143D01*
X14516428Y-16685571D01*
X14502143Y-16628429D01*
X14502143Y-16557000D01*
X14516428Y-16499857D01*
X14530714Y-16471286D01*
X14545000Y-16457000D01*
X14573571Y-16442714D01*
X14773571Y-16442714D02*
X14959285Y-16442714D01*
X14859285Y-16557000D01*
X14902143Y-16557000D01*
X14930714Y-16571286D01*
X14945000Y-16585571D01*
X14959285Y-16614143D01*
X14959285Y-16685571D01*
X14945000Y-16714143D01*
X14930714Y-16728429D01*
X14902143Y-16742714D01*
X14816428Y-16742714D01*
X14787857Y-16728429D01*
X14773571Y-16714143D01*
X15145000Y-16442714D02*
X15173571Y-16442714D01*
X15202143Y-16457000D01*
X15216428Y-16471286D01*
X15230714Y-16499857D01*
X15245000Y-16557000D01*
X15245000Y-16628429D01*
X15230714Y-16685571D01*
X15216428Y-16714143D01*
X15202143Y-16728429D01*
X15173571Y-16742714D01*
X15145000Y-16742714D01*
X15116428Y-16728429D01*
X15102143Y-16714143D01*
X15087857Y-16685571D01*
X15073571Y-16628429D01*
X15073571Y-16557000D01*
X15087857Y-16499857D01*
X15102143Y-16471286D01*
X15116428Y-16457000D01*
X15145000Y-16442714D01*
X15359286Y-16442714D02*
X15359286Y-16499857D01*
X15473571Y-16442714D02*
X15473571Y-16499857D01*
X15916428Y-16857000D02*
X15902143Y-16842714D01*
X15873571Y-16799857D01*
X15859285Y-16771286D01*
X15845000Y-16728429D01*
X15830714Y-16657000D01*
X15830714Y-16599857D01*
X15845000Y-16528429D01*
X15859285Y-16485571D01*
X15873571Y-16457000D01*
X15902143Y-16414143D01*
X15916428Y-16399857D01*
X16187857Y-16742714D02*
X16016428Y-16742714D01*
X16102143Y-16742714D02*
X16102143Y-16442714D01*
X16073571Y-16485571D01*
X16045000Y-16514143D01*
X16016428Y-16528429D01*
X16330714Y-16742714D02*
X16387857Y-16742714D01*
X16416428Y-16728429D01*
X16430714Y-16714143D01*
X16459285Y-16671286D01*
X16473571Y-16614143D01*
X16473571Y-16499857D01*
X16459285Y-16471286D01*
X16445000Y-16457000D01*
X16416428Y-16442714D01*
X16359285Y-16442714D01*
X16330714Y-16457000D01*
X16316428Y-16471286D01*
X16302143Y-16499857D01*
X16302143Y-16571286D01*
X16316428Y-16599857D01*
X16330714Y-16614143D01*
X16359285Y-16628429D01*
X16416428Y-16628429D01*
X16445000Y-16614143D01*
X16459285Y-16599857D01*
X16473571Y-16571286D01*
X16830714Y-16742714D02*
X16830714Y-16442714D01*
X16959286Y-16742714D02*
X16959286Y-16585571D01*
X16945000Y-16557000D01*
X16916428Y-16542714D01*
X16873571Y-16542714D01*
X16845000Y-16557000D01*
X16830714Y-16571286D01*
X17145000Y-16742714D02*
X17116428Y-16728429D01*
X17102143Y-16714143D01*
X17087857Y-16685571D01*
X17087857Y-16599857D01*
X17102143Y-16571286D01*
X17116428Y-16557000D01*
X17145000Y-16542714D01*
X17187857Y-16542714D01*
X17216428Y-16557000D01*
X17230714Y-16571286D01*
X17245000Y-16599857D01*
X17245000Y-16685571D01*
X17230714Y-16714143D01*
X17216428Y-16728429D01*
X17187857Y-16742714D01*
X17145000Y-16742714D01*
X17416428Y-16742714D02*
X17387857Y-16728429D01*
X17373571Y-16699857D01*
X17373571Y-16442714D01*
X17645000Y-16728429D02*
X17616429Y-16742714D01*
X17559286Y-16742714D01*
X17530714Y-16728429D01*
X17516429Y-16699857D01*
X17516429Y-16585571D01*
X17530714Y-16557000D01*
X17559286Y-16542714D01*
X17616429Y-16542714D01*
X17645000Y-16557000D01*
X17659286Y-16585571D01*
X17659286Y-16614143D01*
X17516429Y-16642714D01*
X17773571Y-16728429D02*
X17802143Y-16742714D01*
X17859286Y-16742714D01*
X17887857Y-16728429D01*
X17902143Y-16699857D01*
X17902143Y-16685571D01*
X17887857Y-16657000D01*
X17859286Y-16642714D01*
X17816429Y-16642714D01*
X17787857Y-16628429D01*
X17773571Y-16599857D01*
X17773571Y-16585571D01*
X17787857Y-16557000D01*
X17816429Y-16542714D01*
X17859286Y-16542714D01*
X17887857Y-16557000D01*
X18002143Y-16857000D02*
X18016429Y-16842714D01*
X18045000Y-16799857D01*
X18059286Y-16771286D01*
X18073571Y-16728429D01*
X18087857Y-16657000D01*
X18087857Y-16599857D01*
X18073571Y-16528429D01*
X18059286Y-16485571D01*
X18045000Y-16457000D01*
X18016429Y-16414143D01*
X18002143Y-16399857D01*
X11230356Y-17038356D02*
X11230356Y-16967644D01*
X11159644Y-16967644D01*
X11159644Y-17038356D01*
X11230356Y-17038356D01*
X11673571Y-17138714D02*
X11502143Y-17138714D01*
X11587857Y-17138714D02*
X11587857Y-16838714D01*
X11559286Y-16881572D01*
X11530714Y-16910143D01*
X11502143Y-16924429D01*
X11802143Y-17110143D02*
X11816428Y-17124429D01*
X11802143Y-17138714D01*
X11787857Y-17124429D01*
X11802143Y-17110143D01*
X11802143Y-17138714D01*
X12002143Y-16838714D02*
X12030714Y-16838714D01*
X12059286Y-16853000D01*
X12073571Y-16867286D01*
X12087857Y-16895857D01*
X12102143Y-16953000D01*
X12102143Y-17024429D01*
X12087857Y-17081572D01*
X12073571Y-17110143D01*
X12059286Y-17124429D01*
X12030714Y-17138714D01*
X12002143Y-17138714D01*
X11973571Y-17124429D01*
X11959286Y-17110143D01*
X11945000Y-17081572D01*
X11930714Y-17024429D01*
X11930714Y-16953000D01*
X11945000Y-16895857D01*
X11959286Y-16867286D01*
X11973571Y-16853000D01*
X12002143Y-16838714D01*
X12287857Y-16838714D02*
X12316428Y-16838714D01*
X12345000Y-16853000D01*
X12359286Y-16867286D01*
X12373571Y-16895857D01*
X12387857Y-16953000D01*
X12387857Y-17024429D01*
X12373571Y-17081572D01*
X12359286Y-17110143D01*
X12345000Y-17124429D01*
X12316428Y-17138714D01*
X12287857Y-17138714D01*
X12259286Y-17124429D01*
X12245000Y-17110143D01*
X12230714Y-17081572D01*
X12216428Y-17024429D01*
X12216428Y-16953000D01*
X12230714Y-16895857D01*
X12245000Y-16867286D01*
X12259286Y-16853000D01*
X12287857Y-16838714D01*
X12516428Y-17138714D02*
X12516428Y-16938714D01*
X12516428Y-16967286D02*
X12530714Y-16953000D01*
X12559286Y-16938714D01*
X12602143Y-16938714D01*
X12630714Y-16953000D01*
X12645000Y-16981572D01*
X12645000Y-17138714D01*
X12645000Y-16981572D02*
X12659286Y-16953000D01*
X12687857Y-16938714D01*
X12730714Y-16938714D01*
X12759286Y-16953000D01*
X12773571Y-16981572D01*
X12773571Y-17138714D01*
X12916428Y-17138714D02*
X12916428Y-16938714D01*
X12916428Y-16967286D02*
X12930714Y-16953000D01*
X12959286Y-16938714D01*
X13002143Y-16938714D01*
X13030714Y-16953000D01*
X13045000Y-16981572D01*
X13045000Y-17138714D01*
X13045000Y-16981572D02*
X13059286Y-16953000D01*
X13087857Y-16938714D01*
X13130714Y-16938714D01*
X13159286Y-16953000D01*
X13173571Y-16981572D01*
X13173571Y-17138714D01*
X13759286Y-16824429D02*
X13502143Y-17210143D01*
X14145000Y-16838714D02*
X14173571Y-16838714D01*
X14202143Y-16853000D01*
X14216428Y-16867286D01*
X14230714Y-16895857D01*
X14245000Y-16953000D01*
X14245000Y-17024429D01*
X14230714Y-17081572D01*
X14216428Y-17110143D01*
X14202143Y-17124429D01*
X14173571Y-17138714D01*
X14145000Y-17138714D01*
X14116428Y-17124429D01*
X14102143Y-17110143D01*
X14087857Y-17081572D01*
X14073571Y-17024429D01*
X14073571Y-16953000D01*
X14087857Y-16895857D01*
X14102143Y-16867286D01*
X14116428Y-16853000D01*
X14145000Y-16838714D01*
X14373571Y-17110143D02*
X14387857Y-17124429D01*
X14373571Y-17138714D01*
X14359286Y-17124429D01*
X14373571Y-17110143D01*
X14373571Y-17138714D01*
X14573571Y-16838714D02*
X14602143Y-16838714D01*
X14630714Y-16853000D01*
X14645000Y-16867286D01*
X14659285Y-16895857D01*
X14673571Y-16953000D01*
X14673571Y-17024429D01*
X14659285Y-17081572D01*
X14645000Y-17110143D01*
X14630714Y-17124429D01*
X14602143Y-17138714D01*
X14573571Y-17138714D01*
X14545000Y-17124429D01*
X14530714Y-17110143D01*
X14516428Y-17081572D01*
X14502143Y-17024429D01*
X14502143Y-16953000D01*
X14516428Y-16895857D01*
X14530714Y-16867286D01*
X14545000Y-16853000D01*
X14573571Y-16838714D01*
X14773571Y-16838714D02*
X14959285Y-16838714D01*
X14859285Y-16953000D01*
X14902143Y-16953000D01*
X14930714Y-16967286D01*
X14945000Y-16981572D01*
X14959285Y-17010143D01*
X14959285Y-17081572D01*
X14945000Y-17110143D01*
X14930714Y-17124429D01*
X14902143Y-17138714D01*
X14816428Y-17138714D01*
X14787857Y-17124429D01*
X14773571Y-17110143D01*
X15102143Y-17138714D02*
X15159285Y-17138714D01*
X15187857Y-17124429D01*
X15202143Y-17110143D01*
X15230714Y-17067286D01*
X15245000Y-17010143D01*
X15245000Y-16895857D01*
X15230714Y-16867286D01*
X15216428Y-16853000D01*
X15187857Y-16838714D01*
X15130714Y-16838714D01*
X15102143Y-16853000D01*
X15087857Y-16867286D01*
X15073571Y-16895857D01*
X15073571Y-16967286D01*
X15087857Y-16995857D01*
X15102143Y-17010143D01*
X15130714Y-17024429D01*
X15187857Y-17024429D01*
X15216428Y-17010143D01*
X15230714Y-16995857D01*
X15245000Y-16967286D01*
X15359286Y-16838714D02*
X15359286Y-16895857D01*
X15473571Y-16838714D02*
X15473571Y-16895857D01*
X15916428Y-17253000D02*
X15902143Y-17238714D01*
X15873571Y-17195857D01*
X15859285Y-17167286D01*
X15845000Y-17124429D01*
X15830714Y-17053000D01*
X15830714Y-16995857D01*
X15845000Y-16924429D01*
X15859285Y-16881572D01*
X15873571Y-16853000D01*
X15902143Y-16810143D01*
X15916428Y-16795857D01*
X16016428Y-16867286D02*
X16030714Y-16853000D01*
X16059285Y-16838714D01*
X16130714Y-16838714D01*
X16159285Y-16853000D01*
X16173571Y-16867286D01*
X16187857Y-16895857D01*
X16187857Y-16924429D01*
X16173571Y-16967286D01*
X16002143Y-17138714D01*
X16187857Y-17138714D01*
X16445000Y-16938714D02*
X16445000Y-17138714D01*
X16373571Y-16824429D02*
X16302143Y-17038714D01*
X16487857Y-17038714D01*
X16830714Y-17138714D02*
X16830714Y-16838714D01*
X16959286Y-17138714D02*
X16959286Y-16981572D01*
X16945000Y-16953000D01*
X16916428Y-16938714D01*
X16873571Y-16938714D01*
X16845000Y-16953000D01*
X16830714Y-16967286D01*
X17145000Y-17138714D02*
X17116428Y-17124429D01*
X17102143Y-17110143D01*
X17087857Y-17081572D01*
X17087857Y-16995857D01*
X17102143Y-16967286D01*
X17116428Y-16953000D01*
X17145000Y-16938714D01*
X17187857Y-16938714D01*
X17216428Y-16953000D01*
X17230714Y-16967286D01*
X17245000Y-16995857D01*
X17245000Y-17081572D01*
X17230714Y-17110143D01*
X17216428Y-17124429D01*
X17187857Y-17138714D01*
X17145000Y-17138714D01*
X17416428Y-17138714D02*
X17387857Y-17124429D01*
X17373571Y-17095857D01*
X17373571Y-16838714D01*
X17645000Y-17124429D02*
X17616429Y-17138714D01*
X17559286Y-17138714D01*
X17530714Y-17124429D01*
X17516429Y-17095857D01*
X17516429Y-16981572D01*
X17530714Y-16953000D01*
X17559286Y-16938714D01*
X17616429Y-16938714D01*
X17645000Y-16953000D01*
X17659286Y-16981572D01*
X17659286Y-17010143D01*
X17516429Y-17038714D01*
X17773571Y-17124429D02*
X17802143Y-17138714D01*
X17859286Y-17138714D01*
X17887857Y-17124429D01*
X17902143Y-17095857D01*
X17902143Y-17081572D01*
X17887857Y-17053000D01*
X17859286Y-17038714D01*
X17816429Y-17038714D01*
X17787857Y-17024429D01*
X17773571Y-16995857D01*
X17773571Y-16981572D01*
X17787857Y-16953000D01*
X17816429Y-16938714D01*
X17859286Y-16938714D01*
X17887857Y-16953000D01*
X18002143Y-17253000D02*
X18016429Y-17238714D01*
X18045000Y-17195857D01*
X18059286Y-17167286D01*
X18073571Y-17124429D01*
X18087857Y-17053000D01*
X18087857Y-16995857D01*
X18073571Y-16924429D01*
X18059286Y-16881572D01*
X18045000Y-16853000D01*
X18016429Y-16810143D01*
X18002143Y-16795857D01*
X11194000Y-17450000D02*
X11245000Y-17399000D01*
X11194000Y-17348000D01*
X11143000Y-17399000D01*
X11194000Y-17450000D01*
X11673571Y-17534714D02*
X11502143Y-17534714D01*
X11587857Y-17534714D02*
X11587857Y-17234714D01*
X11559286Y-17277572D01*
X11530714Y-17306143D01*
X11502143Y-17320429D01*
X11802143Y-17506143D02*
X11816428Y-17520429D01*
X11802143Y-17534714D01*
X11787857Y-17520429D01*
X11802143Y-17506143D01*
X11802143Y-17534714D01*
X12002143Y-17234714D02*
X12030714Y-17234714D01*
X12059286Y-17249000D01*
X12073571Y-17263286D01*
X12087857Y-17291857D01*
X12102143Y-17349000D01*
X12102143Y-17420429D01*
X12087857Y-17477572D01*
X12073571Y-17506143D01*
X12059286Y-17520429D01*
X12030714Y-17534714D01*
X12002143Y-17534714D01*
X11973571Y-17520429D01*
X11959286Y-17506143D01*
X11945000Y-17477572D01*
X11930714Y-17420429D01*
X11930714Y-17349000D01*
X11945000Y-17291857D01*
X11959286Y-17263286D01*
X11973571Y-17249000D01*
X12002143Y-17234714D01*
X12216428Y-17263286D02*
X12230714Y-17249000D01*
X12259286Y-17234714D01*
X12330714Y-17234714D01*
X12359286Y-17249000D01*
X12373571Y-17263286D01*
X12387857Y-17291857D01*
X12387857Y-17320429D01*
X12373571Y-17363286D01*
X12202143Y-17534714D01*
X12387857Y-17534714D01*
X12516428Y-17534714D02*
X12516428Y-17334714D01*
X12516428Y-17363286D02*
X12530714Y-17349000D01*
X12559286Y-17334714D01*
X12602143Y-17334714D01*
X12630714Y-17349000D01*
X12645000Y-17377572D01*
X12645000Y-17534714D01*
X12645000Y-17377572D02*
X12659286Y-17349000D01*
X12687857Y-17334714D01*
X12730714Y-17334714D01*
X12759286Y-17349000D01*
X12773571Y-17377572D01*
X12773571Y-17534714D01*
X12916428Y-17534714D02*
X12916428Y-17334714D01*
X12916428Y-17363286D02*
X12930714Y-17349000D01*
X12959286Y-17334714D01*
X13002143Y-17334714D01*
X13030714Y-17349000D01*
X13045000Y-17377572D01*
X13045000Y-17534714D01*
X13045000Y-17377572D02*
X13059286Y-17349000D01*
X13087857Y-17334714D01*
X13130714Y-17334714D01*
X13159286Y-17349000D01*
X13173571Y-17377572D01*
X13173571Y-17534714D01*
X13759286Y-17220429D02*
X13502143Y-17606143D01*
X14145000Y-17234714D02*
X14173571Y-17234714D01*
X14202143Y-17249000D01*
X14216428Y-17263286D01*
X14230714Y-17291857D01*
X14245000Y-17349000D01*
X14245000Y-17420429D01*
X14230714Y-17477572D01*
X14216428Y-17506143D01*
X14202143Y-17520429D01*
X14173571Y-17534714D01*
X14145000Y-17534714D01*
X14116428Y-17520429D01*
X14102143Y-17506143D01*
X14087857Y-17477572D01*
X14073571Y-17420429D01*
X14073571Y-17349000D01*
X14087857Y-17291857D01*
X14102143Y-17263286D01*
X14116428Y-17249000D01*
X14145000Y-17234714D01*
X14373571Y-17506143D02*
X14387857Y-17520429D01*
X14373571Y-17534714D01*
X14359286Y-17520429D01*
X14373571Y-17506143D01*
X14373571Y-17534714D01*
X14573571Y-17234714D02*
X14602143Y-17234714D01*
X14630714Y-17249000D01*
X14645000Y-17263286D01*
X14659285Y-17291857D01*
X14673571Y-17349000D01*
X14673571Y-17420429D01*
X14659285Y-17477572D01*
X14645000Y-17506143D01*
X14630714Y-17520429D01*
X14602143Y-17534714D01*
X14573571Y-17534714D01*
X14545000Y-17520429D01*
X14530714Y-17506143D01*
X14516428Y-17477572D01*
X14502143Y-17420429D01*
X14502143Y-17349000D01*
X14516428Y-17291857D01*
X14530714Y-17263286D01*
X14545000Y-17249000D01*
X14573571Y-17234714D01*
X14930714Y-17334714D02*
X14930714Y-17534714D01*
X14859285Y-17220429D02*
X14787857Y-17434714D01*
X14973571Y-17434714D01*
X15145000Y-17234714D02*
X15173571Y-17234714D01*
X15202143Y-17249000D01*
X15216428Y-17263286D01*
X15230714Y-17291857D01*
X15245000Y-17349000D01*
X15245000Y-17420429D01*
X15230714Y-17477572D01*
X15216428Y-17506143D01*
X15202143Y-17520429D01*
X15173571Y-17534714D01*
X15145000Y-17534714D01*
X15116428Y-17520429D01*
X15102143Y-17506143D01*
X15087857Y-17477572D01*
X15073571Y-17420429D01*
X15073571Y-17349000D01*
X15087857Y-17291857D01*
X15102143Y-17263286D01*
X15116428Y-17249000D01*
X15145000Y-17234714D01*
X15359286Y-17234714D02*
X15359286Y-17291857D01*
X15473571Y-17234714D02*
X15473571Y-17291857D01*
X15916428Y-17649000D02*
X15902143Y-17634714D01*
X15873571Y-17591857D01*
X15859285Y-17563286D01*
X15845000Y-17520429D01*
X15830714Y-17449000D01*
X15830714Y-17391857D01*
X15845000Y-17320429D01*
X15859285Y-17277572D01*
X15873571Y-17249000D01*
X15902143Y-17206143D01*
X15916428Y-17191857D01*
X16159285Y-17234714D02*
X16102143Y-17234714D01*
X16073571Y-17249000D01*
X16059285Y-17263286D01*
X16030714Y-17306143D01*
X16016428Y-17363286D01*
X16016428Y-17477572D01*
X16030714Y-17506143D01*
X16045000Y-17520429D01*
X16073571Y-17534714D01*
X16130714Y-17534714D01*
X16159285Y-17520429D01*
X16173571Y-17506143D01*
X16187857Y-17477572D01*
X16187857Y-17406143D01*
X16173571Y-17377572D01*
X16159285Y-17363286D01*
X16130714Y-17349000D01*
X16073571Y-17349000D01*
X16045000Y-17363286D01*
X16030714Y-17377572D01*
X16016428Y-17406143D01*
X16445000Y-17334714D02*
X16445000Y-17534714D01*
X16373571Y-17220429D02*
X16302143Y-17434714D01*
X16487857Y-17434714D01*
X16830714Y-17534714D02*
X16830714Y-17234714D01*
X16959286Y-17534714D02*
X16959286Y-17377572D01*
X16945000Y-17349000D01*
X16916428Y-17334714D01*
X16873571Y-17334714D01*
X16845000Y-17349000D01*
X16830714Y-17363286D01*
X17145000Y-17534714D02*
X17116428Y-17520429D01*
X17102143Y-17506143D01*
X17087857Y-17477572D01*
X17087857Y-17391857D01*
X17102143Y-17363286D01*
X17116428Y-17349000D01*
X17145000Y-17334714D01*
X17187857Y-17334714D01*
X17216428Y-17349000D01*
X17230714Y-17363286D01*
X17245000Y-17391857D01*
X17245000Y-17477572D01*
X17230714Y-17506143D01*
X17216428Y-17520429D01*
X17187857Y-17534714D01*
X17145000Y-17534714D01*
X17416428Y-17534714D02*
X17387857Y-17520429D01*
X17373571Y-17491857D01*
X17373571Y-17234714D01*
X17645000Y-17520429D02*
X17616429Y-17534714D01*
X17559286Y-17534714D01*
X17530714Y-17520429D01*
X17516429Y-17491857D01*
X17516429Y-17377572D01*
X17530714Y-17349000D01*
X17559286Y-17334714D01*
X17616429Y-17334714D01*
X17645000Y-17349000D01*
X17659286Y-17377572D01*
X17659286Y-17406143D01*
X17516429Y-17434714D01*
X17773571Y-17520429D02*
X17802143Y-17534714D01*
X17859286Y-17534714D01*
X17887857Y-17520429D01*
X17902143Y-17491857D01*
X17902143Y-17477572D01*
X17887857Y-17449000D01*
X17859286Y-17434714D01*
X17816429Y-17434714D01*
X17787857Y-17420429D01*
X17773571Y-17391857D01*
X17773571Y-17377572D01*
X17787857Y-17349000D01*
X17816429Y-17334714D01*
X17859286Y-17334714D01*
X17887857Y-17349000D01*
X18002143Y-17649000D02*
X18016429Y-17634714D01*
X18045000Y-17591857D01*
X18059286Y-17563286D01*
X18073571Y-17520429D01*
X18087857Y-17449000D01*
X18087857Y-17391857D01*
X18073571Y-17320429D01*
X18059286Y-17277572D01*
X18045000Y-17249000D01*
X18016429Y-17206143D01*
X18002143Y-17191857D01*
X11095000Y-17720000D02*
X11245000Y-17870000D01*
X11245000Y-17720000D02*
X11095000Y-17870000D01*
X11245000Y-17795000D02*
G75*
G03X11245000Y-17795000I-75000J0D01*
G01*
X11673571Y-17930714D02*
X11502143Y-17930714D01*
X11587857Y-17930714D02*
X11587857Y-17630714D01*
X11559286Y-17673572D01*
X11530714Y-17702143D01*
X11502143Y-17716429D01*
X11802143Y-17902143D02*
X11816428Y-17916429D01*
X11802143Y-17930714D01*
X11787857Y-17916429D01*
X11802143Y-17902143D01*
X11802143Y-17930714D01*
X12087857Y-17630714D02*
X11945000Y-17630714D01*
X11930714Y-17773572D01*
X11945000Y-17759286D01*
X11973571Y-17745000D01*
X12045000Y-17745000D01*
X12073571Y-17759286D01*
X12087857Y-17773572D01*
X12102143Y-17802143D01*
X12102143Y-17873572D01*
X12087857Y-17902143D01*
X12073571Y-17916429D01*
X12045000Y-17930714D01*
X11973571Y-17930714D01*
X11945000Y-17916429D01*
X11930714Y-17902143D01*
X12287857Y-17630714D02*
X12316428Y-17630714D01*
X12345000Y-17645000D01*
X12359286Y-17659286D01*
X12373571Y-17687857D01*
X12387857Y-17745000D01*
X12387857Y-17816429D01*
X12373571Y-17873572D01*
X12359286Y-17902143D01*
X12345000Y-17916429D01*
X12316428Y-17930714D01*
X12287857Y-17930714D01*
X12259286Y-17916429D01*
X12245000Y-17902143D01*
X12230714Y-17873572D01*
X12216428Y-17816429D01*
X12216428Y-17745000D01*
X12230714Y-17687857D01*
X12245000Y-17659286D01*
X12259286Y-17645000D01*
X12287857Y-17630714D01*
X12516428Y-17930714D02*
X12516428Y-17730714D01*
X12516428Y-17759286D02*
X12530714Y-17745000D01*
X12559286Y-17730714D01*
X12602143Y-17730714D01*
X12630714Y-17745000D01*
X12645000Y-17773572D01*
X12645000Y-17930714D01*
X12645000Y-17773572D02*
X12659286Y-17745000D01*
X12687857Y-17730714D01*
X12730714Y-17730714D01*
X12759286Y-17745000D01*
X12773571Y-17773572D01*
X12773571Y-17930714D01*
X12916428Y-17930714D02*
X12916428Y-17730714D01*
X12916428Y-17759286D02*
X12930714Y-17745000D01*
X12959286Y-17730714D01*
X13002143Y-17730714D01*
X13030714Y-17745000D01*
X13045000Y-17773572D01*
X13045000Y-17930714D01*
X13045000Y-17773572D02*
X13059286Y-17745000D01*
X13087857Y-17730714D01*
X13130714Y-17730714D01*
X13159286Y-17745000D01*
X13173571Y-17773572D01*
X13173571Y-17930714D01*
X13759286Y-17616429D02*
X13502143Y-18002143D01*
X14145000Y-17630714D02*
X14173571Y-17630714D01*
X14202143Y-17645000D01*
X14216428Y-17659286D01*
X14230714Y-17687857D01*
X14245000Y-17745000D01*
X14245000Y-17816429D01*
X14230714Y-17873572D01*
X14216428Y-17902143D01*
X14202143Y-17916429D01*
X14173571Y-17930714D01*
X14145000Y-17930714D01*
X14116428Y-17916429D01*
X14102143Y-17902143D01*
X14087857Y-17873572D01*
X14073571Y-17816429D01*
X14073571Y-17745000D01*
X14087857Y-17687857D01*
X14102143Y-17659286D01*
X14116428Y-17645000D01*
X14145000Y-17630714D01*
X14373571Y-17902143D02*
X14387857Y-17916429D01*
X14373571Y-17930714D01*
X14359286Y-17916429D01*
X14373571Y-17902143D01*
X14373571Y-17930714D01*
X14573571Y-17630714D02*
X14602143Y-17630714D01*
X14630714Y-17645000D01*
X14645000Y-17659286D01*
X14659285Y-17687857D01*
X14673571Y-17745000D01*
X14673571Y-17816429D01*
X14659285Y-17873572D01*
X14645000Y-17902143D01*
X14630714Y-17916429D01*
X14602143Y-17930714D01*
X14573571Y-17930714D01*
X14545000Y-17916429D01*
X14530714Y-17902143D01*
X14516428Y-17873572D01*
X14502143Y-17816429D01*
X14502143Y-17745000D01*
X14516428Y-17687857D01*
X14530714Y-17659286D01*
X14545000Y-17645000D01*
X14573571Y-17630714D01*
X14945000Y-17630714D02*
X14802143Y-17630714D01*
X14787857Y-17773572D01*
X14802143Y-17759286D01*
X14830714Y-17745000D01*
X14902143Y-17745000D01*
X14930714Y-17759286D01*
X14945000Y-17773572D01*
X14959285Y-17802143D01*
X14959285Y-17873572D01*
X14945000Y-17902143D01*
X14930714Y-17916429D01*
X14902143Y-17930714D01*
X14830714Y-17930714D01*
X14802143Y-17916429D01*
X14787857Y-17902143D01*
X15102143Y-17930714D02*
X15159285Y-17930714D01*
X15187857Y-17916429D01*
X15202143Y-17902143D01*
X15230714Y-17859286D01*
X15245000Y-17802143D01*
X15245000Y-17687857D01*
X15230714Y-17659286D01*
X15216428Y-17645000D01*
X15187857Y-17630714D01*
X15130714Y-17630714D01*
X15102143Y-17645000D01*
X15087857Y-17659286D01*
X15073571Y-17687857D01*
X15073571Y-17759286D01*
X15087857Y-17787857D01*
X15102143Y-17802143D01*
X15130714Y-17816429D01*
X15187857Y-17816429D01*
X15216428Y-17802143D01*
X15230714Y-17787857D01*
X15245000Y-17759286D01*
X15359286Y-17630714D02*
X15359286Y-17687857D01*
X15473571Y-17630714D02*
X15473571Y-17687857D01*
X15916428Y-18045000D02*
X15902143Y-18030714D01*
X15873571Y-17987857D01*
X15859285Y-17959286D01*
X15845000Y-17916429D01*
X15830714Y-17845000D01*
X15830714Y-17787857D01*
X15845000Y-17716429D01*
X15859285Y-17673572D01*
X15873571Y-17645000D01*
X15902143Y-17602143D01*
X15916428Y-17587857D01*
X16187857Y-17930714D02*
X16016428Y-17930714D01*
X16102143Y-17930714D02*
X16102143Y-17630714D01*
X16073571Y-17673572D01*
X16045000Y-17702143D01*
X16016428Y-17716429D01*
X16545000Y-17930714D02*
X16545000Y-17630714D01*
X16673571Y-17930714D02*
X16673571Y-17773572D01*
X16659285Y-17745000D01*
X16630714Y-17730714D01*
X16587857Y-17730714D01*
X16559285Y-17745000D01*
X16545000Y-17759286D01*
X16859286Y-17930714D02*
X16830714Y-17916429D01*
X16816428Y-17902143D01*
X16802143Y-17873572D01*
X16802143Y-17787857D01*
X16816428Y-17759286D01*
X16830714Y-17745000D01*
X16859286Y-17730714D01*
X16902143Y-17730714D01*
X16930714Y-17745000D01*
X16945000Y-17759286D01*
X16959286Y-17787857D01*
X16959286Y-17873572D01*
X16945000Y-17902143D01*
X16930714Y-17916429D01*
X16902143Y-17930714D01*
X16859286Y-17930714D01*
X17130714Y-17930714D02*
X17102143Y-17916429D01*
X17087857Y-17887857D01*
X17087857Y-17630714D01*
X17359286Y-17916429D02*
X17330714Y-17930714D01*
X17273571Y-17930714D01*
X17245000Y-17916429D01*
X17230714Y-17887857D01*
X17230714Y-17773572D01*
X17245000Y-17745000D01*
X17273571Y-17730714D01*
X17330714Y-17730714D01*
X17359286Y-17745000D01*
X17373571Y-17773572D01*
X17373571Y-17802143D01*
X17230714Y-17830714D01*
X17473571Y-18045000D02*
X17487857Y-18030714D01*
X17516429Y-17987857D01*
X17530714Y-17959286D01*
X17545000Y-17916429D01*
X17559286Y-17845000D01*
X17559286Y-17787857D01*
X17545000Y-17716429D01*
X17530714Y-17673572D01*
X17516429Y-17645000D01*
X17487857Y-17602143D01*
X17473571Y-17587857D01*
X11085000Y-18111000D02*
X11245000Y-18271000D01*
X11245000Y-18111000D02*
X11085000Y-18271000D01*
X11165000Y-18111000D02*
X11165000Y-18271000D01*
X11085000Y-18191000D02*
X11245000Y-18191000D01*
X11673571Y-18326714D02*
X11502143Y-18326714D01*
X11587857Y-18326714D02*
X11587857Y-18026714D01*
X11559286Y-18069572D01*
X11530714Y-18098143D01*
X11502143Y-18112429D01*
X11802143Y-18298143D02*
X11816428Y-18312429D01*
X11802143Y-18326714D01*
X11787857Y-18312429D01*
X11802143Y-18298143D01*
X11802143Y-18326714D01*
X12073571Y-18026714D02*
X12016428Y-18026714D01*
X11987857Y-18041000D01*
X11973571Y-18055286D01*
X11945000Y-18098143D01*
X11930714Y-18155286D01*
X11930714Y-18269572D01*
X11945000Y-18298143D01*
X11959286Y-18312429D01*
X11987857Y-18326714D01*
X12045000Y-18326714D01*
X12073571Y-18312429D01*
X12087857Y-18298143D01*
X12102143Y-18269572D01*
X12102143Y-18198143D01*
X12087857Y-18169572D01*
X12073571Y-18155286D01*
X12045000Y-18141000D01*
X11987857Y-18141000D01*
X11959286Y-18155286D01*
X11945000Y-18169572D01*
X11930714Y-18198143D01*
X12287857Y-18026714D02*
X12316428Y-18026714D01*
X12345000Y-18041000D01*
X12359286Y-18055286D01*
X12373571Y-18083857D01*
X12387857Y-18141000D01*
X12387857Y-18212429D01*
X12373571Y-18269572D01*
X12359286Y-18298143D01*
X12345000Y-18312429D01*
X12316428Y-18326714D01*
X12287857Y-18326714D01*
X12259286Y-18312429D01*
X12245000Y-18298143D01*
X12230714Y-18269572D01*
X12216428Y-18212429D01*
X12216428Y-18141000D01*
X12230714Y-18083857D01*
X12245000Y-18055286D01*
X12259286Y-18041000D01*
X12287857Y-18026714D01*
X12516428Y-18326714D02*
X12516428Y-18126714D01*
X12516428Y-18155286D02*
X12530714Y-18141000D01*
X12559286Y-18126714D01*
X12602143Y-18126714D01*
X12630714Y-18141000D01*
X12645000Y-18169572D01*
X12645000Y-18326714D01*
X12645000Y-18169572D02*
X12659286Y-18141000D01*
X12687857Y-18126714D01*
X12730714Y-18126714D01*
X12759286Y-18141000D01*
X12773571Y-18169572D01*
X12773571Y-18326714D01*
X12916428Y-18326714D02*
X12916428Y-18126714D01*
X12916428Y-18155286D02*
X12930714Y-18141000D01*
X12959286Y-18126714D01*
X13002143Y-18126714D01*
X13030714Y-18141000D01*
X13045000Y-18169572D01*
X13045000Y-18326714D01*
X13045000Y-18169572D02*
X13059286Y-18141000D01*
X13087857Y-18126714D01*
X13130714Y-18126714D01*
X13159286Y-18141000D01*
X13173571Y-18169572D01*
X13173571Y-18326714D01*
X13759286Y-18012429D02*
X13502143Y-18398143D01*
X14145000Y-18026714D02*
X14173571Y-18026714D01*
X14202143Y-18041000D01*
X14216428Y-18055286D01*
X14230714Y-18083857D01*
X14245000Y-18141000D01*
X14245000Y-18212429D01*
X14230714Y-18269572D01*
X14216428Y-18298143D01*
X14202143Y-18312429D01*
X14173571Y-18326714D01*
X14145000Y-18326714D01*
X14116428Y-18312429D01*
X14102143Y-18298143D01*
X14087857Y-18269572D01*
X14073571Y-18212429D01*
X14073571Y-18141000D01*
X14087857Y-18083857D01*
X14102143Y-18055286D01*
X14116428Y-18041000D01*
X14145000Y-18026714D01*
X14373571Y-18298143D02*
X14387857Y-18312429D01*
X14373571Y-18326714D01*
X14359286Y-18312429D01*
X14373571Y-18298143D01*
X14373571Y-18326714D01*
X14573571Y-18026714D02*
X14602143Y-18026714D01*
X14630714Y-18041000D01*
X14645000Y-18055286D01*
X14659285Y-18083857D01*
X14673571Y-18141000D01*
X14673571Y-18212429D01*
X14659285Y-18269572D01*
X14645000Y-18298143D01*
X14630714Y-18312429D01*
X14602143Y-18326714D01*
X14573571Y-18326714D01*
X14545000Y-18312429D01*
X14530714Y-18298143D01*
X14516428Y-18269572D01*
X14502143Y-18212429D01*
X14502143Y-18141000D01*
X14516428Y-18083857D01*
X14530714Y-18055286D01*
X14545000Y-18041000D01*
X14573571Y-18026714D01*
X14930714Y-18026714D02*
X14873571Y-18026714D01*
X14845000Y-18041000D01*
X14830714Y-18055286D01*
X14802143Y-18098143D01*
X14787857Y-18155286D01*
X14787857Y-18269572D01*
X14802143Y-18298143D01*
X14816428Y-18312429D01*
X14845000Y-18326714D01*
X14902143Y-18326714D01*
X14930714Y-18312429D01*
X14945000Y-18298143D01*
X14959285Y-18269572D01*
X14959285Y-18198143D01*
X14945000Y-18169572D01*
X14930714Y-18155286D01*
X14902143Y-18141000D01*
X14845000Y-18141000D01*
X14816428Y-18155286D01*
X14802143Y-18169572D01*
X14787857Y-18198143D01*
X15059285Y-18026714D02*
X15245000Y-18026714D01*
X15145000Y-18141000D01*
X15187857Y-18141000D01*
X15216428Y-18155286D01*
X15230714Y-18169572D01*
X15245000Y-18198143D01*
X15245000Y-18269572D01*
X15230714Y-18298143D01*
X15216428Y-18312429D01*
X15187857Y-18326714D01*
X15102143Y-18326714D01*
X15073571Y-18312429D01*
X15059285Y-18298143D01*
X15359286Y-18026714D02*
X15359286Y-18083857D01*
X15473571Y-18026714D02*
X15473571Y-18083857D01*
X15916428Y-18441000D02*
X15902143Y-18426714D01*
X15873571Y-18383857D01*
X15859285Y-18355286D01*
X15845000Y-18312429D01*
X15830714Y-18241000D01*
X15830714Y-18183857D01*
X15845000Y-18112429D01*
X15859285Y-18069572D01*
X15873571Y-18041000D01*
X15902143Y-17998143D01*
X15916428Y-17983857D01*
X16159285Y-18126714D02*
X16159285Y-18326714D01*
X16087857Y-18012429D02*
X16016428Y-18226714D01*
X16202143Y-18226714D01*
X16545000Y-18326714D02*
X16545000Y-18026714D01*
X16673571Y-18326714D02*
X16673571Y-18169572D01*
X16659285Y-18141000D01*
X16630714Y-18126714D01*
X16587857Y-18126714D01*
X16559285Y-18141000D01*
X16545000Y-18155286D01*
X16859286Y-18326714D02*
X16830714Y-18312429D01*
X16816428Y-18298143D01*
X16802143Y-18269572D01*
X16802143Y-18183857D01*
X16816428Y-18155286D01*
X16830714Y-18141000D01*
X16859286Y-18126714D01*
X16902143Y-18126714D01*
X16930714Y-18141000D01*
X16945000Y-18155286D01*
X16959286Y-18183857D01*
X16959286Y-18269572D01*
X16945000Y-18298143D01*
X16930714Y-18312429D01*
X16902143Y-18326714D01*
X16859286Y-18326714D01*
X17130714Y-18326714D02*
X17102143Y-18312429D01*
X17087857Y-18283857D01*
X17087857Y-18026714D01*
X17359286Y-18312429D02*
X17330714Y-18326714D01*
X17273571Y-18326714D01*
X17245000Y-18312429D01*
X17230714Y-18283857D01*
X17230714Y-18169572D01*
X17245000Y-18141000D01*
X17273571Y-18126714D01*
X17330714Y-18126714D01*
X17359286Y-18141000D01*
X17373571Y-18169572D01*
X17373571Y-18198143D01*
X17230714Y-18226714D01*
X17487857Y-18312429D02*
X17516429Y-18326714D01*
X17573571Y-18326714D01*
X17602143Y-18312429D01*
X17616429Y-18283857D01*
X17616429Y-18269572D01*
X17602143Y-18241000D01*
X17573571Y-18226714D01*
X17530714Y-18226714D01*
X17502143Y-18212429D01*
X17487857Y-18183857D01*
X17487857Y-18169572D01*
X17502143Y-18141000D01*
X17530714Y-18126714D01*
X17573571Y-18126714D01*
X17602143Y-18141000D01*
X17716428Y-18441000D02*
X17730714Y-18426714D01*
X17759286Y-18383857D01*
X17773571Y-18355286D01*
X17787857Y-18312429D01*
X17802143Y-18241000D01*
X17802143Y-18183857D01*
X17787857Y-18112429D01*
X17773571Y-18069572D01*
X17759286Y-18041000D01*
X17730714Y-17998143D01*
X17716428Y-17983857D01*
X10927000Y-18428000D02*
X11245000Y-18746000D01*
X11245000Y-18428000D02*
X10927000Y-18746000D01*
X11198431Y-18699431D02*
X11198431Y-18474569D01*
X10973569Y-18474569D01*
X10973569Y-18699431D01*
X11198431Y-18699431D01*
X11487857Y-18422714D02*
X11673571Y-18422714D01*
X11573571Y-18537000D01*
X11616428Y-18537000D01*
X11645000Y-18551286D01*
X11659286Y-18565572D01*
X11673571Y-18594143D01*
X11673571Y-18665572D01*
X11659286Y-18694143D01*
X11645000Y-18708429D01*
X11616428Y-18722714D01*
X11530714Y-18722714D01*
X11502143Y-18708429D01*
X11487857Y-18694143D01*
X11802143Y-18694143D02*
X11816428Y-18708429D01*
X11802143Y-18722714D01*
X11787857Y-18708429D01*
X11802143Y-18694143D01*
X11802143Y-18722714D01*
X12102143Y-18722714D02*
X11930714Y-18722714D01*
X12016428Y-18722714D02*
X12016428Y-18422714D01*
X11987857Y-18465572D01*
X11959286Y-18494143D01*
X11930714Y-18508429D01*
X12273571Y-18551286D02*
X12245000Y-18537000D01*
X12230714Y-18522714D01*
X12216428Y-18494143D01*
X12216428Y-18479857D01*
X12230714Y-18451286D01*
X12245000Y-18437000D01*
X12273571Y-18422714D01*
X12330714Y-18422714D01*
X12359286Y-18437000D01*
X12373571Y-18451286D01*
X12387857Y-18479857D01*
X12387857Y-18494143D01*
X12373571Y-18522714D01*
X12359286Y-18537000D01*
X12330714Y-18551286D01*
X12273571Y-18551286D01*
X12245000Y-18565572D01*
X12230714Y-18579857D01*
X12216428Y-18608429D01*
X12216428Y-18665572D01*
X12230714Y-18694143D01*
X12245000Y-18708429D01*
X12273571Y-18722714D01*
X12330714Y-18722714D01*
X12359286Y-18708429D01*
X12373571Y-18694143D01*
X12387857Y-18665572D01*
X12387857Y-18608429D01*
X12373571Y-18579857D01*
X12359286Y-18565572D01*
X12330714Y-18551286D01*
X12516428Y-18722714D02*
X12516428Y-18522714D01*
X12516428Y-18551286D02*
X12530714Y-18537000D01*
X12559286Y-18522714D01*
X12602143Y-18522714D01*
X12630714Y-18537000D01*
X12645000Y-18565572D01*
X12645000Y-18722714D01*
X12645000Y-18565572D02*
X12659286Y-18537000D01*
X12687857Y-18522714D01*
X12730714Y-18522714D01*
X12759286Y-18537000D01*
X12773571Y-18565572D01*
X12773571Y-18722714D01*
X12916428Y-18722714D02*
X12916428Y-18522714D01*
X12916428Y-18551286D02*
X12930714Y-18537000D01*
X12959286Y-18522714D01*
X13002143Y-18522714D01*
X13030714Y-18537000D01*
X13045000Y-18565572D01*
X13045000Y-18722714D01*
X13045000Y-18565572D02*
X13059286Y-18537000D01*
X13087857Y-18522714D01*
X13130714Y-18522714D01*
X13159286Y-18537000D01*
X13173571Y-18565572D01*
X13173571Y-18722714D01*
X13759286Y-18408429D02*
X13502143Y-18794143D01*
X14145000Y-18422714D02*
X14173571Y-18422714D01*
X14202143Y-18437000D01*
X14216428Y-18451286D01*
X14230714Y-18479857D01*
X14245000Y-18537000D01*
X14245000Y-18608429D01*
X14230714Y-18665572D01*
X14216428Y-18694143D01*
X14202143Y-18708429D01*
X14173571Y-18722714D01*
X14145000Y-18722714D01*
X14116428Y-18708429D01*
X14102143Y-18694143D01*
X14087857Y-18665572D01*
X14073571Y-18608429D01*
X14073571Y-18537000D01*
X14087857Y-18479857D01*
X14102143Y-18451286D01*
X14116428Y-18437000D01*
X14145000Y-18422714D01*
X14373571Y-18694143D02*
X14387857Y-18708429D01*
X14373571Y-18722714D01*
X14359286Y-18708429D01*
X14373571Y-18694143D01*
X14373571Y-18722714D01*
X14673571Y-18722714D02*
X14502143Y-18722714D01*
X14587857Y-18722714D02*
X14587857Y-18422714D01*
X14559285Y-18465572D01*
X14530714Y-18494143D01*
X14502143Y-18508429D01*
X14787857Y-18451286D02*
X14802143Y-18437000D01*
X14830714Y-18422714D01*
X14902143Y-18422714D01*
X14930714Y-18437000D01*
X14945000Y-18451286D01*
X14959285Y-18479857D01*
X14959285Y-18508429D01*
X14945000Y-18551286D01*
X14773571Y-18722714D01*
X14959285Y-18722714D01*
X15230714Y-18422714D02*
X15087857Y-18422714D01*
X15073571Y-18565572D01*
X15087857Y-18551286D01*
X15116428Y-18537000D01*
X15187857Y-18537000D01*
X15216428Y-18551286D01*
X15230714Y-18565572D01*
X15245000Y-18594143D01*
X15245000Y-18665572D01*
X15230714Y-18694143D01*
X15216428Y-18708429D01*
X15187857Y-18722714D01*
X15116428Y-18722714D01*
X15087857Y-18708429D01*
X15073571Y-18694143D01*
X15359286Y-18422714D02*
X15359286Y-18479857D01*
X15473571Y-18422714D02*
X15473571Y-18479857D01*
X15916428Y-18837000D02*
X15902143Y-18822714D01*
X15873571Y-18779857D01*
X15859285Y-18751286D01*
X15845000Y-18708429D01*
X15830714Y-18637000D01*
X15830714Y-18579857D01*
X15845000Y-18508429D01*
X15859285Y-18465572D01*
X15873571Y-18437000D01*
X15902143Y-18394143D01*
X15916428Y-18379857D01*
X16159285Y-18522714D02*
X16159285Y-18722714D01*
X16087857Y-18408429D02*
X16016428Y-18622714D01*
X16202143Y-18622714D01*
X16545000Y-18722714D02*
X16545000Y-18422714D01*
X16673571Y-18722714D02*
X16673571Y-18565572D01*
X16659285Y-18537000D01*
X16630714Y-18522714D01*
X16587857Y-18522714D01*
X16559285Y-18537000D01*
X16545000Y-18551286D01*
X16859286Y-18722714D02*
X16830714Y-18708429D01*
X16816428Y-18694143D01*
X16802143Y-18665572D01*
X16802143Y-18579857D01*
X16816428Y-18551286D01*
X16830714Y-18537000D01*
X16859286Y-18522714D01*
X16902143Y-18522714D01*
X16930714Y-18537000D01*
X16945000Y-18551286D01*
X16959286Y-18579857D01*
X16959286Y-18665572D01*
X16945000Y-18694143D01*
X16930714Y-18708429D01*
X16902143Y-18722714D01*
X16859286Y-18722714D01*
X17130714Y-18722714D02*
X17102143Y-18708429D01*
X17087857Y-18679857D01*
X17087857Y-18422714D01*
X17359286Y-18708429D02*
X17330714Y-18722714D01*
X17273571Y-18722714D01*
X17245000Y-18708429D01*
X17230714Y-18679857D01*
X17230714Y-18565572D01*
X17245000Y-18537000D01*
X17273571Y-18522714D01*
X17330714Y-18522714D01*
X17359286Y-18537000D01*
X17373571Y-18565572D01*
X17373571Y-18594143D01*
X17230714Y-18622714D01*
X17487857Y-18708429D02*
X17516429Y-18722714D01*
X17573571Y-18722714D01*
X17602143Y-18708429D01*
X17616429Y-18679857D01*
X17616429Y-18665572D01*
X17602143Y-18637000D01*
X17573571Y-18622714D01*
X17530714Y-18622714D01*
X17502143Y-18608429D01*
X17487857Y-18579857D01*
X17487857Y-18565572D01*
X17502143Y-18537000D01*
X17530714Y-18522714D01*
X17573571Y-18522714D01*
X17602143Y-18537000D01*
X17716428Y-18837000D02*
X17730714Y-18822714D01*
X17759286Y-18779857D01*
X17773571Y-18751286D01*
X17787857Y-18708429D01*
X17802143Y-18637000D01*
X17802143Y-18579857D01*
X17787857Y-18508429D01*
X17773571Y-18465572D01*
X17759286Y-18437000D01*
X17730714Y-18394143D01*
X17716428Y-18379857D01*
X11110000Y-18967500D02*
X11245000Y-19102500D01*
X11245000Y-18967500D02*
X11110000Y-19102500D01*
X11177500Y-19102500D02*
X11245000Y-19035000D01*
X11177500Y-18967500D01*
X11110000Y-19035000D01*
X11177500Y-19102500D01*
X11673571Y-19170714D02*
X11502143Y-19170714D01*
X11587857Y-19170714D02*
X11587857Y-18870714D01*
X11559286Y-18913572D01*
X11530714Y-18942143D01*
X11502143Y-18956429D01*
X11802143Y-19142143D02*
X11816428Y-19156429D01*
X11802143Y-19170714D01*
X11787857Y-19156429D01*
X11802143Y-19142143D01*
X11802143Y-19170714D01*
X11916428Y-18870714D02*
X12102143Y-18870714D01*
X12002143Y-18985000D01*
X12045000Y-18985000D01*
X12073571Y-18999286D01*
X12087857Y-19013572D01*
X12102143Y-19042143D01*
X12102143Y-19113572D01*
X12087857Y-19142143D01*
X12073571Y-19156429D01*
X12045000Y-19170714D01*
X11959286Y-19170714D01*
X11930714Y-19156429D01*
X11916428Y-19142143D01*
X12373571Y-18870714D02*
X12230714Y-18870714D01*
X12216428Y-19013572D01*
X12230714Y-18999286D01*
X12259286Y-18985000D01*
X12330714Y-18985000D01*
X12359286Y-18999286D01*
X12373571Y-19013572D01*
X12387857Y-19042143D01*
X12387857Y-19113572D01*
X12373571Y-19142143D01*
X12359286Y-19156429D01*
X12330714Y-19170714D01*
X12259286Y-19170714D01*
X12230714Y-19156429D01*
X12216428Y-19142143D01*
X12516428Y-19170714D02*
X12516428Y-18970714D01*
X12516428Y-18999286D02*
X12530714Y-18985000D01*
X12559286Y-18970714D01*
X12602143Y-18970714D01*
X12630714Y-18985000D01*
X12645000Y-19013572D01*
X12645000Y-19170714D01*
X12645000Y-19013572D02*
X12659286Y-18985000D01*
X12687857Y-18970714D01*
X12730714Y-18970714D01*
X12759286Y-18985000D01*
X12773571Y-19013572D01*
X12773571Y-19170714D01*
X12916428Y-19170714D02*
X12916428Y-18970714D01*
X12916428Y-18999286D02*
X12930714Y-18985000D01*
X12959286Y-18970714D01*
X13002143Y-18970714D01*
X13030714Y-18985000D01*
X13045000Y-19013572D01*
X13045000Y-19170714D01*
X13045000Y-19013572D02*
X13059286Y-18985000D01*
X13087857Y-18970714D01*
X13130714Y-18970714D01*
X13159286Y-18985000D01*
X13173571Y-19013572D01*
X13173571Y-19170714D01*
X13759286Y-18856429D02*
X13502143Y-19242143D01*
X14145000Y-18870714D02*
X14173571Y-18870714D01*
X14202143Y-18885000D01*
X14216428Y-18899286D01*
X14230714Y-18927857D01*
X14245000Y-18985000D01*
X14245000Y-19056429D01*
X14230714Y-19113572D01*
X14216428Y-19142143D01*
X14202143Y-19156429D01*
X14173571Y-19170714D01*
X14145000Y-19170714D01*
X14116428Y-19156429D01*
X14102143Y-19142143D01*
X14087857Y-19113572D01*
X14073571Y-19056429D01*
X14073571Y-18985000D01*
X14087857Y-18927857D01*
X14102143Y-18899286D01*
X14116428Y-18885000D01*
X14145000Y-18870714D01*
X14373571Y-19142143D02*
X14387857Y-19156429D01*
X14373571Y-19170714D01*
X14359286Y-19156429D01*
X14373571Y-19142143D01*
X14373571Y-19170714D01*
X14573571Y-18870714D02*
X14602143Y-18870714D01*
X14630714Y-18885000D01*
X14645000Y-18899286D01*
X14659285Y-18927857D01*
X14673571Y-18985000D01*
X14673571Y-19056429D01*
X14659285Y-19113572D01*
X14645000Y-19142143D01*
X14630714Y-19156429D01*
X14602143Y-19170714D01*
X14573571Y-19170714D01*
X14545000Y-19156429D01*
X14530714Y-19142143D01*
X14516428Y-19113572D01*
X14502143Y-19056429D01*
X14502143Y-18985000D01*
X14516428Y-18927857D01*
X14530714Y-18899286D01*
X14545000Y-18885000D01*
X14573571Y-18870714D01*
X14945000Y-18870714D02*
X14802143Y-18870714D01*
X14787857Y-19013572D01*
X14802143Y-18999286D01*
X14830714Y-18985000D01*
X14902143Y-18985000D01*
X14930714Y-18999286D01*
X14945000Y-19013572D01*
X14959285Y-19042143D01*
X14959285Y-19113572D01*
X14945000Y-19142143D01*
X14930714Y-19156429D01*
X14902143Y-19170714D01*
X14830714Y-19170714D01*
X14802143Y-19156429D01*
X14787857Y-19142143D01*
X15059285Y-18870714D02*
X15245000Y-18870714D01*
X15145000Y-18985000D01*
X15187857Y-18985000D01*
X15216428Y-18999286D01*
X15230714Y-19013572D01*
X15245000Y-19042143D01*
X15245000Y-19113572D01*
X15230714Y-19142143D01*
X15216428Y-19156429D01*
X15187857Y-19170714D01*
X15102143Y-19170714D01*
X15073571Y-19156429D01*
X15059285Y-19142143D01*
X15359286Y-18870714D02*
X15359286Y-18927857D01*
X15473571Y-18870714D02*
X15473571Y-18927857D01*
X15916428Y-19285000D02*
X15902143Y-19270714D01*
X15873571Y-19227857D01*
X15859285Y-19199286D01*
X15845000Y-19156429D01*
X15830714Y-19085000D01*
X15830714Y-19027857D01*
X15845000Y-18956429D01*
X15859285Y-18913572D01*
X15873571Y-18885000D01*
X15902143Y-18842143D01*
X15916428Y-18827857D01*
X16187857Y-19170714D02*
X16016428Y-19170714D01*
X16102143Y-19170714D02*
X16102143Y-18870714D01*
X16073571Y-18913572D01*
X16045000Y-18942143D01*
X16016428Y-18956429D01*
X16545000Y-19170714D02*
X16545000Y-18870714D01*
X16673571Y-19170714D02*
X16673571Y-19013572D01*
X16659285Y-18985000D01*
X16630714Y-18970714D01*
X16587857Y-18970714D01*
X16559285Y-18985000D01*
X16545000Y-18999286D01*
X16859286Y-19170714D02*
X16830714Y-19156429D01*
X16816428Y-19142143D01*
X16802143Y-19113572D01*
X16802143Y-19027857D01*
X16816428Y-18999286D01*
X16830714Y-18985000D01*
X16859286Y-18970714D01*
X16902143Y-18970714D01*
X16930714Y-18985000D01*
X16945000Y-18999286D01*
X16959286Y-19027857D01*
X16959286Y-19113572D01*
X16945000Y-19142143D01*
X16930714Y-19156429D01*
X16902143Y-19170714D01*
X16859286Y-19170714D01*
X17130714Y-19170714D02*
X17102143Y-19156429D01*
X17087857Y-19127857D01*
X17087857Y-18870714D01*
X17359286Y-19156429D02*
X17330714Y-19170714D01*
X17273571Y-19170714D01*
X17245000Y-19156429D01*
X17230714Y-19127857D01*
X17230714Y-19013572D01*
X17245000Y-18985000D01*
X17273571Y-18970714D01*
X17330714Y-18970714D01*
X17359286Y-18985000D01*
X17373571Y-19013572D01*
X17373571Y-19042143D01*
X17230714Y-19070714D01*
X17473571Y-19285000D02*
X17487857Y-19270714D01*
X17516429Y-19227857D01*
X17530714Y-19199286D01*
X17545000Y-19156429D01*
X17559286Y-19085000D01*
X17559286Y-19027857D01*
X17545000Y-18956429D01*
X17530714Y-18913572D01*
X17516429Y-18885000D01*
X17487857Y-18842143D01*
X17473571Y-18827857D01*
X18016429Y-19285000D02*
X18002143Y-19270714D01*
X17973571Y-19227857D01*
X17959286Y-19199286D01*
X17945000Y-19156429D01*
X17930714Y-19085000D01*
X17930714Y-19027857D01*
X17945000Y-18956429D01*
X17959286Y-18913572D01*
X17973571Y-18885000D01*
X18002143Y-18842143D01*
X18016429Y-18827857D01*
X18130714Y-18970714D02*
X18130714Y-19170714D01*
X18130714Y-18999286D02*
X18145000Y-18985000D01*
X18173571Y-18970714D01*
X18216429Y-18970714D01*
X18245000Y-18985000D01*
X18259286Y-19013572D01*
X18259286Y-19170714D01*
X18445000Y-19170714D02*
X18416429Y-19156429D01*
X18402143Y-19142143D01*
X18387857Y-19113572D01*
X18387857Y-19027857D01*
X18402143Y-18999286D01*
X18416429Y-18985000D01*
X18445000Y-18970714D01*
X18487857Y-18970714D01*
X18516429Y-18985000D01*
X18530714Y-18999286D01*
X18545000Y-19027857D01*
X18545000Y-19113572D01*
X18530714Y-19142143D01*
X18516429Y-19156429D01*
X18487857Y-19170714D01*
X18445000Y-19170714D01*
X18630714Y-18970714D02*
X18745000Y-18970714D01*
X18673571Y-18870714D02*
X18673571Y-19127857D01*
X18687857Y-19156429D01*
X18716429Y-19170714D01*
X18745000Y-19170714D01*
X19073571Y-18970714D02*
X19073571Y-19270714D01*
X19073571Y-18985000D02*
X19102143Y-18970714D01*
X19159286Y-18970714D01*
X19187857Y-18985000D01*
X19202143Y-18999286D01*
X19216429Y-19027857D01*
X19216429Y-19113572D01*
X19202143Y-19142143D01*
X19187857Y-19156429D01*
X19159286Y-19170714D01*
X19102143Y-19170714D01*
X19073571Y-19156429D01*
X19387857Y-19170714D02*
X19359286Y-19156429D01*
X19345000Y-19127857D01*
X19345000Y-18870714D01*
X19630714Y-19170714D02*
X19630714Y-19013572D01*
X19616429Y-18985000D01*
X19587857Y-18970714D01*
X19530714Y-18970714D01*
X19502143Y-18985000D01*
X19630714Y-19156429D02*
X19602143Y-19170714D01*
X19530714Y-19170714D01*
X19502143Y-19156429D01*
X19487857Y-19127857D01*
X19487857Y-19099286D01*
X19502143Y-19070714D01*
X19530714Y-19056429D01*
X19602143Y-19056429D01*
X19630714Y-19042143D01*
X19730714Y-18970714D02*
X19845000Y-18970714D01*
X19773572Y-18870714D02*
X19773572Y-19127857D01*
X19787857Y-19156429D01*
X19816429Y-19170714D01*
X19845000Y-19170714D01*
X20059286Y-19156429D02*
X20030714Y-19170714D01*
X19973572Y-19170714D01*
X19945000Y-19156429D01*
X19930714Y-19127857D01*
X19930714Y-19013572D01*
X19945000Y-18985000D01*
X19973572Y-18970714D01*
X20030714Y-18970714D01*
X20059286Y-18985000D01*
X20073572Y-19013572D01*
X20073572Y-19042143D01*
X19930714Y-19070714D01*
X20330714Y-19170714D02*
X20330714Y-18870714D01*
X20330714Y-19156429D02*
X20302143Y-19170714D01*
X20245000Y-19170714D01*
X20216429Y-19156429D01*
X20202143Y-19142143D01*
X20187857Y-19113572D01*
X20187857Y-19027857D01*
X20202143Y-18999286D01*
X20216429Y-18985000D01*
X20245000Y-18970714D01*
X20302143Y-18970714D01*
X20330714Y-18985000D01*
X20445000Y-19285000D02*
X20459286Y-19270714D01*
X20487857Y-19227857D01*
X20502143Y-19199286D01*
X20516429Y-19156429D01*
X20530714Y-19085000D01*
X20530714Y-19027857D01*
X20516429Y-18956429D01*
X20502143Y-18913572D01*
X20487857Y-18885000D01*
X20459286Y-18842143D01*
X20445000Y-18827857D01*
M02*
